M48
;DRILL file {KiCad 4.0.7-e2-6376~58~ubuntu16.04.1} date Mon Aug 13 19:04:21 2018
;FORMAT={-:-/ absolute / inch / decimal}
FMAT,2
INCH,TZ
T1C0.014
T2C0.016
T3C0.031
T4C0.040
T5C0.125
%
G90
G05
M72
T1
X4.26Y-2.5
X4.53Y-2.5
X4.61Y-5.45
X4.6439Y-3.4569
X4.7Y-3.48
X4.7021Y-3.0975
X4.7029Y-3.2545
X4.72Y-2.41
X4.73Y-2.58
X4.73Y-3.52
X4.7564Y-4.3079
X4.7664Y-4.7795
X4.77Y-2.41
X4.77Y-3.08
X4.7721Y-4.2421
X4.8Y-3.11
X4.81Y-4.27
X4.8182Y-4.8118
X4.82Y-5.14
X4.82Y-4.16
X4.8294Y-3.741
X4.84Y-3.09
X4.84Y-4.85
X4.86Y-2.62
X4.87Y-3.12
X4.8776Y-3.7382
X4.8805Y-3.7039
X4.89Y-5.14
X4.91Y-4.72
X4.9319Y-3.0938
X4.94Y-3.71
X4.95Y-3.1283
X4.95Y-4.32
X4.97Y-3.74
X4.98Y-2.25
X5.Y-5.11
X5.0021Y-3.7121
X5.0129Y-3.1029
X5.0273Y-3.4709
X5.03Y-4.11
X5.0441Y-3.7439
X5.05Y-4.35
X5.06Y-3.12
X5.06Y-3.45
X5.07Y-3.71
X5.09Y-2.2518
X5.0971Y-4.7229
X5.1Y-3.48
X5.1041Y-5.27
X5.11Y-4.14
X5.14Y-3.21
X5.14Y-3.46
X5.15Y-3.12
X5.16Y-4.12
X5.1983Y-5.2102
X5.2Y-3.89
X5.24Y-4.2621
X5.24Y-2.82
X5.24Y-3.58
X5.25Y-2.5
X5.25Y-3.71
X5.25Y-2.7066
X5.26Y-3.01
X5.26Y-5.46
X5.28Y-4.2759
X5.3041Y-4.69
X5.3097Y-3.4
X5.31Y-4.35
X5.32Y-4.1
X5.32Y-4.74
X5.333Y-5.0298
X5.34Y-3.6644
X5.34Y-4.31
X5.34Y-5.08
X5.35Y-3.63
X5.3681Y-3.4482
X5.3805Y-2.4479
X5.39Y-3.295
X5.4Y-3.07
X5.4Y-3.2
X5.4Y-3.34
X5.4Y-3.71
X5.4017Y-3.4844
X5.42Y-3.67
X5.4307Y-3.5031
X5.4367Y-5.2057
X5.44Y-2.97
X5.44Y-3.37
X5.44Y-5.24
X5.4459Y-3.86
X5.45Y-3.56
X5.4543Y-4.2493
X5.46Y-3.41
X5.48Y-2.96
X5.48Y-4.31
X5.49Y-5.39
X5.499Y-4.399
X5.5045Y-3.1305
X5.52Y-5.42
X5.5211Y-4.3587
X5.5267Y-4.7012
X5.5395Y-3.1655
X5.5496Y-4.6471
X5.55Y-2.93
X5.5541Y-4.0674
X5.5547Y-4.6812
X5.5558Y-3.4761
X5.56Y-2.3559
X5.56Y-2.65
X5.5658Y-4.3141
X5.5867Y-4.0563
X5.59Y-2.97
X5.6127Y-3.83
X5.6275Y-3.7695
X5.6786Y-3.78
X5.6981Y-4.3814
X5.7778Y-3.494
X5.79Y-3.3366
X5.81Y-3.87
X5.83Y-3.83
X5.83Y-4.3241
X5.835Y-3.3366
X5.84Y-3.77
X5.845Y-3.2225
X5.8727Y-4.3379
X5.8727Y-3.8191
X5.88Y-3.3366
X5.89Y-3.24
X5.9057Y-4.3517
X5.91Y-3.78
X5.94Y-2.44
X5.9401Y-4.3517
X5.945Y-3.3366
X5.9489Y-3.2493
X5.96Y-3.8356
X5.96Y-3.87
X5.97Y-3.77
X5.98Y-3.27
X6.Y-3.31
X6.05Y-2.37
X6.05Y-3.77
X6.07Y-2.7
X6.2007Y-3.8436
X6.23Y-3.53
X6.26Y-4.0969
X6.2784Y-2.9508
X6.3825Y-3.595
X6.3975Y-3.6375
X6.4111Y-3.0288
X6.42Y-4.32
X6.43Y-4.37
X6.6147Y-4.626
X6.65Y-4.67
X6.6921Y-4.5779
X6.7Y-4.67
X6.72Y-4.75
X6.74Y-4.59
X6.75Y-4.63
X6.78Y-4.66
X6.91Y-4.45
X6.95Y-4.49
T2
X4.15Y-2.29
X4.27Y-2.61
X4.67Y-2.37
X4.69Y-4.99
X4.95Y-3.88
X4.97Y-3.78
X5.02Y-3.21
X5.22Y-3.19
X5.3349Y-3.7043
X5.34Y-3.4919
X5.35Y-5.48
X5.36Y-3.92
X5.369Y-3.15
X5.41Y-5.29
X5.4294Y-4.83
X5.4332Y-4.67
X5.44Y-3.78
X5.4818Y-3.04
X5.649Y-3.1951
X5.73Y-3.73
X5.77Y-4.75
X5.8Y-2.96
X5.84Y-4.43
X6.0894Y-3.19
X6.13Y-5.35
X6.15Y-2.46
X6.15Y-3.74
X6.2Y-2.96
X6.21Y-3.4
X6.26Y-3.7408
X6.28Y-2.44
X6.33Y-3.46
X6.3906Y-3.7875
T3
X5.4008Y-2.5591
X5.4008Y-2.8591
X5.5008Y-2.5591
X5.5008Y-2.8591
X5.6008Y-2.5591
X5.6008Y-2.8591
X5.7008Y-2.5591
X5.7008Y-2.8591
X5.8008Y-2.5591
X5.8008Y-2.8591
X5.9008Y-2.5591
X5.9008Y-2.8591
X6.0008Y-2.5591
X6.0008Y-2.8591
X6.1008Y-2.5591
X6.1008Y-2.8591
X6.2008Y-2.5591
X6.2008Y-2.8591
T4
X4.5309Y-2.2997
X4.6309Y-2.2997
X4.7309Y-2.2997
X4.7803Y-4.4776
X4.7803Y-4.5776
X4.7803Y-4.9106
X4.7803Y-5.0106
X4.7803Y-5.3437
X4.7803Y-5.4437
X4.8309Y-2.2997
X4.8803Y-4.4776
X4.8803Y-4.5776
X4.8803Y-4.9106
X4.8803Y-5.0106
X4.8803Y-5.3437
X4.8803Y-5.4437
X4.8909Y-4.1997
X4.9309Y-2.2997
X4.9803Y-4.4776
X4.9803Y-4.5776
X4.9803Y-4.9106
X4.9803Y-5.0106
X4.9803Y-5.3437
X4.9803Y-5.4437
X4.9909Y-4.1997
X5.0309Y-2.2997
X5.0803Y-4.4776
X5.0803Y-4.5776
X5.0803Y-4.9106
X5.0803Y-5.0106
X5.0803Y-5.3437
X5.0803Y-5.4437
X5.0909Y-4.1997
X5.1309Y-2.2997
X5.1803Y-4.4776
X5.1803Y-4.5776
X5.1803Y-4.9106
X5.1803Y-5.0106
X5.1803Y-5.3437
X5.1803Y-5.4437
X5.1909Y-4.1997
X5.2309Y-2.2997
X5.2909Y-4.1997
X5.3309Y-2.2997
X5.3909Y-4.1997
X5.4309Y-2.2997
X5.4909Y-4.1997
X5.5874Y-4.4776
X5.5874Y-4.5776
X5.5874Y-4.9106
X5.5874Y-5.0106
X5.5874Y-5.3437
X5.5874Y-5.4437
X5.5909Y-2.2997
X5.5909Y-4.1997
X5.6874Y-4.4776
X5.6874Y-4.5776
X5.6874Y-4.9106
X5.6874Y-5.0106
X5.6874Y-5.3437
X5.6874Y-5.4437
X5.6909Y-2.2997
X5.7874Y-4.4776
X5.7874Y-4.5776
X5.7874Y-4.9106
X5.7874Y-5.0106
X5.7874Y-5.3437
X5.7874Y-5.4437
X5.7909Y-2.2997
X5.7909Y-4.1997
X5.8874Y-4.4776
X5.8874Y-4.5776
X5.8874Y-4.9106
X5.8874Y-5.0106
X5.8874Y-5.3437
X5.8874Y-5.4437
X5.8909Y-2.2997
X5.8909Y-4.1997
X5.9874Y-4.4776
X5.9874Y-4.5776
X5.9874Y-4.9106
X5.9874Y-5.0106
X5.9874Y-5.3437
X5.9874Y-5.4437
X5.9909Y-2.2997
X5.9909Y-4.1997
X6.0909Y-2.2997
X6.0909Y-4.1997
X6.1909Y-2.2997
X6.1909Y-4.1997
X6.2909Y-2.2997
X6.2909Y-4.1997
X6.2964Y-3.1017
X6.2964Y-3.2017
X6.2964Y-3.3016
X6.3964Y-3.1017
X6.3964Y-3.2017
X6.3964Y-3.3016
X6.4Y-4.91
X6.4Y-5.01
X6.4Y-5.345
X6.4Y-5.445
X6.5Y-4.91
X6.5Y-5.01
X6.5Y-5.345
X6.5Y-5.445
X6.6Y-4.91
X6.6Y-5.01
X6.6Y-5.345
X6.6Y-5.445
X6.7Y-4.91
X6.7Y-5.01
X6.7Y-5.345
X6.7Y-5.445
X6.8Y-4.91
X6.8Y-5.01
X6.8Y-5.345
X6.8Y-5.445
T5
X4.3409Y-4.1997
X4.3909Y-2.2997
X6.3909Y-2.8997
X6.3909Y-3.9997
T0
M30
