M48
INCH,TZ
T1C0.016
T2C0.018
T3C0.031
T4C0.040
T5C0.125
%
G90
G05
T1
X41200Y-40283
X43205Y-39539
X44174Y-39515
X44258Y-45727
X44625Y-41874
X44682Y-45564
X44995Y-41874
X45250Y-45238
X45336Y-40030
X45707Y-42638
X45753Y-39920
X46090Y-50746
X46323Y-40180
X46589Y-50389
X46788Y-37579
X46849Y-53419
X46905Y-43303
X46967Y-52575
X47167Y-39090
X47218Y-53419
X47325Y-39616
X47342Y-42674
X47610Y-39976
X48188Y-37652
X48250Y-42975
X48842Y-56810
X49501Y-52232
X49606Y-56050
X50093Y-41308
X50250Y-52262
X52303Y-54653
X52706Y-43208
X52710Y-44084
X53123Y-37291
X53329Y-43095
X53550Y-40617
X54228Y-40619
X54250Y-51220
X54340Y-34586
X54750Y-51286
X54750Y-41377
X54753Y-52817
X54839Y-40780
X55050Y-43080
X55274Y-52910
X55291Y-42703
X56010Y-37487
X56063Y-52863
X56284Y-45525
X56864Y-52807
X57359Y-52517
X57429Y-41916
X57649Y-52956
X57771Y-42222
X58050Y-41662
X58250Y-52518
X58464Y-40674
X58975Y-52678
X59433Y-51224
X59784Y-44889
T2
X44600Y-52200
X44600Y-60600
X45100Y-42550
X45217Y-50295
X46700Y-33850
X46900Y-48450
X47250Y-45850
X47800Y-62000
X48500Y-33850
X49000Y-42258
X49800Y-48450
X49950Y-45377
X50800Y-33750
X51250Y-39500
X51350Y-44750
X51500Y-41000
X51600Y-62000
X52000Y-48350
X52650Y-64150
X53107Y-39307
X54600Y-66000
X55200Y-53800
X55645Y-50722
X56000Y-54000
X56250Y-41750
X57400Y-54000
X58400Y-54200
X60750Y-42500
X61000Y-52000
T3
X44600Y-46500
X44600Y-49500
X45600Y-46500
X45600Y-49500
X46600Y-46500
X46600Y-49500
X47600Y-46500
X47600Y-49500
X48600Y-46500
X48600Y-49500
X49600Y-46500
X49600Y-49500
X50600Y-46500
X50600Y-49500
X51600Y-46500
X51600Y-49500
X52600Y-46500
X52600Y-49500
T4
X42750Y-38450
X43750Y-38450
X44500Y-31250
X44500Y-32250
X44500Y-35250
X44500Y-36250
X44750Y-38450
X45500Y-31250
X45500Y-32250
X45500Y-35250
X45500Y-36250
X45750Y-38450
X46000Y-59750
X46000Y-60750
X46000Y-63750
X46000Y-64750
X46350Y-57450
X46500Y-31250
X46500Y-32250
X46500Y-35250
X46500Y-36250
X46750Y-38450
X47000Y-59750
X47000Y-60750
X47000Y-63750
X47000Y-64750
X47350Y-57450
X47500Y-31250
X47500Y-32250
X47500Y-35250
X47500Y-36250
X47750Y-38450
X48000Y-59750
X48000Y-60750
X48000Y-63750
X48000Y-64750
X48350Y-57450
X48500Y-31250
X48500Y-32250
X48500Y-35250
X48500Y-36250
X48750Y-38450
X49000Y-59750
X49000Y-60750
X49000Y-63750
X49000Y-64750
X49350Y-57450
X49750Y-38450
X50000Y-59750
X50000Y-60750
X50000Y-63750
X50000Y-64750
X50350Y-57450
X50750Y-38450
X51350Y-57450
X51750Y-38450
X52350Y-57450
X53000Y-31250
X53000Y-32250
X53000Y-35250
X53000Y-36250
X53350Y-38450
X53350Y-57450
X54000Y-31250
X54000Y-32250
X54000Y-35250
X54000Y-36250
X54350Y-38450
X55000Y-31250
X55000Y-32250
X55000Y-35250
X55000Y-36250
X55000Y-59750
X55000Y-60750
X55000Y-63750
X55000Y-64750
X55350Y-38450
X55350Y-57450
X56000Y-31250
X56000Y-32250
X56000Y-35250
X56000Y-36250
X56000Y-59750
X56000Y-60750
X56000Y-63750
X56000Y-64750
X56350Y-38450
X56350Y-57450
X57000Y-31250
X57000Y-32250
X57000Y-35250
X57000Y-36250
X57000Y-59750
X57000Y-60750
X57000Y-63750
X57000Y-64750
X57350Y-38450
X57350Y-57450
X58000Y-45250
X58000Y-46250
X58000Y-47250
X58000Y-48250
X58000Y-49250
X58000Y-50250
X58000Y-59750
X58000Y-60750
X58000Y-63750
X58000Y-64750
X58350Y-38450
X58350Y-57450
X59000Y-45250
X59000Y-46250
X59000Y-47250
X59000Y-48250
X59000Y-49250
X59000Y-50250
X59000Y-59750
X59000Y-60750
X59000Y-63750
X59000Y-64750
X59350Y-38450
X59350Y-57450
X60350Y-38450
X60350Y-57450
X60405Y-46470
X60405Y-47470
X60405Y-48469
X61405Y-46470
X61405Y-47470
X61405Y-48469
T5
X41350Y-38450
X61350Y-44450
X61350Y-55450
T0
M30
