G04 #@! TF.FileFunction,Copper,L2,Bot,Signal*
%FSLAX46Y46*%
G04 Gerber Fmt 4.6, Leading zero omitted, Abs format (unit mm)*
G04 Created by KiCad (PCBNEW 4.0.7) date 04/09/18 16:23:24*
%MOMM*%
%LPD*%
G01*
G04 APERTURE LIST*
%ADD10C,0.100000*%
%ADD11C,0.254000*%
%ADD12C,1.879600*%
%ADD13R,1.270000X0.635000*%
%ADD14R,0.635000X1.270000*%
%ADD15R,1.600000X1.600000*%
%ADD16O,1.600000X1.600000*%
%ADD17C,1.930400*%
%ADD18C,0.950000*%
%ADD19C,0.762000*%
%ADD20C,0.250000*%
%ADD21C,0.152400*%
G04 APERTURE END LIST*
D10*
D11*
X128524000Y-121158000D02*
X128524000Y-120142000D01*
X139700000Y-100965000D02*
X140716000Y-100965000D01*
X140970000Y-142875000D02*
X139954000Y-142875000D01*
D12*
X113030000Y-92075000D03*
X113030000Y-89535000D03*
X115570000Y-92075000D03*
X115570000Y-89535000D03*
X118110000Y-92075000D03*
X118110000Y-89535000D03*
X120650000Y-92075000D03*
X120650000Y-89535000D03*
X123190000Y-92075000D03*
X123190000Y-89535000D03*
X113030000Y-81915000D03*
X113030000Y-79375000D03*
X115570000Y-81915000D03*
X115570000Y-79375000D03*
X118110000Y-81915000D03*
X118110000Y-79375000D03*
X120650000Y-81915000D03*
X120650000Y-79375000D03*
X123190000Y-81915000D03*
X123190000Y-79375000D03*
X134620000Y-81915000D03*
X134620000Y-79375000D03*
X137160000Y-81915000D03*
X137160000Y-79375000D03*
X139700000Y-81915000D03*
X139700000Y-79375000D03*
X142240000Y-81915000D03*
X142240000Y-79375000D03*
X144780000Y-81915000D03*
X144780000Y-79375000D03*
X134620000Y-92075000D03*
X134620000Y-89535000D03*
X137160000Y-92075000D03*
X137160000Y-89535000D03*
X139700000Y-92075000D03*
X139700000Y-89535000D03*
X142240000Y-92075000D03*
X142240000Y-89535000D03*
X144780000Y-92075000D03*
X144780000Y-89535000D03*
X127000000Y-161925000D03*
X127000000Y-164465000D03*
X124460000Y-161925000D03*
X124460000Y-164465000D03*
X121920000Y-161925000D03*
X121920000Y-164465000D03*
X119380000Y-161925000D03*
X119380000Y-164465000D03*
X116840000Y-161925000D03*
X116840000Y-164465000D03*
X127000000Y-151765000D03*
X127000000Y-154305000D03*
X124460000Y-151765000D03*
X124460000Y-154305000D03*
X121920000Y-151765000D03*
X121920000Y-154305000D03*
X119380000Y-151765000D03*
X119380000Y-154305000D03*
X116840000Y-151765000D03*
X116840000Y-154305000D03*
X149860000Y-161925000D03*
X149860000Y-164465000D03*
X147320000Y-161925000D03*
X147320000Y-164465000D03*
X144780000Y-161925000D03*
X144780000Y-164465000D03*
X142240000Y-161925000D03*
X142240000Y-164465000D03*
X139700000Y-161925000D03*
X139700000Y-164465000D03*
X149860000Y-151765000D03*
X149860000Y-154305000D03*
X147320000Y-151765000D03*
X147320000Y-154305000D03*
X144780000Y-151765000D03*
X144780000Y-154305000D03*
X142240000Y-151765000D03*
X142240000Y-154305000D03*
X139700000Y-151765000D03*
X139700000Y-154305000D03*
X149860000Y-127635000D03*
X147320000Y-127635000D03*
X149860000Y-125095000D03*
X147320000Y-125095000D03*
X149860000Y-122555000D03*
X147320000Y-122555000D03*
X149860000Y-120015000D03*
X147320000Y-120015000D03*
X149860000Y-117475000D03*
X147320000Y-117475000D03*
X149860000Y-114935000D03*
X147320000Y-114935000D03*
D13*
X128524000Y-121158000D03*
X128524000Y-120142000D03*
X125984000Y-121056400D03*
X125984000Y-120243600D03*
X123444000Y-121056400D03*
X123444000Y-120243600D03*
D14*
X138684000Y-100965000D03*
X139700000Y-100965000D03*
X140716000Y-100965000D03*
X141986000Y-142875000D03*
X140970000Y-142875000D03*
X139954000Y-142875000D03*
D15*
X133604000Y-118110000D03*
D16*
X113284000Y-125730000D03*
X131064000Y-118110000D03*
X115824000Y-125730000D03*
X128524000Y-118110000D03*
X118364000Y-125730000D03*
X125984000Y-118110000D03*
X120904000Y-125730000D03*
X123444000Y-118110000D03*
X123444000Y-125730000D03*
X120904000Y-118110000D03*
X125984000Y-125730000D03*
X118364000Y-118110000D03*
X128524000Y-125730000D03*
X115824000Y-118110000D03*
X131064000Y-125730000D03*
X113284000Y-118110000D03*
X133604000Y-125730000D03*
D17*
X125349000Y-145923000D03*
X127889000Y-145923000D03*
X140589000Y-145923000D03*
X143129000Y-145923000D03*
X145669000Y-145923000D03*
X148209000Y-145923000D03*
X150749000Y-145923000D03*
X153289000Y-145923000D03*
X113665000Y-97663000D03*
X153289000Y-97663000D03*
X150749000Y-97663000D03*
X148209000Y-97663000D03*
X145669000Y-97663000D03*
X143129000Y-97663000D03*
X140589000Y-97663000D03*
X138049000Y-97663000D03*
X135509000Y-97663000D03*
X131445000Y-97663000D03*
X128905000Y-97663000D03*
X126365000Y-97663000D03*
X123825000Y-97663000D03*
X121285000Y-97663000D03*
X118745000Y-97663000D03*
X130429000Y-145923000D03*
X132969000Y-145923000D03*
X116205000Y-97663000D03*
X155968700Y-123111260D03*
X120269000Y-145923000D03*
X153428700Y-118033800D03*
X155968700Y-120573800D03*
X117729000Y-145923000D03*
X122809000Y-145923000D03*
X153428700Y-123111260D03*
X153428700Y-120573800D03*
X108585000Y-97663000D03*
X111125000Y-97663000D03*
X155968700Y-118033800D03*
X135509000Y-145923000D03*
D18*
X114851074Y-127749798D03*
X133731000Y-162941000D03*
X121412000Y-157480000D03*
X131064000Y-157480000D03*
X138684000Y-167640000D03*
X113284000Y-153924000D03*
X113284000Y-132588000D03*
X148336000Y-137668000D03*
X145796000Y-137160000D03*
X140208000Y-136652000D03*
X142240000Y-137160000D03*
X141339072Y-128834294D03*
X154940000Y-132080000D03*
X130429000Y-113665000D03*
X120015000Y-116459000D03*
D19*
X139065248Y-105096940D03*
D18*
X154305000Y-107950000D03*
X142875000Y-106045000D03*
X130810000Y-104140000D03*
X130175000Y-100330000D03*
X132080000Y-122809000D03*
X118618000Y-85979000D03*
X129032000Y-85725000D03*
X123190000Y-85979000D03*
X114554000Y-108077000D03*
X124460000Y-107335000D03*
X134891000Y-99839900D03*
X126492000Y-123063000D03*
X119126000Y-123063000D03*
D19*
X118336850Y-127988432D03*
X113348700Y-106359400D03*
X137795000Y-130099700D03*
X115153400Y-101676500D03*
X136017000Y-103166500D03*
X113491500Y-115731900D03*
X135456900Y-109461300D03*
X114935000Y-114905400D03*
X133884400Y-111974100D03*
X119934500Y-135684505D03*
X117069355Y-128895630D03*
X114286100Y-106359400D03*
X116212000Y-101397700D03*
X137738500Y-103171700D03*
X139065000Y-130267500D03*
X139290659Y-103581709D03*
X127235200Y-104921300D03*
X150960700Y-130107800D03*
X148498500Y-103312600D03*
X132850700Y-138819600D03*
X120205500Y-100623800D03*
D18*
X126872500Y-115257300D03*
D19*
X151851360Y-114018060D03*
X120929800Y-101538100D03*
X119803700Y-99288200D03*
X118840700Y-95449800D03*
X117660800Y-102057600D03*
X122398400Y-95635500D03*
X120248700Y-108391100D03*
X109739500Y-100429100D03*
X122555000Y-109155300D03*
X119137700Y-109989200D03*
X112202300Y-100368500D03*
X116095500Y-108300600D03*
X104648000Y-102319800D03*
X142264700Y-95216200D03*
X138024500Y-87849200D03*
X134933400Y-94718800D03*
X140439400Y-108465500D03*
X145870400Y-106465500D03*
X139827000Y-109422600D03*
X147447000Y-105822300D03*
X146738800Y-107244100D03*
X125732700Y-132668600D03*
X118997100Y-135684505D03*
X119295200Y-133539400D03*
X127635000Y-132746500D03*
X124059500Y-144297900D03*
X126000400Y-142367100D03*
X144435500Y-134129000D03*
X145691400Y-133392200D03*
X142398900Y-134270800D03*
X146427600Y-134507800D03*
X140395300Y-134391900D03*
X147955000Y-133396500D03*
X139073100Y-134155600D03*
X149797100Y-133802500D03*
X142961806Y-115634679D03*
X112414900Y-116147000D03*
X133874400Y-109747500D03*
D20*
X138811000Y-151765000D02*
X138925284Y-151879284D01*
X138925284Y-151879284D02*
X138925284Y-152582408D01*
X138925284Y-152582408D02*
X137887344Y-153620348D01*
X137887344Y-153620348D02*
X137887344Y-154903274D01*
X137887344Y-154903274D02*
X138925284Y-155941214D01*
X138925284Y-155941214D02*
X138925284Y-159952916D01*
X138925284Y-159952916D02*
X138326600Y-160551600D01*
X135636000Y-148336000D02*
X135382000Y-148336000D01*
X135382000Y-148336000D02*
X132969000Y-145923000D01*
X138125201Y-150825201D02*
X135636000Y-148336000D01*
X139700000Y-151765000D02*
X138760201Y-150825201D01*
X138760201Y-150825201D02*
X138125201Y-150825201D01*
X132969000Y-145923000D02*
X133012408Y-145923000D01*
X138811000Y-151721592D02*
X138811000Y-151765000D01*
X123190000Y-92075000D02*
X120964558Y-94300442D01*
X120964558Y-94300442D02*
X117657766Y-94300442D01*
X117657766Y-94300442D02*
X117365418Y-94592790D01*
X117365418Y-94592790D02*
X117365418Y-96502582D01*
X117365418Y-96502582D02*
X116205000Y-97663000D01*
X115326073Y-127274799D02*
X114851074Y-127749798D01*
X115368459Y-127232413D02*
X115326073Y-127274799D01*
X120396000Y-128524000D02*
X119104413Y-127232413D01*
X119104413Y-127232413D02*
X115368459Y-127232413D01*
X135001000Y-160551600D02*
X129032000Y-160551600D01*
X138326600Y-160551600D02*
X135001000Y-160551600D01*
X135001000Y-160551600D02*
X135001000Y-161671000D01*
X135001000Y-161671000D02*
X133731000Y-162941000D01*
X131064000Y-157480000D02*
X121412000Y-157480000D01*
X129032000Y-160551600D02*
X118213400Y-160551600D01*
X129032000Y-160551600D02*
X129032000Y-159512000D01*
X129032000Y-159512000D02*
X131064000Y-157480000D01*
X138684000Y-167640000D02*
X138684000Y-166968249D01*
X112776000Y-133096000D02*
X112776000Y-153416000D01*
X112776000Y-153416000D02*
X113284000Y-153924000D01*
X113284000Y-132588000D02*
X112776000Y-133096000D01*
X139065248Y-105635755D02*
X139065248Y-105096940D01*
X139065248Y-106679752D02*
X139065248Y-105635755D01*
X139065000Y-106680000D02*
X139065248Y-106679752D01*
X134111100Y-99060000D02*
X134891000Y-99839900D01*
X133440500Y-98389400D02*
X134111100Y-99060000D01*
X134111100Y-99060000D02*
X131445000Y-99060000D01*
X131445000Y-99060000D02*
X130175000Y-100330000D01*
X123190000Y-85979000D02*
X118618000Y-85979000D01*
X129032000Y-85979000D02*
X145542000Y-85979000D01*
X123190000Y-85979000D02*
X129032000Y-85979000D01*
X129032000Y-85979000D02*
X129032000Y-85725000D01*
X114554000Y-108077000D02*
X114300000Y-107823000D01*
X114300000Y-107823000D02*
X114046000Y-107823000D01*
X115509600Y-157847800D02*
X118213400Y-160551600D01*
X115509600Y-153095400D02*
X115509600Y-157847800D01*
X116840000Y-151765000D02*
X115509600Y-153095400D01*
X118213400Y-160551600D02*
X116840000Y-161925000D01*
X138811000Y-151765000D02*
X139700000Y-151765000D01*
X139700000Y-161925000D02*
X138326600Y-160551600D01*
X124522600Y-83247600D02*
X123190000Y-81915000D01*
X124522600Y-90742400D02*
X124522600Y-83247600D01*
X123190000Y-92075000D02*
X124522600Y-90742400D01*
X135478800Y-86764600D02*
X128994800Y-93248600D01*
X139930400Y-86764600D02*
X135478800Y-86764600D01*
X144780000Y-81915000D02*
X139930400Y-86764600D01*
X126488500Y-90742400D02*
X128994800Y-93248600D01*
X124522600Y-90742400D02*
X126488500Y-90742400D01*
X133440500Y-97694400D02*
X133440500Y-98389400D01*
X128994800Y-93248600D02*
X133440500Y-97694400D01*
D21*
X118712967Y-136316707D02*
X118336850Y-135940590D01*
X120218633Y-136316707D02*
X118712967Y-136316707D01*
X118336850Y-135940590D02*
X118336850Y-128527247D01*
X118336850Y-128527247D02*
X118336850Y-127988432D01*
X137795000Y-130099700D02*
X126435640Y-130099700D01*
X126435640Y-130099700D02*
X120218633Y-136316707D01*
X115824000Y-125730000D02*
X115824000Y-124678500D01*
X111773300Y-107934800D02*
X113348700Y-106359400D01*
X111773300Y-120627800D02*
X111773300Y-107934800D01*
X115824000Y-124678500D02*
X111773300Y-120627800D01*
X115507200Y-102030300D02*
X115153400Y-101676500D01*
X116275500Y-102030300D02*
X115507200Y-102030300D01*
X117411700Y-103166500D02*
X116275500Y-102030300D01*
X136017000Y-103166500D02*
X117411700Y-103166500D01*
X118364000Y-125730000D02*
X118364000Y-124678500D01*
X114466400Y-116706800D02*
X113491500Y-115731900D01*
X114466400Y-120780900D02*
X114466400Y-116706800D01*
X118364000Y-124678500D02*
X114466400Y-120780900D01*
X133620200Y-111298000D02*
X135456900Y-109461300D01*
X117647700Y-111298000D02*
X133620200Y-111298000D01*
X113491500Y-115454200D02*
X117647700Y-111298000D01*
X113491500Y-115731900D02*
X113491500Y-115454200D01*
X123444000Y-125730000D02*
X123444000Y-124678500D01*
X117176600Y-117147000D02*
X114935000Y-114905400D01*
X117176600Y-118411100D02*
X117176600Y-117147000D01*
X123444000Y-124678500D02*
X117176600Y-118411100D01*
X128057600Y-111974100D02*
X133884400Y-111974100D01*
X122358200Y-117673500D02*
X128057600Y-111974100D01*
X122358200Y-121420200D02*
X122358200Y-117673500D01*
X125616500Y-124678500D02*
X122358200Y-121420200D01*
X125984000Y-124678500D02*
X125616500Y-124678500D01*
X125984000Y-125730000D02*
X125984000Y-124678500D01*
X119934500Y-135145690D02*
X119934500Y-135684505D01*
X119934500Y-134319500D02*
X119934500Y-135145690D01*
X128524000Y-125730000D02*
X119934500Y-134319500D01*
X117069355Y-135155449D02*
X117069355Y-129434445D01*
X118558024Y-136644118D02*
X117069355Y-135155449D01*
X120801682Y-136644118D02*
X118558024Y-136644118D01*
X125643700Y-131802100D02*
X120801682Y-136644118D01*
X139065000Y-130267500D02*
X137530400Y-131802100D01*
X137530400Y-131802100D02*
X125643700Y-131802100D01*
X116530540Y-128895630D02*
X117069355Y-128895630D01*
X114811128Y-128895630D02*
X116530540Y-128895630D01*
X117069355Y-129434445D02*
X117069355Y-128895630D01*
X113284000Y-127368502D02*
X114811128Y-128895630D01*
X113284000Y-125511400D02*
X113284000Y-127368502D01*
X113284000Y-125204200D02*
X113284000Y-125292900D01*
X113284000Y-125204200D02*
X113284000Y-124678500D01*
X137100700Y-102533900D02*
X137738500Y-103171700D01*
X118079100Y-102533900D02*
X137100700Y-102533900D01*
X117922900Y-102690100D02*
X118079100Y-102533900D01*
X117398800Y-102690100D02*
X117922900Y-102690100D01*
X116212000Y-101503300D02*
X117398800Y-102690100D01*
X116212000Y-101397700D02*
X116212000Y-101503300D01*
X113653600Y-105726900D02*
X114286100Y-106359400D01*
X113086700Y-105726900D02*
X113653600Y-105726900D01*
X111430900Y-107382700D02*
X113086700Y-105726900D01*
X113284000Y-125730000D02*
X113284000Y-125511400D01*
X113284000Y-125511400D02*
X113284000Y-125292900D01*
X111430900Y-122825400D02*
X111430900Y-107382700D01*
X113284000Y-124678500D02*
X111430900Y-122825400D01*
X130405522Y-104921300D02*
X130425423Y-104941201D01*
X127235200Y-104921300D02*
X130405522Y-104921300D01*
X130425423Y-104941201D02*
X137931167Y-104941201D01*
X138909660Y-103962708D02*
X139290659Y-103581709D01*
X137931167Y-104941201D02*
X138909660Y-103962708D01*
X150960700Y-130107800D02*
X157515400Y-123553100D01*
X157515400Y-123553100D02*
X157515400Y-117370600D01*
X157515400Y-117370600D02*
X148498500Y-108353700D01*
X148498500Y-108353700D02*
X148498500Y-103312600D01*
X140970000Y-142875000D02*
X140970000Y-141988500D01*
X141027800Y-141930700D02*
X141027800Y-133615400D01*
X140970000Y-141988500D02*
X141027800Y-141930700D01*
X148935500Y-132133000D02*
X150960700Y-130107800D01*
X142510200Y-132133000D02*
X148935500Y-132133000D01*
X141027800Y-133615400D02*
X142510200Y-132133000D01*
X138217800Y-133452500D02*
X132850700Y-138819600D01*
X140864900Y-133452500D02*
X138217800Y-133452500D01*
X141027800Y-133615400D02*
X140864900Y-133452500D01*
X125984000Y-118110000D02*
X125984000Y-120243600D01*
X123444000Y-118110000D02*
X123444000Y-120243600D01*
X114882000Y-93927000D02*
X113030000Y-92075000D01*
X114882000Y-98205600D02*
X114882000Y-93927000D01*
X117300200Y-100623800D02*
X114882000Y-98205600D01*
X120205500Y-100623800D02*
X117300200Y-100623800D01*
D20*
X146296010Y-86025888D02*
X146296010Y-80891010D01*
X146296010Y-80891010D02*
X145719799Y-80314799D01*
X146550010Y-86279888D02*
X146296010Y-86025888D01*
X145719799Y-80314799D02*
X144780000Y-79375000D01*
X146550010Y-87764990D02*
X146550010Y-86279888D01*
X144780000Y-89535000D02*
X146550010Y-87764990D01*
X118163000Y-155628000D02*
X116840000Y-154305000D01*
X127538700Y-155628000D02*
X118163000Y-155628000D01*
X128315200Y-154851500D02*
X127538700Y-155628000D01*
X128315200Y-146349200D02*
X128315200Y-154851500D01*
X127889000Y-145923000D02*
X128315200Y-146349200D01*
X143446000Y-78041000D02*
X144780000Y-79375000D01*
X124524000Y-78041000D02*
X143446000Y-78041000D01*
X123190000Y-79375000D02*
X124524000Y-78041000D01*
X125984000Y-121056400D02*
X124973700Y-121056400D01*
X124973700Y-121056400D02*
X123444000Y-121056400D01*
X125984000Y-121056400D02*
X126994300Y-121056400D01*
X127196100Y-120854600D02*
X126994300Y-121056400D01*
X127196100Y-115580900D02*
X127196100Y-120854600D01*
X126872500Y-115257300D02*
X127196100Y-115580900D01*
X133604000Y-125730000D02*
X132428700Y-125730000D01*
X128524000Y-121158000D02*
X128524000Y-121850800D01*
X127788700Y-121850800D02*
X126994300Y-121056400D01*
X128524000Y-121850800D02*
X127788700Y-121850800D01*
X132428700Y-125362600D02*
X132428700Y-125730000D01*
X128916900Y-121850800D02*
X132428700Y-125362600D01*
X128524000Y-121850800D02*
X128916900Y-121850800D01*
D21*
X139954000Y-145288000D02*
X140589000Y-145923000D01*
X139954000Y-142875000D02*
X139954000Y-145288000D01*
X142555000Y-145349000D02*
X143129000Y-145923000D01*
X142555000Y-142875000D02*
X142555000Y-145349000D01*
X141986000Y-142875000D02*
X142555000Y-142875000D01*
X140716000Y-97790000D02*
X140589000Y-97663000D01*
X140716000Y-100965000D02*
X140716000Y-97790000D01*
X138684000Y-100965000D02*
X138684000Y-98298000D01*
X138684000Y-98298000D02*
X138049000Y-97663000D01*
X154698700Y-119303800D02*
X155968700Y-120573800D01*
X151688800Y-119303800D02*
X154698700Y-119303800D01*
X149860000Y-117475000D02*
X151688800Y-119303800D01*
X122809000Y-144653700D02*
X122809000Y-145923000D01*
X123864500Y-143598200D02*
X122809000Y-144653700D01*
X127143100Y-143598200D02*
X123864500Y-143598200D01*
X140827800Y-129913500D02*
X127143100Y-143598200D01*
X146745800Y-129913500D02*
X140827800Y-129913500D01*
X148567900Y-128091400D02*
X146745800Y-129913500D01*
X148567900Y-127146500D02*
X148567900Y-128091400D01*
X149270800Y-126443600D02*
X148567900Y-127146500D01*
X150205200Y-126443600D02*
X149270800Y-126443600D01*
X153428700Y-123220100D02*
X150205200Y-126443600D01*
X153428700Y-123111300D02*
X153428700Y-123220100D01*
X151447500Y-122555000D02*
X153428700Y-120573800D01*
X149860000Y-122555000D02*
X151447500Y-122555000D01*
X148590000Y-123825000D02*
X149860000Y-125095000D01*
X148590000Y-114426600D02*
X148590000Y-123825000D01*
X147837600Y-113674200D02*
X148590000Y-114426600D01*
X140564600Y-113674200D02*
X147837600Y-113674200D01*
X132772100Y-105881700D02*
X140564600Y-113674200D01*
X118566900Y-105881700D02*
X132772100Y-105881700D01*
X115486700Y-102801500D02*
X118566900Y-105881700D01*
X113723500Y-102801500D02*
X115486700Y-102801500D01*
X108585000Y-97663000D02*
X113723500Y-102801500D01*
X148634500Y-110801200D02*
X151470361Y-113637061D01*
X134850700Y-105553900D02*
X140098000Y-110801200D01*
X151470361Y-113637061D02*
X151851360Y-114018060D01*
X113871500Y-100409500D02*
X113871500Y-101289400D01*
X115016300Y-102434200D02*
X116056300Y-102434200D01*
X111125000Y-97663000D02*
X113871500Y-100409500D01*
X116056300Y-102434200D02*
X119176000Y-105553900D01*
X119176000Y-105553900D02*
X134850700Y-105553900D01*
X140098000Y-110801200D02*
X148634500Y-110801200D01*
X113871500Y-101289400D02*
X115016300Y-102434200D01*
X111838600Y-90726400D02*
X113030000Y-89535000D01*
X111838600Y-95815900D02*
X111838600Y-90726400D01*
X112448200Y-96425500D02*
X111838600Y-95815900D01*
X112448200Y-98167700D02*
X112448200Y-96425500D01*
X114048400Y-99767900D02*
X112448200Y-98167700D01*
X115980800Y-99767900D02*
X114048400Y-99767900D01*
X117637900Y-101425000D02*
X115980800Y-99767900D01*
X120816700Y-101425000D02*
X117637900Y-101425000D01*
X120929800Y-101538100D02*
X120816700Y-101425000D01*
X119986600Y-99105300D02*
X119803700Y-99288200D01*
X119986600Y-96595700D02*
X119986600Y-99105300D01*
X118840700Y-95449800D02*
X119986600Y-96595700D01*
X122501800Y-95738900D02*
X122398400Y-95635500D01*
X122501800Y-100888400D02*
X122501800Y-95738900D01*
X121184100Y-102206100D02*
X122501800Y-100888400D01*
X117809300Y-102206100D02*
X121184100Y-102206100D01*
X117660800Y-102057600D02*
X117809300Y-102206100D01*
X113398600Y-104088200D02*
X109739500Y-100429100D01*
X114720100Y-104088200D02*
X113398600Y-104088200D01*
X119023000Y-108391100D02*
X114720100Y-104088200D01*
X120248700Y-108391100D02*
X119023000Y-108391100D01*
X119802700Y-106403000D02*
X122555000Y-109155300D01*
X118624600Y-106403000D02*
X119802700Y-106403000D01*
X115710000Y-103488400D02*
X118624600Y-106403000D01*
X113740400Y-103488400D02*
X115710000Y-103488400D01*
X109577900Y-99325900D02*
X113740400Y-103488400D01*
X108480700Y-99325900D02*
X109577900Y-99325900D01*
X107365100Y-98210300D02*
X108480700Y-99325900D01*
X107365100Y-97133000D02*
X107365100Y-98210300D01*
X109198000Y-95300100D02*
X107365100Y-97133000D01*
X109198000Y-88287000D02*
X109198000Y-95300100D01*
X115570000Y-81915000D02*
X109198000Y-88287000D01*
X119137700Y-109832400D02*
X119137700Y-109989200D01*
X113856700Y-104551400D02*
X119137700Y-109832400D01*
X108842400Y-104551400D02*
X113856700Y-104551400D01*
X102823500Y-98532500D02*
X108842400Y-104551400D01*
X102823500Y-96809000D02*
X102823500Y-98532500D01*
X104120900Y-95511600D02*
X102823500Y-96809000D01*
X107449200Y-95511600D02*
X104120900Y-95511600D01*
X108522900Y-94437900D02*
X107449200Y-95511600D01*
X108522900Y-88106900D02*
X108522900Y-94437900D01*
X114378600Y-82251200D02*
X108522900Y-88106900D01*
X114378600Y-80566400D02*
X114378600Y-82251200D01*
X115570000Y-79375000D02*
X114378600Y-80566400D01*
X112202300Y-100368400D02*
X112202300Y-100368500D01*
X112086800Y-100368400D02*
X112202300Y-100368400D01*
X109855000Y-98136600D02*
X112086800Y-100368400D01*
X109855000Y-90170000D02*
X109855000Y-98136600D01*
X118110000Y-81915000D02*
X109855000Y-90170000D01*
X116095500Y-107271900D02*
X116095500Y-108300600D01*
X114222700Y-105399100D02*
X116095500Y-107271900D01*
X107727300Y-105399100D02*
X114222700Y-105399100D01*
X104648000Y-102319800D02*
X107727300Y-105399100D01*
X140970000Y-93921500D02*
X142264700Y-95216200D01*
X140970000Y-89109500D02*
X140970000Y-93921500D01*
X139709700Y-87849200D02*
X140970000Y-89109500D01*
X138024500Y-87849200D02*
X139709700Y-87849200D01*
X134933400Y-94301600D02*
X134933400Y-94718800D01*
X137160000Y-92075000D02*
X134933400Y-94301600D01*
X141144232Y-107760668D02*
X141144232Y-103709257D01*
X134289100Y-98182200D02*
X134289100Y-94460700D01*
X140439400Y-108465500D02*
X141144232Y-107760668D01*
X141144232Y-103709257D02*
X140238362Y-102803387D01*
X140238362Y-102803387D02*
X138732487Y-102803387D01*
X135767900Y-99546700D02*
X135184200Y-98963000D01*
X135767900Y-99838800D02*
X135767900Y-99546700D01*
X135069900Y-98963000D02*
X134289100Y-98182200D01*
X138732487Y-102803387D02*
X135767900Y-99838800D01*
X135184200Y-98963000D02*
X135069900Y-98963000D01*
X135811400Y-90883600D02*
X136220201Y-90474799D01*
X135811400Y-92938400D02*
X135811400Y-90883600D01*
X134289100Y-94460700D02*
X135811400Y-92938400D01*
X136220201Y-90474799D02*
X137160000Y-89535000D01*
X141912200Y-102507300D02*
X145870400Y-106465500D01*
X141912200Y-95780900D02*
X141912200Y-102507300D01*
X139700000Y-93568700D02*
X141912200Y-95780900D01*
X139700000Y-92075000D02*
X139700000Y-93568700D01*
X136830700Y-100420000D02*
X138886676Y-102475976D01*
X141471643Y-108327857D02*
X140376900Y-109422600D01*
X138430000Y-94199700D02*
X136830700Y-95799000D01*
X141471643Y-103573639D02*
X141471643Y-108327857D01*
X138886676Y-102475976D02*
X140373980Y-102475976D01*
X140376900Y-109422600D02*
X140365815Y-109422600D01*
X138430000Y-90805000D02*
X138430000Y-94199700D01*
X139700000Y-89535000D02*
X138430000Y-90805000D01*
X136830700Y-95799000D02*
X136830700Y-100420000D01*
X140373980Y-102475976D02*
X141471643Y-103573639D01*
X140365815Y-109422600D02*
X139827000Y-109422600D01*
X144399100Y-94234100D02*
X142240000Y-92075000D01*
X144399100Y-102774400D02*
X144399100Y-94234100D01*
X147447000Y-105822300D02*
X144399100Y-102774400D01*
X143431400Y-90726400D02*
X142240000Y-89535000D01*
X143431400Y-92802900D02*
X143431400Y-90726400D01*
X146939000Y-96310500D02*
X143431400Y-92802900D01*
X146939000Y-103854300D02*
X146939000Y-96310500D01*
X148087000Y-105002300D02*
X146939000Y-103854300D01*
X148087000Y-106079700D02*
X148087000Y-105002300D01*
X146922600Y-107244100D02*
X148087000Y-106079700D01*
X146738800Y-107244100D02*
X146922600Y-107244100D01*
X124460000Y-161925000D02*
X125730100Y-163195100D01*
X125730100Y-163195100D02*
X128618572Y-163195100D01*
X128618572Y-163195100D02*
X129897577Y-164474105D01*
X129897577Y-164474105D02*
X128608582Y-165763100D01*
X128608582Y-165763100D02*
X116347200Y-165763100D01*
X116347200Y-165763100D02*
X114730200Y-164146100D01*
X114730200Y-164146100D02*
X114730200Y-143671100D01*
X114730200Y-143671100D02*
X125351701Y-133049599D01*
X125351701Y-133049599D02*
X125732700Y-132668600D01*
X119295200Y-135386405D02*
X118997100Y-135684505D01*
X119295200Y-133539400D02*
X119295200Y-135386405D01*
X115058000Y-145323500D02*
X127635000Y-132746500D01*
X115058000Y-161983300D02*
X115058000Y-145323500D01*
X116269700Y-163195000D02*
X115058000Y-161983300D01*
X118110000Y-163195000D02*
X116269700Y-163195000D01*
X119380000Y-164465000D02*
X118110000Y-163195000D01*
X125651400Y-152956400D02*
X127000000Y-154305000D01*
X125651400Y-147977800D02*
X125651400Y-152956400D01*
X124059500Y-146385900D02*
X125651400Y-147977800D01*
X124059500Y-144297900D02*
X124059500Y-146385900D01*
X124611600Y-142367100D02*
X126000400Y-142367100D01*
X121539100Y-145439600D02*
X124611600Y-142367100D01*
X121539100Y-151384100D02*
X121539100Y-145439600D01*
X121920000Y-151765000D02*
X121539100Y-151384100D01*
X148511400Y-160576400D02*
X149860000Y-161925000D01*
X148511400Y-149830200D02*
X148511400Y-160576400D01*
X146992200Y-148311000D02*
X148511400Y-149830200D01*
X146992200Y-136685700D02*
X146992200Y-148311000D01*
X144435500Y-134129000D02*
X146992200Y-136685700D01*
X152019000Y-162306000D02*
X149860000Y-164465000D01*
X152019000Y-139199400D02*
X152019000Y-162306000D01*
X146211800Y-133392200D02*
X152019000Y-139199400D01*
X145691400Y-133392200D02*
X146211800Y-133392200D01*
X146128600Y-160733600D02*
X147320000Y-161925000D01*
X146128600Y-149987400D02*
X146128600Y-160733600D01*
X144452200Y-148311000D02*
X146128600Y-149987400D01*
X144452200Y-136324100D02*
X144452200Y-148311000D01*
X142398900Y-134270800D02*
X144452200Y-136324100D01*
X149532200Y-137612400D02*
X146427600Y-134507800D01*
X149532200Y-146458600D02*
X149532200Y-137612400D01*
X151088000Y-148014400D02*
X149532200Y-146458600D01*
X151088000Y-162389100D02*
X151088000Y-148014400D01*
X150360700Y-163116400D02*
X151088000Y-162389100D01*
X148668600Y-163116400D02*
X150360700Y-163116400D01*
X147320000Y-164465000D02*
X148668600Y-163116400D01*
X144780000Y-161925000D02*
X144780000Y-159789288D01*
X144780000Y-159789288D02*
X142054222Y-157063510D01*
X142054222Y-157063510D02*
X142054222Y-156253460D01*
X143431001Y-151193319D02*
X143146222Y-150908540D01*
X142054222Y-156253460D02*
X143431001Y-154876681D01*
X143146222Y-150908540D02*
X143146222Y-150234222D01*
X143431001Y-154876681D02*
X143431001Y-151193319D01*
X139371100Y-146459100D02*
X139371100Y-135416100D01*
X143146222Y-150234222D02*
X139371100Y-146459100D01*
X139371100Y-135416100D02*
X140014301Y-134772899D01*
X140014301Y-134772899D02*
X140395300Y-134391900D01*
X145977500Y-165662500D02*
X144780000Y-164465000D01*
X150375800Y-165662500D02*
X145977500Y-165662500D01*
X154520200Y-161518100D02*
X150375800Y-165662500D01*
X154520200Y-144859500D02*
X154520200Y-161518100D01*
X152496300Y-142835600D02*
X154520200Y-144859500D01*
X152496300Y-137937800D02*
X152496300Y-142835600D01*
X147955000Y-133396500D02*
X152496300Y-137937800D01*
X139073100Y-134155600D02*
X138692101Y-134536599D01*
X144346342Y-159818658D02*
X142240000Y-161925000D01*
X140966300Y-149715000D02*
X140966300Y-156438616D01*
X138692101Y-134536599D02*
X138692101Y-147440801D01*
X138692101Y-147440801D02*
X140966300Y-149715000D01*
X140966300Y-156438616D02*
X144346342Y-159818658D01*
X143774600Y-165999600D02*
X142240000Y-164465000D01*
X150503700Y-165999600D02*
X143774600Y-165999600D01*
X154848000Y-161655300D02*
X150503700Y-165999600D01*
X154848000Y-142954500D02*
X154848000Y-161655300D01*
X153248100Y-141354600D02*
X154848000Y-142954500D01*
X153248100Y-137253500D02*
X153248100Y-141354600D01*
X149797100Y-133802500D02*
X153248100Y-137253500D01*
X151646299Y-113248699D02*
X152368177Y-113248699D01*
X155730800Y-116049500D02*
X157185900Y-117504600D01*
X152696921Y-113577443D02*
X152696921Y-114299321D01*
X152368177Y-113248699D02*
X152696921Y-113577443D01*
X139700000Y-100965000D02*
X139700000Y-101282500D01*
X154447100Y-116049500D02*
X155730800Y-116049500D01*
X152696921Y-114299321D02*
X154447100Y-116049500D01*
X157185900Y-121079700D02*
X156460400Y-121805200D01*
X156460400Y-121805200D02*
X155412200Y-121805200D01*
X155412200Y-121805200D02*
X154645700Y-122571700D01*
X157185900Y-117504600D02*
X157185900Y-121079700D01*
X154645700Y-122571700D02*
X154645700Y-124178377D01*
X139700000Y-101282500D02*
X140169900Y-101752400D01*
X140169900Y-101752400D02*
X140169900Y-101772300D01*
X140169900Y-101772300D02*
X151646299Y-113248699D01*
X151189077Y-127635000D02*
X149860000Y-127635000D01*
X154645700Y-124178377D02*
X151189077Y-127635000D01*
X131468000Y-127635000D02*
X147320000Y-127635000D01*
X129794000Y-125961000D02*
X131468000Y-127635000D01*
X129794000Y-125503300D02*
X129794000Y-125961000D01*
X128955400Y-124664700D02*
X129794000Y-125503300D01*
X128076900Y-124664700D02*
X128955400Y-124664700D01*
X127175700Y-125565900D02*
X128076900Y-124664700D01*
X127175700Y-126025500D02*
X127175700Y-125565900D01*
X126419500Y-126781700D02*
X127175700Y-126025500D01*
X125544200Y-126781700D02*
X126419500Y-126781700D01*
X124638300Y-125875800D02*
X125544200Y-126781700D01*
X124638300Y-124384300D02*
X124638300Y-125875800D01*
X118364000Y-118110000D02*
X124638300Y-124384300D01*
X139100500Y-122555000D02*
X147320000Y-122555000D01*
X134655500Y-118110000D02*
X139100500Y-122555000D01*
X133604000Y-118110000D02*
X134655500Y-118110000D01*
X143033423Y-117058400D02*
X143474580Y-117499557D01*
X144081496Y-117499557D02*
X144106053Y-117475000D01*
X132115600Y-117058400D02*
X143033423Y-117058400D01*
X144106053Y-117475000D02*
X145990923Y-117475000D01*
X131064000Y-118110000D02*
X132115600Y-117058400D01*
X143474580Y-117499557D02*
X144081496Y-117499557D01*
X145990923Y-117475000D02*
X147320000Y-117475000D01*
X132051521Y-115634679D02*
X142422991Y-115634679D01*
X129903300Y-117782900D02*
X132051521Y-115634679D01*
X129903300Y-118292800D02*
X129903300Y-117782900D01*
X128524000Y-120142000D02*
X128524000Y-119672100D01*
X128524000Y-119672100D02*
X129903300Y-118292800D01*
X142422991Y-115634679D02*
X142961806Y-115634679D01*
X128524000Y-118110000D02*
X129575500Y-118110000D01*
X129575500Y-117646500D02*
X129575500Y-118110000D01*
X132287000Y-114935000D02*
X129575500Y-117646500D01*
X147320000Y-114935000D02*
X132287000Y-114935000D01*
X112414900Y-115856000D02*
X117357400Y-110913500D01*
X132708400Y-110913500D02*
X133874400Y-109747500D01*
X117357400Y-110913500D02*
X132708400Y-110913500D01*
X112414900Y-116685815D02*
X112414900Y-116147000D01*
X116992100Y-124561200D02*
X112101100Y-119670200D01*
X119852799Y-126781201D02*
X117898201Y-126781201D01*
X120904000Y-125730000D02*
X119852799Y-126781201D01*
X112101100Y-116999615D02*
X112414900Y-116685815D01*
X112101100Y-119670200D02*
X112101100Y-116999615D01*
X117898201Y-126781201D02*
X116992100Y-125875100D01*
X116992100Y-125875100D02*
X116992100Y-124561200D01*
X112414900Y-116147000D02*
X112414900Y-115856000D01*
D11*
G36*
X102320606Y-96306106D02*
X102166437Y-96536835D01*
X102122495Y-96757744D01*
X102112300Y-96809000D01*
X102112300Y-98532500D01*
X102166437Y-98804665D01*
X102320606Y-99035394D01*
X104588960Y-101303748D01*
X104446792Y-101303624D01*
X104073234Y-101457975D01*
X103787179Y-101743531D01*
X103632176Y-102116818D01*
X103631824Y-102521008D01*
X103786175Y-102894566D01*
X104071731Y-103180621D01*
X104445018Y-103335624D01*
X104658222Y-103335810D01*
X107224406Y-105901994D01*
X107455135Y-106056163D01*
X107727300Y-106110300D01*
X111697512Y-106110300D01*
X110928006Y-106879806D01*
X110773837Y-107110535D01*
X110730715Y-107327325D01*
X110719700Y-107382700D01*
X110719700Y-122825400D01*
X110773837Y-123097565D01*
X110928006Y-123328294D01*
X112279852Y-124680140D01*
X112269302Y-124687189D01*
X111958233Y-125152736D01*
X111849000Y-125701887D01*
X111849000Y-125758113D01*
X111958233Y-126307264D01*
X112269302Y-126772811D01*
X112572800Y-126975602D01*
X112572800Y-127368502D01*
X112626937Y-127640667D01*
X112781106Y-127871396D01*
X114308234Y-129398524D01*
X114538963Y-129552693D01*
X114584118Y-129561675D01*
X114811128Y-129606830D01*
X116343726Y-129606830D01*
X116358155Y-129621284D01*
X116358155Y-135155449D01*
X116412292Y-135427614D01*
X116566461Y-135658343D01*
X118055130Y-137147012D01*
X118285859Y-137301181D01*
X118558024Y-137355318D01*
X120040193Y-137355318D01*
X114227306Y-143168206D01*
X114073137Y-143398935D01*
X114065550Y-143437079D01*
X114019000Y-143671100D01*
X114019000Y-164146100D01*
X114073137Y-164418265D01*
X114227306Y-164648994D01*
X115844305Y-166265994D01*
X115968602Y-166349046D01*
X116075036Y-166420163D01*
X116347200Y-166474300D01*
X128608582Y-166474300D01*
X128880747Y-166420163D01*
X129111476Y-166265994D01*
X130400471Y-164976999D01*
X130554640Y-164746270D01*
X130608776Y-164474105D01*
X130554640Y-164201940D01*
X130400471Y-163971211D01*
X129121466Y-162692206D01*
X128890737Y-162538037D01*
X128618572Y-162483900D01*
X128473093Y-162483900D01*
X128574526Y-162239621D01*
X128575019Y-161674833D01*
X138113955Y-161674833D01*
X138138951Y-162300828D01*
X138330420Y-162763077D01*
X138591032Y-162854363D01*
X139520395Y-161925000D01*
X138591032Y-160995637D01*
X138330420Y-161086923D01*
X138113955Y-161674833D01*
X128575019Y-161674833D01*
X128575073Y-161613127D01*
X128335829Y-161034113D01*
X128118129Y-160816032D01*
X138770637Y-160816032D01*
X139700000Y-161745395D01*
X140629363Y-160816032D01*
X140538077Y-160555420D01*
X139950167Y-160338955D01*
X139324172Y-160363951D01*
X138861923Y-160555420D01*
X138770637Y-160816032D01*
X128118129Y-160816032D01*
X127893217Y-160590728D01*
X127314621Y-160350474D01*
X126688127Y-160349927D01*
X126109113Y-160589171D01*
X125729727Y-160967896D01*
X125353217Y-160590728D01*
X124774621Y-160350474D01*
X124148127Y-160349927D01*
X123569113Y-160589171D01*
X123189727Y-160967896D01*
X122813217Y-160590728D01*
X122234621Y-160350474D01*
X121608127Y-160349927D01*
X121029113Y-160589171D01*
X120649727Y-160967896D01*
X120273217Y-160590728D01*
X119694621Y-160350474D01*
X119068127Y-160349927D01*
X118489113Y-160589171D01*
X118047399Y-161030115D01*
X117948968Y-160995637D01*
X117019605Y-161925000D01*
X117033748Y-161939143D01*
X116854143Y-162118748D01*
X116840000Y-162104605D01*
X116825858Y-162118748D01*
X116646253Y-161939143D01*
X116660395Y-161925000D01*
X116646253Y-161910858D01*
X116825858Y-161731253D01*
X116840000Y-161745395D01*
X117769363Y-160816032D01*
X117678077Y-160555420D01*
X117090167Y-160338955D01*
X116464172Y-160363951D01*
X116001923Y-160555420D01*
X115910638Y-160816030D01*
X115796196Y-160701588D01*
X115769200Y-160728584D01*
X115769200Y-155461379D01*
X115946783Y-155639272D01*
X116525379Y-155879526D01*
X117151873Y-155880073D01*
X117285187Y-155824989D01*
X117625599Y-156165401D01*
X117872161Y-156330148D01*
X118163000Y-156388000D01*
X127538700Y-156388000D01*
X127829539Y-156330148D01*
X128076101Y-156165401D01*
X128852601Y-155388901D01*
X129017348Y-155142339D01*
X129075200Y-154851500D01*
X129075200Y-151514833D01*
X138113955Y-151514833D01*
X138138951Y-152140828D01*
X138330420Y-152603077D01*
X138591032Y-152694363D01*
X139520395Y-151765000D01*
X138591032Y-150835637D01*
X138330420Y-150926923D01*
X138113955Y-151514833D01*
X129075200Y-151514833D01*
X129075200Y-147050350D01*
X129481255Y-147050350D01*
X129575654Y-147313596D01*
X130172769Y-147534305D01*
X130808893Y-147509707D01*
X131282346Y-147313596D01*
X131376745Y-147050350D01*
X132021255Y-147050350D01*
X132115654Y-147313596D01*
X132712769Y-147534305D01*
X133348893Y-147509707D01*
X133822346Y-147313596D01*
X133916745Y-147050350D01*
X132969000Y-146102605D01*
X132021255Y-147050350D01*
X131376745Y-147050350D01*
X130429000Y-146102605D01*
X129481255Y-147050350D01*
X129075200Y-147050350D01*
X129075200Y-146999921D01*
X129230250Y-146845141D01*
X129301650Y-146870745D01*
X130249395Y-145923000D01*
X130608605Y-145923000D01*
X131556350Y-146870745D01*
X131699000Y-146819591D01*
X131841650Y-146870745D01*
X132789395Y-145923000D01*
X133148605Y-145923000D01*
X134096350Y-146870745D01*
X134168288Y-146844948D01*
X134601376Y-147278793D01*
X135189304Y-147522922D01*
X135825903Y-147523477D01*
X136414256Y-147280375D01*
X136864793Y-146830624D01*
X137108922Y-146242696D01*
X137109477Y-145606097D01*
X136866375Y-145017744D01*
X136416624Y-144567207D01*
X135828696Y-144323078D01*
X135192097Y-144322523D01*
X134603744Y-144565625D01*
X134167750Y-145000859D01*
X134096350Y-144975255D01*
X133148605Y-145923000D01*
X132789395Y-145923000D01*
X131841650Y-144975255D01*
X131699000Y-145026409D01*
X131556350Y-144975255D01*
X130608605Y-145923000D01*
X130249395Y-145923000D01*
X129301650Y-144975255D01*
X129229712Y-145001052D01*
X129024669Y-144795650D01*
X129481255Y-144795650D01*
X130429000Y-145743395D01*
X131376745Y-144795650D01*
X132021255Y-144795650D01*
X132969000Y-145743395D01*
X133916745Y-144795650D01*
X133822346Y-144532404D01*
X133225231Y-144311695D01*
X132589107Y-144336293D01*
X132115654Y-144532404D01*
X132021255Y-144795650D01*
X131376745Y-144795650D01*
X131282346Y-144532404D01*
X130685231Y-144311695D01*
X130049107Y-144336293D01*
X129575654Y-144532404D01*
X129481255Y-144795650D01*
X129024669Y-144795650D01*
X128796624Y-144567207D01*
X128208696Y-144323078D01*
X127572097Y-144322523D01*
X126983744Y-144565625D01*
X126618758Y-144929974D01*
X126256624Y-144567207D01*
X125668696Y-144323078D01*
X125075479Y-144322561D01*
X125075491Y-144309400D01*
X127143100Y-144309400D01*
X127415265Y-144255263D01*
X127645994Y-144101094D01*
X132170640Y-139576448D01*
X132274431Y-139680421D01*
X132647718Y-139835424D01*
X133051908Y-139835776D01*
X133425466Y-139681425D01*
X133711521Y-139395869D01*
X133866524Y-139022582D01*
X133866710Y-138809378D01*
X137980901Y-134695188D01*
X137980901Y-147440801D01*
X138035038Y-147712966D01*
X138189207Y-147943695D01*
X140255100Y-150009588D01*
X140255100Y-150291230D01*
X139950167Y-150178955D01*
X139324172Y-150203951D01*
X138861923Y-150395420D01*
X138770637Y-150656032D01*
X139700000Y-151585395D01*
X139714143Y-151571253D01*
X139893748Y-151750858D01*
X139879605Y-151765000D01*
X139893748Y-151779143D01*
X139714143Y-151958748D01*
X139700000Y-151944605D01*
X138770637Y-152873968D01*
X138805313Y-152972964D01*
X138365728Y-153411783D01*
X138125474Y-153990379D01*
X138124927Y-154616873D01*
X138364171Y-155195887D01*
X138806783Y-155639272D01*
X139385379Y-155879526D01*
X140011873Y-155880073D01*
X140255100Y-155779574D01*
X140255100Y-156438616D01*
X140309237Y-156710781D01*
X140463406Y-156941510D01*
X143340553Y-159818658D01*
X142734179Y-160425033D01*
X142554621Y-160350474D01*
X141928127Y-160349927D01*
X141349113Y-160589171D01*
X140907399Y-161030115D01*
X140808968Y-160995637D01*
X139879605Y-161925000D01*
X140808968Y-162854363D01*
X140907964Y-162819687D01*
X141282896Y-163195273D01*
X140969727Y-163507896D01*
X140594885Y-163132399D01*
X140629363Y-163033968D01*
X139700000Y-162104605D01*
X138770637Y-163033968D01*
X138805313Y-163132964D01*
X138365728Y-163571783D01*
X138125474Y-164150379D01*
X138124927Y-164776873D01*
X138364171Y-165355887D01*
X138806783Y-165799272D01*
X139385379Y-166039526D01*
X140011873Y-166040073D01*
X140590887Y-165800829D01*
X140970273Y-165422104D01*
X141346783Y-165799272D01*
X141925379Y-166039526D01*
X142551873Y-166040073D01*
X142734022Y-165964810D01*
X143271706Y-166502494D01*
X143502435Y-166656663D01*
X143547590Y-166665645D01*
X143774600Y-166710800D01*
X150503700Y-166710800D01*
X150775865Y-166656663D01*
X151006594Y-166502494D01*
X154865000Y-162644088D01*
X154865000Y-167345908D01*
X154010908Y-168200000D01*
X112054092Y-168200000D01*
X110565000Y-166710908D01*
X110565000Y-109855000D01*
X110510954Y-109583295D01*
X110357046Y-109352954D01*
X109087046Y-108082954D01*
X108856705Y-107929046D01*
X108585000Y-107875000D01*
X101259092Y-107875000D01*
X100405000Y-107020908D01*
X100405000Y-95960000D01*
X102666712Y-95960000D01*
X102320606Y-96306106D01*
X102320606Y-96306106D01*
G37*
X102320606Y-96306106D02*
X102166437Y-96536835D01*
X102122495Y-96757744D01*
X102112300Y-96809000D01*
X102112300Y-98532500D01*
X102166437Y-98804665D01*
X102320606Y-99035394D01*
X104588960Y-101303748D01*
X104446792Y-101303624D01*
X104073234Y-101457975D01*
X103787179Y-101743531D01*
X103632176Y-102116818D01*
X103631824Y-102521008D01*
X103786175Y-102894566D01*
X104071731Y-103180621D01*
X104445018Y-103335624D01*
X104658222Y-103335810D01*
X107224406Y-105901994D01*
X107455135Y-106056163D01*
X107727300Y-106110300D01*
X111697512Y-106110300D01*
X110928006Y-106879806D01*
X110773837Y-107110535D01*
X110730715Y-107327325D01*
X110719700Y-107382700D01*
X110719700Y-122825400D01*
X110773837Y-123097565D01*
X110928006Y-123328294D01*
X112279852Y-124680140D01*
X112269302Y-124687189D01*
X111958233Y-125152736D01*
X111849000Y-125701887D01*
X111849000Y-125758113D01*
X111958233Y-126307264D01*
X112269302Y-126772811D01*
X112572800Y-126975602D01*
X112572800Y-127368502D01*
X112626937Y-127640667D01*
X112781106Y-127871396D01*
X114308234Y-129398524D01*
X114538963Y-129552693D01*
X114584118Y-129561675D01*
X114811128Y-129606830D01*
X116343726Y-129606830D01*
X116358155Y-129621284D01*
X116358155Y-135155449D01*
X116412292Y-135427614D01*
X116566461Y-135658343D01*
X118055130Y-137147012D01*
X118285859Y-137301181D01*
X118558024Y-137355318D01*
X120040193Y-137355318D01*
X114227306Y-143168206D01*
X114073137Y-143398935D01*
X114065550Y-143437079D01*
X114019000Y-143671100D01*
X114019000Y-164146100D01*
X114073137Y-164418265D01*
X114227306Y-164648994D01*
X115844305Y-166265994D01*
X115968602Y-166349046D01*
X116075036Y-166420163D01*
X116347200Y-166474300D01*
X128608582Y-166474300D01*
X128880747Y-166420163D01*
X129111476Y-166265994D01*
X130400471Y-164976999D01*
X130554640Y-164746270D01*
X130608776Y-164474105D01*
X130554640Y-164201940D01*
X130400471Y-163971211D01*
X129121466Y-162692206D01*
X128890737Y-162538037D01*
X128618572Y-162483900D01*
X128473093Y-162483900D01*
X128574526Y-162239621D01*
X128575019Y-161674833D01*
X138113955Y-161674833D01*
X138138951Y-162300828D01*
X138330420Y-162763077D01*
X138591032Y-162854363D01*
X139520395Y-161925000D01*
X138591032Y-160995637D01*
X138330420Y-161086923D01*
X138113955Y-161674833D01*
X128575019Y-161674833D01*
X128575073Y-161613127D01*
X128335829Y-161034113D01*
X128118129Y-160816032D01*
X138770637Y-160816032D01*
X139700000Y-161745395D01*
X140629363Y-160816032D01*
X140538077Y-160555420D01*
X139950167Y-160338955D01*
X139324172Y-160363951D01*
X138861923Y-160555420D01*
X138770637Y-160816032D01*
X128118129Y-160816032D01*
X127893217Y-160590728D01*
X127314621Y-160350474D01*
X126688127Y-160349927D01*
X126109113Y-160589171D01*
X125729727Y-160967896D01*
X125353217Y-160590728D01*
X124774621Y-160350474D01*
X124148127Y-160349927D01*
X123569113Y-160589171D01*
X123189727Y-160967896D01*
X122813217Y-160590728D01*
X122234621Y-160350474D01*
X121608127Y-160349927D01*
X121029113Y-160589171D01*
X120649727Y-160967896D01*
X120273217Y-160590728D01*
X119694621Y-160350474D01*
X119068127Y-160349927D01*
X118489113Y-160589171D01*
X118047399Y-161030115D01*
X117948968Y-160995637D01*
X117019605Y-161925000D01*
X117033748Y-161939143D01*
X116854143Y-162118748D01*
X116840000Y-162104605D01*
X116825858Y-162118748D01*
X116646253Y-161939143D01*
X116660395Y-161925000D01*
X116646253Y-161910858D01*
X116825858Y-161731253D01*
X116840000Y-161745395D01*
X117769363Y-160816032D01*
X117678077Y-160555420D01*
X117090167Y-160338955D01*
X116464172Y-160363951D01*
X116001923Y-160555420D01*
X115910638Y-160816030D01*
X115796196Y-160701588D01*
X115769200Y-160728584D01*
X115769200Y-155461379D01*
X115946783Y-155639272D01*
X116525379Y-155879526D01*
X117151873Y-155880073D01*
X117285187Y-155824989D01*
X117625599Y-156165401D01*
X117872161Y-156330148D01*
X118163000Y-156388000D01*
X127538700Y-156388000D01*
X127829539Y-156330148D01*
X128076101Y-156165401D01*
X128852601Y-155388901D01*
X129017348Y-155142339D01*
X129075200Y-154851500D01*
X129075200Y-151514833D01*
X138113955Y-151514833D01*
X138138951Y-152140828D01*
X138330420Y-152603077D01*
X138591032Y-152694363D01*
X139520395Y-151765000D01*
X138591032Y-150835637D01*
X138330420Y-150926923D01*
X138113955Y-151514833D01*
X129075200Y-151514833D01*
X129075200Y-147050350D01*
X129481255Y-147050350D01*
X129575654Y-147313596D01*
X130172769Y-147534305D01*
X130808893Y-147509707D01*
X131282346Y-147313596D01*
X131376745Y-147050350D01*
X132021255Y-147050350D01*
X132115654Y-147313596D01*
X132712769Y-147534305D01*
X133348893Y-147509707D01*
X133822346Y-147313596D01*
X133916745Y-147050350D01*
X132969000Y-146102605D01*
X132021255Y-147050350D01*
X131376745Y-147050350D01*
X130429000Y-146102605D01*
X129481255Y-147050350D01*
X129075200Y-147050350D01*
X129075200Y-146999921D01*
X129230250Y-146845141D01*
X129301650Y-146870745D01*
X130249395Y-145923000D01*
X130608605Y-145923000D01*
X131556350Y-146870745D01*
X131699000Y-146819591D01*
X131841650Y-146870745D01*
X132789395Y-145923000D01*
X133148605Y-145923000D01*
X134096350Y-146870745D01*
X134168288Y-146844948D01*
X134601376Y-147278793D01*
X135189304Y-147522922D01*
X135825903Y-147523477D01*
X136414256Y-147280375D01*
X136864793Y-146830624D01*
X137108922Y-146242696D01*
X137109477Y-145606097D01*
X136866375Y-145017744D01*
X136416624Y-144567207D01*
X135828696Y-144323078D01*
X135192097Y-144322523D01*
X134603744Y-144565625D01*
X134167750Y-145000859D01*
X134096350Y-144975255D01*
X133148605Y-145923000D01*
X132789395Y-145923000D01*
X131841650Y-144975255D01*
X131699000Y-145026409D01*
X131556350Y-144975255D01*
X130608605Y-145923000D01*
X130249395Y-145923000D01*
X129301650Y-144975255D01*
X129229712Y-145001052D01*
X129024669Y-144795650D01*
X129481255Y-144795650D01*
X130429000Y-145743395D01*
X131376745Y-144795650D01*
X132021255Y-144795650D01*
X132969000Y-145743395D01*
X133916745Y-144795650D01*
X133822346Y-144532404D01*
X133225231Y-144311695D01*
X132589107Y-144336293D01*
X132115654Y-144532404D01*
X132021255Y-144795650D01*
X131376745Y-144795650D01*
X131282346Y-144532404D01*
X130685231Y-144311695D01*
X130049107Y-144336293D01*
X129575654Y-144532404D01*
X129481255Y-144795650D01*
X129024669Y-144795650D01*
X128796624Y-144567207D01*
X128208696Y-144323078D01*
X127572097Y-144322523D01*
X126983744Y-144565625D01*
X126618758Y-144929974D01*
X126256624Y-144567207D01*
X125668696Y-144323078D01*
X125075479Y-144322561D01*
X125075491Y-144309400D01*
X127143100Y-144309400D01*
X127415265Y-144255263D01*
X127645994Y-144101094D01*
X132170640Y-139576448D01*
X132274431Y-139680421D01*
X132647718Y-139835424D01*
X133051908Y-139835776D01*
X133425466Y-139681425D01*
X133711521Y-139395869D01*
X133866524Y-139022582D01*
X133866710Y-138809378D01*
X137980901Y-134695188D01*
X137980901Y-147440801D01*
X138035038Y-147712966D01*
X138189207Y-147943695D01*
X140255100Y-150009588D01*
X140255100Y-150291230D01*
X139950167Y-150178955D01*
X139324172Y-150203951D01*
X138861923Y-150395420D01*
X138770637Y-150656032D01*
X139700000Y-151585395D01*
X139714143Y-151571253D01*
X139893748Y-151750858D01*
X139879605Y-151765000D01*
X139893748Y-151779143D01*
X139714143Y-151958748D01*
X139700000Y-151944605D01*
X138770637Y-152873968D01*
X138805313Y-152972964D01*
X138365728Y-153411783D01*
X138125474Y-153990379D01*
X138124927Y-154616873D01*
X138364171Y-155195887D01*
X138806783Y-155639272D01*
X139385379Y-155879526D01*
X140011873Y-155880073D01*
X140255100Y-155779574D01*
X140255100Y-156438616D01*
X140309237Y-156710781D01*
X140463406Y-156941510D01*
X143340553Y-159818658D01*
X142734179Y-160425033D01*
X142554621Y-160350474D01*
X141928127Y-160349927D01*
X141349113Y-160589171D01*
X140907399Y-161030115D01*
X140808968Y-160995637D01*
X139879605Y-161925000D01*
X140808968Y-162854363D01*
X140907964Y-162819687D01*
X141282896Y-163195273D01*
X140969727Y-163507896D01*
X140594885Y-163132399D01*
X140629363Y-163033968D01*
X139700000Y-162104605D01*
X138770637Y-163033968D01*
X138805313Y-163132964D01*
X138365728Y-163571783D01*
X138125474Y-164150379D01*
X138124927Y-164776873D01*
X138364171Y-165355887D01*
X138806783Y-165799272D01*
X139385379Y-166039526D01*
X140011873Y-166040073D01*
X140590887Y-165800829D01*
X140970273Y-165422104D01*
X141346783Y-165799272D01*
X141925379Y-166039526D01*
X142551873Y-166040073D01*
X142734022Y-165964810D01*
X143271706Y-166502494D01*
X143502435Y-166656663D01*
X143547590Y-166665645D01*
X143774600Y-166710800D01*
X150503700Y-166710800D01*
X150775865Y-166656663D01*
X151006594Y-166502494D01*
X154865000Y-162644088D01*
X154865000Y-167345908D01*
X154010908Y-168200000D01*
X112054092Y-168200000D01*
X110565000Y-166710908D01*
X110565000Y-109855000D01*
X110510954Y-109583295D01*
X110357046Y-109352954D01*
X109087046Y-108082954D01*
X108856705Y-107929046D01*
X108585000Y-107875000D01*
X101259092Y-107875000D01*
X100405000Y-107020908D01*
X100405000Y-95960000D01*
X102666712Y-95960000D01*
X102320606Y-96306106D01*
G36*
X126910273Y-142825239D02*
X127016224Y-142570082D01*
X127016576Y-142165892D01*
X126862225Y-141792334D01*
X126576669Y-141506279D01*
X126203382Y-141351276D01*
X125799192Y-141350924D01*
X125425634Y-141505275D01*
X125274746Y-141655900D01*
X124611600Y-141655900D01*
X124384590Y-141701055D01*
X124339435Y-141710037D01*
X124108706Y-141864206D01*
X121291064Y-144681848D01*
X121176624Y-144567207D01*
X120588696Y-144323078D01*
X119952097Y-144322523D01*
X119363744Y-144565625D01*
X118998758Y-144929974D01*
X118636624Y-144567207D01*
X118048696Y-144323078D01*
X117412097Y-144322523D01*
X116823744Y-144565625D01*
X116373207Y-145015376D01*
X116129078Y-145603304D01*
X116128523Y-146239903D01*
X116371625Y-146828256D01*
X116821376Y-147278793D01*
X117409304Y-147522922D01*
X118045903Y-147523477D01*
X118634256Y-147280375D01*
X118999242Y-146916026D01*
X119361376Y-147278793D01*
X119949304Y-147522922D01*
X120585903Y-147523477D01*
X120827900Y-147423486D01*
X120827900Y-150630033D01*
X120649727Y-150807896D01*
X120273217Y-150430728D01*
X119694621Y-150190474D01*
X119068127Y-150189927D01*
X118489113Y-150429171D01*
X118047399Y-150870115D01*
X117948968Y-150835637D01*
X117019605Y-151765000D01*
X117948968Y-152694363D01*
X118047964Y-152659687D01*
X118422896Y-153035273D01*
X118109727Y-153347896D01*
X117734885Y-152972399D01*
X117769363Y-152873968D01*
X116840000Y-151944605D01*
X116825858Y-151958748D01*
X116646253Y-151779143D01*
X116660395Y-151765000D01*
X116646253Y-151750858D01*
X116825858Y-151571253D01*
X116840000Y-151585395D01*
X117769363Y-150656032D01*
X117678077Y-150395420D01*
X117090167Y-150178955D01*
X116464172Y-150203951D01*
X116001923Y-150395420D01*
X115910638Y-150656030D01*
X115796196Y-150541588D01*
X115769200Y-150568584D01*
X115769200Y-145618088D01*
X127624796Y-133762492D01*
X127836208Y-133762676D01*
X128209766Y-133608325D01*
X128495821Y-133322769D01*
X128650824Y-132949482D01*
X128651176Y-132545292D01*
X128637957Y-132513300D01*
X137222211Y-132513300D01*
X126910273Y-142825239D01*
X126910273Y-142825239D01*
G37*
X126910273Y-142825239D02*
X127016224Y-142570082D01*
X127016576Y-142165892D01*
X126862225Y-141792334D01*
X126576669Y-141506279D01*
X126203382Y-141351276D01*
X125799192Y-141350924D01*
X125425634Y-141505275D01*
X125274746Y-141655900D01*
X124611600Y-141655900D01*
X124384590Y-141701055D01*
X124339435Y-141710037D01*
X124108706Y-141864206D01*
X121291064Y-144681848D01*
X121176624Y-144567207D01*
X120588696Y-144323078D01*
X119952097Y-144322523D01*
X119363744Y-144565625D01*
X118998758Y-144929974D01*
X118636624Y-144567207D01*
X118048696Y-144323078D01*
X117412097Y-144322523D01*
X116823744Y-144565625D01*
X116373207Y-145015376D01*
X116129078Y-145603304D01*
X116128523Y-146239903D01*
X116371625Y-146828256D01*
X116821376Y-147278793D01*
X117409304Y-147522922D01*
X118045903Y-147523477D01*
X118634256Y-147280375D01*
X118999242Y-146916026D01*
X119361376Y-147278793D01*
X119949304Y-147522922D01*
X120585903Y-147523477D01*
X120827900Y-147423486D01*
X120827900Y-150630033D01*
X120649727Y-150807896D01*
X120273217Y-150430728D01*
X119694621Y-150190474D01*
X119068127Y-150189927D01*
X118489113Y-150429171D01*
X118047399Y-150870115D01*
X117948968Y-150835637D01*
X117019605Y-151765000D01*
X117948968Y-152694363D01*
X118047964Y-152659687D01*
X118422896Y-153035273D01*
X118109727Y-153347896D01*
X117734885Y-152972399D01*
X117769363Y-152873968D01*
X116840000Y-151944605D01*
X116825858Y-151958748D01*
X116646253Y-151779143D01*
X116660395Y-151765000D01*
X116646253Y-151750858D01*
X116825858Y-151571253D01*
X116840000Y-151585395D01*
X117769363Y-150656032D01*
X117678077Y-150395420D01*
X117090167Y-150178955D01*
X116464172Y-150203951D01*
X116001923Y-150395420D01*
X115910638Y-150656030D01*
X115796196Y-150541588D01*
X115769200Y-150568584D01*
X115769200Y-145618088D01*
X127624796Y-133762492D01*
X127836208Y-133762676D01*
X128209766Y-133608325D01*
X128495821Y-133322769D01*
X128650824Y-132949482D01*
X128651176Y-132545292D01*
X128637957Y-132513300D01*
X137222211Y-132513300D01*
X126910273Y-142825239D01*
G36*
X141822631Y-135131621D02*
X142195918Y-135286624D01*
X142409121Y-135286810D01*
X143741000Y-136618689D01*
X143741000Y-144444453D01*
X143448696Y-144323078D01*
X143266200Y-144322919D01*
X143266200Y-142875000D01*
X143212063Y-142602836D01*
X143057894Y-142372106D01*
X142950940Y-142300642D01*
X142950940Y-142240000D01*
X142906662Y-142004683D01*
X142767590Y-141788559D01*
X142555390Y-141643569D01*
X142303500Y-141592560D01*
X141739000Y-141592560D01*
X141739000Y-135047844D01*
X141822631Y-135131621D01*
X141822631Y-135131621D01*
G37*
X141822631Y-135131621D02*
X142195918Y-135286624D01*
X142409121Y-135286810D01*
X143741000Y-136618689D01*
X143741000Y-144444453D01*
X143448696Y-144323078D01*
X143266200Y-144322919D01*
X143266200Y-142875000D01*
X143212063Y-142602836D01*
X143057894Y-142372106D01*
X142950940Y-142300642D01*
X142950940Y-142240000D01*
X142906662Y-142004683D01*
X142767590Y-141788559D01*
X142555390Y-141643569D01*
X142303500Y-141592560D01*
X141739000Y-141592560D01*
X141739000Y-135047844D01*
X141822631Y-135131621D01*
G36*
X144445722Y-135145010D02*
X146281000Y-136980288D01*
X146281000Y-144444453D01*
X145988696Y-144323078D01*
X145352097Y-144322523D01*
X145163400Y-144400491D01*
X145163400Y-136324100D01*
X145109263Y-136051936D01*
X145104323Y-136044543D01*
X144955095Y-135821206D01*
X144278753Y-135144864D01*
X144445722Y-135145010D01*
X144445722Y-135145010D01*
G37*
X144445722Y-135145010D02*
X146281000Y-136980288D01*
X146281000Y-144444453D01*
X145988696Y-144323078D01*
X145352097Y-144322523D01*
X145163400Y-144400491D01*
X145163400Y-136324100D01*
X145109263Y-136051936D01*
X145104323Y-136044543D01*
X144955095Y-135821206D01*
X144278753Y-135144864D01*
X144445722Y-135145010D01*
G36*
X148821000Y-137906989D02*
X148821000Y-144444453D01*
X148528696Y-144323078D01*
X147892097Y-144322523D01*
X147703400Y-144400491D01*
X147703400Y-136789389D01*
X148821000Y-137906989D01*
X148821000Y-137906989D01*
G37*
X148821000Y-137906989D02*
X148821000Y-144444453D01*
X148528696Y-144323078D01*
X147892097Y-144322523D01*
X147703400Y-144400491D01*
X147703400Y-136789389D01*
X148821000Y-137906989D01*
G36*
X140316600Y-141601693D02*
X140271500Y-141592560D01*
X140082300Y-141592560D01*
X140082300Y-135710688D01*
X140316600Y-135476389D01*
X140316600Y-141601693D01*
X140316600Y-141601693D01*
G37*
X140316600Y-141601693D02*
X140271500Y-141592560D01*
X140082300Y-141592560D01*
X140082300Y-135710688D01*
X140316600Y-135476389D01*
X140316600Y-141601693D01*
G36*
X157405000Y-139275917D02*
X157089589Y-138959955D01*
X156273022Y-138620887D01*
X155388857Y-138620115D01*
X154571700Y-138957758D01*
X153959300Y-139569089D01*
X153959300Y-137253500D01*
X153905163Y-136981336D01*
X153905163Y-136981335D01*
X153750994Y-136750606D01*
X150813092Y-133812704D01*
X150813276Y-133601292D01*
X150658925Y-133227734D01*
X150373369Y-132941679D01*
X150000082Y-132786676D01*
X149595892Y-132786324D01*
X149222334Y-132940675D01*
X148970036Y-133192533D01*
X148826108Y-132844200D01*
X148935500Y-132844200D01*
X149207665Y-132790063D01*
X149438394Y-132635894D01*
X150950497Y-131123792D01*
X151161908Y-131123976D01*
X151535466Y-130969625D01*
X151821521Y-130684069D01*
X151976524Y-130310782D01*
X151976710Y-130097578D01*
X157405000Y-124669289D01*
X157405000Y-139275917D01*
X157405000Y-139275917D01*
G37*
X157405000Y-139275917D02*
X157089589Y-138959955D01*
X156273022Y-138620887D01*
X155388857Y-138620115D01*
X154571700Y-138957758D01*
X153959300Y-139569089D01*
X153959300Y-137253500D01*
X153905163Y-136981336D01*
X153905163Y-136981335D01*
X153750994Y-136750606D01*
X150813092Y-133812704D01*
X150813276Y-133601292D01*
X150658925Y-133227734D01*
X150373369Y-132941679D01*
X150000082Y-132786676D01*
X149595892Y-132786324D01*
X149222334Y-132940675D01*
X148970036Y-133192533D01*
X148826108Y-132844200D01*
X148935500Y-132844200D01*
X149207665Y-132790063D01*
X149438394Y-132635894D01*
X150950497Y-131123792D01*
X151161908Y-131123976D01*
X151535466Y-130969625D01*
X151821521Y-130684069D01*
X151976524Y-130310782D01*
X151976710Y-130097578D01*
X157405000Y-124669289D01*
X157405000Y-139275917D01*
G36*
X130965106Y-128137895D02*
X131195836Y-128292063D01*
X131468000Y-128346200D01*
X145909926Y-128346200D01*
X145984171Y-128525887D01*
X146426783Y-128969272D01*
X146608701Y-129044811D01*
X146451212Y-129202300D01*
X140827800Y-129202300D01*
X140555636Y-129256437D01*
X140555634Y-129256438D01*
X140555635Y-129256438D01*
X140324905Y-129410606D01*
X139960727Y-129774784D01*
X139926825Y-129692734D01*
X139641269Y-129406679D01*
X139267982Y-129251676D01*
X138863792Y-129251324D01*
X138523891Y-129391768D01*
X138371269Y-129238879D01*
X137997982Y-129083876D01*
X137593792Y-129083524D01*
X137220234Y-129237875D01*
X137069346Y-129388500D01*
X126435640Y-129388500D01*
X126163476Y-129442637D01*
X125932746Y-129596805D01*
X120645700Y-134883852D01*
X120645700Y-134614088D01*
X128142551Y-127117238D01*
X128524000Y-127193113D01*
X129073151Y-127083880D01*
X129538698Y-126772811D01*
X129563261Y-126736049D01*
X130965106Y-128137895D01*
X130965106Y-128137895D01*
G37*
X130965106Y-128137895D02*
X131195836Y-128292063D01*
X131468000Y-128346200D01*
X145909926Y-128346200D01*
X145984171Y-128525887D01*
X146426783Y-128969272D01*
X146608701Y-129044811D01*
X146451212Y-129202300D01*
X140827800Y-129202300D01*
X140555636Y-129256437D01*
X140555634Y-129256438D01*
X140555635Y-129256438D01*
X140324905Y-129410606D01*
X139960727Y-129774784D01*
X139926825Y-129692734D01*
X139641269Y-129406679D01*
X139267982Y-129251676D01*
X138863792Y-129251324D01*
X138523891Y-129391768D01*
X138371269Y-129238879D01*
X137997982Y-129083876D01*
X137593792Y-129083524D01*
X137220234Y-129237875D01*
X137069346Y-129388500D01*
X126435640Y-129388500D01*
X126163476Y-129442637D01*
X125932746Y-129596805D01*
X120645700Y-134883852D01*
X120645700Y-134614088D01*
X128142551Y-127117238D01*
X128524000Y-127193113D01*
X129073151Y-127083880D01*
X129538698Y-126772811D01*
X129563261Y-126736049D01*
X130965106Y-128137895D01*
G36*
X122429302Y-126772811D02*
X122894849Y-127083880D01*
X123444000Y-127193113D01*
X123993151Y-127083880D01*
X124458698Y-126772811D01*
X124487067Y-126730355D01*
X125041306Y-127284594D01*
X125272035Y-127438763D01*
X125317190Y-127447745D01*
X125544200Y-127492900D01*
X125755311Y-127492900D01*
X120194027Y-133054185D01*
X120157025Y-132964634D01*
X119871469Y-132678579D01*
X119498182Y-132523576D01*
X119093992Y-132523224D01*
X119048050Y-132542207D01*
X119048050Y-128714061D01*
X119197671Y-128564701D01*
X119352674Y-128191414D01*
X119353026Y-127787224D01*
X119231208Y-127492401D01*
X119852799Y-127492401D01*
X120124964Y-127438264D01*
X120355693Y-127284095D01*
X120522550Y-127117238D01*
X120904000Y-127193113D01*
X121453151Y-127083880D01*
X121918698Y-126772811D01*
X122174000Y-126390725D01*
X122429302Y-126772811D01*
X122429302Y-126772811D01*
G37*
X122429302Y-126772811D02*
X122894849Y-127083880D01*
X123444000Y-127193113D01*
X123993151Y-127083880D01*
X124458698Y-126772811D01*
X124487067Y-126730355D01*
X125041306Y-127284594D01*
X125272035Y-127438763D01*
X125317190Y-127447745D01*
X125544200Y-127492900D01*
X125755311Y-127492900D01*
X120194027Y-133054185D01*
X120157025Y-132964634D01*
X119871469Y-132678579D01*
X119498182Y-132523576D01*
X119093992Y-132523224D01*
X119048050Y-132542207D01*
X119048050Y-128714061D01*
X119197671Y-128564701D01*
X119352674Y-128191414D01*
X119353026Y-127787224D01*
X119231208Y-127492401D01*
X119852799Y-127492401D01*
X120124964Y-127438264D01*
X120355693Y-127284095D01*
X120522550Y-127117238D01*
X120904000Y-127193113D01*
X121453151Y-127083880D01*
X121918698Y-126772811D01*
X122174000Y-126390725D01*
X122429302Y-126772811D01*
G36*
X114809302Y-126772811D02*
X115274849Y-127083880D01*
X115824000Y-127193113D01*
X116373151Y-127083880D01*
X116838698Y-126772811D01*
X116856853Y-126745641D01*
X117395306Y-127284095D01*
X117513151Y-127362836D01*
X117520514Y-127367756D01*
X117476029Y-127412163D01*
X117321026Y-127785450D01*
X117320926Y-127899982D01*
X117272337Y-127879806D01*
X116868147Y-127879454D01*
X116494589Y-128033805D01*
X116343701Y-128184430D01*
X115105716Y-128184430D01*
X113995200Y-127073914D01*
X113995200Y-126975602D01*
X114298698Y-126772811D01*
X114554000Y-126390725D01*
X114809302Y-126772811D01*
X114809302Y-126772811D01*
G37*
X114809302Y-126772811D02*
X115274849Y-127083880D01*
X115824000Y-127193113D01*
X116373151Y-127083880D01*
X116838698Y-126772811D01*
X116856853Y-126745641D01*
X117395306Y-127284095D01*
X117513151Y-127362836D01*
X117520514Y-127367756D01*
X117476029Y-127412163D01*
X117321026Y-127785450D01*
X117320926Y-127899982D01*
X117272337Y-127879806D01*
X116868147Y-127879454D01*
X116494589Y-128033805D01*
X116343701Y-128184430D01*
X115105716Y-128184430D01*
X113995200Y-127073914D01*
X113995200Y-126975602D01*
X114298698Y-126772811D01*
X114554000Y-126390725D01*
X114809302Y-126772811D01*
G36*
X132200838Y-119145317D02*
X132339910Y-119361441D01*
X132552110Y-119506431D01*
X132804000Y-119557440D01*
X134404000Y-119557440D01*
X134639317Y-119513162D01*
X134855441Y-119374090D01*
X134879131Y-119339419D01*
X138597605Y-123057894D01*
X138828335Y-123212063D01*
X138873490Y-123221045D01*
X139100500Y-123266200D01*
X145909926Y-123266200D01*
X145984171Y-123445887D01*
X146362896Y-123825273D01*
X145985728Y-124201783D01*
X145745474Y-124780379D01*
X145744927Y-125406873D01*
X145984171Y-125985887D01*
X146362896Y-126365273D01*
X145985728Y-126741783D01*
X145910148Y-126923800D01*
X134392727Y-126923800D01*
X134618698Y-126772811D01*
X134929767Y-126307264D01*
X135039000Y-125758113D01*
X135039000Y-125701887D01*
X134929767Y-125152736D01*
X134618698Y-124687189D01*
X134153151Y-124376120D01*
X133604000Y-124266887D01*
X133054849Y-124376120D01*
X132732445Y-124591543D01*
X129774437Y-121633535D01*
X129806440Y-121475500D01*
X129806440Y-120840500D01*
X129769279Y-120643007D01*
X129806440Y-120459500D01*
X129806440Y-119824500D01*
X129762162Y-119589183D01*
X129703644Y-119498244D01*
X130049212Y-119152677D01*
X130049302Y-119152811D01*
X130514849Y-119463880D01*
X131064000Y-119573113D01*
X131613151Y-119463880D01*
X132078698Y-119152811D01*
X132175101Y-119008535D01*
X132200838Y-119145317D01*
X132200838Y-119145317D01*
G37*
X132200838Y-119145317D02*
X132339910Y-119361441D01*
X132552110Y-119506431D01*
X132804000Y-119557440D01*
X134404000Y-119557440D01*
X134639317Y-119513162D01*
X134855441Y-119374090D01*
X134879131Y-119339419D01*
X138597605Y-123057894D01*
X138828335Y-123212063D01*
X138873490Y-123221045D01*
X139100500Y-123266200D01*
X145909926Y-123266200D01*
X145984171Y-123445887D01*
X146362896Y-123825273D01*
X145985728Y-124201783D01*
X145745474Y-124780379D01*
X145744927Y-125406873D01*
X145984171Y-125985887D01*
X146362896Y-126365273D01*
X145985728Y-126741783D01*
X145910148Y-126923800D01*
X134392727Y-126923800D01*
X134618698Y-126772811D01*
X134929767Y-126307264D01*
X135039000Y-125758113D01*
X135039000Y-125701887D01*
X134929767Y-125152736D01*
X134618698Y-124687189D01*
X134153151Y-124376120D01*
X133604000Y-124266887D01*
X133054849Y-124376120D01*
X132732445Y-124591543D01*
X129774437Y-121633535D01*
X129806440Y-121475500D01*
X129806440Y-120840500D01*
X129769279Y-120643007D01*
X129806440Y-120459500D01*
X129806440Y-119824500D01*
X129762162Y-119589183D01*
X129703644Y-119498244D01*
X130049212Y-119152677D01*
X130049302Y-119152811D01*
X130514849Y-119463880D01*
X131064000Y-119573113D01*
X131613151Y-119463880D01*
X132078698Y-119152811D01*
X132175101Y-119008535D01*
X132200838Y-119145317D01*
G36*
X122439852Y-124680140D02*
X122429302Y-124687189D01*
X122174000Y-125069275D01*
X121918698Y-124687189D01*
X121453151Y-124376120D01*
X120904000Y-124266887D01*
X120354849Y-124376120D01*
X119889302Y-124687189D01*
X119634000Y-125069275D01*
X119378698Y-124687189D01*
X119030673Y-124454646D01*
X119021063Y-124406335D01*
X118866894Y-124175606D01*
X115177600Y-120486312D01*
X115177600Y-119398900D01*
X115274849Y-119463880D01*
X115824000Y-119573113D01*
X116373151Y-119463880D01*
X116838698Y-119152811D01*
X116868268Y-119108556D01*
X122439852Y-124680140D01*
X122439852Y-124680140D01*
G37*
X122439852Y-124680140D02*
X122429302Y-124687189D01*
X122174000Y-125069275D01*
X121918698Y-124687189D01*
X121453151Y-124376120D01*
X120904000Y-124266887D01*
X120354849Y-124376120D01*
X119889302Y-124687189D01*
X119634000Y-125069275D01*
X119378698Y-124687189D01*
X119030673Y-124454646D01*
X119021063Y-124406335D01*
X118866894Y-124175606D01*
X115177600Y-120486312D01*
X115177600Y-119398900D01*
X115274849Y-119463880D01*
X115824000Y-119573113D01*
X116373151Y-119463880D01*
X116838698Y-119152811D01*
X116868268Y-119108556D01*
X122439852Y-124680140D01*
G36*
X124884910Y-121825341D02*
X125097110Y-121970331D01*
X125349000Y-122021340D01*
X126619000Y-122021340D01*
X126842402Y-121979304D01*
X127251299Y-122388201D01*
X127497860Y-122552948D01*
X127788700Y-122610800D01*
X128602098Y-122610800D01*
X130426471Y-124435173D01*
X130049302Y-124687189D01*
X130023017Y-124726528D01*
X129458294Y-124161806D01*
X129227565Y-124007637D01*
X128955400Y-123953500D01*
X128076900Y-123953500D01*
X127849890Y-123998655D01*
X127804735Y-124007637D01*
X127574005Y-124161806D01*
X127018695Y-124717117D01*
X126998698Y-124687189D01*
X126650672Y-124454645D01*
X126641063Y-124406336D01*
X126486894Y-124175606D01*
X126256164Y-124021437D01*
X125984000Y-123967300D01*
X125911088Y-123967300D01*
X123965128Y-122021340D01*
X124079000Y-122021340D01*
X124314317Y-121977062D01*
X124530441Y-121837990D01*
X124545193Y-121816400D01*
X124879157Y-121816400D01*
X124884910Y-121825341D01*
X124884910Y-121825341D01*
G37*
X124884910Y-121825341D02*
X125097110Y-121970331D01*
X125349000Y-122021340D01*
X126619000Y-122021340D01*
X126842402Y-121979304D01*
X127251299Y-122388201D01*
X127497860Y-122552948D01*
X127788700Y-122610800D01*
X128602098Y-122610800D01*
X130426471Y-124435173D01*
X130049302Y-124687189D01*
X130023017Y-124726528D01*
X129458294Y-124161806D01*
X129227565Y-124007637D01*
X128955400Y-123953500D01*
X128076900Y-123953500D01*
X127849890Y-123998655D01*
X127804735Y-124007637D01*
X127574005Y-124161806D01*
X127018695Y-124717117D01*
X126998698Y-124687189D01*
X126650672Y-124454645D01*
X126641063Y-124406336D01*
X126486894Y-124175606D01*
X126256164Y-124021437D01*
X125984000Y-123967300D01*
X125911088Y-123967300D01*
X123965128Y-122021340D01*
X124079000Y-122021340D01*
X124314317Y-121977062D01*
X124530441Y-121837990D01*
X124545193Y-121816400D01*
X124879157Y-121816400D01*
X124884910Y-121825341D01*
G36*
X156162448Y-123097118D02*
X156148305Y-123111260D01*
X156162448Y-123125403D01*
X155982843Y-123305008D01*
X155968700Y-123290865D01*
X155954558Y-123305008D01*
X155774953Y-123125403D01*
X155789095Y-123111260D01*
X155774953Y-123097118D01*
X155954558Y-122917513D01*
X155968700Y-122931655D01*
X155982843Y-122917513D01*
X156162448Y-123097118D01*
X156162448Y-123097118D01*
G37*
X156162448Y-123097118D02*
X156148305Y-123111260D01*
X156162448Y-123125403D01*
X155982843Y-123305008D01*
X155968700Y-123290865D01*
X155954558Y-123305008D01*
X155774953Y-123125403D01*
X155789095Y-123111260D01*
X155774953Y-123097118D01*
X155954558Y-122917513D01*
X155968700Y-122931655D01*
X155982843Y-122917513D01*
X156162448Y-123097118D01*
G36*
X113411000Y-117983000D02*
X113431000Y-117983000D01*
X113431000Y-118237000D01*
X113411000Y-118237000D01*
X113411000Y-119379915D01*
X113633039Y-119501904D01*
X113755200Y-119451307D01*
X113755200Y-120318512D01*
X112937305Y-119500616D01*
X113157000Y-119379915D01*
X113157000Y-118237000D01*
X113137000Y-118237000D01*
X113137000Y-117983000D01*
X113157000Y-117983000D01*
X113157000Y-117963000D01*
X113411000Y-117963000D01*
X113411000Y-117983000D01*
X113411000Y-117983000D01*
G37*
X113411000Y-117983000D02*
X113431000Y-117983000D01*
X113431000Y-118237000D01*
X113411000Y-118237000D01*
X113411000Y-119379915D01*
X113633039Y-119501904D01*
X113755200Y-119451307D01*
X113755200Y-120318512D01*
X112937305Y-119500616D01*
X113157000Y-119379915D01*
X113157000Y-118237000D01*
X113137000Y-118237000D01*
X113137000Y-117983000D01*
X113157000Y-117983000D01*
X113157000Y-117963000D01*
X113411000Y-117963000D01*
X113411000Y-117983000D01*
G36*
X121934730Y-117091182D02*
X121918698Y-117067189D01*
X121453151Y-116756120D01*
X120904000Y-116646887D01*
X120354849Y-116756120D01*
X119889302Y-117067189D01*
X119634000Y-117449275D01*
X119378698Y-117067189D01*
X118913151Y-116756120D01*
X118364000Y-116646887D01*
X117814849Y-116756120D01*
X117773017Y-116784072D01*
X117679494Y-116644106D01*
X115950992Y-114915604D01*
X115951176Y-114704192D01*
X115796825Y-114330634D01*
X115708917Y-114242572D01*
X117942289Y-112009200D01*
X127016711Y-112009200D01*
X121934730Y-117091182D01*
X121934730Y-117091182D01*
G37*
X121934730Y-117091182D02*
X121918698Y-117067189D01*
X121453151Y-116756120D01*
X120904000Y-116646887D01*
X120354849Y-116756120D01*
X119889302Y-117067189D01*
X119634000Y-117449275D01*
X119378698Y-117067189D01*
X118913151Y-116756120D01*
X118364000Y-116646887D01*
X117814849Y-116756120D01*
X117773017Y-116784072D01*
X117679494Y-116644106D01*
X115950992Y-114915604D01*
X115951176Y-114704192D01*
X115796825Y-114330634D01*
X115708917Y-114242572D01*
X117942289Y-112009200D01*
X127016711Y-112009200D01*
X121934730Y-117091182D01*
G36*
X140061706Y-114177094D02*
X140131606Y-114223800D01*
X132287000Y-114223800D01*
X132059990Y-114268955D01*
X132014835Y-114277937D01*
X131784106Y-114432106D01*
X129305105Y-116911107D01*
X129073151Y-116756120D01*
X128524000Y-116646887D01*
X127974849Y-116756120D01*
X127956100Y-116768648D01*
X127956100Y-115580900D01*
X127950892Y-115554717D01*
X127982307Y-115479061D01*
X127982692Y-115037476D01*
X127814061Y-114629357D01*
X127502085Y-114316837D01*
X127094261Y-114147493D01*
X126890174Y-114147315D01*
X128352189Y-112685300D01*
X133158771Y-112685300D01*
X133308131Y-112834921D01*
X133681418Y-112989924D01*
X134085608Y-112990276D01*
X134459166Y-112835925D01*
X134745221Y-112550369D01*
X134900224Y-112177082D01*
X134900576Y-111772892D01*
X134746225Y-111399334D01*
X134635536Y-111288452D01*
X135446696Y-110477292D01*
X135658108Y-110477476D01*
X136031666Y-110323125D01*
X136119778Y-110235166D01*
X140061706Y-114177094D01*
X140061706Y-114177094D01*
G37*
X140061706Y-114177094D02*
X140131606Y-114223800D01*
X132287000Y-114223800D01*
X132059990Y-114268955D01*
X132014835Y-114277937D01*
X131784106Y-114432106D01*
X129305105Y-116911107D01*
X129073151Y-116756120D01*
X128524000Y-116646887D01*
X127974849Y-116756120D01*
X127956100Y-116768648D01*
X127956100Y-115580900D01*
X127950892Y-115554717D01*
X127982307Y-115479061D01*
X127982692Y-115037476D01*
X127814061Y-114629357D01*
X127502085Y-114316837D01*
X127094261Y-114147493D01*
X126890174Y-114147315D01*
X128352189Y-112685300D01*
X133158771Y-112685300D01*
X133308131Y-112834921D01*
X133681418Y-112989924D01*
X134085608Y-112990276D01*
X134459166Y-112835925D01*
X134745221Y-112550369D01*
X134900224Y-112177082D01*
X134900576Y-111772892D01*
X134746225Y-111399334D01*
X134635536Y-111288452D01*
X135446696Y-110477292D01*
X135658108Y-110477476D01*
X136031666Y-110323125D01*
X136119778Y-110235166D01*
X140061706Y-114177094D01*
G36*
X115384300Y-107566488D02*
X115384300Y-107574971D01*
X115234679Y-107724331D01*
X115079676Y-108097618D01*
X115079324Y-108501808D01*
X115233675Y-108875366D01*
X115519231Y-109161421D01*
X115892518Y-109316424D01*
X116296708Y-109316776D01*
X116670266Y-109162425D01*
X116956321Y-108876869D01*
X117020888Y-108721376D01*
X118121845Y-109822333D01*
X118121524Y-110190408D01*
X118126438Y-110202300D01*
X117357400Y-110202300D01*
X117085236Y-110256437D01*
X116854506Y-110410605D01*
X112484500Y-114780612D01*
X112484500Y-108229388D01*
X113338496Y-107375392D01*
X113549908Y-107375576D01*
X113817597Y-107264969D01*
X114083118Y-107375224D01*
X114487308Y-107375576D01*
X114860866Y-107221225D01*
X114950029Y-107132217D01*
X115384300Y-107566488D01*
X115384300Y-107566488D01*
G37*
X115384300Y-107566488D02*
X115384300Y-107574971D01*
X115234679Y-107724331D01*
X115079676Y-108097618D01*
X115079324Y-108501808D01*
X115233675Y-108875366D01*
X115519231Y-109161421D01*
X115892518Y-109316424D01*
X116296708Y-109316776D01*
X116670266Y-109162425D01*
X116956321Y-108876869D01*
X117020888Y-108721376D01*
X118121845Y-109822333D01*
X118121524Y-110190408D01*
X118126438Y-110202300D01*
X117357400Y-110202300D01*
X117085236Y-110256437D01*
X116854506Y-110410605D01*
X112484500Y-114780612D01*
X112484500Y-108229388D01*
X113338496Y-107375392D01*
X113549908Y-107375576D01*
X113817597Y-107264969D01*
X114083118Y-107375224D01*
X114487308Y-107375576D01*
X114860866Y-107221225D01*
X114950029Y-107132217D01*
X115384300Y-107566488D01*
G36*
X154865000Y-107950000D02*
X154919046Y-108221705D01*
X155072954Y-108452046D01*
X157405000Y-110784091D01*
X157405000Y-111335917D01*
X157089589Y-111019955D01*
X156273022Y-110680887D01*
X155388857Y-110680115D01*
X154571700Y-111017758D01*
X153945955Y-111642411D01*
X153607673Y-112457085D01*
X149209700Y-108059112D01*
X149209700Y-104038229D01*
X149359321Y-103888869D01*
X149514324Y-103515582D01*
X149514676Y-103111392D01*
X149360325Y-102737834D01*
X149074769Y-102451779D01*
X148701482Y-102296776D01*
X148297292Y-102296424D01*
X147923734Y-102450775D01*
X147650200Y-102723832D01*
X147650200Y-99163637D01*
X147889304Y-99262922D01*
X148525903Y-99263477D01*
X149114256Y-99020375D01*
X149479242Y-98656026D01*
X149841376Y-99018793D01*
X150429304Y-99262922D01*
X151065903Y-99263477D01*
X151654256Y-99020375D01*
X152019242Y-98656026D01*
X152381376Y-99018793D01*
X152969304Y-99262922D01*
X153605903Y-99263477D01*
X154194256Y-99020375D01*
X154644793Y-98570624D01*
X154865000Y-98040307D01*
X154865000Y-107950000D01*
X154865000Y-107950000D01*
G37*
X154865000Y-107950000D02*
X154919046Y-108221705D01*
X155072954Y-108452046D01*
X157405000Y-110784091D01*
X157405000Y-111335917D01*
X157089589Y-111019955D01*
X156273022Y-110680887D01*
X155388857Y-110680115D01*
X154571700Y-111017758D01*
X153945955Y-111642411D01*
X153607673Y-112457085D01*
X149209700Y-108059112D01*
X149209700Y-104038229D01*
X149359321Y-103888869D01*
X149514324Y-103515582D01*
X149514676Y-103111392D01*
X149360325Y-102737834D01*
X149074769Y-102451779D01*
X148701482Y-102296776D01*
X148297292Y-102296424D01*
X147923734Y-102450775D01*
X147650200Y-102723832D01*
X147650200Y-99163637D01*
X147889304Y-99262922D01*
X148525903Y-99263477D01*
X149114256Y-99020375D01*
X149479242Y-98656026D01*
X149841376Y-99018793D01*
X150429304Y-99262922D01*
X151065903Y-99263477D01*
X151654256Y-99020375D01*
X152019242Y-98656026D01*
X152381376Y-99018793D01*
X152969304Y-99262922D01*
X153605903Y-99263477D01*
X154194256Y-99020375D01*
X154644793Y-98570624D01*
X154865000Y-98040307D01*
X154865000Y-107950000D01*
G36*
X134682937Y-108798325D02*
X134596079Y-108885031D01*
X134552879Y-108989068D01*
X134450669Y-108886679D01*
X134077382Y-108731676D01*
X133673192Y-108731324D01*
X133299634Y-108885675D01*
X133013579Y-109171231D01*
X132858576Y-109544518D01*
X132858390Y-109757722D01*
X132413812Y-110202300D01*
X120149323Y-110202300D01*
X120153524Y-110192182D01*
X120153876Y-109787992D01*
X119999525Y-109414434D01*
X119954017Y-109368846D01*
X120045718Y-109406924D01*
X120449908Y-109407276D01*
X120823466Y-109252925D01*
X121109521Y-108967369D01*
X121183389Y-108789477D01*
X121539008Y-109145096D01*
X121538824Y-109356508D01*
X121693175Y-109730066D01*
X121978731Y-110016121D01*
X122352018Y-110171124D01*
X122756208Y-110171476D01*
X123129766Y-110017125D01*
X123415821Y-109731569D01*
X123570824Y-109358282D01*
X123571176Y-108954092D01*
X123416825Y-108580534D01*
X123131269Y-108294479D01*
X122757982Y-108139476D01*
X122544778Y-108139290D01*
X120998388Y-106592900D01*
X132477512Y-106592900D01*
X134682937Y-108798325D01*
X134682937Y-108798325D01*
G37*
X134682937Y-108798325D02*
X134596079Y-108885031D01*
X134552879Y-108989068D01*
X134450669Y-108886679D01*
X134077382Y-108731676D01*
X133673192Y-108731324D01*
X133299634Y-108885675D01*
X133013579Y-109171231D01*
X132858576Y-109544518D01*
X132858390Y-109757722D01*
X132413812Y-110202300D01*
X120149323Y-110202300D01*
X120153524Y-110192182D01*
X120153876Y-109787992D01*
X119999525Y-109414434D01*
X119954017Y-109368846D01*
X120045718Y-109406924D01*
X120449908Y-109407276D01*
X120823466Y-109252925D01*
X121109521Y-108967369D01*
X121183389Y-108789477D01*
X121539008Y-109145096D01*
X121538824Y-109356508D01*
X121693175Y-109730066D01*
X121978731Y-110016121D01*
X122352018Y-110171124D01*
X122756208Y-110171476D01*
X123129766Y-110017125D01*
X123415821Y-109731569D01*
X123570824Y-109358282D01*
X123571176Y-108954092D01*
X123416825Y-108580534D01*
X123131269Y-108294479D01*
X122757982Y-108139476D01*
X122544778Y-108139290D01*
X120998388Y-106592900D01*
X132477512Y-106592900D01*
X134682937Y-108798325D01*
G36*
X147481812Y-110090000D02*
X140597097Y-110090000D01*
X140649065Y-110079663D01*
X140879794Y-109925494D01*
X141974537Y-108830752D01*
X142097984Y-108646000D01*
X142128706Y-108600021D01*
X142182843Y-108327857D01*
X142182843Y-104791031D01*
X147481812Y-110090000D01*
X147481812Y-110090000D01*
G37*
X147481812Y-110090000D02*
X140597097Y-110090000D01*
X140649065Y-110079663D01*
X140879794Y-109925494D01*
X141974537Y-108830752D01*
X142097984Y-108646000D01*
X142128706Y-108600021D01*
X142182843Y-108327857D01*
X142182843Y-104791031D01*
X147481812Y-110090000D01*
G36*
X140433032Y-104003846D02*
X140433032Y-107449494D01*
X140238192Y-107449324D01*
X139864634Y-107603675D01*
X139578579Y-107889231D01*
X139423576Y-108262518D01*
X139423378Y-108490060D01*
X139252234Y-108560775D01*
X139057629Y-108755041D01*
X135954989Y-105652401D01*
X137931167Y-105652401D01*
X138203332Y-105598264D01*
X138434061Y-105444095D01*
X139280455Y-104597701D01*
X139491867Y-104597885D01*
X139865425Y-104443534D01*
X140151480Y-104157978D01*
X140279312Y-103850126D01*
X140433032Y-104003846D01*
X140433032Y-104003846D01*
G37*
X140433032Y-104003846D02*
X140433032Y-107449494D01*
X140238192Y-107449324D01*
X139864634Y-107603675D01*
X139578579Y-107889231D01*
X139423576Y-108262518D01*
X139423378Y-108490060D01*
X139252234Y-108560775D01*
X139057629Y-108755041D01*
X135954989Y-105652401D01*
X137931167Y-105652401D01*
X138203332Y-105598264D01*
X138434061Y-105444095D01*
X139280455Y-104597701D01*
X139491867Y-104597885D01*
X139865425Y-104443534D01*
X140151480Y-104157978D01*
X140279312Y-103850126D01*
X140433032Y-104003846D01*
G36*
X136876675Y-103746466D02*
X137162231Y-104032521D01*
X137535518Y-104187524D01*
X137678931Y-104187649D01*
X137636579Y-104230001D01*
X130505571Y-104230001D01*
X130405522Y-104210100D01*
X127960829Y-104210100D01*
X127811469Y-104060479D01*
X127438182Y-103905476D01*
X127033992Y-103905124D01*
X126660434Y-104059475D01*
X126374379Y-104345031D01*
X126219376Y-104718318D01*
X126219268Y-104842700D01*
X119470588Y-104842700D01*
X118505588Y-103877700D01*
X135291371Y-103877700D01*
X135440731Y-104027321D01*
X135814018Y-104182324D01*
X136218208Y-104182676D01*
X136591766Y-104028325D01*
X136875928Y-103744659D01*
X136876675Y-103746466D01*
X136876675Y-103746466D01*
G37*
X136876675Y-103746466D02*
X137162231Y-104032521D01*
X137535518Y-104187524D01*
X137678931Y-104187649D01*
X137636579Y-104230001D01*
X130505571Y-104230001D01*
X130405522Y-104210100D01*
X127960829Y-104210100D01*
X127811469Y-104060479D01*
X127438182Y-103905476D01*
X127033992Y-103905124D01*
X126660434Y-104059475D01*
X126374379Y-104345031D01*
X126219376Y-104718318D01*
X126219268Y-104842700D01*
X119470588Y-104842700D01*
X118505588Y-103877700D01*
X135291371Y-103877700D01*
X135440731Y-104027321D01*
X135814018Y-104182324D01*
X136218208Y-104182676D01*
X136591766Y-104028325D01*
X136875928Y-103744659D01*
X136876675Y-103746466D01*
G36*
X133045474Y-79060379D02*
X133044927Y-79686873D01*
X133284171Y-80265887D01*
X133662896Y-80645273D01*
X133285728Y-81021783D01*
X133045474Y-81600379D01*
X133044927Y-82226873D01*
X133284171Y-82805887D01*
X133726783Y-83249272D01*
X134305379Y-83489526D01*
X134931873Y-83490073D01*
X135510887Y-83250829D01*
X135890273Y-82872104D01*
X136266783Y-83249272D01*
X136845379Y-83489526D01*
X137471873Y-83490073D01*
X138050887Y-83250829D01*
X138430273Y-82872104D01*
X138806783Y-83249272D01*
X139385379Y-83489526D01*
X140011873Y-83490073D01*
X140590887Y-83250829D01*
X140970273Y-82872104D01*
X141346783Y-83249272D01*
X141925379Y-83489526D01*
X142551873Y-83490073D01*
X143130887Y-83250829D01*
X143572601Y-82809885D01*
X143671032Y-82844363D01*
X144600395Y-81915000D01*
X143671032Y-80985637D01*
X143572036Y-81020313D01*
X143197104Y-80644727D01*
X143510273Y-80332104D01*
X143885115Y-80707601D01*
X143850637Y-80806032D01*
X144780000Y-81735395D01*
X144794143Y-81721253D01*
X144973748Y-81900858D01*
X144959605Y-81915000D01*
X144973748Y-81929143D01*
X144794143Y-82108748D01*
X144780000Y-82094605D01*
X143850637Y-83023968D01*
X143941923Y-83284580D01*
X144529833Y-83501045D01*
X145155828Y-83476049D01*
X145536010Y-83318573D01*
X145536010Y-86025888D01*
X145593862Y-86316727D01*
X145758609Y-86563289D01*
X145790010Y-86594690D01*
X145790010Y-87450188D01*
X145225414Y-88014784D01*
X145094621Y-87960474D01*
X144468127Y-87959927D01*
X143889113Y-88199171D01*
X143509727Y-88577896D01*
X143133217Y-88200728D01*
X142554621Y-87960474D01*
X141928127Y-87959927D01*
X141349113Y-88199171D01*
X141207163Y-88340874D01*
X140212594Y-87346306D01*
X139981865Y-87192137D01*
X139709700Y-87138000D01*
X138750129Y-87138000D01*
X138600769Y-86988379D01*
X138227482Y-86833376D01*
X137823292Y-86833024D01*
X137449734Y-86987375D01*
X137163679Y-87272931D01*
X137008676Y-87646218D01*
X137008403Y-87960067D01*
X136848127Y-87959927D01*
X136269113Y-88199171D01*
X135889727Y-88577896D01*
X135513217Y-88200728D01*
X134934621Y-87960474D01*
X134308127Y-87959927D01*
X133729113Y-88199171D01*
X133285728Y-88641783D01*
X133045474Y-89220379D01*
X133044927Y-89846873D01*
X133284171Y-90425887D01*
X133662896Y-90805273D01*
X133285728Y-91181783D01*
X133045474Y-91760379D01*
X133044927Y-92386873D01*
X133284171Y-92965887D01*
X133726783Y-93409272D01*
X134156363Y-93587649D01*
X133786206Y-93957806D01*
X133632037Y-94188535D01*
X133583286Y-94433624D01*
X133577900Y-94460700D01*
X133577900Y-98182200D01*
X133632037Y-98454365D01*
X133786206Y-98685094D01*
X134567006Y-99465894D01*
X134797735Y-99620063D01*
X134844846Y-99629434D01*
X135057318Y-99841907D01*
X135110837Y-100110965D01*
X135265006Y-100341694D01*
X136746012Y-101822700D01*
X122573288Y-101822700D01*
X123004694Y-101391294D01*
X123158863Y-101160565D01*
X123170864Y-101100231D01*
X123213000Y-100888400D01*
X123213000Y-99141547D01*
X123505304Y-99262922D01*
X124141903Y-99263477D01*
X124730256Y-99020375D01*
X125095242Y-98656026D01*
X125457376Y-99018793D01*
X126045304Y-99262922D01*
X126681903Y-99263477D01*
X127270256Y-99020375D01*
X127635242Y-98656026D01*
X127997376Y-99018793D01*
X128585304Y-99262922D01*
X129221903Y-99263477D01*
X129810256Y-99020375D01*
X130175242Y-98656026D01*
X130537376Y-99018793D01*
X131125304Y-99262922D01*
X131761903Y-99263477D01*
X132350256Y-99020375D01*
X132800793Y-98570624D01*
X133044922Y-97982696D01*
X133045477Y-97346097D01*
X132802375Y-96757744D01*
X132352624Y-96307207D01*
X131764696Y-96063078D01*
X131128097Y-96062523D01*
X130539744Y-96305625D01*
X130174758Y-96669974D01*
X129812624Y-96307207D01*
X129224696Y-96063078D01*
X128588097Y-96062523D01*
X127999744Y-96305625D01*
X127634758Y-96669974D01*
X127272624Y-96307207D01*
X126684696Y-96063078D01*
X126048097Y-96062523D01*
X125459744Y-96305625D01*
X125094758Y-96669974D01*
X124732624Y-96307207D01*
X124144696Y-96063078D01*
X123508097Y-96062523D01*
X123282485Y-96155744D01*
X123414224Y-95838482D01*
X123414576Y-95434292D01*
X123260225Y-95060734D01*
X122974669Y-94774679D01*
X122601382Y-94619676D01*
X122197192Y-94619324D01*
X121823634Y-94773675D01*
X121537579Y-95059231D01*
X121382576Y-95432518D01*
X121382224Y-95836708D01*
X121475712Y-96062966D01*
X120968097Y-96062523D01*
X120577185Y-96224044D01*
X120529939Y-96153336D01*
X120489494Y-96092805D01*
X119856692Y-95460003D01*
X119856876Y-95248592D01*
X119702525Y-94875034D01*
X119416969Y-94588979D01*
X119043682Y-94433976D01*
X118639492Y-94433624D01*
X118265934Y-94587975D01*
X117979879Y-94873531D01*
X117824876Y-95246818D01*
X117824524Y-95651008D01*
X117978875Y-96024566D01*
X118136883Y-96182850D01*
X117839744Y-96305625D01*
X117403750Y-96740859D01*
X117332350Y-96715255D01*
X116384605Y-97663000D01*
X117332350Y-98610745D01*
X117404288Y-98584948D01*
X117837376Y-99018793D01*
X118425304Y-99262922D01*
X118787721Y-99263238D01*
X118787524Y-99489408D01*
X118941875Y-99862966D01*
X118991422Y-99912600D01*
X117594789Y-99912600D01*
X116830261Y-99148072D01*
X117058346Y-99053596D01*
X117152745Y-98790350D01*
X116205000Y-97842605D01*
X116190858Y-97856748D01*
X116011253Y-97677143D01*
X116025395Y-97663000D01*
X116011253Y-97648858D01*
X116190858Y-97469253D01*
X116205000Y-97483395D01*
X117152745Y-96535650D01*
X117058346Y-96272404D01*
X116461231Y-96051695D01*
X115825107Y-96076293D01*
X115593200Y-96172352D01*
X115593200Y-93927000D01*
X115539063Y-93654836D01*
X115535678Y-93649771D01*
X115881873Y-93650073D01*
X116460887Y-93410829D01*
X116840273Y-93032104D01*
X117216783Y-93409272D01*
X117795379Y-93649526D01*
X118421873Y-93650073D01*
X119000887Y-93410829D01*
X119380273Y-93032104D01*
X119756783Y-93409272D01*
X120335379Y-93649526D01*
X120961873Y-93650073D01*
X121540887Y-93410829D01*
X121768144Y-93183968D01*
X122260637Y-93183968D01*
X122351923Y-93444580D01*
X122939833Y-93661045D01*
X123565828Y-93636049D01*
X124028077Y-93444580D01*
X124119363Y-93183968D01*
X123190000Y-92254605D01*
X122260637Y-93183968D01*
X121768144Y-93183968D01*
X121982601Y-92969885D01*
X122081032Y-93004363D01*
X123010395Y-92075000D01*
X123369605Y-92075000D01*
X124298968Y-93004363D01*
X124559580Y-92913077D01*
X124776045Y-92325167D01*
X124751049Y-91699172D01*
X124559580Y-91236923D01*
X124298968Y-91145637D01*
X123369605Y-92075000D01*
X123010395Y-92075000D01*
X122081032Y-91145637D01*
X121982036Y-91180313D01*
X121607104Y-90804727D01*
X121920273Y-90492104D01*
X122295115Y-90867601D01*
X122260637Y-90966032D01*
X123190000Y-91895395D01*
X124119363Y-90966032D01*
X124084687Y-90867036D01*
X124524272Y-90428217D01*
X124764526Y-89849621D01*
X124765073Y-89223127D01*
X124525829Y-88644113D01*
X124083217Y-88200728D01*
X123504621Y-87960474D01*
X122878127Y-87959927D01*
X122299113Y-88199171D01*
X121919727Y-88577896D01*
X121543217Y-88200728D01*
X120964621Y-87960474D01*
X120338127Y-87959927D01*
X119759113Y-88199171D01*
X119379727Y-88577896D01*
X119003217Y-88200728D01*
X118424621Y-87960474D01*
X117798127Y-87959927D01*
X117219113Y-88199171D01*
X116839727Y-88577896D01*
X116463217Y-88200728D01*
X115884621Y-87960474D01*
X115258127Y-87959927D01*
X114679113Y-88199171D01*
X114299727Y-88577896D01*
X113923217Y-88200728D01*
X113344621Y-87960474D01*
X113070553Y-87960235D01*
X117615821Y-83414967D01*
X117795379Y-83489526D01*
X118421873Y-83490073D01*
X119000887Y-83250829D01*
X119380273Y-82872104D01*
X119756783Y-83249272D01*
X120335379Y-83489526D01*
X120961873Y-83490073D01*
X121540887Y-83250829D01*
X121768144Y-83023968D01*
X122260637Y-83023968D01*
X122351923Y-83284580D01*
X122939833Y-83501045D01*
X123565828Y-83476049D01*
X124028077Y-83284580D01*
X124119363Y-83023968D01*
X123190000Y-82094605D01*
X122260637Y-83023968D01*
X121768144Y-83023968D01*
X121982601Y-82809885D01*
X122081032Y-82844363D01*
X123010395Y-81915000D01*
X123369605Y-81915000D01*
X124298968Y-82844363D01*
X124559580Y-82753077D01*
X124776045Y-82165167D01*
X124751049Y-81539172D01*
X124559580Y-81076923D01*
X124298968Y-80985637D01*
X123369605Y-81915000D01*
X123010395Y-81915000D01*
X122081032Y-80985637D01*
X121982036Y-81020313D01*
X121607104Y-80644727D01*
X121920273Y-80332104D01*
X122295115Y-80707601D01*
X122260637Y-80806032D01*
X123190000Y-81735395D01*
X124119363Y-80806032D01*
X124084687Y-80707036D01*
X124524272Y-80268217D01*
X124764526Y-79689621D01*
X124765073Y-79063127D01*
X124709989Y-78929813D01*
X124838802Y-78801000D01*
X133153178Y-78801000D01*
X133045474Y-79060379D01*
X133045474Y-79060379D01*
G37*
X133045474Y-79060379D02*
X133044927Y-79686873D01*
X133284171Y-80265887D01*
X133662896Y-80645273D01*
X133285728Y-81021783D01*
X133045474Y-81600379D01*
X133044927Y-82226873D01*
X133284171Y-82805887D01*
X133726783Y-83249272D01*
X134305379Y-83489526D01*
X134931873Y-83490073D01*
X135510887Y-83250829D01*
X135890273Y-82872104D01*
X136266783Y-83249272D01*
X136845379Y-83489526D01*
X137471873Y-83490073D01*
X138050887Y-83250829D01*
X138430273Y-82872104D01*
X138806783Y-83249272D01*
X139385379Y-83489526D01*
X140011873Y-83490073D01*
X140590887Y-83250829D01*
X140970273Y-82872104D01*
X141346783Y-83249272D01*
X141925379Y-83489526D01*
X142551873Y-83490073D01*
X143130887Y-83250829D01*
X143572601Y-82809885D01*
X143671032Y-82844363D01*
X144600395Y-81915000D01*
X143671032Y-80985637D01*
X143572036Y-81020313D01*
X143197104Y-80644727D01*
X143510273Y-80332104D01*
X143885115Y-80707601D01*
X143850637Y-80806032D01*
X144780000Y-81735395D01*
X144794143Y-81721253D01*
X144973748Y-81900858D01*
X144959605Y-81915000D01*
X144973748Y-81929143D01*
X144794143Y-82108748D01*
X144780000Y-82094605D01*
X143850637Y-83023968D01*
X143941923Y-83284580D01*
X144529833Y-83501045D01*
X145155828Y-83476049D01*
X145536010Y-83318573D01*
X145536010Y-86025888D01*
X145593862Y-86316727D01*
X145758609Y-86563289D01*
X145790010Y-86594690D01*
X145790010Y-87450188D01*
X145225414Y-88014784D01*
X145094621Y-87960474D01*
X144468127Y-87959927D01*
X143889113Y-88199171D01*
X143509727Y-88577896D01*
X143133217Y-88200728D01*
X142554621Y-87960474D01*
X141928127Y-87959927D01*
X141349113Y-88199171D01*
X141207163Y-88340874D01*
X140212594Y-87346306D01*
X139981865Y-87192137D01*
X139709700Y-87138000D01*
X138750129Y-87138000D01*
X138600769Y-86988379D01*
X138227482Y-86833376D01*
X137823292Y-86833024D01*
X137449734Y-86987375D01*
X137163679Y-87272931D01*
X137008676Y-87646218D01*
X137008403Y-87960067D01*
X136848127Y-87959927D01*
X136269113Y-88199171D01*
X135889727Y-88577896D01*
X135513217Y-88200728D01*
X134934621Y-87960474D01*
X134308127Y-87959927D01*
X133729113Y-88199171D01*
X133285728Y-88641783D01*
X133045474Y-89220379D01*
X133044927Y-89846873D01*
X133284171Y-90425887D01*
X133662896Y-90805273D01*
X133285728Y-91181783D01*
X133045474Y-91760379D01*
X133044927Y-92386873D01*
X133284171Y-92965887D01*
X133726783Y-93409272D01*
X134156363Y-93587649D01*
X133786206Y-93957806D01*
X133632037Y-94188535D01*
X133583286Y-94433624D01*
X133577900Y-94460700D01*
X133577900Y-98182200D01*
X133632037Y-98454365D01*
X133786206Y-98685094D01*
X134567006Y-99465894D01*
X134797735Y-99620063D01*
X134844846Y-99629434D01*
X135057318Y-99841907D01*
X135110837Y-100110965D01*
X135265006Y-100341694D01*
X136746012Y-101822700D01*
X122573288Y-101822700D01*
X123004694Y-101391294D01*
X123158863Y-101160565D01*
X123170864Y-101100231D01*
X123213000Y-100888400D01*
X123213000Y-99141547D01*
X123505304Y-99262922D01*
X124141903Y-99263477D01*
X124730256Y-99020375D01*
X125095242Y-98656026D01*
X125457376Y-99018793D01*
X126045304Y-99262922D01*
X126681903Y-99263477D01*
X127270256Y-99020375D01*
X127635242Y-98656026D01*
X127997376Y-99018793D01*
X128585304Y-99262922D01*
X129221903Y-99263477D01*
X129810256Y-99020375D01*
X130175242Y-98656026D01*
X130537376Y-99018793D01*
X131125304Y-99262922D01*
X131761903Y-99263477D01*
X132350256Y-99020375D01*
X132800793Y-98570624D01*
X133044922Y-97982696D01*
X133045477Y-97346097D01*
X132802375Y-96757744D01*
X132352624Y-96307207D01*
X131764696Y-96063078D01*
X131128097Y-96062523D01*
X130539744Y-96305625D01*
X130174758Y-96669974D01*
X129812624Y-96307207D01*
X129224696Y-96063078D01*
X128588097Y-96062523D01*
X127999744Y-96305625D01*
X127634758Y-96669974D01*
X127272624Y-96307207D01*
X126684696Y-96063078D01*
X126048097Y-96062523D01*
X125459744Y-96305625D01*
X125094758Y-96669974D01*
X124732624Y-96307207D01*
X124144696Y-96063078D01*
X123508097Y-96062523D01*
X123282485Y-96155744D01*
X123414224Y-95838482D01*
X123414576Y-95434292D01*
X123260225Y-95060734D01*
X122974669Y-94774679D01*
X122601382Y-94619676D01*
X122197192Y-94619324D01*
X121823634Y-94773675D01*
X121537579Y-95059231D01*
X121382576Y-95432518D01*
X121382224Y-95836708D01*
X121475712Y-96062966D01*
X120968097Y-96062523D01*
X120577185Y-96224044D01*
X120529939Y-96153336D01*
X120489494Y-96092805D01*
X119856692Y-95460003D01*
X119856876Y-95248592D01*
X119702525Y-94875034D01*
X119416969Y-94588979D01*
X119043682Y-94433976D01*
X118639492Y-94433624D01*
X118265934Y-94587975D01*
X117979879Y-94873531D01*
X117824876Y-95246818D01*
X117824524Y-95651008D01*
X117978875Y-96024566D01*
X118136883Y-96182850D01*
X117839744Y-96305625D01*
X117403750Y-96740859D01*
X117332350Y-96715255D01*
X116384605Y-97663000D01*
X117332350Y-98610745D01*
X117404288Y-98584948D01*
X117837376Y-99018793D01*
X118425304Y-99262922D01*
X118787721Y-99263238D01*
X118787524Y-99489408D01*
X118941875Y-99862966D01*
X118991422Y-99912600D01*
X117594789Y-99912600D01*
X116830261Y-99148072D01*
X117058346Y-99053596D01*
X117152745Y-98790350D01*
X116205000Y-97842605D01*
X116190858Y-97856748D01*
X116011253Y-97677143D01*
X116025395Y-97663000D01*
X116011253Y-97648858D01*
X116190858Y-97469253D01*
X116205000Y-97483395D01*
X117152745Y-96535650D01*
X117058346Y-96272404D01*
X116461231Y-96051695D01*
X115825107Y-96076293D01*
X115593200Y-96172352D01*
X115593200Y-93927000D01*
X115539063Y-93654836D01*
X115535678Y-93649771D01*
X115881873Y-93650073D01*
X116460887Y-93410829D01*
X116840273Y-93032104D01*
X117216783Y-93409272D01*
X117795379Y-93649526D01*
X118421873Y-93650073D01*
X119000887Y-93410829D01*
X119380273Y-93032104D01*
X119756783Y-93409272D01*
X120335379Y-93649526D01*
X120961873Y-93650073D01*
X121540887Y-93410829D01*
X121768144Y-93183968D01*
X122260637Y-93183968D01*
X122351923Y-93444580D01*
X122939833Y-93661045D01*
X123565828Y-93636049D01*
X124028077Y-93444580D01*
X124119363Y-93183968D01*
X123190000Y-92254605D01*
X122260637Y-93183968D01*
X121768144Y-93183968D01*
X121982601Y-92969885D01*
X122081032Y-93004363D01*
X123010395Y-92075000D01*
X123369605Y-92075000D01*
X124298968Y-93004363D01*
X124559580Y-92913077D01*
X124776045Y-92325167D01*
X124751049Y-91699172D01*
X124559580Y-91236923D01*
X124298968Y-91145637D01*
X123369605Y-92075000D01*
X123010395Y-92075000D01*
X122081032Y-91145637D01*
X121982036Y-91180313D01*
X121607104Y-90804727D01*
X121920273Y-90492104D01*
X122295115Y-90867601D01*
X122260637Y-90966032D01*
X123190000Y-91895395D01*
X124119363Y-90966032D01*
X124084687Y-90867036D01*
X124524272Y-90428217D01*
X124764526Y-89849621D01*
X124765073Y-89223127D01*
X124525829Y-88644113D01*
X124083217Y-88200728D01*
X123504621Y-87960474D01*
X122878127Y-87959927D01*
X122299113Y-88199171D01*
X121919727Y-88577896D01*
X121543217Y-88200728D01*
X120964621Y-87960474D01*
X120338127Y-87959927D01*
X119759113Y-88199171D01*
X119379727Y-88577896D01*
X119003217Y-88200728D01*
X118424621Y-87960474D01*
X117798127Y-87959927D01*
X117219113Y-88199171D01*
X116839727Y-88577896D01*
X116463217Y-88200728D01*
X115884621Y-87960474D01*
X115258127Y-87959927D01*
X114679113Y-88199171D01*
X114299727Y-88577896D01*
X113923217Y-88200728D01*
X113344621Y-87960474D01*
X113070553Y-87960235D01*
X117615821Y-83414967D01*
X117795379Y-83489526D01*
X118421873Y-83490073D01*
X119000887Y-83250829D01*
X119380273Y-82872104D01*
X119756783Y-83249272D01*
X120335379Y-83489526D01*
X120961873Y-83490073D01*
X121540887Y-83250829D01*
X121768144Y-83023968D01*
X122260637Y-83023968D01*
X122351923Y-83284580D01*
X122939833Y-83501045D01*
X123565828Y-83476049D01*
X124028077Y-83284580D01*
X124119363Y-83023968D01*
X123190000Y-82094605D01*
X122260637Y-83023968D01*
X121768144Y-83023968D01*
X121982601Y-82809885D01*
X122081032Y-82844363D01*
X123010395Y-81915000D01*
X123369605Y-81915000D01*
X124298968Y-82844363D01*
X124559580Y-82753077D01*
X124776045Y-82165167D01*
X124751049Y-81539172D01*
X124559580Y-81076923D01*
X124298968Y-80985637D01*
X123369605Y-81915000D01*
X123010395Y-81915000D01*
X122081032Y-80985637D01*
X121982036Y-81020313D01*
X121607104Y-80644727D01*
X121920273Y-80332104D01*
X122295115Y-80707601D01*
X122260637Y-80806032D01*
X123190000Y-81735395D01*
X124119363Y-80806032D01*
X124084687Y-80707036D01*
X124524272Y-80268217D01*
X124764526Y-79689621D01*
X124765073Y-79063127D01*
X124709989Y-78929813D01*
X124838802Y-78801000D01*
X133153178Y-78801000D01*
X133045474Y-79060379D01*
G36*
X149785000Y-77129092D02*
X149785000Y-93980000D01*
X149839046Y-94251705D01*
X149992954Y-94482046D01*
X151262954Y-95752046D01*
X151493295Y-95905954D01*
X151765000Y-95960000D01*
X154010908Y-95960000D01*
X154865000Y-96814092D01*
X154865000Y-97286858D01*
X154646375Y-96757744D01*
X154196624Y-96307207D01*
X153608696Y-96063078D01*
X152972097Y-96062523D01*
X152383744Y-96305625D01*
X152018758Y-96669974D01*
X151656624Y-96307207D01*
X151068696Y-96063078D01*
X150432097Y-96062523D01*
X149843744Y-96305625D01*
X149478758Y-96669974D01*
X149116624Y-96307207D01*
X148528696Y-96063078D01*
X147892097Y-96062523D01*
X147622992Y-96173715D01*
X147596063Y-96038336D01*
X147518735Y-95922606D01*
X147441894Y-95807605D01*
X145236798Y-93602510D01*
X145618077Y-93444580D01*
X145709363Y-93183968D01*
X144780000Y-92254605D01*
X144765858Y-92268748D01*
X144586253Y-92089143D01*
X144600395Y-92075000D01*
X144959605Y-92075000D01*
X145888968Y-93004363D01*
X146149580Y-92913077D01*
X146366045Y-92325167D01*
X146341049Y-91699172D01*
X146149580Y-91236923D01*
X145888968Y-91145637D01*
X144959605Y-92075000D01*
X144600395Y-92075000D01*
X144586253Y-92060858D01*
X144765858Y-91881253D01*
X144780000Y-91895395D01*
X145709363Y-90966032D01*
X145674687Y-90867036D01*
X146114272Y-90428217D01*
X146354526Y-89849621D01*
X146355073Y-89223127D01*
X146299989Y-89089813D01*
X147087411Y-88302391D01*
X147252158Y-88055829D01*
X147310010Y-87764990D01*
X147310010Y-86279888D01*
X147252158Y-85989049D01*
X147252158Y-85989048D01*
X147087411Y-85742487D01*
X147056010Y-85711086D01*
X147056010Y-80891010D01*
X147007756Y-80648424D01*
X146998158Y-80600170D01*
X146833411Y-80353609D01*
X146300216Y-79820414D01*
X146354526Y-79689621D01*
X146355073Y-79063127D01*
X146115829Y-78484113D01*
X145673217Y-78040728D01*
X145094621Y-77800474D01*
X144468127Y-77799927D01*
X144334813Y-77855011D01*
X143983401Y-77503599D01*
X143736839Y-77338852D01*
X143446000Y-77281000D01*
X124524000Y-77281000D01*
X124233161Y-77338852D01*
X123986599Y-77503599D01*
X123635414Y-77854784D01*
X123504621Y-77800474D01*
X122878127Y-77799927D01*
X122299113Y-78039171D01*
X121919727Y-78417896D01*
X121543217Y-78040728D01*
X120964621Y-77800474D01*
X120338127Y-77799927D01*
X119759113Y-78039171D01*
X119379727Y-78417896D01*
X119003217Y-78040728D01*
X118424621Y-77800474D01*
X117798127Y-77799927D01*
X117219113Y-78039171D01*
X116839727Y-78417896D01*
X116463217Y-78040728D01*
X115884621Y-77800474D01*
X115258127Y-77799927D01*
X114679113Y-78039171D01*
X114299727Y-78417896D01*
X113923217Y-78040728D01*
X113344621Y-77800474D01*
X112718127Y-77799927D01*
X112139113Y-78039171D01*
X111695728Y-78481783D01*
X111455474Y-79060379D01*
X111454927Y-79686873D01*
X111694171Y-80265887D01*
X112072896Y-80645273D01*
X111695728Y-81021783D01*
X111455474Y-81600379D01*
X111454927Y-82226873D01*
X111694171Y-82805887D01*
X112136783Y-83249272D01*
X112304922Y-83319089D01*
X108025000Y-87599012D01*
X108025000Y-77129092D01*
X108879092Y-76275000D01*
X148930908Y-76275000D01*
X149785000Y-77129092D01*
X149785000Y-77129092D01*
G37*
X149785000Y-77129092D02*
X149785000Y-93980000D01*
X149839046Y-94251705D01*
X149992954Y-94482046D01*
X151262954Y-95752046D01*
X151493295Y-95905954D01*
X151765000Y-95960000D01*
X154010908Y-95960000D01*
X154865000Y-96814092D01*
X154865000Y-97286858D01*
X154646375Y-96757744D01*
X154196624Y-96307207D01*
X153608696Y-96063078D01*
X152972097Y-96062523D01*
X152383744Y-96305625D01*
X152018758Y-96669974D01*
X151656624Y-96307207D01*
X151068696Y-96063078D01*
X150432097Y-96062523D01*
X149843744Y-96305625D01*
X149478758Y-96669974D01*
X149116624Y-96307207D01*
X148528696Y-96063078D01*
X147892097Y-96062523D01*
X147622992Y-96173715D01*
X147596063Y-96038336D01*
X147518735Y-95922606D01*
X147441894Y-95807605D01*
X145236798Y-93602510D01*
X145618077Y-93444580D01*
X145709363Y-93183968D01*
X144780000Y-92254605D01*
X144765858Y-92268748D01*
X144586253Y-92089143D01*
X144600395Y-92075000D01*
X144959605Y-92075000D01*
X145888968Y-93004363D01*
X146149580Y-92913077D01*
X146366045Y-92325167D01*
X146341049Y-91699172D01*
X146149580Y-91236923D01*
X145888968Y-91145637D01*
X144959605Y-92075000D01*
X144600395Y-92075000D01*
X144586253Y-92060858D01*
X144765858Y-91881253D01*
X144780000Y-91895395D01*
X145709363Y-90966032D01*
X145674687Y-90867036D01*
X146114272Y-90428217D01*
X146354526Y-89849621D01*
X146355073Y-89223127D01*
X146299989Y-89089813D01*
X147087411Y-88302391D01*
X147252158Y-88055829D01*
X147310010Y-87764990D01*
X147310010Y-86279888D01*
X147252158Y-85989049D01*
X147252158Y-85989048D01*
X147087411Y-85742487D01*
X147056010Y-85711086D01*
X147056010Y-80891010D01*
X147007756Y-80648424D01*
X146998158Y-80600170D01*
X146833411Y-80353609D01*
X146300216Y-79820414D01*
X146354526Y-79689621D01*
X146355073Y-79063127D01*
X146115829Y-78484113D01*
X145673217Y-78040728D01*
X145094621Y-77800474D01*
X144468127Y-77799927D01*
X144334813Y-77855011D01*
X143983401Y-77503599D01*
X143736839Y-77338852D01*
X143446000Y-77281000D01*
X124524000Y-77281000D01*
X124233161Y-77338852D01*
X123986599Y-77503599D01*
X123635414Y-77854784D01*
X123504621Y-77800474D01*
X122878127Y-77799927D01*
X122299113Y-78039171D01*
X121919727Y-78417896D01*
X121543217Y-78040728D01*
X120964621Y-77800474D01*
X120338127Y-77799927D01*
X119759113Y-78039171D01*
X119379727Y-78417896D01*
X119003217Y-78040728D01*
X118424621Y-77800474D01*
X117798127Y-77799927D01*
X117219113Y-78039171D01*
X116839727Y-78417896D01*
X116463217Y-78040728D01*
X115884621Y-77800474D01*
X115258127Y-77799927D01*
X114679113Y-78039171D01*
X114299727Y-78417896D01*
X113923217Y-78040728D01*
X113344621Y-77800474D01*
X112718127Y-77799927D01*
X112139113Y-78039171D01*
X111695728Y-78481783D01*
X111455474Y-79060379D01*
X111454927Y-79686873D01*
X111694171Y-80265887D01*
X112072896Y-80645273D01*
X111695728Y-81021783D01*
X111455474Y-81600379D01*
X111454927Y-82226873D01*
X111694171Y-82805887D01*
X112136783Y-83249272D01*
X112304922Y-83319089D01*
X108025000Y-87599012D01*
X108025000Y-77129092D01*
X108879092Y-76275000D01*
X148930908Y-76275000D01*
X149785000Y-77129092D01*
M02*
