G04 #@! TF.FileFunction,Legend,Bot*
%FSLAX46Y46*%
G04 Gerber Fmt 4.6, Leading zero omitted, Abs format (unit mm)*
G04 Created by KiCad (PCBNEW 4.0.7-e2-6376~58~ubuntu16.04.1) date Mon Aug 13 19:04:16 2018*
%MOMM*%
%LPD*%
G01*
G04 APERTURE LIST*
%ADD10C,0.100000*%
%ADD11C,0.300000*%
%ADD12C,0.152400*%
%ADD13C,0.127000*%
G04 APERTURE END LIST*
D10*
D11*
X151439142Y-77400571D02*
X151439142Y-78614857D01*
X151367714Y-78757714D01*
X151296285Y-78829143D01*
X151153428Y-78900571D01*
X150867714Y-78900571D01*
X150724856Y-78829143D01*
X150653428Y-78757714D01*
X150581999Y-78614857D01*
X150581999Y-77400571D01*
X149867713Y-78900571D02*
X149867713Y-77900571D01*
X149867713Y-78186286D02*
X149796285Y-78043429D01*
X149724856Y-77972000D01*
X149581999Y-77900571D01*
X149439142Y-77900571D01*
X148939142Y-78900571D02*
X148939142Y-77900571D01*
X148939142Y-77400571D02*
X149010571Y-77472000D01*
X148939142Y-77543429D01*
X148867714Y-77472000D01*
X148939142Y-77400571D01*
X148939142Y-77543429D01*
X148296285Y-78829143D02*
X148081999Y-78900571D01*
X147724856Y-78900571D01*
X147581999Y-78829143D01*
X147510570Y-78757714D01*
X147439142Y-78614857D01*
X147439142Y-78472000D01*
X147510570Y-78329143D01*
X147581999Y-78257714D01*
X147724856Y-78186286D01*
X148010570Y-78114857D01*
X148153428Y-78043429D01*
X148224856Y-77972000D01*
X148296285Y-77829143D01*
X148296285Y-77686286D01*
X148224856Y-77543429D01*
X148153428Y-77472000D01*
X148010570Y-77400571D01*
X147653428Y-77400571D01*
X147439142Y-77472000D01*
X146796285Y-78900571D02*
X146796285Y-77400571D01*
X146153428Y-78900571D02*
X146153428Y-78114857D01*
X146224857Y-77972000D01*
X146367714Y-77900571D01*
X146581999Y-77900571D01*
X146724857Y-77972000D01*
X146796285Y-78043429D01*
X145581999Y-77400571D02*
X144581999Y-78900571D01*
X144581999Y-77400571D02*
X145581999Y-78900571D01*
X154117714Y-81450571D02*
X154117714Y-79950571D01*
X153617714Y-81022000D01*
X153117714Y-79950571D01*
X153117714Y-81450571D01*
X152403428Y-79950571D02*
X152403428Y-81164857D01*
X152332000Y-81307714D01*
X152260571Y-81379143D01*
X152117714Y-81450571D01*
X151832000Y-81450571D01*
X151689142Y-81379143D01*
X151617714Y-81307714D01*
X151546285Y-81164857D01*
X151546285Y-79950571D01*
X150974856Y-79950571D02*
X149974856Y-81450571D01*
X149974856Y-79950571D02*
X150974856Y-81450571D01*
X148332000Y-81379143D02*
X148117714Y-81450571D01*
X147760571Y-81450571D01*
X147617714Y-81379143D01*
X147546285Y-81307714D01*
X147474857Y-81164857D01*
X147474857Y-81022000D01*
X147546285Y-80879143D01*
X147617714Y-80807714D01*
X147760571Y-80736286D01*
X148046285Y-80664857D01*
X148189143Y-80593429D01*
X148260571Y-80522000D01*
X148332000Y-80379143D01*
X148332000Y-80236286D01*
X148260571Y-80093429D01*
X148189143Y-80022000D01*
X148046285Y-79950571D01*
X147689143Y-79950571D01*
X147474857Y-80022000D01*
X146832000Y-81450571D02*
X146832000Y-79950571D01*
X146189143Y-81450571D02*
X146189143Y-80664857D01*
X146260572Y-80522000D01*
X146403429Y-80450571D01*
X146617714Y-80450571D01*
X146760572Y-80522000D01*
X146832000Y-80593429D01*
X145474857Y-81450571D02*
X145474857Y-80450571D01*
X145474857Y-79950571D02*
X145546286Y-80022000D01*
X145474857Y-80093429D01*
X145403429Y-80022000D01*
X145474857Y-79950571D01*
X145474857Y-80093429D01*
X144189143Y-81379143D02*
X144332000Y-81450571D01*
X144617714Y-81450571D01*
X144760571Y-81379143D01*
X144832000Y-81236286D01*
X144832000Y-80664857D01*
X144760571Y-80522000D01*
X144617714Y-80450571D01*
X144332000Y-80450571D01*
X144189143Y-80522000D01*
X144117714Y-80664857D01*
X144117714Y-80807714D01*
X144832000Y-80950571D01*
X143260571Y-81450571D02*
X143403429Y-81379143D01*
X143474857Y-81236286D01*
X143474857Y-79950571D01*
X142046286Y-81450571D02*
X142046286Y-79950571D01*
X142046286Y-81379143D02*
X142189143Y-81450571D01*
X142474857Y-81450571D01*
X142617715Y-81379143D01*
X142689143Y-81307714D01*
X142760572Y-81164857D01*
X142760572Y-80736286D01*
X142689143Y-80593429D01*
X142617715Y-80522000D01*
X142474857Y-80450571D01*
X142189143Y-80450571D01*
X142046286Y-80522000D01*
X150724857Y-82500571D02*
X150224857Y-84000571D01*
X149724857Y-82500571D01*
X149224857Y-83857714D02*
X149153429Y-83929143D01*
X149224857Y-84000571D01*
X149296286Y-83929143D01*
X149224857Y-83857714D01*
X149224857Y-84000571D01*
X148224857Y-82500571D02*
X148082000Y-82500571D01*
X147939143Y-82572000D01*
X147867714Y-82643429D01*
X147796285Y-82786286D01*
X147724857Y-83072000D01*
X147724857Y-83429143D01*
X147796285Y-83714857D01*
X147867714Y-83857714D01*
X147939143Y-83929143D01*
X148082000Y-84000571D01*
X148224857Y-84000571D01*
X148367714Y-83929143D01*
X148439143Y-83857714D01*
X148510571Y-83714857D01*
X148582000Y-83429143D01*
X148582000Y-83072000D01*
X148510571Y-82786286D01*
X148439143Y-82643429D01*
X148367714Y-82572000D01*
X148224857Y-82500571D01*
X147082000Y-83857714D02*
X147010572Y-83929143D01*
X147082000Y-84000571D01*
X147153429Y-83929143D01*
X147082000Y-83857714D01*
X147082000Y-84000571D01*
X146510571Y-82500571D02*
X145582000Y-82500571D01*
X146082000Y-83072000D01*
X145867714Y-83072000D01*
X145724857Y-83143429D01*
X145653428Y-83214857D01*
X145582000Y-83357714D01*
X145582000Y-83714857D01*
X145653428Y-83857714D01*
X145724857Y-83929143D01*
X145867714Y-84000571D01*
X146296286Y-84000571D01*
X146439143Y-83929143D01*
X146510571Y-83857714D01*
D12*
X148844000Y-68224400D02*
X148844000Y-69951600D01*
X149098000Y-67970400D02*
X150622000Y-67970400D01*
X149098000Y-70205600D02*
X150622000Y-70205600D01*
X150876000Y-69951600D02*
X150876000Y-68224400D01*
X150622000Y-67970400D02*
G75*
G02X150876000Y-68224400I0J-254000D01*
G01*
X150876000Y-69951600D02*
G75*
G02X150622000Y-70205600I-254000J0D01*
G01*
X149098000Y-70205600D02*
G75*
G02X148844000Y-69951600I0J254000D01*
G01*
X148844000Y-68224400D02*
G75*
G02X149098000Y-67970400I254000J0D01*
G01*
X151384000Y-68326000D02*
X151384000Y-69850000D01*
X151841200Y-67868800D02*
X152958800Y-67868800D01*
X151841200Y-70307200D02*
X152958800Y-70307200D01*
X153416000Y-69850000D02*
X153416000Y-68326000D01*
X152958800Y-67868800D02*
G75*
G02X153416000Y-68326000I0J-457200D01*
G01*
X153416000Y-69850000D02*
G75*
G02X152958800Y-70307200I-457200J0D01*
G01*
X151841200Y-70307200D02*
G75*
G02X151384000Y-69850000I0J457200D01*
G01*
X151384000Y-68326000D02*
G75*
G02X151841200Y-67868800I457200J0D01*
G01*
X146304000Y-68224400D02*
X146304000Y-69951600D01*
X146558000Y-67970400D02*
X148082000Y-67970400D01*
X146558000Y-70205600D02*
X148082000Y-70205600D01*
X148336000Y-69951600D02*
X148336000Y-68224400D01*
X148082000Y-67970400D02*
G75*
G02X148336000Y-68224400I0J-254000D01*
G01*
X148336000Y-69951600D02*
G75*
G02X148082000Y-70205600I-254000J0D01*
G01*
X146558000Y-70205600D02*
G75*
G02X146304000Y-69951600I0J254000D01*
G01*
X146304000Y-68224400D02*
G75*
G02X146558000Y-67970400I254000J0D01*
G01*
X147066000Y-59944000D02*
X144526000Y-59944000D01*
X147523200Y-60401200D02*
X147523200Y-61518800D01*
X144068800Y-60401200D02*
X144068800Y-61518800D01*
X144526000Y-61976000D02*
X147066000Y-61976000D01*
X147523200Y-61518800D02*
G75*
G02X147066000Y-61976000I-457200J0D01*
G01*
X144526000Y-61976000D02*
G75*
G02X144068800Y-61518800I0J457200D01*
G01*
X144068800Y-60401200D02*
G75*
G02X144526000Y-59944000I457200J0D01*
G01*
X147066000Y-59944000D02*
G75*
G02X147523200Y-60401200I0J-457200D01*
G01*
X147066000Y-105156000D02*
X149606000Y-105156000D01*
X146608800Y-104698800D02*
X146608800Y-103581200D01*
X150063200Y-104698800D02*
X150063200Y-103581200D01*
X149606000Y-103124000D02*
X147066000Y-103124000D01*
X146608800Y-103581200D02*
G75*
G02X147066000Y-103124000I457200J0D01*
G01*
X149606000Y-103124000D02*
G75*
G02X150063200Y-103581200I0J-457200D01*
G01*
X150063200Y-104698800D02*
G75*
G02X149606000Y-105156000I-457200J0D01*
G01*
X147066000Y-105156000D02*
G75*
G02X146608800Y-104698800I0J457200D01*
G01*
X154940000Y-60198000D02*
X152400000Y-60198000D01*
X155194000Y-60452000D02*
X155194000Y-61976000D01*
X152146000Y-60452000D02*
X152146000Y-61976000D01*
X152400000Y-62230000D02*
X154940000Y-62230000D01*
X155194000Y-61976000D02*
G75*
G02X154940000Y-62230000I-254000J0D01*
G01*
X152400000Y-62230000D02*
G75*
G02X152146000Y-61976000I0J254000D01*
G01*
X152146000Y-60452000D02*
G75*
G02X152400000Y-60198000I254000J0D01*
G01*
X154940000Y-60198000D02*
G75*
G02X155194000Y-60452000I0J-254000D01*
G01*
X144407467Y-68507429D02*
X144407467Y-68894477D01*
X144639695Y-68430020D02*
X143826895Y-68700953D01*
X144639695Y-68971886D01*
X144639695Y-69668572D02*
X144639695Y-69204115D01*
X144639695Y-69436344D02*
X143826895Y-69436344D01*
X143943010Y-69358934D01*
X144020419Y-69281525D01*
X144059124Y-69204115D01*
X145677467Y-68507429D02*
X145677467Y-68894477D01*
X145909695Y-68430020D02*
X145096895Y-68700953D01*
X145909695Y-68971886D01*
X145174305Y-69204115D02*
X145135600Y-69242820D01*
X145096895Y-69320229D01*
X145096895Y-69513753D01*
X145135600Y-69591163D01*
X145174305Y-69629867D01*
X145251714Y-69668572D01*
X145329124Y-69668572D01*
X145445238Y-69629867D01*
X145909695Y-69165410D01*
X145909695Y-69668572D01*
X143137467Y-68507429D02*
X143137467Y-68894477D01*
X143369695Y-68430020D02*
X142556895Y-68700953D01*
X143369695Y-68971886D01*
X142556895Y-69397639D02*
X142556895Y-69475048D01*
X142595600Y-69552458D01*
X142634305Y-69591163D01*
X142711714Y-69629867D01*
X142866533Y-69668572D01*
X143060057Y-69668572D01*
X143214876Y-69629867D01*
X143292286Y-69591163D01*
X143330990Y-69552458D01*
X143369695Y-69475048D01*
X143369695Y-69397639D01*
X143330990Y-69320229D01*
X143292286Y-69281525D01*
X143214876Y-69242820D01*
X143060057Y-69204115D01*
X142866533Y-69204115D01*
X142711714Y-69242820D01*
X142634305Y-69281525D01*
X142595600Y-69320229D01*
X142556895Y-69397639D01*
X147731238Y-63574990D02*
X147615124Y-63613695D01*
X147421600Y-63613695D01*
X147344190Y-63574990D01*
X147305486Y-63536286D01*
X147266781Y-63458876D01*
X147266781Y-63381467D01*
X147305486Y-63304057D01*
X147344190Y-63265352D01*
X147421600Y-63226648D01*
X147576419Y-63187943D01*
X147653828Y-63149238D01*
X147692533Y-63110533D01*
X147731238Y-63033124D01*
X147731238Y-62955714D01*
X147692533Y-62878305D01*
X147653828Y-62839600D01*
X147576419Y-62800895D01*
X147382895Y-62800895D01*
X147266781Y-62839600D01*
X146918438Y-63613695D02*
X146918438Y-62800895D01*
X146608800Y-62800895D01*
X146531391Y-62839600D01*
X146492686Y-62878305D01*
X146453981Y-62955714D01*
X146453981Y-63071829D01*
X146492686Y-63149238D01*
X146531391Y-63187943D01*
X146608800Y-63226648D01*
X146918438Y-63226648D01*
X146105638Y-63613695D02*
X146105638Y-62800895D01*
X145912114Y-63691105D02*
X145292838Y-63691105D01*
X144634857Y-63536286D02*
X144673562Y-63574990D01*
X144789676Y-63613695D01*
X144867086Y-63613695D01*
X144983200Y-63574990D01*
X145060609Y-63497581D01*
X145099314Y-63420171D01*
X145138019Y-63265352D01*
X145138019Y-63149238D01*
X145099314Y-62994419D01*
X145060609Y-62917010D01*
X144983200Y-62839600D01*
X144867086Y-62800895D01*
X144789676Y-62800895D01*
X144673562Y-62839600D01*
X144634857Y-62878305D01*
X144325219Y-63574990D02*
X144209105Y-63613695D01*
X144015581Y-63613695D01*
X143938171Y-63574990D01*
X143899467Y-63536286D01*
X143860762Y-63458876D01*
X143860762Y-63381467D01*
X143899467Y-63304057D01*
X143938171Y-63265352D01*
X144015581Y-63226648D01*
X144170400Y-63187943D01*
X144247809Y-63149238D01*
X144286514Y-63110533D01*
X144325219Y-63033124D01*
X144325219Y-62955714D01*
X144286514Y-62878305D01*
X144247809Y-62839600D01*
X144170400Y-62800895D01*
X143976876Y-62800895D01*
X143860762Y-62839600D01*
X151819428Y-102243467D02*
X151432380Y-102243467D01*
X151896837Y-102475695D02*
X151625904Y-101662895D01*
X151354971Y-102475695D01*
X151084037Y-102475695D02*
X151084037Y-101662895D01*
X150890513Y-101662895D01*
X150774399Y-101701600D01*
X150696990Y-101779010D01*
X150658285Y-101856419D01*
X150619580Y-102011238D01*
X150619580Y-102127352D01*
X150658285Y-102282171D01*
X150696990Y-102359581D01*
X150774399Y-102436990D01*
X150890513Y-102475695D01*
X151084037Y-102475695D01*
X149806780Y-102398286D02*
X149845485Y-102436990D01*
X149961599Y-102475695D01*
X150039009Y-102475695D01*
X150155123Y-102436990D01*
X150232532Y-102359581D01*
X150271237Y-102282171D01*
X150309942Y-102127352D01*
X150309942Y-102011238D01*
X150271237Y-101856419D01*
X150232532Y-101779010D01*
X150155123Y-101701600D01*
X150039009Y-101662895D01*
X149961599Y-101662895D01*
X149845485Y-101701600D01*
X149806780Y-101740305D01*
X149651961Y-102553105D02*
X149032685Y-102553105D01*
X148877866Y-102436990D02*
X148761752Y-102475695D01*
X148568228Y-102475695D01*
X148490818Y-102436990D01*
X148452114Y-102398286D01*
X148413409Y-102320876D01*
X148413409Y-102243467D01*
X148452114Y-102166057D01*
X148490818Y-102127352D01*
X148568228Y-102088648D01*
X148723047Y-102049943D01*
X148800456Y-102011238D01*
X148839161Y-101972533D01*
X148877866Y-101895124D01*
X148877866Y-101817714D01*
X148839161Y-101740305D01*
X148800456Y-101701600D01*
X148723047Y-101662895D01*
X148529523Y-101662895D01*
X148413409Y-101701600D01*
X148065066Y-102049943D02*
X147794133Y-102049943D01*
X147678019Y-102475695D02*
X148065066Y-102475695D01*
X148065066Y-101662895D01*
X147678019Y-101662895D01*
X146942629Y-102475695D02*
X147329676Y-102475695D01*
X147329676Y-101662895D01*
X146671695Y-102049943D02*
X146400762Y-102049943D01*
X146284648Y-102475695D02*
X146671695Y-102475695D01*
X146671695Y-101662895D01*
X146284648Y-101662895D01*
X145471848Y-102398286D02*
X145510553Y-102436990D01*
X145626667Y-102475695D01*
X145704077Y-102475695D01*
X145820191Y-102436990D01*
X145897600Y-102359581D01*
X145936305Y-102282171D01*
X145975010Y-102127352D01*
X145975010Y-102011238D01*
X145936305Y-101856419D01*
X145897600Y-101779010D01*
X145820191Y-101701600D01*
X145704077Y-101662895D01*
X145626667Y-101662895D01*
X145510553Y-101701600D01*
X145471848Y-101740305D01*
X145239619Y-101662895D02*
X144775162Y-101662895D01*
X145007391Y-102475695D02*
X145007391Y-101662895D01*
D13*
X154178000Y-62531171D02*
X154178000Y-62966600D01*
X154207028Y-63053686D01*
X154265085Y-63111743D01*
X154352171Y-63140771D01*
X154410228Y-63140771D01*
X153887714Y-63140771D02*
X153887714Y-62531171D01*
X153655486Y-62531171D01*
X153597428Y-62560200D01*
X153568400Y-62589229D01*
X153539371Y-62647286D01*
X153539371Y-62734371D01*
X153568400Y-62792429D01*
X153597428Y-62821457D01*
X153655486Y-62850486D01*
X153887714Y-62850486D01*
X153016857Y-62531171D02*
X153132971Y-62531171D01*
X153191028Y-62560200D01*
X153220057Y-62589229D01*
X153278114Y-62676314D01*
X153307143Y-62792429D01*
X153307143Y-63024657D01*
X153278114Y-63082714D01*
X153249086Y-63111743D01*
X153191028Y-63140771D01*
X153074914Y-63140771D01*
X153016857Y-63111743D01*
X152987828Y-63082714D01*
X152958800Y-63024657D01*
X152958800Y-62879514D01*
X152987828Y-62821457D01*
X153016857Y-62792429D01*
X153074914Y-62763400D01*
X153191028Y-62763400D01*
X153249086Y-62792429D01*
X153278114Y-62821457D01*
X153307143Y-62879514D01*
X154221543Y-59838771D02*
X154221543Y-59229171D01*
X153931257Y-59838771D02*
X153931257Y-59229171D01*
X153582914Y-59838771D01*
X153582914Y-59229171D01*
X153379714Y-59229171D02*
X153031371Y-59229171D01*
X153205542Y-59838771D02*
X153205542Y-59229171D01*
M02*
