G04 #@! TF.FileFunction,Soldermask,Bot*
%FSLAX46Y46*%
G04 Gerber Fmt 4.6, Leading zero omitted, Abs format (unit mm)*
G04 Created by KiCad (PCBNEW 4.0.7) date 04/09/18 16:23:24*
%MOMM*%
%LPD*%
G01*
G04 APERTURE LIST*
%ADD10C,0.100000*%
%ADD11C,2.082800*%
%ADD12R,1.473200X0.838200*%
%ADD13R,0.838200X1.473200*%
%ADD14R,1.701600X1.701600*%
%ADD15O,1.701600X1.701600*%
%ADD16C,2.133600*%
%ADD17C,3.378200*%
G04 APERTURE END LIST*
D10*
D11*
X113030000Y-92075000D03*
X113030000Y-89535000D03*
X115570000Y-92075000D03*
X115570000Y-89535000D03*
X118110000Y-92075000D03*
X118110000Y-89535000D03*
X120650000Y-92075000D03*
X120650000Y-89535000D03*
X123190000Y-92075000D03*
X123190000Y-89535000D03*
X113030000Y-81915000D03*
X113030000Y-79375000D03*
X115570000Y-81915000D03*
X115570000Y-79375000D03*
X118110000Y-81915000D03*
X118110000Y-79375000D03*
X120650000Y-81915000D03*
X120650000Y-79375000D03*
X123190000Y-81915000D03*
X123190000Y-79375000D03*
X134620000Y-81915000D03*
X134620000Y-79375000D03*
X137160000Y-81915000D03*
X137160000Y-79375000D03*
X139700000Y-81915000D03*
X139700000Y-79375000D03*
X142240000Y-81915000D03*
X142240000Y-79375000D03*
X144780000Y-81915000D03*
X144780000Y-79375000D03*
X134620000Y-92075000D03*
X134620000Y-89535000D03*
X137160000Y-92075000D03*
X137160000Y-89535000D03*
X139700000Y-92075000D03*
X139700000Y-89535000D03*
X142240000Y-92075000D03*
X142240000Y-89535000D03*
X144780000Y-92075000D03*
X144780000Y-89535000D03*
X127000000Y-161925000D03*
X127000000Y-164465000D03*
X124460000Y-161925000D03*
X124460000Y-164465000D03*
X121920000Y-161925000D03*
X121920000Y-164465000D03*
X119380000Y-161925000D03*
X119380000Y-164465000D03*
X116840000Y-161925000D03*
X116840000Y-164465000D03*
X127000000Y-151765000D03*
X127000000Y-154305000D03*
X124460000Y-151765000D03*
X124460000Y-154305000D03*
X121920000Y-151765000D03*
X121920000Y-154305000D03*
X119380000Y-151765000D03*
X119380000Y-154305000D03*
X116840000Y-151765000D03*
X116840000Y-154305000D03*
X149860000Y-161925000D03*
X149860000Y-164465000D03*
X147320000Y-161925000D03*
X147320000Y-164465000D03*
X144780000Y-161925000D03*
X144780000Y-164465000D03*
X142240000Y-161925000D03*
X142240000Y-164465000D03*
X139700000Y-161925000D03*
X139700000Y-164465000D03*
X149860000Y-151765000D03*
X149860000Y-154305000D03*
X147320000Y-151765000D03*
X147320000Y-154305000D03*
X144780000Y-151765000D03*
X144780000Y-154305000D03*
X142240000Y-151765000D03*
X142240000Y-154305000D03*
X139700000Y-151765000D03*
X139700000Y-154305000D03*
X149860000Y-127635000D03*
X147320000Y-127635000D03*
X149860000Y-125095000D03*
X147320000Y-125095000D03*
X149860000Y-122555000D03*
X147320000Y-122555000D03*
X149860000Y-120015000D03*
X147320000Y-120015000D03*
X149860000Y-117475000D03*
X147320000Y-117475000D03*
X149860000Y-114935000D03*
X147320000Y-114935000D03*
D12*
X128524000Y-121158000D03*
X128524000Y-120142000D03*
X125984000Y-121056400D03*
X125984000Y-120243600D03*
X123444000Y-121056400D03*
X123444000Y-120243600D03*
D13*
X138684000Y-100965000D03*
X139700000Y-100965000D03*
X140716000Y-100965000D03*
X141986000Y-142875000D03*
X140970000Y-142875000D03*
X139954000Y-142875000D03*
D14*
X133604000Y-118110000D03*
D15*
X113284000Y-125730000D03*
X131064000Y-118110000D03*
X115824000Y-125730000D03*
X128524000Y-118110000D03*
X118364000Y-125730000D03*
X125984000Y-118110000D03*
X120904000Y-125730000D03*
X123444000Y-118110000D03*
X123444000Y-125730000D03*
X120904000Y-118110000D03*
X125984000Y-125730000D03*
X118364000Y-118110000D03*
X128524000Y-125730000D03*
X115824000Y-118110000D03*
X131064000Y-125730000D03*
X113284000Y-118110000D03*
X133604000Y-125730000D03*
D16*
X125349000Y-145923000D03*
X127889000Y-145923000D03*
X140589000Y-145923000D03*
X143129000Y-145923000D03*
X145669000Y-145923000D03*
X148209000Y-145923000D03*
X150749000Y-145923000D03*
X153289000Y-145923000D03*
X113665000Y-97663000D03*
X153289000Y-97663000D03*
X150749000Y-97663000D03*
X148209000Y-97663000D03*
X145669000Y-97663000D03*
X143129000Y-97663000D03*
X140589000Y-97663000D03*
X138049000Y-97663000D03*
X135509000Y-97663000D03*
X131445000Y-97663000D03*
X128905000Y-97663000D03*
X126365000Y-97663000D03*
X123825000Y-97663000D03*
X121285000Y-97663000D03*
X118745000Y-97663000D03*
X130429000Y-145923000D03*
X132969000Y-145923000D03*
X116205000Y-97663000D03*
X155968700Y-123111260D03*
X120269000Y-145923000D03*
X153428700Y-118033800D03*
X155968700Y-120573800D03*
X117729000Y-145923000D03*
X122809000Y-145923000D03*
X153428700Y-123111260D03*
X153428700Y-120573800D03*
X108585000Y-97663000D03*
X111125000Y-97663000D03*
X155968700Y-118033800D03*
X135509000Y-145923000D03*
D17*
X105029000Y-97663000D03*
X155829000Y-112903000D03*
X155829000Y-140843000D03*
M02*
