G04 #@! TF.FileFunction,Copper,L2,Bot,Signal*
%FSLAX46Y46*%
G04 Gerber Fmt 4.6, Leading zero omitted, Abs format (unit mm)*
G04 Created by KiCad (PCBNEW 4.0.7-e2-6376~58~ubuntu16.04.1) date Mon Aug 13 19:04:16 2018*
%MOMM*%
%LPD*%
G01*
G04 APERTURE LIST*
%ADD10C,0.100000*%
%ADD11C,0.254000*%
%ADD12C,1.879600*%
%ADD13R,1.270000X0.635000*%
%ADD14R,0.635000X1.270000*%
%ADD15R,1.600000X2.400000*%
%ADD16O,1.600000X2.400000*%
%ADD17C,1.930400*%
%ADD18C,0.750000*%
%ADD19C,0.700000*%
%ADD20C,0.225000*%
%ADD21C,0.175000*%
G04 APERTURE END LIST*
D10*
D11*
X152400000Y-69596000D02*
X152400000Y-68580000D01*
X145796000Y-60960000D02*
X146812000Y-60960000D01*
X148336000Y-104140000D02*
X147320000Y-104140000D01*
D12*
X172720000Y-135763000D03*
X172720000Y-138303000D03*
X170180000Y-135763000D03*
X170180000Y-138303000D03*
X167640000Y-135763000D03*
X167640000Y-138303000D03*
X165100000Y-135763000D03*
X165100000Y-138303000D03*
X162560000Y-135763000D03*
X162560000Y-138303000D03*
X172720000Y-124714000D03*
X172720000Y-127254000D03*
X170180000Y-124714000D03*
X170180000Y-127254000D03*
X167640000Y-124714000D03*
X167640000Y-127254000D03*
X165100000Y-124714000D03*
X165100000Y-127254000D03*
X162560000Y-124714000D03*
X162560000Y-127254000D03*
X152080000Y-124730000D03*
X152080000Y-127270000D03*
X149540000Y-124730000D03*
X149540000Y-127270000D03*
X147000000Y-124730000D03*
X147000000Y-127270000D03*
X144460000Y-124730000D03*
X144460000Y-127270000D03*
X141920000Y-124730000D03*
X141920000Y-127270000D03*
X131580000Y-113730000D03*
X131580000Y-116270000D03*
X129040000Y-113730000D03*
X129040000Y-116270000D03*
X126500000Y-113730000D03*
X126500000Y-116270000D03*
X123960000Y-113730000D03*
X123960000Y-116270000D03*
X121420000Y-113730000D03*
X121420000Y-116270000D03*
D13*
X149860000Y-69494400D03*
X149860000Y-68681600D03*
D12*
X131580000Y-124730000D03*
X131580000Y-127270000D03*
X129040000Y-124730000D03*
X129040000Y-127270000D03*
X126500000Y-124730000D03*
X126500000Y-127270000D03*
X123960000Y-124730000D03*
X123960000Y-127270000D03*
X121420000Y-124730000D03*
X121420000Y-127270000D03*
X152080000Y-113730000D03*
X152080000Y-116270000D03*
X149540000Y-113730000D03*
X149540000Y-116270000D03*
X147000000Y-113730000D03*
X147000000Y-116270000D03*
X144460000Y-113730000D03*
X144460000Y-116270000D03*
X141920000Y-113730000D03*
X141920000Y-116270000D03*
D13*
X152400000Y-69596000D03*
X152400000Y-68580000D03*
X147320000Y-69494400D03*
X147320000Y-68681600D03*
D14*
X144780000Y-60960000D03*
X145796000Y-60960000D03*
X146812000Y-60960000D03*
X149352000Y-104140000D03*
X148336000Y-104140000D03*
X147320000Y-104140000D03*
D12*
X131580000Y-135730000D03*
X131580000Y-138270000D03*
X129040000Y-135730000D03*
X129040000Y-138270000D03*
X126500000Y-135730000D03*
X126500000Y-138270000D03*
X123960000Y-135730000D03*
X123960000Y-138270000D03*
X121420000Y-135730000D03*
X121420000Y-138270000D03*
X152080000Y-135730000D03*
X152080000Y-138270000D03*
X149540000Y-135730000D03*
X149540000Y-138270000D03*
X147000000Y-135730000D03*
X147000000Y-138270000D03*
X144460000Y-135730000D03*
X144460000Y-138270000D03*
X141920000Y-135730000D03*
X141920000Y-138270000D03*
D15*
X157500000Y-65000000D03*
D16*
X137180000Y-72620000D03*
X154960000Y-65000000D03*
X139720000Y-72620000D03*
X152420000Y-65000000D03*
X142260000Y-72620000D03*
X149880000Y-65000000D03*
X144800000Y-72620000D03*
X147340000Y-65000000D03*
X147340000Y-72620000D03*
X144800000Y-65000000D03*
X149880000Y-72620000D03*
X142260000Y-65000000D03*
X152420000Y-72620000D03*
X139720000Y-65000000D03*
X154960000Y-72620000D03*
X137180000Y-65000000D03*
X157500000Y-72620000D03*
D17*
X131849000Y-106673000D03*
X134389000Y-106673000D03*
X147089000Y-106673000D03*
X149629000Y-106673000D03*
X152169000Y-106673000D03*
X154709000Y-106673000D03*
X157249000Y-106673000D03*
X159789000Y-106673000D03*
X120165000Y-58413000D03*
X159789000Y-58413000D03*
X157249000Y-58413000D03*
X154709000Y-58413000D03*
X152169000Y-58413000D03*
X149629000Y-58413000D03*
X147089000Y-58413000D03*
X144549000Y-58413000D03*
X142009000Y-58413000D03*
X137945000Y-58413000D03*
X135405000Y-58413000D03*
X132865000Y-58413000D03*
X130325000Y-58413000D03*
X127785000Y-58413000D03*
X125245000Y-58413000D03*
X136929000Y-106673000D03*
X139469000Y-106673000D03*
X122705000Y-58413000D03*
X162468700Y-83861260D03*
X126769000Y-106673000D03*
X159928700Y-78783800D03*
X162468700Y-81323800D03*
X124229000Y-106673000D03*
X129309000Y-106673000D03*
X159928700Y-83861260D03*
X159928700Y-81323800D03*
X115085000Y-58413000D03*
X117625000Y-58413000D03*
X162468700Y-78783800D03*
X142009000Y-106673000D03*
D14*
X152857200Y-61214000D03*
X153670000Y-61214000D03*
X154482800Y-61214000D03*
D18*
X125730000Y-98552000D03*
X132588000Y-81026000D03*
X126238000Y-96012000D03*
X147320000Y-75184000D03*
X127508000Y-81534000D03*
X135890000Y-139192000D03*
X155702000Y-135890000D03*
X159512000Y-61976000D03*
X138002554Y-118618000D03*
X159004000Y-95016000D03*
X119126000Y-126746000D03*
X139238504Y-77216000D03*
X136373500Y-80010000D03*
X157734000Y-86360000D03*
D19*
X117094000Y-138430000D03*
D18*
X146558000Y-120650000D03*
X137414000Y-134366000D03*
X137906543Y-122682000D03*
X135507367Y-94088191D03*
X138176000Y-96012000D03*
X156210000Y-94996000D03*
X148336000Y-112522000D03*
X143485017Y-81154493D03*
X154672000Y-81026000D03*
X145542000Y-94742000D03*
X105410000Y-58166000D03*
X118618000Y-60198000D03*
D19*
X119380000Y-88392000D03*
X119452800Y-82664600D03*
X141116631Y-88292012D03*
X146757205Y-88748459D03*
X135636000Y-93077013D03*
X142562574Y-97282000D03*
X139815129Y-79513871D03*
X139192000Y-75184000D03*
X137160000Y-77978008D03*
X132080002Y-98806000D03*
X140970000Y-74422000D03*
X137160000Y-81280000D03*
X134865810Y-86360000D03*
X133096000Y-71628000D03*
X130556000Y-81534000D03*
X140704130Y-80402872D03*
X162841800Y-76932300D03*
X157498800Y-97627700D03*
X141986004Y-75438000D03*
X120142000Y-89408000D03*
X119433600Y-78677500D03*
X135890000Y-92202000D03*
X133096000Y-90931994D03*
X130810000Y-79248000D03*
X152400000Y-84074000D03*
X158242000Y-89662000D03*
X150876000Y-61976010D03*
X129286000Y-57196000D03*
X108204000Y-63500000D03*
X122174000Y-108458000D03*
X132037468Y-132338907D03*
X125476000Y-94234000D03*
X121066645Y-121398845D03*
X123698010Y-79248000D03*
X134112000Y-108607490D03*
X127693893Y-88160708D03*
X135636000Y-129032000D03*
X137939116Y-88977809D03*
X139674199Y-111734199D03*
X151003000Y-84749000D03*
D18*
X157480000Y-75184000D03*
X156210000Y-62484000D03*
X136144000Y-99568000D03*
X135636000Y-88695490D03*
X162319990Y-96202500D03*
X108458000Y-66294000D03*
X160782000Y-87884000D03*
D19*
X134724514Y-119126000D03*
X134874000Y-110490000D03*
X126238000Y-94995992D03*
X121210110Y-107748110D03*
X123892281Y-94951499D03*
X133604000Y-138684000D03*
X135636000Y-109474000D03*
X135128000Y-120396000D03*
X127052110Y-94286110D03*
X125730000Y-109728010D03*
X123964866Y-94079503D03*
X129644510Y-133858000D03*
X128120510Y-95096093D03*
X122428000Y-105665104D03*
X129465103Y-119962897D03*
X128270000Y-110490000D03*
X122667270Y-95021248D03*
X127762000Y-104393994D03*
X124714000Y-119888000D03*
X128778000Y-94234000D03*
X122382395Y-122219605D03*
X127000000Y-129794000D03*
X122936000Y-123190000D03*
X124206000Y-130556000D03*
X122427998Y-130556000D03*
X125269874Y-78581748D03*
X122936000Y-78486000D03*
X125730000Y-79458990D03*
X121919988Y-78994000D03*
X127328796Y-78814804D03*
X121158000Y-78232000D03*
X128524000Y-79248000D03*
X120811407Y-109420578D03*
X138540148Y-107932811D03*
X138325500Y-98044000D03*
X135458562Y-127757703D03*
X133095998Y-108257479D03*
X128524000Y-87629996D03*
X140208000Y-137668000D03*
X141371142Y-109578510D03*
X137668004Y-93218000D03*
X129794000Y-105156000D03*
X138092915Y-132224941D03*
X129540000Y-88392000D03*
X139446000Y-136905982D03*
X139192000Y-109473992D03*
X137160000Y-94234000D03*
X131064000Y-104648006D03*
X138176000Y-133096000D03*
X130556000Y-87884000D03*
X135128000Y-104140002D03*
X133350000Y-94234008D03*
X148463000Y-81851000D03*
X136906000Y-83693000D03*
X137203077Y-88504636D03*
X140960700Y-118037212D03*
X140235060Y-110710142D03*
X149352000Y-84749000D03*
X137160000Y-84836000D03*
X149606000Y-82296000D03*
X138430001Y-90424001D03*
X141090118Y-118902600D03*
X141903046Y-103030712D03*
X148209000Y-84749000D03*
X138176000Y-85598000D03*
X151101551Y-82531034D03*
X136350718Y-87584270D03*
X140377405Y-119410228D03*
X141074510Y-103312091D03*
X147066000Y-84749000D03*
X138684010Y-86614000D03*
X151892000Y-83058000D03*
X150878662Y-110532534D03*
X149166109Y-97005297D03*
X149165524Y-110182521D03*
X147574000Y-98298000D03*
X150003649Y-110532532D03*
X148081992Y-97282000D03*
X148082000Y-109832510D03*
X144237597Y-96012004D03*
X151384000Y-97422987D03*
X151384000Y-98298000D03*
X142937585Y-95744921D03*
X144732867Y-111287975D03*
X153670000Y-95758000D03*
X162496500Y-92392500D03*
X151638000Y-95758000D03*
X162115500Y-91313000D03*
X150114000Y-96012000D03*
X175514000Y-113030000D03*
X148336000Y-95758000D03*
X176530000Y-114046000D03*
X172212000Y-118364000D03*
X170688000Y-120650000D03*
X170180000Y-118618000D03*
X171450000Y-117602000D03*
X159004447Y-104062055D03*
X168910000Y-118618000D03*
X171196000Y-116586000D03*
X163322000Y-110998000D03*
X168012761Y-117499502D03*
X163068000Y-109728000D03*
X169978110Y-116279890D03*
X133604000Y-76454000D03*
X138175994Y-75438000D03*
X117956000Y-87804700D03*
X126492000Y-57150000D03*
X120142000Y-65532000D03*
X115062000Y-63500000D03*
X136665000Y-62176521D03*
X121158000Y-61214000D03*
X123444010Y-66548000D03*
X159472163Y-74949918D03*
X141224000Y-59839490D03*
X119888000Y-61214000D03*
X153670000Y-60198000D03*
X133350000Y-63500000D03*
X154178000Y-68580000D03*
X133350008Y-68747010D03*
X141224000Y-67310000D03*
D20*
X126238000Y-98044000D02*
X125730000Y-98552000D01*
X126238000Y-96012000D02*
X126238000Y-98044000D01*
X127508000Y-81534000D02*
X131318000Y-77724000D01*
X131318000Y-77724000D02*
X133350000Y-77724000D01*
X133350000Y-77724000D02*
X134620000Y-76454000D01*
X134620000Y-76454000D02*
X134620000Y-76415498D01*
X134620000Y-76415498D02*
X130848502Y-72644000D01*
X130848502Y-72644000D02*
X129286000Y-72644000D01*
X162560000Y-124714000D02*
X162560000Y-122282594D01*
X162560000Y-122282594D02*
X152424407Y-112147001D01*
X152424407Y-112147001D02*
X148710999Y-112147001D01*
X148710999Y-112147001D02*
X148336000Y-112522000D01*
X137627555Y-118243001D02*
X138002554Y-118618000D01*
X137627543Y-118242989D02*
X137627555Y-118243001D01*
X139469000Y-106673000D02*
X138104002Y-106673000D01*
X138104002Y-106673000D02*
X137627543Y-107149459D01*
X137627543Y-107149459D02*
X137627543Y-118242989D01*
X157734000Y-86360000D02*
X159004000Y-87630000D01*
X159004000Y-87630000D02*
X159004000Y-89279590D01*
X159004000Y-89279590D02*
X159004000Y-95016000D01*
X135507367Y-94088191D02*
X134890509Y-93471333D01*
X134890509Y-93471333D02*
X134890509Y-92146989D01*
X141936502Y-91136502D02*
X145167001Y-94367001D01*
X134890509Y-92146989D02*
X136373501Y-90663997D01*
X138048910Y-91136502D02*
X141936502Y-91136502D01*
X136373501Y-90663997D02*
X137576405Y-90663997D01*
X137576405Y-90663997D02*
X138048910Y-91136502D01*
X145167001Y-94367001D02*
X145542000Y-94742000D01*
X117094000Y-116726923D02*
X117094000Y-128778000D01*
X117094000Y-128778000D02*
X117094000Y-138430000D01*
X119126000Y-126746000D02*
X118751001Y-127120999D01*
X118751001Y-127120999D02*
X117094000Y-128778000D01*
X136373500Y-77240500D02*
X136398000Y-77216000D01*
X136398000Y-77216000D02*
X139238504Y-77216000D01*
X136373500Y-80010000D02*
X136373500Y-77240500D01*
X121420000Y-113730000D02*
X120090923Y-113730000D01*
X120090923Y-113730000D02*
X117094000Y-116726923D01*
X137906543Y-122682000D02*
X144526000Y-122682000D01*
X144526000Y-122682000D02*
X146558000Y-120650000D01*
X137414000Y-134366000D02*
X140556000Y-134366000D01*
X140556000Y-134366000D02*
X141920000Y-135730000D01*
X138281542Y-123056999D02*
X137906543Y-122682000D01*
X139954543Y-124730000D02*
X138281542Y-123056999D01*
X141920000Y-124730000D02*
X139954543Y-124730000D01*
X137431176Y-96012000D02*
X135882366Y-94463190D01*
X138176000Y-96012000D02*
X137431176Y-96012000D01*
X135882366Y-94463190D02*
X135507367Y-94088191D01*
X155835001Y-94621001D02*
X156210000Y-94996000D01*
X145916999Y-94367001D02*
X155581001Y-94367001D01*
X155581001Y-94367001D02*
X155835001Y-94621001D01*
X145542000Y-94742000D02*
X145916999Y-94367001D01*
X154672000Y-81026000D02*
X143613510Y-81026000D01*
X143613510Y-81026000D02*
X143485017Y-81154493D01*
X105410000Y-58166000D02*
X105784999Y-58540999D01*
X108458000Y-60452000D02*
X118364000Y-60452000D01*
X118364000Y-60452000D02*
X118618000Y-60198000D01*
X106546999Y-58540999D02*
X108458000Y-60452000D01*
X105784999Y-58540999D02*
X106546999Y-58540999D01*
D21*
X119452800Y-88319200D02*
X119380000Y-88392000D01*
X119452800Y-82664600D02*
X119452800Y-88319200D01*
X141573078Y-88748459D02*
X141491630Y-88667011D01*
X146757205Y-88748459D02*
X141573078Y-88748459D01*
X141491630Y-88667011D02*
X141116631Y-88292012D01*
X142562574Y-97282000D02*
X142562574Y-96787026D01*
X138127047Y-92351499D02*
X136743475Y-92351499D01*
X136743475Y-92351499D02*
X136130974Y-92964000D01*
X142562574Y-96787026D02*
X138127047Y-92351499D01*
X136130974Y-92964000D02*
X135636000Y-92964000D01*
X135636000Y-92964000D02*
X135636000Y-93077013D01*
X140190128Y-79138872D02*
X139815129Y-79513871D01*
X143260000Y-76069000D02*
X140190128Y-79138872D01*
X143260000Y-74020000D02*
X143260000Y-76069000D01*
X142260000Y-72620000D02*
X142260000Y-73020000D01*
X142260000Y-73020000D02*
X143260000Y-74020000D01*
X139954000Y-74422000D02*
X139541999Y-74834001D01*
X139541999Y-74834001D02*
X139192000Y-75184000D01*
X140970000Y-74422000D02*
X139954000Y-74422000D01*
X134865810Y-86360000D02*
X133965488Y-87260322D01*
X133965488Y-87260322D02*
X133965488Y-92348512D01*
X133965488Y-92348512D02*
X132080000Y-94234000D01*
X132080002Y-98311026D02*
X132080002Y-98806000D01*
X132080000Y-94234000D02*
X132080000Y-97790000D01*
X132080000Y-97790000D02*
X132080002Y-97790002D01*
X132080002Y-97790002D02*
X132080002Y-98311026D01*
X137160000Y-81280000D02*
X137160000Y-77978008D01*
X130556000Y-81534000D02*
X135128000Y-76962000D01*
X135128000Y-76962000D02*
X135128000Y-73660000D01*
X135128000Y-73660000D02*
X133096000Y-71628000D01*
X152420000Y-72620000D02*
X152420000Y-73020000D01*
X152420000Y-73020000D02*
X145684000Y-79756000D01*
X145684000Y-79756000D02*
X141351002Y-79756000D01*
X141351002Y-79756000D02*
X141079129Y-80027873D01*
X141079129Y-80027873D02*
X140704130Y-80402872D01*
X162841800Y-76932300D02*
X164274500Y-78365000D01*
X164274500Y-78365000D02*
X164274500Y-84075958D01*
X164274500Y-84075958D02*
X161798000Y-86552458D01*
X161798000Y-86552458D02*
X161798000Y-88646000D01*
X161798000Y-88646000D02*
X161290000Y-89154000D01*
X161290000Y-89154000D02*
X161290000Y-93599000D01*
X161290000Y-93599000D02*
X163258500Y-95567500D01*
X163258500Y-95567500D02*
X163258500Y-96647000D01*
X163258500Y-96647000D02*
X162277800Y-97627700D01*
X162277800Y-97627700D02*
X158029130Y-97627700D01*
X158029130Y-97627700D02*
X157498800Y-97627700D01*
X141373503Y-76050501D02*
X141636005Y-75787999D01*
X137881997Y-76050501D02*
X141373503Y-76050501D01*
X137180000Y-75348504D02*
X137881997Y-76050501D01*
X137180000Y-72620000D02*
X137180000Y-75348504D01*
X141636005Y-75787999D02*
X141986004Y-75438000D01*
X119611670Y-89408000D02*
X120142000Y-89408000D01*
X117248600Y-88127300D02*
X118529300Y-89408000D01*
X118529300Y-89408000D02*
X119611670Y-89408000D01*
X117248600Y-80862500D02*
X117248600Y-88127300D01*
X119433600Y-78677500D02*
X117248600Y-80862500D01*
X146374996Y-96629498D02*
X141597499Y-91852001D01*
X136239999Y-91852001D02*
X135890000Y-92202000D01*
X146558000Y-96629498D02*
X146374996Y-96629498D01*
X141597499Y-91852001D02*
X136239999Y-91852001D01*
X133096000Y-90183028D02*
X133096000Y-90437020D01*
X133350002Y-89929026D02*
X133096000Y-90183028D01*
X133096000Y-90437020D02*
X133096000Y-90931994D01*
X133350002Y-86106002D02*
X133350002Y-89929026D01*
X129943499Y-82699499D02*
X133350002Y-86106002D01*
X130810000Y-79248000D02*
X129943499Y-80114501D01*
X133350002Y-89916002D02*
X133350002Y-89929026D01*
X129943499Y-80114501D02*
X129943499Y-82699499D01*
X148336000Y-104140000D02*
X148336000Y-99966502D01*
X148336000Y-99966502D02*
X146558000Y-98188502D01*
X146558000Y-96629498D02*
X148041999Y-95145499D01*
X146558000Y-98188502D02*
X146558000Y-96629498D01*
X148041999Y-95145499D02*
X155089499Y-95145499D01*
X155089499Y-95145499D02*
X156210000Y-96266000D01*
X156210000Y-96266000D02*
X157226000Y-96266000D01*
X157226000Y-96266000D02*
X157988000Y-95504000D01*
X157988000Y-95504000D02*
X157988000Y-89916000D01*
X157988000Y-89916000D02*
X158242000Y-89662000D01*
X153162000Y-84074000D02*
X152400000Y-84074000D01*
X157867001Y-88779001D02*
X153162000Y-84074000D01*
X158242000Y-89662000D02*
X157867001Y-89287001D01*
X157867001Y-89287001D02*
X157867001Y-88779001D01*
X129286000Y-57196000D02*
X129780974Y-57196000D01*
X129780974Y-57196000D02*
X130080974Y-56896000D01*
X130080974Y-56896000D02*
X150622000Y-56896000D01*
X150622000Y-56896000D02*
X150876000Y-57150000D01*
X150876000Y-57150000D02*
X150876000Y-61481036D01*
X150876000Y-61481036D02*
X150876000Y-61976010D01*
X149860000Y-65020000D02*
X149880000Y-65000000D01*
X149860000Y-68681600D02*
X149860000Y-65020000D01*
X147340000Y-65000000D02*
X147340000Y-65400000D01*
X147340000Y-65400000D02*
X146192000Y-66548000D01*
X146192000Y-66548000D02*
X140208000Y-66548000D01*
X140208000Y-66548000D02*
X138938000Y-67818000D01*
X138938000Y-67818000D02*
X111506000Y-67818000D01*
X111506000Y-67818000D02*
X108204000Y-64516000D01*
X108204000Y-64516000D02*
X108204000Y-63500000D01*
X147320000Y-65020000D02*
X147340000Y-65000000D01*
X147320000Y-65020000D02*
X147340000Y-65000000D01*
X147320000Y-68681600D02*
X147320000Y-66420000D01*
X147320000Y-66420000D02*
X147320000Y-65020000D01*
X147340000Y-66400000D02*
X147320000Y-66420000D01*
X147340000Y-65000000D02*
X147340000Y-66400000D01*
X125476000Y-94234000D02*
X120904000Y-98806000D01*
X120904000Y-98806000D02*
X120904000Y-106488002D01*
X120904000Y-106488002D02*
X122523999Y-108108001D01*
X122523999Y-108108001D02*
X122174000Y-108458000D01*
X131580000Y-132796375D02*
X131687469Y-132688906D01*
X131687469Y-132688906D02*
X132037468Y-132338907D01*
X131580000Y-135730000D02*
X131580000Y-132796375D01*
X121561619Y-121398845D02*
X121066645Y-121398845D01*
X131580000Y-124730000D02*
X128248845Y-121398845D01*
X128248845Y-121398845D02*
X121561619Y-121398845D01*
X118103913Y-109090734D02*
X118103914Y-93836172D01*
X122805540Y-111740170D02*
X122468038Y-111402668D01*
X120415846Y-111402667D02*
X118103913Y-109090734D01*
X118103914Y-93836172D02*
X122174000Y-89766085D01*
X130027690Y-112177690D02*
X125177074Y-112177690D01*
X124739554Y-111740170D02*
X122805540Y-111740170D01*
X125177074Y-112177690D02*
X124739554Y-111740170D01*
X122174000Y-89766085D02*
X122174000Y-80772010D01*
X123348011Y-79597999D02*
X123698010Y-79248000D01*
X122174000Y-80772010D02*
X123348011Y-79597999D01*
X131580000Y-113730000D02*
X130027690Y-112177690D01*
X122468038Y-111402668D02*
X120415846Y-111402667D01*
X127693893Y-88160708D02*
X129540000Y-90006815D01*
X129540000Y-90006815D02*
X129540000Y-103776502D01*
X129540000Y-103776502D02*
X128160502Y-105156000D01*
X128160502Y-105156000D02*
X126469002Y-105156000D01*
X126469002Y-105156000D02*
X125476000Y-106149002D01*
X125476000Y-106149002D02*
X125476000Y-107188000D01*
X125476000Y-107188000D02*
X127157989Y-108869989D01*
X127157989Y-108869989D02*
X133354527Y-108869989D01*
X133354527Y-108869989D02*
X133617026Y-108607490D01*
X133617026Y-108607490D02*
X134112000Y-108607490D01*
X140527341Y-140247321D02*
X139761978Y-139481958D01*
X151882085Y-140247321D02*
X140527341Y-140247321D01*
X152080000Y-135730000D02*
X153670000Y-137320000D01*
X139761978Y-139481958D02*
X139761978Y-138874389D01*
X135636000Y-129526974D02*
X135636000Y-129032000D01*
X135636000Y-134748411D02*
X135636000Y-129526974D01*
X139761978Y-138874389D02*
X135636000Y-134748411D01*
X153670000Y-138459406D02*
X151882085Y-140247321D01*
X153670000Y-137320000D02*
X153670000Y-138459406D01*
X139541999Y-90519999D02*
X138176000Y-89154000D01*
X151003000Y-84749000D02*
X151003000Y-88265000D01*
X148748001Y-90519999D02*
X139541999Y-90519999D01*
X151003000Y-88265000D02*
X148748001Y-90519999D01*
X138176000Y-89154000D02*
X137999809Y-88977809D01*
X137999809Y-88977809D02*
X137939116Y-88977809D01*
X152080000Y-124730000D02*
X145662301Y-118312301D01*
X145662301Y-115692895D02*
X144901707Y-114932301D01*
X143257699Y-113044731D02*
X141947167Y-111734199D01*
X143257699Y-114307105D02*
X143257699Y-113044731D01*
X144901707Y-114932301D02*
X143882895Y-114932301D01*
X143882895Y-114932301D02*
X143257699Y-114307105D01*
X145662301Y-118312301D02*
X145662301Y-115692895D01*
X141947167Y-111734199D02*
X140169173Y-111734199D01*
X140169173Y-111734199D02*
X139674199Y-111734199D01*
D20*
X136652000Y-130302000D02*
X137795000Y-131445000D01*
X137795000Y-131445000D02*
X157099000Y-131445000D01*
X157099000Y-131445000D02*
X157226000Y-131318000D01*
X157226000Y-131318000D02*
X157988000Y-130556000D01*
X136144000Y-104918000D02*
X136144000Y-100098330D01*
X134389000Y-106673000D02*
X136144000Y-104918000D01*
X136144000Y-100098330D02*
X136144000Y-99568000D01*
X157500000Y-75204000D02*
X157480000Y-75184000D01*
X157500000Y-75204000D02*
X157500000Y-80030000D01*
X157500000Y-80030000D02*
X158242000Y-80772000D01*
X158242000Y-80772000D02*
X158242000Y-84582000D01*
X158242000Y-84582000D02*
X160782000Y-87122000D01*
X160782000Y-87122000D02*
X160782000Y-87884000D01*
X156210000Y-63014330D02*
X156210000Y-62484000D01*
X156210000Y-69362000D02*
X156210000Y-63014330D01*
X155976000Y-69596000D02*
X156210000Y-69362000D01*
X162560000Y-138303000D02*
X162166200Y-138303000D01*
X162166200Y-138303000D02*
X157988000Y-134124800D01*
X157988000Y-134124800D02*
X157988000Y-130556000D01*
X157988000Y-130556000D02*
X160020000Y-128524000D01*
X160020000Y-128524000D02*
X161290000Y-128524000D01*
X161290000Y-128524000D02*
X162560000Y-127254000D01*
X136652000Y-135128000D02*
X136652000Y-130302000D01*
X141920000Y-138270000D02*
X141920000Y-137817496D01*
X139738504Y-135636000D02*
X137160000Y-135636000D01*
X141920000Y-137817496D02*
X139738504Y-135636000D01*
X137160000Y-135636000D02*
X136652000Y-135128000D01*
X120480201Y-126322201D02*
X118110000Y-123952000D01*
X121420000Y-127270000D02*
X120480201Y-126330201D01*
X120480201Y-126330201D02*
X120480201Y-126322201D01*
X118110000Y-123952000D02*
X118110000Y-117602000D01*
X118110000Y-117602000D02*
X119442000Y-116270000D01*
X119442000Y-116270000D02*
X121420000Y-116270000D01*
X135769001Y-99193001D02*
X136144000Y-99568000D01*
X133604000Y-95504000D02*
X133604000Y-97028000D01*
X134415499Y-94692501D02*
X133604000Y-95504000D01*
X135636000Y-88695490D02*
X134415499Y-89915991D01*
X134415499Y-89915991D02*
X134415499Y-94692501D01*
X133604000Y-97028000D02*
X135769001Y-99193001D01*
X133877500Y-70084700D02*
X135636000Y-71843200D01*
X135636000Y-88165160D02*
X135636000Y-88695490D01*
X135636000Y-71843200D02*
X135636000Y-88165160D01*
X137111488Y-109395488D02*
X137111488Y-115199312D01*
X134389000Y-106673000D02*
X137111488Y-109395488D01*
X137111488Y-115199312D02*
X136652000Y-115658800D01*
X122359799Y-117209799D02*
X121420000Y-116270000D01*
X136652000Y-115805000D02*
X133546981Y-118910019D01*
X133546981Y-118910019D02*
X124060019Y-118910019D01*
X124060019Y-118910019D02*
X122359799Y-117209799D01*
X136652000Y-130302000D02*
X136652000Y-129032000D01*
X136652000Y-129032000D02*
X136652000Y-127508000D01*
X137160000Y-129032000D02*
X136652000Y-129032000D01*
X141920000Y-127270000D02*
X138922000Y-127270000D01*
X138922000Y-127270000D02*
X137160000Y-129032000D01*
X136652000Y-115805000D02*
X136652000Y-119380000D01*
X137668000Y-120396000D02*
X136652000Y-119380000D01*
X136652000Y-119380000D02*
X136652000Y-127508000D01*
X138176000Y-120396000D02*
X137668000Y-120396000D01*
X140669015Y-120396000D02*
X138176000Y-120396000D01*
X141920000Y-116270000D02*
X141920000Y-119145015D01*
X141920000Y-119145015D02*
X140669015Y-120396000D01*
X136652000Y-117348000D02*
X136652000Y-115658800D01*
X118110000Y-136906000D02*
X118110000Y-130580000D01*
X118110000Y-130580000D02*
X121420000Y-127270000D01*
X119474000Y-138270000D02*
X118110000Y-136906000D01*
X121420000Y-138270000D02*
X119474000Y-138270000D01*
X136652000Y-127508000D02*
X136652000Y-128016000D01*
X161844991Y-95727501D02*
X162319990Y-96202500D01*
X160307001Y-94189511D02*
X161844991Y-95727501D01*
X160307001Y-88358999D02*
X160307001Y-94189511D01*
X160782000Y-87884000D02*
X160307001Y-88358999D01*
X133125696Y-70084700D02*
X131620996Y-68580000D01*
X108932999Y-66768999D02*
X108458000Y-66294000D01*
X110744000Y-68580000D02*
X108932999Y-66768999D01*
X131620996Y-68580000D02*
X110744000Y-68580000D01*
X133877500Y-70084700D02*
X133125696Y-70084700D01*
X149860000Y-69494400D02*
X147320000Y-69494400D01*
X149962000Y-69596000D02*
X149860000Y-69494400D01*
X152400000Y-69596000D02*
X149962000Y-69596000D01*
X157500000Y-75204000D02*
X157500000Y-75184000D01*
X157500000Y-75204000D02*
X157500000Y-75184000D01*
X157500000Y-75184000D02*
X157500000Y-72620000D01*
X157500000Y-71120000D02*
X155976000Y-69596000D01*
X157500000Y-72620000D02*
X157500000Y-71120000D01*
X155976000Y-69596000D02*
X152400000Y-69596000D01*
X134468000Y-69494400D02*
X133877500Y-70084700D01*
X147320000Y-69494400D02*
X134468000Y-69494400D01*
X136652000Y-115658800D02*
X136652000Y-115805000D01*
D21*
X147320000Y-106442000D02*
X147089000Y-106673000D01*
X147320000Y-104140000D02*
X147320000Y-106442000D01*
X149352000Y-106396000D02*
X149629000Y-106673000D01*
X149352000Y-104140000D02*
X149352000Y-106396000D01*
X146812000Y-58690000D02*
X147089000Y-58413000D01*
X146812000Y-60960000D02*
X146812000Y-58690000D01*
X147216000Y-58540000D02*
X147089000Y-58413000D01*
X144780000Y-58644000D02*
X144549000Y-58413000D01*
X144780000Y-60960000D02*
X144780000Y-58644000D01*
X133954011Y-109570011D02*
X134524001Y-110140001D01*
X121315990Y-106062980D02*
X124157032Y-108904022D01*
X126868031Y-109570011D02*
X133954011Y-109570011D01*
X126202042Y-108904022D02*
X126868031Y-109570011D01*
X126238000Y-94995992D02*
X121315989Y-99918003D01*
X124157032Y-108904022D02*
X126202042Y-108904022D01*
X134524001Y-110140001D02*
X134874000Y-110490000D01*
X121315989Y-99918003D02*
X121315990Y-106062980D01*
X134470501Y-139341499D02*
X134470501Y-127149499D01*
X134470501Y-127149499D02*
X135740501Y-125879499D01*
X131580000Y-138270000D02*
X133518000Y-140208000D01*
X133518000Y-140208000D02*
X133604000Y-140208000D01*
X133604000Y-140208000D02*
X134470501Y-139341499D01*
X135740501Y-125879499D02*
X135740501Y-120141987D01*
X135740501Y-120141987D02*
X135074513Y-119475999D01*
X135074513Y-119475999D02*
X134724514Y-119126000D01*
X120860111Y-107398111D02*
X121210110Y-107748110D01*
X123892281Y-95322729D02*
X120553989Y-98661021D01*
X123892281Y-94951499D02*
X123892281Y-95322729D01*
X120553989Y-107091989D02*
X120860111Y-107398111D01*
X120553989Y-98661021D02*
X120553989Y-107091989D01*
X124302011Y-108554011D02*
X126347021Y-108554011D01*
X121776575Y-104902000D02*
X121666000Y-105012575D01*
X134887026Y-109220000D02*
X135141026Y-109474000D01*
X124714000Y-104902000D02*
X121776575Y-104902000D01*
X121666000Y-105918000D02*
X124302011Y-108554011D01*
X127013010Y-109220000D02*
X134887026Y-109220000D01*
X127052110Y-94286110D02*
X127508000Y-94742000D01*
X127508000Y-94742000D02*
X127508000Y-102108000D01*
X127508000Y-102108000D02*
X124714000Y-104902000D01*
X121666000Y-105012575D02*
X121666000Y-105918000D01*
X126347021Y-108554011D02*
X127013010Y-109220000D01*
X135141026Y-109474000D02*
X135636000Y-109474000D01*
X133604000Y-121920000D02*
X133604000Y-138189026D01*
X133604000Y-138189026D02*
X133604000Y-138684000D01*
X135128000Y-120396000D02*
X133604000Y-121920000D01*
X125380001Y-109378011D02*
X125730000Y-109728010D01*
X125379983Y-109377993D02*
X125380001Y-109378011D01*
X120203980Y-98516040D02*
X120203980Y-107648482D01*
X122187489Y-109377993D02*
X125379983Y-109377993D01*
X123469892Y-94079503D02*
X123279780Y-94269615D01*
X121170107Y-108360611D02*
X122187489Y-109377993D01*
X120916109Y-108360611D02*
X121170107Y-108360611D01*
X123279780Y-95440240D02*
X120203980Y-98516040D01*
X123964866Y-94079503D02*
X123469892Y-94079503D01*
X120203980Y-107648482D02*
X120916109Y-108360611D01*
X123279780Y-94269615D02*
X123279780Y-95440240D01*
X126500000Y-135730000D02*
X128372000Y-133858000D01*
X128372000Y-133858000D02*
X129149536Y-133858000D01*
X129149536Y-133858000D02*
X129644510Y-133858000D01*
X128120510Y-95591067D02*
X128120510Y-95096093D01*
X128120510Y-102244480D02*
X128120510Y-95591067D01*
X125049885Y-105315105D02*
X128120510Y-102244480D01*
X122777999Y-105315105D02*
X125049885Y-105315105D01*
X122428000Y-105665104D02*
X122777999Y-105315105D01*
X126500000Y-138270000D02*
X127702301Y-139472301D01*
X127702301Y-139472301D02*
X129617105Y-139472301D01*
X129617105Y-139472301D02*
X130377699Y-138711707D01*
X130377699Y-138711707D02*
X130377699Y-130734301D01*
X130377699Y-130734301D02*
X133132311Y-127979689D01*
X133132311Y-127979689D02*
X133132311Y-123630105D01*
X133132311Y-123630105D02*
X129465103Y-119962897D01*
X122147007Y-109832501D02*
X124927999Y-109832501D01*
X124927999Y-109832501D02*
X125585498Y-110490000D01*
X120771130Y-108710622D02*
X121025128Y-108710622D01*
X121025128Y-108710622D02*
X122147007Y-109832501D01*
X119853969Y-97834549D02*
X119853970Y-107793462D01*
X127775026Y-110490000D02*
X128270000Y-110490000D01*
X119853970Y-107793462D02*
X120771130Y-108710622D01*
X122667270Y-95021248D02*
X119853969Y-97834549D01*
X125585498Y-110490000D02*
X127775026Y-110490000D01*
X128778000Y-94234000D02*
X128778000Y-102362000D01*
X128778000Y-102362000D02*
X127762000Y-103378000D01*
X127762000Y-103378000D02*
X127762000Y-104393994D01*
X123960000Y-138270000D02*
X125297699Y-136932301D01*
X125297699Y-136932301D02*
X125297699Y-132258301D01*
X125297699Y-132258301D02*
X127837699Y-132258301D01*
X127837699Y-132258301D02*
X130302000Y-129794000D01*
X130302000Y-129794000D02*
X130302000Y-126492000D01*
X130302000Y-126492000D02*
X130810000Y-125984000D01*
X130810000Y-125984000D02*
X132588000Y-125984000D01*
X132588000Y-125984000D02*
X132782301Y-125789699D01*
X132782301Y-125789699D02*
X132782301Y-124146301D01*
X132782301Y-124146301D02*
X131064000Y-122428000D01*
X131064000Y-122428000D02*
X130048000Y-122428000D01*
X130048000Y-122428000D02*
X127508000Y-119888000D01*
X127508000Y-119888000D02*
X124714000Y-119888000D01*
X126529605Y-122219605D02*
X122877369Y-122219605D01*
X129040000Y-124730000D02*
X126529605Y-122219605D01*
X122877369Y-122219605D02*
X122382395Y-122219605D01*
X128524000Y-129794000D02*
X129040000Y-129278000D01*
X129040000Y-129278000D02*
X129040000Y-127270000D01*
X127000000Y-129794000D02*
X128524000Y-129794000D01*
X126238000Y-123138923D02*
X122987077Y-123138923D01*
X122987077Y-123138923D02*
X122936000Y-123190000D01*
X126500000Y-124730000D02*
X126500000Y-123400923D01*
X126500000Y-123400923D02*
X126238000Y-123138923D01*
X125222000Y-130556000D02*
X126500000Y-129278000D01*
X126500000Y-129278000D02*
X126500000Y-127270000D01*
X124206000Y-130556000D02*
X125222000Y-130556000D01*
X126500000Y-127270000D02*
X125946900Y-127270000D01*
X122777997Y-130206001D02*
X122427998Y-130556000D01*
X123960000Y-129023998D02*
X122777997Y-130206001D01*
X123960000Y-127270000D02*
X123960000Y-129023998D01*
X122682000Y-89753074D02*
X122682000Y-81169622D01*
X122682000Y-81169622D02*
X124919875Y-78931747D01*
X133157978Y-113091978D02*
X131893683Y-111827683D01*
X133157978Y-114692022D02*
X133157978Y-113091978D01*
X118453924Y-108945755D02*
X118453924Y-93981152D01*
X124919875Y-78931747D02*
X125269874Y-78581748D01*
X131893683Y-111827683D02*
X125322055Y-111827681D01*
X120560826Y-111052657D02*
X118453924Y-108945755D01*
X118453924Y-93981152D02*
X122682000Y-89753074D01*
X125322055Y-111827681D02*
X124808098Y-111313723D01*
X122874083Y-111313723D02*
X122613017Y-111052657D01*
X124808098Y-111313723D02*
X122874083Y-111313723D01*
X131580000Y-116270000D02*
X133157978Y-114692022D01*
X122613017Y-111052657D02*
X120560826Y-111052657D01*
X121666000Y-80518000D02*
X122936000Y-79248000D01*
X120270866Y-111752677D02*
X117753902Y-109235713D01*
X122936000Y-79248000D02*
X122936000Y-78980974D01*
X117753902Y-93691192D02*
X121666000Y-89779094D01*
X117753902Y-109235713D02*
X117753902Y-93691192D01*
X122660560Y-112090180D02*
X122323058Y-111752678D01*
X125032093Y-112527699D02*
X124594575Y-112090181D01*
X127837699Y-112527699D02*
X125032093Y-112527699D01*
X122936000Y-78980974D02*
X122936000Y-78486000D01*
X124594575Y-112090181D02*
X122660560Y-112090180D01*
X122323058Y-111752678D02*
X120270866Y-111752677D01*
X121666000Y-89779094D02*
X121666000Y-80518000D01*
X129040000Y-113730000D02*
X127837699Y-112527699D01*
X125779732Y-111477672D02*
X132064682Y-111477672D01*
X123019063Y-110963713D02*
X124953078Y-110963713D01*
X123190000Y-89740064D02*
X118803940Y-94126124D01*
X122757996Y-110702646D02*
X123019063Y-110963713D01*
X124953078Y-110963713D02*
X125467035Y-111477671D01*
X123190000Y-81998990D02*
X123190000Y-89740064D01*
X133507989Y-112920979D02*
X133507989Y-117444011D01*
X132064682Y-111477672D02*
X133507989Y-112920979D01*
X132938011Y-118013989D02*
X130783989Y-118013989D01*
X133507989Y-117444011D02*
X132938011Y-118013989D01*
X130783989Y-118013989D02*
X129979799Y-117209799D01*
X118803940Y-108800773D02*
X120705812Y-110702645D01*
X118803940Y-94126124D02*
X118803940Y-108800773D01*
X125730000Y-79458990D02*
X123190000Y-81998990D01*
X125467035Y-111477671D02*
X125779732Y-111477672D01*
X129979799Y-117209799D02*
X129040000Y-116270000D01*
X120705812Y-110702645D02*
X122757996Y-110702646D01*
X120125886Y-112102687D02*
X117403891Y-109380692D01*
X117403891Y-109380692D02*
X117403892Y-93546212D01*
X126500000Y-113730000D02*
X125739404Y-113730000D01*
X121569989Y-79343999D02*
X121919988Y-78994000D01*
X122178077Y-112102687D02*
X120125886Y-112102687D01*
X121265989Y-79647999D02*
X121569989Y-79343999D01*
X121265989Y-89684115D02*
X121265989Y-79647999D01*
X124385185Y-112474599D02*
X124350778Y-112440192D01*
X122515582Y-112440192D02*
X122178077Y-112102687D01*
X125739404Y-113730000D02*
X124484004Y-112474600D01*
X117403892Y-93546212D02*
X121265989Y-89684115D01*
X124484004Y-112474600D02*
X124385185Y-112474599D01*
X124350778Y-112440192D02*
X122515582Y-112440192D01*
X126400800Y-113730000D02*
X126500000Y-113730000D01*
X119153951Y-108632554D02*
X120874031Y-110352634D01*
X133858000Y-112776000D02*
X133857999Y-117588991D01*
X128594000Y-118364000D02*
X127439799Y-117209799D01*
X132209661Y-111127661D02*
X133858000Y-112776000D01*
X133082990Y-118364000D02*
X128594000Y-118364000D01*
X120874031Y-110352634D02*
X122902976Y-110352636D01*
X133857999Y-117588991D02*
X133082990Y-118364000D01*
X125214209Y-110613703D02*
X125728167Y-111127661D01*
X119153951Y-94271103D02*
X119153951Y-108632554D01*
X122902976Y-110352636D02*
X123164043Y-110613703D01*
X123164043Y-110613703D02*
X125214209Y-110613703D01*
X127439799Y-117209799D02*
X126500000Y-116270000D01*
X125728167Y-111127661D02*
X132209661Y-111127661D01*
X123698000Y-89727054D02*
X119153951Y-94271103D01*
X127328796Y-78814804D02*
X123698000Y-82445600D01*
X123698000Y-82445600D02*
X123698000Y-89727054D01*
X121158000Y-78726974D02*
X121158000Y-78232000D01*
X117053880Y-110155682D02*
X117053880Y-93401234D01*
X121158000Y-78762330D02*
X121158000Y-78726974D01*
X120865978Y-79054352D02*
X121158000Y-78762330D01*
X120865978Y-89589136D02*
X120865978Y-79054352D01*
X117053880Y-93401234D02*
X120865978Y-89589136D01*
X123960000Y-113730000D02*
X123020201Y-112790201D01*
X122361811Y-112790201D02*
X122024309Y-112452699D01*
X123020201Y-112790201D02*
X122361811Y-112790201D01*
X119350897Y-112452699D02*
X117053880Y-110155682D01*
X122024309Y-112452699D02*
X119350897Y-112452699D01*
X124206000Y-89714044D02*
X119503957Y-94416087D01*
X124206000Y-83566000D02*
X124206000Y-89714044D01*
X128524000Y-79248000D02*
X124206000Y-83566000D01*
X120461408Y-109070579D02*
X120811407Y-109420578D01*
X119503957Y-108113128D02*
X120461408Y-109070579D01*
X119503957Y-94416087D02*
X119503957Y-108113128D01*
X138325500Y-98044000D02*
X138325500Y-102993476D01*
X142727200Y-108282810D02*
X138890147Y-108282810D01*
X143028020Y-104902000D02*
X143441936Y-105315916D01*
X143441936Y-107568074D02*
X142727200Y-108282810D01*
X138890147Y-108282810D02*
X138540148Y-107932811D01*
X140234024Y-104902000D02*
X143028020Y-104902000D01*
X138325500Y-102993476D02*
X140234024Y-104902000D01*
X143441936Y-105315916D02*
X143441936Y-107568074D01*
X128524000Y-87629996D02*
X128524000Y-88282504D01*
X128524000Y-88282504D02*
X130048000Y-89806504D01*
X130048000Y-89806504D02*
X130048000Y-103763492D01*
X130048000Y-103763492D02*
X128016000Y-105795492D01*
X128016000Y-105795492D02*
X128016000Y-108072508D01*
X128016000Y-108072508D02*
X128200971Y-108257479D01*
X128200971Y-108257479D02*
X132601024Y-108257479D01*
X132601024Y-108257479D02*
X133095998Y-108257479D01*
X140501030Y-140716000D02*
X139411967Y-139626937D01*
X154432000Y-135382000D02*
X154432000Y-138430000D01*
X135108563Y-128107702D02*
X135458562Y-127757703D01*
X152146000Y-140716000D02*
X140501030Y-140716000D01*
X152654000Y-133604000D02*
X154432000Y-135382000D01*
X149540000Y-135730000D02*
X151666000Y-133604000D01*
X135012553Y-134619954D02*
X135012553Y-128203712D01*
X151666000Y-133604000D02*
X152654000Y-133604000D01*
X139411967Y-139019368D02*
X135012553Y-134619954D01*
X135012553Y-128203712D02*
X135108563Y-128107702D01*
X139411967Y-139626937D02*
X139411967Y-139019368D01*
X154432000Y-138430000D02*
X152146000Y-140716000D01*
X140557999Y-138017999D02*
X140208000Y-137668000D01*
X148262699Y-139547301D02*
X140817301Y-139547301D01*
X149540000Y-138270000D02*
X148262699Y-139547301D01*
X140557999Y-139287999D02*
X140557999Y-138017999D01*
X140817301Y-139547301D02*
X140557999Y-139287999D01*
X140462000Y-95504000D02*
X140462001Y-104139999D01*
X137668004Y-93218000D02*
X138176000Y-93218000D01*
X142884477Y-109578510D02*
X141371142Y-109578510D01*
X143256000Y-104140000D02*
X144141958Y-105025958D01*
X144141958Y-108321029D02*
X142884477Y-109578510D01*
X144141958Y-105025958D02*
X144141958Y-108321029D01*
X140462001Y-104139999D02*
X143256000Y-104140000D01*
X138176000Y-93218000D02*
X140462000Y-95504000D01*
X129889999Y-88741999D02*
X129540000Y-88392000D01*
X130556000Y-89408000D02*
X129889999Y-88741999D01*
X130556000Y-103899026D02*
X130556000Y-89408000D01*
X129794000Y-105156000D02*
X129794000Y-104661026D01*
X129794000Y-104661026D02*
X130556000Y-103899026D01*
X138587889Y-132224941D02*
X138092915Y-132224941D01*
X147000000Y-135730000D02*
X143494941Y-132224941D01*
X143494941Y-132224941D02*
X138587889Y-132224941D01*
X139446000Y-137400956D02*
X139446000Y-136905982D01*
X139446000Y-137908974D02*
X139446000Y-137400956D01*
X140111989Y-139336979D02*
X140111989Y-138574963D01*
X150742301Y-138847105D02*
X149692095Y-139897311D01*
X150742301Y-137692895D02*
X150742301Y-138847105D01*
X149692095Y-139897311D02*
X140672321Y-139897311D01*
X150117105Y-137067699D02*
X150742301Y-137692895D01*
X148202301Y-137067699D02*
X150117105Y-137067699D01*
X140672321Y-139897311D02*
X140111989Y-139336979D01*
X147000000Y-138270000D02*
X148202301Y-137067699D01*
X140111989Y-138574963D02*
X139446000Y-137908974D01*
X140111990Y-104284978D02*
X140317022Y-104490010D01*
X139541999Y-109123993D02*
X139192000Y-109473992D01*
X143791947Y-108176050D02*
X143097998Y-108869999D01*
X143791947Y-105170937D02*
X143791947Y-108176050D01*
X140111990Y-96691016D02*
X140111990Y-104284978D01*
X139795993Y-108869999D02*
X139541999Y-109123993D01*
X143111020Y-104490010D02*
X143791947Y-105170937D01*
X137160000Y-94234000D02*
X137654974Y-94234000D01*
X143097998Y-108869999D02*
X139795993Y-108869999D01*
X137654974Y-94234000D02*
X140111990Y-96691016D01*
X140317022Y-104490010D02*
X143111020Y-104490010D01*
X131064000Y-104153032D02*
X131064000Y-104648006D01*
X130556000Y-87884000D02*
X131064000Y-88392000D01*
X131064000Y-88392000D02*
X131064000Y-104153032D01*
X138670974Y-133096000D02*
X138176000Y-133096000D01*
X141826000Y-133096000D02*
X138670974Y-133096000D01*
X144460000Y-135730000D02*
X141826000Y-133096000D01*
X133350000Y-94234008D02*
X133000001Y-94584007D01*
X133000001Y-94584007D02*
X133000001Y-98456001D01*
X133000001Y-98456001D02*
X134874000Y-100330000D01*
X134874000Y-103886002D02*
X135128000Y-104140002D01*
X134874000Y-100330000D02*
X134874000Y-103886002D01*
X142115012Y-82149990D02*
X141715002Y-82550000D01*
X147633680Y-82149990D02*
X142115012Y-82149990D01*
X147932670Y-81851000D02*
X147633680Y-82149990D01*
X148463000Y-81851000D02*
X147932670Y-81851000D01*
X138049000Y-82550000D02*
X136906000Y-83693000D01*
X141715002Y-82550000D02*
X138049000Y-82550000D01*
X137342406Y-88365307D02*
X137203077Y-88504636D01*
X149352000Y-89408000D02*
X148844000Y-89916000D01*
X149352000Y-84749000D02*
X149352000Y-89408000D01*
X139783811Y-89916000D02*
X138233118Y-88365307D01*
X148844000Y-89916000D02*
X139783811Y-89916000D01*
X138233118Y-88365307D02*
X137342406Y-88365307D01*
X139061697Y-116138209D02*
X140610701Y-117687213D01*
X139061697Y-111445943D02*
X139061697Y-116138209D01*
X140235060Y-110710142D02*
X139885061Y-111060141D01*
X140610701Y-117687213D02*
X140960700Y-118037212D01*
X139885061Y-111060141D02*
X139447499Y-111060141D01*
X139447499Y-111060141D02*
X139061697Y-111445943D01*
X149606000Y-82296000D02*
X149352000Y-82550000D01*
X149352000Y-82550000D02*
X142731002Y-82550000D01*
X142731002Y-82550000D02*
X142310001Y-82971001D01*
X142310001Y-82971001D02*
X139024999Y-82971001D01*
X139024999Y-82971001D02*
X137534999Y-84461001D01*
X137534999Y-84461001D02*
X137160000Y-84836000D01*
X136590575Y-88798638D02*
X137865939Y-90074002D01*
X136590575Y-88210634D02*
X136590575Y-88798638D01*
X138438134Y-87892134D02*
X136909075Y-87892134D01*
X148686011Y-89565989D02*
X140111989Y-89565989D01*
X149001989Y-89250011D02*
X148686011Y-89565989D01*
X136909075Y-87892134D02*
X136590575Y-88210634D01*
X138080002Y-90074002D02*
X138430001Y-90424001D01*
X140111989Y-89565989D02*
X138438134Y-87892134D01*
X148209000Y-84749000D02*
X149001989Y-85541989D01*
X137865939Y-90074002D02*
X138080002Y-90074002D01*
X149001989Y-85541989D02*
X149001989Y-89250011D01*
X142911946Y-110541022D02*
X140932161Y-110541023D01*
X140932161Y-110541023D02*
X140408630Y-110017492D01*
X138711686Y-116726699D02*
X140887587Y-118902600D01*
X139573274Y-110436512D02*
X138711686Y-111298100D01*
X140050000Y-110017492D02*
X139630981Y-110436511D01*
X140408630Y-110017492D02*
X140050000Y-110017492D01*
X144841978Y-104735998D02*
X144841978Y-108610990D01*
X141903046Y-103030712D02*
X143136692Y-103030712D01*
X140887587Y-118902600D02*
X141090118Y-118902600D01*
X143136692Y-103030712D02*
X144841978Y-104735998D01*
X139630981Y-110436511D02*
X139573274Y-110436512D01*
X144841978Y-108610990D02*
X142911946Y-110541022D01*
X138711686Y-111298100D02*
X138711686Y-116726699D01*
X142788702Y-83058000D02*
X142475690Y-83371012D01*
X142475690Y-83371012D02*
X140402988Y-83371012D01*
X150574585Y-83058000D02*
X142788702Y-83058000D01*
X140402988Y-83371012D02*
X138550999Y-85223001D01*
X151101551Y-82531034D02*
X150574585Y-83058000D01*
X138550999Y-85223001D02*
X138176000Y-85598000D01*
X136392864Y-87542124D02*
X136350718Y-87584270D01*
X147066000Y-84749000D02*
X144272876Y-87542124D01*
X144272876Y-87542124D02*
X136392864Y-87542124D01*
X139905020Y-109667482D02*
X139486001Y-110086501D01*
X139428294Y-110086502D02*
X138361675Y-111153121D01*
X139486001Y-110086501D02*
X139428294Y-110086502D01*
X144491967Y-108466010D02*
X142766965Y-110191012D01*
X142766965Y-110191012D02*
X141077140Y-110191012D01*
X140553609Y-109667481D02*
X139905020Y-109667482D01*
X143400979Y-103789989D02*
X144491967Y-104880977D01*
X141074510Y-103312091D02*
X141552408Y-103789989D01*
X138361675Y-111153121D02*
X138361675Y-117394498D01*
X141077140Y-110191012D02*
X140553609Y-109667481D01*
X144491967Y-104880977D02*
X144491967Y-108466010D01*
X141552408Y-103789989D02*
X143400979Y-103789989D01*
X140027406Y-119060229D02*
X140377405Y-119410228D01*
X138361675Y-117394498D02*
X140027406Y-119060229D01*
X139059009Y-86239001D02*
X138684010Y-86614000D01*
X141526987Y-83771023D02*
X139059009Y-86239001D01*
X142846402Y-83566000D02*
X142641379Y-83771023D01*
X142641379Y-83771023D02*
X141526987Y-83771023D01*
X151892000Y-83058000D02*
X151384000Y-83566000D01*
X151384000Y-83566000D02*
X142846402Y-83566000D01*
X150865969Y-110519841D02*
X150878662Y-110532534D01*
X155956000Y-107950000D02*
X155194000Y-108712000D01*
X152652570Y-108712000D02*
X150844729Y-110519841D01*
X155956000Y-103795188D02*
X155956000Y-107950000D01*
X150844729Y-110519841D02*
X150865969Y-110519841D01*
X155194000Y-108712000D02*
X152652570Y-108712000D01*
X149166109Y-97005297D02*
X155956000Y-103795188D01*
X150876000Y-101600000D02*
X150876000Y-108472045D01*
X147574000Y-98298000D02*
X150876000Y-101600000D01*
X149515523Y-109832522D02*
X149165524Y-110182521D01*
X150876000Y-108472045D02*
X149515523Y-109832522D01*
X148081992Y-97282000D02*
X153416000Y-102616008D01*
X150353648Y-110182533D02*
X150003649Y-110532532D01*
X153416000Y-107950000D02*
X153004010Y-108361990D01*
X152174191Y-108361990D02*
X150353648Y-110182533D01*
X153004010Y-108361990D02*
X152174191Y-108361990D01*
X153416000Y-102616008D02*
X153416000Y-107950000D01*
X144237597Y-96012004D02*
X145542000Y-97316407D01*
X146812000Y-109220000D02*
X147469490Y-109220000D01*
X145542000Y-97316407D02*
X145542000Y-107950000D01*
X145542000Y-107950000D02*
X146812000Y-109220000D01*
X147469490Y-109220000D02*
X148082000Y-109832510D01*
X160274000Y-109728000D02*
X161798000Y-108204000D01*
X161798000Y-106426000D02*
X160046557Y-104674557D01*
X161798000Y-108204000D02*
X161798000Y-106426000D01*
X151733999Y-97772986D02*
X151384000Y-97422987D01*
X153084688Y-109728000D02*
X160274000Y-109728000D01*
X147905878Y-111495045D02*
X151317643Y-111495045D01*
X147000000Y-113730000D02*
X147000000Y-112400923D01*
X147000000Y-112400923D02*
X147905878Y-111495045D01*
X151317643Y-111495045D02*
X153084688Y-109728000D01*
X160046557Y-104674557D02*
X158635570Y-104674557D01*
X158635570Y-104674557D02*
X151733999Y-97772986D01*
X151733999Y-98647999D02*
X151384000Y-98298000D01*
X158476701Y-107969299D02*
X158476701Y-105390701D01*
X158476701Y-105390701D02*
X151733999Y-98647999D01*
X157226000Y-109220000D02*
X158476701Y-107969299D01*
X147044965Y-111145035D02*
X151172663Y-111145035D01*
X151172663Y-111145035D02*
X153097698Y-109220000D01*
X144460000Y-113730000D02*
X147044965Y-111145035D01*
X153097698Y-109220000D02*
X157226000Y-109220000D01*
X143287584Y-96094920D02*
X142937585Y-95744921D01*
X145191989Y-104591018D02*
X144272000Y-103671029D01*
X144272000Y-97079336D02*
X143287584Y-96094920D01*
X145191989Y-110828853D02*
X145191989Y-104591018D01*
X144732867Y-111287975D02*
X145191989Y-110828853D01*
X144272000Y-103671029D02*
X144272000Y-97079336D01*
X153670000Y-95758000D02*
X154019999Y-96107999D01*
X174752000Y-120409010D02*
X175548029Y-121205041D01*
X165608000Y-107326600D02*
X165608000Y-109720245D01*
X154019999Y-96107999D02*
X154050497Y-96107999D01*
X161761901Y-103480501D02*
X165608000Y-107326600D01*
X173482000Y-114300000D02*
X174752000Y-115570000D01*
X173659799Y-134227231D02*
X173659799Y-134823201D01*
X174752000Y-115570000D02*
X174752000Y-120409010D01*
X170187755Y-114300000D02*
X173482000Y-114300000D01*
X175548029Y-121205041D02*
X175548029Y-132339001D01*
X173659799Y-134823201D02*
X172720000Y-135763000D01*
X165608000Y-109720245D02*
X170187755Y-114300000D01*
X154050497Y-96107999D02*
X161422999Y-103480501D01*
X161422999Y-103480501D02*
X161761901Y-103480501D01*
X175548029Y-132339001D02*
X173659799Y-134227231D01*
X162496500Y-92392500D02*
X163830000Y-93726000D01*
X175260000Y-120422020D02*
X175898040Y-121060063D01*
X163830000Y-93726000D02*
X163830000Y-100133688D01*
X163830000Y-100133688D02*
X164846000Y-101149688D01*
X173736000Y-113538000D02*
X175260000Y-115062000D01*
X164846000Y-101149688D02*
X164846000Y-105664000D01*
X166370000Y-109916545D02*
X169991455Y-113538000D01*
X164846000Y-105664000D02*
X166370000Y-107188000D01*
X166370000Y-107188000D02*
X166370000Y-109916545D01*
X175768000Y-135255000D02*
X173659799Y-137363201D01*
X169991455Y-113538000D02*
X173736000Y-113538000D01*
X175260000Y-115062000D02*
X175260000Y-120422020D01*
X175898040Y-121060063D02*
X175898040Y-132483980D01*
X175898040Y-132483980D02*
X175768000Y-132614020D01*
X173659799Y-137363201D02*
X172720000Y-138303000D01*
X175768000Y-132614020D02*
X175768000Y-135255000D01*
X152763496Y-95758000D02*
X153375998Y-96370502D01*
X174104018Y-133288022D02*
X172654978Y-133288022D01*
X159590522Y-102427512D02*
X159875021Y-102427513D01*
X170140970Y-114808000D02*
X173358592Y-114808000D01*
X172654978Y-133288022D02*
X171119799Y-134823201D01*
X165100009Y-109767039D02*
X170140970Y-114808000D01*
X175198018Y-132194022D02*
X174104018Y-133288022D01*
X175198018Y-121350019D02*
X175198018Y-132194022D01*
X151638000Y-95758000D02*
X152763496Y-95758000D01*
X165100009Y-107652501D02*
X165100009Y-109767039D01*
X159875021Y-102427513D02*
X165100009Y-107652501D01*
X174244000Y-115693408D02*
X174244000Y-120396000D01*
X173358592Y-114808000D02*
X174244000Y-115693408D01*
X171119799Y-134823201D02*
X170180000Y-135763000D01*
X174244000Y-120396000D02*
X175198018Y-121350019D01*
X153375998Y-96370502D02*
X153533513Y-96370503D01*
X153533513Y-96370503D02*
X159590522Y-102427512D01*
X164338000Y-93040526D02*
X164338000Y-100076000D01*
X171119799Y-139242799D02*
X170180000Y-138303000D01*
X162610474Y-91313000D02*
X164338000Y-93040526D01*
X165354000Y-105410000D02*
X166878000Y-106934000D01*
X166878000Y-106934000D02*
X166878000Y-109601000D01*
X162115500Y-91313000D02*
X162610474Y-91313000D01*
X164338000Y-100076000D02*
X165354000Y-101092000D01*
X165354000Y-101092000D02*
X165354000Y-105410000D01*
X166878000Y-109601000D02*
X169926000Y-112649000D01*
X169926000Y-112649000D02*
X173462998Y-112649000D01*
X173462998Y-112649000D02*
X175875998Y-115062000D01*
X175875998Y-115062000D02*
X175875998Y-120543030D01*
X175875998Y-120543030D02*
X176248051Y-120915085D01*
X176248051Y-120915085D02*
X176248051Y-137721969D01*
X176248051Y-137721969D02*
X174208042Y-139761978D01*
X174208042Y-139761978D02*
X171638978Y-139761978D01*
X171638978Y-139761978D02*
X171119799Y-139242799D01*
X170464989Y-132938011D02*
X168579799Y-134823201D01*
X174848007Y-121521017D02*
X174848007Y-132049043D01*
X173736000Y-120409010D02*
X174848007Y-121521017D01*
X173736000Y-115680398D02*
X173736000Y-120409010D01*
X173371602Y-115316000D02*
X173736000Y-115680398D01*
X173959039Y-132938011D02*
X170464989Y-132938011D01*
X170153980Y-115316000D02*
X173371602Y-115316000D01*
X174848007Y-132049043D02*
X173959039Y-132938011D01*
X164699998Y-109862018D02*
X170153980Y-115316000D01*
X159673523Y-102777523D02*
X164699998Y-107803998D01*
X159445542Y-102777522D02*
X159673523Y-102777523D01*
X153231018Y-96720512D02*
X153388533Y-96720513D01*
X150562474Y-96460474D02*
X152970981Y-96460475D01*
X150114000Y-96012000D02*
X150562474Y-96460474D01*
X152970981Y-96460475D02*
X153231018Y-96720512D01*
X168579799Y-134823201D02*
X167640000Y-135763000D01*
X153388533Y-96720513D02*
X159445542Y-102777522D01*
X164699998Y-107803998D02*
X164699998Y-109862018D01*
X174353021Y-140111989D02*
X169448989Y-140111989D01*
X176598062Y-120770106D02*
X176598061Y-137866949D01*
X176276000Y-120448042D02*
X176598062Y-120770106D01*
X176276000Y-114808000D02*
X176276000Y-120448042D01*
X169448989Y-140111989D02*
X168579799Y-139242799D01*
X175514000Y-114046000D02*
X176276000Y-114808000D01*
X168579799Y-139242799D02*
X167640000Y-138303000D01*
X176598061Y-137866949D02*
X174353021Y-140111989D01*
X175514000Y-113030000D02*
X175514000Y-114046000D01*
X148336000Y-95758000D02*
X148830974Y-95758000D01*
X148830974Y-95758000D02*
X149883459Y-96810485D01*
X153204523Y-97070523D02*
X159669989Y-103535989D01*
X174498000Y-131318000D02*
X173228000Y-132588000D01*
X153086038Y-97070522D02*
X153204523Y-97070523D01*
X152826001Y-96810485D02*
X153086038Y-97070522D01*
X149883459Y-96810485D02*
X152826001Y-96810485D01*
X164274500Y-109931510D02*
X170010378Y-115667388D01*
X159669989Y-103535989D02*
X159910979Y-103535989D01*
X170010378Y-115667388D02*
X172817388Y-115667388D01*
X159910979Y-103535989D02*
X164274500Y-107899510D01*
X164274500Y-107899510D02*
X164274500Y-109931510D01*
X172817388Y-115667388D02*
X173228000Y-116078000D01*
X168275000Y-132588000D02*
X165100000Y-135763000D01*
X173228000Y-116078000D02*
X173228000Y-120396000D01*
X173228000Y-120396000D02*
X174498000Y-121666000D01*
X174498000Y-121666000D02*
X174498000Y-131318000D01*
X173228000Y-132588000D02*
X168275000Y-132588000D01*
X166039799Y-139242799D02*
X165100000Y-138303000D01*
X176530000Y-114046000D02*
X177038000Y-114554000D01*
X177038000Y-114554000D02*
X177038000Y-137922000D01*
X177038000Y-137922000D02*
X174498000Y-140462000D01*
X174498000Y-140462000D02*
X167259000Y-140462000D01*
X167259000Y-140462000D02*
X166039799Y-139242799D01*
X172212000Y-118858974D02*
X172212000Y-118364000D01*
X172212000Y-119126000D02*
X172212000Y-118858974D01*
X170688000Y-120650000D02*
X172212000Y-119126000D01*
X169830001Y-118967999D02*
X170180000Y-118618000D01*
X169830001Y-123034924D02*
X169830001Y-118967999D01*
X170180000Y-124714000D02*
X170180000Y-123384923D01*
X170180000Y-123384923D02*
X169830001Y-123034924D01*
X162306000Y-106426000D02*
X162306000Y-110998000D01*
X159004447Y-104062055D02*
X159942055Y-104062055D01*
X159942055Y-104062055D02*
X162306000Y-106426000D01*
X168513501Y-116887001D02*
X168869998Y-117243498D01*
X168869998Y-117243498D02*
X171091498Y-117243498D01*
X168195001Y-116887001D02*
X168513501Y-116887001D01*
X171100001Y-117252001D02*
X171450000Y-117602000D01*
X171091498Y-117243498D02*
X171100001Y-117252001D01*
X162306000Y-110998000D02*
X168195001Y-116887001D01*
X168910000Y-119112974D02*
X168910000Y-118618000D01*
X168910000Y-123444000D02*
X168910000Y-119112974D01*
X167640000Y-124714000D02*
X168910000Y-123444000D01*
X169217487Y-116893487D02*
X170393539Y-116893487D01*
X170393539Y-116893487D02*
X170701026Y-116586000D01*
X163322000Y-110998000D02*
X169217487Y-116893487D01*
X170701026Y-116586000D02*
X171196000Y-116586000D01*
X165100000Y-124714000D02*
X165100000Y-120412263D01*
X167662762Y-117849501D02*
X168012761Y-117499502D01*
X165100000Y-120412263D02*
X167662762Y-117849501D01*
X169978110Y-116279890D02*
X163426220Y-109728000D01*
X163426220Y-109728000D02*
X163068000Y-109728000D01*
X121158000Y-76454000D02*
X133109026Y-76454000D01*
X120108900Y-79027100D02*
X120108900Y-77503100D01*
X117956000Y-87804700D02*
X117956000Y-81180000D01*
X117956000Y-81180000D02*
X120108900Y-79027100D01*
X133109026Y-76454000D02*
X133604000Y-76454000D01*
X120108900Y-77503100D02*
X121158000Y-76454000D01*
X138430000Y-74023498D02*
X138175994Y-74277504D01*
X143446000Y-70866000D02*
X139426185Y-70866000D01*
X138430000Y-71862185D02*
X138430000Y-74023498D01*
X144800000Y-72620000D02*
X144800000Y-72220000D01*
X138175994Y-74943026D02*
X138175994Y-75438000D01*
X139426185Y-70866000D02*
X138430000Y-71862185D01*
X138175994Y-74277504D02*
X138175994Y-74943026D01*
X144800000Y-72220000D02*
X143446000Y-70866000D01*
X159446500Y-80841200D02*
X158964000Y-80358600D01*
X158844600Y-80358600D02*
X158242000Y-79756000D01*
X158964000Y-80358600D02*
X158844600Y-80358600D01*
X160528000Y-56388000D02*
X127254000Y-56388000D01*
X158242000Y-79756000D02*
X158242000Y-74676000D01*
X127254000Y-56388000D02*
X126492000Y-57150000D01*
X158242000Y-74676000D02*
X161290000Y-71628000D01*
X161290000Y-71628000D02*
X161290000Y-57150000D01*
X161290000Y-57150000D02*
X160528000Y-56388000D01*
X159929000Y-81323800D02*
X159446500Y-80841200D01*
X159928700Y-81323400D02*
X159928700Y-81323800D01*
X159446500Y-80841200D02*
X159928700Y-81323400D01*
X117094000Y-65532000D02*
X120142000Y-65532000D01*
X115062000Y-63500000D02*
X117094000Y-65532000D01*
X136718479Y-62230000D02*
X136665000Y-62176521D01*
X141478000Y-63246000D02*
X140462000Y-62230000D01*
X150876000Y-63246000D02*
X141478000Y-63246000D01*
X151130000Y-66817500D02*
X151130000Y-63500000D01*
X140462000Y-62230000D02*
X136718479Y-62230000D01*
X152400000Y-68087500D02*
X151130000Y-66817500D01*
X151130000Y-63500000D02*
X150876000Y-63246000D01*
X152400000Y-68580000D02*
X152400000Y-68087500D01*
X143764000Y-62230000D02*
X141986000Y-60452000D01*
X144843500Y-62230000D02*
X143764000Y-62230000D01*
X121920000Y-60452000D02*
X121158000Y-61214000D01*
X145796000Y-61277500D02*
X144843500Y-62230000D01*
X141986000Y-60452000D02*
X121920000Y-60452000D01*
X145796000Y-60960000D02*
X145796000Y-61277500D01*
X139720000Y-65000000D02*
X139720000Y-65400000D01*
X139720000Y-65400000D02*
X138318000Y-66802000D01*
X138318000Y-66802000D02*
X124192984Y-66802000D01*
X124192984Y-66802000D02*
X123938984Y-66548000D01*
X123938984Y-66548000D02*
X123444010Y-66548000D01*
X154482800Y-61214000D02*
X154482800Y-58639200D01*
X154482800Y-58639200D02*
X154709000Y-58413000D01*
X154355800Y-58766200D02*
X154709000Y-58413000D01*
X152857200Y-61214000D02*
X152857200Y-59101200D01*
X152857200Y-59101200D02*
X152169000Y-58413000D01*
X152730200Y-58974200D02*
X152169000Y-58413000D01*
X159928700Y-78783800D02*
X159928700Y-75406455D01*
X159928700Y-75406455D02*
X159472163Y-74949918D01*
X140729026Y-59839490D02*
X141224000Y-59839490D01*
X121262510Y-59839490D02*
X140729026Y-59839490D01*
X119888000Y-61214000D02*
X121262510Y-59839490D01*
X153670000Y-61214000D02*
X153670000Y-60198000D01*
X133699999Y-63150001D02*
X133350000Y-63500000D01*
X140208000Y-61468000D02*
X135382000Y-61468000D01*
X154940000Y-62738000D02*
X141478000Y-62738000D01*
X141478000Y-62738000D02*
X140208000Y-61468000D01*
X157500000Y-62504000D02*
X156718000Y-61722000D01*
X135382000Y-61468000D02*
X133699999Y-63150001D01*
X157500000Y-65000000D02*
X157500000Y-62504000D01*
X156718000Y-61722000D02*
X155956000Y-61722000D01*
X155956000Y-61722000D02*
X154940000Y-62738000D01*
X154960000Y-67798000D02*
X154178000Y-68580000D01*
X154960000Y-65000000D02*
X154960000Y-67798000D01*
X133844982Y-68747010D02*
X133350008Y-68747010D01*
X139786990Y-68747010D02*
X133844982Y-68747010D01*
X141224000Y-67310000D02*
X139786990Y-68747010D01*
D11*
G36*
X118840010Y-112963581D02*
X118840012Y-112963584D01*
X119074408Y-113120202D01*
X119120281Y-113129327D01*
X119350897Y-113175200D01*
X119350902Y-113175199D01*
X119946119Y-113175199D01*
X119833955Y-113479833D01*
X119858951Y-114105828D01*
X120050420Y-114568077D01*
X120311032Y-114659363D01*
X121240395Y-113730000D01*
X121226253Y-113715858D01*
X121405858Y-113536253D01*
X121420000Y-113550395D01*
X121434143Y-113536253D01*
X121613748Y-113715858D01*
X121599605Y-113730000D01*
X122528968Y-114659363D01*
X122627964Y-114624687D01*
X123002896Y-115000273D01*
X122689727Y-115312896D01*
X122314885Y-114937399D01*
X122349363Y-114838968D01*
X121420000Y-113909605D01*
X120490637Y-114838968D01*
X120525313Y-114937964D01*
X120085728Y-115376783D01*
X120025221Y-115522500D01*
X119442000Y-115522500D01*
X119155944Y-115579400D01*
X118913437Y-115741438D01*
X117581438Y-117073438D01*
X117419400Y-117315944D01*
X117362500Y-117602000D01*
X117362500Y-123952000D01*
X117419400Y-124238056D01*
X117581438Y-124480562D01*
X119907318Y-126806443D01*
X119845474Y-126955379D01*
X119844927Y-127581873D01*
X119905180Y-127727696D01*
X117581438Y-130051438D01*
X117419400Y-130293944D01*
X117362500Y-130580000D01*
X117362500Y-136906000D01*
X117419400Y-137192056D01*
X117581438Y-137434562D01*
X118945437Y-138798562D01*
X119186199Y-138959434D01*
X119187944Y-138960600D01*
X119474000Y-139017500D01*
X120024925Y-139017500D01*
X120084171Y-139160887D01*
X120526783Y-139604272D01*
X121105379Y-139844526D01*
X121731873Y-139845073D01*
X122310887Y-139605829D01*
X122690273Y-139227104D01*
X123066783Y-139604272D01*
X123645379Y-139844526D01*
X124271873Y-139845073D01*
X124850887Y-139605829D01*
X125230273Y-139227104D01*
X125606783Y-139604272D01*
X126185379Y-139844526D01*
X126811873Y-139845073D01*
X126982714Y-139774483D01*
X127191414Y-139983183D01*
X127191416Y-139983186D01*
X127312362Y-140063999D01*
X127425812Y-140139804D01*
X127702301Y-140194801D01*
X129617105Y-140194801D01*
X129893594Y-140139804D01*
X130127990Y-139983186D01*
X130596922Y-139514254D01*
X130686783Y-139604272D01*
X131265379Y-139844526D01*
X131891873Y-139845073D01*
X132062713Y-139774483D01*
X133007115Y-140718885D01*
X133080621Y-140768000D01*
X117042000Y-140768000D01*
X117042000Y-111165572D01*
X118840010Y-112963581D01*
X118840010Y-112963581D01*
G37*
X118840010Y-112963581D02*
X118840012Y-112963584D01*
X119074408Y-113120202D01*
X119120281Y-113129327D01*
X119350897Y-113175200D01*
X119350902Y-113175199D01*
X119946119Y-113175199D01*
X119833955Y-113479833D01*
X119858951Y-114105828D01*
X120050420Y-114568077D01*
X120311032Y-114659363D01*
X121240395Y-113730000D01*
X121226253Y-113715858D01*
X121405858Y-113536253D01*
X121420000Y-113550395D01*
X121434143Y-113536253D01*
X121613748Y-113715858D01*
X121599605Y-113730000D01*
X122528968Y-114659363D01*
X122627964Y-114624687D01*
X123002896Y-115000273D01*
X122689727Y-115312896D01*
X122314885Y-114937399D01*
X122349363Y-114838968D01*
X121420000Y-113909605D01*
X120490637Y-114838968D01*
X120525313Y-114937964D01*
X120085728Y-115376783D01*
X120025221Y-115522500D01*
X119442000Y-115522500D01*
X119155944Y-115579400D01*
X118913437Y-115741438D01*
X117581438Y-117073438D01*
X117419400Y-117315944D01*
X117362500Y-117602000D01*
X117362500Y-123952000D01*
X117419400Y-124238056D01*
X117581438Y-124480562D01*
X119907318Y-126806443D01*
X119845474Y-126955379D01*
X119844927Y-127581873D01*
X119905180Y-127727696D01*
X117581438Y-130051438D01*
X117419400Y-130293944D01*
X117362500Y-130580000D01*
X117362500Y-136906000D01*
X117419400Y-137192056D01*
X117581438Y-137434562D01*
X118945437Y-138798562D01*
X119186199Y-138959434D01*
X119187944Y-138960600D01*
X119474000Y-139017500D01*
X120024925Y-139017500D01*
X120084171Y-139160887D01*
X120526783Y-139604272D01*
X121105379Y-139844526D01*
X121731873Y-139845073D01*
X122310887Y-139605829D01*
X122690273Y-139227104D01*
X123066783Y-139604272D01*
X123645379Y-139844526D01*
X124271873Y-139845073D01*
X124850887Y-139605829D01*
X125230273Y-139227104D01*
X125606783Y-139604272D01*
X126185379Y-139844526D01*
X126811873Y-139845073D01*
X126982714Y-139774483D01*
X127191414Y-139983183D01*
X127191416Y-139983186D01*
X127312362Y-140063999D01*
X127425812Y-140139804D01*
X127702301Y-140194801D01*
X129617105Y-140194801D01*
X129893594Y-140139804D01*
X130127990Y-139983186D01*
X130596922Y-139514254D01*
X130686783Y-139604272D01*
X131265379Y-139844526D01*
X131891873Y-139845073D01*
X132062713Y-139774483D01*
X133007115Y-140718885D01*
X133080621Y-140768000D01*
X117042000Y-140768000D01*
X117042000Y-111165572D01*
X118840010Y-112963581D01*
G36*
X138689467Y-139318638D02*
X138689467Y-139626937D01*
X138744464Y-139903426D01*
X138901082Y-140137822D01*
X139531261Y-140768000D01*
X134041379Y-140768000D01*
X134114885Y-140718885D01*
X134981383Y-139852386D01*
X134981386Y-139852384D01*
X135138004Y-139617988D01*
X135193001Y-139341499D01*
X135193001Y-135822172D01*
X138689467Y-139318638D01*
X138689467Y-139318638D01*
G37*
X138689467Y-139318638D02*
X138689467Y-139626937D01*
X138744464Y-139903426D01*
X138901082Y-140137822D01*
X139531261Y-140768000D01*
X134041379Y-140768000D01*
X134114885Y-140718885D01*
X134981383Y-139852386D01*
X134981386Y-139852384D01*
X135138004Y-139617988D01*
X135193001Y-139341499D01*
X135193001Y-135822172D01*
X138689467Y-139318638D01*
G36*
X157240500Y-134124800D02*
X157297400Y-134410856D01*
X157459438Y-134653362D01*
X160985307Y-138179231D01*
X160984927Y-138614873D01*
X161224171Y-139193887D01*
X161666783Y-139637272D01*
X162245379Y-139877526D01*
X162871873Y-139878073D01*
X163450887Y-139638829D01*
X163830273Y-139260104D01*
X164206783Y-139637272D01*
X164785379Y-139877526D01*
X165411873Y-139878073D01*
X165582713Y-139807483D01*
X166543231Y-140768000D01*
X153115770Y-140768000D01*
X154942885Y-138940885D01*
X155099503Y-138706489D01*
X155154500Y-138430000D01*
X155154500Y-135382005D01*
X155154501Y-135382000D01*
X155099503Y-135105512D01*
X155099503Y-135105511D01*
X154942885Y-134871115D01*
X154942882Y-134871113D01*
X153164885Y-133093115D01*
X152930489Y-132936497D01*
X152654000Y-132881500D01*
X151666000Y-132881500D01*
X151389511Y-132936497D01*
X151155115Y-133093115D01*
X150022886Y-134225344D01*
X149854621Y-134155474D01*
X149228127Y-134154927D01*
X148649113Y-134394171D01*
X148269727Y-134772896D01*
X147893217Y-134395728D01*
X147314621Y-134155474D01*
X146688127Y-134154927D01*
X146517287Y-134225517D01*
X144484270Y-132192500D01*
X157099000Y-132192500D01*
X157240500Y-132164354D01*
X157240500Y-134124800D01*
X157240500Y-134124800D01*
G37*
X157240500Y-134124800D02*
X157297400Y-134410856D01*
X157459438Y-134653362D01*
X160985307Y-138179231D01*
X160984927Y-138614873D01*
X161224171Y-139193887D01*
X161666783Y-139637272D01*
X162245379Y-139877526D01*
X162871873Y-139878073D01*
X163450887Y-139638829D01*
X163830273Y-139260104D01*
X164206783Y-139637272D01*
X164785379Y-139877526D01*
X165411873Y-139878073D01*
X165582713Y-139807483D01*
X166543231Y-140768000D01*
X153115770Y-140768000D01*
X154942885Y-138940885D01*
X155099503Y-138706489D01*
X155154500Y-138430000D01*
X155154500Y-135382005D01*
X155154501Y-135382000D01*
X155099503Y-135105512D01*
X155099503Y-135105511D01*
X154942885Y-134871115D01*
X154942882Y-134871113D01*
X153164885Y-133093115D01*
X152930489Y-132936497D01*
X152654000Y-132881500D01*
X151666000Y-132881500D01*
X151389511Y-132936497D01*
X151155115Y-133093115D01*
X150022886Y-134225344D01*
X149854621Y-134155474D01*
X149228127Y-134154927D01*
X148649113Y-134394171D01*
X148269727Y-134772896D01*
X147893217Y-134395728D01*
X147314621Y-134155474D01*
X146688127Y-134154927D01*
X146517287Y-134225517D01*
X144484270Y-132192500D01*
X157099000Y-132192500D01*
X157240500Y-132164354D01*
X157240500Y-134124800D01*
G36*
X123066783Y-128604272D02*
X123237500Y-128675160D01*
X123237500Y-128724729D01*
X122391260Y-129570968D01*
X122232929Y-129570830D01*
X121870769Y-129720471D01*
X121593443Y-129997314D01*
X121443170Y-130359212D01*
X121442828Y-130751069D01*
X121592469Y-131113229D01*
X121869312Y-131390555D01*
X122231210Y-131540828D01*
X122623067Y-131541170D01*
X122985227Y-131391529D01*
X123262553Y-131114686D01*
X123316947Y-130983691D01*
X123370471Y-131113229D01*
X123647314Y-131390555D01*
X124009212Y-131540828D01*
X124401069Y-131541170D01*
X124763229Y-131391529D01*
X124876455Y-131278500D01*
X125222000Y-131278500D01*
X125498489Y-131223503D01*
X125732885Y-131066885D01*
X126306382Y-130493388D01*
X126441314Y-130628555D01*
X126803212Y-130778828D01*
X127195069Y-130779170D01*
X127557229Y-130629529D01*
X127670455Y-130516500D01*
X128524000Y-130516500D01*
X128566105Y-130508125D01*
X127538429Y-131535801D01*
X125297699Y-131535801D01*
X125021210Y-131590798D01*
X124786814Y-131747416D01*
X124630196Y-131981812D01*
X124575199Y-132258301D01*
X124575199Y-134280285D01*
X124274621Y-134155474D01*
X123648127Y-134154927D01*
X123069113Y-134394171D01*
X122627399Y-134835115D01*
X122528968Y-134800637D01*
X121599605Y-135730000D01*
X122528968Y-136659363D01*
X122627964Y-136624687D01*
X123002896Y-137000273D01*
X122689727Y-137312896D01*
X122314885Y-136937399D01*
X122349363Y-136838968D01*
X121420000Y-135909605D01*
X120490637Y-136838968D01*
X120525313Y-136937964D01*
X120085728Y-137376783D01*
X120025221Y-137522500D01*
X119783625Y-137522500D01*
X118857500Y-136596376D01*
X118857500Y-135479833D01*
X119833955Y-135479833D01*
X119858951Y-136105828D01*
X120050420Y-136568077D01*
X120311032Y-136659363D01*
X121240395Y-135730000D01*
X120311032Y-134800637D01*
X120050420Y-134891923D01*
X119833955Y-135479833D01*
X118857500Y-135479833D01*
X118857500Y-134621032D01*
X120490637Y-134621032D01*
X121420000Y-135550395D01*
X122349363Y-134621032D01*
X122258077Y-134360420D01*
X121670167Y-134143955D01*
X121044172Y-134168951D01*
X120581923Y-134360420D01*
X120490637Y-134621032D01*
X118857500Y-134621032D01*
X118857500Y-130889624D01*
X120962095Y-128785029D01*
X121105379Y-128844526D01*
X121731873Y-128845073D01*
X122310887Y-128605829D01*
X122690273Y-128227104D01*
X123066783Y-128604272D01*
X123066783Y-128604272D01*
G37*
X123066783Y-128604272D02*
X123237500Y-128675160D01*
X123237500Y-128724729D01*
X122391260Y-129570968D01*
X122232929Y-129570830D01*
X121870769Y-129720471D01*
X121593443Y-129997314D01*
X121443170Y-130359212D01*
X121442828Y-130751069D01*
X121592469Y-131113229D01*
X121869312Y-131390555D01*
X122231210Y-131540828D01*
X122623067Y-131541170D01*
X122985227Y-131391529D01*
X123262553Y-131114686D01*
X123316947Y-130983691D01*
X123370471Y-131113229D01*
X123647314Y-131390555D01*
X124009212Y-131540828D01*
X124401069Y-131541170D01*
X124763229Y-131391529D01*
X124876455Y-131278500D01*
X125222000Y-131278500D01*
X125498489Y-131223503D01*
X125732885Y-131066885D01*
X126306382Y-130493388D01*
X126441314Y-130628555D01*
X126803212Y-130778828D01*
X127195069Y-130779170D01*
X127557229Y-130629529D01*
X127670455Y-130516500D01*
X128524000Y-130516500D01*
X128566105Y-130508125D01*
X127538429Y-131535801D01*
X125297699Y-131535801D01*
X125021210Y-131590798D01*
X124786814Y-131747416D01*
X124630196Y-131981812D01*
X124575199Y-132258301D01*
X124575199Y-134280285D01*
X124274621Y-134155474D01*
X123648127Y-134154927D01*
X123069113Y-134394171D01*
X122627399Y-134835115D01*
X122528968Y-134800637D01*
X121599605Y-135730000D01*
X122528968Y-136659363D01*
X122627964Y-136624687D01*
X123002896Y-137000273D01*
X122689727Y-137312896D01*
X122314885Y-136937399D01*
X122349363Y-136838968D01*
X121420000Y-135909605D01*
X120490637Y-136838968D01*
X120525313Y-136937964D01*
X120085728Y-137376783D01*
X120025221Y-137522500D01*
X119783625Y-137522500D01*
X118857500Y-136596376D01*
X118857500Y-135479833D01*
X119833955Y-135479833D01*
X119858951Y-136105828D01*
X120050420Y-136568077D01*
X120311032Y-136659363D01*
X121240395Y-135730000D01*
X120311032Y-134800637D01*
X120050420Y-134891923D01*
X119833955Y-135479833D01*
X118857500Y-135479833D01*
X118857500Y-134621032D01*
X120490637Y-134621032D01*
X121420000Y-135550395D01*
X122349363Y-134621032D01*
X122258077Y-134360420D01*
X121670167Y-134143955D01*
X121044172Y-134168951D01*
X120581923Y-134360420D01*
X120490637Y-134621032D01*
X118857500Y-134621032D01*
X118857500Y-130889624D01*
X120962095Y-128785029D01*
X121105379Y-128844526D01*
X121731873Y-128845073D01*
X122310887Y-128605829D01*
X122690273Y-128227104D01*
X123066783Y-128604272D01*
G36*
X171826783Y-128588272D02*
X172405379Y-128828526D01*
X173031873Y-128829073D01*
X173610887Y-128589829D01*
X173775500Y-128425503D01*
X173775500Y-131018731D01*
X172928730Y-131865500D01*
X168275000Y-131865500D01*
X167998511Y-131920497D01*
X167764115Y-132077115D01*
X165582886Y-134258344D01*
X165414621Y-134188474D01*
X164788127Y-134187927D01*
X164209113Y-134427171D01*
X163767399Y-134868115D01*
X163668968Y-134833637D01*
X162739605Y-135763000D01*
X163668968Y-136692363D01*
X163767964Y-136657687D01*
X164142896Y-137033273D01*
X163829727Y-137345896D01*
X163454885Y-136970399D01*
X163489363Y-136871968D01*
X162560000Y-135942605D01*
X162545858Y-135956748D01*
X162366253Y-135777143D01*
X162380395Y-135763000D01*
X161451032Y-134833637D01*
X161190420Y-134924923D01*
X160973955Y-135512833D01*
X160996447Y-136076123D01*
X159574356Y-134654032D01*
X161630637Y-134654032D01*
X162560000Y-135583395D01*
X163489363Y-134654032D01*
X163398077Y-134393420D01*
X162810167Y-134176955D01*
X162184172Y-134201951D01*
X161721923Y-134393420D01*
X161630637Y-134654032D01*
X159574356Y-134654032D01*
X158735500Y-133815176D01*
X158735500Y-130865624D01*
X160329624Y-129271500D01*
X161290000Y-129271500D01*
X161576056Y-129214600D01*
X161818562Y-129052562D01*
X162102095Y-128769029D01*
X162245379Y-128828526D01*
X162871873Y-128829073D01*
X163450887Y-128589829D01*
X163830273Y-128211104D01*
X164206783Y-128588272D01*
X164785379Y-128828526D01*
X165411873Y-128829073D01*
X165990887Y-128589829D01*
X166370273Y-128211104D01*
X166746783Y-128588272D01*
X167325379Y-128828526D01*
X167951873Y-128829073D01*
X168530887Y-128589829D01*
X168910273Y-128211104D01*
X169286783Y-128588272D01*
X169865379Y-128828526D01*
X170491873Y-128829073D01*
X171070887Y-128589829D01*
X171450273Y-128211104D01*
X171826783Y-128588272D01*
X171826783Y-128588272D01*
G37*
X171826783Y-128588272D02*
X172405379Y-128828526D01*
X173031873Y-128829073D01*
X173610887Y-128589829D01*
X173775500Y-128425503D01*
X173775500Y-131018731D01*
X172928730Y-131865500D01*
X168275000Y-131865500D01*
X167998511Y-131920497D01*
X167764115Y-132077115D01*
X165582886Y-134258344D01*
X165414621Y-134188474D01*
X164788127Y-134187927D01*
X164209113Y-134427171D01*
X163767399Y-134868115D01*
X163668968Y-134833637D01*
X162739605Y-135763000D01*
X163668968Y-136692363D01*
X163767964Y-136657687D01*
X164142896Y-137033273D01*
X163829727Y-137345896D01*
X163454885Y-136970399D01*
X163489363Y-136871968D01*
X162560000Y-135942605D01*
X162545858Y-135956748D01*
X162366253Y-135777143D01*
X162380395Y-135763000D01*
X161451032Y-134833637D01*
X161190420Y-134924923D01*
X160973955Y-135512833D01*
X160996447Y-136076123D01*
X159574356Y-134654032D01*
X161630637Y-134654032D01*
X162560000Y-135583395D01*
X163489363Y-134654032D01*
X163398077Y-134393420D01*
X162810167Y-134176955D01*
X162184172Y-134201951D01*
X161721923Y-134393420D01*
X161630637Y-134654032D01*
X159574356Y-134654032D01*
X158735500Y-133815176D01*
X158735500Y-130865624D01*
X160329624Y-129271500D01*
X161290000Y-129271500D01*
X161576056Y-129214600D01*
X161818562Y-129052562D01*
X162102095Y-128769029D01*
X162245379Y-128828526D01*
X162871873Y-128829073D01*
X163450887Y-128589829D01*
X163830273Y-128211104D01*
X164206783Y-128588272D01*
X164785379Y-128828526D01*
X165411873Y-128829073D01*
X165990887Y-128589829D01*
X166370273Y-128211104D01*
X166746783Y-128588272D01*
X167325379Y-128828526D01*
X167951873Y-128829073D01*
X168530887Y-128589829D01*
X168910273Y-128211104D01*
X169286783Y-128588272D01*
X169865379Y-128828526D01*
X170491873Y-128829073D01*
X171070887Y-128589829D01*
X171450273Y-128211104D01*
X171826783Y-128588272D01*
G36*
X137617314Y-133930555D02*
X137979212Y-134080828D01*
X138371069Y-134081170D01*
X138733229Y-133931529D01*
X138846455Y-133818500D01*
X141526730Y-133818500D01*
X141864395Y-134156164D01*
X141544172Y-134168951D01*
X141081923Y-134360420D01*
X140990637Y-134621032D01*
X141920000Y-135550395D01*
X141934143Y-135536253D01*
X142113748Y-135715858D01*
X142099605Y-135730000D01*
X143028968Y-136659363D01*
X143127964Y-136624687D01*
X143502896Y-137000273D01*
X143189727Y-137312896D01*
X142814885Y-136937399D01*
X142849363Y-136838968D01*
X141920000Y-135909605D01*
X141905858Y-135923748D01*
X141726253Y-135744143D01*
X141740395Y-135730000D01*
X140811032Y-134800637D01*
X140550420Y-134891923D01*
X140416170Y-135256542D01*
X140267066Y-135107438D01*
X140024560Y-134945400D01*
X139738504Y-134888500D01*
X137469625Y-134888500D01*
X137399500Y-134818376D01*
X137399500Y-133712361D01*
X137617314Y-133930555D01*
X137617314Y-133930555D01*
G37*
X137617314Y-133930555D02*
X137979212Y-134080828D01*
X138371069Y-134081170D01*
X138733229Y-133931529D01*
X138846455Y-133818500D01*
X141526730Y-133818500D01*
X141864395Y-134156164D01*
X141544172Y-134168951D01*
X141081923Y-134360420D01*
X140990637Y-134621032D01*
X141920000Y-135550395D01*
X141934143Y-135536253D01*
X142113748Y-135715858D01*
X142099605Y-135730000D01*
X143028968Y-136659363D01*
X143127964Y-136624687D01*
X143502896Y-137000273D01*
X143189727Y-137312896D01*
X142814885Y-136937399D01*
X142849363Y-136838968D01*
X141920000Y-135909605D01*
X141905858Y-135923748D01*
X141726253Y-135744143D01*
X141740395Y-135730000D01*
X140811032Y-134800637D01*
X140550420Y-134891923D01*
X140416170Y-135256542D01*
X140267066Y-135107438D01*
X140024560Y-134945400D01*
X139738504Y-134888500D01*
X137469625Y-134888500D01*
X137399500Y-134818376D01*
X137399500Y-133712361D01*
X137617314Y-133930555D01*
G36*
X161583500Y-110998000D02*
X161638497Y-111274489D01*
X161795115Y-111508885D01*
X167202647Y-116916417D01*
X167178206Y-116940816D01*
X167027933Y-117302714D01*
X167027793Y-117462701D01*
X164589115Y-119901378D01*
X164432497Y-120135774D01*
X164377500Y-120412263D01*
X164377500Y-123308595D01*
X164209113Y-123378171D01*
X163767399Y-123819115D01*
X163668968Y-123784637D01*
X162739605Y-124714000D01*
X163668968Y-125643363D01*
X163767964Y-125608687D01*
X164142896Y-125984273D01*
X163829727Y-126296896D01*
X163454885Y-125921399D01*
X163489363Y-125822968D01*
X162560000Y-124893605D01*
X161630637Y-125822968D01*
X161665313Y-125921964D01*
X161225728Y-126360783D01*
X160985474Y-126939379D01*
X160984927Y-127565873D01*
X161045180Y-127711696D01*
X160980376Y-127776500D01*
X160020000Y-127776500D01*
X159733944Y-127833400D01*
X159491438Y-127995438D01*
X157459441Y-130027435D01*
X157459438Y-130027437D01*
X156789376Y-130697500D01*
X138104624Y-130697500D01*
X137399500Y-129992376D01*
X137399500Y-129731861D01*
X137446056Y-129722600D01*
X137688562Y-129560562D01*
X139231625Y-128017500D01*
X140524925Y-128017500D01*
X140584171Y-128160887D01*
X141026783Y-128604272D01*
X141605379Y-128844526D01*
X142231873Y-128845073D01*
X142810887Y-128605829D01*
X143190273Y-128227104D01*
X143566783Y-128604272D01*
X144145379Y-128844526D01*
X144771873Y-128845073D01*
X145350887Y-128605829D01*
X145730273Y-128227104D01*
X146106783Y-128604272D01*
X146685379Y-128844526D01*
X147311873Y-128845073D01*
X147890887Y-128605829D01*
X148270273Y-128227104D01*
X148646783Y-128604272D01*
X149225379Y-128844526D01*
X149851873Y-128845073D01*
X150430887Y-128605829D01*
X150810273Y-128227104D01*
X151186783Y-128604272D01*
X151765379Y-128844526D01*
X152391873Y-128845073D01*
X152970887Y-128605829D01*
X153414272Y-128163217D01*
X153654526Y-127584621D01*
X153655073Y-126958127D01*
X153415829Y-126379113D01*
X153037104Y-125999727D01*
X153414272Y-125623217D01*
X153654526Y-125044621D01*
X153655033Y-124463833D01*
X160973955Y-124463833D01*
X160998951Y-125089828D01*
X161190420Y-125552077D01*
X161451032Y-125643363D01*
X162380395Y-124714000D01*
X161451032Y-123784637D01*
X161190420Y-123875923D01*
X160973955Y-124463833D01*
X153655033Y-124463833D01*
X153655073Y-124418127D01*
X153415829Y-123839113D01*
X153182157Y-123605032D01*
X161630637Y-123605032D01*
X162560000Y-124534395D01*
X163489363Y-123605032D01*
X163398077Y-123344420D01*
X162810167Y-123127955D01*
X162184172Y-123152951D01*
X161721923Y-123344420D01*
X161630637Y-123605032D01*
X153182157Y-123605032D01*
X152973217Y-123395728D01*
X152394621Y-123155474D01*
X151768127Y-123154927D01*
X151597287Y-123225517D01*
X146384801Y-118013031D01*
X146384801Y-117719715D01*
X146685379Y-117844526D01*
X147311873Y-117845073D01*
X147890887Y-117605829D01*
X148270273Y-117227104D01*
X148646783Y-117604272D01*
X149225379Y-117844526D01*
X149851873Y-117845073D01*
X150430887Y-117605829D01*
X150810273Y-117227104D01*
X151186783Y-117604272D01*
X151765379Y-117844526D01*
X152391873Y-117845073D01*
X152970887Y-117605829D01*
X153414272Y-117163217D01*
X153654526Y-116584621D01*
X153655073Y-115958127D01*
X153415829Y-115379113D01*
X153037104Y-114999727D01*
X153414272Y-114623217D01*
X153654526Y-114044621D01*
X153655073Y-113418127D01*
X153415829Y-112839113D01*
X152973217Y-112395728D01*
X152394621Y-112155474D01*
X151768127Y-112154927D01*
X151189113Y-112394171D01*
X150809727Y-112772896D01*
X150433217Y-112395728D01*
X150004105Y-112217545D01*
X151317643Y-112217545D01*
X151594132Y-112162548D01*
X151828528Y-112005930D01*
X153383958Y-110450500D01*
X160274000Y-110450500D01*
X160550489Y-110395503D01*
X160784885Y-110238885D01*
X161583500Y-109440269D01*
X161583500Y-110998000D01*
X161583500Y-110998000D01*
G37*
X161583500Y-110998000D02*
X161638497Y-111274489D01*
X161795115Y-111508885D01*
X167202647Y-116916417D01*
X167178206Y-116940816D01*
X167027933Y-117302714D01*
X167027793Y-117462701D01*
X164589115Y-119901378D01*
X164432497Y-120135774D01*
X164377500Y-120412263D01*
X164377500Y-123308595D01*
X164209113Y-123378171D01*
X163767399Y-123819115D01*
X163668968Y-123784637D01*
X162739605Y-124714000D01*
X163668968Y-125643363D01*
X163767964Y-125608687D01*
X164142896Y-125984273D01*
X163829727Y-126296896D01*
X163454885Y-125921399D01*
X163489363Y-125822968D01*
X162560000Y-124893605D01*
X161630637Y-125822968D01*
X161665313Y-125921964D01*
X161225728Y-126360783D01*
X160985474Y-126939379D01*
X160984927Y-127565873D01*
X161045180Y-127711696D01*
X160980376Y-127776500D01*
X160020000Y-127776500D01*
X159733944Y-127833400D01*
X159491438Y-127995438D01*
X157459441Y-130027435D01*
X157459438Y-130027437D01*
X156789376Y-130697500D01*
X138104624Y-130697500D01*
X137399500Y-129992376D01*
X137399500Y-129731861D01*
X137446056Y-129722600D01*
X137688562Y-129560562D01*
X139231625Y-128017500D01*
X140524925Y-128017500D01*
X140584171Y-128160887D01*
X141026783Y-128604272D01*
X141605379Y-128844526D01*
X142231873Y-128845073D01*
X142810887Y-128605829D01*
X143190273Y-128227104D01*
X143566783Y-128604272D01*
X144145379Y-128844526D01*
X144771873Y-128845073D01*
X145350887Y-128605829D01*
X145730273Y-128227104D01*
X146106783Y-128604272D01*
X146685379Y-128844526D01*
X147311873Y-128845073D01*
X147890887Y-128605829D01*
X148270273Y-128227104D01*
X148646783Y-128604272D01*
X149225379Y-128844526D01*
X149851873Y-128845073D01*
X150430887Y-128605829D01*
X150810273Y-128227104D01*
X151186783Y-128604272D01*
X151765379Y-128844526D01*
X152391873Y-128845073D01*
X152970887Y-128605829D01*
X153414272Y-128163217D01*
X153654526Y-127584621D01*
X153655073Y-126958127D01*
X153415829Y-126379113D01*
X153037104Y-125999727D01*
X153414272Y-125623217D01*
X153654526Y-125044621D01*
X153655033Y-124463833D01*
X160973955Y-124463833D01*
X160998951Y-125089828D01*
X161190420Y-125552077D01*
X161451032Y-125643363D01*
X162380395Y-124714000D01*
X161451032Y-123784637D01*
X161190420Y-123875923D01*
X160973955Y-124463833D01*
X153655033Y-124463833D01*
X153655073Y-124418127D01*
X153415829Y-123839113D01*
X153182157Y-123605032D01*
X161630637Y-123605032D01*
X162560000Y-124534395D01*
X163489363Y-123605032D01*
X163398077Y-123344420D01*
X162810167Y-123127955D01*
X162184172Y-123152951D01*
X161721923Y-123344420D01*
X161630637Y-123605032D01*
X153182157Y-123605032D01*
X152973217Y-123395728D01*
X152394621Y-123155474D01*
X151768127Y-123154927D01*
X151597287Y-123225517D01*
X146384801Y-118013031D01*
X146384801Y-117719715D01*
X146685379Y-117844526D01*
X147311873Y-117845073D01*
X147890887Y-117605829D01*
X148270273Y-117227104D01*
X148646783Y-117604272D01*
X149225379Y-117844526D01*
X149851873Y-117845073D01*
X150430887Y-117605829D01*
X150810273Y-117227104D01*
X151186783Y-117604272D01*
X151765379Y-117844526D01*
X152391873Y-117845073D01*
X152970887Y-117605829D01*
X153414272Y-117163217D01*
X153654526Y-116584621D01*
X153655073Y-115958127D01*
X153415829Y-115379113D01*
X153037104Y-114999727D01*
X153414272Y-114623217D01*
X153654526Y-114044621D01*
X153655073Y-113418127D01*
X153415829Y-112839113D01*
X152973217Y-112395728D01*
X152394621Y-112155474D01*
X151768127Y-112154927D01*
X151189113Y-112394171D01*
X150809727Y-112772896D01*
X150433217Y-112395728D01*
X150004105Y-112217545D01*
X151317643Y-112217545D01*
X151594132Y-112162548D01*
X151828528Y-112005930D01*
X153383958Y-110450500D01*
X160274000Y-110450500D01*
X160550489Y-110395503D01*
X160784885Y-110238885D01*
X161583500Y-109440269D01*
X161583500Y-110998000D01*
G36*
X143566783Y-117604272D02*
X144145379Y-117844526D01*
X144771873Y-117845073D01*
X144939801Y-117775686D01*
X144939801Y-118312301D01*
X144994798Y-118588790D01*
X145151416Y-118823186D01*
X149483380Y-123155150D01*
X149228127Y-123154927D01*
X148649113Y-123394171D01*
X148269727Y-123772896D01*
X147893217Y-123395728D01*
X147314621Y-123155474D01*
X146688127Y-123154927D01*
X146109113Y-123394171D01*
X145729727Y-123772896D01*
X145353217Y-123395728D01*
X144774621Y-123155474D01*
X144148127Y-123154927D01*
X143569113Y-123394171D01*
X143127399Y-123835115D01*
X143028968Y-123800637D01*
X142099605Y-124730000D01*
X143028968Y-125659363D01*
X143127964Y-125624687D01*
X143502896Y-126000273D01*
X143189727Y-126312896D01*
X142814885Y-125937399D01*
X142849363Y-125838968D01*
X141920000Y-124909605D01*
X140990637Y-125838968D01*
X141025313Y-125937964D01*
X140585728Y-126376783D01*
X140525221Y-126522500D01*
X138922000Y-126522500D01*
X138635944Y-126579400D01*
X138393437Y-126741438D01*
X137399500Y-127735376D01*
X137399500Y-124479833D01*
X140333955Y-124479833D01*
X140358951Y-125105828D01*
X140550420Y-125568077D01*
X140811032Y-125659363D01*
X141740395Y-124730000D01*
X140811032Y-123800637D01*
X140550420Y-123891923D01*
X140333955Y-124479833D01*
X137399500Y-124479833D01*
X137399500Y-123621032D01*
X140990637Y-123621032D01*
X141920000Y-124550395D01*
X142849363Y-123621032D01*
X142758077Y-123360420D01*
X142170167Y-123143955D01*
X141544172Y-123168951D01*
X141081923Y-123360420D01*
X140990637Y-123621032D01*
X137399500Y-123621032D01*
X137399500Y-121090092D01*
X137668000Y-121143500D01*
X140669015Y-121143500D01*
X140955071Y-121086600D01*
X141197577Y-120924562D01*
X142448562Y-119673577D01*
X142610600Y-119431071D01*
X142667500Y-119145015D01*
X142667500Y-117665075D01*
X142810887Y-117605829D01*
X143190273Y-117227104D01*
X143566783Y-117604272D01*
X143566783Y-117604272D01*
G37*
X143566783Y-117604272D02*
X144145379Y-117844526D01*
X144771873Y-117845073D01*
X144939801Y-117775686D01*
X144939801Y-118312301D01*
X144994798Y-118588790D01*
X145151416Y-118823186D01*
X149483380Y-123155150D01*
X149228127Y-123154927D01*
X148649113Y-123394171D01*
X148269727Y-123772896D01*
X147893217Y-123395728D01*
X147314621Y-123155474D01*
X146688127Y-123154927D01*
X146109113Y-123394171D01*
X145729727Y-123772896D01*
X145353217Y-123395728D01*
X144774621Y-123155474D01*
X144148127Y-123154927D01*
X143569113Y-123394171D01*
X143127399Y-123835115D01*
X143028968Y-123800637D01*
X142099605Y-124730000D01*
X143028968Y-125659363D01*
X143127964Y-125624687D01*
X143502896Y-126000273D01*
X143189727Y-126312896D01*
X142814885Y-125937399D01*
X142849363Y-125838968D01*
X141920000Y-124909605D01*
X140990637Y-125838968D01*
X141025313Y-125937964D01*
X140585728Y-126376783D01*
X140525221Y-126522500D01*
X138922000Y-126522500D01*
X138635944Y-126579400D01*
X138393437Y-126741438D01*
X137399500Y-127735376D01*
X137399500Y-124479833D01*
X140333955Y-124479833D01*
X140358951Y-125105828D01*
X140550420Y-125568077D01*
X140811032Y-125659363D01*
X141740395Y-124730000D01*
X140811032Y-123800637D01*
X140550420Y-123891923D01*
X140333955Y-124479833D01*
X137399500Y-124479833D01*
X137399500Y-123621032D01*
X140990637Y-123621032D01*
X141920000Y-124550395D01*
X142849363Y-123621032D01*
X142758077Y-123360420D01*
X142170167Y-123143955D01*
X141544172Y-123168951D01*
X141081923Y-123360420D01*
X140990637Y-123621032D01*
X137399500Y-123621032D01*
X137399500Y-121090092D01*
X137668000Y-121143500D01*
X140669015Y-121143500D01*
X140955071Y-121086600D01*
X141197577Y-120924562D01*
X142448562Y-119673577D01*
X142610600Y-119431071D01*
X142667500Y-119145015D01*
X142667500Y-117665075D01*
X142810887Y-117605829D01*
X143190273Y-117227104D01*
X143566783Y-117604272D01*
G36*
X120084171Y-117160887D02*
X120526783Y-117604272D01*
X121105379Y-117844526D01*
X121731873Y-117845073D01*
X121877696Y-117784820D01*
X123531457Y-119438581D01*
X123768347Y-119596867D01*
X123729172Y-119691212D01*
X123728830Y-120083069D01*
X123878471Y-120445229D01*
X124109184Y-120676345D01*
X121737191Y-120676345D01*
X121625331Y-120564290D01*
X121263433Y-120414017D01*
X120871576Y-120413675D01*
X120509416Y-120563316D01*
X120232090Y-120840159D01*
X120081817Y-121202057D01*
X120081475Y-121593914D01*
X120231116Y-121956074D01*
X120507959Y-122233400D01*
X120869857Y-122383673D01*
X121261714Y-122384015D01*
X121397301Y-122327992D01*
X121397225Y-122414674D01*
X121546866Y-122776834D01*
X121823709Y-123054160D01*
X121951073Y-123107046D01*
X121950950Y-123247338D01*
X121670167Y-123143955D01*
X121044172Y-123168951D01*
X120581923Y-123360420D01*
X120490637Y-123621032D01*
X121420000Y-124550395D01*
X121434143Y-124536253D01*
X121613748Y-124715858D01*
X121599605Y-124730000D01*
X122528968Y-125659363D01*
X122627964Y-125624687D01*
X123002896Y-126000273D01*
X122689727Y-126312896D01*
X122314885Y-125937399D01*
X122349363Y-125838968D01*
X121420000Y-124909605D01*
X121405858Y-124923748D01*
X121226253Y-124744143D01*
X121240395Y-124730000D01*
X120311032Y-123800637D01*
X120050420Y-123891923D01*
X119833955Y-124479833D01*
X119839736Y-124624612D01*
X118857500Y-123642376D01*
X118857500Y-117911624D01*
X119751625Y-117017500D01*
X120024925Y-117017500D01*
X120084171Y-117160887D01*
X120084171Y-117160887D01*
G37*
X120084171Y-117160887D02*
X120526783Y-117604272D01*
X121105379Y-117844526D01*
X121731873Y-117845073D01*
X121877696Y-117784820D01*
X123531457Y-119438581D01*
X123768347Y-119596867D01*
X123729172Y-119691212D01*
X123728830Y-120083069D01*
X123878471Y-120445229D01*
X124109184Y-120676345D01*
X121737191Y-120676345D01*
X121625331Y-120564290D01*
X121263433Y-120414017D01*
X120871576Y-120413675D01*
X120509416Y-120563316D01*
X120232090Y-120840159D01*
X120081817Y-121202057D01*
X120081475Y-121593914D01*
X120231116Y-121956074D01*
X120507959Y-122233400D01*
X120869857Y-122383673D01*
X121261714Y-122384015D01*
X121397301Y-122327992D01*
X121397225Y-122414674D01*
X121546866Y-122776834D01*
X121823709Y-123054160D01*
X121951073Y-123107046D01*
X121950950Y-123247338D01*
X121670167Y-123143955D01*
X121044172Y-123168951D01*
X120581923Y-123360420D01*
X120490637Y-123621032D01*
X121420000Y-124550395D01*
X121434143Y-124536253D01*
X121613748Y-124715858D01*
X121599605Y-124730000D01*
X122528968Y-125659363D01*
X122627964Y-125624687D01*
X123002896Y-126000273D01*
X122689727Y-126312896D01*
X122314885Y-125937399D01*
X122349363Y-125838968D01*
X121420000Y-124909605D01*
X121405858Y-124923748D01*
X121226253Y-124744143D01*
X121240395Y-124730000D01*
X120311032Y-123800637D01*
X120050420Y-123891923D01*
X119833955Y-124479833D01*
X119839736Y-124624612D01*
X118857500Y-123642376D01*
X118857500Y-117911624D01*
X119751625Y-117017500D01*
X120024925Y-117017500D01*
X120084171Y-117160887D01*
G36*
X137639175Y-117394498D02*
X137694172Y-117670987D01*
X137850790Y-117905383D01*
X139392373Y-119446965D01*
X139392235Y-119605297D01*
X139410086Y-119648500D01*
X137977624Y-119648500D01*
X137399500Y-119070376D01*
X137399500Y-115968424D01*
X137639175Y-115728749D01*
X137639175Y-117394498D01*
X137639175Y-117394498D01*
G37*
X137639175Y-117394498D02*
X137694172Y-117670987D01*
X137850790Y-117905383D01*
X139392373Y-119446965D01*
X139392235Y-119605297D01*
X139410086Y-119648500D01*
X137977624Y-119648500D01*
X137399500Y-119070376D01*
X137399500Y-115968424D01*
X137639175Y-115728749D01*
X137639175Y-117394498D01*
G36*
X140990637Y-112621032D02*
X141920000Y-113550395D01*
X141934143Y-113536253D01*
X142113748Y-113715858D01*
X142099605Y-113730000D01*
X142113748Y-113744143D01*
X141934143Y-113923748D01*
X141920000Y-113909605D01*
X140990637Y-114838968D01*
X141025313Y-114937964D01*
X140585728Y-115376783D01*
X140345474Y-115955379D01*
X140345086Y-116399828D01*
X139784197Y-115838939D01*
X139784197Y-113479833D01*
X140333955Y-113479833D01*
X140358951Y-114105828D01*
X140550420Y-114568077D01*
X140811032Y-114659363D01*
X141740395Y-113730000D01*
X140811032Y-112800637D01*
X140550420Y-112891923D01*
X140333955Y-113479833D01*
X139784197Y-113479833D01*
X139784197Y-112719295D01*
X139869268Y-112719369D01*
X140231428Y-112569728D01*
X140344654Y-112456699D01*
X141048199Y-112456699D01*
X140990637Y-112621032D01*
X140990637Y-112621032D01*
G37*
X140990637Y-112621032D02*
X141920000Y-113550395D01*
X141934143Y-113536253D01*
X142113748Y-113715858D01*
X142099605Y-113730000D01*
X142113748Y-113744143D01*
X141934143Y-113923748D01*
X141920000Y-113909605D01*
X140990637Y-114838968D01*
X141025313Y-114937964D01*
X140585728Y-115376783D01*
X140345474Y-115955379D01*
X140345086Y-116399828D01*
X139784197Y-115838939D01*
X139784197Y-113479833D01*
X140333955Y-113479833D01*
X140358951Y-114105828D01*
X140550420Y-114568077D01*
X140811032Y-114659363D01*
X141740395Y-113730000D01*
X140811032Y-112800637D01*
X140550420Y-112891923D01*
X140333955Y-113479833D01*
X139784197Y-113479833D01*
X139784197Y-112719295D01*
X139869268Y-112719369D01*
X140231428Y-112569728D01*
X140344654Y-112456699D01*
X141048199Y-112456699D01*
X140990637Y-112621032D01*
G36*
X148649113Y-112394171D02*
X148269727Y-112772896D01*
X147960033Y-112462660D01*
X148205148Y-112217545D01*
X149076580Y-112217545D01*
X148649113Y-112394171D01*
X148649113Y-112394171D01*
G37*
X148649113Y-112394171D02*
X148269727Y-112772896D01*
X147960033Y-112462660D01*
X148205148Y-112217545D01*
X149076580Y-112217545D01*
X148649113Y-112394171D01*
G36*
X136175172Y-94037212D02*
X136174830Y-94429069D01*
X136324471Y-94791229D01*
X136601314Y-95068555D01*
X136963212Y-95218828D01*
X137355069Y-95219170D01*
X137541389Y-95142185D01*
X139389490Y-96990285D01*
X139389490Y-103035696D01*
X139048000Y-102694206D01*
X139048000Y-98714546D01*
X139160055Y-98602686D01*
X139310328Y-98240788D01*
X139310670Y-97848931D01*
X139161029Y-97486771D01*
X138884186Y-97209445D01*
X138522288Y-97059172D01*
X138130431Y-97058830D01*
X137768271Y-97208471D01*
X137490945Y-97485314D01*
X137340672Y-97847212D01*
X137340330Y-98239069D01*
X137489971Y-98601229D01*
X137603000Y-98714455D01*
X137603000Y-102993476D01*
X137657997Y-103269965D01*
X137814615Y-103504361D01*
X139385102Y-105074847D01*
X139089107Y-105086293D01*
X138615654Y-105282404D01*
X138521255Y-105545650D01*
X139469000Y-106493395D01*
X139483143Y-106479253D01*
X139662748Y-106658858D01*
X139648605Y-106673000D01*
X139662748Y-106687143D01*
X139483143Y-106866748D01*
X139469000Y-106852605D01*
X139454858Y-106866748D01*
X139275253Y-106687143D01*
X139289395Y-106673000D01*
X138341650Y-105725255D01*
X138199000Y-105776409D01*
X138056350Y-105725255D01*
X137108605Y-106673000D01*
X137122748Y-106687143D01*
X136943143Y-106866748D01*
X136929000Y-106852605D01*
X136914858Y-106866748D01*
X136735253Y-106687143D01*
X136749395Y-106673000D01*
X136735253Y-106658858D01*
X136914858Y-106479253D01*
X136929000Y-106493395D01*
X137876745Y-105545650D01*
X137782346Y-105282404D01*
X137185231Y-105061695D01*
X136860419Y-105074255D01*
X136891500Y-104918000D01*
X136891500Y-100248915D01*
X136999737Y-100140866D01*
X137153824Y-99769783D01*
X137154175Y-99367980D01*
X137000736Y-98996628D01*
X136716866Y-98712263D01*
X136345783Y-98558176D01*
X136191165Y-98558041D01*
X134351500Y-96718376D01*
X134351500Y-95813624D01*
X134944061Y-95221063D01*
X135106099Y-94978557D01*
X135162999Y-94692501D01*
X135162999Y-93947147D01*
X135439212Y-94061841D01*
X135831069Y-94062183D01*
X136193229Y-93912542D01*
X136250806Y-93855066D01*
X136175172Y-94037212D01*
X136175172Y-94037212D01*
G37*
X136175172Y-94037212D02*
X136174830Y-94429069D01*
X136324471Y-94791229D01*
X136601314Y-95068555D01*
X136963212Y-95218828D01*
X137355069Y-95219170D01*
X137541389Y-95142185D01*
X139389490Y-96990285D01*
X139389490Y-103035696D01*
X139048000Y-102694206D01*
X139048000Y-98714546D01*
X139160055Y-98602686D01*
X139310328Y-98240788D01*
X139310670Y-97848931D01*
X139161029Y-97486771D01*
X138884186Y-97209445D01*
X138522288Y-97059172D01*
X138130431Y-97058830D01*
X137768271Y-97208471D01*
X137490945Y-97485314D01*
X137340672Y-97847212D01*
X137340330Y-98239069D01*
X137489971Y-98601229D01*
X137603000Y-98714455D01*
X137603000Y-102993476D01*
X137657997Y-103269965D01*
X137814615Y-103504361D01*
X139385102Y-105074847D01*
X139089107Y-105086293D01*
X138615654Y-105282404D01*
X138521255Y-105545650D01*
X139469000Y-106493395D01*
X139483143Y-106479253D01*
X139662748Y-106658858D01*
X139648605Y-106673000D01*
X139662748Y-106687143D01*
X139483143Y-106866748D01*
X139469000Y-106852605D01*
X139454858Y-106866748D01*
X139275253Y-106687143D01*
X139289395Y-106673000D01*
X138341650Y-105725255D01*
X138199000Y-105776409D01*
X138056350Y-105725255D01*
X137108605Y-106673000D01*
X137122748Y-106687143D01*
X136943143Y-106866748D01*
X136929000Y-106852605D01*
X136914858Y-106866748D01*
X136735253Y-106687143D01*
X136749395Y-106673000D01*
X136735253Y-106658858D01*
X136914858Y-106479253D01*
X136929000Y-106493395D01*
X137876745Y-105545650D01*
X137782346Y-105282404D01*
X137185231Y-105061695D01*
X136860419Y-105074255D01*
X136891500Y-104918000D01*
X136891500Y-100248915D01*
X136999737Y-100140866D01*
X137153824Y-99769783D01*
X137154175Y-99367980D01*
X137000736Y-98996628D01*
X136716866Y-98712263D01*
X136345783Y-98558176D01*
X136191165Y-98558041D01*
X134351500Y-96718376D01*
X134351500Y-95813624D01*
X134944061Y-95221063D01*
X135106099Y-94978557D01*
X135162999Y-94692501D01*
X135162999Y-93947147D01*
X135439212Y-94061841D01*
X135831069Y-94062183D01*
X136193229Y-93912542D01*
X136250806Y-93855066D01*
X136175172Y-94037212D01*
G36*
X126785500Y-101808731D02*
X124414730Y-104179500D01*
X122038490Y-104179500D01*
X122038489Y-100217273D01*
X126274737Y-95981024D01*
X126433069Y-95981162D01*
X126785500Y-95835541D01*
X126785500Y-101808731D01*
X126785500Y-101808731D01*
G37*
X126785500Y-101808731D02*
X124414730Y-104179500D01*
X122038490Y-104179500D01*
X122038489Y-100217273D01*
X126274737Y-95981024D01*
X126433069Y-95981162D01*
X126785500Y-95835541D01*
X126785500Y-101808731D01*
G36*
X156485302Y-74070648D02*
X156752500Y-74249184D01*
X156752500Y-74483120D01*
X156624263Y-74611134D01*
X156470176Y-74982217D01*
X156469825Y-75384020D01*
X156623264Y-75755372D01*
X156752500Y-75884833D01*
X156752500Y-80030000D01*
X156809400Y-80316056D01*
X156971438Y-80558562D01*
X157494500Y-81081625D01*
X157494500Y-84582000D01*
X157551400Y-84868056D01*
X157713438Y-85110562D01*
X159922668Y-87319793D01*
X159772176Y-87682217D01*
X159772038Y-87840017D01*
X159616401Y-88072943D01*
X159559501Y-88358999D01*
X159559501Y-94189511D01*
X159616401Y-94475567D01*
X159778439Y-94718073D01*
X161309949Y-96249584D01*
X161309815Y-96402520D01*
X161463254Y-96773872D01*
X161594353Y-96905200D01*
X158169346Y-96905200D01*
X158057486Y-96793145D01*
X157819461Y-96694309D01*
X158498882Y-96014887D01*
X158498885Y-96014885D01*
X158655503Y-95780489D01*
X158670916Y-95703002D01*
X158710501Y-95504000D01*
X158710500Y-95503995D01*
X158710500Y-90534191D01*
X158799229Y-90497529D01*
X159076555Y-90220686D01*
X159226828Y-89858788D01*
X159227170Y-89466931D01*
X159077529Y-89104771D01*
X158800686Y-88827445D01*
X158580991Y-88736220D01*
X158534504Y-88502512D01*
X158377886Y-88268116D01*
X158377883Y-88268114D01*
X153672885Y-83563115D01*
X153438489Y-83406497D01*
X153162000Y-83351500D01*
X153070546Y-83351500D01*
X152958686Y-83239445D01*
X152876871Y-83205473D01*
X152877170Y-82862931D01*
X152727529Y-82500771D01*
X152450686Y-82223445D01*
X152088788Y-82073172D01*
X151978098Y-82073075D01*
X151937080Y-81973805D01*
X151660237Y-81696479D01*
X151298339Y-81546206D01*
X150906482Y-81545864D01*
X150544322Y-81695505D01*
X150458890Y-81780788D01*
X150441529Y-81738771D01*
X150164686Y-81461445D01*
X149802788Y-81311172D01*
X149410931Y-81310830D01*
X149320941Y-81348013D01*
X149298529Y-81293771D01*
X149021686Y-81016445D01*
X148659788Y-80866172D01*
X148267931Y-80865830D01*
X147905771Y-81015471D01*
X147757676Y-81163308D01*
X147725935Y-81169622D01*
X147656181Y-81183497D01*
X147421785Y-81340115D01*
X147421783Y-81340118D01*
X147334411Y-81427490D01*
X142115017Y-81427490D01*
X142115012Y-81427489D01*
X141884396Y-81473362D01*
X141838523Y-81482487D01*
X141604127Y-81639105D01*
X141604125Y-81639108D01*
X141415733Y-81827500D01*
X138049000Y-81827500D01*
X137994716Y-81838298D01*
X138144828Y-81476788D01*
X138145170Y-81084931D01*
X137995529Y-80722771D01*
X137882500Y-80609545D01*
X137882500Y-78648554D01*
X137994555Y-78536694D01*
X138144828Y-78174796D01*
X138145170Y-77782939D01*
X137995529Y-77420779D01*
X137718686Y-77143453D01*
X137356788Y-76993180D01*
X136964931Y-76992838D01*
X136602771Y-77142479D01*
X136383500Y-77361368D01*
X136383500Y-74216443D01*
X136457500Y-74265889D01*
X136457500Y-75348504D01*
X136512497Y-75624993D01*
X136669115Y-75859389D01*
X137371110Y-76561383D01*
X137371112Y-76561386D01*
X137605508Y-76718004D01*
X137651381Y-76727129D01*
X137881997Y-76773002D01*
X137882002Y-76773001D01*
X141373503Y-76773001D01*
X141574138Y-76733092D01*
X139778391Y-78528839D01*
X139620060Y-78528701D01*
X139257900Y-78678342D01*
X138980574Y-78955185D01*
X138830301Y-79317083D01*
X138829959Y-79708940D01*
X138979600Y-80071100D01*
X139256443Y-80348426D01*
X139618341Y-80498699D01*
X139719047Y-80498787D01*
X139718960Y-80597941D01*
X139868601Y-80960101D01*
X140145444Y-81237427D01*
X140507342Y-81387700D01*
X140899199Y-81388042D01*
X141261359Y-81238401D01*
X141538685Y-80961558D01*
X141688958Y-80599660D01*
X141689064Y-80478500D01*
X145684000Y-80478500D01*
X145960489Y-80423503D01*
X146194885Y-80266885D01*
X152045343Y-74416426D01*
X152420000Y-74490950D01*
X152969151Y-74381717D01*
X153434698Y-74070648D01*
X153690000Y-73688562D01*
X153945302Y-74070648D01*
X154410849Y-74381717D01*
X154960000Y-74490950D01*
X155509151Y-74381717D01*
X155974698Y-74070648D01*
X156230000Y-73688562D01*
X156485302Y-74070648D01*
X156485302Y-74070648D01*
G37*
X156485302Y-74070648D02*
X156752500Y-74249184D01*
X156752500Y-74483120D01*
X156624263Y-74611134D01*
X156470176Y-74982217D01*
X156469825Y-75384020D01*
X156623264Y-75755372D01*
X156752500Y-75884833D01*
X156752500Y-80030000D01*
X156809400Y-80316056D01*
X156971438Y-80558562D01*
X157494500Y-81081625D01*
X157494500Y-84582000D01*
X157551400Y-84868056D01*
X157713438Y-85110562D01*
X159922668Y-87319793D01*
X159772176Y-87682217D01*
X159772038Y-87840017D01*
X159616401Y-88072943D01*
X159559501Y-88358999D01*
X159559501Y-94189511D01*
X159616401Y-94475567D01*
X159778439Y-94718073D01*
X161309949Y-96249584D01*
X161309815Y-96402520D01*
X161463254Y-96773872D01*
X161594353Y-96905200D01*
X158169346Y-96905200D01*
X158057486Y-96793145D01*
X157819461Y-96694309D01*
X158498882Y-96014887D01*
X158498885Y-96014885D01*
X158655503Y-95780489D01*
X158670916Y-95703002D01*
X158710501Y-95504000D01*
X158710500Y-95503995D01*
X158710500Y-90534191D01*
X158799229Y-90497529D01*
X159076555Y-90220686D01*
X159226828Y-89858788D01*
X159227170Y-89466931D01*
X159077529Y-89104771D01*
X158800686Y-88827445D01*
X158580991Y-88736220D01*
X158534504Y-88502512D01*
X158377886Y-88268116D01*
X158377883Y-88268114D01*
X153672885Y-83563115D01*
X153438489Y-83406497D01*
X153162000Y-83351500D01*
X153070546Y-83351500D01*
X152958686Y-83239445D01*
X152876871Y-83205473D01*
X152877170Y-82862931D01*
X152727529Y-82500771D01*
X152450686Y-82223445D01*
X152088788Y-82073172D01*
X151978098Y-82073075D01*
X151937080Y-81973805D01*
X151660237Y-81696479D01*
X151298339Y-81546206D01*
X150906482Y-81545864D01*
X150544322Y-81695505D01*
X150458890Y-81780788D01*
X150441529Y-81738771D01*
X150164686Y-81461445D01*
X149802788Y-81311172D01*
X149410931Y-81310830D01*
X149320941Y-81348013D01*
X149298529Y-81293771D01*
X149021686Y-81016445D01*
X148659788Y-80866172D01*
X148267931Y-80865830D01*
X147905771Y-81015471D01*
X147757676Y-81163308D01*
X147725935Y-81169622D01*
X147656181Y-81183497D01*
X147421785Y-81340115D01*
X147421783Y-81340118D01*
X147334411Y-81427490D01*
X142115017Y-81427490D01*
X142115012Y-81427489D01*
X141884396Y-81473362D01*
X141838523Y-81482487D01*
X141604127Y-81639105D01*
X141604125Y-81639108D01*
X141415733Y-81827500D01*
X138049000Y-81827500D01*
X137994716Y-81838298D01*
X138144828Y-81476788D01*
X138145170Y-81084931D01*
X137995529Y-80722771D01*
X137882500Y-80609545D01*
X137882500Y-78648554D01*
X137994555Y-78536694D01*
X138144828Y-78174796D01*
X138145170Y-77782939D01*
X137995529Y-77420779D01*
X137718686Y-77143453D01*
X137356788Y-76993180D01*
X136964931Y-76992838D01*
X136602771Y-77142479D01*
X136383500Y-77361368D01*
X136383500Y-74216443D01*
X136457500Y-74265889D01*
X136457500Y-75348504D01*
X136512497Y-75624993D01*
X136669115Y-75859389D01*
X137371110Y-76561383D01*
X137371112Y-76561386D01*
X137605508Y-76718004D01*
X137651381Y-76727129D01*
X137881997Y-76773002D01*
X137882002Y-76773001D01*
X141373503Y-76773001D01*
X141574138Y-76733092D01*
X139778391Y-78528839D01*
X139620060Y-78528701D01*
X139257900Y-78678342D01*
X138980574Y-78955185D01*
X138830301Y-79317083D01*
X138829959Y-79708940D01*
X138979600Y-80071100D01*
X139256443Y-80348426D01*
X139618341Y-80498699D01*
X139719047Y-80498787D01*
X139718960Y-80597941D01*
X139868601Y-80960101D01*
X140145444Y-81237427D01*
X140507342Y-81387700D01*
X140899199Y-81388042D01*
X141261359Y-81238401D01*
X141538685Y-80961558D01*
X141688958Y-80599660D01*
X141689064Y-80478500D01*
X145684000Y-80478500D01*
X145960489Y-80423503D01*
X146194885Y-80266885D01*
X152045343Y-74416426D01*
X152420000Y-74490950D01*
X152969151Y-74381717D01*
X153434698Y-74070648D01*
X153690000Y-73688562D01*
X153945302Y-74070648D01*
X154410849Y-74381717D01*
X154960000Y-74490950D01*
X155509151Y-74381717D01*
X155974698Y-74070648D01*
X156230000Y-73688562D01*
X156485302Y-74070648D01*
G36*
X129220999Y-80114501D02*
X129220999Y-82699499D01*
X129275996Y-82975988D01*
X129432614Y-83210384D01*
X132627502Y-86405271D01*
X132627502Y-89629756D01*
X132585115Y-89672143D01*
X132428497Y-89906539D01*
X132373500Y-90183028D01*
X132373500Y-90261448D01*
X132261445Y-90373308D01*
X132111172Y-90735206D01*
X132110830Y-91127063D01*
X132260471Y-91489223D01*
X132537314Y-91766549D01*
X132899212Y-91916822D01*
X133242988Y-91917122D01*
X133242988Y-92049243D01*
X131786500Y-93505730D01*
X131786500Y-88392000D01*
X131731503Y-88115511D01*
X131574885Y-87881115D01*
X131574882Y-87881113D01*
X131541032Y-87847263D01*
X131541170Y-87688931D01*
X131391529Y-87326771D01*
X131114686Y-87049445D01*
X130752788Y-86899172D01*
X130360931Y-86898830D01*
X129998771Y-87048471D01*
X129721445Y-87325314D01*
X129687473Y-87407129D01*
X129497616Y-87406963D01*
X129359529Y-87072767D01*
X129082686Y-86795441D01*
X128720788Y-86645168D01*
X128328931Y-86644826D01*
X127966771Y-86794467D01*
X127689445Y-87071310D01*
X127646112Y-87175667D01*
X127498824Y-87175538D01*
X127136664Y-87325179D01*
X126859338Y-87602022D01*
X126709065Y-87963920D01*
X126708723Y-88355777D01*
X126858364Y-88717937D01*
X127135207Y-88995263D01*
X127497105Y-89145536D01*
X127657091Y-89145676D01*
X128817500Y-90306084D01*
X128817500Y-93249035D01*
X128582931Y-93248830D01*
X128220771Y-93398471D01*
X127943445Y-93675314D01*
X127904379Y-93769395D01*
X127887639Y-93728881D01*
X127610796Y-93451555D01*
X127248898Y-93301282D01*
X126857041Y-93300940D01*
X126494881Y-93450581D01*
X126289950Y-93655155D01*
X126034686Y-93399445D01*
X125672788Y-93249172D01*
X125280931Y-93248830D01*
X124918771Y-93398471D01*
X124797578Y-93519453D01*
X124523552Y-93244948D01*
X124161654Y-93094675D01*
X123769797Y-93094333D01*
X123407637Y-93243974D01*
X123250744Y-93400594D01*
X123193403Y-93412000D01*
X122959007Y-93568618D01*
X122768895Y-93758730D01*
X122612277Y-93993126D01*
X122603710Y-94036193D01*
X122472201Y-94036078D01*
X122110041Y-94185719D01*
X121832715Y-94462562D01*
X121682442Y-94824460D01*
X121682302Y-94984446D01*
X120226457Y-96440291D01*
X120226457Y-94715357D01*
X124716885Y-90224929D01*
X124873503Y-89990533D01*
X124928501Y-89714044D01*
X124928500Y-89714039D01*
X124928500Y-83865270D01*
X128560738Y-80233032D01*
X128719069Y-80233170D01*
X129081229Y-80083529D01*
X129263316Y-79901759D01*
X129220999Y-80114501D01*
X129220999Y-80114501D01*
G37*
X129220999Y-80114501D02*
X129220999Y-82699499D01*
X129275996Y-82975988D01*
X129432614Y-83210384D01*
X132627502Y-86405271D01*
X132627502Y-89629756D01*
X132585115Y-89672143D01*
X132428497Y-89906539D01*
X132373500Y-90183028D01*
X132373500Y-90261448D01*
X132261445Y-90373308D01*
X132111172Y-90735206D01*
X132110830Y-91127063D01*
X132260471Y-91489223D01*
X132537314Y-91766549D01*
X132899212Y-91916822D01*
X133242988Y-91917122D01*
X133242988Y-92049243D01*
X131786500Y-93505730D01*
X131786500Y-88392000D01*
X131731503Y-88115511D01*
X131574885Y-87881115D01*
X131574882Y-87881113D01*
X131541032Y-87847263D01*
X131541170Y-87688931D01*
X131391529Y-87326771D01*
X131114686Y-87049445D01*
X130752788Y-86899172D01*
X130360931Y-86898830D01*
X129998771Y-87048471D01*
X129721445Y-87325314D01*
X129687473Y-87407129D01*
X129497616Y-87406963D01*
X129359529Y-87072767D01*
X129082686Y-86795441D01*
X128720788Y-86645168D01*
X128328931Y-86644826D01*
X127966771Y-86794467D01*
X127689445Y-87071310D01*
X127646112Y-87175667D01*
X127498824Y-87175538D01*
X127136664Y-87325179D01*
X126859338Y-87602022D01*
X126709065Y-87963920D01*
X126708723Y-88355777D01*
X126858364Y-88717937D01*
X127135207Y-88995263D01*
X127497105Y-89145536D01*
X127657091Y-89145676D01*
X128817500Y-90306084D01*
X128817500Y-93249035D01*
X128582931Y-93248830D01*
X128220771Y-93398471D01*
X127943445Y-93675314D01*
X127904379Y-93769395D01*
X127887639Y-93728881D01*
X127610796Y-93451555D01*
X127248898Y-93301282D01*
X126857041Y-93300940D01*
X126494881Y-93450581D01*
X126289950Y-93655155D01*
X126034686Y-93399445D01*
X125672788Y-93249172D01*
X125280931Y-93248830D01*
X124918771Y-93398471D01*
X124797578Y-93519453D01*
X124523552Y-93244948D01*
X124161654Y-93094675D01*
X123769797Y-93094333D01*
X123407637Y-93243974D01*
X123250744Y-93400594D01*
X123193403Y-93412000D01*
X122959007Y-93568618D01*
X122768895Y-93758730D01*
X122612277Y-93993126D01*
X122603710Y-94036193D01*
X122472201Y-94036078D01*
X122110041Y-94185719D01*
X121832715Y-94462562D01*
X121682442Y-94824460D01*
X121682302Y-94984446D01*
X120226457Y-96440291D01*
X120226457Y-94715357D01*
X124716885Y-90224929D01*
X124873503Y-89990533D01*
X124928501Y-89714044D01*
X124928500Y-89714039D01*
X124928500Y-83865270D01*
X128560738Y-80233032D01*
X128719069Y-80233170D01*
X129081229Y-80083529D01*
X129263316Y-79901759D01*
X129220999Y-80114501D01*
G36*
X157144501Y-89078270D02*
X157144501Y-89287001D01*
X157199498Y-89563490D01*
X157257011Y-89649565D01*
X157256830Y-89857069D01*
X157270595Y-89890384D01*
X157265500Y-89916000D01*
X157265500Y-95204731D01*
X156926730Y-95543500D01*
X156509269Y-95543500D01*
X155600384Y-94634614D01*
X155365988Y-94477996D01*
X155089499Y-94422999D01*
X148042004Y-94422999D01*
X148041999Y-94422998D01*
X147835777Y-94464019D01*
X147765510Y-94477996D01*
X147531114Y-94634614D01*
X147531112Y-94634617D01*
X146466498Y-95699230D01*
X142108384Y-91341116D01*
X141960793Y-91242499D01*
X148748001Y-91242499D01*
X149024490Y-91187502D01*
X149258886Y-91030884D01*
X151513885Y-88775885D01*
X151670503Y-88541489D01*
X151725500Y-88265000D01*
X151725500Y-85419546D01*
X151837555Y-85307686D01*
X151979468Y-84965921D01*
X152203212Y-85058828D01*
X152595069Y-85059170D01*
X152957229Y-84909529D01*
X152966502Y-84900272D01*
X157144501Y-89078270D01*
X157144501Y-89078270D01*
G37*
X157144501Y-89078270D02*
X157144501Y-89287001D01*
X157199498Y-89563490D01*
X157257011Y-89649565D01*
X157256830Y-89857069D01*
X157270595Y-89890384D01*
X157265500Y-89916000D01*
X157265500Y-95204731D01*
X156926730Y-95543500D01*
X156509269Y-95543500D01*
X155600384Y-94634614D01*
X155365988Y-94477996D01*
X155089499Y-94422999D01*
X148042004Y-94422999D01*
X148041999Y-94422998D01*
X147835777Y-94464019D01*
X147765510Y-94477996D01*
X147531114Y-94634614D01*
X147531112Y-94634617D01*
X146466498Y-95699230D01*
X142108384Y-91341116D01*
X141960793Y-91242499D01*
X148748001Y-91242499D01*
X149024490Y-91187502D01*
X149258886Y-91030884D01*
X151513885Y-88775885D01*
X151670503Y-88541489D01*
X151725500Y-88265000D01*
X151725500Y-85419546D01*
X151837555Y-85307686D01*
X151979468Y-84965921D01*
X152203212Y-85058828D01*
X152595069Y-85059170D01*
X152957229Y-84909529D01*
X152966502Y-84900272D01*
X157144501Y-89078270D01*
G36*
X137355054Y-90584887D02*
X137459559Y-90654715D01*
X137594472Y-90981230D01*
X137742485Y-91129501D01*
X136239999Y-91129501D01*
X135963510Y-91184498D01*
X135914834Y-91217022D01*
X135694931Y-91216830D01*
X135332771Y-91366471D01*
X135162999Y-91535947D01*
X135162999Y-90225615D01*
X135683083Y-89705531D01*
X135836020Y-89705665D01*
X136207372Y-89552226D01*
X136264933Y-89494766D01*
X137355054Y-90584887D01*
X137355054Y-90584887D01*
G37*
X137355054Y-90584887D02*
X137459559Y-90654715D01*
X137594472Y-90981230D01*
X137742485Y-91129501D01*
X136239999Y-91129501D01*
X135963510Y-91184498D01*
X135914834Y-91217022D01*
X135694931Y-91216830D01*
X135332771Y-91366471D01*
X135162999Y-91535947D01*
X135162999Y-90225615D01*
X135683083Y-89705531D01*
X135836020Y-89705665D01*
X136207372Y-89552226D01*
X136264933Y-89494766D01*
X137355054Y-90584887D01*
G36*
X161545889Y-82664379D02*
X161520955Y-82733910D01*
X162468700Y-83681655D01*
X162482843Y-83667513D01*
X162662448Y-83847118D01*
X162648305Y-83861260D01*
X162662448Y-83875403D01*
X162482843Y-84055008D01*
X162468700Y-84040865D01*
X161520955Y-84988610D01*
X161615354Y-85251856D01*
X161952291Y-85376397D01*
X161287115Y-86041573D01*
X161130497Y-86275969D01*
X161107700Y-86390575D01*
X160178803Y-85461679D01*
X160245603Y-85461737D01*
X160833956Y-85218635D01*
X161269950Y-84783401D01*
X161341350Y-84809005D01*
X162289095Y-83861260D01*
X161341350Y-82913515D01*
X161269412Y-82939312D01*
X160922996Y-82592290D01*
X161198942Y-82316826D01*
X161545889Y-82664379D01*
X161545889Y-82664379D01*
G37*
X161545889Y-82664379D02*
X161520955Y-82733910D01*
X162468700Y-83681655D01*
X162482843Y-83667513D01*
X162662448Y-83847118D01*
X162648305Y-83861260D01*
X162662448Y-83875403D01*
X162482843Y-84055008D01*
X162468700Y-84040865D01*
X161520955Y-84988610D01*
X161615354Y-85251856D01*
X161952291Y-85376397D01*
X161287115Y-86041573D01*
X161130497Y-86275969D01*
X161107700Y-86390575D01*
X160178803Y-85461679D01*
X160245603Y-85461737D01*
X160833956Y-85218635D01*
X161269950Y-84783401D01*
X161341350Y-84809005D01*
X162289095Y-83861260D01*
X161341350Y-82913515D01*
X161269412Y-82939312D01*
X160922996Y-82592290D01*
X161198942Y-82316826D01*
X161545889Y-82664379D01*
G36*
X134888500Y-85375020D02*
X134670741Y-85374830D01*
X134308581Y-85524471D01*
X134031255Y-85801314D01*
X134018166Y-85832836D01*
X134017505Y-85829513D01*
X133860887Y-85595117D01*
X133860884Y-85595115D01*
X130775037Y-82509267D01*
X131113229Y-82369529D01*
X131390555Y-82092686D01*
X131540828Y-81730788D01*
X131540968Y-81570802D01*
X134888500Y-78223269D01*
X134888500Y-85375020D01*
X134888500Y-85375020D01*
G37*
X134888500Y-85375020D02*
X134670741Y-85374830D01*
X134308581Y-85524471D01*
X134031255Y-85801314D01*
X134018166Y-85832836D01*
X134017505Y-85829513D01*
X133860887Y-85595117D01*
X133860884Y-85595115D01*
X130775037Y-82509267D01*
X131113229Y-82369529D01*
X131390555Y-82092686D01*
X131540828Y-81730788D01*
X131540968Y-81570802D01*
X134888500Y-78223269D01*
X134888500Y-85375020D01*
G36*
X132597134Y-70613262D02*
X132740557Y-70709095D01*
X132538771Y-70792471D01*
X132261445Y-71069314D01*
X132111172Y-71431212D01*
X132110830Y-71823069D01*
X132260471Y-72185229D01*
X132537314Y-72462555D01*
X132899212Y-72612828D01*
X133059198Y-72612968D01*
X134405500Y-73959270D01*
X134405500Y-75862683D01*
X134162686Y-75619445D01*
X133800788Y-75469172D01*
X133408931Y-75468830D01*
X133046771Y-75618471D01*
X132933545Y-75731500D01*
X121158000Y-75731500D01*
X120881511Y-75786497D01*
X120647115Y-75943115D01*
X120647113Y-75943118D01*
X119598015Y-76992215D01*
X119441397Y-77226611D01*
X119386400Y-77503100D01*
X119386400Y-77692459D01*
X119238531Y-77692330D01*
X118876371Y-77841971D01*
X118599045Y-78118814D01*
X118448772Y-78480712D01*
X118448632Y-78640698D01*
X117042000Y-80047330D01*
X117042000Y-70612000D01*
X116987954Y-70340295D01*
X116834046Y-70109954D01*
X116051592Y-69327500D01*
X131311372Y-69327500D01*
X132597134Y-70613262D01*
X132597134Y-70613262D01*
G37*
X132597134Y-70613262D02*
X132740557Y-70709095D01*
X132538771Y-70792471D01*
X132261445Y-71069314D01*
X132111172Y-71431212D01*
X132110830Y-71823069D01*
X132260471Y-72185229D01*
X132537314Y-72462555D01*
X132899212Y-72612828D01*
X133059198Y-72612968D01*
X134405500Y-73959270D01*
X134405500Y-75862683D01*
X134162686Y-75619445D01*
X133800788Y-75469172D01*
X133408931Y-75468830D01*
X133046771Y-75618471D01*
X132933545Y-75731500D01*
X121158000Y-75731500D01*
X120881511Y-75786497D01*
X120647115Y-75943115D01*
X120647113Y-75943118D01*
X119598015Y-76992215D01*
X119441397Y-77226611D01*
X119386400Y-77503100D01*
X119386400Y-77692459D01*
X119238531Y-77692330D01*
X118876371Y-77841971D01*
X118599045Y-78118814D01*
X118448772Y-78480712D01*
X118448632Y-78640698D01*
X117042000Y-80047330D01*
X117042000Y-70612000D01*
X116987954Y-70340295D01*
X116834046Y-70109954D01*
X116051592Y-69327500D01*
X131311372Y-69327500D01*
X132597134Y-70613262D01*
G36*
X133045314Y-77288555D02*
X133407212Y-77438828D01*
X133629209Y-77439022D01*
X131794978Y-79273253D01*
X131795170Y-79052931D01*
X131645529Y-78690771D01*
X131368686Y-78413445D01*
X131006788Y-78263172D01*
X130614931Y-78262830D01*
X130252771Y-78412471D01*
X129975445Y-78689314D01*
X129825172Y-79051212D01*
X129825032Y-79211198D01*
X129450165Y-79586065D01*
X129508828Y-79444788D01*
X129509170Y-79052931D01*
X129359529Y-78690771D01*
X129082686Y-78413445D01*
X128720788Y-78263172D01*
X128328931Y-78262830D01*
X128190184Y-78320159D01*
X128164325Y-78257575D01*
X127887482Y-77980249D01*
X127525584Y-77829976D01*
X127133727Y-77829634D01*
X126771567Y-77979275D01*
X126494241Y-78256118D01*
X126343968Y-78618016D01*
X126343914Y-78679759D01*
X126288686Y-78624435D01*
X126254849Y-78610385D01*
X126255044Y-78386679D01*
X126105403Y-78024519D01*
X125828560Y-77747193D01*
X125466662Y-77596920D01*
X125074805Y-77596578D01*
X124712645Y-77746219D01*
X124435319Y-78023062D01*
X124285046Y-78384960D01*
X124284996Y-78441795D01*
X124256696Y-78413445D01*
X123912787Y-78270642D01*
X123771529Y-77928771D01*
X123494686Y-77651445D01*
X123132788Y-77501172D01*
X122740931Y-77500830D01*
X122378771Y-77650471D01*
X122101445Y-77927314D01*
X122099657Y-77931621D01*
X121993529Y-77674771D01*
X121716686Y-77397445D01*
X121377264Y-77256505D01*
X121457269Y-77176500D01*
X132933454Y-77176500D01*
X133045314Y-77288555D01*
X133045314Y-77288555D01*
G37*
X133045314Y-77288555D02*
X133407212Y-77438828D01*
X133629209Y-77439022D01*
X131794978Y-79273253D01*
X131795170Y-79052931D01*
X131645529Y-78690771D01*
X131368686Y-78413445D01*
X131006788Y-78263172D01*
X130614931Y-78262830D01*
X130252771Y-78412471D01*
X129975445Y-78689314D01*
X129825172Y-79051212D01*
X129825032Y-79211198D01*
X129450165Y-79586065D01*
X129508828Y-79444788D01*
X129509170Y-79052931D01*
X129359529Y-78690771D01*
X129082686Y-78413445D01*
X128720788Y-78263172D01*
X128328931Y-78262830D01*
X128190184Y-78320159D01*
X128164325Y-78257575D01*
X127887482Y-77980249D01*
X127525584Y-77829976D01*
X127133727Y-77829634D01*
X126771567Y-77979275D01*
X126494241Y-78256118D01*
X126343968Y-78618016D01*
X126343914Y-78679759D01*
X126288686Y-78624435D01*
X126254849Y-78610385D01*
X126255044Y-78386679D01*
X126105403Y-78024519D01*
X125828560Y-77747193D01*
X125466662Y-77596920D01*
X125074805Y-77596578D01*
X124712645Y-77746219D01*
X124435319Y-78023062D01*
X124285046Y-78384960D01*
X124284996Y-78441795D01*
X124256696Y-78413445D01*
X123912787Y-78270642D01*
X123771529Y-77928771D01*
X123494686Y-77651445D01*
X123132788Y-77501172D01*
X122740931Y-77500830D01*
X122378771Y-77650471D01*
X122101445Y-77927314D01*
X122099657Y-77931621D01*
X121993529Y-77674771D01*
X121716686Y-77397445D01*
X121377264Y-77256505D01*
X121457269Y-77176500D01*
X132933454Y-77176500D01*
X133045314Y-77288555D01*
G36*
X148865302Y-74070648D02*
X149330849Y-74381717D01*
X149880000Y-74490950D01*
X149939021Y-74479210D01*
X145384730Y-79033500D01*
X141351002Y-79033500D01*
X141308894Y-79041876D01*
X143770882Y-76579887D01*
X143770885Y-76579885D01*
X143927503Y-76345489D01*
X143941817Y-76273529D01*
X143982501Y-76069000D01*
X143982500Y-76068995D01*
X143982500Y-74202412D01*
X144250849Y-74381717D01*
X144800000Y-74490950D01*
X145349151Y-74381717D01*
X145814698Y-74070648D01*
X146070000Y-73688562D01*
X146325302Y-74070648D01*
X146790849Y-74381717D01*
X147340000Y-74490950D01*
X147889151Y-74381717D01*
X148354698Y-74070648D01*
X148610000Y-73688562D01*
X148865302Y-74070648D01*
X148865302Y-74070648D01*
G37*
X148865302Y-74070648D02*
X149330849Y-74381717D01*
X149880000Y-74490950D01*
X149939021Y-74479210D01*
X145384730Y-79033500D01*
X141351002Y-79033500D01*
X141308894Y-79041876D01*
X143770882Y-76579887D01*
X143770885Y-76579885D01*
X143927503Y-76345489D01*
X143941817Y-76273529D01*
X143982501Y-76069000D01*
X143982500Y-76068995D01*
X143982500Y-74202412D01*
X144250849Y-74381717D01*
X144800000Y-74490950D01*
X145349151Y-74381717D01*
X145814698Y-74070648D01*
X146070000Y-73688562D01*
X146325302Y-74070648D01*
X146790849Y-74381717D01*
X147340000Y-74490950D01*
X147889151Y-74381717D01*
X148354698Y-74070648D01*
X148610000Y-73688562D01*
X148865302Y-74070648D01*
G36*
X158881376Y-59768793D02*
X159469304Y-60012922D01*
X160105903Y-60013477D01*
X160567500Y-59822749D01*
X160567500Y-71328730D01*
X158935000Y-72961230D01*
X158935000Y-72184050D01*
X158825767Y-71634899D01*
X158514698Y-71169352D01*
X158217865Y-70971014D01*
X158190600Y-70833944D01*
X158151383Y-70775252D01*
X158028562Y-70591437D01*
X156931224Y-69494100D01*
X156957500Y-69362000D01*
X156957500Y-66847440D01*
X158300000Y-66847440D01*
X158535317Y-66803162D01*
X158751441Y-66664090D01*
X158896431Y-66451890D01*
X158947440Y-66200000D01*
X158947440Y-63800000D01*
X158903162Y-63564683D01*
X158764090Y-63348559D01*
X158551890Y-63203569D01*
X158300000Y-63152560D01*
X158222500Y-63152560D01*
X158222500Y-62504000D01*
X158167503Y-62227511D01*
X158010885Y-61993115D01*
X157228885Y-61211115D01*
X156994489Y-61054497D01*
X156718000Y-60999500D01*
X155956005Y-60999500D01*
X155956000Y-60999499D01*
X155679511Y-61054497D01*
X155447740Y-61209361D01*
X155447740Y-60579000D01*
X155403462Y-60343683D01*
X155264390Y-60127559D01*
X155205300Y-60087185D01*
X155205300Y-59939352D01*
X155614256Y-59770375D01*
X155979242Y-59406026D01*
X156341376Y-59768793D01*
X156929304Y-60012922D01*
X157565903Y-60013477D01*
X158154256Y-59770375D01*
X158519242Y-59406026D01*
X158881376Y-59768793D01*
X158881376Y-59768793D01*
G37*
X158881376Y-59768793D02*
X159469304Y-60012922D01*
X160105903Y-60013477D01*
X160567500Y-59822749D01*
X160567500Y-71328730D01*
X158935000Y-72961230D01*
X158935000Y-72184050D01*
X158825767Y-71634899D01*
X158514698Y-71169352D01*
X158217865Y-70971014D01*
X158190600Y-70833944D01*
X158151383Y-70775252D01*
X158028562Y-70591437D01*
X156931224Y-69494100D01*
X156957500Y-69362000D01*
X156957500Y-66847440D01*
X158300000Y-66847440D01*
X158535317Y-66803162D01*
X158751441Y-66664090D01*
X158896431Y-66451890D01*
X158947440Y-66200000D01*
X158947440Y-63800000D01*
X158903162Y-63564683D01*
X158764090Y-63348559D01*
X158551890Y-63203569D01*
X158300000Y-63152560D01*
X158222500Y-63152560D01*
X158222500Y-62504000D01*
X158167503Y-62227511D01*
X158010885Y-61993115D01*
X157228885Y-61211115D01*
X156994489Y-61054497D01*
X156718000Y-60999500D01*
X155956005Y-60999500D01*
X155956000Y-60999499D01*
X155679511Y-61054497D01*
X155447740Y-61209361D01*
X155447740Y-60579000D01*
X155403462Y-60343683D01*
X155264390Y-60127559D01*
X155205300Y-60087185D01*
X155205300Y-59939352D01*
X155614256Y-59770375D01*
X155979242Y-59406026D01*
X156341376Y-59768793D01*
X156929304Y-60012922D01*
X157565903Y-60013477D01*
X158154256Y-59770375D01*
X158519242Y-59406026D01*
X158881376Y-59768793D01*
G36*
X109645955Y-57152411D02*
X109306887Y-57968978D01*
X109306115Y-58853143D01*
X109643758Y-59670300D01*
X110268411Y-60296045D01*
X111084978Y-60635113D01*
X111969143Y-60635885D01*
X112786300Y-60298242D01*
X113412045Y-59673589D01*
X113643816Y-59115422D01*
X113727625Y-59318256D01*
X114177376Y-59768793D01*
X114765304Y-60012922D01*
X115401903Y-60013477D01*
X115990256Y-59770375D01*
X116355242Y-59406026D01*
X116717376Y-59768793D01*
X117305304Y-60012922D01*
X117941903Y-60013477D01*
X118530256Y-59770375D01*
X118895242Y-59406026D01*
X119257376Y-59768793D01*
X119845304Y-60012922D01*
X120067115Y-60013115D01*
X119851262Y-60228968D01*
X119692931Y-60228830D01*
X119330771Y-60378471D01*
X119053445Y-60655314D01*
X118903172Y-61017212D01*
X118902830Y-61409069D01*
X119052471Y-61771229D01*
X119329314Y-62048555D01*
X119691212Y-62198828D01*
X120083069Y-62199170D01*
X120445229Y-62049529D01*
X120522893Y-61972000D01*
X120599314Y-62048555D01*
X120961212Y-62198828D01*
X121353069Y-62199170D01*
X121715229Y-62049529D01*
X121992555Y-61772686D01*
X122142828Y-61410788D01*
X122142968Y-61250802D01*
X122219269Y-61174500D01*
X134653731Y-61174500D01*
X133313262Y-62514968D01*
X133154931Y-62514830D01*
X132792771Y-62664471D01*
X132515445Y-62941314D01*
X132365172Y-63303212D01*
X132364830Y-63695069D01*
X132514471Y-64057229D01*
X132791314Y-64334555D01*
X133153212Y-64484828D01*
X133545069Y-64485170D01*
X133574522Y-64473000D01*
X135745000Y-64473000D01*
X135745000Y-64873000D01*
X137053000Y-64873000D01*
X137053000Y-63330085D01*
X136830961Y-63208096D01*
X136748181Y-63225633D01*
X136255104Y-63495500D01*
X135902834Y-63933517D01*
X135745000Y-64473000D01*
X133574522Y-64473000D01*
X133907229Y-64335529D01*
X134184555Y-64058686D01*
X134334828Y-63696788D01*
X134334968Y-63536802D01*
X135679987Y-62191782D01*
X135679830Y-62371590D01*
X135829471Y-62733750D01*
X136106314Y-63011076D01*
X136468212Y-63161349D01*
X136860069Y-63161691D01*
X137222229Y-63012050D01*
X137281883Y-62952500D01*
X140162730Y-62952500D01*
X140967115Y-63756885D01*
X141063569Y-63821334D01*
X140990000Y-63931438D01*
X140734698Y-63549352D01*
X140269151Y-63238283D01*
X139720000Y-63129050D01*
X139170849Y-63238283D01*
X138705302Y-63549352D01*
X138452493Y-63927707D01*
X138104896Y-63495500D01*
X137611819Y-63225633D01*
X137529039Y-63208096D01*
X137307000Y-63330085D01*
X137307000Y-64873000D01*
X137327000Y-64873000D01*
X137327000Y-65127000D01*
X137307000Y-65127000D01*
X137307000Y-65147000D01*
X137053000Y-65147000D01*
X137053000Y-65127000D01*
X135745000Y-65127000D01*
X135745000Y-65527000D01*
X135902834Y-66066483D01*
X135913303Y-66079500D01*
X124492254Y-66079500D01*
X124449869Y-66037115D01*
X124215473Y-65880497D01*
X124158056Y-65869076D01*
X124002696Y-65713445D01*
X123640798Y-65563172D01*
X123248941Y-65562830D01*
X122886781Y-65712471D01*
X122609455Y-65989314D01*
X122459182Y-66351212D01*
X122458840Y-66743069D01*
X122604461Y-67095500D01*
X111805270Y-67095500D01*
X108926500Y-64216730D01*
X108926500Y-64170546D01*
X109038555Y-64058686D01*
X109188828Y-63696788D01*
X109188829Y-63695069D01*
X114076830Y-63695069D01*
X114226471Y-64057229D01*
X114503314Y-64334555D01*
X114865212Y-64484828D01*
X115025198Y-64484968D01*
X116583115Y-66042885D01*
X116817511Y-66199503D01*
X117094000Y-66254501D01*
X117094005Y-66254500D01*
X119471454Y-66254500D01*
X119583314Y-66366555D01*
X119945212Y-66516828D01*
X120337069Y-66517170D01*
X120699229Y-66367529D01*
X120976555Y-66090686D01*
X121126828Y-65728788D01*
X121127170Y-65336931D01*
X120977529Y-64974771D01*
X120700686Y-64697445D01*
X120338788Y-64547172D01*
X119946931Y-64546830D01*
X119584771Y-64696471D01*
X119471545Y-64809500D01*
X117393270Y-64809500D01*
X116047032Y-63463262D01*
X116047170Y-63304931D01*
X115897529Y-62942771D01*
X115620686Y-62665445D01*
X115258788Y-62515172D01*
X114866931Y-62514830D01*
X114504771Y-62664471D01*
X114227445Y-62941314D01*
X114077172Y-63303212D01*
X114076830Y-63695069D01*
X109188829Y-63695069D01*
X109189170Y-63304931D01*
X109039529Y-62942771D01*
X108762686Y-62665445D01*
X108400788Y-62515172D01*
X108008931Y-62514830D01*
X107646771Y-62664471D01*
X107369445Y-62941314D01*
X107219172Y-63303212D01*
X107218830Y-63695069D01*
X107368471Y-64057229D01*
X107481500Y-64170455D01*
X107481500Y-64516000D01*
X107536497Y-64792489D01*
X107693115Y-65026885D01*
X108040086Y-65373856D01*
X107886628Y-65437264D01*
X107602263Y-65721134D01*
X107448176Y-66092217D01*
X107447825Y-66494020D01*
X107601264Y-66865372D01*
X107885134Y-67149737D01*
X108256217Y-67303824D01*
X108410835Y-67303959D01*
X109738876Y-68632000D01*
X98846092Y-68632000D01*
X96976000Y-66761908D01*
X96976000Y-57380592D01*
X97766592Y-56590000D01*
X110209349Y-56590000D01*
X109645955Y-57152411D01*
X109645955Y-57152411D01*
G37*
X109645955Y-57152411D02*
X109306887Y-57968978D01*
X109306115Y-58853143D01*
X109643758Y-59670300D01*
X110268411Y-60296045D01*
X111084978Y-60635113D01*
X111969143Y-60635885D01*
X112786300Y-60298242D01*
X113412045Y-59673589D01*
X113643816Y-59115422D01*
X113727625Y-59318256D01*
X114177376Y-59768793D01*
X114765304Y-60012922D01*
X115401903Y-60013477D01*
X115990256Y-59770375D01*
X116355242Y-59406026D01*
X116717376Y-59768793D01*
X117305304Y-60012922D01*
X117941903Y-60013477D01*
X118530256Y-59770375D01*
X118895242Y-59406026D01*
X119257376Y-59768793D01*
X119845304Y-60012922D01*
X120067115Y-60013115D01*
X119851262Y-60228968D01*
X119692931Y-60228830D01*
X119330771Y-60378471D01*
X119053445Y-60655314D01*
X118903172Y-61017212D01*
X118902830Y-61409069D01*
X119052471Y-61771229D01*
X119329314Y-62048555D01*
X119691212Y-62198828D01*
X120083069Y-62199170D01*
X120445229Y-62049529D01*
X120522893Y-61972000D01*
X120599314Y-62048555D01*
X120961212Y-62198828D01*
X121353069Y-62199170D01*
X121715229Y-62049529D01*
X121992555Y-61772686D01*
X122142828Y-61410788D01*
X122142968Y-61250802D01*
X122219269Y-61174500D01*
X134653731Y-61174500D01*
X133313262Y-62514968D01*
X133154931Y-62514830D01*
X132792771Y-62664471D01*
X132515445Y-62941314D01*
X132365172Y-63303212D01*
X132364830Y-63695069D01*
X132514471Y-64057229D01*
X132791314Y-64334555D01*
X133153212Y-64484828D01*
X133545069Y-64485170D01*
X133574522Y-64473000D01*
X135745000Y-64473000D01*
X135745000Y-64873000D01*
X137053000Y-64873000D01*
X137053000Y-63330085D01*
X136830961Y-63208096D01*
X136748181Y-63225633D01*
X136255104Y-63495500D01*
X135902834Y-63933517D01*
X135745000Y-64473000D01*
X133574522Y-64473000D01*
X133907229Y-64335529D01*
X134184555Y-64058686D01*
X134334828Y-63696788D01*
X134334968Y-63536802D01*
X135679987Y-62191782D01*
X135679830Y-62371590D01*
X135829471Y-62733750D01*
X136106314Y-63011076D01*
X136468212Y-63161349D01*
X136860069Y-63161691D01*
X137222229Y-63012050D01*
X137281883Y-62952500D01*
X140162730Y-62952500D01*
X140967115Y-63756885D01*
X141063569Y-63821334D01*
X140990000Y-63931438D01*
X140734698Y-63549352D01*
X140269151Y-63238283D01*
X139720000Y-63129050D01*
X139170849Y-63238283D01*
X138705302Y-63549352D01*
X138452493Y-63927707D01*
X138104896Y-63495500D01*
X137611819Y-63225633D01*
X137529039Y-63208096D01*
X137307000Y-63330085D01*
X137307000Y-64873000D01*
X137327000Y-64873000D01*
X137327000Y-65127000D01*
X137307000Y-65127000D01*
X137307000Y-65147000D01*
X137053000Y-65147000D01*
X137053000Y-65127000D01*
X135745000Y-65127000D01*
X135745000Y-65527000D01*
X135902834Y-66066483D01*
X135913303Y-66079500D01*
X124492254Y-66079500D01*
X124449869Y-66037115D01*
X124215473Y-65880497D01*
X124158056Y-65869076D01*
X124002696Y-65713445D01*
X123640798Y-65563172D01*
X123248941Y-65562830D01*
X122886781Y-65712471D01*
X122609455Y-65989314D01*
X122459182Y-66351212D01*
X122458840Y-66743069D01*
X122604461Y-67095500D01*
X111805270Y-67095500D01*
X108926500Y-64216730D01*
X108926500Y-64170546D01*
X109038555Y-64058686D01*
X109188828Y-63696788D01*
X109188829Y-63695069D01*
X114076830Y-63695069D01*
X114226471Y-64057229D01*
X114503314Y-64334555D01*
X114865212Y-64484828D01*
X115025198Y-64484968D01*
X116583115Y-66042885D01*
X116817511Y-66199503D01*
X117094000Y-66254501D01*
X117094005Y-66254500D01*
X119471454Y-66254500D01*
X119583314Y-66366555D01*
X119945212Y-66516828D01*
X120337069Y-66517170D01*
X120699229Y-66367529D01*
X120976555Y-66090686D01*
X121126828Y-65728788D01*
X121127170Y-65336931D01*
X120977529Y-64974771D01*
X120700686Y-64697445D01*
X120338788Y-64547172D01*
X119946931Y-64546830D01*
X119584771Y-64696471D01*
X119471545Y-64809500D01*
X117393270Y-64809500D01*
X116047032Y-63463262D01*
X116047170Y-63304931D01*
X115897529Y-62942771D01*
X115620686Y-62665445D01*
X115258788Y-62515172D01*
X114866931Y-62514830D01*
X114504771Y-62664471D01*
X114227445Y-62941314D01*
X114077172Y-63303212D01*
X114076830Y-63695069D01*
X109188829Y-63695069D01*
X109189170Y-63304931D01*
X109039529Y-62942771D01*
X108762686Y-62665445D01*
X108400788Y-62515172D01*
X108008931Y-62514830D01*
X107646771Y-62664471D01*
X107369445Y-62941314D01*
X107219172Y-63303212D01*
X107218830Y-63695069D01*
X107368471Y-64057229D01*
X107481500Y-64170455D01*
X107481500Y-64516000D01*
X107536497Y-64792489D01*
X107693115Y-65026885D01*
X108040086Y-65373856D01*
X107886628Y-65437264D01*
X107602263Y-65721134D01*
X107448176Y-66092217D01*
X107447825Y-66494020D01*
X107601264Y-66865372D01*
X107885134Y-67149737D01*
X108256217Y-67303824D01*
X108410835Y-67303959D01*
X109738876Y-68632000D01*
X98846092Y-68632000D01*
X96976000Y-66761908D01*
X96976000Y-57380592D01*
X97766592Y-56590000D01*
X110209349Y-56590000D01*
X109645955Y-57152411D01*
G36*
X125657445Y-56591314D02*
X125565263Y-56813313D01*
X125564696Y-56813078D01*
X124928097Y-56812523D01*
X124339744Y-57055625D01*
X123903750Y-57490859D01*
X123832350Y-57465255D01*
X122884605Y-58413000D01*
X122898748Y-58427143D01*
X122719143Y-58606748D01*
X122705000Y-58592605D01*
X122690858Y-58606748D01*
X122511253Y-58427143D01*
X122525395Y-58413000D01*
X121577650Y-57465255D01*
X121505712Y-57491052D01*
X121300669Y-57285650D01*
X121757255Y-57285650D01*
X122705000Y-58233395D01*
X123652745Y-57285650D01*
X123558346Y-57022404D01*
X122961231Y-56801695D01*
X122325107Y-56826293D01*
X121851654Y-57022404D01*
X121757255Y-57285650D01*
X121300669Y-57285650D01*
X121072624Y-57057207D01*
X120484696Y-56813078D01*
X119848097Y-56812523D01*
X119259744Y-57055625D01*
X118894758Y-57419974D01*
X118532624Y-57057207D01*
X117944696Y-56813078D01*
X117308097Y-56812523D01*
X116719744Y-57055625D01*
X116354758Y-57419974D01*
X115992624Y-57057207D01*
X115404696Y-56813078D01*
X114768097Y-56812523D01*
X114179744Y-57055625D01*
X113729207Y-57505376D01*
X113643756Y-57711165D01*
X113414242Y-57155700D01*
X112849529Y-56590000D01*
X125658761Y-56590000D01*
X125657445Y-56591314D01*
X125657445Y-56591314D01*
G37*
X125657445Y-56591314D02*
X125565263Y-56813313D01*
X125564696Y-56813078D01*
X124928097Y-56812523D01*
X124339744Y-57055625D01*
X123903750Y-57490859D01*
X123832350Y-57465255D01*
X122884605Y-58413000D01*
X122898748Y-58427143D01*
X122719143Y-58606748D01*
X122705000Y-58592605D01*
X122690858Y-58606748D01*
X122511253Y-58427143D01*
X122525395Y-58413000D01*
X121577650Y-57465255D01*
X121505712Y-57491052D01*
X121300669Y-57285650D01*
X121757255Y-57285650D01*
X122705000Y-58233395D01*
X123652745Y-57285650D01*
X123558346Y-57022404D01*
X122961231Y-56801695D01*
X122325107Y-56826293D01*
X121851654Y-57022404D01*
X121757255Y-57285650D01*
X121300669Y-57285650D01*
X121072624Y-57057207D01*
X120484696Y-56813078D01*
X119848097Y-56812523D01*
X119259744Y-57055625D01*
X118894758Y-57419974D01*
X118532624Y-57057207D01*
X117944696Y-56813078D01*
X117308097Y-56812523D01*
X116719744Y-57055625D01*
X116354758Y-57419974D01*
X115992624Y-57057207D01*
X115404696Y-56813078D01*
X114768097Y-56812523D01*
X114179744Y-57055625D01*
X113729207Y-57505376D01*
X113643756Y-57711165D01*
X113414242Y-57155700D01*
X112849529Y-56590000D01*
X125658761Y-56590000D01*
X125657445Y-56591314D01*
M02*
