G04 #@! TF.FileFunction,Legend,Bot*
%FSLAX46Y46*%
G04 Gerber Fmt 4.6, Leading zero omitted, Abs format (unit mm)*
G04 Created by KiCad (PCBNEW 4.0.7) date 04/09/18 16:23:24*
%MOMM*%
%LPD*%
G01*
G04 APERTURE LIST*
%ADD10C,0.100000*%
%ADD11C,0.152400*%
%ADD12C,0.010000*%
G04 APERTURE END LIST*
D10*
D11*
X127508000Y-119888000D02*
X127508000Y-121412000D01*
X127965200Y-119430800D02*
X129082800Y-119430800D01*
X127965200Y-121869200D02*
X129082800Y-121869200D01*
X129540000Y-121412000D02*
X129540000Y-119888000D01*
X129082800Y-119430800D02*
G75*
G02X129540000Y-119888000I0J-457200D01*
G01*
X129540000Y-121412000D02*
G75*
G02X129082800Y-121869200I-457200J0D01*
G01*
X127965200Y-121869200D02*
G75*
G02X127508000Y-121412000I0J457200D01*
G01*
X127508000Y-119888000D02*
G75*
G02X127965200Y-119430800I457200J0D01*
G01*
X124968000Y-119786400D02*
X124968000Y-121513600D01*
X125222000Y-119532400D02*
X126746000Y-119532400D01*
X125222000Y-121767600D02*
X126746000Y-121767600D01*
X127000000Y-121513600D02*
X127000000Y-119786400D01*
X126746000Y-119532400D02*
G75*
G02X127000000Y-119786400I0J-254000D01*
G01*
X127000000Y-121513600D02*
G75*
G02X126746000Y-121767600I-254000J0D01*
G01*
X125222000Y-121767600D02*
G75*
G02X124968000Y-121513600I0J254000D01*
G01*
X124968000Y-119786400D02*
G75*
G02X125222000Y-119532400I254000J0D01*
G01*
X122428000Y-119786400D02*
X122428000Y-121513600D01*
X122682000Y-119532400D02*
X124206000Y-119532400D01*
X122682000Y-121767600D02*
X124206000Y-121767600D01*
X124460000Y-121513600D02*
X124460000Y-119786400D01*
X124206000Y-119532400D02*
G75*
G02X124460000Y-119786400I0J-254000D01*
G01*
X124460000Y-121513600D02*
G75*
G02X124206000Y-121767600I-254000J0D01*
G01*
X122682000Y-121767600D02*
G75*
G02X122428000Y-121513600I0J254000D01*
G01*
X122428000Y-119786400D02*
G75*
G02X122682000Y-119532400I254000J0D01*
G01*
X140970000Y-99949000D02*
X138430000Y-99949000D01*
X141427200Y-100406200D02*
X141427200Y-101523800D01*
X137972800Y-100406200D02*
X137972800Y-101523800D01*
X138430000Y-101981000D02*
X140970000Y-101981000D01*
X141427200Y-101523800D02*
G75*
G02X140970000Y-101981000I-457200J0D01*
G01*
X138430000Y-101981000D02*
G75*
G02X137972800Y-101523800I0J457200D01*
G01*
X137972800Y-100406200D02*
G75*
G02X138430000Y-99949000I457200J0D01*
G01*
X140970000Y-99949000D02*
G75*
G02X141427200Y-100406200I0J-457200D01*
G01*
X139700000Y-143891000D02*
X142240000Y-143891000D01*
X139242800Y-143433800D02*
X139242800Y-142316200D01*
X142697200Y-143433800D02*
X142697200Y-142316200D01*
X142240000Y-141859000D02*
X139700000Y-141859000D01*
X139242800Y-142316200D02*
G75*
G02X139700000Y-141859000I457200J0D01*
G01*
X142240000Y-141859000D02*
G75*
G02X142697200Y-142316200I0J-457200D01*
G01*
X142697200Y-143433800D02*
G75*
G02X142240000Y-143891000I-457200J0D01*
G01*
X139700000Y-143891000D02*
G75*
G02X139242800Y-143433800I0J457200D01*
G01*
D12*
G36*
X134611069Y-137620186D02*
X134166445Y-137536365D01*
X134038947Y-137227080D01*
X133911449Y-136917794D01*
X134163754Y-136546754D01*
X134234004Y-136442843D01*
X134296728Y-136348913D01*
X134349062Y-136269348D01*
X134388143Y-136208530D01*
X134411107Y-136170843D01*
X134416058Y-136160579D01*
X134403324Y-136142090D01*
X134368118Y-136102580D01*
X134314938Y-136046478D01*
X134248282Y-135978213D01*
X134172646Y-135902214D01*
X134092528Y-135822908D01*
X134012426Y-135744725D01*
X133936836Y-135672093D01*
X133870255Y-135609441D01*
X133817182Y-135561197D01*
X133782113Y-135531790D01*
X133770377Y-135524759D01*
X133748740Y-135534877D01*
X133701338Y-135563241D01*
X133632807Y-135606871D01*
X133547785Y-135662782D01*
X133450907Y-135727994D01*
X133395650Y-135765781D01*
X133294752Y-135834657D01*
X133203701Y-135895860D01*
X133127030Y-135946422D01*
X133069272Y-135983372D01*
X133034957Y-136003742D01*
X133027746Y-136006803D01*
X133007252Y-135999864D01*
X132959487Y-135980949D01*
X132891168Y-135952913D01*
X132809011Y-135918609D01*
X132719730Y-135880891D01*
X132630042Y-135842613D01*
X132546662Y-135806630D01*
X132476306Y-135775794D01*
X132425690Y-135752961D01*
X132401529Y-135740983D01*
X132400578Y-135740276D01*
X132395964Y-135721469D01*
X132385672Y-135671382D01*
X132370713Y-135595207D01*
X132352099Y-135498135D01*
X132330841Y-135385357D01*
X132318582Y-135319558D01*
X132295638Y-135199050D01*
X132273805Y-135090203D01*
X132254278Y-134998524D01*
X132238252Y-134929519D01*
X132226921Y-134888696D01*
X132223326Y-134880489D01*
X132198994Y-134872452D01*
X132144041Y-134865967D01*
X132064892Y-134861030D01*
X131967974Y-134857636D01*
X131859713Y-134855782D01*
X131746535Y-134855462D01*
X131634865Y-134856673D01*
X131531132Y-134859410D01*
X131441759Y-134863669D01*
X131373174Y-134869445D01*
X131331803Y-134876733D01*
X131323190Y-134881105D01*
X131312867Y-134907236D01*
X131298108Y-134962607D01*
X131280648Y-135039893D01*
X131262220Y-135131770D01*
X131256259Y-135163842D01*
X131227934Y-135318476D01*
X131205124Y-135440625D01*
X131186920Y-135534327D01*
X131172417Y-135603616D01*
X131160708Y-135652529D01*
X131150885Y-135685103D01*
X131142044Y-135705372D01*
X131133276Y-135717374D01*
X131131543Y-135719053D01*
X131103629Y-135735816D01*
X131049305Y-135761386D01*
X130975223Y-135793212D01*
X130888035Y-135828740D01*
X130794392Y-135865417D01*
X130700948Y-135900689D01*
X130614353Y-135932004D01*
X130541260Y-135956807D01*
X130488322Y-135972546D01*
X130462189Y-135976668D01*
X130461274Y-135976324D01*
X130439914Y-135962359D01*
X130392916Y-135930678D01*
X130325173Y-135884609D01*
X130241577Y-135827482D01*
X130147018Y-135762627D01*
X130120146Y-135744157D01*
X130022725Y-135678301D01*
X129933837Y-135620350D01*
X129858588Y-135573462D01*
X129802080Y-135540793D01*
X129769419Y-135525500D01*
X129765407Y-135524759D01*
X129744316Y-135537608D01*
X129702536Y-135573112D01*
X129644555Y-135626707D01*
X129574865Y-135693829D01*
X129497955Y-135769913D01*
X129418317Y-135850396D01*
X129340439Y-135930713D01*
X129268814Y-136006301D01*
X129207930Y-136072595D01*
X129162279Y-136125031D01*
X129136350Y-136159045D01*
X129132117Y-136168455D01*
X129142088Y-136190357D01*
X129168980Y-136235200D01*
X129208264Y-136295679D01*
X129239883Y-136342211D01*
X129297902Y-136426525D01*
X129366216Y-136526374D01*
X129434421Y-136626527D01*
X129470925Y-136680373D01*
X129594200Y-136862629D01*
X129511480Y-137015619D01*
X129475241Y-137085318D01*
X129447074Y-137144586D01*
X129431009Y-137184689D01*
X129428774Y-137194897D01*
X129445278Y-137207171D01*
X129491918Y-137231387D01*
X129564391Y-137265737D01*
X129658394Y-137308412D01*
X129769626Y-137357606D01*
X129893785Y-137411510D01*
X130026568Y-137468316D01*
X130163673Y-137526218D01*
X130300798Y-137583407D01*
X130433642Y-137638076D01*
X130557902Y-137688416D01*
X130669275Y-137732620D01*
X130763461Y-137768881D01*
X130836156Y-137795391D01*
X130883059Y-137810342D01*
X130899167Y-137812746D01*
X130919714Y-137793689D01*
X130953067Y-137751964D01*
X130992298Y-137696294D01*
X130995401Y-137691622D01*
X131110577Y-137547736D01*
X131244947Y-137431717D01*
X131394216Y-137344570D01*
X131554087Y-137287301D01*
X131720263Y-137260914D01*
X131888448Y-137266415D01*
X132054345Y-137304810D01*
X132213658Y-137377105D01*
X132248513Y-137398374D01*
X132389263Y-137509004D01*
X132502286Y-137639698D01*
X132586997Y-137785936D01*
X132642806Y-137943192D01*
X132669126Y-138106943D01*
X132665370Y-138272667D01*
X132630950Y-138435838D01*
X132565277Y-138591935D01*
X132467765Y-138736433D01*
X132428187Y-138781131D01*
X132304297Y-138894888D01*
X132173876Y-138977782D01*
X132027685Y-139034644D01*
X131882912Y-139066313D01*
X131720140Y-139074131D01*
X131556560Y-139048062D01*
X131397702Y-138990755D01*
X131249094Y-138904856D01*
X131116265Y-138793014D01*
X131004744Y-138657877D01*
X130992989Y-138640117D01*
X130954492Y-138583850D01*
X130921137Y-138541077D01*
X130899840Y-138520628D01*
X130899167Y-138520331D01*
X130876129Y-138524721D01*
X130823843Y-138542124D01*
X130746610Y-138570732D01*
X130648732Y-138608735D01*
X130534509Y-138654326D01*
X130408242Y-138705697D01*
X130274233Y-138761038D01*
X130136782Y-138818542D01*
X130000192Y-138876399D01*
X129868763Y-138932802D01*
X129746795Y-138985942D01*
X129638591Y-139034010D01*
X129548451Y-139075199D01*
X129480677Y-139107699D01*
X129439570Y-139129703D01*
X129428774Y-139138564D01*
X129437181Y-139165640D01*
X129459728Y-139216303D01*
X129492387Y-139281817D01*
X129511480Y-139317841D01*
X129594200Y-139470832D01*
X129470925Y-139653088D01*
X129407772Y-139746125D01*
X129338273Y-139847985D01*
X129272835Y-139943438D01*
X129239883Y-139991250D01*
X129194727Y-140058495D01*
X129158943Y-140115436D01*
X129137062Y-140154646D01*
X129132437Y-140167381D01*
X129144915Y-140185917D01*
X129179748Y-140226941D01*
X129233322Y-140286475D01*
X129302017Y-140360542D01*
X129382219Y-140445165D01*
X129433714Y-140498685D01*
X129525714Y-140592319D01*
X129608001Y-140673241D01*
X129677055Y-140738177D01*
X129729356Y-140783858D01*
X129761384Y-140807011D01*
X129767884Y-140809232D01*
X129792606Y-140798924D01*
X129842595Y-140770439D01*
X129912788Y-140726937D01*
X129998125Y-140671577D01*
X130093544Y-140607520D01*
X130120146Y-140589303D01*
X130216833Y-140522927D01*
X130303883Y-140463378D01*
X130376405Y-140413984D01*
X130429507Y-140378075D01*
X130458297Y-140358981D01*
X130461274Y-140357136D01*
X130484218Y-140359895D01*
X130534664Y-140374538D01*
X130605959Y-140398513D01*
X130691453Y-140429266D01*
X130784493Y-140464244D01*
X130878426Y-140500893D01*
X130966601Y-140536661D01*
X131042366Y-140568994D01*
X131099069Y-140595338D01*
X131130057Y-140613142D01*
X131131543Y-140614407D01*
X131140399Y-140625294D01*
X131149157Y-140643682D01*
X131158723Y-140673606D01*
X131170004Y-140719103D01*
X131183907Y-140784209D01*
X131201337Y-140872961D01*
X131223202Y-140989393D01*
X131250409Y-141137542D01*
X131256259Y-141169618D01*
X131274626Y-141264686D01*
X131292595Y-141347565D01*
X131308431Y-141410930D01*
X131320400Y-141447458D01*
X131323190Y-141452356D01*
X131347928Y-141460427D01*
X131403210Y-141466987D01*
X131482611Y-141472033D01*
X131579704Y-141475559D01*
X131688062Y-141477561D01*
X131801260Y-141478036D01*
X131912872Y-141476977D01*
X132016471Y-141474382D01*
X132105632Y-141470246D01*
X132173928Y-141464563D01*
X132214934Y-141457331D01*
X132223326Y-141452971D01*
X132231792Y-141428698D01*
X132245565Y-141373426D01*
X132263450Y-141292662D01*
X132284252Y-141191912D01*
X132306777Y-141076683D01*
X132318582Y-141013902D01*
X132340849Y-140894787D01*
X132361021Y-140788565D01*
X132378085Y-140700427D01*
X132391031Y-140635566D01*
X132398845Y-140599174D01*
X132400578Y-140593184D01*
X132420110Y-140583061D01*
X132467157Y-140561662D01*
X132534997Y-140531839D01*
X132616909Y-140496445D01*
X132706172Y-140458332D01*
X132796065Y-140420353D01*
X132879865Y-140385360D01*
X132950853Y-140356206D01*
X133002306Y-140335743D01*
X133027503Y-140326823D01*
X133028604Y-140326657D01*
X133048481Y-140336769D01*
X133094223Y-140365117D01*
X133161283Y-140408723D01*
X133245116Y-140464606D01*
X133341174Y-140529787D01*
X133396350Y-140567679D01*
X133497519Y-140636725D01*
X133589370Y-140698050D01*
X133667256Y-140748663D01*
X133726531Y-140785571D01*
X133762549Y-140805782D01*
X133770623Y-140808701D01*
X133789416Y-140796153D01*
X133829543Y-140761463D01*
X133886507Y-140709063D01*
X133955815Y-140643384D01*
X134032969Y-140568856D01*
X134113475Y-140489913D01*
X134192837Y-140410983D01*
X134266560Y-140336500D01*
X134330148Y-140270894D01*
X134379106Y-140218596D01*
X134408939Y-140184039D01*
X134416058Y-140172478D01*
X134406047Y-140153654D01*
X134377922Y-140108631D01*
X134334546Y-140041787D01*
X134278782Y-139957499D01*
X134213494Y-139860144D01*
X134163754Y-139786707D01*
X133911449Y-139415667D01*
X134166445Y-138797095D01*
X134611069Y-138713275D01*
X135055693Y-138629454D01*
X135055693Y-137704006D01*
X134611069Y-137620186D01*
X134611069Y-137620186D01*
G37*
X134611069Y-137620186D02*
X134166445Y-137536365D01*
X134038947Y-137227080D01*
X133911449Y-136917794D01*
X134163754Y-136546754D01*
X134234004Y-136442843D01*
X134296728Y-136348913D01*
X134349062Y-136269348D01*
X134388143Y-136208530D01*
X134411107Y-136170843D01*
X134416058Y-136160579D01*
X134403324Y-136142090D01*
X134368118Y-136102580D01*
X134314938Y-136046478D01*
X134248282Y-135978213D01*
X134172646Y-135902214D01*
X134092528Y-135822908D01*
X134012426Y-135744725D01*
X133936836Y-135672093D01*
X133870255Y-135609441D01*
X133817182Y-135561197D01*
X133782113Y-135531790D01*
X133770377Y-135524759D01*
X133748740Y-135534877D01*
X133701338Y-135563241D01*
X133632807Y-135606871D01*
X133547785Y-135662782D01*
X133450907Y-135727994D01*
X133395650Y-135765781D01*
X133294752Y-135834657D01*
X133203701Y-135895860D01*
X133127030Y-135946422D01*
X133069272Y-135983372D01*
X133034957Y-136003742D01*
X133027746Y-136006803D01*
X133007252Y-135999864D01*
X132959487Y-135980949D01*
X132891168Y-135952913D01*
X132809011Y-135918609D01*
X132719730Y-135880891D01*
X132630042Y-135842613D01*
X132546662Y-135806630D01*
X132476306Y-135775794D01*
X132425690Y-135752961D01*
X132401529Y-135740983D01*
X132400578Y-135740276D01*
X132395964Y-135721469D01*
X132385672Y-135671382D01*
X132370713Y-135595207D01*
X132352099Y-135498135D01*
X132330841Y-135385357D01*
X132318582Y-135319558D01*
X132295638Y-135199050D01*
X132273805Y-135090203D01*
X132254278Y-134998524D01*
X132238252Y-134929519D01*
X132226921Y-134888696D01*
X132223326Y-134880489D01*
X132198994Y-134872452D01*
X132144041Y-134865967D01*
X132064892Y-134861030D01*
X131967974Y-134857636D01*
X131859713Y-134855782D01*
X131746535Y-134855462D01*
X131634865Y-134856673D01*
X131531132Y-134859410D01*
X131441759Y-134863669D01*
X131373174Y-134869445D01*
X131331803Y-134876733D01*
X131323190Y-134881105D01*
X131312867Y-134907236D01*
X131298108Y-134962607D01*
X131280648Y-135039893D01*
X131262220Y-135131770D01*
X131256259Y-135163842D01*
X131227934Y-135318476D01*
X131205124Y-135440625D01*
X131186920Y-135534327D01*
X131172417Y-135603616D01*
X131160708Y-135652529D01*
X131150885Y-135685103D01*
X131142044Y-135705372D01*
X131133276Y-135717374D01*
X131131543Y-135719053D01*
X131103629Y-135735816D01*
X131049305Y-135761386D01*
X130975223Y-135793212D01*
X130888035Y-135828740D01*
X130794392Y-135865417D01*
X130700948Y-135900689D01*
X130614353Y-135932004D01*
X130541260Y-135956807D01*
X130488322Y-135972546D01*
X130462189Y-135976668D01*
X130461274Y-135976324D01*
X130439914Y-135962359D01*
X130392916Y-135930678D01*
X130325173Y-135884609D01*
X130241577Y-135827482D01*
X130147018Y-135762627D01*
X130120146Y-135744157D01*
X130022725Y-135678301D01*
X129933837Y-135620350D01*
X129858588Y-135573462D01*
X129802080Y-135540793D01*
X129769419Y-135525500D01*
X129765407Y-135524759D01*
X129744316Y-135537608D01*
X129702536Y-135573112D01*
X129644555Y-135626707D01*
X129574865Y-135693829D01*
X129497955Y-135769913D01*
X129418317Y-135850396D01*
X129340439Y-135930713D01*
X129268814Y-136006301D01*
X129207930Y-136072595D01*
X129162279Y-136125031D01*
X129136350Y-136159045D01*
X129132117Y-136168455D01*
X129142088Y-136190357D01*
X129168980Y-136235200D01*
X129208264Y-136295679D01*
X129239883Y-136342211D01*
X129297902Y-136426525D01*
X129366216Y-136526374D01*
X129434421Y-136626527D01*
X129470925Y-136680373D01*
X129594200Y-136862629D01*
X129511480Y-137015619D01*
X129475241Y-137085318D01*
X129447074Y-137144586D01*
X129431009Y-137184689D01*
X129428774Y-137194897D01*
X129445278Y-137207171D01*
X129491918Y-137231387D01*
X129564391Y-137265737D01*
X129658394Y-137308412D01*
X129769626Y-137357606D01*
X129893785Y-137411510D01*
X130026568Y-137468316D01*
X130163673Y-137526218D01*
X130300798Y-137583407D01*
X130433642Y-137638076D01*
X130557902Y-137688416D01*
X130669275Y-137732620D01*
X130763461Y-137768881D01*
X130836156Y-137795391D01*
X130883059Y-137810342D01*
X130899167Y-137812746D01*
X130919714Y-137793689D01*
X130953067Y-137751964D01*
X130992298Y-137696294D01*
X130995401Y-137691622D01*
X131110577Y-137547736D01*
X131244947Y-137431717D01*
X131394216Y-137344570D01*
X131554087Y-137287301D01*
X131720263Y-137260914D01*
X131888448Y-137266415D01*
X132054345Y-137304810D01*
X132213658Y-137377105D01*
X132248513Y-137398374D01*
X132389263Y-137509004D01*
X132502286Y-137639698D01*
X132586997Y-137785936D01*
X132642806Y-137943192D01*
X132669126Y-138106943D01*
X132665370Y-138272667D01*
X132630950Y-138435838D01*
X132565277Y-138591935D01*
X132467765Y-138736433D01*
X132428187Y-138781131D01*
X132304297Y-138894888D01*
X132173876Y-138977782D01*
X132027685Y-139034644D01*
X131882912Y-139066313D01*
X131720140Y-139074131D01*
X131556560Y-139048062D01*
X131397702Y-138990755D01*
X131249094Y-138904856D01*
X131116265Y-138793014D01*
X131004744Y-138657877D01*
X130992989Y-138640117D01*
X130954492Y-138583850D01*
X130921137Y-138541077D01*
X130899840Y-138520628D01*
X130899167Y-138520331D01*
X130876129Y-138524721D01*
X130823843Y-138542124D01*
X130746610Y-138570732D01*
X130648732Y-138608735D01*
X130534509Y-138654326D01*
X130408242Y-138705697D01*
X130274233Y-138761038D01*
X130136782Y-138818542D01*
X130000192Y-138876399D01*
X129868763Y-138932802D01*
X129746795Y-138985942D01*
X129638591Y-139034010D01*
X129548451Y-139075199D01*
X129480677Y-139107699D01*
X129439570Y-139129703D01*
X129428774Y-139138564D01*
X129437181Y-139165640D01*
X129459728Y-139216303D01*
X129492387Y-139281817D01*
X129511480Y-139317841D01*
X129594200Y-139470832D01*
X129470925Y-139653088D01*
X129407772Y-139746125D01*
X129338273Y-139847985D01*
X129272835Y-139943438D01*
X129239883Y-139991250D01*
X129194727Y-140058495D01*
X129158943Y-140115436D01*
X129137062Y-140154646D01*
X129132437Y-140167381D01*
X129144915Y-140185917D01*
X129179748Y-140226941D01*
X129233322Y-140286475D01*
X129302017Y-140360542D01*
X129382219Y-140445165D01*
X129433714Y-140498685D01*
X129525714Y-140592319D01*
X129608001Y-140673241D01*
X129677055Y-140738177D01*
X129729356Y-140783858D01*
X129761384Y-140807011D01*
X129767884Y-140809232D01*
X129792606Y-140798924D01*
X129842595Y-140770439D01*
X129912788Y-140726937D01*
X129998125Y-140671577D01*
X130093544Y-140607520D01*
X130120146Y-140589303D01*
X130216833Y-140522927D01*
X130303883Y-140463378D01*
X130376405Y-140413984D01*
X130429507Y-140378075D01*
X130458297Y-140358981D01*
X130461274Y-140357136D01*
X130484218Y-140359895D01*
X130534664Y-140374538D01*
X130605959Y-140398513D01*
X130691453Y-140429266D01*
X130784493Y-140464244D01*
X130878426Y-140500893D01*
X130966601Y-140536661D01*
X131042366Y-140568994D01*
X131099069Y-140595338D01*
X131130057Y-140613142D01*
X131131543Y-140614407D01*
X131140399Y-140625294D01*
X131149157Y-140643682D01*
X131158723Y-140673606D01*
X131170004Y-140719103D01*
X131183907Y-140784209D01*
X131201337Y-140872961D01*
X131223202Y-140989393D01*
X131250409Y-141137542D01*
X131256259Y-141169618D01*
X131274626Y-141264686D01*
X131292595Y-141347565D01*
X131308431Y-141410930D01*
X131320400Y-141447458D01*
X131323190Y-141452356D01*
X131347928Y-141460427D01*
X131403210Y-141466987D01*
X131482611Y-141472033D01*
X131579704Y-141475559D01*
X131688062Y-141477561D01*
X131801260Y-141478036D01*
X131912872Y-141476977D01*
X132016471Y-141474382D01*
X132105632Y-141470246D01*
X132173928Y-141464563D01*
X132214934Y-141457331D01*
X132223326Y-141452971D01*
X132231792Y-141428698D01*
X132245565Y-141373426D01*
X132263450Y-141292662D01*
X132284252Y-141191912D01*
X132306777Y-141076683D01*
X132318582Y-141013902D01*
X132340849Y-140894787D01*
X132361021Y-140788565D01*
X132378085Y-140700427D01*
X132391031Y-140635566D01*
X132398845Y-140599174D01*
X132400578Y-140593184D01*
X132420110Y-140583061D01*
X132467157Y-140561662D01*
X132534997Y-140531839D01*
X132616909Y-140496445D01*
X132706172Y-140458332D01*
X132796065Y-140420353D01*
X132879865Y-140385360D01*
X132950853Y-140356206D01*
X133002306Y-140335743D01*
X133027503Y-140326823D01*
X133028604Y-140326657D01*
X133048481Y-140336769D01*
X133094223Y-140365117D01*
X133161283Y-140408723D01*
X133245116Y-140464606D01*
X133341174Y-140529787D01*
X133396350Y-140567679D01*
X133497519Y-140636725D01*
X133589370Y-140698050D01*
X133667256Y-140748663D01*
X133726531Y-140785571D01*
X133762549Y-140805782D01*
X133770623Y-140808701D01*
X133789416Y-140796153D01*
X133829543Y-140761463D01*
X133886507Y-140709063D01*
X133955815Y-140643384D01*
X134032969Y-140568856D01*
X134113475Y-140489913D01*
X134192837Y-140410983D01*
X134266560Y-140336500D01*
X134330148Y-140270894D01*
X134379106Y-140218596D01*
X134408939Y-140184039D01*
X134416058Y-140172478D01*
X134406047Y-140153654D01*
X134377922Y-140108631D01*
X134334546Y-140041787D01*
X134278782Y-139957499D01*
X134213494Y-139860144D01*
X134163754Y-139786707D01*
X133911449Y-139415667D01*
X134166445Y-138797095D01*
X134611069Y-138713275D01*
X135055693Y-138629454D01*
X135055693Y-137704006D01*
X134611069Y-137620186D01*
G36*
X138446934Y-128041371D02*
X138446533Y-128001889D01*
X138443741Y-127886200D01*
X138435450Y-127789311D01*
X138420768Y-127707919D01*
X138398807Y-127638723D01*
X138368678Y-127578420D01*
X138329490Y-127523708D01*
X138312468Y-127504167D01*
X138272637Y-127471750D01*
X138218587Y-127442520D01*
X138158677Y-127419991D01*
X138101261Y-127407679D01*
X138080044Y-127406400D01*
X138021231Y-127414417D01*
X137956987Y-127435899D01*
X137896179Y-127466999D01*
X137847670Y-127503866D01*
X137841818Y-127509854D01*
X137800679Y-127560579D01*
X137768565Y-127616125D01*
X137744635Y-127679696D01*
X137728047Y-127754494D01*
X137717959Y-127843722D01*
X137713531Y-127950582D01*
X137713155Y-127999528D01*
X137713455Y-128061762D01*
X137714708Y-128105528D01*
X137717446Y-128134931D01*
X137722199Y-128154079D01*
X137729499Y-128167077D01*
X137735733Y-128174045D01*
X137743306Y-128180626D01*
X137753076Y-128185788D01*
X137767660Y-128189703D01*
X137789674Y-128192543D01*
X137821736Y-128194480D01*
X137866464Y-128195684D01*
X137926474Y-128196328D01*
X138004383Y-128196583D01*
X138080044Y-128196622D01*
X138180959Y-128196870D01*
X138261573Y-128196817D01*
X138300178Y-128195857D01*
X138300178Y-128049867D01*
X137859911Y-128049867D01*
X137859996Y-127956734D01*
X137861604Y-127900693D01*
X137865744Y-127841999D01*
X137871536Y-127793028D01*
X137871774Y-127791538D01*
X137890910Y-127712392D01*
X137920713Y-127651002D01*
X137963122Y-127604305D01*
X138009039Y-127574635D01*
X138059974Y-127556353D01*
X138107800Y-127557771D01*
X138159067Y-127578988D01*
X138212101Y-127620489D01*
X138251400Y-127677998D01*
X138277669Y-127752750D01*
X138286965Y-127802708D01*
X138293493Y-127859416D01*
X138298218Y-127919519D01*
X138300183Y-127970639D01*
X138300192Y-127973667D01*
X138300178Y-128049867D01*
X138300178Y-128195857D01*
X138324149Y-128195260D01*
X138370945Y-128190998D01*
X138404222Y-128182830D01*
X138426241Y-128169556D01*
X138439261Y-128149974D01*
X138445543Y-128122883D01*
X138447347Y-128087082D01*
X138446934Y-128041371D01*
X138446934Y-128041371D01*
G37*
X138446934Y-128041371D02*
X138446533Y-128001889D01*
X138443741Y-127886200D01*
X138435450Y-127789311D01*
X138420768Y-127707919D01*
X138398807Y-127638723D01*
X138368678Y-127578420D01*
X138329490Y-127523708D01*
X138312468Y-127504167D01*
X138272637Y-127471750D01*
X138218587Y-127442520D01*
X138158677Y-127419991D01*
X138101261Y-127407679D01*
X138080044Y-127406400D01*
X138021231Y-127414417D01*
X137956987Y-127435899D01*
X137896179Y-127466999D01*
X137847670Y-127503866D01*
X137841818Y-127509854D01*
X137800679Y-127560579D01*
X137768565Y-127616125D01*
X137744635Y-127679696D01*
X137728047Y-127754494D01*
X137717959Y-127843722D01*
X137713531Y-127950582D01*
X137713155Y-127999528D01*
X137713455Y-128061762D01*
X137714708Y-128105528D01*
X137717446Y-128134931D01*
X137722199Y-128154079D01*
X137729499Y-128167077D01*
X137735733Y-128174045D01*
X137743306Y-128180626D01*
X137753076Y-128185788D01*
X137767660Y-128189703D01*
X137789674Y-128192543D01*
X137821736Y-128194480D01*
X137866464Y-128195684D01*
X137926474Y-128196328D01*
X138004383Y-128196583D01*
X138080044Y-128196622D01*
X138180959Y-128196870D01*
X138261573Y-128196817D01*
X138300178Y-128195857D01*
X138300178Y-128049867D01*
X137859911Y-128049867D01*
X137859996Y-127956734D01*
X137861604Y-127900693D01*
X137865744Y-127841999D01*
X137871536Y-127793028D01*
X137871774Y-127791538D01*
X137890910Y-127712392D01*
X137920713Y-127651002D01*
X137963122Y-127604305D01*
X138009039Y-127574635D01*
X138059974Y-127556353D01*
X138107800Y-127557771D01*
X138159067Y-127578988D01*
X138212101Y-127620489D01*
X138251400Y-127677998D01*
X138277669Y-127752750D01*
X138286965Y-127802708D01*
X138293493Y-127859416D01*
X138298218Y-127919519D01*
X138300183Y-127970639D01*
X138300192Y-127973667D01*
X138300178Y-128049867D01*
X138300178Y-128195857D01*
X138324149Y-128195260D01*
X138370945Y-128190998D01*
X138404222Y-128182830D01*
X138426241Y-128169556D01*
X138439261Y-128149974D01*
X138445543Y-128122883D01*
X138447347Y-128087082D01*
X138446934Y-128041371D01*
G36*
X138446854Y-126632794D02*
X138446482Y-126563386D01*
X138445615Y-126510997D01*
X138444054Y-126472847D01*
X138441597Y-126446159D01*
X138438043Y-126428153D01*
X138433190Y-126416049D01*
X138426839Y-126407069D01*
X138423916Y-126403818D01*
X138392858Y-126384043D01*
X138357172Y-126380482D01*
X138325490Y-126393491D01*
X138319087Y-126399506D01*
X138312879Y-126409235D01*
X138308090Y-126424901D01*
X138304486Y-126449408D01*
X138301836Y-126485661D01*
X138299905Y-126536565D01*
X138298461Y-126605026D01*
X138297582Y-126667617D01*
X138294533Y-126915334D01*
X138229622Y-126918719D01*
X138164711Y-126922105D01*
X138164711Y-126753958D01*
X138164081Y-126680959D01*
X138161447Y-126627517D01*
X138155691Y-126590628D01*
X138145696Y-126567288D01*
X138130344Y-126554494D01*
X138108518Y-126549242D01*
X138088262Y-126548445D01*
X138063408Y-126550923D01*
X138045094Y-126560277D01*
X138032363Y-126579383D01*
X138024259Y-126611118D01*
X138019824Y-126658359D01*
X138018101Y-126723983D01*
X138017955Y-126759801D01*
X138017955Y-126920978D01*
X137859911Y-126920978D01*
X137859911Y-126672622D01*
X137859798Y-126591213D01*
X137859288Y-126529342D01*
X137858130Y-126483968D01*
X137856070Y-126452054D01*
X137852854Y-126430559D01*
X137848228Y-126416443D01*
X137841941Y-126406668D01*
X137837333Y-126401689D01*
X137810440Y-126384610D01*
X137786533Y-126379111D01*
X137757333Y-126386963D01*
X137735733Y-126401689D01*
X137728934Y-126409546D01*
X137723654Y-126419688D01*
X137719702Y-126434844D01*
X137716887Y-126457741D01*
X137715018Y-126491109D01*
X137713902Y-126537675D01*
X137713349Y-126600167D01*
X137713167Y-126681314D01*
X137713155Y-126723422D01*
X137713235Y-126813598D01*
X137713602Y-126883924D01*
X137714448Y-126937129D01*
X137715964Y-126975940D01*
X137718341Y-127003087D01*
X137721771Y-127021298D01*
X137726446Y-127033300D01*
X137732556Y-127041822D01*
X137735733Y-127045156D01*
X137743330Y-127051755D01*
X137753130Y-127056927D01*
X137767761Y-127060846D01*
X137789848Y-127063684D01*
X137822018Y-127065615D01*
X137866897Y-127066812D01*
X137927111Y-127067448D01*
X138005287Y-127067697D01*
X138078077Y-127067734D01*
X138171293Y-127067700D01*
X138244569Y-127067465D01*
X138300542Y-127066830D01*
X138341849Y-127065594D01*
X138371128Y-127063556D01*
X138391016Y-127060517D01*
X138404150Y-127056277D01*
X138413168Y-127050635D01*
X138420707Y-127043391D01*
X138422388Y-127041606D01*
X138429828Y-127032945D01*
X138435591Y-127022882D01*
X138439888Y-127008625D01*
X138442936Y-126987383D01*
X138444949Y-126956364D01*
X138446140Y-126912777D01*
X138446725Y-126853831D01*
X138446917Y-126776734D01*
X138446933Y-126722001D01*
X138446854Y-126632794D01*
X138446854Y-126632794D01*
G37*
X138446854Y-126632794D02*
X138446482Y-126563386D01*
X138445615Y-126510997D01*
X138444054Y-126472847D01*
X138441597Y-126446159D01*
X138438043Y-126428153D01*
X138433190Y-126416049D01*
X138426839Y-126407069D01*
X138423916Y-126403818D01*
X138392858Y-126384043D01*
X138357172Y-126380482D01*
X138325490Y-126393491D01*
X138319087Y-126399506D01*
X138312879Y-126409235D01*
X138308090Y-126424901D01*
X138304486Y-126449408D01*
X138301836Y-126485661D01*
X138299905Y-126536565D01*
X138298461Y-126605026D01*
X138297582Y-126667617D01*
X138294533Y-126915334D01*
X138229622Y-126918719D01*
X138164711Y-126922105D01*
X138164711Y-126753958D01*
X138164081Y-126680959D01*
X138161447Y-126627517D01*
X138155691Y-126590628D01*
X138145696Y-126567288D01*
X138130344Y-126554494D01*
X138108518Y-126549242D01*
X138088262Y-126548445D01*
X138063408Y-126550923D01*
X138045094Y-126560277D01*
X138032363Y-126579383D01*
X138024259Y-126611118D01*
X138019824Y-126658359D01*
X138018101Y-126723983D01*
X138017955Y-126759801D01*
X138017955Y-126920978D01*
X137859911Y-126920978D01*
X137859911Y-126672622D01*
X137859798Y-126591213D01*
X137859288Y-126529342D01*
X137858130Y-126483968D01*
X137856070Y-126452054D01*
X137852854Y-126430559D01*
X137848228Y-126416443D01*
X137841941Y-126406668D01*
X137837333Y-126401689D01*
X137810440Y-126384610D01*
X137786533Y-126379111D01*
X137757333Y-126386963D01*
X137735733Y-126401689D01*
X137728934Y-126409546D01*
X137723654Y-126419688D01*
X137719702Y-126434844D01*
X137716887Y-126457741D01*
X137715018Y-126491109D01*
X137713902Y-126537675D01*
X137713349Y-126600167D01*
X137713167Y-126681314D01*
X137713155Y-126723422D01*
X137713235Y-126813598D01*
X137713602Y-126883924D01*
X137714448Y-126937129D01*
X137715964Y-126975940D01*
X137718341Y-127003087D01*
X137721771Y-127021298D01*
X137726446Y-127033300D01*
X137732556Y-127041822D01*
X137735733Y-127045156D01*
X137743330Y-127051755D01*
X137753130Y-127056927D01*
X137767761Y-127060846D01*
X137789848Y-127063684D01*
X137822018Y-127065615D01*
X137866897Y-127066812D01*
X137927111Y-127067448D01*
X138005287Y-127067697D01*
X138078077Y-127067734D01*
X138171293Y-127067700D01*
X138244569Y-127067465D01*
X138300542Y-127066830D01*
X138341849Y-127065594D01*
X138371128Y-127063556D01*
X138391016Y-127060517D01*
X138404150Y-127056277D01*
X138413168Y-127050635D01*
X138420707Y-127043391D01*
X138422388Y-127041606D01*
X138429828Y-127032945D01*
X138435591Y-127022882D01*
X138439888Y-127008625D01*
X138442936Y-126987383D01*
X138444949Y-126956364D01*
X138446140Y-126912777D01*
X138446725Y-126853831D01*
X138446917Y-126776734D01*
X138446933Y-126722001D01*
X138446854Y-126632794D01*
G36*
X138445649Y-125611703D02*
X138440419Y-125536888D01*
X138432250Y-125467306D01*
X138421450Y-125407002D01*
X138408327Y-125360020D01*
X138393187Y-125330406D01*
X138388731Y-125325860D01*
X138354150Y-125310054D01*
X138318649Y-125314847D01*
X138288275Y-125339364D01*
X138287404Y-125340534D01*
X138278046Y-125354954D01*
X138273124Y-125370008D01*
X138272527Y-125391005D01*
X138276139Y-125423257D01*
X138283846Y-125472073D01*
X138284495Y-125476000D01*
X138293431Y-125548739D01*
X138297839Y-125627217D01*
X138297881Y-125705927D01*
X138293721Y-125779361D01*
X138285521Y-125842011D01*
X138273443Y-125888370D01*
X138272229Y-125891416D01*
X138253385Y-125925048D01*
X138234315Y-125936864D01*
X138215561Y-125927614D01*
X138197663Y-125898047D01*
X138181163Y-125848911D01*
X138166604Y-125780957D01*
X138159594Y-125735645D01*
X138146111Y-125641456D01*
X138133786Y-125566544D01*
X138121551Y-125507717D01*
X138108339Y-125461785D01*
X138093083Y-125425555D01*
X138074715Y-125395838D01*
X138052169Y-125369442D01*
X138030029Y-125348230D01*
X137999181Y-125323065D01*
X137972655Y-125310681D01*
X137939974Y-125306808D01*
X137928005Y-125306667D01*
X137888288Y-125309576D01*
X137858741Y-125321202D01*
X137832514Y-125341323D01*
X137792424Y-125382216D01*
X137761851Y-125427817D01*
X137739797Y-125481513D01*
X137725265Y-125546692D01*
X137717259Y-125626744D01*
X137714782Y-125725057D01*
X137714823Y-125741289D01*
X137716182Y-125806849D01*
X137719270Y-125871866D01*
X137723644Y-125929252D01*
X137728860Y-125971922D01*
X137729459Y-125975372D01*
X137739509Y-126017796D01*
X137752204Y-126053780D01*
X137763810Y-126074150D01*
X137794428Y-126093107D01*
X137830082Y-126094427D01*
X137861856Y-126078085D01*
X137865449Y-126074429D01*
X137876124Y-126059315D01*
X137880724Y-126040415D01*
X137879941Y-126011162D01*
X137875873Y-125975651D01*
X137872238Y-125935970D01*
X137869172Y-125880345D01*
X137866947Y-125815406D01*
X137865836Y-125747785D01*
X137865763Y-125730000D01*
X137866036Y-125662128D01*
X137867354Y-125612454D01*
X137870173Y-125576610D01*
X137874950Y-125550224D01*
X137882143Y-125528926D01*
X137888133Y-125516126D01*
X137904767Y-125488000D01*
X137919832Y-125470068D01*
X137924103Y-125467447D01*
X137941737Y-125472976D01*
X137958808Y-125499260D01*
X137974542Y-125544478D01*
X137988162Y-125606808D01*
X137991196Y-125625171D01*
X138006262Y-125721090D01*
X138018854Y-125797641D01*
X138029889Y-125857780D01*
X138040280Y-125904460D01*
X138050944Y-125940637D01*
X138062795Y-125969265D01*
X138076749Y-125993298D01*
X138093719Y-126015692D01*
X138114622Y-126039402D01*
X138121951Y-126047380D01*
X138149301Y-126075353D01*
X138170971Y-126090160D01*
X138195768Y-126095952D01*
X138227017Y-126096889D01*
X138288295Y-126086575D01*
X138340360Y-126055752D01*
X138383042Y-126004595D01*
X138416175Y-125933283D01*
X138431036Y-125882400D01*
X138440634Y-125827100D01*
X138446064Y-125760853D01*
X138447633Y-125687706D01*
X138445649Y-125611703D01*
X138445649Y-125611703D01*
G37*
X138445649Y-125611703D02*
X138440419Y-125536888D01*
X138432250Y-125467306D01*
X138421450Y-125407002D01*
X138408327Y-125360020D01*
X138393187Y-125330406D01*
X138388731Y-125325860D01*
X138354150Y-125310054D01*
X138318649Y-125314847D01*
X138288275Y-125339364D01*
X138287404Y-125340534D01*
X138278046Y-125354954D01*
X138273124Y-125370008D01*
X138272527Y-125391005D01*
X138276139Y-125423257D01*
X138283846Y-125472073D01*
X138284495Y-125476000D01*
X138293431Y-125548739D01*
X138297839Y-125627217D01*
X138297881Y-125705927D01*
X138293721Y-125779361D01*
X138285521Y-125842011D01*
X138273443Y-125888370D01*
X138272229Y-125891416D01*
X138253385Y-125925048D01*
X138234315Y-125936864D01*
X138215561Y-125927614D01*
X138197663Y-125898047D01*
X138181163Y-125848911D01*
X138166604Y-125780957D01*
X138159594Y-125735645D01*
X138146111Y-125641456D01*
X138133786Y-125566544D01*
X138121551Y-125507717D01*
X138108339Y-125461785D01*
X138093083Y-125425555D01*
X138074715Y-125395838D01*
X138052169Y-125369442D01*
X138030029Y-125348230D01*
X137999181Y-125323065D01*
X137972655Y-125310681D01*
X137939974Y-125306808D01*
X137928005Y-125306667D01*
X137888288Y-125309576D01*
X137858741Y-125321202D01*
X137832514Y-125341323D01*
X137792424Y-125382216D01*
X137761851Y-125427817D01*
X137739797Y-125481513D01*
X137725265Y-125546692D01*
X137717259Y-125626744D01*
X137714782Y-125725057D01*
X137714823Y-125741289D01*
X137716182Y-125806849D01*
X137719270Y-125871866D01*
X137723644Y-125929252D01*
X137728860Y-125971922D01*
X137729459Y-125975372D01*
X137739509Y-126017796D01*
X137752204Y-126053780D01*
X137763810Y-126074150D01*
X137794428Y-126093107D01*
X137830082Y-126094427D01*
X137861856Y-126078085D01*
X137865449Y-126074429D01*
X137876124Y-126059315D01*
X137880724Y-126040415D01*
X137879941Y-126011162D01*
X137875873Y-125975651D01*
X137872238Y-125935970D01*
X137869172Y-125880345D01*
X137866947Y-125815406D01*
X137865836Y-125747785D01*
X137865763Y-125730000D01*
X137866036Y-125662128D01*
X137867354Y-125612454D01*
X137870173Y-125576610D01*
X137874950Y-125550224D01*
X137882143Y-125528926D01*
X137888133Y-125516126D01*
X137904767Y-125488000D01*
X137919832Y-125470068D01*
X137924103Y-125467447D01*
X137941737Y-125472976D01*
X137958808Y-125499260D01*
X137974542Y-125544478D01*
X137988162Y-125606808D01*
X137991196Y-125625171D01*
X138006262Y-125721090D01*
X138018854Y-125797641D01*
X138029889Y-125857780D01*
X138040280Y-125904460D01*
X138050944Y-125940637D01*
X138062795Y-125969265D01*
X138076749Y-125993298D01*
X138093719Y-126015692D01*
X138114622Y-126039402D01*
X138121951Y-126047380D01*
X138149301Y-126075353D01*
X138170971Y-126090160D01*
X138195768Y-126095952D01*
X138227017Y-126096889D01*
X138288295Y-126086575D01*
X138340360Y-126055752D01*
X138383042Y-126004595D01*
X138416175Y-125933283D01*
X138431036Y-125882400D01*
X138440634Y-125827100D01*
X138446064Y-125760853D01*
X138447633Y-125687706D01*
X138445649Y-125611703D01*
G36*
X138424355Y-124843822D02*
X138416782Y-124837242D01*
X138407013Y-124832079D01*
X138392429Y-124828164D01*
X138370415Y-124825324D01*
X138338352Y-124823387D01*
X138293625Y-124822183D01*
X138233615Y-124821539D01*
X138155706Y-124821284D01*
X138080044Y-124821245D01*
X137986198Y-124821314D01*
X137912311Y-124821638D01*
X137855768Y-124822386D01*
X137813951Y-124823732D01*
X137784243Y-124825846D01*
X137764027Y-124828900D01*
X137750686Y-124833066D01*
X137741602Y-124838516D01*
X137735733Y-124843822D01*
X137716053Y-124876826D01*
X137717819Y-124911991D01*
X137739283Y-124943455D01*
X137747663Y-124950684D01*
X137757386Y-124956334D01*
X137771139Y-124960599D01*
X137791611Y-124963673D01*
X137821488Y-124965752D01*
X137863459Y-124967030D01*
X137920211Y-124967701D01*
X137994433Y-124967959D01*
X138078463Y-124968000D01*
X138391515Y-124968000D01*
X138419224Y-124940291D01*
X138442537Y-124906137D01*
X138443377Y-124873006D01*
X138424355Y-124843822D01*
X138424355Y-124843822D01*
G37*
X138424355Y-124843822D02*
X138416782Y-124837242D01*
X138407013Y-124832079D01*
X138392429Y-124828164D01*
X138370415Y-124825324D01*
X138338352Y-124823387D01*
X138293625Y-124822183D01*
X138233615Y-124821539D01*
X138155706Y-124821284D01*
X138080044Y-124821245D01*
X137986198Y-124821314D01*
X137912311Y-124821638D01*
X137855768Y-124822386D01*
X137813951Y-124823732D01*
X137784243Y-124825846D01*
X137764027Y-124828900D01*
X137750686Y-124833066D01*
X137741602Y-124838516D01*
X137735733Y-124843822D01*
X137716053Y-124876826D01*
X137717819Y-124911991D01*
X137739283Y-124943455D01*
X137747663Y-124950684D01*
X137757386Y-124956334D01*
X137771139Y-124960599D01*
X137791611Y-124963673D01*
X137821488Y-124965752D01*
X137863459Y-124967030D01*
X137920211Y-124967701D01*
X137994433Y-124967959D01*
X138078463Y-124968000D01*
X138391515Y-124968000D01*
X138419224Y-124940291D01*
X138442537Y-124906137D01*
X138443377Y-124873006D01*
X138424355Y-124843822D01*
G36*
X138441401Y-123870081D02*
X138429905Y-123801565D01*
X138412033Y-123748943D01*
X138388501Y-123714708D01*
X138375076Y-123705379D01*
X138343852Y-123695893D01*
X138315605Y-123702277D01*
X138288818Y-123722430D01*
X138276287Y-123753745D01*
X138277304Y-123799183D01*
X138284094Y-123834326D01*
X138297029Y-123912419D01*
X138298258Y-123992226D01*
X138287759Y-124081555D01*
X138283310Y-124106229D01*
X138259892Y-124189291D01*
X138225055Y-124254273D01*
X138179396Y-124300461D01*
X138123506Y-124327145D01*
X138094612Y-124332663D01*
X138035988Y-124329051D01*
X137984121Y-124305729D01*
X137940022Y-124264824D01*
X137904701Y-124208459D01*
X137879171Y-124138760D01*
X137864441Y-124057852D01*
X137861522Y-123967860D01*
X137871425Y-123870910D01*
X137872359Y-123865436D01*
X137879541Y-123826875D01*
X137886479Y-123805494D01*
X137896773Y-123796227D01*
X137914024Y-123794006D01*
X137923159Y-123793956D01*
X137961511Y-123793956D01*
X137961511Y-123862431D01*
X137965653Y-123922900D01*
X137978853Y-123964165D01*
X138002270Y-123988175D01*
X138037064Y-123996877D01*
X138041606Y-123996983D01*
X138071346Y-123991892D01*
X138092581Y-123974433D01*
X138106634Y-123941939D01*
X138114827Y-123891743D01*
X138117839Y-123843123D01*
X138119567Y-123772456D01*
X138116930Y-123721198D01*
X138107200Y-123686239D01*
X138087647Y-123664470D01*
X138055544Y-123652780D01*
X138008162Y-123648060D01*
X137945929Y-123647200D01*
X137876465Y-123648609D01*
X137829214Y-123652848D01*
X137803988Y-123659936D01*
X137802012Y-123661311D01*
X137770492Y-123700228D01*
X137745530Y-123757286D01*
X137727660Y-123828869D01*
X137717414Y-123911358D01*
X137715327Y-124001139D01*
X137721932Y-124094592D01*
X137730044Y-124149556D01*
X137754446Y-124235766D01*
X137794338Y-124315892D01*
X137846113Y-124382977D01*
X137856461Y-124393173D01*
X137899965Y-124426302D01*
X137953882Y-124456194D01*
X138010408Y-124479357D01*
X138061741Y-124492298D01*
X138081456Y-124493858D01*
X138122581Y-124487218D01*
X138173748Y-124469568D01*
X138227606Y-124444297D01*
X138276805Y-124414789D01*
X138309666Y-124388719D01*
X138358548Y-124327765D01*
X138397455Y-124248969D01*
X138425506Y-124155157D01*
X138441821Y-124049150D01*
X138445808Y-123952000D01*
X138441401Y-123870081D01*
X138441401Y-123870081D01*
G37*
X138441401Y-123870081D02*
X138429905Y-123801565D01*
X138412033Y-123748943D01*
X138388501Y-123714708D01*
X138375076Y-123705379D01*
X138343852Y-123695893D01*
X138315605Y-123702277D01*
X138288818Y-123722430D01*
X138276287Y-123753745D01*
X138277304Y-123799183D01*
X138284094Y-123834326D01*
X138297029Y-123912419D01*
X138298258Y-123992226D01*
X138287759Y-124081555D01*
X138283310Y-124106229D01*
X138259892Y-124189291D01*
X138225055Y-124254273D01*
X138179396Y-124300461D01*
X138123506Y-124327145D01*
X138094612Y-124332663D01*
X138035988Y-124329051D01*
X137984121Y-124305729D01*
X137940022Y-124264824D01*
X137904701Y-124208459D01*
X137879171Y-124138760D01*
X137864441Y-124057852D01*
X137861522Y-123967860D01*
X137871425Y-123870910D01*
X137872359Y-123865436D01*
X137879541Y-123826875D01*
X137886479Y-123805494D01*
X137896773Y-123796227D01*
X137914024Y-123794006D01*
X137923159Y-123793956D01*
X137961511Y-123793956D01*
X137961511Y-123862431D01*
X137965653Y-123922900D01*
X137978853Y-123964165D01*
X138002270Y-123988175D01*
X138037064Y-123996877D01*
X138041606Y-123996983D01*
X138071346Y-123991892D01*
X138092581Y-123974433D01*
X138106634Y-123941939D01*
X138114827Y-123891743D01*
X138117839Y-123843123D01*
X138119567Y-123772456D01*
X138116930Y-123721198D01*
X138107200Y-123686239D01*
X138087647Y-123664470D01*
X138055544Y-123652780D01*
X138008162Y-123648060D01*
X137945929Y-123647200D01*
X137876465Y-123648609D01*
X137829214Y-123652848D01*
X137803988Y-123659936D01*
X137802012Y-123661311D01*
X137770492Y-123700228D01*
X137745530Y-123757286D01*
X137727660Y-123828869D01*
X137717414Y-123911358D01*
X137715327Y-124001139D01*
X137721932Y-124094592D01*
X137730044Y-124149556D01*
X137754446Y-124235766D01*
X137794338Y-124315892D01*
X137846113Y-124382977D01*
X137856461Y-124393173D01*
X137899965Y-124426302D01*
X137953882Y-124456194D01*
X138010408Y-124479357D01*
X138061741Y-124492298D01*
X138081456Y-124493858D01*
X138122581Y-124487218D01*
X138173748Y-124469568D01*
X138227606Y-124444297D01*
X138276805Y-124414789D01*
X138309666Y-124388719D01*
X138358548Y-124327765D01*
X138397455Y-124248969D01*
X138425506Y-124155157D01*
X138441821Y-124049150D01*
X138445808Y-123952000D01*
X138441401Y-123870081D01*
G36*
X138442552Y-123220114D02*
X138428727Y-123196548D01*
X138406119Y-123165735D01*
X138373662Y-123126078D01*
X138330292Y-123075980D01*
X138274942Y-123013843D01*
X138206549Y-122938072D01*
X138127916Y-122851334D01*
X137964122Y-122670711D01*
X138183971Y-122665067D01*
X138259649Y-122663029D01*
X138316006Y-122661063D01*
X138356294Y-122658734D01*
X138383765Y-122655606D01*
X138401671Y-122651245D01*
X138413263Y-122645216D01*
X138421792Y-122637084D01*
X138425377Y-122632772D01*
X138444330Y-122598241D01*
X138441559Y-122565383D01*
X138425367Y-122539318D01*
X138403801Y-122512667D01*
X138088849Y-122509352D01*
X137996221Y-122508435D01*
X137923456Y-122507968D01*
X137867839Y-122508113D01*
X137826658Y-122509032D01*
X137797197Y-122510887D01*
X137776745Y-122513839D01*
X137762587Y-122518050D01*
X137752009Y-122523682D01*
X137743526Y-122529927D01*
X137727793Y-122543439D01*
X137717364Y-122556883D01*
X137713361Y-122572124D01*
X137716906Y-122591026D01*
X137729121Y-122615455D01*
X137751129Y-122647273D01*
X137784051Y-122688348D01*
X137829009Y-122740542D01*
X137887125Y-122805722D01*
X137953901Y-122879556D01*
X138194542Y-123144845D01*
X137975411Y-123150489D01*
X137899872Y-123152531D01*
X137843646Y-123154502D01*
X137803476Y-123156839D01*
X137776104Y-123159981D01*
X137758272Y-123164364D01*
X137746721Y-123170424D01*
X137738193Y-123178600D01*
X137734718Y-123182784D01*
X137715628Y-123219765D01*
X137718507Y-123254708D01*
X137742900Y-123285136D01*
X137752714Y-123292097D01*
X137764174Y-123297523D01*
X137780032Y-123301603D01*
X137803037Y-123304529D01*
X137835938Y-123306492D01*
X137881484Y-123307683D01*
X137942427Y-123308292D01*
X138021514Y-123308511D01*
X138080044Y-123308534D01*
X138171593Y-123308460D01*
X138243313Y-123308113D01*
X138297955Y-123307301D01*
X138338268Y-123305833D01*
X138367002Y-123303519D01*
X138386907Y-123300167D01*
X138400732Y-123295588D01*
X138411228Y-123289589D01*
X138417189Y-123285136D01*
X138431309Y-123273850D01*
X138441971Y-123263301D01*
X138448108Y-123251893D01*
X138448657Y-123238030D01*
X138442552Y-123220114D01*
X138442552Y-123220114D01*
G37*
X138442552Y-123220114D02*
X138428727Y-123196548D01*
X138406119Y-123165735D01*
X138373662Y-123126078D01*
X138330292Y-123075980D01*
X138274942Y-123013843D01*
X138206549Y-122938072D01*
X138127916Y-122851334D01*
X137964122Y-122670711D01*
X138183971Y-122665067D01*
X138259649Y-122663029D01*
X138316006Y-122661063D01*
X138356294Y-122658734D01*
X138383765Y-122655606D01*
X138401671Y-122651245D01*
X138413263Y-122645216D01*
X138421792Y-122637084D01*
X138425377Y-122632772D01*
X138444330Y-122598241D01*
X138441559Y-122565383D01*
X138425367Y-122539318D01*
X138403801Y-122512667D01*
X138088849Y-122509352D01*
X137996221Y-122508435D01*
X137923456Y-122507968D01*
X137867839Y-122508113D01*
X137826658Y-122509032D01*
X137797197Y-122510887D01*
X137776745Y-122513839D01*
X137762587Y-122518050D01*
X137752009Y-122523682D01*
X137743526Y-122529927D01*
X137727793Y-122543439D01*
X137717364Y-122556883D01*
X137713361Y-122572124D01*
X137716906Y-122591026D01*
X137729121Y-122615455D01*
X137751129Y-122647273D01*
X137784051Y-122688348D01*
X137829009Y-122740542D01*
X137887125Y-122805722D01*
X137953901Y-122879556D01*
X138194542Y-123144845D01*
X137975411Y-123150489D01*
X137899872Y-123152531D01*
X137843646Y-123154502D01*
X137803476Y-123156839D01*
X137776104Y-123159981D01*
X137758272Y-123164364D01*
X137746721Y-123170424D01*
X137738193Y-123178600D01*
X137734718Y-123182784D01*
X137715628Y-123219765D01*
X137718507Y-123254708D01*
X137742900Y-123285136D01*
X137752714Y-123292097D01*
X137764174Y-123297523D01*
X137780032Y-123301603D01*
X137803037Y-123304529D01*
X137835938Y-123306492D01*
X137881484Y-123307683D01*
X137942427Y-123308292D01*
X138021514Y-123308511D01*
X138080044Y-123308534D01*
X138171593Y-123308460D01*
X138243313Y-123308113D01*
X138297955Y-123307301D01*
X138338268Y-123305833D01*
X138367002Y-123303519D01*
X138386907Y-123300167D01*
X138400732Y-123295588D01*
X138411228Y-123289589D01*
X138417189Y-123285136D01*
X138431309Y-123273850D01*
X138441971Y-123263301D01*
X138448108Y-123251893D01*
X138448657Y-123238030D01*
X138442552Y-123220114D01*
G36*
X138446740Y-121689657D02*
X138445826Y-121613299D01*
X138443689Y-121554783D01*
X138439825Y-121511745D01*
X138433733Y-121481817D01*
X138424910Y-121462632D01*
X138412854Y-121451824D01*
X138397061Y-121447027D01*
X138377030Y-121445873D01*
X138374665Y-121445867D01*
X138352008Y-121446869D01*
X138334497Y-121451604D01*
X138321426Y-121462667D01*
X138312087Y-121482652D01*
X138305773Y-121514154D01*
X138301778Y-121559768D01*
X138299394Y-121622087D01*
X138297914Y-121703707D01*
X138297586Y-121728723D01*
X138294533Y-121970800D01*
X138229622Y-121974186D01*
X138164711Y-121977571D01*
X138164711Y-121809424D01*
X138164469Y-121743734D01*
X138163444Y-121696828D01*
X138161189Y-121664917D01*
X138157258Y-121644209D01*
X138151202Y-121630916D01*
X138142576Y-121621245D01*
X138142507Y-121621183D01*
X138108888Y-121603644D01*
X138072552Y-121604278D01*
X138041577Y-121622686D01*
X138038393Y-121626329D01*
X138030188Y-121639259D01*
X138024479Y-121656976D01*
X138020838Y-121683430D01*
X138018833Y-121722568D01*
X138018036Y-121778338D01*
X138017955Y-121814006D01*
X138017955Y-121976445D01*
X137859911Y-121976445D01*
X137859911Y-121729839D01*
X137859769Y-121648420D01*
X137859186Y-121586590D01*
X137857932Y-121541363D01*
X137855773Y-121509752D01*
X137852477Y-121488769D01*
X137847811Y-121475427D01*
X137841543Y-121466739D01*
X137839267Y-121464550D01*
X137807720Y-121448386D01*
X137771832Y-121447203D01*
X137740715Y-121460464D01*
X137730729Y-121470957D01*
X137725231Y-121481871D01*
X137720978Y-121498783D01*
X137717820Y-121524367D01*
X137715608Y-121561299D01*
X137714194Y-121612254D01*
X137713428Y-121679906D01*
X137713162Y-121766931D01*
X137713155Y-121786606D01*
X137713213Y-121875089D01*
X137713533Y-121943773D01*
X137714333Y-121995436D01*
X137715833Y-122032855D01*
X137718251Y-122058810D01*
X137721806Y-122076078D01*
X137726718Y-122087438D01*
X137733205Y-122095668D01*
X137737862Y-122100183D01*
X137746111Y-122106979D01*
X137756331Y-122112288D01*
X137771200Y-122116294D01*
X137793398Y-122119179D01*
X137825607Y-122121126D01*
X137870504Y-122122319D01*
X137930772Y-122122939D01*
X138009089Y-122123171D01*
X138075006Y-122123200D01*
X138167372Y-122123129D01*
X138239883Y-122122792D01*
X138295263Y-122122002D01*
X138336235Y-122120574D01*
X138365522Y-122118321D01*
X138385847Y-122115057D01*
X138399934Y-122110596D01*
X138410505Y-122104752D01*
X138417189Y-122099803D01*
X138446933Y-122076406D01*
X138446933Y-121786226D01*
X138446740Y-121689657D01*
X138446740Y-121689657D01*
G37*
X138446740Y-121689657D02*
X138445826Y-121613299D01*
X138443689Y-121554783D01*
X138439825Y-121511745D01*
X138433733Y-121481817D01*
X138424910Y-121462632D01*
X138412854Y-121451824D01*
X138397061Y-121447027D01*
X138377030Y-121445873D01*
X138374665Y-121445867D01*
X138352008Y-121446869D01*
X138334497Y-121451604D01*
X138321426Y-121462667D01*
X138312087Y-121482652D01*
X138305773Y-121514154D01*
X138301778Y-121559768D01*
X138299394Y-121622087D01*
X138297914Y-121703707D01*
X138297586Y-121728723D01*
X138294533Y-121970800D01*
X138229622Y-121974186D01*
X138164711Y-121977571D01*
X138164711Y-121809424D01*
X138164469Y-121743734D01*
X138163444Y-121696828D01*
X138161189Y-121664917D01*
X138157258Y-121644209D01*
X138151202Y-121630916D01*
X138142576Y-121621245D01*
X138142507Y-121621183D01*
X138108888Y-121603644D01*
X138072552Y-121604278D01*
X138041577Y-121622686D01*
X138038393Y-121626329D01*
X138030188Y-121639259D01*
X138024479Y-121656976D01*
X138020838Y-121683430D01*
X138018833Y-121722568D01*
X138018036Y-121778338D01*
X138017955Y-121814006D01*
X138017955Y-121976445D01*
X137859911Y-121976445D01*
X137859911Y-121729839D01*
X137859769Y-121648420D01*
X137859186Y-121586590D01*
X137857932Y-121541363D01*
X137855773Y-121509752D01*
X137852477Y-121488769D01*
X137847811Y-121475427D01*
X137841543Y-121466739D01*
X137839267Y-121464550D01*
X137807720Y-121448386D01*
X137771832Y-121447203D01*
X137740715Y-121460464D01*
X137730729Y-121470957D01*
X137725231Y-121481871D01*
X137720978Y-121498783D01*
X137717820Y-121524367D01*
X137715608Y-121561299D01*
X137714194Y-121612254D01*
X137713428Y-121679906D01*
X137713162Y-121766931D01*
X137713155Y-121786606D01*
X137713213Y-121875089D01*
X137713533Y-121943773D01*
X137714333Y-121995436D01*
X137715833Y-122032855D01*
X137718251Y-122058810D01*
X137721806Y-122076078D01*
X137726718Y-122087438D01*
X137733205Y-122095668D01*
X137737862Y-122100183D01*
X137746111Y-122106979D01*
X137756331Y-122112288D01*
X137771200Y-122116294D01*
X137793398Y-122119179D01*
X137825607Y-122121126D01*
X137870504Y-122122319D01*
X137930772Y-122122939D01*
X138009089Y-122123171D01*
X138075006Y-122123200D01*
X138167372Y-122123129D01*
X138239883Y-122122792D01*
X138295263Y-122122002D01*
X138336235Y-122120574D01*
X138365522Y-122118321D01*
X138385847Y-122115057D01*
X138399934Y-122110596D01*
X138410505Y-122104752D01*
X138417189Y-122099803D01*
X138446933Y-122076406D01*
X138446933Y-121786226D01*
X138446740Y-121689657D01*
G36*
X138446725Y-120901691D02*
X138442364Y-120772712D01*
X138429139Y-120663009D01*
X138406259Y-120570774D01*
X138372930Y-120494198D01*
X138328362Y-120431473D01*
X138271764Y-120380788D01*
X138202342Y-120340337D01*
X138200649Y-120339541D01*
X138138517Y-120315399D01*
X138083491Y-120306797D01*
X138028113Y-120313769D01*
X137964927Y-120336346D01*
X137955311Y-120340628D01*
X137899034Y-120369828D01*
X137855549Y-120402644D01*
X137818583Y-120444998D01*
X137781865Y-120502810D01*
X137779948Y-120506169D01*
X137755773Y-120556496D01*
X137737718Y-120613379D01*
X137725161Y-120680473D01*
X137717478Y-120761435D01*
X137714047Y-120859918D01*
X137713749Y-120894714D01*
X137713155Y-121060406D01*
X137742900Y-121083803D01*
X137752681Y-121090743D01*
X137764103Y-121096158D01*
X137779905Y-121100235D01*
X137802825Y-121103163D01*
X137835604Y-121105133D01*
X137859911Y-121105775D01*
X137859911Y-120949156D01*
X137859911Y-120855274D01*
X137861517Y-120800336D01*
X137865745Y-120743940D01*
X137871708Y-120697655D01*
X137872210Y-120694861D01*
X137894264Y-120612652D01*
X137927400Y-120548886D01*
X137973153Y-120501548D01*
X138033061Y-120468618D01*
X138048939Y-120462892D01*
X138073667Y-120457279D01*
X138098098Y-120459709D01*
X138130600Y-120471533D01*
X138146566Y-120478660D01*
X138188994Y-120502000D01*
X138218760Y-120530120D01*
X138239489Y-120561060D01*
X138266463Y-120623034D01*
X138286002Y-120702349D01*
X138297254Y-120794747D01*
X138299730Y-120861667D01*
X138300178Y-120949156D01*
X137859911Y-120949156D01*
X137859911Y-121105775D01*
X137880979Y-121106332D01*
X137941689Y-121106950D01*
X138020474Y-121107175D01*
X138082080Y-121107200D01*
X138391515Y-121107200D01*
X138419224Y-121079491D01*
X138430456Y-121067194D01*
X138438147Y-121053897D01*
X138442960Y-121035328D01*
X138445554Y-121007214D01*
X138446590Y-120965283D01*
X138446730Y-120905263D01*
X138446725Y-120901691D01*
X138446725Y-120901691D01*
G37*
X138446725Y-120901691D02*
X138442364Y-120772712D01*
X138429139Y-120663009D01*
X138406259Y-120570774D01*
X138372930Y-120494198D01*
X138328362Y-120431473D01*
X138271764Y-120380788D01*
X138202342Y-120340337D01*
X138200649Y-120339541D01*
X138138517Y-120315399D01*
X138083491Y-120306797D01*
X138028113Y-120313769D01*
X137964927Y-120336346D01*
X137955311Y-120340628D01*
X137899034Y-120369828D01*
X137855549Y-120402644D01*
X137818583Y-120444998D01*
X137781865Y-120502810D01*
X137779948Y-120506169D01*
X137755773Y-120556496D01*
X137737718Y-120613379D01*
X137725161Y-120680473D01*
X137717478Y-120761435D01*
X137714047Y-120859918D01*
X137713749Y-120894714D01*
X137713155Y-121060406D01*
X137742900Y-121083803D01*
X137752681Y-121090743D01*
X137764103Y-121096158D01*
X137779905Y-121100235D01*
X137802825Y-121103163D01*
X137835604Y-121105133D01*
X137859911Y-121105775D01*
X137859911Y-120949156D01*
X137859911Y-120855274D01*
X137861517Y-120800336D01*
X137865745Y-120743940D01*
X137871708Y-120697655D01*
X137872210Y-120694861D01*
X137894264Y-120612652D01*
X137927400Y-120548886D01*
X137973153Y-120501548D01*
X138033061Y-120468618D01*
X138048939Y-120462892D01*
X138073667Y-120457279D01*
X138098098Y-120459709D01*
X138130600Y-120471533D01*
X138146566Y-120478660D01*
X138188994Y-120502000D01*
X138218760Y-120530120D01*
X138239489Y-120561060D01*
X138266463Y-120623034D01*
X138286002Y-120702349D01*
X138297254Y-120794747D01*
X138299730Y-120861667D01*
X138300178Y-120949156D01*
X137859911Y-120949156D01*
X137859911Y-121105775D01*
X137880979Y-121106332D01*
X137941689Y-121106950D01*
X138020474Y-121107175D01*
X138082080Y-121107200D01*
X138391515Y-121107200D01*
X138419224Y-121079491D01*
X138430456Y-121067194D01*
X138438147Y-121053897D01*
X138442960Y-121035328D01*
X138445554Y-121007214D01*
X138446590Y-120965283D01*
X138446730Y-120905263D01*
X138446725Y-120901691D01*
G36*
X138444966Y-118175335D02*
X138437965Y-118155745D01*
X138437623Y-118154990D01*
X138417322Y-118128387D01*
X138396439Y-118113730D01*
X138386648Y-118110862D01*
X138373639Y-118111004D01*
X138355105Y-118115039D01*
X138328743Y-118123854D01*
X138292248Y-118138331D01*
X138243313Y-118159355D01*
X138179635Y-118187812D01*
X138098907Y-118224585D01*
X138054784Y-118244825D01*
X137976015Y-118281375D01*
X137903577Y-118315685D01*
X137840120Y-118346448D01*
X137788292Y-118372352D01*
X137750741Y-118392090D01*
X137730116Y-118404350D01*
X137727267Y-118406776D01*
X137714698Y-118437817D01*
X137716381Y-118472879D01*
X137731668Y-118501000D01*
X137732911Y-118502146D01*
X137749846Y-118513332D01*
X137782830Y-118532096D01*
X137827620Y-118556125D01*
X137879968Y-118583103D01*
X137899258Y-118592799D01*
X138045850Y-118665986D01*
X137886607Y-118745760D01*
X137831585Y-118774233D01*
X137783868Y-118800650D01*
X137747107Y-118822852D01*
X137724956Y-118838681D01*
X137720259Y-118844046D01*
X137713898Y-118885743D01*
X137727267Y-118920151D01*
X137741554Y-118930272D01*
X137773308Y-118947786D01*
X137819403Y-118971265D01*
X137876715Y-118999280D01*
X137942120Y-119030401D01*
X138012493Y-119063201D01*
X138084709Y-119096250D01*
X138155645Y-119128119D01*
X138222175Y-119157381D01*
X138281174Y-119182605D01*
X138329519Y-119202364D01*
X138364085Y-119215228D01*
X138381747Y-119219769D01*
X138382387Y-119219723D01*
X138404612Y-119208674D01*
X138427247Y-119186590D01*
X138428232Y-119185290D01*
X138443575Y-119158147D01*
X138443426Y-119133042D01*
X138440534Y-119123632D01*
X138434282Y-119112166D01*
X138421986Y-119099990D01*
X138401092Y-119085643D01*
X138369051Y-119067664D01*
X138323312Y-119044593D01*
X138261323Y-119014970D01*
X138204102Y-118988255D01*
X138137774Y-118957520D01*
X138078126Y-118929979D01*
X138028275Y-118907062D01*
X137991336Y-118890202D01*
X137970427Y-118880827D01*
X137967155Y-118879460D01*
X137972503Y-118873311D01*
X137994891Y-118859178D01*
X138031054Y-118838943D01*
X138077723Y-118814485D01*
X138096978Y-118804752D01*
X138161996Y-118771783D01*
X138209346Y-118746357D01*
X138241781Y-118726388D01*
X138262054Y-118709790D01*
X138272918Y-118694476D01*
X138277125Y-118678360D01*
X138277600Y-118667857D01*
X138275958Y-118649330D01*
X138269169Y-118633096D01*
X138254434Y-118616965D01*
X138228956Y-118598749D01*
X138189939Y-118576261D01*
X138134586Y-118547311D01*
X138103097Y-118531338D01*
X138052913Y-118505430D01*
X138011296Y-118482833D01*
X137981758Y-118465542D01*
X137967811Y-118455550D01*
X137967230Y-118454191D01*
X137978207Y-118447739D01*
X138006710Y-118433292D01*
X138049756Y-118412297D01*
X138104362Y-118386203D01*
X138167546Y-118356454D01*
X138198929Y-118341820D01*
X138279922Y-118303750D01*
X138342244Y-118273095D01*
X138387929Y-118248263D01*
X138419011Y-118227663D01*
X138437522Y-118209702D01*
X138445496Y-118192790D01*
X138444966Y-118175335D01*
X138444966Y-118175335D01*
G37*
X138444966Y-118175335D02*
X138437965Y-118155745D01*
X138437623Y-118154990D01*
X138417322Y-118128387D01*
X138396439Y-118113730D01*
X138386648Y-118110862D01*
X138373639Y-118111004D01*
X138355105Y-118115039D01*
X138328743Y-118123854D01*
X138292248Y-118138331D01*
X138243313Y-118159355D01*
X138179635Y-118187812D01*
X138098907Y-118224585D01*
X138054784Y-118244825D01*
X137976015Y-118281375D01*
X137903577Y-118315685D01*
X137840120Y-118346448D01*
X137788292Y-118372352D01*
X137750741Y-118392090D01*
X137730116Y-118404350D01*
X137727267Y-118406776D01*
X137714698Y-118437817D01*
X137716381Y-118472879D01*
X137731668Y-118501000D01*
X137732911Y-118502146D01*
X137749846Y-118513332D01*
X137782830Y-118532096D01*
X137827620Y-118556125D01*
X137879968Y-118583103D01*
X137899258Y-118592799D01*
X138045850Y-118665986D01*
X137886607Y-118745760D01*
X137831585Y-118774233D01*
X137783868Y-118800650D01*
X137747107Y-118822852D01*
X137724956Y-118838681D01*
X137720259Y-118844046D01*
X137713898Y-118885743D01*
X137727267Y-118920151D01*
X137741554Y-118930272D01*
X137773308Y-118947786D01*
X137819403Y-118971265D01*
X137876715Y-118999280D01*
X137942120Y-119030401D01*
X138012493Y-119063201D01*
X138084709Y-119096250D01*
X138155645Y-119128119D01*
X138222175Y-119157381D01*
X138281174Y-119182605D01*
X138329519Y-119202364D01*
X138364085Y-119215228D01*
X138381747Y-119219769D01*
X138382387Y-119219723D01*
X138404612Y-119208674D01*
X138427247Y-119186590D01*
X138428232Y-119185290D01*
X138443575Y-119158147D01*
X138443426Y-119133042D01*
X138440534Y-119123632D01*
X138434282Y-119112166D01*
X138421986Y-119099990D01*
X138401092Y-119085643D01*
X138369051Y-119067664D01*
X138323312Y-119044593D01*
X138261323Y-119014970D01*
X138204102Y-118988255D01*
X138137774Y-118957520D01*
X138078126Y-118929979D01*
X138028275Y-118907062D01*
X137991336Y-118890202D01*
X137970427Y-118880827D01*
X137967155Y-118879460D01*
X137972503Y-118873311D01*
X137994891Y-118859178D01*
X138031054Y-118838943D01*
X138077723Y-118814485D01*
X138096978Y-118804752D01*
X138161996Y-118771783D01*
X138209346Y-118746357D01*
X138241781Y-118726388D01*
X138262054Y-118709790D01*
X138272918Y-118694476D01*
X138277125Y-118678360D01*
X138277600Y-118667857D01*
X138275958Y-118649330D01*
X138269169Y-118633096D01*
X138254434Y-118616965D01*
X138228956Y-118598749D01*
X138189939Y-118576261D01*
X138134586Y-118547311D01*
X138103097Y-118531338D01*
X138052913Y-118505430D01*
X138011296Y-118482833D01*
X137981758Y-118465542D01*
X137967811Y-118455550D01*
X137967230Y-118454191D01*
X137978207Y-118447739D01*
X138006710Y-118433292D01*
X138049756Y-118412297D01*
X138104362Y-118386203D01*
X138167546Y-118356454D01*
X138198929Y-118341820D01*
X138279922Y-118303750D01*
X138342244Y-118273095D01*
X138387929Y-118248263D01*
X138419011Y-118227663D01*
X138437522Y-118209702D01*
X138445496Y-118192790D01*
X138444966Y-118175335D01*
G36*
X138440123Y-117731386D02*
X138425353Y-117707673D01*
X138403773Y-117681022D01*
X138082227Y-117681022D01*
X137988170Y-117681107D01*
X137914068Y-117681471D01*
X137857296Y-117682276D01*
X137815232Y-117683687D01*
X137785252Y-117685867D01*
X137764733Y-117688979D01*
X137751051Y-117693186D01*
X137741584Y-117698652D01*
X137736918Y-117702528D01*
X137716425Y-117733966D01*
X137717261Y-117769767D01*
X137734736Y-117801127D01*
X137756316Y-117827778D01*
X138403773Y-117827778D01*
X138425353Y-117801127D01*
X138441051Y-117775406D01*
X138446933Y-117754400D01*
X138440123Y-117731386D01*
X138440123Y-117731386D01*
G37*
X138440123Y-117731386D02*
X138425353Y-117707673D01*
X138403773Y-117681022D01*
X138082227Y-117681022D01*
X137988170Y-117681107D01*
X137914068Y-117681471D01*
X137857296Y-117682276D01*
X137815232Y-117683687D01*
X137785252Y-117685867D01*
X137764733Y-117688979D01*
X137751051Y-117693186D01*
X137741584Y-117698652D01*
X137736918Y-117702528D01*
X137716425Y-117733966D01*
X137717261Y-117769767D01*
X137734736Y-117801127D01*
X137756316Y-117827778D01*
X138403773Y-117827778D01*
X138425353Y-117801127D01*
X138441051Y-117775406D01*
X138446933Y-117754400D01*
X138440123Y-117731386D01*
G36*
X138446837Y-116956935D02*
X138446458Y-116878228D01*
X138445667Y-116817137D01*
X138444330Y-116771183D01*
X138442317Y-116737886D01*
X138439494Y-116714764D01*
X138435731Y-116699338D01*
X138430895Y-116689129D01*
X138427178Y-116684187D01*
X138394642Y-116658543D01*
X138360862Y-116655441D01*
X138330174Y-116671289D01*
X138317911Y-116681652D01*
X138309550Y-116692804D01*
X138304343Y-116708965D01*
X138301543Y-116734358D01*
X138300404Y-116773202D01*
X138300179Y-116829720D01*
X138300178Y-116840820D01*
X138300178Y-116986756D01*
X138029244Y-116986756D01*
X137943846Y-116986852D01*
X137878136Y-116987289D01*
X137829226Y-116988288D01*
X137794227Y-116990072D01*
X137770251Y-116992863D01*
X137754407Y-116996883D01*
X137743809Y-117002355D01*
X137735733Y-117009334D01*
X137715888Y-117042266D01*
X137717452Y-117076646D01*
X137740094Y-117107824D01*
X137742900Y-117110114D01*
X137753508Y-117117571D01*
X137765919Y-117123253D01*
X137783150Y-117127399D01*
X137808216Y-117130250D01*
X137844133Y-117132046D01*
X137893917Y-117133028D01*
X137960583Y-117133436D01*
X138036411Y-117133511D01*
X138300178Y-117133511D01*
X138300178Y-117272873D01*
X138300582Y-117332678D01*
X138302160Y-117374082D01*
X138305453Y-117401252D01*
X138311008Y-117418354D01*
X138319369Y-117429557D01*
X138320822Y-117430917D01*
X138354061Y-117447275D01*
X138391638Y-117445828D01*
X138424355Y-117427022D01*
X138430702Y-117419750D01*
X138435734Y-117410373D01*
X138439604Y-117396391D01*
X138442463Y-117375304D01*
X138444465Y-117344611D01*
X138445761Y-117301811D01*
X138446502Y-117244405D01*
X138446842Y-117169890D01*
X138446932Y-117075767D01*
X138446933Y-117055740D01*
X138446837Y-116956935D01*
X138446837Y-116956935D01*
G37*
X138446837Y-116956935D02*
X138446458Y-116878228D01*
X138445667Y-116817137D01*
X138444330Y-116771183D01*
X138442317Y-116737886D01*
X138439494Y-116714764D01*
X138435731Y-116699338D01*
X138430895Y-116689129D01*
X138427178Y-116684187D01*
X138394642Y-116658543D01*
X138360862Y-116655441D01*
X138330174Y-116671289D01*
X138317911Y-116681652D01*
X138309550Y-116692804D01*
X138304343Y-116708965D01*
X138301543Y-116734358D01*
X138300404Y-116773202D01*
X138300179Y-116829720D01*
X138300178Y-116840820D01*
X138300178Y-116986756D01*
X138029244Y-116986756D01*
X137943846Y-116986852D01*
X137878136Y-116987289D01*
X137829226Y-116988288D01*
X137794227Y-116990072D01*
X137770251Y-116992863D01*
X137754407Y-116996883D01*
X137743809Y-117002355D01*
X137735733Y-117009334D01*
X137715888Y-117042266D01*
X137717452Y-117076646D01*
X137740094Y-117107824D01*
X137742900Y-117110114D01*
X137753508Y-117117571D01*
X137765919Y-117123253D01*
X137783150Y-117127399D01*
X137808216Y-117130250D01*
X137844133Y-117132046D01*
X137893917Y-117133028D01*
X137960583Y-117133436D01*
X138036411Y-117133511D01*
X138300178Y-117133511D01*
X138300178Y-117272873D01*
X138300582Y-117332678D01*
X138302160Y-117374082D01*
X138305453Y-117401252D01*
X138311008Y-117418354D01*
X138319369Y-117429557D01*
X138320822Y-117430917D01*
X138354061Y-117447275D01*
X138391638Y-117445828D01*
X138424355Y-117427022D01*
X138430702Y-117419750D01*
X138435734Y-117410373D01*
X138439604Y-117396391D01*
X138442463Y-117375304D01*
X138444465Y-117344611D01*
X138445761Y-117301811D01*
X138446502Y-117244405D01*
X138446842Y-117169890D01*
X138446932Y-117075767D01*
X138446933Y-117055740D01*
X138446837Y-116956935D01*
G36*
X138441467Y-115691177D02*
X138419224Y-115659798D01*
X138391515Y-115632089D01*
X138082080Y-115632089D01*
X137990201Y-115632162D01*
X137918160Y-115632505D01*
X137863220Y-115633308D01*
X137822640Y-115634759D01*
X137793683Y-115637048D01*
X137773609Y-115640364D01*
X137759679Y-115644895D01*
X137749155Y-115650831D01*
X137742900Y-115655486D01*
X137718327Y-115686217D01*
X137715659Y-115721504D01*
X137730729Y-115753755D01*
X137739626Y-115764412D01*
X137751443Y-115771536D01*
X137770474Y-115775833D01*
X137801008Y-115778009D01*
X137847338Y-115778772D01*
X137883129Y-115778845D01*
X138017955Y-115778845D01*
X138017955Y-116275556D01*
X137895300Y-116275556D01*
X137839213Y-116276069D01*
X137800667Y-116278124D01*
X137774639Y-116282492D01*
X137756103Y-116289944D01*
X137742900Y-116298953D01*
X137718396Y-116329856D01*
X137715494Y-116364804D01*
X137732911Y-116398262D01*
X137742041Y-116407396D01*
X137754145Y-116413848D01*
X137772999Y-116418103D01*
X137802380Y-116420648D01*
X137846063Y-116421971D01*
X137907825Y-116422557D01*
X137922000Y-116422625D01*
X138038369Y-116423109D01*
X138134273Y-116423359D01*
X138211823Y-116423277D01*
X138273131Y-116422769D01*
X138320310Y-116421738D01*
X138355470Y-116420087D01*
X138380724Y-116417721D01*
X138398183Y-116414543D01*
X138409959Y-116410456D01*
X138418165Y-116405366D01*
X138424355Y-116399734D01*
X138444156Y-116367872D01*
X138441467Y-116334643D01*
X138419224Y-116303265D01*
X138404874Y-116290567D01*
X138389022Y-116282474D01*
X138366446Y-116277958D01*
X138331922Y-116275994D01*
X138280224Y-116275556D01*
X138164711Y-116275556D01*
X138164711Y-115778845D01*
X138283244Y-115778845D01*
X138337852Y-115778338D01*
X138374725Y-115776302D01*
X138398693Y-115771965D01*
X138414585Y-115764553D01*
X138424355Y-115756267D01*
X138444156Y-115724406D01*
X138441467Y-115691177D01*
X138441467Y-115691177D01*
G37*
X138441467Y-115691177D02*
X138419224Y-115659798D01*
X138391515Y-115632089D01*
X138082080Y-115632089D01*
X137990201Y-115632162D01*
X137918160Y-115632505D01*
X137863220Y-115633308D01*
X137822640Y-115634759D01*
X137793683Y-115637048D01*
X137773609Y-115640364D01*
X137759679Y-115644895D01*
X137749155Y-115650831D01*
X137742900Y-115655486D01*
X137718327Y-115686217D01*
X137715659Y-115721504D01*
X137730729Y-115753755D01*
X137739626Y-115764412D01*
X137751443Y-115771536D01*
X137770474Y-115775833D01*
X137801008Y-115778009D01*
X137847338Y-115778772D01*
X137883129Y-115778845D01*
X138017955Y-115778845D01*
X138017955Y-116275556D01*
X137895300Y-116275556D01*
X137839213Y-116276069D01*
X137800667Y-116278124D01*
X137774639Y-116282492D01*
X137756103Y-116289944D01*
X137742900Y-116298953D01*
X137718396Y-116329856D01*
X137715494Y-116364804D01*
X137732911Y-116398262D01*
X137742041Y-116407396D01*
X137754145Y-116413848D01*
X137772999Y-116418103D01*
X137802380Y-116420648D01*
X137846063Y-116421971D01*
X137907825Y-116422557D01*
X137922000Y-116422625D01*
X138038369Y-116423109D01*
X138134273Y-116423359D01*
X138211823Y-116423277D01*
X138273131Y-116422769D01*
X138320310Y-116421738D01*
X138355470Y-116420087D01*
X138380724Y-116417721D01*
X138398183Y-116414543D01*
X138409959Y-116410456D01*
X138418165Y-116405366D01*
X138424355Y-116399734D01*
X138444156Y-116367872D01*
X138441467Y-116334643D01*
X138419224Y-116303265D01*
X138404874Y-116290567D01*
X138389022Y-116282474D01*
X138366446Y-116277958D01*
X138331922Y-116275994D01*
X138280224Y-116275556D01*
X138164711Y-116275556D01*
X138164711Y-115778845D01*
X138283244Y-115778845D01*
X138337852Y-115778338D01*
X138374725Y-115776302D01*
X138398693Y-115771965D01*
X138414585Y-115764553D01*
X138424355Y-115756267D01*
X138444156Y-115724406D01*
X138441467Y-115691177D01*
G36*
X143226946Y-124866400D02*
X143113007Y-124855535D01*
X143005384Y-124823918D01*
X142906385Y-124773015D01*
X142818316Y-124704293D01*
X142743484Y-124619219D01*
X142685616Y-124522232D01*
X142645995Y-124415964D01*
X142627427Y-124308950D01*
X142628566Y-124203300D01*
X142648070Y-124101125D01*
X142684594Y-124004534D01*
X142736795Y-123915638D01*
X142803327Y-123836546D01*
X142882848Y-123769369D01*
X142974013Y-123716217D01*
X143075477Y-123679199D01*
X143185898Y-123660427D01*
X143235794Y-123658489D01*
X143323733Y-123658489D01*
X143323733Y-123606560D01*
X143320889Y-123570253D01*
X143309089Y-123543355D01*
X143285351Y-123516249D01*
X143246969Y-123477867D01*
X141055398Y-123477867D01*
X140793261Y-123477876D01*
X140552759Y-123477908D01*
X140332952Y-123477972D01*
X140132899Y-123478076D01*
X139951656Y-123478227D01*
X139788284Y-123478434D01*
X139641840Y-123478706D01*
X139511383Y-123479050D01*
X139395971Y-123479474D01*
X139294662Y-123479987D01*
X139206516Y-123480597D01*
X139130590Y-123481312D01*
X139065943Y-123482140D01*
X139011633Y-123483089D01*
X138966720Y-123484167D01*
X138930260Y-123485383D01*
X138901313Y-123486745D01*
X138878937Y-123488261D01*
X138862191Y-123489938D01*
X138850132Y-123491786D01*
X138841820Y-123493813D01*
X138836313Y-123496025D01*
X138834463Y-123497108D01*
X138827451Y-123501271D01*
X138821004Y-123504805D01*
X138815100Y-123508635D01*
X138809714Y-123513682D01*
X138804822Y-123520871D01*
X138800402Y-123531123D01*
X138796428Y-123545364D01*
X138792879Y-123564514D01*
X138789730Y-123589499D01*
X138786958Y-123621240D01*
X138784539Y-123660662D01*
X138782449Y-123708686D01*
X138780665Y-123766237D01*
X138779163Y-123834237D01*
X138777920Y-123913610D01*
X138776911Y-124005279D01*
X138776115Y-124110166D01*
X138775506Y-124229196D01*
X138775061Y-124363290D01*
X138774757Y-124513373D01*
X138774570Y-124680367D01*
X138774476Y-124865196D01*
X138774452Y-125068783D01*
X138774475Y-125292050D01*
X138774520Y-125535922D01*
X138774563Y-125801321D01*
X138774568Y-125839704D01*
X138774611Y-126106682D01*
X138774682Y-126352002D01*
X138774787Y-126576583D01*
X138774934Y-126781345D01*
X138775131Y-126967206D01*
X138775384Y-127135088D01*
X138775700Y-127285908D01*
X138776087Y-127420587D01*
X138776553Y-127540044D01*
X138777103Y-127645199D01*
X138777747Y-127736971D01*
X138778489Y-127816279D01*
X138779339Y-127884043D01*
X138780303Y-127941182D01*
X138781389Y-127988617D01*
X138782603Y-128027266D01*
X138783953Y-128058049D01*
X138785445Y-128081885D01*
X138787089Y-128099694D01*
X138788889Y-128112395D01*
X138790855Y-128120908D01*
X138792523Y-128125266D01*
X138796094Y-128133728D01*
X138798730Y-128141497D01*
X138801366Y-128148602D01*
X138804938Y-128155073D01*
X138810379Y-128160939D01*
X138818625Y-128166229D01*
X138830610Y-128170974D01*
X138847269Y-128175202D01*
X138869537Y-128178943D01*
X138898348Y-128182227D01*
X138934637Y-128185083D01*
X138979339Y-128187540D01*
X139033389Y-128189629D01*
X139097721Y-128191378D01*
X139173270Y-128192817D01*
X139260970Y-128193976D01*
X139361757Y-128194883D01*
X139476566Y-128195569D01*
X139606330Y-128196063D01*
X139751985Y-128196395D01*
X139914465Y-128196593D01*
X140094705Y-128196687D01*
X140293640Y-128196708D01*
X140512204Y-128196685D01*
X140751332Y-128196646D01*
X141011960Y-128196622D01*
X141054111Y-128196622D01*
X141317008Y-128196636D01*
X141558268Y-128196661D01*
X141778835Y-128196671D01*
X141979648Y-128196642D01*
X142161651Y-128196548D01*
X142325784Y-128196362D01*
X142472989Y-128196059D01*
X142604208Y-128195614D01*
X142714133Y-128195034D01*
X142714133Y-127892197D01*
X142656289Y-127852407D01*
X142640521Y-127841236D01*
X142626559Y-127831166D01*
X142613216Y-127822138D01*
X142599307Y-127814097D01*
X142583644Y-127806986D01*
X142565042Y-127800747D01*
X142542314Y-127795325D01*
X142514273Y-127790662D01*
X142479733Y-127786701D01*
X142437508Y-127783385D01*
X142386411Y-127780659D01*
X142325256Y-127778464D01*
X142252856Y-127776745D01*
X142168025Y-127775444D01*
X142069578Y-127774505D01*
X141956326Y-127773870D01*
X141827084Y-127773484D01*
X141680666Y-127773288D01*
X141515884Y-127773227D01*
X141331553Y-127773243D01*
X141126487Y-127773280D01*
X141003867Y-127773289D01*
X140786918Y-127773265D01*
X140591358Y-127773231D01*
X140416001Y-127773243D01*
X140259659Y-127773358D01*
X140121143Y-127773630D01*
X139999266Y-127774118D01*
X139892840Y-127774876D01*
X139800678Y-127775962D01*
X139721591Y-127777431D01*
X139654392Y-127779340D01*
X139597893Y-127781744D01*
X139550907Y-127784701D01*
X139512245Y-127788266D01*
X139480720Y-127792495D01*
X139455145Y-127797446D01*
X139434330Y-127803173D01*
X139417089Y-127809733D01*
X139402235Y-127817183D01*
X139388578Y-127825579D01*
X139374931Y-127834976D01*
X139360107Y-127845432D01*
X139351217Y-127851523D01*
X139293600Y-127890296D01*
X139293600Y-127358732D01*
X139293635Y-127235483D01*
X139293785Y-127132987D01*
X139294122Y-127049420D01*
X139294714Y-126982956D01*
X139295633Y-126931771D01*
X139296949Y-126894041D01*
X139298731Y-126867940D01*
X139301049Y-126851644D01*
X139303974Y-126843328D01*
X139307576Y-126841168D01*
X139311925Y-126843339D01*
X139313355Y-126844535D01*
X139350427Y-126869685D01*
X139403228Y-126895583D01*
X139465230Y-126919192D01*
X139491643Y-126927461D01*
X139509584Y-126932078D01*
X139530645Y-126935979D01*
X139556911Y-126939248D01*
X139590468Y-126941966D01*
X139633401Y-126944215D01*
X139687796Y-126946077D01*
X139755738Y-126947636D01*
X139839312Y-126948972D01*
X139940605Y-126950169D01*
X140061700Y-126951308D01*
X140106400Y-126951685D01*
X140231551Y-126952702D01*
X140335918Y-126953460D01*
X140421293Y-126953903D01*
X140489467Y-126953970D01*
X140542235Y-126953605D01*
X140581386Y-126952748D01*
X140608715Y-126951341D01*
X140626014Y-126949325D01*
X140635074Y-126946643D01*
X140637688Y-126943236D01*
X140635649Y-126939044D01*
X140631333Y-126934571D01*
X140618398Y-126924216D01*
X140589324Y-126902158D01*
X140546241Y-126869957D01*
X140491282Y-126829174D01*
X140426577Y-126781370D01*
X140354258Y-126728105D01*
X140276456Y-126670940D01*
X140195302Y-126611437D01*
X140112928Y-126551155D01*
X140031464Y-126491655D01*
X139953043Y-126434498D01*
X139879796Y-126381245D01*
X139813853Y-126333457D01*
X139757346Y-126292693D01*
X139712407Y-126260516D01*
X139681166Y-126238485D01*
X139674534Y-126233917D01*
X139637631Y-126210996D01*
X139589641Y-126184188D01*
X139540103Y-126158789D01*
X139533423Y-126155568D01*
X139485228Y-126133890D01*
X139447666Y-126121304D01*
X139411840Y-126115574D01*
X139369800Y-126114456D01*
X139293600Y-126115090D01*
X139293600Y-124960651D01*
X139387331Y-125051815D01*
X139437225Y-125098612D01*
X139493705Y-125148899D01*
X139547974Y-125194944D01*
X139573327Y-125215369D01*
X139612872Y-125245807D01*
X139666084Y-125285862D01*
X139731333Y-125334361D01*
X139806989Y-125390135D01*
X139891423Y-125452011D01*
X139983006Y-125518819D01*
X140080108Y-125589387D01*
X140181099Y-125662545D01*
X140284350Y-125737121D01*
X140388232Y-125811944D01*
X140491115Y-125885843D01*
X140591369Y-125957646D01*
X140687364Y-126026184D01*
X140777473Y-126090284D01*
X140860064Y-126148775D01*
X140933508Y-126200486D01*
X140996176Y-126244247D01*
X141046439Y-126278885D01*
X141082666Y-126303230D01*
X141103229Y-126316111D01*
X141107332Y-126317869D01*
X141118658Y-126309910D01*
X141145838Y-126289115D01*
X141187171Y-126256847D01*
X141240956Y-126214470D01*
X141305494Y-126163347D01*
X141379082Y-126104841D01*
X141460022Y-126040314D01*
X141546612Y-125971131D01*
X141637152Y-125898653D01*
X141729940Y-125824246D01*
X141804298Y-125764517D01*
X141804298Y-124753511D01*
X141791341Y-124747602D01*
X141769092Y-124733272D01*
X141767609Y-124732225D01*
X141737456Y-124713438D01*
X141700625Y-124693791D01*
X141692489Y-124689892D01*
X141684060Y-124686356D01*
X141673941Y-124683230D01*
X141660740Y-124680486D01*
X141643062Y-124678092D01*
X141619516Y-124676019D01*
X141588707Y-124674235D01*
X141549243Y-124672712D01*
X141499731Y-124671419D01*
X141438777Y-124670326D01*
X141364989Y-124669403D01*
X141276972Y-124668619D01*
X141173335Y-124667945D01*
X141052684Y-124667350D01*
X140913626Y-124666805D01*
X140754768Y-124666279D01*
X140575911Y-124665745D01*
X140390793Y-124665206D01*
X140226855Y-124664772D01*
X140082697Y-124664509D01*
X139956921Y-124664484D01*
X139848129Y-124664765D01*
X139754923Y-124665419D01*
X139675903Y-124666514D01*
X139609672Y-124668118D01*
X139554830Y-124670297D01*
X139509979Y-124673119D01*
X139473722Y-124676651D01*
X139444659Y-124680961D01*
X139421391Y-124686117D01*
X139402521Y-124692185D01*
X139386649Y-124699233D01*
X139372378Y-124707329D01*
X139358309Y-124716540D01*
X139345842Y-124725040D01*
X139319548Y-124742176D01*
X139301963Y-124752322D01*
X139298743Y-124753511D01*
X139297666Y-124742604D01*
X139296665Y-124711411D01*
X139295765Y-124662223D01*
X139294990Y-124597333D01*
X139294363Y-124519030D01*
X139293909Y-124429607D01*
X139293651Y-124331356D01*
X139293600Y-124262445D01*
X139293820Y-124157452D01*
X139294452Y-124060610D01*
X139295451Y-123974107D01*
X139296773Y-123900132D01*
X139298374Y-123840874D01*
X139300209Y-123798520D01*
X139302235Y-123775260D01*
X139303507Y-123771378D01*
X139318409Y-123779076D01*
X139326440Y-123787074D01*
X139343566Y-123800246D01*
X139373817Y-123817485D01*
X139398378Y-123829407D01*
X139457289Y-123856045D01*
X140634155Y-123859120D01*
X141811022Y-123862195D01*
X141811022Y-124307853D01*
X141810858Y-124405670D01*
X141810389Y-124496064D01*
X141809653Y-124576630D01*
X141808684Y-124644962D01*
X141807520Y-124698656D01*
X141806197Y-124735305D01*
X141804751Y-124752504D01*
X141804298Y-124753511D01*
X141804298Y-125764517D01*
X141823278Y-125749270D01*
X141915463Y-125675090D01*
X142004796Y-125603069D01*
X142089576Y-125534569D01*
X142168102Y-125470955D01*
X142238674Y-125413588D01*
X142299591Y-125363833D01*
X142349153Y-125323052D01*
X142369822Y-125305888D01*
X142470484Y-125219596D01*
X142553741Y-125142997D01*
X142621562Y-125074183D01*
X142675911Y-125011248D01*
X142683278Y-125001867D01*
X142713883Y-124962356D01*
X142714133Y-126094116D01*
X142666156Y-126088827D01*
X142608812Y-126092130D01*
X142540537Y-126113661D01*
X142460788Y-126153635D01*
X142388505Y-126198943D01*
X142365860Y-126215161D01*
X142328304Y-126243214D01*
X142277979Y-126281430D01*
X142217027Y-126328137D01*
X142147589Y-126381661D01*
X142071806Y-126440331D01*
X141991820Y-126502475D01*
X141909772Y-126566421D01*
X141827804Y-126630495D01*
X141748057Y-126693027D01*
X141672673Y-126752343D01*
X141603793Y-126806771D01*
X141543558Y-126854639D01*
X141494111Y-126894275D01*
X141457592Y-126924006D01*
X141436142Y-126942161D01*
X141432844Y-126945220D01*
X141440851Y-126948079D01*
X141471145Y-126950293D01*
X141523444Y-126951857D01*
X141597469Y-126952767D01*
X141692937Y-126953020D01*
X141809566Y-126952613D01*
X141929555Y-126951704D01*
X142061667Y-126950382D01*
X142173406Y-126948857D01*
X142266975Y-126946881D01*
X142344581Y-126944206D01*
X142408426Y-126940582D01*
X142460717Y-126935761D01*
X142503656Y-126929494D01*
X142539449Y-126921532D01*
X142570300Y-126911627D01*
X142598414Y-126899531D01*
X142625995Y-126884993D01*
X142651034Y-126870311D01*
X142714133Y-126832314D01*
X142714133Y-127892197D01*
X142714133Y-128195034D01*
X142720383Y-128195001D01*
X142822456Y-128194195D01*
X142911367Y-128193170D01*
X142988059Y-128191900D01*
X143053473Y-128190360D01*
X143108551Y-128188524D01*
X143154235Y-128186367D01*
X143191466Y-128183863D01*
X143221187Y-128180987D01*
X143244338Y-128177713D01*
X143261861Y-128174015D01*
X143274699Y-128169869D01*
X143283792Y-128165247D01*
X143290082Y-128160126D01*
X143294512Y-128154478D01*
X143298022Y-128148279D01*
X143301555Y-128141504D01*
X143305124Y-128135508D01*
X143307700Y-128130275D01*
X143310028Y-128122099D01*
X143312122Y-128109886D01*
X143313993Y-128092541D01*
X143315653Y-128068969D01*
X143317116Y-128038077D01*
X143318392Y-127998768D01*
X143319496Y-127949950D01*
X143320439Y-127890527D01*
X143321233Y-127819404D01*
X143321891Y-127735488D01*
X143322425Y-127637683D01*
X143322847Y-127524894D01*
X143323171Y-127396029D01*
X143323408Y-127249991D01*
X143323570Y-127085686D01*
X143323670Y-126902020D01*
X143323720Y-126697897D01*
X143323733Y-126486753D01*
X143323733Y-124866400D01*
X143226946Y-124866400D01*
X143226946Y-124866400D01*
G37*
X143226946Y-124866400D02*
X143113007Y-124855535D01*
X143005384Y-124823918D01*
X142906385Y-124773015D01*
X142818316Y-124704293D01*
X142743484Y-124619219D01*
X142685616Y-124522232D01*
X142645995Y-124415964D01*
X142627427Y-124308950D01*
X142628566Y-124203300D01*
X142648070Y-124101125D01*
X142684594Y-124004534D01*
X142736795Y-123915638D01*
X142803327Y-123836546D01*
X142882848Y-123769369D01*
X142974013Y-123716217D01*
X143075477Y-123679199D01*
X143185898Y-123660427D01*
X143235794Y-123658489D01*
X143323733Y-123658489D01*
X143323733Y-123606560D01*
X143320889Y-123570253D01*
X143309089Y-123543355D01*
X143285351Y-123516249D01*
X143246969Y-123477867D01*
X141055398Y-123477867D01*
X140793261Y-123477876D01*
X140552759Y-123477908D01*
X140332952Y-123477972D01*
X140132899Y-123478076D01*
X139951656Y-123478227D01*
X139788284Y-123478434D01*
X139641840Y-123478706D01*
X139511383Y-123479050D01*
X139395971Y-123479474D01*
X139294662Y-123479987D01*
X139206516Y-123480597D01*
X139130590Y-123481312D01*
X139065943Y-123482140D01*
X139011633Y-123483089D01*
X138966720Y-123484167D01*
X138930260Y-123485383D01*
X138901313Y-123486745D01*
X138878937Y-123488261D01*
X138862191Y-123489938D01*
X138850132Y-123491786D01*
X138841820Y-123493813D01*
X138836313Y-123496025D01*
X138834463Y-123497108D01*
X138827451Y-123501271D01*
X138821004Y-123504805D01*
X138815100Y-123508635D01*
X138809714Y-123513682D01*
X138804822Y-123520871D01*
X138800402Y-123531123D01*
X138796428Y-123545364D01*
X138792879Y-123564514D01*
X138789730Y-123589499D01*
X138786958Y-123621240D01*
X138784539Y-123660662D01*
X138782449Y-123708686D01*
X138780665Y-123766237D01*
X138779163Y-123834237D01*
X138777920Y-123913610D01*
X138776911Y-124005279D01*
X138776115Y-124110166D01*
X138775506Y-124229196D01*
X138775061Y-124363290D01*
X138774757Y-124513373D01*
X138774570Y-124680367D01*
X138774476Y-124865196D01*
X138774452Y-125068783D01*
X138774475Y-125292050D01*
X138774520Y-125535922D01*
X138774563Y-125801321D01*
X138774568Y-125839704D01*
X138774611Y-126106682D01*
X138774682Y-126352002D01*
X138774787Y-126576583D01*
X138774934Y-126781345D01*
X138775131Y-126967206D01*
X138775384Y-127135088D01*
X138775700Y-127285908D01*
X138776087Y-127420587D01*
X138776553Y-127540044D01*
X138777103Y-127645199D01*
X138777747Y-127736971D01*
X138778489Y-127816279D01*
X138779339Y-127884043D01*
X138780303Y-127941182D01*
X138781389Y-127988617D01*
X138782603Y-128027266D01*
X138783953Y-128058049D01*
X138785445Y-128081885D01*
X138787089Y-128099694D01*
X138788889Y-128112395D01*
X138790855Y-128120908D01*
X138792523Y-128125266D01*
X138796094Y-128133728D01*
X138798730Y-128141497D01*
X138801366Y-128148602D01*
X138804938Y-128155073D01*
X138810379Y-128160939D01*
X138818625Y-128166229D01*
X138830610Y-128170974D01*
X138847269Y-128175202D01*
X138869537Y-128178943D01*
X138898348Y-128182227D01*
X138934637Y-128185083D01*
X138979339Y-128187540D01*
X139033389Y-128189629D01*
X139097721Y-128191378D01*
X139173270Y-128192817D01*
X139260970Y-128193976D01*
X139361757Y-128194883D01*
X139476566Y-128195569D01*
X139606330Y-128196063D01*
X139751985Y-128196395D01*
X139914465Y-128196593D01*
X140094705Y-128196687D01*
X140293640Y-128196708D01*
X140512204Y-128196685D01*
X140751332Y-128196646D01*
X141011960Y-128196622D01*
X141054111Y-128196622D01*
X141317008Y-128196636D01*
X141558268Y-128196661D01*
X141778835Y-128196671D01*
X141979648Y-128196642D01*
X142161651Y-128196548D01*
X142325784Y-128196362D01*
X142472989Y-128196059D01*
X142604208Y-128195614D01*
X142714133Y-128195034D01*
X142714133Y-127892197D01*
X142656289Y-127852407D01*
X142640521Y-127841236D01*
X142626559Y-127831166D01*
X142613216Y-127822138D01*
X142599307Y-127814097D01*
X142583644Y-127806986D01*
X142565042Y-127800747D01*
X142542314Y-127795325D01*
X142514273Y-127790662D01*
X142479733Y-127786701D01*
X142437508Y-127783385D01*
X142386411Y-127780659D01*
X142325256Y-127778464D01*
X142252856Y-127776745D01*
X142168025Y-127775444D01*
X142069578Y-127774505D01*
X141956326Y-127773870D01*
X141827084Y-127773484D01*
X141680666Y-127773288D01*
X141515884Y-127773227D01*
X141331553Y-127773243D01*
X141126487Y-127773280D01*
X141003867Y-127773289D01*
X140786918Y-127773265D01*
X140591358Y-127773231D01*
X140416001Y-127773243D01*
X140259659Y-127773358D01*
X140121143Y-127773630D01*
X139999266Y-127774118D01*
X139892840Y-127774876D01*
X139800678Y-127775962D01*
X139721591Y-127777431D01*
X139654392Y-127779340D01*
X139597893Y-127781744D01*
X139550907Y-127784701D01*
X139512245Y-127788266D01*
X139480720Y-127792495D01*
X139455145Y-127797446D01*
X139434330Y-127803173D01*
X139417089Y-127809733D01*
X139402235Y-127817183D01*
X139388578Y-127825579D01*
X139374931Y-127834976D01*
X139360107Y-127845432D01*
X139351217Y-127851523D01*
X139293600Y-127890296D01*
X139293600Y-127358732D01*
X139293635Y-127235483D01*
X139293785Y-127132987D01*
X139294122Y-127049420D01*
X139294714Y-126982956D01*
X139295633Y-126931771D01*
X139296949Y-126894041D01*
X139298731Y-126867940D01*
X139301049Y-126851644D01*
X139303974Y-126843328D01*
X139307576Y-126841168D01*
X139311925Y-126843339D01*
X139313355Y-126844535D01*
X139350427Y-126869685D01*
X139403228Y-126895583D01*
X139465230Y-126919192D01*
X139491643Y-126927461D01*
X139509584Y-126932078D01*
X139530645Y-126935979D01*
X139556911Y-126939248D01*
X139590468Y-126941966D01*
X139633401Y-126944215D01*
X139687796Y-126946077D01*
X139755738Y-126947636D01*
X139839312Y-126948972D01*
X139940605Y-126950169D01*
X140061700Y-126951308D01*
X140106400Y-126951685D01*
X140231551Y-126952702D01*
X140335918Y-126953460D01*
X140421293Y-126953903D01*
X140489467Y-126953970D01*
X140542235Y-126953605D01*
X140581386Y-126952748D01*
X140608715Y-126951341D01*
X140626014Y-126949325D01*
X140635074Y-126946643D01*
X140637688Y-126943236D01*
X140635649Y-126939044D01*
X140631333Y-126934571D01*
X140618398Y-126924216D01*
X140589324Y-126902158D01*
X140546241Y-126869957D01*
X140491282Y-126829174D01*
X140426577Y-126781370D01*
X140354258Y-126728105D01*
X140276456Y-126670940D01*
X140195302Y-126611437D01*
X140112928Y-126551155D01*
X140031464Y-126491655D01*
X139953043Y-126434498D01*
X139879796Y-126381245D01*
X139813853Y-126333457D01*
X139757346Y-126292693D01*
X139712407Y-126260516D01*
X139681166Y-126238485D01*
X139674534Y-126233917D01*
X139637631Y-126210996D01*
X139589641Y-126184188D01*
X139540103Y-126158789D01*
X139533423Y-126155568D01*
X139485228Y-126133890D01*
X139447666Y-126121304D01*
X139411840Y-126115574D01*
X139369800Y-126114456D01*
X139293600Y-126115090D01*
X139293600Y-124960651D01*
X139387331Y-125051815D01*
X139437225Y-125098612D01*
X139493705Y-125148899D01*
X139547974Y-125194944D01*
X139573327Y-125215369D01*
X139612872Y-125245807D01*
X139666084Y-125285862D01*
X139731333Y-125334361D01*
X139806989Y-125390135D01*
X139891423Y-125452011D01*
X139983006Y-125518819D01*
X140080108Y-125589387D01*
X140181099Y-125662545D01*
X140284350Y-125737121D01*
X140388232Y-125811944D01*
X140491115Y-125885843D01*
X140591369Y-125957646D01*
X140687364Y-126026184D01*
X140777473Y-126090284D01*
X140860064Y-126148775D01*
X140933508Y-126200486D01*
X140996176Y-126244247D01*
X141046439Y-126278885D01*
X141082666Y-126303230D01*
X141103229Y-126316111D01*
X141107332Y-126317869D01*
X141118658Y-126309910D01*
X141145838Y-126289115D01*
X141187171Y-126256847D01*
X141240956Y-126214470D01*
X141305494Y-126163347D01*
X141379082Y-126104841D01*
X141460022Y-126040314D01*
X141546612Y-125971131D01*
X141637152Y-125898653D01*
X141729940Y-125824246D01*
X141804298Y-125764517D01*
X141804298Y-124753511D01*
X141791341Y-124747602D01*
X141769092Y-124733272D01*
X141767609Y-124732225D01*
X141737456Y-124713438D01*
X141700625Y-124693791D01*
X141692489Y-124689892D01*
X141684060Y-124686356D01*
X141673941Y-124683230D01*
X141660740Y-124680486D01*
X141643062Y-124678092D01*
X141619516Y-124676019D01*
X141588707Y-124674235D01*
X141549243Y-124672712D01*
X141499731Y-124671419D01*
X141438777Y-124670326D01*
X141364989Y-124669403D01*
X141276972Y-124668619D01*
X141173335Y-124667945D01*
X141052684Y-124667350D01*
X140913626Y-124666805D01*
X140754768Y-124666279D01*
X140575911Y-124665745D01*
X140390793Y-124665206D01*
X140226855Y-124664772D01*
X140082697Y-124664509D01*
X139956921Y-124664484D01*
X139848129Y-124664765D01*
X139754923Y-124665419D01*
X139675903Y-124666514D01*
X139609672Y-124668118D01*
X139554830Y-124670297D01*
X139509979Y-124673119D01*
X139473722Y-124676651D01*
X139444659Y-124680961D01*
X139421391Y-124686117D01*
X139402521Y-124692185D01*
X139386649Y-124699233D01*
X139372378Y-124707329D01*
X139358309Y-124716540D01*
X139345842Y-124725040D01*
X139319548Y-124742176D01*
X139301963Y-124752322D01*
X139298743Y-124753511D01*
X139297666Y-124742604D01*
X139296665Y-124711411D01*
X139295765Y-124662223D01*
X139294990Y-124597333D01*
X139294363Y-124519030D01*
X139293909Y-124429607D01*
X139293651Y-124331356D01*
X139293600Y-124262445D01*
X139293820Y-124157452D01*
X139294452Y-124060610D01*
X139295451Y-123974107D01*
X139296773Y-123900132D01*
X139298374Y-123840874D01*
X139300209Y-123798520D01*
X139302235Y-123775260D01*
X139303507Y-123771378D01*
X139318409Y-123779076D01*
X139326440Y-123787074D01*
X139343566Y-123800246D01*
X139373817Y-123817485D01*
X139398378Y-123829407D01*
X139457289Y-123856045D01*
X140634155Y-123859120D01*
X141811022Y-123862195D01*
X141811022Y-124307853D01*
X141810858Y-124405670D01*
X141810389Y-124496064D01*
X141809653Y-124576630D01*
X141808684Y-124644962D01*
X141807520Y-124698656D01*
X141806197Y-124735305D01*
X141804751Y-124752504D01*
X141804298Y-124753511D01*
X141804298Y-125764517D01*
X141823278Y-125749270D01*
X141915463Y-125675090D01*
X142004796Y-125603069D01*
X142089576Y-125534569D01*
X142168102Y-125470955D01*
X142238674Y-125413588D01*
X142299591Y-125363833D01*
X142349153Y-125323052D01*
X142369822Y-125305888D01*
X142470484Y-125219596D01*
X142553741Y-125142997D01*
X142621562Y-125074183D01*
X142675911Y-125011248D01*
X142683278Y-125001867D01*
X142713883Y-124962356D01*
X142714133Y-126094116D01*
X142666156Y-126088827D01*
X142608812Y-126092130D01*
X142540537Y-126113661D01*
X142460788Y-126153635D01*
X142388505Y-126198943D01*
X142365860Y-126215161D01*
X142328304Y-126243214D01*
X142277979Y-126281430D01*
X142217027Y-126328137D01*
X142147589Y-126381661D01*
X142071806Y-126440331D01*
X141991820Y-126502475D01*
X141909772Y-126566421D01*
X141827804Y-126630495D01*
X141748057Y-126693027D01*
X141672673Y-126752343D01*
X141603793Y-126806771D01*
X141543558Y-126854639D01*
X141494111Y-126894275D01*
X141457592Y-126924006D01*
X141436142Y-126942161D01*
X141432844Y-126945220D01*
X141440851Y-126948079D01*
X141471145Y-126950293D01*
X141523444Y-126951857D01*
X141597469Y-126952767D01*
X141692937Y-126953020D01*
X141809566Y-126952613D01*
X141929555Y-126951704D01*
X142061667Y-126950382D01*
X142173406Y-126948857D01*
X142266975Y-126946881D01*
X142344581Y-126944206D01*
X142408426Y-126940582D01*
X142460717Y-126935761D01*
X142503656Y-126929494D01*
X142539449Y-126921532D01*
X142570300Y-126911627D01*
X142598414Y-126899531D01*
X142625995Y-126884993D01*
X142651034Y-126870311D01*
X142714133Y-126832314D01*
X142714133Y-127892197D01*
X142714133Y-128195034D01*
X142720383Y-128195001D01*
X142822456Y-128194195D01*
X142911367Y-128193170D01*
X142988059Y-128191900D01*
X143053473Y-128190360D01*
X143108551Y-128188524D01*
X143154235Y-128186367D01*
X143191466Y-128183863D01*
X143221187Y-128180987D01*
X143244338Y-128177713D01*
X143261861Y-128174015D01*
X143274699Y-128169869D01*
X143283792Y-128165247D01*
X143290082Y-128160126D01*
X143294512Y-128154478D01*
X143298022Y-128148279D01*
X143301555Y-128141504D01*
X143305124Y-128135508D01*
X143307700Y-128130275D01*
X143310028Y-128122099D01*
X143312122Y-128109886D01*
X143313993Y-128092541D01*
X143315653Y-128068969D01*
X143317116Y-128038077D01*
X143318392Y-127998768D01*
X143319496Y-127949950D01*
X143320439Y-127890527D01*
X143321233Y-127819404D01*
X143321891Y-127735488D01*
X143322425Y-127637683D01*
X143322847Y-127524894D01*
X143323171Y-127396029D01*
X143323408Y-127249991D01*
X143323570Y-127085686D01*
X143323670Y-126902020D01*
X143323720Y-126697897D01*
X143323733Y-126486753D01*
X143323733Y-124866400D01*
X143226946Y-124866400D01*
G36*
X142766929Y-121591571D02*
X142745755Y-121431430D01*
X142705615Y-121267490D01*
X142646111Y-121097687D01*
X142566846Y-120919957D01*
X142561301Y-120908690D01*
X142533275Y-120850995D01*
X142509198Y-120799448D01*
X142490751Y-120757809D01*
X142479614Y-120729838D01*
X142477067Y-120720267D01*
X142472059Y-120701050D01*
X142467853Y-120696439D01*
X142457420Y-120701542D01*
X142431132Y-120717582D01*
X142391743Y-120742712D01*
X142342009Y-120775086D01*
X142284685Y-120812857D01*
X142222524Y-120854178D01*
X142158282Y-120897202D01*
X142094715Y-120940083D01*
X142034575Y-120980974D01*
X141980620Y-121018029D01*
X141935603Y-121049400D01*
X141902279Y-121073241D01*
X141883403Y-121087706D01*
X141881213Y-121089691D01*
X141885862Y-121099809D01*
X141903038Y-121122150D01*
X141929560Y-121152720D01*
X141944036Y-121168464D01*
X142019318Y-121264953D01*
X142074759Y-121371664D01*
X142109859Y-121487168D01*
X142124120Y-121610038D01*
X142122949Y-121679439D01*
X142105788Y-121800577D01*
X142069906Y-121909795D01*
X142015041Y-122007418D01*
X141940930Y-122093772D01*
X141847312Y-122169185D01*
X141733924Y-122233982D01*
X141647333Y-122271399D01*
X141511634Y-122315252D01*
X141364150Y-122347572D01*
X141208686Y-122368443D01*
X141049044Y-122377949D01*
X140889027Y-122376173D01*
X140732439Y-122363197D01*
X140583082Y-122339106D01*
X140444760Y-122303982D01*
X140321276Y-122257908D01*
X140287022Y-122241627D01*
X140172936Y-122173380D01*
X140076443Y-122092921D01*
X139998330Y-122001430D01*
X139939383Y-121900089D01*
X139900388Y-121790080D01*
X139882132Y-121672585D01*
X139880789Y-121631117D01*
X139891710Y-121509559D01*
X139924526Y-121389122D01*
X139978561Y-121271334D01*
X140053135Y-121157723D01*
X140131461Y-121066315D01*
X140175992Y-121019785D01*
X139878729Y-120838517D01*
X139804567Y-120793420D01*
X139736354Y-120752181D01*
X139676541Y-120716265D01*
X139627580Y-120687134D01*
X139591921Y-120666250D01*
X139572016Y-120655076D01*
X139568921Y-120653625D01*
X139559282Y-120661854D01*
X139542001Y-120687433D01*
X139518717Y-120727127D01*
X139491066Y-120777703D01*
X139460685Y-120835926D01*
X139429210Y-120898563D01*
X139398278Y-120962379D01*
X139369527Y-121024140D01*
X139344592Y-121080612D01*
X139325111Y-121128562D01*
X139316682Y-121152014D01*
X139278867Y-121285779D01*
X139253864Y-121423673D01*
X139240860Y-121571378D01*
X139238532Y-121698167D01*
X139239627Y-121766122D01*
X139241725Y-121831723D01*
X139244566Y-121889153D01*
X139247894Y-121932597D01*
X139249578Y-121946702D01*
X139278413Y-122085716D01*
X139323532Y-122227243D01*
X139382250Y-122364725D01*
X139451880Y-122491606D01*
X139504559Y-122569111D01*
X139612761Y-122696519D01*
X139739329Y-122814822D01*
X139881134Y-122921828D01*
X140035049Y-123015348D01*
X140197947Y-123093190D01*
X140315244Y-123137044D01*
X140498872Y-123187292D01*
X140693419Y-123220791D01*
X140894675Y-123237551D01*
X141098432Y-123237584D01*
X141300479Y-123220899D01*
X141496608Y-123187507D01*
X141682609Y-123137420D01*
X141694197Y-123133603D01*
X141856250Y-123070719D01*
X142004168Y-122993972D01*
X142142135Y-122900758D01*
X142274339Y-122788473D01*
X142319601Y-122744608D01*
X142443543Y-122608466D01*
X142546085Y-122468509D01*
X142628344Y-122322589D01*
X142691436Y-122168558D01*
X142736477Y-122004268D01*
X142753967Y-121908711D01*
X142769534Y-121749977D01*
X142766929Y-121591571D01*
X142766929Y-121591571D01*
G37*
X142766929Y-121591571D02*
X142745755Y-121431430D01*
X142705615Y-121267490D01*
X142646111Y-121097687D01*
X142566846Y-120919957D01*
X142561301Y-120908690D01*
X142533275Y-120850995D01*
X142509198Y-120799448D01*
X142490751Y-120757809D01*
X142479614Y-120729838D01*
X142477067Y-120720267D01*
X142472059Y-120701050D01*
X142467853Y-120696439D01*
X142457420Y-120701542D01*
X142431132Y-120717582D01*
X142391743Y-120742712D01*
X142342009Y-120775086D01*
X142284685Y-120812857D01*
X142222524Y-120854178D01*
X142158282Y-120897202D01*
X142094715Y-120940083D01*
X142034575Y-120980974D01*
X141980620Y-121018029D01*
X141935603Y-121049400D01*
X141902279Y-121073241D01*
X141883403Y-121087706D01*
X141881213Y-121089691D01*
X141885862Y-121099809D01*
X141903038Y-121122150D01*
X141929560Y-121152720D01*
X141944036Y-121168464D01*
X142019318Y-121264953D01*
X142074759Y-121371664D01*
X142109859Y-121487168D01*
X142124120Y-121610038D01*
X142122949Y-121679439D01*
X142105788Y-121800577D01*
X142069906Y-121909795D01*
X142015041Y-122007418D01*
X141940930Y-122093772D01*
X141847312Y-122169185D01*
X141733924Y-122233982D01*
X141647333Y-122271399D01*
X141511634Y-122315252D01*
X141364150Y-122347572D01*
X141208686Y-122368443D01*
X141049044Y-122377949D01*
X140889027Y-122376173D01*
X140732439Y-122363197D01*
X140583082Y-122339106D01*
X140444760Y-122303982D01*
X140321276Y-122257908D01*
X140287022Y-122241627D01*
X140172936Y-122173380D01*
X140076443Y-122092921D01*
X139998330Y-122001430D01*
X139939383Y-121900089D01*
X139900388Y-121790080D01*
X139882132Y-121672585D01*
X139880789Y-121631117D01*
X139891710Y-121509559D01*
X139924526Y-121389122D01*
X139978561Y-121271334D01*
X140053135Y-121157723D01*
X140131461Y-121066315D01*
X140175992Y-121019785D01*
X139878729Y-120838517D01*
X139804567Y-120793420D01*
X139736354Y-120752181D01*
X139676541Y-120716265D01*
X139627580Y-120687134D01*
X139591921Y-120666250D01*
X139572016Y-120655076D01*
X139568921Y-120653625D01*
X139559282Y-120661854D01*
X139542001Y-120687433D01*
X139518717Y-120727127D01*
X139491066Y-120777703D01*
X139460685Y-120835926D01*
X139429210Y-120898563D01*
X139398278Y-120962379D01*
X139369527Y-121024140D01*
X139344592Y-121080612D01*
X139325111Y-121128562D01*
X139316682Y-121152014D01*
X139278867Y-121285779D01*
X139253864Y-121423673D01*
X139240860Y-121571378D01*
X139238532Y-121698167D01*
X139239627Y-121766122D01*
X139241725Y-121831723D01*
X139244566Y-121889153D01*
X139247894Y-121932597D01*
X139249578Y-121946702D01*
X139278413Y-122085716D01*
X139323532Y-122227243D01*
X139382250Y-122364725D01*
X139451880Y-122491606D01*
X139504559Y-122569111D01*
X139612761Y-122696519D01*
X139739329Y-122814822D01*
X139881134Y-122921828D01*
X140035049Y-123015348D01*
X140197947Y-123093190D01*
X140315244Y-123137044D01*
X140498872Y-123187292D01*
X140693419Y-123220791D01*
X140894675Y-123237551D01*
X141098432Y-123237584D01*
X141300479Y-123220899D01*
X141496608Y-123187507D01*
X141682609Y-123137420D01*
X141694197Y-123133603D01*
X141856250Y-123070719D01*
X142004168Y-122993972D01*
X142142135Y-122900758D01*
X142274339Y-122788473D01*
X142319601Y-122744608D01*
X142443543Y-122608466D01*
X142546085Y-122468509D01*
X142628344Y-122322589D01*
X142691436Y-122168558D01*
X142736477Y-122004268D01*
X142753967Y-121908711D01*
X142769534Y-121749977D01*
X142766929Y-121591571D01*
G36*
X141849448Y-119246426D02*
X141829433Y-119094508D01*
X141795798Y-118959244D01*
X141748275Y-118839761D01*
X141686595Y-118735185D01*
X141623035Y-118657576D01*
X141548901Y-118588735D01*
X141469129Y-118534994D01*
X141376909Y-118492090D01*
X141333839Y-118476616D01*
X141294858Y-118463756D01*
X141258711Y-118452554D01*
X141223566Y-118442880D01*
X141187590Y-118434604D01*
X141148950Y-118427597D01*
X141105815Y-118421728D01*
X141056351Y-118416869D01*
X140998727Y-118412890D01*
X140931109Y-118409660D01*
X140851666Y-118407051D01*
X140758564Y-118404933D01*
X140649973Y-118403176D01*
X140524058Y-118401651D01*
X140378988Y-118400228D01*
X140236222Y-118398975D01*
X140080032Y-118397649D01*
X139944761Y-118396444D01*
X139828754Y-118395234D01*
X139730355Y-118393894D01*
X139647907Y-118392300D01*
X139579754Y-118390325D01*
X139524240Y-118387844D01*
X139479708Y-118384731D01*
X139444502Y-118380862D01*
X139416966Y-118376111D01*
X139395444Y-118370352D01*
X139378278Y-118363461D01*
X139363814Y-118355311D01*
X139350394Y-118345777D01*
X139336362Y-118334734D01*
X139330929Y-118330434D01*
X139308090Y-118314614D01*
X139292537Y-118307578D01*
X139292078Y-118307556D01*
X139289879Y-118318433D01*
X139287853Y-118349418D01*
X139286058Y-118398043D01*
X139284549Y-118461837D01*
X139283384Y-118538331D01*
X139282620Y-118625056D01*
X139282314Y-118719543D01*
X139282311Y-118730450D01*
X139282311Y-119153343D01*
X139378378Y-119156605D01*
X139474444Y-119159867D01*
X139423457Y-119221956D01*
X139355943Y-119319286D01*
X139301251Y-119429187D01*
X139271022Y-119515651D01*
X139256334Y-119584722D01*
X139246341Y-119668075D01*
X139241354Y-119757841D01*
X139241687Y-119846155D01*
X139247649Y-119925149D01*
X139253362Y-119961378D01*
X139291224Y-120101397D01*
X139346068Y-120227822D01*
X139417076Y-120339740D01*
X139503432Y-120436238D01*
X139604321Y-120516400D01*
X139718924Y-120579313D01*
X139845016Y-120623688D01*
X139901599Y-120636022D01*
X139963798Y-120643632D01*
X140038637Y-120647261D01*
X140072533Y-120647755D01*
X140075718Y-120647690D01*
X140075718Y-119887752D01*
X140000667Y-119878459D01*
X139936840Y-119850272D01*
X139881202Y-119801803D01*
X139876789Y-119796746D01*
X139841963Y-119748452D01*
X139819380Y-119696743D01*
X139807460Y-119636011D01*
X139804617Y-119560648D01*
X139805022Y-119542541D01*
X139807675Y-119488722D01*
X139813091Y-119448692D01*
X139823255Y-119413676D01*
X139840150Y-119374897D01*
X139845328Y-119364255D01*
X139881156Y-119303604D01*
X139923788Y-119256785D01*
X139939027Y-119244048D01*
X139995538Y-119199378D01*
X140191414Y-119199378D01*
X140270061Y-119199914D01*
X140328012Y-119201604D01*
X140367125Y-119204572D01*
X140389259Y-119208943D01*
X140395726Y-119213028D01*
X140398889Y-119228953D01*
X140401512Y-119262736D01*
X140403345Y-119309660D01*
X140404143Y-119365007D01*
X140404158Y-119373894D01*
X140398904Y-119494670D01*
X140382737Y-119597340D01*
X140355039Y-119683894D01*
X140315192Y-119756319D01*
X140268242Y-119811249D01*
X140210355Y-119855796D01*
X140147307Y-119880520D01*
X140075718Y-119887752D01*
X140075718Y-120647690D01*
X140166288Y-120645822D01*
X140245188Y-120637478D01*
X140316410Y-120621232D01*
X140387136Y-120595595D01*
X140439507Y-120571599D01*
X140534804Y-120512980D01*
X140622830Y-120434883D01*
X140701983Y-120339685D01*
X140770660Y-120229762D01*
X140827259Y-120107490D01*
X140870179Y-119975245D01*
X140885118Y-119910578D01*
X140907223Y-119774396D01*
X140921806Y-119625951D01*
X140928187Y-119474495D01*
X140926555Y-119347936D01*
X140919776Y-119186050D01*
X140978755Y-119193470D01*
X141077908Y-119212762D01*
X141158628Y-119243896D01*
X141221534Y-119287731D01*
X141267244Y-119345129D01*
X141296378Y-119416952D01*
X141309553Y-119504059D01*
X141307389Y-119607314D01*
X141303388Y-119645289D01*
X141278220Y-119786480D01*
X141237186Y-119923293D01*
X141199185Y-120017822D01*
X141179810Y-120062982D01*
X141164240Y-120101415D01*
X141154595Y-120127766D01*
X141152548Y-120135454D01*
X141161626Y-120145198D01*
X141190595Y-120161917D01*
X141239783Y-120185768D01*
X141309516Y-120216907D01*
X141400121Y-120255493D01*
X141415911Y-120262090D01*
X141488228Y-120292147D01*
X141553575Y-120319126D01*
X141609094Y-120341864D01*
X141651928Y-120359194D01*
X141679219Y-120369952D01*
X141688058Y-120373059D01*
X141692813Y-120363060D01*
X141698090Y-120336783D01*
X141701769Y-120308511D01*
X141706526Y-120278354D01*
X141715972Y-120230567D01*
X141729180Y-120169388D01*
X141745224Y-120099054D01*
X141763180Y-120023806D01*
X141770203Y-119995245D01*
X141795791Y-119890184D01*
X141815853Y-119802520D01*
X141831031Y-119727932D01*
X141841965Y-119662097D01*
X141849296Y-119600693D01*
X141853665Y-119539398D01*
X141855713Y-119473890D01*
X141856111Y-119415872D01*
X141849448Y-119246426D01*
X141849448Y-119246426D01*
G37*
X141849448Y-119246426D02*
X141829433Y-119094508D01*
X141795798Y-118959244D01*
X141748275Y-118839761D01*
X141686595Y-118735185D01*
X141623035Y-118657576D01*
X141548901Y-118588735D01*
X141469129Y-118534994D01*
X141376909Y-118492090D01*
X141333839Y-118476616D01*
X141294858Y-118463756D01*
X141258711Y-118452554D01*
X141223566Y-118442880D01*
X141187590Y-118434604D01*
X141148950Y-118427597D01*
X141105815Y-118421728D01*
X141056351Y-118416869D01*
X140998727Y-118412890D01*
X140931109Y-118409660D01*
X140851666Y-118407051D01*
X140758564Y-118404933D01*
X140649973Y-118403176D01*
X140524058Y-118401651D01*
X140378988Y-118400228D01*
X140236222Y-118398975D01*
X140080032Y-118397649D01*
X139944761Y-118396444D01*
X139828754Y-118395234D01*
X139730355Y-118393894D01*
X139647907Y-118392300D01*
X139579754Y-118390325D01*
X139524240Y-118387844D01*
X139479708Y-118384731D01*
X139444502Y-118380862D01*
X139416966Y-118376111D01*
X139395444Y-118370352D01*
X139378278Y-118363461D01*
X139363814Y-118355311D01*
X139350394Y-118345777D01*
X139336362Y-118334734D01*
X139330929Y-118330434D01*
X139308090Y-118314614D01*
X139292537Y-118307578D01*
X139292078Y-118307556D01*
X139289879Y-118318433D01*
X139287853Y-118349418D01*
X139286058Y-118398043D01*
X139284549Y-118461837D01*
X139283384Y-118538331D01*
X139282620Y-118625056D01*
X139282314Y-118719543D01*
X139282311Y-118730450D01*
X139282311Y-119153343D01*
X139378378Y-119156605D01*
X139474444Y-119159867D01*
X139423457Y-119221956D01*
X139355943Y-119319286D01*
X139301251Y-119429187D01*
X139271022Y-119515651D01*
X139256334Y-119584722D01*
X139246341Y-119668075D01*
X139241354Y-119757841D01*
X139241687Y-119846155D01*
X139247649Y-119925149D01*
X139253362Y-119961378D01*
X139291224Y-120101397D01*
X139346068Y-120227822D01*
X139417076Y-120339740D01*
X139503432Y-120436238D01*
X139604321Y-120516400D01*
X139718924Y-120579313D01*
X139845016Y-120623688D01*
X139901599Y-120636022D01*
X139963798Y-120643632D01*
X140038637Y-120647261D01*
X140072533Y-120647755D01*
X140075718Y-120647690D01*
X140075718Y-119887752D01*
X140000667Y-119878459D01*
X139936840Y-119850272D01*
X139881202Y-119801803D01*
X139876789Y-119796746D01*
X139841963Y-119748452D01*
X139819380Y-119696743D01*
X139807460Y-119636011D01*
X139804617Y-119560648D01*
X139805022Y-119542541D01*
X139807675Y-119488722D01*
X139813091Y-119448692D01*
X139823255Y-119413676D01*
X139840150Y-119374897D01*
X139845328Y-119364255D01*
X139881156Y-119303604D01*
X139923788Y-119256785D01*
X139939027Y-119244048D01*
X139995538Y-119199378D01*
X140191414Y-119199378D01*
X140270061Y-119199914D01*
X140328012Y-119201604D01*
X140367125Y-119204572D01*
X140389259Y-119208943D01*
X140395726Y-119213028D01*
X140398889Y-119228953D01*
X140401512Y-119262736D01*
X140403345Y-119309660D01*
X140404143Y-119365007D01*
X140404158Y-119373894D01*
X140398904Y-119494670D01*
X140382737Y-119597340D01*
X140355039Y-119683894D01*
X140315192Y-119756319D01*
X140268242Y-119811249D01*
X140210355Y-119855796D01*
X140147307Y-119880520D01*
X140075718Y-119887752D01*
X140075718Y-120647690D01*
X140166288Y-120645822D01*
X140245188Y-120637478D01*
X140316410Y-120621232D01*
X140387136Y-120595595D01*
X140439507Y-120571599D01*
X140534804Y-120512980D01*
X140622830Y-120434883D01*
X140701983Y-120339685D01*
X140770660Y-120229762D01*
X140827259Y-120107490D01*
X140870179Y-119975245D01*
X140885118Y-119910578D01*
X140907223Y-119774396D01*
X140921806Y-119625951D01*
X140928187Y-119474495D01*
X140926555Y-119347936D01*
X140919776Y-119186050D01*
X140978755Y-119193470D01*
X141077908Y-119212762D01*
X141158628Y-119243896D01*
X141221534Y-119287731D01*
X141267244Y-119345129D01*
X141296378Y-119416952D01*
X141309553Y-119504059D01*
X141307389Y-119607314D01*
X141303388Y-119645289D01*
X141278220Y-119786480D01*
X141237186Y-119923293D01*
X141199185Y-120017822D01*
X141179810Y-120062982D01*
X141164240Y-120101415D01*
X141154595Y-120127766D01*
X141152548Y-120135454D01*
X141161626Y-120145198D01*
X141190595Y-120161917D01*
X141239783Y-120185768D01*
X141309516Y-120216907D01*
X141400121Y-120255493D01*
X141415911Y-120262090D01*
X141488228Y-120292147D01*
X141553575Y-120319126D01*
X141609094Y-120341864D01*
X141651928Y-120359194D01*
X141679219Y-120369952D01*
X141688058Y-120373059D01*
X141692813Y-120363060D01*
X141698090Y-120336783D01*
X141701769Y-120308511D01*
X141706526Y-120278354D01*
X141715972Y-120230567D01*
X141729180Y-120169388D01*
X141745224Y-120099054D01*
X141763180Y-120023806D01*
X141770203Y-119995245D01*
X141795791Y-119890184D01*
X141815853Y-119802520D01*
X141831031Y-119727932D01*
X141841965Y-119662097D01*
X141849296Y-119600693D01*
X141853665Y-119539398D01*
X141855713Y-119473890D01*
X141856111Y-119415872D01*
X141849448Y-119246426D01*
G36*
X141243755Y-115733493D02*
X141009338Y-115733474D01*
X140796397Y-115733448D01*
X140603832Y-115733375D01*
X140430541Y-115733218D01*
X140275424Y-115732936D01*
X140137380Y-115732491D01*
X140015308Y-115731844D01*
X139908106Y-115730955D01*
X139814674Y-115729787D01*
X139733910Y-115728299D01*
X139664714Y-115726454D01*
X139605985Y-115724211D01*
X139556621Y-115721531D01*
X139515522Y-115718377D01*
X139481587Y-115714708D01*
X139453714Y-115710487D01*
X139430802Y-115705673D01*
X139411751Y-115700227D01*
X139395460Y-115694112D01*
X139380827Y-115687288D01*
X139366751Y-115679715D01*
X139352132Y-115671355D01*
X139343026Y-115666161D01*
X139282311Y-115631896D01*
X139282311Y-116490045D01*
X139378267Y-116490045D01*
X139421630Y-116490776D01*
X139454795Y-116492728D01*
X139472576Y-116495537D01*
X139474222Y-116496779D01*
X139467338Y-116508201D01*
X139449495Y-116530916D01*
X139430121Y-116553615D01*
X139389386Y-116608200D01*
X139348383Y-116677679D01*
X139310877Y-116754730D01*
X139280636Y-116832035D01*
X139270988Y-116862887D01*
X139256422Y-116931384D01*
X139246461Y-117014236D01*
X139241417Y-117103629D01*
X139241604Y-117191752D01*
X139247334Y-117270793D01*
X139253142Y-117308489D01*
X139291203Y-117446586D01*
X139348927Y-117573887D01*
X139425789Y-117689708D01*
X139521261Y-117793363D01*
X139634821Y-117884167D01*
X139745619Y-117950969D01*
X139862375Y-118005836D01*
X139981724Y-118047837D01*
X140107717Y-118077833D01*
X140244406Y-118096689D01*
X140395842Y-118105268D01*
X140473289Y-118105994D01*
X140530066Y-118103900D01*
X140530066Y-117274783D01*
X140436998Y-117274576D01*
X140349308Y-117271663D01*
X140272228Y-117266000D01*
X140210991Y-117257545D01*
X140198650Y-117254962D01*
X140091367Y-117223160D01*
X140004342Y-117181502D01*
X139937358Y-117129637D01*
X139890195Y-117067219D01*
X139862635Y-116993900D01*
X139854459Y-116909331D01*
X139865449Y-116813165D01*
X139881171Y-116749689D01*
X139899361Y-116700546D01*
X139925209Y-116646417D01*
X139948911Y-116605756D01*
X139995279Y-116535200D01*
X141145470Y-116535200D01*
X141189038Y-116602608D01*
X141229960Y-116681133D01*
X141256611Y-116765319D01*
X141268535Y-116850443D01*
X141265278Y-116931784D01*
X141246385Y-117004620D01*
X141230816Y-117036574D01*
X141187819Y-117094499D01*
X141131047Y-117143456D01*
X141058425Y-117184610D01*
X140967879Y-117219126D01*
X140857334Y-117248167D01*
X140851467Y-117249448D01*
X140789212Y-117259619D01*
X140711406Y-117267261D01*
X140623280Y-117272330D01*
X140530066Y-117274783D01*
X140530066Y-118103900D01*
X140686105Y-118098143D01*
X140881941Y-118076198D01*
X141060668Y-118040214D01*
X141222155Y-117990241D01*
X141366274Y-117926332D01*
X141492894Y-117848538D01*
X141601885Y-117756911D01*
X141693117Y-117651503D01*
X141724068Y-117606338D01*
X141780215Y-117505389D01*
X141819826Y-117402099D01*
X141843986Y-117292011D01*
X141853781Y-117170670D01*
X141852735Y-117078164D01*
X141841769Y-116948510D01*
X141819954Y-116835916D01*
X141786286Y-116737125D01*
X141739764Y-116648879D01*
X141705552Y-116600014D01*
X141683638Y-116570647D01*
X141668667Y-116548957D01*
X141664267Y-116540747D01*
X141675096Y-116539132D01*
X141705749Y-116537841D01*
X141753474Y-116536862D01*
X141815521Y-116536183D01*
X141889138Y-116535790D01*
X141971573Y-116535670D01*
X142060075Y-116535812D01*
X142151893Y-116536203D01*
X142244276Y-116536829D01*
X142334472Y-116537680D01*
X142419729Y-116538740D01*
X142497297Y-116539999D01*
X142564424Y-116541444D01*
X142618359Y-116543062D01*
X142656350Y-116544839D01*
X142663333Y-116545331D01*
X142733749Y-116552908D01*
X142788898Y-116564469D01*
X142836019Y-116582208D01*
X142882353Y-116608318D01*
X142891933Y-116614585D01*
X142928622Y-116639017D01*
X142928622Y-115733689D01*
X141243755Y-115733493D01*
X141243755Y-115733493D01*
G37*
X141243755Y-115733493D02*
X141009338Y-115733474D01*
X140796397Y-115733448D01*
X140603832Y-115733375D01*
X140430541Y-115733218D01*
X140275424Y-115732936D01*
X140137380Y-115732491D01*
X140015308Y-115731844D01*
X139908106Y-115730955D01*
X139814674Y-115729787D01*
X139733910Y-115728299D01*
X139664714Y-115726454D01*
X139605985Y-115724211D01*
X139556621Y-115721531D01*
X139515522Y-115718377D01*
X139481587Y-115714708D01*
X139453714Y-115710487D01*
X139430802Y-115705673D01*
X139411751Y-115700227D01*
X139395460Y-115694112D01*
X139380827Y-115687288D01*
X139366751Y-115679715D01*
X139352132Y-115671355D01*
X139343026Y-115666161D01*
X139282311Y-115631896D01*
X139282311Y-116490045D01*
X139378267Y-116490045D01*
X139421630Y-116490776D01*
X139454795Y-116492728D01*
X139472576Y-116495537D01*
X139474222Y-116496779D01*
X139467338Y-116508201D01*
X139449495Y-116530916D01*
X139430121Y-116553615D01*
X139389386Y-116608200D01*
X139348383Y-116677679D01*
X139310877Y-116754730D01*
X139280636Y-116832035D01*
X139270988Y-116862887D01*
X139256422Y-116931384D01*
X139246461Y-117014236D01*
X139241417Y-117103629D01*
X139241604Y-117191752D01*
X139247334Y-117270793D01*
X139253142Y-117308489D01*
X139291203Y-117446586D01*
X139348927Y-117573887D01*
X139425789Y-117689708D01*
X139521261Y-117793363D01*
X139634821Y-117884167D01*
X139745619Y-117950969D01*
X139862375Y-118005836D01*
X139981724Y-118047837D01*
X140107717Y-118077833D01*
X140244406Y-118096689D01*
X140395842Y-118105268D01*
X140473289Y-118105994D01*
X140530066Y-118103900D01*
X140530066Y-117274783D01*
X140436998Y-117274576D01*
X140349308Y-117271663D01*
X140272228Y-117266000D01*
X140210991Y-117257545D01*
X140198650Y-117254962D01*
X140091367Y-117223160D01*
X140004342Y-117181502D01*
X139937358Y-117129637D01*
X139890195Y-117067219D01*
X139862635Y-116993900D01*
X139854459Y-116909331D01*
X139865449Y-116813165D01*
X139881171Y-116749689D01*
X139899361Y-116700546D01*
X139925209Y-116646417D01*
X139948911Y-116605756D01*
X139995279Y-116535200D01*
X141145470Y-116535200D01*
X141189038Y-116602608D01*
X141229960Y-116681133D01*
X141256611Y-116765319D01*
X141268535Y-116850443D01*
X141265278Y-116931784D01*
X141246385Y-117004620D01*
X141230816Y-117036574D01*
X141187819Y-117094499D01*
X141131047Y-117143456D01*
X141058425Y-117184610D01*
X140967879Y-117219126D01*
X140857334Y-117248167D01*
X140851467Y-117249448D01*
X140789212Y-117259619D01*
X140711406Y-117267261D01*
X140623280Y-117272330D01*
X140530066Y-117274783D01*
X140530066Y-118103900D01*
X140686105Y-118098143D01*
X140881941Y-118076198D01*
X141060668Y-118040214D01*
X141222155Y-117990241D01*
X141366274Y-117926332D01*
X141492894Y-117848538D01*
X141601885Y-117756911D01*
X141693117Y-117651503D01*
X141724068Y-117606338D01*
X141780215Y-117505389D01*
X141819826Y-117402099D01*
X141843986Y-117292011D01*
X141853781Y-117170670D01*
X141852735Y-117078164D01*
X141841769Y-116948510D01*
X141819954Y-116835916D01*
X141786286Y-116737125D01*
X141739764Y-116648879D01*
X141705552Y-116600014D01*
X141683638Y-116570647D01*
X141668667Y-116548957D01*
X141664267Y-116540747D01*
X141675096Y-116539132D01*
X141705749Y-116537841D01*
X141753474Y-116536862D01*
X141815521Y-116536183D01*
X141889138Y-116535790D01*
X141971573Y-116535670D01*
X142060075Y-116535812D01*
X142151893Y-116536203D01*
X142244276Y-116536829D01*
X142334472Y-116537680D01*
X142419729Y-116538740D01*
X142497297Y-116539999D01*
X142564424Y-116541444D01*
X142618359Y-116543062D01*
X142656350Y-116544839D01*
X142663333Y-116545331D01*
X142733749Y-116552908D01*
X142788898Y-116564469D01*
X142836019Y-116582208D01*
X142882353Y-116608318D01*
X142891933Y-116614585D01*
X142928622Y-116639017D01*
X142928622Y-115733689D01*
X141243755Y-115733493D01*
G36*
X143689429Y-124193043D02*
X143665191Y-124096768D01*
X143622359Y-124010184D01*
X143562581Y-123935373D01*
X143487506Y-123874418D01*
X143398780Y-123829399D01*
X143302470Y-123803136D01*
X143205205Y-123797286D01*
X143111346Y-123812140D01*
X143023489Y-123845840D01*
X142944230Y-123896528D01*
X142876164Y-123962345D01*
X142821888Y-124041434D01*
X142783998Y-124131934D01*
X142771574Y-124183200D01*
X142764053Y-124227698D01*
X142761081Y-124261999D01*
X142762906Y-124294960D01*
X142769775Y-124335434D01*
X142776750Y-124368531D01*
X142808259Y-124461947D01*
X142859383Y-124545619D01*
X142928571Y-124617665D01*
X143014272Y-124676200D01*
X143041511Y-124690148D01*
X143077878Y-124706586D01*
X143108418Y-124716894D01*
X143140550Y-124722460D01*
X143181693Y-124724669D01*
X143227778Y-124724948D01*
X143312135Y-124720861D01*
X143381414Y-124707446D01*
X143442039Y-124682256D01*
X143500433Y-124642846D01*
X143544698Y-124604298D01*
X143610516Y-124532406D01*
X143655947Y-124457313D01*
X143683150Y-124374562D01*
X143693424Y-124296928D01*
X143689429Y-124193043D01*
X143689429Y-124193043D01*
G37*
X143689429Y-124193043D02*
X143665191Y-124096768D01*
X143622359Y-124010184D01*
X143562581Y-123935373D01*
X143487506Y-123874418D01*
X143398780Y-123829399D01*
X143302470Y-123803136D01*
X143205205Y-123797286D01*
X143111346Y-123812140D01*
X143023489Y-123845840D01*
X142944230Y-123896528D01*
X142876164Y-123962345D01*
X142821888Y-124041434D01*
X142783998Y-124131934D01*
X142771574Y-124183200D01*
X142764053Y-124227698D01*
X142761081Y-124261999D01*
X142762906Y-124294960D01*
X142769775Y-124335434D01*
X142776750Y-124368531D01*
X142808259Y-124461947D01*
X142859383Y-124545619D01*
X142928571Y-124617665D01*
X143014272Y-124676200D01*
X143041511Y-124690148D01*
X143077878Y-124706586D01*
X143108418Y-124716894D01*
X143140550Y-124722460D01*
X143181693Y-124724669D01*
X143227778Y-124724948D01*
X143312135Y-124720861D01*
X143381414Y-124707446D01*
X143442039Y-124682256D01*
X143500433Y-124642846D01*
X143544698Y-124604298D01*
X143610516Y-124532406D01*
X143655947Y-124457313D01*
X143683150Y-124374562D01*
X143693424Y-124296928D01*
X143689429Y-124193043D01*
D11*
X121801467Y-120069429D02*
X121801467Y-120456477D01*
X122033695Y-119992020D02*
X121220895Y-120262953D01*
X122033695Y-120533886D01*
X121298305Y-120766115D02*
X121259600Y-120804820D01*
X121220895Y-120882229D01*
X121220895Y-121075753D01*
X121259600Y-121153163D01*
X121298305Y-121191867D01*
X121375714Y-121230572D01*
X121453124Y-121230572D01*
X121569238Y-121191867D01*
X122033695Y-120727410D01*
X122033695Y-121230572D01*
X120531467Y-120069429D02*
X120531467Y-120456477D01*
X120763695Y-119992020D02*
X119950895Y-120262953D01*
X120763695Y-120533886D01*
X120763695Y-121230572D02*
X120763695Y-120766115D01*
X120763695Y-120998344D02*
X119950895Y-120998344D01*
X120067010Y-120920934D01*
X120144419Y-120843525D01*
X120183124Y-120766115D01*
X119261467Y-120069429D02*
X119261467Y-120456477D01*
X119493695Y-119992020D02*
X118680895Y-120262953D01*
X119493695Y-120533886D01*
X118680895Y-120959639D02*
X118680895Y-121037048D01*
X118719600Y-121114458D01*
X118758305Y-121153163D01*
X118835714Y-121191867D01*
X118990533Y-121230572D01*
X119184057Y-121230572D01*
X119338876Y-121191867D01*
X119416286Y-121153163D01*
X119454990Y-121114458D01*
X119493695Y-121037048D01*
X119493695Y-120959639D01*
X119454990Y-120882229D01*
X119416286Y-120843525D01*
X119338876Y-120804820D01*
X119184057Y-120766115D01*
X118990533Y-120766115D01*
X118835714Y-120804820D01*
X118758305Y-120843525D01*
X118719600Y-120882229D01*
X118680895Y-120959639D01*
X145191238Y-101420990D02*
X145075124Y-101459695D01*
X144881600Y-101459695D01*
X144804190Y-101420990D01*
X144765486Y-101382286D01*
X144726781Y-101304876D01*
X144726781Y-101227467D01*
X144765486Y-101150057D01*
X144804190Y-101111352D01*
X144881600Y-101072648D01*
X145036419Y-101033943D01*
X145113828Y-100995238D01*
X145152533Y-100956533D01*
X145191238Y-100879124D01*
X145191238Y-100801714D01*
X145152533Y-100724305D01*
X145113828Y-100685600D01*
X145036419Y-100646895D01*
X144842895Y-100646895D01*
X144726781Y-100685600D01*
X144378438Y-101459695D02*
X144378438Y-100646895D01*
X144068800Y-100646895D01*
X143991391Y-100685600D01*
X143952686Y-100724305D01*
X143913981Y-100801714D01*
X143913981Y-100917829D01*
X143952686Y-100995238D01*
X143991391Y-101033943D01*
X144068800Y-101072648D01*
X144378438Y-101072648D01*
X143565638Y-101459695D02*
X143565638Y-100646895D01*
X143372114Y-101537105D02*
X142752838Y-101537105D01*
X142094857Y-101382286D02*
X142133562Y-101420990D01*
X142249676Y-101459695D01*
X142327086Y-101459695D01*
X142443200Y-101420990D01*
X142520609Y-101343581D01*
X142559314Y-101266171D01*
X142598019Y-101111352D01*
X142598019Y-100995238D01*
X142559314Y-100840419D01*
X142520609Y-100763010D01*
X142443200Y-100685600D01*
X142327086Y-100646895D01*
X142249676Y-100646895D01*
X142133562Y-100685600D01*
X142094857Y-100724305D01*
X141785219Y-101420990D02*
X141669105Y-101459695D01*
X141475581Y-101459695D01*
X141398171Y-101420990D01*
X141359467Y-101382286D01*
X141320762Y-101304876D01*
X141320762Y-101227467D01*
X141359467Y-101150057D01*
X141398171Y-101111352D01*
X141475581Y-101072648D01*
X141630400Y-101033943D01*
X141707809Y-100995238D01*
X141746514Y-100956533D01*
X141785219Y-100879124D01*
X141785219Y-100801714D01*
X141746514Y-100724305D01*
X141707809Y-100685600D01*
X141630400Y-100646895D01*
X141436876Y-100646895D01*
X141320762Y-100685600D01*
X150549428Y-143137467D02*
X150162380Y-143137467D01*
X150626837Y-143369695D02*
X150355904Y-142556895D01*
X150084971Y-143369695D01*
X149814037Y-143369695D02*
X149814037Y-142556895D01*
X149620513Y-142556895D01*
X149504399Y-142595600D01*
X149426990Y-142673010D01*
X149388285Y-142750419D01*
X149349580Y-142905238D01*
X149349580Y-143021352D01*
X149388285Y-143176171D01*
X149426990Y-143253581D01*
X149504399Y-143330990D01*
X149620513Y-143369695D01*
X149814037Y-143369695D01*
X148536780Y-143292286D02*
X148575485Y-143330990D01*
X148691599Y-143369695D01*
X148769009Y-143369695D01*
X148885123Y-143330990D01*
X148962532Y-143253581D01*
X149001237Y-143176171D01*
X149039942Y-143021352D01*
X149039942Y-142905238D01*
X149001237Y-142750419D01*
X148962532Y-142673010D01*
X148885123Y-142595600D01*
X148769009Y-142556895D01*
X148691599Y-142556895D01*
X148575485Y-142595600D01*
X148536780Y-142634305D01*
X148381961Y-143447105D02*
X147762685Y-143447105D01*
X147607866Y-143330990D02*
X147491752Y-143369695D01*
X147298228Y-143369695D01*
X147220818Y-143330990D01*
X147182114Y-143292286D01*
X147143409Y-143214876D01*
X147143409Y-143137467D01*
X147182114Y-143060057D01*
X147220818Y-143021352D01*
X147298228Y-142982648D01*
X147453047Y-142943943D01*
X147530456Y-142905238D01*
X147569161Y-142866533D01*
X147607866Y-142789124D01*
X147607866Y-142711714D01*
X147569161Y-142634305D01*
X147530456Y-142595600D01*
X147453047Y-142556895D01*
X147259523Y-142556895D01*
X147143409Y-142595600D01*
X146795066Y-142943943D02*
X146524133Y-142943943D01*
X146408019Y-143369695D02*
X146795066Y-143369695D01*
X146795066Y-142556895D01*
X146408019Y-142556895D01*
X145672629Y-143369695D02*
X146059676Y-143369695D01*
X146059676Y-142556895D01*
X145401695Y-142943943D02*
X145130762Y-142943943D01*
X145014648Y-143369695D02*
X145401695Y-143369695D01*
X145401695Y-142556895D01*
X145014648Y-142556895D01*
X144201848Y-143292286D02*
X144240553Y-143330990D01*
X144356667Y-143369695D01*
X144434077Y-143369695D01*
X144550191Y-143330990D01*
X144627600Y-143253581D01*
X144666305Y-143176171D01*
X144705010Y-143021352D01*
X144705010Y-142905238D01*
X144666305Y-142750419D01*
X144627600Y-142673010D01*
X144550191Y-142595600D01*
X144434077Y-142556895D01*
X144356667Y-142556895D01*
X144240553Y-142595600D01*
X144201848Y-142634305D01*
X143969619Y-142556895D02*
X143505162Y-142556895D01*
X143737391Y-143369695D02*
X143737391Y-142556895D01*
M02*
