G04 #@! TF.FileFunction,Profile,NP*
%FSLAX46Y46*%
G04 Gerber Fmt 4.6, Leading zero omitted, Abs format (unit mm)*
G04 Created by KiCad (PCBNEW 4.0.7-e2-6376~58~ubuntu16.04.1) date Mon Aug 13 19:04:16 2018*
%MOMM*%
%LPD*%
G01*
G04 APERTURE LIST*
%ADD10C,0.100000*%
%ADD11C,0.150000*%
G04 APERTURE END LIST*
D10*
D11*
X167386000Y-106680000D02*
X167386000Y-109220000D01*
X165862000Y-105156000D02*
X167386000Y-106680000D01*
X165862000Y-101092000D02*
X165862000Y-105156000D01*
X164846000Y-100076000D02*
X165862000Y-101092000D01*
X164846000Y-71374000D02*
X164846000Y-100076000D01*
X168910000Y-110744000D02*
X167386000Y-109220000D01*
X175768000Y-110744000D02*
X168910000Y-110744000D01*
X177800000Y-112776000D02*
X175768000Y-110744000D01*
X115062000Y-69342000D02*
X98552000Y-69342000D01*
X177800000Y-141478000D02*
X177800000Y-112776000D01*
X116332000Y-141478000D02*
X177800000Y-141478000D01*
X116332000Y-70612000D02*
X116332000Y-141478000D01*
X115062000Y-69342000D02*
X116332000Y-70612000D01*
X162306000Y-68834000D02*
X164846000Y-71374000D01*
X162306000Y-57340500D02*
X162306000Y-68834000D01*
X160845500Y-55880000D02*
X162306000Y-57340500D01*
X97472500Y-55880000D02*
X160845500Y-55880000D01*
X96266000Y-57086500D02*
X97472500Y-55880000D01*
X96266000Y-67056000D02*
X96266000Y-57086500D01*
X98552000Y-69342000D02*
X96266000Y-67056000D01*
M02*
