G04 #@! TF.FileFunction,Copper,L1,Top,Signal*
%FSLAX46Y46*%
G04 Gerber Fmt 4.6, Leading zero omitted, Abs format (unit mm)*
G04 Created by KiCad (PCBNEW 4.0.7-e2-6376~58~ubuntu16.04.1) date Tue Aug 14 19:25:32 2018*
%MOMM*%
%LPD*%
G01*
G04 APERTURE LIST*
%ADD10C,0.100000*%
%ADD11R,1.700000X1.700000*%
%ADD12O,1.700000X1.700000*%
%ADD13C,1.879600*%
%ADD14C,1.800000*%
%ADD15C,4.000000*%
%ADD16C,0.600000*%
%ADD17C,0.750000*%
%ADD18C,0.220000*%
%ADD19C,0.275000*%
%ADD20C,0.320000*%
%ADD21C,0.250000*%
%ADD22C,0.290000*%
%ADD23C,0.305000*%
%ADD24C,0.254000*%
G04 APERTURE END LIST*
D10*
D11*
X126500000Y-97250000D03*
D12*
X129040000Y-97250000D03*
X131580000Y-97250000D03*
X134120000Y-97250000D03*
X136660000Y-97250000D03*
X139200000Y-97250000D03*
D11*
X130500000Y-111500000D03*
D12*
X133040000Y-111500000D03*
X135580000Y-111500000D03*
X138120000Y-111500000D03*
X140660000Y-111500000D03*
X143200000Y-111500000D03*
D13*
X128420000Y-86520000D03*
X128420000Y-83980000D03*
X130960000Y-86520000D03*
X130960000Y-83980000D03*
X133500000Y-86520000D03*
X133500000Y-83980000D03*
X136040000Y-86520000D03*
X136040000Y-83980000D03*
X138580000Y-86520000D03*
X138580000Y-83980000D03*
D11*
X87500000Y-122500000D03*
D12*
X87500000Y-119960000D03*
X87500000Y-117420000D03*
X87500000Y-114880000D03*
X87500000Y-112340000D03*
X87500000Y-109800000D03*
D11*
X182500000Y-94500000D03*
D12*
X182500000Y-91960000D03*
X182500000Y-89420000D03*
X182500000Y-86880000D03*
X182500000Y-84340000D03*
X182500000Y-81800000D03*
D14*
X88500000Y-95250000D03*
X91000000Y-95250000D03*
X93500000Y-95250000D03*
D15*
X86600000Y-88250000D03*
X95400000Y-88250000D03*
D14*
X116500000Y-95250000D03*
X119000000Y-95250000D03*
X121500000Y-95250000D03*
D15*
X114600000Y-88250000D03*
X123400000Y-88250000D03*
D14*
X144500000Y-95250000D03*
X147000000Y-95250000D03*
X149500000Y-95250000D03*
D15*
X142600000Y-88250000D03*
X151400000Y-88250000D03*
D14*
X172500000Y-95250000D03*
X175000000Y-95250000D03*
X177500000Y-95250000D03*
D15*
X170600000Y-88250000D03*
X179400000Y-88250000D03*
D14*
X92500000Y-123250000D03*
X95000000Y-123250000D03*
X97500000Y-123250000D03*
D15*
X90600000Y-116250000D03*
X99400000Y-116250000D03*
D14*
X120500000Y-123250000D03*
X123000000Y-123250000D03*
X125500000Y-123250000D03*
D15*
X118600000Y-116250000D03*
X127400000Y-116250000D03*
D14*
X148500000Y-123250000D03*
X151000000Y-123250000D03*
X153500000Y-123250000D03*
D15*
X146600000Y-116250000D03*
X155400000Y-116250000D03*
D14*
X176500000Y-123250000D03*
X179000000Y-123250000D03*
X181500000Y-123250000D03*
D15*
X174600000Y-116250000D03*
X183400000Y-116250000D03*
D16*
X133500000Y-114250000D03*
X134500000Y-114250000D03*
X178250000Y-80250021D03*
X135285013Y-114250000D03*
D17*
X91000000Y-119250000D03*
X170250000Y-115750000D03*
X115750000Y-119265000D03*
X118000010Y-120750000D03*
X175000000Y-105250000D03*
X141250000Y-116000000D03*
X91250000Y-107000000D03*
X94500000Y-117500000D03*
X130650000Y-92000000D03*
X136500000Y-92000000D03*
D18*
X128420000Y-86520000D02*
X127400000Y-85500000D01*
X127400000Y-85500000D02*
X92500000Y-85500000D01*
X91000000Y-87000000D02*
X91000000Y-95250000D01*
X92500000Y-85500000D02*
X91000000Y-87000000D01*
X133150000Y-79250000D02*
X129359799Y-83040201D01*
X184155011Y-87764989D02*
X184155011Y-80614869D01*
X182790142Y-79250000D02*
X133150000Y-79250000D01*
X182500000Y-89420000D02*
X184155011Y-87764989D01*
X184155011Y-80614869D02*
X182790142Y-79250000D01*
X129359799Y-83040201D02*
X128420000Y-83980000D01*
X130960000Y-86520000D02*
X126230000Y-91250000D01*
X121250000Y-91250000D02*
X119000000Y-93500000D01*
X126230000Y-91250000D02*
X121250000Y-91250000D01*
X119000000Y-93500000D02*
X119000000Y-95250000D01*
X138120000Y-111500000D02*
X138120000Y-108870000D01*
X138120000Y-108870000D02*
X133270001Y-104020001D01*
X133270001Y-104020001D02*
X133270001Y-98099999D01*
X133270001Y-98099999D02*
X134120000Y-97250000D01*
X133500000Y-114250000D02*
X134750000Y-113000000D01*
X138120000Y-111880000D02*
X138120000Y-111500000D01*
X134750000Y-113000000D02*
X137000000Y-113000000D01*
X137000000Y-113000000D02*
X138120000Y-111880000D01*
X183349999Y-86030001D02*
X182500000Y-86880000D01*
X183750000Y-85630000D02*
X183349999Y-86030001D01*
X183750000Y-81000000D02*
X183750000Y-85630000D01*
X182405011Y-79655011D02*
X183750000Y-81000000D01*
X135284989Y-79655011D02*
X182405011Y-79655011D01*
X130960000Y-83980000D02*
X135284989Y-79655011D01*
X147000000Y-95250000D02*
X143250000Y-91500000D01*
X143250000Y-91500000D02*
X138480000Y-91500000D01*
X138480000Y-91500000D02*
X134439799Y-87459799D01*
X134439799Y-87459799D02*
X133500000Y-86520000D01*
X140660000Y-111500000D02*
X138660000Y-113500000D01*
X138660000Y-113500000D02*
X134825736Y-113500000D01*
X134825736Y-113500000D02*
X134500000Y-113825736D01*
X134500000Y-113825736D02*
X134500000Y-114250000D01*
X137229979Y-80250021D02*
X177825736Y-80250021D01*
X133500000Y-83980000D02*
X137229979Y-80250021D01*
X177825736Y-80250021D02*
X178250000Y-80250021D01*
X136040000Y-86520000D02*
X139770000Y-90250000D01*
X139770000Y-90250000D02*
X139770000Y-90270000D01*
X139770000Y-90270000D02*
X140500000Y-91000000D01*
X140500000Y-91000000D02*
X151750000Y-91000000D01*
X151750000Y-91000000D02*
X153500000Y-92750000D01*
X153500000Y-92750000D02*
X172500000Y-92750000D01*
X172500000Y-92750000D02*
X175000000Y-95250000D01*
X139200000Y-97250000D02*
X138350001Y-98099999D01*
X138350001Y-98099999D02*
X137704399Y-98099999D01*
X137704399Y-98099999D02*
X134500000Y-101304398D01*
X134500000Y-101304398D02*
X134500000Y-103500000D01*
X134500000Y-103500000D02*
X142500000Y-111500000D01*
X142500000Y-111500000D02*
X143200000Y-111500000D01*
X135709277Y-114250000D02*
X135285013Y-114250000D01*
X140450000Y-114250000D02*
X135709277Y-114250000D01*
X143200000Y-111500000D02*
X140450000Y-114250000D01*
X136979799Y-83040201D02*
X136040000Y-83980000D01*
X181650001Y-80950001D02*
X139069999Y-80950001D01*
X182500000Y-81800000D02*
X181650001Y-80950001D01*
X139069999Y-80950001D02*
X136979799Y-83040201D01*
D19*
X117250000Y-122250000D02*
X116750000Y-122750000D01*
X119500000Y-122250000D02*
X117250000Y-122250000D01*
X120500000Y-123250000D02*
X119500000Y-122250000D01*
D20*
X90625001Y-119624999D02*
X91000000Y-119250000D01*
X90290000Y-119960000D02*
X90625001Y-119624999D01*
X87500000Y-119960000D02*
X90290000Y-119960000D01*
D21*
X92500000Y-103750000D02*
X92500000Y-100500000D01*
X91000000Y-101500000D02*
X91000000Y-100250000D01*
X91000000Y-104000000D02*
X91000000Y-101500000D01*
X89500000Y-104719670D02*
X89500000Y-100250000D01*
X173500000Y-103750000D02*
X173500000Y-100250000D01*
X176500000Y-103750000D02*
X176500000Y-100500000D01*
X170250000Y-115750000D02*
X168374999Y-113874999D01*
X168374999Y-113874999D02*
X143375001Y-113874999D01*
X143375001Y-113874999D02*
X141624999Y-115625001D01*
X141624999Y-115625001D02*
X141250000Y-116000000D01*
D20*
X132190001Y-114690001D02*
X133500000Y-116000000D01*
X133500000Y-116000000D02*
X141250000Y-116000000D01*
X133040000Y-111500000D02*
X132190001Y-112349999D01*
X132190001Y-112349999D02*
X132190001Y-114690001D01*
X116750010Y-119500000D02*
X115750000Y-119265000D01*
D21*
X115750000Y-119500000D02*
X115750000Y-119265000D01*
D20*
X118000010Y-120750000D02*
X116750010Y-119500000D01*
D21*
X175000000Y-105250000D02*
X176500000Y-103750000D01*
X175000000Y-105250000D02*
X173500000Y-103750000D01*
X91250000Y-107000000D02*
X91250000Y-106469670D01*
X91250000Y-106469670D02*
X89500000Y-104719670D01*
X91250000Y-107000000D02*
X91250000Y-104250000D01*
X91250000Y-104250000D02*
X91000000Y-104000000D01*
X91624999Y-104625001D02*
X92500000Y-103750000D01*
X91250000Y-107000000D02*
X91624999Y-106625001D01*
X91624999Y-106625001D02*
X91624999Y-104625001D01*
D20*
X94250000Y-107000000D02*
X94500000Y-107250000D01*
X94500000Y-107250000D02*
X94500000Y-117500000D01*
X91250000Y-107000000D02*
X94250000Y-107000000D01*
X130500000Y-111500000D02*
X130500000Y-114500000D01*
X130500000Y-114500000D02*
X133250000Y-117250000D01*
X133250000Y-117250000D02*
X136000000Y-117250000D01*
X136000000Y-117250000D02*
X136250000Y-117500000D01*
X136250000Y-117500000D02*
X136250000Y-118500000D01*
X87500000Y-122500000D02*
X88600000Y-122500000D01*
X88600000Y-122500000D02*
X90350000Y-120750000D01*
X90350000Y-120750000D02*
X94000000Y-120750000D01*
X94000000Y-120750000D02*
X95500000Y-119250000D01*
X95500000Y-119250000D02*
X99915002Y-119250000D01*
X116595002Y-118750000D02*
X136000000Y-118750000D01*
X99915002Y-119250000D02*
X100900003Y-118264999D01*
X116110001Y-118264999D02*
X116595002Y-118750000D01*
X100900003Y-118264999D02*
X116110001Y-118264999D01*
X136000000Y-118750000D02*
X136250000Y-118500000D01*
D22*
X150250000Y-118750000D02*
X177000000Y-118750000D01*
D19*
X177000000Y-118750000D02*
X181500000Y-123250000D01*
D21*
X153500000Y-123250000D02*
X153500000Y-121977208D01*
X153500000Y-121977208D02*
X150272792Y-118750000D01*
D23*
X150272792Y-118750000D02*
X136500000Y-118750000D01*
X136500000Y-118750000D02*
X136250000Y-118500000D01*
X136250000Y-118750000D02*
X136250000Y-119750000D01*
X136250000Y-119750000D02*
X134500000Y-121500000D01*
X134500000Y-121500000D02*
X127250000Y-121500000D01*
D19*
X97500000Y-123250000D02*
X99250000Y-121500000D01*
D21*
X99250000Y-121500000D02*
X127250000Y-121500000D01*
X127250000Y-121500000D02*
X125500000Y-123250000D01*
D20*
X130500000Y-111500000D02*
X130500000Y-110400000D01*
X130500000Y-110400000D02*
X131449999Y-109450001D01*
X131449999Y-109450001D02*
X131449999Y-99949999D01*
X131449999Y-99949999D02*
X130500000Y-99000000D01*
X130500000Y-99000000D02*
X128250000Y-99000000D01*
X128250000Y-99000000D02*
X126500000Y-97250000D01*
X135969670Y-92000000D02*
X136500000Y-92000000D01*
X130650000Y-92000000D02*
X135969670Y-92000000D01*
X126500000Y-96150000D02*
X130650000Y-92000000D01*
X126500000Y-97250000D02*
X126500000Y-96150000D01*
D24*
G36*
X119419839Y-122349447D02*
X119163357Y-122435852D01*
X118953542Y-123009336D01*
X118979161Y-123619460D01*
X119049801Y-123790000D01*
X98937846Y-123790000D01*
X99034733Y-123556670D01*
X99035265Y-122946009D01*
X98994684Y-122847796D01*
X99582480Y-122260000D01*
X119330392Y-122260000D01*
X119419839Y-122349447D01*
X119419839Y-122349447D01*
G37*
X119419839Y-122349447D02*
X119163357Y-122435852D01*
X118953542Y-123009336D01*
X118979161Y-123619460D01*
X119049801Y-123790000D01*
X98937846Y-123790000D01*
X99034733Y-123556670D01*
X99035265Y-122946009D01*
X98994684Y-122847796D01*
X99582480Y-122260000D01*
X119330392Y-122260000D01*
X119419839Y-122349447D01*
G36*
X152513672Y-122065682D02*
X152249712Y-122329182D01*
X151870643Y-121949449D01*
X151306670Y-121715267D01*
X150696009Y-121714735D01*
X150131629Y-121947932D01*
X149699449Y-122379357D01*
X149695706Y-122388372D01*
X149580159Y-122349446D01*
X148679605Y-123250000D01*
X148693748Y-123264143D01*
X148514143Y-123443748D01*
X148500000Y-123429605D01*
X148485858Y-123443748D01*
X148306253Y-123264143D01*
X148320395Y-123250000D01*
X147419841Y-122349446D01*
X147163357Y-122435852D01*
X146953542Y-123009336D01*
X146979161Y-123619460D01*
X147049801Y-123790000D01*
X126937846Y-123790000D01*
X127034733Y-123556670D01*
X127035265Y-122946009D01*
X126989515Y-122835287D01*
X127537302Y-122287500D01*
X134499995Y-122287500D01*
X134500000Y-122287501D01*
X134801363Y-122227555D01*
X134887738Y-122169841D01*
X147599446Y-122169841D01*
X148500000Y-123070395D01*
X149400554Y-122169841D01*
X149314148Y-121913357D01*
X148740664Y-121703542D01*
X148130540Y-121729161D01*
X147685852Y-121913357D01*
X147599446Y-122169841D01*
X134887738Y-122169841D01*
X135056847Y-122056847D01*
X136806844Y-120306849D01*
X136806847Y-120306847D01*
X136977555Y-120051363D01*
X136978821Y-120045000D01*
X137037501Y-119750000D01*
X137037500Y-119749995D01*
X137037500Y-119537500D01*
X149985490Y-119537500D01*
X152513672Y-122065682D01*
X152513672Y-122065682D01*
G37*
X152513672Y-122065682D02*
X152249712Y-122329182D01*
X151870643Y-121949449D01*
X151306670Y-121715267D01*
X150696009Y-121714735D01*
X150131629Y-121947932D01*
X149699449Y-122379357D01*
X149695706Y-122388372D01*
X149580159Y-122349446D01*
X148679605Y-123250000D01*
X148693748Y-123264143D01*
X148514143Y-123443748D01*
X148500000Y-123429605D01*
X148485858Y-123443748D01*
X148306253Y-123264143D01*
X148320395Y-123250000D01*
X147419841Y-122349446D01*
X147163357Y-122435852D01*
X146953542Y-123009336D01*
X146979161Y-123619460D01*
X147049801Y-123790000D01*
X126937846Y-123790000D01*
X127034733Y-123556670D01*
X127035265Y-122946009D01*
X126989515Y-122835287D01*
X127537302Y-122287500D01*
X134499995Y-122287500D01*
X134500000Y-122287501D01*
X134801363Y-122227555D01*
X134887738Y-122169841D01*
X147599446Y-122169841D01*
X148500000Y-123070395D01*
X149400554Y-122169841D01*
X149314148Y-121913357D01*
X148740664Y-121703542D01*
X148130540Y-121729161D01*
X147685852Y-121913357D01*
X147599446Y-122169841D01*
X134887738Y-122169841D01*
X135056847Y-122056847D01*
X136806844Y-120306849D01*
X136806847Y-120306847D01*
X136977555Y-120051363D01*
X136978821Y-120045000D01*
X137037501Y-119750000D01*
X137037500Y-119749995D01*
X137037500Y-119537500D01*
X149985490Y-119537500D01*
X152513672Y-122065682D01*
G36*
X176562915Y-103708229D02*
X176790573Y-103936284D01*
X177088174Y-104059859D01*
X177410412Y-104060140D01*
X177708229Y-103937085D01*
X177834903Y-103810632D01*
X177978804Y-103870238D01*
X178361486Y-103946358D01*
X178431416Y-103946358D01*
X178500000Y-103960000D01*
X183205908Y-103960000D01*
X184290000Y-105044092D01*
X184290000Y-113766424D01*
X183926433Y-113615458D01*
X182878166Y-113614543D01*
X181909342Y-114014853D01*
X181167458Y-114755443D01*
X180765458Y-115723567D01*
X180764543Y-116771834D01*
X181164853Y-117740658D01*
X181905443Y-118482542D01*
X182873567Y-118884542D01*
X183921834Y-118885457D01*
X184290000Y-118733334D01*
X184290000Y-122705908D01*
X183205908Y-123790000D01*
X182937846Y-123790000D01*
X183034733Y-123556670D01*
X183035265Y-122946009D01*
X182802068Y-122381629D01*
X182370643Y-121949449D01*
X181806670Y-121715267D01*
X181196009Y-121714735D01*
X181097796Y-121755316D01*
X177572900Y-118230420D01*
X177551543Y-118198457D01*
X177298493Y-118029374D01*
X177000000Y-117970000D01*
X176606705Y-117970000D01*
X176832542Y-117744557D01*
X177234542Y-116776433D01*
X177235457Y-115728166D01*
X176835147Y-114759342D01*
X176094557Y-114017458D01*
X175126433Y-113615458D01*
X174078166Y-113614543D01*
X173109342Y-114014853D01*
X172367458Y-114755443D01*
X171965458Y-115723567D01*
X171964543Y-116771834D01*
X172364853Y-117740658D01*
X172593795Y-117970000D01*
X166440524Y-117970000D01*
X166893636Y-117517679D01*
X167234611Y-116696519D01*
X167235387Y-115807381D01*
X166895845Y-114985628D01*
X166267679Y-114356364D01*
X165446519Y-114015389D01*
X164557381Y-114014613D01*
X163735628Y-114354155D01*
X163106364Y-114982321D01*
X162765389Y-115803481D01*
X162764613Y-116692619D01*
X163104155Y-117514372D01*
X163558988Y-117970000D01*
X157406705Y-117970000D01*
X157632542Y-117744557D01*
X158034542Y-116776433D01*
X158035457Y-115728166D01*
X157635147Y-114759342D01*
X156894557Y-114017458D01*
X155926433Y-113615458D01*
X154878166Y-113614543D01*
X153909342Y-114014853D01*
X153167458Y-114755443D01*
X152765458Y-115723567D01*
X152764543Y-116771834D01*
X153164853Y-117740658D01*
X153393795Y-117970000D01*
X150310497Y-117970000D01*
X150272792Y-117962500D01*
X148614218Y-117962500D01*
X148832542Y-117744557D01*
X149234542Y-116776433D01*
X149235457Y-115728166D01*
X148835147Y-114759342D01*
X148094557Y-114017458D01*
X147126433Y-113615458D01*
X146078166Y-113614543D01*
X145109342Y-114014853D01*
X144367458Y-114755443D01*
X143965458Y-115723567D01*
X143964543Y-116771834D01*
X144364853Y-117740658D01*
X144586308Y-117962500D01*
X137045000Y-117962500D01*
X137045000Y-117500000D01*
X136984484Y-117195767D01*
X136984484Y-117195766D01*
X136812150Y-116937850D01*
X136562150Y-116687850D01*
X136304233Y-116515516D01*
X136000000Y-116455000D01*
X133579300Y-116455000D01*
X131295000Y-114170700D01*
X131295000Y-112997440D01*
X131350000Y-112997440D01*
X131585317Y-112953162D01*
X131801441Y-112814090D01*
X131946431Y-112601890D01*
X131968301Y-112493893D01*
X132273076Y-112771645D01*
X132683110Y-112941476D01*
X132913000Y-112820155D01*
X132913000Y-111627000D01*
X132893000Y-111627000D01*
X132893000Y-111373000D01*
X132913000Y-111373000D01*
X132913000Y-110179845D01*
X132683110Y-110058524D01*
X132273076Y-110228355D01*
X131970063Y-110504501D01*
X131953162Y-110414683D01*
X131818652Y-110205648D01*
X132012149Y-110012151D01*
X132184483Y-109754235D01*
X132244999Y-109450001D01*
X132244999Y-104059996D01*
X132410412Y-104060140D01*
X132525001Y-104012793D01*
X132525001Y-104019996D01*
X132525000Y-104020001D01*
X132581711Y-104305100D01*
X132743206Y-104546796D01*
X137375000Y-109178589D01*
X137375000Y-110217023D01*
X137069946Y-110420853D01*
X136850000Y-110750026D01*
X136630054Y-110420853D01*
X136148285Y-110098946D01*
X135580000Y-109985907D01*
X135011715Y-110098946D01*
X134529946Y-110420853D01*
X134302298Y-110761553D01*
X134235183Y-110618642D01*
X133806924Y-110228355D01*
X133396890Y-110058524D01*
X133167000Y-110179845D01*
X133167000Y-111373000D01*
X133187000Y-111373000D01*
X133187000Y-111627000D01*
X133167000Y-111627000D01*
X133167000Y-112820155D01*
X133396890Y-112941476D01*
X133806924Y-112771645D01*
X134235183Y-112381358D01*
X134302298Y-112238447D01*
X134386330Y-112364209D01*
X134223205Y-112473205D01*
X133381514Y-113314896D01*
X133314833Y-113314838D01*
X132971057Y-113456883D01*
X132707808Y-113719673D01*
X132565162Y-114063201D01*
X132564838Y-114435167D01*
X132706883Y-114778943D01*
X132969673Y-115042192D01*
X133313201Y-115184838D01*
X133685167Y-115185162D01*
X134000351Y-115054931D01*
X134313201Y-115184838D01*
X134685167Y-115185162D01*
X134892592Y-115099456D01*
X135098214Y-115184838D01*
X135470180Y-115185162D01*
X135813956Y-115043117D01*
X135862157Y-114995000D01*
X140449995Y-114995000D01*
X140450000Y-114995001D01*
X140735099Y-114938290D01*
X140976795Y-114776795D01*
X142815899Y-112937690D01*
X143200000Y-113014093D01*
X143768285Y-112901054D01*
X144250054Y-112579147D01*
X144571961Y-112097378D01*
X144685000Y-111529093D01*
X144685000Y-111470907D01*
X144571961Y-110902622D01*
X144250054Y-110420853D01*
X143768285Y-110098946D01*
X143200000Y-109985907D01*
X142631715Y-110098946D01*
X142344467Y-110290878D01*
X135884953Y-103831364D01*
X135978804Y-103870238D01*
X136361486Y-103946358D01*
X136431416Y-103946358D01*
X136500000Y-103960000D01*
X171500000Y-103960000D01*
X171568584Y-103946358D01*
X171638513Y-103946358D01*
X172021196Y-103870238D01*
X172096160Y-103839187D01*
X172165127Y-103810620D01*
X172290573Y-103936284D01*
X172588174Y-104059859D01*
X172910412Y-104060140D01*
X173208229Y-103937085D01*
X173436284Y-103709427D01*
X173500004Y-103555972D01*
X173562915Y-103708229D01*
X173790573Y-103936284D01*
X174088174Y-104059859D01*
X174410412Y-104060140D01*
X174708229Y-103937085D01*
X174936284Y-103709427D01*
X175000004Y-103555972D01*
X175062915Y-103708229D01*
X175290573Y-103936284D01*
X175588174Y-104059859D01*
X175910412Y-104060140D01*
X176208229Y-103937085D01*
X176436284Y-103709427D01*
X176500004Y-103555972D01*
X176562915Y-103708229D01*
X176562915Y-103708229D01*
G37*
X176562915Y-103708229D02*
X176790573Y-103936284D01*
X177088174Y-104059859D01*
X177410412Y-104060140D01*
X177708229Y-103937085D01*
X177834903Y-103810632D01*
X177978804Y-103870238D01*
X178361486Y-103946358D01*
X178431416Y-103946358D01*
X178500000Y-103960000D01*
X183205908Y-103960000D01*
X184290000Y-105044092D01*
X184290000Y-113766424D01*
X183926433Y-113615458D01*
X182878166Y-113614543D01*
X181909342Y-114014853D01*
X181167458Y-114755443D01*
X180765458Y-115723567D01*
X180764543Y-116771834D01*
X181164853Y-117740658D01*
X181905443Y-118482542D01*
X182873567Y-118884542D01*
X183921834Y-118885457D01*
X184290000Y-118733334D01*
X184290000Y-122705908D01*
X183205908Y-123790000D01*
X182937846Y-123790000D01*
X183034733Y-123556670D01*
X183035265Y-122946009D01*
X182802068Y-122381629D01*
X182370643Y-121949449D01*
X181806670Y-121715267D01*
X181196009Y-121714735D01*
X181097796Y-121755316D01*
X177572900Y-118230420D01*
X177551543Y-118198457D01*
X177298493Y-118029374D01*
X177000000Y-117970000D01*
X176606705Y-117970000D01*
X176832542Y-117744557D01*
X177234542Y-116776433D01*
X177235457Y-115728166D01*
X176835147Y-114759342D01*
X176094557Y-114017458D01*
X175126433Y-113615458D01*
X174078166Y-113614543D01*
X173109342Y-114014853D01*
X172367458Y-114755443D01*
X171965458Y-115723567D01*
X171964543Y-116771834D01*
X172364853Y-117740658D01*
X172593795Y-117970000D01*
X166440524Y-117970000D01*
X166893636Y-117517679D01*
X167234611Y-116696519D01*
X167235387Y-115807381D01*
X166895845Y-114985628D01*
X166267679Y-114356364D01*
X165446519Y-114015389D01*
X164557381Y-114014613D01*
X163735628Y-114354155D01*
X163106364Y-114982321D01*
X162765389Y-115803481D01*
X162764613Y-116692619D01*
X163104155Y-117514372D01*
X163558988Y-117970000D01*
X157406705Y-117970000D01*
X157632542Y-117744557D01*
X158034542Y-116776433D01*
X158035457Y-115728166D01*
X157635147Y-114759342D01*
X156894557Y-114017458D01*
X155926433Y-113615458D01*
X154878166Y-113614543D01*
X153909342Y-114014853D01*
X153167458Y-114755443D01*
X152765458Y-115723567D01*
X152764543Y-116771834D01*
X153164853Y-117740658D01*
X153393795Y-117970000D01*
X150310497Y-117970000D01*
X150272792Y-117962500D01*
X148614218Y-117962500D01*
X148832542Y-117744557D01*
X149234542Y-116776433D01*
X149235457Y-115728166D01*
X148835147Y-114759342D01*
X148094557Y-114017458D01*
X147126433Y-113615458D01*
X146078166Y-113614543D01*
X145109342Y-114014853D01*
X144367458Y-114755443D01*
X143965458Y-115723567D01*
X143964543Y-116771834D01*
X144364853Y-117740658D01*
X144586308Y-117962500D01*
X137045000Y-117962500D01*
X137045000Y-117500000D01*
X136984484Y-117195767D01*
X136984484Y-117195766D01*
X136812150Y-116937850D01*
X136562150Y-116687850D01*
X136304233Y-116515516D01*
X136000000Y-116455000D01*
X133579300Y-116455000D01*
X131295000Y-114170700D01*
X131295000Y-112997440D01*
X131350000Y-112997440D01*
X131585317Y-112953162D01*
X131801441Y-112814090D01*
X131946431Y-112601890D01*
X131968301Y-112493893D01*
X132273076Y-112771645D01*
X132683110Y-112941476D01*
X132913000Y-112820155D01*
X132913000Y-111627000D01*
X132893000Y-111627000D01*
X132893000Y-111373000D01*
X132913000Y-111373000D01*
X132913000Y-110179845D01*
X132683110Y-110058524D01*
X132273076Y-110228355D01*
X131970063Y-110504501D01*
X131953162Y-110414683D01*
X131818652Y-110205648D01*
X132012149Y-110012151D01*
X132184483Y-109754235D01*
X132244999Y-109450001D01*
X132244999Y-104059996D01*
X132410412Y-104060140D01*
X132525001Y-104012793D01*
X132525001Y-104019996D01*
X132525000Y-104020001D01*
X132581711Y-104305100D01*
X132743206Y-104546796D01*
X137375000Y-109178589D01*
X137375000Y-110217023D01*
X137069946Y-110420853D01*
X136850000Y-110750026D01*
X136630054Y-110420853D01*
X136148285Y-110098946D01*
X135580000Y-109985907D01*
X135011715Y-110098946D01*
X134529946Y-110420853D01*
X134302298Y-110761553D01*
X134235183Y-110618642D01*
X133806924Y-110228355D01*
X133396890Y-110058524D01*
X133167000Y-110179845D01*
X133167000Y-111373000D01*
X133187000Y-111373000D01*
X133187000Y-111627000D01*
X133167000Y-111627000D01*
X133167000Y-112820155D01*
X133396890Y-112941476D01*
X133806924Y-112771645D01*
X134235183Y-112381358D01*
X134302298Y-112238447D01*
X134386330Y-112364209D01*
X134223205Y-112473205D01*
X133381514Y-113314896D01*
X133314833Y-113314838D01*
X132971057Y-113456883D01*
X132707808Y-113719673D01*
X132565162Y-114063201D01*
X132564838Y-114435167D01*
X132706883Y-114778943D01*
X132969673Y-115042192D01*
X133313201Y-115184838D01*
X133685167Y-115185162D01*
X134000351Y-115054931D01*
X134313201Y-115184838D01*
X134685167Y-115185162D01*
X134892592Y-115099456D01*
X135098214Y-115184838D01*
X135470180Y-115185162D01*
X135813956Y-115043117D01*
X135862157Y-114995000D01*
X140449995Y-114995000D01*
X140450000Y-114995001D01*
X140735099Y-114938290D01*
X140976795Y-114776795D01*
X142815899Y-112937690D01*
X143200000Y-113014093D01*
X143768285Y-112901054D01*
X144250054Y-112579147D01*
X144571961Y-112097378D01*
X144685000Y-111529093D01*
X144685000Y-111470907D01*
X144571961Y-110902622D01*
X144250054Y-110420853D01*
X143768285Y-110098946D01*
X143200000Y-109985907D01*
X142631715Y-110098946D01*
X142344467Y-110290878D01*
X135884953Y-103831364D01*
X135978804Y-103870238D01*
X136361486Y-103946358D01*
X136431416Y-103946358D01*
X136500000Y-103960000D01*
X171500000Y-103960000D01*
X171568584Y-103946358D01*
X171638513Y-103946358D01*
X172021196Y-103870238D01*
X172096160Y-103839187D01*
X172165127Y-103810620D01*
X172290573Y-103936284D01*
X172588174Y-104059859D01*
X172910412Y-104060140D01*
X173208229Y-103937085D01*
X173436284Y-103709427D01*
X173500004Y-103555972D01*
X173562915Y-103708229D01*
X173790573Y-103936284D01*
X174088174Y-104059859D01*
X174410412Y-104060140D01*
X174708229Y-103937085D01*
X174936284Y-103709427D01*
X175000004Y-103555972D01*
X175062915Y-103708229D01*
X175290573Y-103936284D01*
X175588174Y-104059859D01*
X175910412Y-104060140D01*
X176208229Y-103937085D01*
X176436284Y-103709427D01*
X176500004Y-103555972D01*
X176562915Y-103708229D01*
G36*
X178872409Y-121714889D02*
X178696009Y-121714735D01*
X178131629Y-121947932D01*
X177699449Y-122379357D01*
X177695706Y-122388372D01*
X177580159Y-122349446D01*
X176679605Y-123250000D01*
X176693748Y-123264143D01*
X176514143Y-123443748D01*
X176500000Y-123429605D01*
X176485858Y-123443748D01*
X176306253Y-123264143D01*
X176320395Y-123250000D01*
X175419841Y-122349446D01*
X175163357Y-122435852D01*
X174953542Y-123009336D01*
X174979161Y-123619460D01*
X175049801Y-123790000D01*
X154937846Y-123790000D01*
X155034733Y-123556670D01*
X155035265Y-122946009D01*
X154802068Y-122381629D01*
X154590650Y-122169841D01*
X175599446Y-122169841D01*
X176500000Y-123070395D01*
X177400554Y-122169841D01*
X177314148Y-121913357D01*
X176740664Y-121703542D01*
X176130540Y-121729161D01*
X175685852Y-121913357D01*
X175599446Y-122169841D01*
X154590650Y-122169841D01*
X154370643Y-121949449D01*
X154244020Y-121896870D01*
X154222929Y-121790839D01*
X154202148Y-121686368D01*
X154037401Y-121439807D01*
X152127594Y-119530000D01*
X176687520Y-119530000D01*
X178872409Y-121714889D01*
X178872409Y-121714889D01*
G37*
X178872409Y-121714889D02*
X178696009Y-121714735D01*
X178131629Y-121947932D01*
X177699449Y-122379357D01*
X177695706Y-122388372D01*
X177580159Y-122349446D01*
X176679605Y-123250000D01*
X176693748Y-123264143D01*
X176514143Y-123443748D01*
X176500000Y-123429605D01*
X176485858Y-123443748D01*
X176306253Y-123264143D01*
X176320395Y-123250000D01*
X175419841Y-122349446D01*
X175163357Y-122435852D01*
X174953542Y-123009336D01*
X174979161Y-123619460D01*
X175049801Y-123790000D01*
X154937846Y-123790000D01*
X155034733Y-123556670D01*
X155035265Y-122946009D01*
X154802068Y-122381629D01*
X154590650Y-122169841D01*
X175599446Y-122169841D01*
X176500000Y-123070395D01*
X177400554Y-122169841D01*
X177314148Y-121913357D01*
X176740664Y-121703542D01*
X176130540Y-121729161D01*
X175685852Y-121913357D01*
X175599446Y-122169841D01*
X154590650Y-122169841D01*
X154370643Y-121949449D01*
X154244020Y-121896870D01*
X154222929Y-121790839D01*
X154202148Y-121686368D01*
X154037401Y-121439807D01*
X152127594Y-119530000D01*
X176687520Y-119530000D01*
X178872409Y-121714889D01*
G36*
X116032852Y-119312150D02*
X116290769Y-119484484D01*
X116595002Y-119545000D01*
X135341307Y-119545000D01*
X134173806Y-120712500D01*
X127250000Y-120712500D01*
X127111749Y-120740000D01*
X99312842Y-120740000D01*
X99250000Y-120727500D01*
X98954377Y-120786303D01*
X98703760Y-120953760D01*
X97902472Y-121755048D01*
X97806670Y-121715267D01*
X97196009Y-121714735D01*
X96631629Y-121947932D01*
X96249712Y-122329182D01*
X95870643Y-121949449D01*
X95306670Y-121715267D01*
X94696009Y-121714735D01*
X94131629Y-121947932D01*
X93699449Y-122379357D01*
X93695706Y-122388372D01*
X93580159Y-122349446D01*
X92679605Y-123250000D01*
X92693748Y-123264143D01*
X92514143Y-123443748D01*
X92500000Y-123429605D01*
X92485858Y-123443748D01*
X92306253Y-123264143D01*
X92320395Y-123250000D01*
X91419841Y-122349446D01*
X91163357Y-122435852D01*
X90953542Y-123009336D01*
X90979161Y-123619460D01*
X91049801Y-123790000D01*
X88817901Y-123790000D01*
X88946431Y-123601890D01*
X88997440Y-123350000D01*
X88997440Y-123172205D01*
X89162150Y-123062150D01*
X90054459Y-122169841D01*
X91599446Y-122169841D01*
X92500000Y-123070395D01*
X93400554Y-122169841D01*
X93314148Y-121913357D01*
X92740664Y-121703542D01*
X92130540Y-121729161D01*
X91685852Y-121913357D01*
X91599446Y-122169841D01*
X90054459Y-122169841D01*
X90679300Y-121545000D01*
X94000000Y-121545000D01*
X94304233Y-121484484D01*
X94562150Y-121312150D01*
X95829300Y-120045000D01*
X99915002Y-120045000D01*
X100219235Y-119984484D01*
X100477152Y-119812150D01*
X101229303Y-119059999D01*
X115780701Y-119059999D01*
X116032852Y-119312150D01*
X116032852Y-119312150D01*
G37*
X116032852Y-119312150D02*
X116290769Y-119484484D01*
X116595002Y-119545000D01*
X135341307Y-119545000D01*
X134173806Y-120712500D01*
X127250000Y-120712500D01*
X127111749Y-120740000D01*
X99312842Y-120740000D01*
X99250000Y-120727500D01*
X98954377Y-120786303D01*
X98703760Y-120953760D01*
X97902472Y-121755048D01*
X97806670Y-121715267D01*
X97196009Y-121714735D01*
X96631629Y-121947932D01*
X96249712Y-122329182D01*
X95870643Y-121949449D01*
X95306670Y-121715267D01*
X94696009Y-121714735D01*
X94131629Y-121947932D01*
X93699449Y-122379357D01*
X93695706Y-122388372D01*
X93580159Y-122349446D01*
X92679605Y-123250000D01*
X92693748Y-123264143D01*
X92514143Y-123443748D01*
X92500000Y-123429605D01*
X92485858Y-123443748D01*
X92306253Y-123264143D01*
X92320395Y-123250000D01*
X91419841Y-122349446D01*
X91163357Y-122435852D01*
X90953542Y-123009336D01*
X90979161Y-123619460D01*
X91049801Y-123790000D01*
X88817901Y-123790000D01*
X88946431Y-123601890D01*
X88997440Y-123350000D01*
X88997440Y-123172205D01*
X89162150Y-123062150D01*
X90054459Y-122169841D01*
X91599446Y-122169841D01*
X92500000Y-123070395D01*
X93400554Y-122169841D01*
X93314148Y-121913357D01*
X92740664Y-121703542D01*
X92130540Y-121729161D01*
X91685852Y-121913357D01*
X91599446Y-122169841D01*
X90054459Y-122169841D01*
X90679300Y-121545000D01*
X94000000Y-121545000D01*
X94304233Y-121484484D01*
X94562150Y-121312150D01*
X95829300Y-120045000D01*
X99915002Y-120045000D01*
X100219235Y-119984484D01*
X100477152Y-119812150D01*
X101229303Y-119059999D01*
X115780701Y-119059999D01*
X116032852Y-119312150D01*
G36*
X120693748Y-123235858D02*
X120679605Y-123250000D01*
X120693748Y-123264143D01*
X120514143Y-123443748D01*
X120500000Y-123429605D01*
X120485858Y-123443748D01*
X120306253Y-123264143D01*
X120320395Y-123250000D01*
X120306253Y-123235858D01*
X120485858Y-123056253D01*
X120500000Y-123070395D01*
X120514143Y-123056253D01*
X120693748Y-123235858D01*
X120693748Y-123235858D01*
G37*
X120693748Y-123235858D02*
X120679605Y-123250000D01*
X120693748Y-123264143D01*
X120514143Y-123443748D01*
X120500000Y-123429605D01*
X120485858Y-123443748D01*
X120306253Y-123264143D01*
X120320395Y-123250000D01*
X120306253Y-123235858D01*
X120485858Y-123056253D01*
X120500000Y-123070395D01*
X120514143Y-123056253D01*
X120693748Y-123235858D01*
G36*
X92562915Y-103708229D02*
X92790573Y-103936284D01*
X93088174Y-104059859D01*
X93410412Y-104060140D01*
X93708229Y-103937085D01*
X93834903Y-103810632D01*
X93978804Y-103870238D01*
X94361486Y-103946358D01*
X94431416Y-103946358D01*
X94500000Y-103960000D01*
X129500000Y-103960000D01*
X129568584Y-103946358D01*
X129638513Y-103946358D01*
X130021196Y-103870238D01*
X130096160Y-103839187D01*
X130165127Y-103810620D01*
X130290573Y-103936284D01*
X130588174Y-104059859D01*
X130654999Y-104059917D01*
X130654999Y-109120701D01*
X129937850Y-109837850D01*
X129827795Y-110002560D01*
X129650000Y-110002560D01*
X129414683Y-110046838D01*
X129198559Y-110185910D01*
X129053569Y-110398110D01*
X129002560Y-110650000D01*
X129002560Y-112350000D01*
X129046838Y-112585317D01*
X129185910Y-112801441D01*
X129398110Y-112946431D01*
X129650000Y-112997440D01*
X129705000Y-112997440D01*
X129705000Y-114500000D01*
X129765516Y-114804233D01*
X129937850Y-115062150D01*
X132687850Y-117812150D01*
X132901640Y-117955000D01*
X129421731Y-117955000D01*
X129632542Y-117744557D01*
X130034542Y-116776433D01*
X130035457Y-115728166D01*
X129635147Y-114759342D01*
X128894557Y-114017458D01*
X127926433Y-113615458D01*
X126878166Y-113614543D01*
X125909342Y-114014853D01*
X125167458Y-114755443D01*
X124765458Y-115723567D01*
X124764543Y-116771834D01*
X125164853Y-117740658D01*
X125378821Y-117955000D01*
X120621731Y-117955000D01*
X120832542Y-117744557D01*
X121234542Y-116776433D01*
X121235457Y-115728166D01*
X120835147Y-114759342D01*
X120094557Y-114017458D01*
X119126433Y-113615458D01*
X118078166Y-113614543D01*
X117109342Y-114014853D01*
X116367458Y-114755443D01*
X115965458Y-115723567D01*
X115964543Y-116771834D01*
X116265826Y-117500995D01*
X116110001Y-117469999D01*
X110913434Y-117469999D01*
X111234611Y-116696519D01*
X111235387Y-115807381D01*
X110895845Y-114985628D01*
X110267679Y-114356364D01*
X109446519Y-114015389D01*
X108557381Y-114014613D01*
X107735628Y-114354155D01*
X107106364Y-114982321D01*
X106765389Y-115803481D01*
X106764613Y-116692619D01*
X107085820Y-117469999D01*
X101746548Y-117469999D01*
X102034542Y-116776433D01*
X102035457Y-115728166D01*
X101635147Y-114759342D01*
X100894557Y-114017458D01*
X99926433Y-113615458D01*
X98878166Y-113614543D01*
X97909342Y-114014853D01*
X97167458Y-114755443D01*
X96765458Y-115723567D01*
X96764543Y-116771834D01*
X97164853Y-117740658D01*
X97877949Y-118455000D01*
X95500000Y-118455000D01*
X95195766Y-118515516D01*
X94937850Y-118687850D01*
X93670700Y-119955000D01*
X90350000Y-119955000D01*
X90045767Y-120015516D01*
X89787850Y-120187850D01*
X88792139Y-121183561D01*
X88601890Y-121053569D01*
X88493893Y-121031699D01*
X88771645Y-120726924D01*
X88941476Y-120316890D01*
X88820155Y-120087000D01*
X87627000Y-120087000D01*
X87627000Y-120107000D01*
X87373000Y-120107000D01*
X87373000Y-120087000D01*
X86179845Y-120087000D01*
X86058524Y-120316890D01*
X86228355Y-120726924D01*
X86504501Y-121029937D01*
X86414683Y-121046838D01*
X86198559Y-121185910D01*
X86053569Y-121398110D01*
X86002560Y-121650000D01*
X86002560Y-122998468D01*
X85710000Y-122705908D01*
X85710000Y-109800000D01*
X85985907Y-109800000D01*
X86098946Y-110368285D01*
X86420853Y-110850054D01*
X86750026Y-111070000D01*
X86420853Y-111289946D01*
X86098946Y-111771715D01*
X85985907Y-112340000D01*
X86098946Y-112908285D01*
X86420853Y-113390054D01*
X86750026Y-113610000D01*
X86420853Y-113829946D01*
X86098946Y-114311715D01*
X85985907Y-114880000D01*
X86098946Y-115448285D01*
X86420853Y-115930054D01*
X86750026Y-116150000D01*
X86420853Y-116369946D01*
X86098946Y-116851715D01*
X85985907Y-117420000D01*
X86098946Y-117988285D01*
X86420853Y-118470054D01*
X86761553Y-118697702D01*
X86618642Y-118764817D01*
X86228355Y-119193076D01*
X86058524Y-119603110D01*
X86179845Y-119833000D01*
X87373000Y-119833000D01*
X87373000Y-119813000D01*
X87627000Y-119813000D01*
X87627000Y-119833000D01*
X88820155Y-119833000D01*
X88941476Y-119603110D01*
X88771645Y-119193076D01*
X88381358Y-118764817D01*
X88238447Y-118697702D01*
X88579147Y-118470054D01*
X88785173Y-118161713D01*
X89105443Y-118482542D01*
X90073567Y-118884542D01*
X91121834Y-118885457D01*
X92090658Y-118485147D01*
X92832542Y-117744557D01*
X93234542Y-116776433D01*
X93235457Y-115728166D01*
X92835147Y-114759342D01*
X92094557Y-114017458D01*
X91126433Y-113615458D01*
X90078166Y-113614543D01*
X89109342Y-114014853D01*
X88865406Y-114258364D01*
X88579147Y-113829946D01*
X88249974Y-113610000D01*
X88579147Y-113390054D01*
X88901054Y-112908285D01*
X89014093Y-112340000D01*
X88901054Y-111771715D01*
X88579147Y-111289946D01*
X88249974Y-111070000D01*
X88579147Y-110850054D01*
X88901054Y-110368285D01*
X89014093Y-109800000D01*
X88901054Y-109231715D01*
X88579147Y-108749946D01*
X88097378Y-108428039D01*
X87529093Y-108315000D01*
X87470907Y-108315000D01*
X86902622Y-108428039D01*
X86420853Y-108749946D01*
X86098946Y-109231715D01*
X85985907Y-109800000D01*
X85710000Y-109800000D01*
X85710000Y-105044092D01*
X86794092Y-103960000D01*
X87500000Y-103960000D01*
X87568584Y-103946358D01*
X87638513Y-103946358D01*
X88021196Y-103870238D01*
X88096160Y-103839187D01*
X88165127Y-103810620D01*
X88290573Y-103936284D01*
X88588174Y-104059859D01*
X88910412Y-104060140D01*
X89208229Y-103937085D01*
X89436284Y-103709427D01*
X89500004Y-103555972D01*
X89562915Y-103708229D01*
X89790573Y-103936284D01*
X90088174Y-104059859D01*
X90410412Y-104060140D01*
X90708229Y-103937085D01*
X90936284Y-103709427D01*
X91000004Y-103555972D01*
X91062915Y-103708229D01*
X91290573Y-103936284D01*
X91588174Y-104059859D01*
X91910412Y-104060140D01*
X92208229Y-103937085D01*
X92436284Y-103709427D01*
X92500004Y-103555972D01*
X92562915Y-103708229D01*
X92562915Y-103708229D01*
G37*
X92562915Y-103708229D02*
X92790573Y-103936284D01*
X93088174Y-104059859D01*
X93410412Y-104060140D01*
X93708229Y-103937085D01*
X93834903Y-103810632D01*
X93978804Y-103870238D01*
X94361486Y-103946358D01*
X94431416Y-103946358D01*
X94500000Y-103960000D01*
X129500000Y-103960000D01*
X129568584Y-103946358D01*
X129638513Y-103946358D01*
X130021196Y-103870238D01*
X130096160Y-103839187D01*
X130165127Y-103810620D01*
X130290573Y-103936284D01*
X130588174Y-104059859D01*
X130654999Y-104059917D01*
X130654999Y-109120701D01*
X129937850Y-109837850D01*
X129827795Y-110002560D01*
X129650000Y-110002560D01*
X129414683Y-110046838D01*
X129198559Y-110185910D01*
X129053569Y-110398110D01*
X129002560Y-110650000D01*
X129002560Y-112350000D01*
X129046838Y-112585317D01*
X129185910Y-112801441D01*
X129398110Y-112946431D01*
X129650000Y-112997440D01*
X129705000Y-112997440D01*
X129705000Y-114500000D01*
X129765516Y-114804233D01*
X129937850Y-115062150D01*
X132687850Y-117812150D01*
X132901640Y-117955000D01*
X129421731Y-117955000D01*
X129632542Y-117744557D01*
X130034542Y-116776433D01*
X130035457Y-115728166D01*
X129635147Y-114759342D01*
X128894557Y-114017458D01*
X127926433Y-113615458D01*
X126878166Y-113614543D01*
X125909342Y-114014853D01*
X125167458Y-114755443D01*
X124765458Y-115723567D01*
X124764543Y-116771834D01*
X125164853Y-117740658D01*
X125378821Y-117955000D01*
X120621731Y-117955000D01*
X120832542Y-117744557D01*
X121234542Y-116776433D01*
X121235457Y-115728166D01*
X120835147Y-114759342D01*
X120094557Y-114017458D01*
X119126433Y-113615458D01*
X118078166Y-113614543D01*
X117109342Y-114014853D01*
X116367458Y-114755443D01*
X115965458Y-115723567D01*
X115964543Y-116771834D01*
X116265826Y-117500995D01*
X116110001Y-117469999D01*
X110913434Y-117469999D01*
X111234611Y-116696519D01*
X111235387Y-115807381D01*
X110895845Y-114985628D01*
X110267679Y-114356364D01*
X109446519Y-114015389D01*
X108557381Y-114014613D01*
X107735628Y-114354155D01*
X107106364Y-114982321D01*
X106765389Y-115803481D01*
X106764613Y-116692619D01*
X107085820Y-117469999D01*
X101746548Y-117469999D01*
X102034542Y-116776433D01*
X102035457Y-115728166D01*
X101635147Y-114759342D01*
X100894557Y-114017458D01*
X99926433Y-113615458D01*
X98878166Y-113614543D01*
X97909342Y-114014853D01*
X97167458Y-114755443D01*
X96765458Y-115723567D01*
X96764543Y-116771834D01*
X97164853Y-117740658D01*
X97877949Y-118455000D01*
X95500000Y-118455000D01*
X95195766Y-118515516D01*
X94937850Y-118687850D01*
X93670700Y-119955000D01*
X90350000Y-119955000D01*
X90045767Y-120015516D01*
X89787850Y-120187850D01*
X88792139Y-121183561D01*
X88601890Y-121053569D01*
X88493893Y-121031699D01*
X88771645Y-120726924D01*
X88941476Y-120316890D01*
X88820155Y-120087000D01*
X87627000Y-120087000D01*
X87627000Y-120107000D01*
X87373000Y-120107000D01*
X87373000Y-120087000D01*
X86179845Y-120087000D01*
X86058524Y-120316890D01*
X86228355Y-120726924D01*
X86504501Y-121029937D01*
X86414683Y-121046838D01*
X86198559Y-121185910D01*
X86053569Y-121398110D01*
X86002560Y-121650000D01*
X86002560Y-122998468D01*
X85710000Y-122705908D01*
X85710000Y-109800000D01*
X85985907Y-109800000D01*
X86098946Y-110368285D01*
X86420853Y-110850054D01*
X86750026Y-111070000D01*
X86420853Y-111289946D01*
X86098946Y-111771715D01*
X85985907Y-112340000D01*
X86098946Y-112908285D01*
X86420853Y-113390054D01*
X86750026Y-113610000D01*
X86420853Y-113829946D01*
X86098946Y-114311715D01*
X85985907Y-114880000D01*
X86098946Y-115448285D01*
X86420853Y-115930054D01*
X86750026Y-116150000D01*
X86420853Y-116369946D01*
X86098946Y-116851715D01*
X85985907Y-117420000D01*
X86098946Y-117988285D01*
X86420853Y-118470054D01*
X86761553Y-118697702D01*
X86618642Y-118764817D01*
X86228355Y-119193076D01*
X86058524Y-119603110D01*
X86179845Y-119833000D01*
X87373000Y-119833000D01*
X87373000Y-119813000D01*
X87627000Y-119813000D01*
X87627000Y-119833000D01*
X88820155Y-119833000D01*
X88941476Y-119603110D01*
X88771645Y-119193076D01*
X88381358Y-118764817D01*
X88238447Y-118697702D01*
X88579147Y-118470054D01*
X88785173Y-118161713D01*
X89105443Y-118482542D01*
X90073567Y-118884542D01*
X91121834Y-118885457D01*
X92090658Y-118485147D01*
X92832542Y-117744557D01*
X93234542Y-116776433D01*
X93235457Y-115728166D01*
X92835147Y-114759342D01*
X92094557Y-114017458D01*
X91126433Y-113615458D01*
X90078166Y-113614543D01*
X89109342Y-114014853D01*
X88865406Y-114258364D01*
X88579147Y-113829946D01*
X88249974Y-113610000D01*
X88579147Y-113390054D01*
X88901054Y-112908285D01*
X89014093Y-112340000D01*
X88901054Y-111771715D01*
X88579147Y-111289946D01*
X88249974Y-111070000D01*
X88579147Y-110850054D01*
X88901054Y-110368285D01*
X89014093Y-109800000D01*
X88901054Y-109231715D01*
X88579147Y-108749946D01*
X88097378Y-108428039D01*
X87529093Y-108315000D01*
X87470907Y-108315000D01*
X86902622Y-108428039D01*
X86420853Y-108749946D01*
X86098946Y-109231715D01*
X85985907Y-109800000D01*
X85710000Y-109800000D01*
X85710000Y-105044092D01*
X86794092Y-103960000D01*
X87500000Y-103960000D01*
X87568584Y-103946358D01*
X87638513Y-103946358D01*
X88021196Y-103870238D01*
X88096160Y-103839187D01*
X88165127Y-103810620D01*
X88290573Y-103936284D01*
X88588174Y-104059859D01*
X88910412Y-104060140D01*
X89208229Y-103937085D01*
X89436284Y-103709427D01*
X89500004Y-103555972D01*
X89562915Y-103708229D01*
X89790573Y-103936284D01*
X90088174Y-104059859D01*
X90410412Y-104060140D01*
X90708229Y-103937085D01*
X90936284Y-103709427D01*
X91000004Y-103555972D01*
X91062915Y-103708229D01*
X91290573Y-103936284D01*
X91588174Y-104059859D01*
X91910412Y-104060140D01*
X92208229Y-103937085D01*
X92436284Y-103709427D01*
X92500004Y-103555972D01*
X92562915Y-103708229D01*
G36*
X184290000Y-75044092D02*
X184290000Y-79696269D01*
X183316937Y-78723205D01*
X183075241Y-78561710D01*
X182790142Y-78504999D01*
X182790137Y-78505000D01*
X133150005Y-78505000D01*
X133150000Y-78504999D01*
X132864901Y-78561710D01*
X132623205Y-78723205D01*
X132623203Y-78723208D01*
X128880402Y-82466008D01*
X128734621Y-82405474D01*
X128108127Y-82404927D01*
X127529113Y-82644171D01*
X127085728Y-83086783D01*
X126845474Y-83665379D01*
X126844927Y-84291873D01*
X127036287Y-84755000D01*
X92500000Y-84755000D01*
X92214901Y-84811710D01*
X91973205Y-84973205D01*
X91973203Y-84973208D01*
X90473205Y-86473205D01*
X90311710Y-86714901D01*
X90254999Y-87000000D01*
X90255000Y-87000005D01*
X90255000Y-93896956D01*
X90131629Y-93947932D01*
X89699449Y-94379357D01*
X89695706Y-94388372D01*
X89580159Y-94349446D01*
X88679605Y-95250000D01*
X89580159Y-96150554D01*
X89695214Y-96111793D01*
X89697932Y-96118371D01*
X90129357Y-96550551D01*
X90693330Y-96784733D01*
X91303991Y-96785265D01*
X91868371Y-96552068D01*
X92250288Y-96170818D01*
X92629357Y-96550551D01*
X93193330Y-96784733D01*
X93803991Y-96785265D01*
X94368371Y-96552068D01*
X94590668Y-96330159D01*
X115599446Y-96330159D01*
X115685852Y-96586643D01*
X116259336Y-96796458D01*
X116869460Y-96770839D01*
X117314148Y-96586643D01*
X117400554Y-96330159D01*
X116500000Y-95429605D01*
X115599446Y-96330159D01*
X94590668Y-96330159D01*
X94800551Y-96120643D01*
X95034733Y-95556670D01*
X95035209Y-95009336D01*
X114953542Y-95009336D01*
X114979161Y-95619460D01*
X115163357Y-96064148D01*
X115419841Y-96150554D01*
X116320395Y-95250000D01*
X115419841Y-94349446D01*
X115163357Y-94435852D01*
X114953542Y-95009336D01*
X95035209Y-95009336D01*
X95035265Y-94946009D01*
X94802068Y-94381629D01*
X94590650Y-94169841D01*
X115599446Y-94169841D01*
X116500000Y-95070395D01*
X117400554Y-94169841D01*
X117314148Y-93913357D01*
X116740664Y-93703542D01*
X116130540Y-93729161D01*
X115685852Y-93913357D01*
X115599446Y-94169841D01*
X94590650Y-94169841D01*
X94370643Y-93949449D01*
X93806670Y-93715267D01*
X93196009Y-93714735D01*
X92631629Y-93947932D01*
X92249712Y-94329182D01*
X91870643Y-93949449D01*
X91745000Y-93897277D01*
X91745000Y-87308590D01*
X92808589Y-86245000D01*
X93678793Y-86245000D01*
X93167458Y-86755443D01*
X92765458Y-87723567D01*
X92764543Y-88771834D01*
X93164853Y-89740658D01*
X93905443Y-90482542D01*
X94873567Y-90884542D01*
X95921834Y-90885457D01*
X96890658Y-90485147D01*
X97632542Y-89744557D01*
X98034542Y-88776433D01*
X98035457Y-87728166D01*
X97635147Y-86759342D01*
X97121702Y-86245000D01*
X103999803Y-86245000D01*
X103735628Y-86354155D01*
X103106364Y-86982321D01*
X102765389Y-87803481D01*
X102764613Y-88692619D01*
X103104155Y-89514372D01*
X103732321Y-90143636D01*
X104553481Y-90484611D01*
X105442619Y-90485387D01*
X106264372Y-90145845D01*
X106893636Y-89517679D01*
X107234611Y-88696519D01*
X107235387Y-87807381D01*
X106895845Y-86985628D01*
X106267679Y-86356364D01*
X105999484Y-86245000D01*
X112878793Y-86245000D01*
X112367458Y-86755443D01*
X111965458Y-87723567D01*
X111964543Y-88771834D01*
X112364853Y-89740658D01*
X113105443Y-90482542D01*
X114073567Y-90884542D01*
X115121834Y-90885457D01*
X116090658Y-90485147D01*
X116832542Y-89744557D01*
X117234542Y-88776433D01*
X117235457Y-87728166D01*
X116835147Y-86759342D01*
X116321702Y-86245000D01*
X121678793Y-86245000D01*
X121167458Y-86755443D01*
X120765458Y-87723567D01*
X120764543Y-88771834D01*
X121164853Y-89740658D01*
X121905443Y-90482542D01*
X121959528Y-90505000D01*
X121250005Y-90505000D01*
X121250000Y-90504999D01*
X120964901Y-90561710D01*
X120723205Y-90723205D01*
X120723203Y-90723208D01*
X118473205Y-92973205D01*
X118311710Y-93214901D01*
X118254999Y-93500000D01*
X118255000Y-93500005D01*
X118255000Y-93896956D01*
X118131629Y-93947932D01*
X117699449Y-94379357D01*
X117695706Y-94388372D01*
X117580159Y-94349446D01*
X116679605Y-95250000D01*
X117580159Y-96150554D01*
X117695214Y-96111793D01*
X117697932Y-96118371D01*
X118129357Y-96550551D01*
X118693330Y-96784733D01*
X119303991Y-96785265D01*
X119868371Y-96552068D01*
X120250288Y-96170818D01*
X120629357Y-96550551D01*
X121193330Y-96784733D01*
X121803991Y-96785265D01*
X122368371Y-96552068D01*
X122800551Y-96120643D01*
X123034733Y-95556670D01*
X123035265Y-94946009D01*
X122802068Y-94381629D01*
X122370643Y-93949449D01*
X121806670Y-93715267D01*
X121196009Y-93714735D01*
X120631629Y-93947932D01*
X120249712Y-94329182D01*
X119870643Y-93949449D01*
X119745000Y-93897277D01*
X119745000Y-93808590D01*
X121558589Y-91995000D01*
X126229995Y-91995000D01*
X126230000Y-91995001D01*
X126515099Y-91938290D01*
X126756795Y-91776795D01*
X130499597Y-88033992D01*
X130645379Y-88094526D01*
X131271873Y-88095073D01*
X131850887Y-87855829D01*
X132230273Y-87477104D01*
X132606783Y-87854272D01*
X133185379Y-88094526D01*
X133811873Y-88095073D01*
X133960197Y-88033787D01*
X137069116Y-91142706D01*
X136701783Y-90990176D01*
X136299980Y-90989825D01*
X135928628Y-91143264D01*
X135866784Y-91205000D01*
X131283497Y-91205000D01*
X131222866Y-91144263D01*
X130851783Y-90990176D01*
X130449980Y-90989825D01*
X130078628Y-91143264D01*
X129794263Y-91427134D01*
X129640176Y-91798217D01*
X129640100Y-91885600D01*
X125937850Y-95587850D01*
X125827795Y-95752560D01*
X125650000Y-95752560D01*
X125414683Y-95796838D01*
X125198559Y-95935910D01*
X125053569Y-96148110D01*
X125002560Y-96400000D01*
X125002560Y-98100000D01*
X125046838Y-98335317D01*
X125185910Y-98551441D01*
X125398110Y-98696431D01*
X125650000Y-98747440D01*
X126873140Y-98747440D01*
X127687850Y-99562150D01*
X127945767Y-99734484D01*
X128250000Y-99795000D01*
X130170700Y-99795000D01*
X130654999Y-100279299D01*
X130654999Y-100439917D01*
X130589588Y-100439860D01*
X130291771Y-100562915D01*
X130165098Y-100689368D01*
X130093368Y-100659657D01*
X130021196Y-100629762D01*
X129638513Y-100553642D01*
X129568584Y-100553642D01*
X129500000Y-100540000D01*
X94500000Y-100540000D01*
X94431416Y-100553642D01*
X93978804Y-100629762D01*
X93906632Y-100659657D01*
X93834873Y-100689381D01*
X93709427Y-100563716D01*
X93411826Y-100440141D01*
X93089588Y-100439860D01*
X92791771Y-100562915D01*
X92563716Y-100790573D01*
X92499996Y-100944028D01*
X92437085Y-100791771D01*
X92209427Y-100563716D01*
X91911826Y-100440141D01*
X91589588Y-100439860D01*
X91291771Y-100562915D01*
X91063716Y-100790573D01*
X90999996Y-100944028D01*
X90937085Y-100791771D01*
X90709427Y-100563716D01*
X90411826Y-100440141D01*
X90089588Y-100439860D01*
X89791771Y-100562915D01*
X89563716Y-100790573D01*
X89499996Y-100944028D01*
X89437085Y-100791771D01*
X89209427Y-100563716D01*
X88911826Y-100440141D01*
X88589588Y-100439860D01*
X88291771Y-100562915D01*
X88165098Y-100689368D01*
X88093368Y-100659657D01*
X88021196Y-100629762D01*
X87638513Y-100553642D01*
X87568584Y-100553642D01*
X87500000Y-100540000D01*
X86794092Y-100540000D01*
X85710000Y-99455908D01*
X85710000Y-96330159D01*
X87599446Y-96330159D01*
X87685852Y-96586643D01*
X88259336Y-96796458D01*
X88869460Y-96770839D01*
X89314148Y-96586643D01*
X89400554Y-96330159D01*
X88500000Y-95429605D01*
X87599446Y-96330159D01*
X85710000Y-96330159D01*
X85710000Y-95009336D01*
X86953542Y-95009336D01*
X86979161Y-95619460D01*
X87163357Y-96064148D01*
X87419841Y-96150554D01*
X88320395Y-95250000D01*
X87419841Y-94349446D01*
X87163357Y-94435852D01*
X86953542Y-95009336D01*
X85710000Y-95009336D01*
X85710000Y-94169841D01*
X87599446Y-94169841D01*
X88500000Y-95070395D01*
X89400554Y-94169841D01*
X89314148Y-93913357D01*
X88740664Y-93703542D01*
X88130540Y-93729161D01*
X87685852Y-93913357D01*
X87599446Y-94169841D01*
X85710000Y-94169841D01*
X85710000Y-90733576D01*
X86073567Y-90884542D01*
X87121834Y-90885457D01*
X88090658Y-90485147D01*
X88832542Y-89744557D01*
X89234542Y-88776433D01*
X89235457Y-87728166D01*
X88835147Y-86759342D01*
X88094557Y-86017458D01*
X87126433Y-85615458D01*
X86078166Y-85614543D01*
X85710000Y-85766666D01*
X85710000Y-75044092D01*
X86794092Y-73960000D01*
X183205908Y-73960000D01*
X184290000Y-75044092D01*
X184290000Y-75044092D01*
G37*
X184290000Y-75044092D02*
X184290000Y-79696269D01*
X183316937Y-78723205D01*
X183075241Y-78561710D01*
X182790142Y-78504999D01*
X182790137Y-78505000D01*
X133150005Y-78505000D01*
X133150000Y-78504999D01*
X132864901Y-78561710D01*
X132623205Y-78723205D01*
X132623203Y-78723208D01*
X128880402Y-82466008D01*
X128734621Y-82405474D01*
X128108127Y-82404927D01*
X127529113Y-82644171D01*
X127085728Y-83086783D01*
X126845474Y-83665379D01*
X126844927Y-84291873D01*
X127036287Y-84755000D01*
X92500000Y-84755000D01*
X92214901Y-84811710D01*
X91973205Y-84973205D01*
X91973203Y-84973208D01*
X90473205Y-86473205D01*
X90311710Y-86714901D01*
X90254999Y-87000000D01*
X90255000Y-87000005D01*
X90255000Y-93896956D01*
X90131629Y-93947932D01*
X89699449Y-94379357D01*
X89695706Y-94388372D01*
X89580159Y-94349446D01*
X88679605Y-95250000D01*
X89580159Y-96150554D01*
X89695214Y-96111793D01*
X89697932Y-96118371D01*
X90129357Y-96550551D01*
X90693330Y-96784733D01*
X91303991Y-96785265D01*
X91868371Y-96552068D01*
X92250288Y-96170818D01*
X92629357Y-96550551D01*
X93193330Y-96784733D01*
X93803991Y-96785265D01*
X94368371Y-96552068D01*
X94590668Y-96330159D01*
X115599446Y-96330159D01*
X115685852Y-96586643D01*
X116259336Y-96796458D01*
X116869460Y-96770839D01*
X117314148Y-96586643D01*
X117400554Y-96330159D01*
X116500000Y-95429605D01*
X115599446Y-96330159D01*
X94590668Y-96330159D01*
X94800551Y-96120643D01*
X95034733Y-95556670D01*
X95035209Y-95009336D01*
X114953542Y-95009336D01*
X114979161Y-95619460D01*
X115163357Y-96064148D01*
X115419841Y-96150554D01*
X116320395Y-95250000D01*
X115419841Y-94349446D01*
X115163357Y-94435852D01*
X114953542Y-95009336D01*
X95035209Y-95009336D01*
X95035265Y-94946009D01*
X94802068Y-94381629D01*
X94590650Y-94169841D01*
X115599446Y-94169841D01*
X116500000Y-95070395D01*
X117400554Y-94169841D01*
X117314148Y-93913357D01*
X116740664Y-93703542D01*
X116130540Y-93729161D01*
X115685852Y-93913357D01*
X115599446Y-94169841D01*
X94590650Y-94169841D01*
X94370643Y-93949449D01*
X93806670Y-93715267D01*
X93196009Y-93714735D01*
X92631629Y-93947932D01*
X92249712Y-94329182D01*
X91870643Y-93949449D01*
X91745000Y-93897277D01*
X91745000Y-87308590D01*
X92808589Y-86245000D01*
X93678793Y-86245000D01*
X93167458Y-86755443D01*
X92765458Y-87723567D01*
X92764543Y-88771834D01*
X93164853Y-89740658D01*
X93905443Y-90482542D01*
X94873567Y-90884542D01*
X95921834Y-90885457D01*
X96890658Y-90485147D01*
X97632542Y-89744557D01*
X98034542Y-88776433D01*
X98035457Y-87728166D01*
X97635147Y-86759342D01*
X97121702Y-86245000D01*
X103999803Y-86245000D01*
X103735628Y-86354155D01*
X103106364Y-86982321D01*
X102765389Y-87803481D01*
X102764613Y-88692619D01*
X103104155Y-89514372D01*
X103732321Y-90143636D01*
X104553481Y-90484611D01*
X105442619Y-90485387D01*
X106264372Y-90145845D01*
X106893636Y-89517679D01*
X107234611Y-88696519D01*
X107235387Y-87807381D01*
X106895845Y-86985628D01*
X106267679Y-86356364D01*
X105999484Y-86245000D01*
X112878793Y-86245000D01*
X112367458Y-86755443D01*
X111965458Y-87723567D01*
X111964543Y-88771834D01*
X112364853Y-89740658D01*
X113105443Y-90482542D01*
X114073567Y-90884542D01*
X115121834Y-90885457D01*
X116090658Y-90485147D01*
X116832542Y-89744557D01*
X117234542Y-88776433D01*
X117235457Y-87728166D01*
X116835147Y-86759342D01*
X116321702Y-86245000D01*
X121678793Y-86245000D01*
X121167458Y-86755443D01*
X120765458Y-87723567D01*
X120764543Y-88771834D01*
X121164853Y-89740658D01*
X121905443Y-90482542D01*
X121959528Y-90505000D01*
X121250005Y-90505000D01*
X121250000Y-90504999D01*
X120964901Y-90561710D01*
X120723205Y-90723205D01*
X120723203Y-90723208D01*
X118473205Y-92973205D01*
X118311710Y-93214901D01*
X118254999Y-93500000D01*
X118255000Y-93500005D01*
X118255000Y-93896956D01*
X118131629Y-93947932D01*
X117699449Y-94379357D01*
X117695706Y-94388372D01*
X117580159Y-94349446D01*
X116679605Y-95250000D01*
X117580159Y-96150554D01*
X117695214Y-96111793D01*
X117697932Y-96118371D01*
X118129357Y-96550551D01*
X118693330Y-96784733D01*
X119303991Y-96785265D01*
X119868371Y-96552068D01*
X120250288Y-96170818D01*
X120629357Y-96550551D01*
X121193330Y-96784733D01*
X121803991Y-96785265D01*
X122368371Y-96552068D01*
X122800551Y-96120643D01*
X123034733Y-95556670D01*
X123035265Y-94946009D01*
X122802068Y-94381629D01*
X122370643Y-93949449D01*
X121806670Y-93715267D01*
X121196009Y-93714735D01*
X120631629Y-93947932D01*
X120249712Y-94329182D01*
X119870643Y-93949449D01*
X119745000Y-93897277D01*
X119745000Y-93808590D01*
X121558589Y-91995000D01*
X126229995Y-91995000D01*
X126230000Y-91995001D01*
X126515099Y-91938290D01*
X126756795Y-91776795D01*
X130499597Y-88033992D01*
X130645379Y-88094526D01*
X131271873Y-88095073D01*
X131850887Y-87855829D01*
X132230273Y-87477104D01*
X132606783Y-87854272D01*
X133185379Y-88094526D01*
X133811873Y-88095073D01*
X133960197Y-88033787D01*
X137069116Y-91142706D01*
X136701783Y-90990176D01*
X136299980Y-90989825D01*
X135928628Y-91143264D01*
X135866784Y-91205000D01*
X131283497Y-91205000D01*
X131222866Y-91144263D01*
X130851783Y-90990176D01*
X130449980Y-90989825D01*
X130078628Y-91143264D01*
X129794263Y-91427134D01*
X129640176Y-91798217D01*
X129640100Y-91885600D01*
X125937850Y-95587850D01*
X125827795Y-95752560D01*
X125650000Y-95752560D01*
X125414683Y-95796838D01*
X125198559Y-95935910D01*
X125053569Y-96148110D01*
X125002560Y-96400000D01*
X125002560Y-98100000D01*
X125046838Y-98335317D01*
X125185910Y-98551441D01*
X125398110Y-98696431D01*
X125650000Y-98747440D01*
X126873140Y-98747440D01*
X127687850Y-99562150D01*
X127945767Y-99734484D01*
X128250000Y-99795000D01*
X130170700Y-99795000D01*
X130654999Y-100279299D01*
X130654999Y-100439917D01*
X130589588Y-100439860D01*
X130291771Y-100562915D01*
X130165098Y-100689368D01*
X130093368Y-100659657D01*
X130021196Y-100629762D01*
X129638513Y-100553642D01*
X129568584Y-100553642D01*
X129500000Y-100540000D01*
X94500000Y-100540000D01*
X94431416Y-100553642D01*
X93978804Y-100629762D01*
X93906632Y-100659657D01*
X93834873Y-100689381D01*
X93709427Y-100563716D01*
X93411826Y-100440141D01*
X93089588Y-100439860D01*
X92791771Y-100562915D01*
X92563716Y-100790573D01*
X92499996Y-100944028D01*
X92437085Y-100791771D01*
X92209427Y-100563716D01*
X91911826Y-100440141D01*
X91589588Y-100439860D01*
X91291771Y-100562915D01*
X91063716Y-100790573D01*
X90999996Y-100944028D01*
X90937085Y-100791771D01*
X90709427Y-100563716D01*
X90411826Y-100440141D01*
X90089588Y-100439860D01*
X89791771Y-100562915D01*
X89563716Y-100790573D01*
X89499996Y-100944028D01*
X89437085Y-100791771D01*
X89209427Y-100563716D01*
X88911826Y-100440141D01*
X88589588Y-100439860D01*
X88291771Y-100562915D01*
X88165098Y-100689368D01*
X88093368Y-100659657D01*
X88021196Y-100629762D01*
X87638513Y-100553642D01*
X87568584Y-100553642D01*
X87500000Y-100540000D01*
X86794092Y-100540000D01*
X85710000Y-99455908D01*
X85710000Y-96330159D01*
X87599446Y-96330159D01*
X87685852Y-96586643D01*
X88259336Y-96796458D01*
X88869460Y-96770839D01*
X89314148Y-96586643D01*
X89400554Y-96330159D01*
X88500000Y-95429605D01*
X87599446Y-96330159D01*
X85710000Y-96330159D01*
X85710000Y-95009336D01*
X86953542Y-95009336D01*
X86979161Y-95619460D01*
X87163357Y-96064148D01*
X87419841Y-96150554D01*
X88320395Y-95250000D01*
X87419841Y-94349446D01*
X87163357Y-94435852D01*
X86953542Y-95009336D01*
X85710000Y-95009336D01*
X85710000Y-94169841D01*
X87599446Y-94169841D01*
X88500000Y-95070395D01*
X89400554Y-94169841D01*
X89314148Y-93913357D01*
X88740664Y-93703542D01*
X88130540Y-93729161D01*
X87685852Y-93913357D01*
X87599446Y-94169841D01*
X85710000Y-94169841D01*
X85710000Y-90733576D01*
X86073567Y-90884542D01*
X87121834Y-90885457D01*
X88090658Y-90485147D01*
X88832542Y-89744557D01*
X89234542Y-88776433D01*
X89235457Y-87728166D01*
X88835147Y-86759342D01*
X88094557Y-86017458D01*
X87126433Y-85615458D01*
X86078166Y-85614543D01*
X85710000Y-85766666D01*
X85710000Y-75044092D01*
X86794092Y-73960000D01*
X183205908Y-73960000D01*
X184290000Y-75044092D01*
G36*
X180985907Y-81800000D02*
X181098946Y-82368285D01*
X181420853Y-82850054D01*
X181750026Y-83070000D01*
X181420853Y-83289946D01*
X181098946Y-83771715D01*
X180985907Y-84340000D01*
X181098946Y-84908285D01*
X181420853Y-85390054D01*
X181750026Y-85610000D01*
X181420853Y-85829946D01*
X181134774Y-86258095D01*
X180894557Y-86017458D01*
X179926433Y-85615458D01*
X178878166Y-85614543D01*
X177909342Y-86014853D01*
X177167458Y-86755443D01*
X176765458Y-87723567D01*
X176764543Y-88771834D01*
X177164853Y-89740658D01*
X177905443Y-90482542D01*
X178873567Y-90884542D01*
X179921834Y-90885457D01*
X180890658Y-90485147D01*
X181214759Y-90161612D01*
X181420853Y-90470054D01*
X181761553Y-90697702D01*
X181618642Y-90764817D01*
X181228355Y-91193076D01*
X181058524Y-91603110D01*
X181179845Y-91833000D01*
X182373000Y-91833000D01*
X182373000Y-91813000D01*
X182627000Y-91813000D01*
X182627000Y-91833000D01*
X183820155Y-91833000D01*
X183941476Y-91603110D01*
X183771645Y-91193076D01*
X183381358Y-90764817D01*
X183238447Y-90697702D01*
X183579147Y-90470054D01*
X183901054Y-89988285D01*
X184014093Y-89420000D01*
X183937691Y-89035899D01*
X184290000Y-88683590D01*
X184290000Y-99455908D01*
X183205908Y-100540000D01*
X178500000Y-100540000D01*
X178431416Y-100553642D01*
X177978804Y-100629762D01*
X177906632Y-100659657D01*
X177834873Y-100689381D01*
X177709427Y-100563716D01*
X177411826Y-100440141D01*
X177089588Y-100439860D01*
X176791771Y-100562915D01*
X176563716Y-100790573D01*
X176499996Y-100944028D01*
X176437085Y-100791771D01*
X176209427Y-100563716D01*
X175911826Y-100440141D01*
X175589588Y-100439860D01*
X175291771Y-100562915D01*
X175063716Y-100790573D01*
X174999996Y-100944028D01*
X174937085Y-100791771D01*
X174709427Y-100563716D01*
X174411826Y-100440141D01*
X174089588Y-100439860D01*
X173791771Y-100562915D01*
X173563716Y-100790573D01*
X173499996Y-100944028D01*
X173437085Y-100791771D01*
X173209427Y-100563716D01*
X172911826Y-100440141D01*
X172589588Y-100439860D01*
X172291771Y-100562915D01*
X172165098Y-100689368D01*
X172093368Y-100659657D01*
X172021196Y-100629762D01*
X171638513Y-100553642D01*
X171568584Y-100553642D01*
X171500000Y-100540000D01*
X136500000Y-100540000D01*
X136431416Y-100553642D01*
X136290158Y-100567830D01*
X138012988Y-98844999D01*
X138349996Y-98844999D01*
X138350001Y-98845000D01*
X138635100Y-98788289D01*
X138792595Y-98683055D01*
X139200000Y-98764093D01*
X139768285Y-98651054D01*
X140250054Y-98329147D01*
X140571961Y-97847378D01*
X140685000Y-97279093D01*
X140685000Y-97220907D01*
X140571961Y-96652622D01*
X140356499Y-96330159D01*
X143599446Y-96330159D01*
X143685852Y-96586643D01*
X144259336Y-96796458D01*
X144869460Y-96770839D01*
X145314148Y-96586643D01*
X145400554Y-96330159D01*
X144500000Y-95429605D01*
X143599446Y-96330159D01*
X140356499Y-96330159D01*
X140250054Y-96170853D01*
X139768285Y-95848946D01*
X139200000Y-95735907D01*
X138631715Y-95848946D01*
X138149946Y-96170853D01*
X137930000Y-96500026D01*
X137710054Y-96170853D01*
X137228285Y-95848946D01*
X136660000Y-95735907D01*
X136091715Y-95848946D01*
X135609946Y-96170853D01*
X135390000Y-96500026D01*
X135170054Y-96170853D01*
X134688285Y-95848946D01*
X134120000Y-95735907D01*
X133551715Y-95848946D01*
X133069946Y-96170853D01*
X132850000Y-96500026D01*
X132630054Y-96170853D01*
X132148285Y-95848946D01*
X131580000Y-95735907D01*
X131011715Y-95848946D01*
X130529946Y-96170853D01*
X130302298Y-96511553D01*
X130235183Y-96368642D01*
X129806924Y-95978355D01*
X129396890Y-95808524D01*
X129167000Y-95929845D01*
X129167000Y-97123000D01*
X129187000Y-97123000D01*
X129187000Y-97377000D01*
X129167000Y-97377000D01*
X129167000Y-97397000D01*
X128913000Y-97397000D01*
X128913000Y-97377000D01*
X128893000Y-97377000D01*
X128893000Y-97123000D01*
X128913000Y-97123000D01*
X128913000Y-95929845D01*
X128683110Y-95808524D01*
X128273076Y-95978355D01*
X127970063Y-96254501D01*
X127953162Y-96164683D01*
X127818652Y-95955648D01*
X128764964Y-95009336D01*
X142953542Y-95009336D01*
X142979161Y-95619460D01*
X143163357Y-96064148D01*
X143419841Y-96150554D01*
X144320395Y-95250000D01*
X143419841Y-94349446D01*
X143163357Y-94435852D01*
X142953542Y-95009336D01*
X128764964Y-95009336D01*
X130764200Y-93010100D01*
X130850020Y-93010175D01*
X131221372Y-92856736D01*
X131283216Y-92795000D01*
X135866503Y-92795000D01*
X135927134Y-92855737D01*
X136298217Y-93009824D01*
X136700020Y-93010175D01*
X137071372Y-92856736D01*
X137355737Y-92572866D01*
X137509824Y-92201783D01*
X137510175Y-91799980D01*
X137357932Y-91431522D01*
X137953205Y-92026795D01*
X138194901Y-92188290D01*
X138480000Y-92245001D01*
X138480005Y-92245000D01*
X142941410Y-92245000D01*
X144413682Y-93717272D01*
X144130540Y-93729161D01*
X143685852Y-93913357D01*
X143599446Y-94169841D01*
X144500000Y-95070395D01*
X144514143Y-95056253D01*
X144693748Y-95235858D01*
X144679605Y-95250000D01*
X145580159Y-96150554D01*
X145695214Y-96111793D01*
X145697932Y-96118371D01*
X146129357Y-96550551D01*
X146693330Y-96784733D01*
X147303991Y-96785265D01*
X147868371Y-96552068D01*
X148250288Y-96170818D01*
X148629357Y-96550551D01*
X149193330Y-96784733D01*
X149803991Y-96785265D01*
X150368371Y-96552068D01*
X150590668Y-96330159D01*
X171599446Y-96330159D01*
X171685852Y-96586643D01*
X172259336Y-96796458D01*
X172869460Y-96770839D01*
X173314148Y-96586643D01*
X173400554Y-96330159D01*
X172500000Y-95429605D01*
X171599446Y-96330159D01*
X150590668Y-96330159D01*
X150800551Y-96120643D01*
X151034733Y-95556670D01*
X151035209Y-95009336D01*
X170953542Y-95009336D01*
X170979161Y-95619460D01*
X171163357Y-96064148D01*
X171419841Y-96150554D01*
X172320395Y-95250000D01*
X171419841Y-94349446D01*
X171163357Y-94435852D01*
X170953542Y-95009336D01*
X151035209Y-95009336D01*
X151035265Y-94946009D01*
X150802068Y-94381629D01*
X150370643Y-93949449D01*
X149806670Y-93715267D01*
X149196009Y-93714735D01*
X148631629Y-93947932D01*
X148249712Y-94329182D01*
X147870643Y-93949449D01*
X147306670Y-93715267D01*
X146696009Y-93714735D01*
X146570276Y-93766687D01*
X144548590Y-91745000D01*
X151441410Y-91745000D01*
X152973203Y-93276792D01*
X152973205Y-93276795D01*
X153214901Y-93438290D01*
X153500000Y-93495001D01*
X153500005Y-93495000D01*
X172191410Y-93495000D01*
X172413682Y-93717272D01*
X172130540Y-93729161D01*
X171685852Y-93913357D01*
X171599446Y-94169841D01*
X172500000Y-95070395D01*
X172514143Y-95056253D01*
X172693748Y-95235858D01*
X172679605Y-95250000D01*
X173580159Y-96150554D01*
X173695214Y-96111793D01*
X173697932Y-96118371D01*
X174129357Y-96550551D01*
X174693330Y-96784733D01*
X175303991Y-96785265D01*
X175868371Y-96552068D01*
X176250288Y-96170818D01*
X176629357Y-96550551D01*
X177193330Y-96784733D01*
X177803991Y-96785265D01*
X178368371Y-96552068D01*
X178800551Y-96120643D01*
X179034733Y-95556670D01*
X179035265Y-94946009D01*
X178802068Y-94381629D01*
X178370643Y-93949449D01*
X177806670Y-93715267D01*
X177196009Y-93714735D01*
X176631629Y-93947932D01*
X176249712Y-94329182D01*
X175870643Y-93949449D01*
X175306670Y-93715267D01*
X174696009Y-93714735D01*
X174570276Y-93766687D01*
X174453590Y-93650000D01*
X181002560Y-93650000D01*
X181002560Y-95350000D01*
X181046838Y-95585317D01*
X181185910Y-95801441D01*
X181398110Y-95946431D01*
X181650000Y-95997440D01*
X183350000Y-95997440D01*
X183585317Y-95953162D01*
X183801441Y-95814090D01*
X183946431Y-95601890D01*
X183997440Y-95350000D01*
X183997440Y-93650000D01*
X183953162Y-93414683D01*
X183814090Y-93198559D01*
X183601890Y-93053569D01*
X183493893Y-93031699D01*
X183771645Y-92726924D01*
X183941476Y-92316890D01*
X183820155Y-92087000D01*
X182627000Y-92087000D01*
X182627000Y-92107000D01*
X182373000Y-92107000D01*
X182373000Y-92087000D01*
X181179845Y-92087000D01*
X181058524Y-92316890D01*
X181228355Y-92726924D01*
X181504501Y-93029937D01*
X181414683Y-93046838D01*
X181198559Y-93185910D01*
X181053569Y-93398110D01*
X181002560Y-93650000D01*
X174453590Y-93650000D01*
X173026795Y-92223205D01*
X172785099Y-92061710D01*
X172500000Y-92004999D01*
X172499995Y-92005000D01*
X153808589Y-92005000D01*
X152464728Y-90661138D01*
X152890658Y-90485147D01*
X153632542Y-89744557D01*
X154034542Y-88776433D01*
X154034615Y-88692619D01*
X158764613Y-88692619D01*
X159104155Y-89514372D01*
X159732321Y-90143636D01*
X160553481Y-90484611D01*
X161442619Y-90485387D01*
X162264372Y-90145845D01*
X162893636Y-89517679D01*
X163203337Y-88771834D01*
X167964543Y-88771834D01*
X168364853Y-89740658D01*
X169105443Y-90482542D01*
X170073567Y-90884542D01*
X171121834Y-90885457D01*
X172090658Y-90485147D01*
X172832542Y-89744557D01*
X173234542Y-88776433D01*
X173235457Y-87728166D01*
X172835147Y-86759342D01*
X172094557Y-86017458D01*
X171126433Y-85615458D01*
X170078166Y-85614543D01*
X169109342Y-86014853D01*
X168367458Y-86755443D01*
X167965458Y-87723567D01*
X167964543Y-88771834D01*
X163203337Y-88771834D01*
X163234611Y-88696519D01*
X163235387Y-87807381D01*
X162895845Y-86985628D01*
X162267679Y-86356364D01*
X161446519Y-86015389D01*
X160557381Y-86014613D01*
X159735628Y-86354155D01*
X159106364Y-86982321D01*
X158765389Y-87803481D01*
X158764613Y-88692619D01*
X154034615Y-88692619D01*
X154035457Y-87728166D01*
X153635147Y-86759342D01*
X152894557Y-86017458D01*
X151926433Y-85615458D01*
X150878166Y-85614543D01*
X149909342Y-86014853D01*
X149167458Y-86755443D01*
X148765458Y-87723567D01*
X148764543Y-88771834D01*
X149164853Y-89740658D01*
X149678298Y-90255000D01*
X144321207Y-90255000D01*
X144832542Y-89744557D01*
X145234542Y-88776433D01*
X145235457Y-87728166D01*
X144835147Y-86759342D01*
X144094557Y-86017458D01*
X143126433Y-85615458D01*
X142078166Y-85614543D01*
X141109342Y-86014853D01*
X140367458Y-86755443D01*
X139965458Y-87723567D01*
X139964543Y-88771834D01*
X140364853Y-89740658D01*
X140878298Y-90255000D01*
X140808589Y-90255000D01*
X140337068Y-89783478D01*
X140296795Y-89723205D01*
X140296792Y-89723203D01*
X138666203Y-88092614D01*
X138955828Y-88081049D01*
X139418077Y-87889580D01*
X139509363Y-87628968D01*
X138580000Y-86699605D01*
X138565858Y-86713748D01*
X138386253Y-86534143D01*
X138400395Y-86520000D01*
X138759605Y-86520000D01*
X139688968Y-87449363D01*
X139949580Y-87358077D01*
X140166045Y-86770167D01*
X140141049Y-86144172D01*
X139949580Y-85681923D01*
X139688968Y-85590637D01*
X138759605Y-86520000D01*
X138400395Y-86520000D01*
X137471032Y-85590637D01*
X137372036Y-85625313D01*
X136997104Y-85249727D01*
X137310273Y-84937104D01*
X137685115Y-85312601D01*
X137650637Y-85411032D01*
X138580000Y-86340395D01*
X139509363Y-85411032D01*
X139474687Y-85312036D01*
X139914272Y-84873217D01*
X140154526Y-84294621D01*
X140155073Y-83668127D01*
X139915829Y-83089113D01*
X139473217Y-82645728D01*
X138894621Y-82405474D01*
X138668313Y-82405276D01*
X139378588Y-81695001D01*
X181006793Y-81695001D01*
X180985907Y-81800000D01*
X180985907Y-81800000D01*
G37*
X180985907Y-81800000D02*
X181098946Y-82368285D01*
X181420853Y-82850054D01*
X181750026Y-83070000D01*
X181420853Y-83289946D01*
X181098946Y-83771715D01*
X180985907Y-84340000D01*
X181098946Y-84908285D01*
X181420853Y-85390054D01*
X181750026Y-85610000D01*
X181420853Y-85829946D01*
X181134774Y-86258095D01*
X180894557Y-86017458D01*
X179926433Y-85615458D01*
X178878166Y-85614543D01*
X177909342Y-86014853D01*
X177167458Y-86755443D01*
X176765458Y-87723567D01*
X176764543Y-88771834D01*
X177164853Y-89740658D01*
X177905443Y-90482542D01*
X178873567Y-90884542D01*
X179921834Y-90885457D01*
X180890658Y-90485147D01*
X181214759Y-90161612D01*
X181420853Y-90470054D01*
X181761553Y-90697702D01*
X181618642Y-90764817D01*
X181228355Y-91193076D01*
X181058524Y-91603110D01*
X181179845Y-91833000D01*
X182373000Y-91833000D01*
X182373000Y-91813000D01*
X182627000Y-91813000D01*
X182627000Y-91833000D01*
X183820155Y-91833000D01*
X183941476Y-91603110D01*
X183771645Y-91193076D01*
X183381358Y-90764817D01*
X183238447Y-90697702D01*
X183579147Y-90470054D01*
X183901054Y-89988285D01*
X184014093Y-89420000D01*
X183937691Y-89035899D01*
X184290000Y-88683590D01*
X184290000Y-99455908D01*
X183205908Y-100540000D01*
X178500000Y-100540000D01*
X178431416Y-100553642D01*
X177978804Y-100629762D01*
X177906632Y-100659657D01*
X177834873Y-100689381D01*
X177709427Y-100563716D01*
X177411826Y-100440141D01*
X177089588Y-100439860D01*
X176791771Y-100562915D01*
X176563716Y-100790573D01*
X176499996Y-100944028D01*
X176437085Y-100791771D01*
X176209427Y-100563716D01*
X175911826Y-100440141D01*
X175589588Y-100439860D01*
X175291771Y-100562915D01*
X175063716Y-100790573D01*
X174999996Y-100944028D01*
X174937085Y-100791771D01*
X174709427Y-100563716D01*
X174411826Y-100440141D01*
X174089588Y-100439860D01*
X173791771Y-100562915D01*
X173563716Y-100790573D01*
X173499996Y-100944028D01*
X173437085Y-100791771D01*
X173209427Y-100563716D01*
X172911826Y-100440141D01*
X172589588Y-100439860D01*
X172291771Y-100562915D01*
X172165098Y-100689368D01*
X172093368Y-100659657D01*
X172021196Y-100629762D01*
X171638513Y-100553642D01*
X171568584Y-100553642D01*
X171500000Y-100540000D01*
X136500000Y-100540000D01*
X136431416Y-100553642D01*
X136290158Y-100567830D01*
X138012988Y-98844999D01*
X138349996Y-98844999D01*
X138350001Y-98845000D01*
X138635100Y-98788289D01*
X138792595Y-98683055D01*
X139200000Y-98764093D01*
X139768285Y-98651054D01*
X140250054Y-98329147D01*
X140571961Y-97847378D01*
X140685000Y-97279093D01*
X140685000Y-97220907D01*
X140571961Y-96652622D01*
X140356499Y-96330159D01*
X143599446Y-96330159D01*
X143685852Y-96586643D01*
X144259336Y-96796458D01*
X144869460Y-96770839D01*
X145314148Y-96586643D01*
X145400554Y-96330159D01*
X144500000Y-95429605D01*
X143599446Y-96330159D01*
X140356499Y-96330159D01*
X140250054Y-96170853D01*
X139768285Y-95848946D01*
X139200000Y-95735907D01*
X138631715Y-95848946D01*
X138149946Y-96170853D01*
X137930000Y-96500026D01*
X137710054Y-96170853D01*
X137228285Y-95848946D01*
X136660000Y-95735907D01*
X136091715Y-95848946D01*
X135609946Y-96170853D01*
X135390000Y-96500026D01*
X135170054Y-96170853D01*
X134688285Y-95848946D01*
X134120000Y-95735907D01*
X133551715Y-95848946D01*
X133069946Y-96170853D01*
X132850000Y-96500026D01*
X132630054Y-96170853D01*
X132148285Y-95848946D01*
X131580000Y-95735907D01*
X131011715Y-95848946D01*
X130529946Y-96170853D01*
X130302298Y-96511553D01*
X130235183Y-96368642D01*
X129806924Y-95978355D01*
X129396890Y-95808524D01*
X129167000Y-95929845D01*
X129167000Y-97123000D01*
X129187000Y-97123000D01*
X129187000Y-97377000D01*
X129167000Y-97377000D01*
X129167000Y-97397000D01*
X128913000Y-97397000D01*
X128913000Y-97377000D01*
X128893000Y-97377000D01*
X128893000Y-97123000D01*
X128913000Y-97123000D01*
X128913000Y-95929845D01*
X128683110Y-95808524D01*
X128273076Y-95978355D01*
X127970063Y-96254501D01*
X127953162Y-96164683D01*
X127818652Y-95955648D01*
X128764964Y-95009336D01*
X142953542Y-95009336D01*
X142979161Y-95619460D01*
X143163357Y-96064148D01*
X143419841Y-96150554D01*
X144320395Y-95250000D01*
X143419841Y-94349446D01*
X143163357Y-94435852D01*
X142953542Y-95009336D01*
X128764964Y-95009336D01*
X130764200Y-93010100D01*
X130850020Y-93010175D01*
X131221372Y-92856736D01*
X131283216Y-92795000D01*
X135866503Y-92795000D01*
X135927134Y-92855737D01*
X136298217Y-93009824D01*
X136700020Y-93010175D01*
X137071372Y-92856736D01*
X137355737Y-92572866D01*
X137509824Y-92201783D01*
X137510175Y-91799980D01*
X137357932Y-91431522D01*
X137953205Y-92026795D01*
X138194901Y-92188290D01*
X138480000Y-92245001D01*
X138480005Y-92245000D01*
X142941410Y-92245000D01*
X144413682Y-93717272D01*
X144130540Y-93729161D01*
X143685852Y-93913357D01*
X143599446Y-94169841D01*
X144500000Y-95070395D01*
X144514143Y-95056253D01*
X144693748Y-95235858D01*
X144679605Y-95250000D01*
X145580159Y-96150554D01*
X145695214Y-96111793D01*
X145697932Y-96118371D01*
X146129357Y-96550551D01*
X146693330Y-96784733D01*
X147303991Y-96785265D01*
X147868371Y-96552068D01*
X148250288Y-96170818D01*
X148629357Y-96550551D01*
X149193330Y-96784733D01*
X149803991Y-96785265D01*
X150368371Y-96552068D01*
X150590668Y-96330159D01*
X171599446Y-96330159D01*
X171685852Y-96586643D01*
X172259336Y-96796458D01*
X172869460Y-96770839D01*
X173314148Y-96586643D01*
X173400554Y-96330159D01*
X172500000Y-95429605D01*
X171599446Y-96330159D01*
X150590668Y-96330159D01*
X150800551Y-96120643D01*
X151034733Y-95556670D01*
X151035209Y-95009336D01*
X170953542Y-95009336D01*
X170979161Y-95619460D01*
X171163357Y-96064148D01*
X171419841Y-96150554D01*
X172320395Y-95250000D01*
X171419841Y-94349446D01*
X171163357Y-94435852D01*
X170953542Y-95009336D01*
X151035209Y-95009336D01*
X151035265Y-94946009D01*
X150802068Y-94381629D01*
X150370643Y-93949449D01*
X149806670Y-93715267D01*
X149196009Y-93714735D01*
X148631629Y-93947932D01*
X148249712Y-94329182D01*
X147870643Y-93949449D01*
X147306670Y-93715267D01*
X146696009Y-93714735D01*
X146570276Y-93766687D01*
X144548590Y-91745000D01*
X151441410Y-91745000D01*
X152973203Y-93276792D01*
X152973205Y-93276795D01*
X153214901Y-93438290D01*
X153500000Y-93495001D01*
X153500005Y-93495000D01*
X172191410Y-93495000D01*
X172413682Y-93717272D01*
X172130540Y-93729161D01*
X171685852Y-93913357D01*
X171599446Y-94169841D01*
X172500000Y-95070395D01*
X172514143Y-95056253D01*
X172693748Y-95235858D01*
X172679605Y-95250000D01*
X173580159Y-96150554D01*
X173695214Y-96111793D01*
X173697932Y-96118371D01*
X174129357Y-96550551D01*
X174693330Y-96784733D01*
X175303991Y-96785265D01*
X175868371Y-96552068D01*
X176250288Y-96170818D01*
X176629357Y-96550551D01*
X177193330Y-96784733D01*
X177803991Y-96785265D01*
X178368371Y-96552068D01*
X178800551Y-96120643D01*
X179034733Y-95556670D01*
X179035265Y-94946009D01*
X178802068Y-94381629D01*
X178370643Y-93949449D01*
X177806670Y-93715267D01*
X177196009Y-93714735D01*
X176631629Y-93947932D01*
X176249712Y-94329182D01*
X175870643Y-93949449D01*
X175306670Y-93715267D01*
X174696009Y-93714735D01*
X174570276Y-93766687D01*
X174453590Y-93650000D01*
X181002560Y-93650000D01*
X181002560Y-95350000D01*
X181046838Y-95585317D01*
X181185910Y-95801441D01*
X181398110Y-95946431D01*
X181650000Y-95997440D01*
X183350000Y-95997440D01*
X183585317Y-95953162D01*
X183801441Y-95814090D01*
X183946431Y-95601890D01*
X183997440Y-95350000D01*
X183997440Y-93650000D01*
X183953162Y-93414683D01*
X183814090Y-93198559D01*
X183601890Y-93053569D01*
X183493893Y-93031699D01*
X183771645Y-92726924D01*
X183941476Y-92316890D01*
X183820155Y-92087000D01*
X182627000Y-92087000D01*
X182627000Y-92107000D01*
X182373000Y-92107000D01*
X182373000Y-92087000D01*
X181179845Y-92087000D01*
X181058524Y-92316890D01*
X181228355Y-92726924D01*
X181504501Y-93029937D01*
X181414683Y-93046838D01*
X181198559Y-93185910D01*
X181053569Y-93398110D01*
X181002560Y-93650000D01*
X174453590Y-93650000D01*
X173026795Y-92223205D01*
X172785099Y-92061710D01*
X172500000Y-92004999D01*
X172499995Y-92005000D01*
X153808589Y-92005000D01*
X152464728Y-90661138D01*
X152890658Y-90485147D01*
X153632542Y-89744557D01*
X154034542Y-88776433D01*
X154034615Y-88692619D01*
X158764613Y-88692619D01*
X159104155Y-89514372D01*
X159732321Y-90143636D01*
X160553481Y-90484611D01*
X161442619Y-90485387D01*
X162264372Y-90145845D01*
X162893636Y-89517679D01*
X163203337Y-88771834D01*
X167964543Y-88771834D01*
X168364853Y-89740658D01*
X169105443Y-90482542D01*
X170073567Y-90884542D01*
X171121834Y-90885457D01*
X172090658Y-90485147D01*
X172832542Y-89744557D01*
X173234542Y-88776433D01*
X173235457Y-87728166D01*
X172835147Y-86759342D01*
X172094557Y-86017458D01*
X171126433Y-85615458D01*
X170078166Y-85614543D01*
X169109342Y-86014853D01*
X168367458Y-86755443D01*
X167965458Y-87723567D01*
X167964543Y-88771834D01*
X163203337Y-88771834D01*
X163234611Y-88696519D01*
X163235387Y-87807381D01*
X162895845Y-86985628D01*
X162267679Y-86356364D01*
X161446519Y-86015389D01*
X160557381Y-86014613D01*
X159735628Y-86354155D01*
X159106364Y-86982321D01*
X158765389Y-87803481D01*
X158764613Y-88692619D01*
X154034615Y-88692619D01*
X154035457Y-87728166D01*
X153635147Y-86759342D01*
X152894557Y-86017458D01*
X151926433Y-85615458D01*
X150878166Y-85614543D01*
X149909342Y-86014853D01*
X149167458Y-86755443D01*
X148765458Y-87723567D01*
X148764543Y-88771834D01*
X149164853Y-89740658D01*
X149678298Y-90255000D01*
X144321207Y-90255000D01*
X144832542Y-89744557D01*
X145234542Y-88776433D01*
X145235457Y-87728166D01*
X144835147Y-86759342D01*
X144094557Y-86017458D01*
X143126433Y-85615458D01*
X142078166Y-85614543D01*
X141109342Y-86014853D01*
X140367458Y-86755443D01*
X139965458Y-87723567D01*
X139964543Y-88771834D01*
X140364853Y-89740658D01*
X140878298Y-90255000D01*
X140808589Y-90255000D01*
X140337068Y-89783478D01*
X140296795Y-89723205D01*
X140296792Y-89723203D01*
X138666203Y-88092614D01*
X138955828Y-88081049D01*
X139418077Y-87889580D01*
X139509363Y-87628968D01*
X138580000Y-86699605D01*
X138565858Y-86713748D01*
X138386253Y-86534143D01*
X138400395Y-86520000D01*
X138759605Y-86520000D01*
X139688968Y-87449363D01*
X139949580Y-87358077D01*
X140166045Y-86770167D01*
X140141049Y-86144172D01*
X139949580Y-85681923D01*
X139688968Y-85590637D01*
X138759605Y-86520000D01*
X138400395Y-86520000D01*
X137471032Y-85590637D01*
X137372036Y-85625313D01*
X136997104Y-85249727D01*
X137310273Y-84937104D01*
X137685115Y-85312601D01*
X137650637Y-85411032D01*
X138580000Y-86340395D01*
X139509363Y-85411032D01*
X139474687Y-85312036D01*
X139914272Y-84873217D01*
X140154526Y-84294621D01*
X140155073Y-83668127D01*
X139915829Y-83089113D01*
X139473217Y-82645728D01*
X138894621Y-82405474D01*
X138668313Y-82405276D01*
X139378588Y-81695001D01*
X181006793Y-81695001D01*
X180985907Y-81800000D01*
M02*
