G04 #@! TF.FileFunction,Legend,Bot*
%FSLAX46Y46*%
G04 Gerber Fmt 4.6, Leading zero omitted, Abs format (unit mm)*
G04 Created by KiCad (PCBNEW 4.0.7-e2-6376~58~ubuntu16.04.1) date Tue Aug 14 19:25:32 2018*
%MOMM*%
%LPD*%
G01*
G04 APERTURE LIST*
%ADD10C,0.100000*%
%ADD11C,0.300000*%
%ADD12C,0.010000*%
G04 APERTURE END LIST*
D10*
D11*
X165857142Y-94128571D02*
X165857142Y-95342857D01*
X165785714Y-95485714D01*
X165714285Y-95557143D01*
X165571428Y-95628571D01*
X165285714Y-95628571D01*
X165142856Y-95557143D01*
X165071428Y-95485714D01*
X164999999Y-95342857D01*
X164999999Y-94128571D01*
X164285713Y-95628571D02*
X164285713Y-94628571D01*
X164285713Y-94914286D02*
X164214285Y-94771429D01*
X164142856Y-94700000D01*
X163999999Y-94628571D01*
X163857142Y-94628571D01*
X163357142Y-95628571D02*
X163357142Y-94628571D01*
X163357142Y-94128571D02*
X163428571Y-94200000D01*
X163357142Y-94271429D01*
X163285714Y-94200000D01*
X163357142Y-94128571D01*
X163357142Y-94271429D01*
X162714285Y-95557143D02*
X162499999Y-95628571D01*
X162142856Y-95628571D01*
X161999999Y-95557143D01*
X161928570Y-95485714D01*
X161857142Y-95342857D01*
X161857142Y-95200000D01*
X161928570Y-95057143D01*
X161999999Y-94985714D01*
X162142856Y-94914286D01*
X162428570Y-94842857D01*
X162571428Y-94771429D01*
X162642856Y-94700000D01*
X162714285Y-94557143D01*
X162714285Y-94414286D01*
X162642856Y-94271429D01*
X162571428Y-94200000D01*
X162428570Y-94128571D01*
X162071428Y-94128571D01*
X161857142Y-94200000D01*
X161214285Y-95628571D02*
X161214285Y-94128571D01*
X160571428Y-95628571D02*
X160571428Y-94842857D01*
X160642857Y-94700000D01*
X160785714Y-94628571D01*
X160999999Y-94628571D01*
X161142857Y-94700000D01*
X161214285Y-94771429D01*
X159999999Y-94128571D02*
X158999999Y-95628571D01*
X158999999Y-94128571D02*
X159999999Y-95628571D01*
X182571428Y-98178571D02*
X182571428Y-96678571D01*
X182000000Y-96678571D01*
X181857142Y-96750000D01*
X181785714Y-96821429D01*
X181714285Y-96964286D01*
X181714285Y-97178571D01*
X181785714Y-97321429D01*
X181857142Y-97392857D01*
X182000000Y-97464286D01*
X182571428Y-97464286D01*
X180857142Y-98178571D02*
X181000000Y-98107143D01*
X181071428Y-98035714D01*
X181142857Y-97892857D01*
X181142857Y-97464286D01*
X181071428Y-97321429D01*
X181000000Y-97250000D01*
X180857142Y-97178571D01*
X180642857Y-97178571D01*
X180500000Y-97250000D01*
X180428571Y-97321429D01*
X180357142Y-97464286D01*
X180357142Y-97892857D01*
X180428571Y-98035714D01*
X180500000Y-98107143D01*
X180642857Y-98178571D01*
X180857142Y-98178571D01*
X179928571Y-97178571D02*
X179357142Y-97178571D01*
X179714285Y-96678571D02*
X179714285Y-97964286D01*
X179642857Y-98107143D01*
X179499999Y-98178571D01*
X179357142Y-98178571D01*
X178285714Y-98107143D02*
X178428571Y-98178571D01*
X178714285Y-98178571D01*
X178857142Y-98107143D01*
X178928571Y-97964286D01*
X178928571Y-97392857D01*
X178857142Y-97250000D01*
X178714285Y-97178571D01*
X178428571Y-97178571D01*
X178285714Y-97250000D01*
X178214285Y-97392857D01*
X178214285Y-97535714D01*
X178928571Y-97678571D01*
X177571428Y-97178571D02*
X177571428Y-98178571D01*
X177571428Y-97321429D02*
X177500000Y-97250000D01*
X177357142Y-97178571D01*
X177142857Y-97178571D01*
X177000000Y-97250000D01*
X176928571Y-97392857D01*
X176928571Y-98178571D01*
X176428571Y-97178571D02*
X175857142Y-97178571D01*
X176214285Y-96678571D02*
X176214285Y-97964286D01*
X176142857Y-98107143D01*
X175999999Y-98178571D01*
X175857142Y-98178571D01*
X175357142Y-98178571D02*
X175357142Y-97178571D01*
X175357142Y-96678571D02*
X175428571Y-96750000D01*
X175357142Y-96821429D01*
X175285714Y-96750000D01*
X175357142Y-96678571D01*
X175357142Y-96821429D01*
X174428570Y-98178571D02*
X174571428Y-98107143D01*
X174642856Y-98035714D01*
X174714285Y-97892857D01*
X174714285Y-97464286D01*
X174642856Y-97321429D01*
X174571428Y-97250000D01*
X174428570Y-97178571D01*
X174214285Y-97178571D01*
X174071428Y-97250000D01*
X173999999Y-97321429D01*
X173928570Y-97464286D01*
X173928570Y-97892857D01*
X173999999Y-98035714D01*
X174071428Y-98107143D01*
X174214285Y-98178571D01*
X174428570Y-98178571D01*
X173285713Y-98178571D02*
X173285713Y-97178571D01*
X173285713Y-97321429D02*
X173214285Y-97250000D01*
X173071427Y-97178571D01*
X172857142Y-97178571D01*
X172714285Y-97250000D01*
X172642856Y-97392857D01*
X172642856Y-98178571D01*
X172642856Y-97392857D02*
X172571427Y-97250000D01*
X172428570Y-97178571D01*
X172214285Y-97178571D01*
X172071427Y-97250000D01*
X171999999Y-97392857D01*
X171999999Y-98178571D01*
X170714285Y-98107143D02*
X170857142Y-98178571D01*
X171142856Y-98178571D01*
X171285713Y-98107143D01*
X171357142Y-97964286D01*
X171357142Y-97392857D01*
X171285713Y-97250000D01*
X171142856Y-97178571D01*
X170857142Y-97178571D01*
X170714285Y-97250000D01*
X170642856Y-97392857D01*
X170642856Y-97535714D01*
X171357142Y-97678571D01*
X170214285Y-97178571D02*
X169642856Y-97178571D01*
X169999999Y-96678571D02*
X169999999Y-97964286D01*
X169928571Y-98107143D01*
X169785713Y-98178571D01*
X169642856Y-98178571D01*
X168571428Y-98107143D02*
X168714285Y-98178571D01*
X168999999Y-98178571D01*
X169142856Y-98107143D01*
X169214285Y-97964286D01*
X169214285Y-97392857D01*
X169142856Y-97250000D01*
X168999999Y-97178571D01*
X168714285Y-97178571D01*
X168571428Y-97250000D01*
X168499999Y-97392857D01*
X168499999Y-97535714D01*
X169214285Y-97678571D01*
X167857142Y-98178571D02*
X167857142Y-97178571D01*
X167857142Y-97464286D02*
X167785714Y-97321429D01*
X167714285Y-97250000D01*
X167571428Y-97178571D01*
X167428571Y-97178571D01*
X165214286Y-98107143D02*
X165357143Y-98178571D01*
X165642857Y-98178571D01*
X165785714Y-98107143D01*
X165857143Y-97964286D01*
X165857143Y-97392857D01*
X165785714Y-97250000D01*
X165642857Y-97178571D01*
X165357143Y-97178571D01*
X165214286Y-97250000D01*
X165142857Y-97392857D01*
X165142857Y-97535714D01*
X165857143Y-97678571D01*
X164642857Y-98178571D02*
X163857143Y-97178571D01*
X164642857Y-97178571D02*
X163857143Y-98178571D01*
X163285714Y-97178571D02*
X163285714Y-98678571D01*
X163285714Y-97250000D02*
X163142857Y-97178571D01*
X162857143Y-97178571D01*
X162714286Y-97250000D01*
X162642857Y-97321429D01*
X162571428Y-97464286D01*
X162571428Y-97892857D01*
X162642857Y-98035714D01*
X162714286Y-98107143D01*
X162857143Y-98178571D01*
X163142857Y-98178571D01*
X163285714Y-98107143D01*
X161285714Y-98178571D02*
X161285714Y-97392857D01*
X161357143Y-97250000D01*
X161500000Y-97178571D01*
X161785714Y-97178571D01*
X161928571Y-97250000D01*
X161285714Y-98107143D02*
X161428571Y-98178571D01*
X161785714Y-98178571D01*
X161928571Y-98107143D01*
X162000000Y-97964286D01*
X162000000Y-97821429D01*
X161928571Y-97678571D01*
X161785714Y-97607143D01*
X161428571Y-97607143D01*
X161285714Y-97535714D01*
X160571428Y-97178571D02*
X160571428Y-98178571D01*
X160571428Y-97321429D02*
X160500000Y-97250000D01*
X160357142Y-97178571D01*
X160142857Y-97178571D01*
X160000000Y-97250000D01*
X159928571Y-97392857D01*
X159928571Y-98178571D01*
X159285714Y-98107143D02*
X159142857Y-98178571D01*
X158857142Y-98178571D01*
X158714285Y-98107143D01*
X158642857Y-97964286D01*
X158642857Y-97892857D01*
X158714285Y-97750000D01*
X158857142Y-97678571D01*
X159071428Y-97678571D01*
X159214285Y-97607143D01*
X159285714Y-97464286D01*
X159285714Y-97392857D01*
X159214285Y-97250000D01*
X159071428Y-97178571D01*
X158857142Y-97178571D01*
X158714285Y-97250000D01*
X157999999Y-98178571D02*
X157999999Y-97178571D01*
X157999999Y-96678571D02*
X158071428Y-96750000D01*
X157999999Y-96821429D01*
X157928571Y-96750000D01*
X157999999Y-96678571D01*
X157999999Y-96821429D01*
X157071427Y-98178571D02*
X157214285Y-98107143D01*
X157285713Y-98035714D01*
X157357142Y-97892857D01*
X157357142Y-97464286D01*
X157285713Y-97321429D01*
X157214285Y-97250000D01*
X157071427Y-97178571D01*
X156857142Y-97178571D01*
X156714285Y-97250000D01*
X156642856Y-97321429D01*
X156571427Y-97464286D01*
X156571427Y-97892857D01*
X156642856Y-98035714D01*
X156714285Y-98107143D01*
X156857142Y-98178571D01*
X157071427Y-98178571D01*
X155928570Y-97178571D02*
X155928570Y-98178571D01*
X155928570Y-97321429D02*
X155857142Y-97250000D01*
X155714284Y-97178571D01*
X155499999Y-97178571D01*
X155357142Y-97250000D01*
X155285713Y-97392857D01*
X155285713Y-98178571D01*
X153642856Y-97178571D02*
X153071427Y-97178571D01*
X153428570Y-98178571D02*
X153428570Y-96892857D01*
X153357142Y-96750000D01*
X153214284Y-96678571D01*
X153071427Y-96678571D01*
X152357141Y-98178571D02*
X152499999Y-98107143D01*
X152571427Y-98035714D01*
X152642856Y-97892857D01*
X152642856Y-97464286D01*
X152571427Y-97321429D01*
X152499999Y-97250000D01*
X152357141Y-97178571D01*
X152142856Y-97178571D01*
X151999999Y-97250000D01*
X151928570Y-97321429D01*
X151857141Y-97464286D01*
X151857141Y-97892857D01*
X151928570Y-98035714D01*
X151999999Y-98107143D01*
X152142856Y-98178571D01*
X152357141Y-98178571D01*
X151214284Y-98178571D02*
X151214284Y-97178571D01*
X151214284Y-97464286D02*
X151142856Y-97321429D01*
X151071427Y-97250000D01*
X150928570Y-97178571D01*
X150785713Y-97178571D01*
X149214285Y-97750000D02*
X148499999Y-97750000D01*
X149357142Y-98178571D02*
X148857142Y-96678571D01*
X148357142Y-98178571D01*
X147357142Y-97392857D02*
X147142856Y-97464286D01*
X147071428Y-97535714D01*
X146999999Y-97678571D01*
X146999999Y-97892857D01*
X147071428Y-98035714D01*
X147142856Y-98107143D01*
X147285714Y-98178571D01*
X147857142Y-98178571D01*
X147857142Y-96678571D01*
X147357142Y-96678571D01*
X147214285Y-96750000D01*
X147142856Y-96821429D01*
X147071428Y-96964286D01*
X147071428Y-97107143D01*
X147142856Y-97250000D01*
X147214285Y-97321429D01*
X147357142Y-97392857D01*
X147857142Y-97392857D01*
X145714285Y-97178571D02*
X145714285Y-98178571D01*
X146071428Y-96607143D02*
X146428571Y-97678571D01*
X145499999Y-97678571D01*
X144928571Y-98178571D02*
X144928571Y-96678571D01*
X144428571Y-97750000D01*
X143928571Y-96678571D01*
X143928571Y-98178571D01*
X142357142Y-98035714D02*
X142428571Y-98107143D01*
X142642857Y-98178571D01*
X142785714Y-98178571D01*
X142999999Y-98107143D01*
X143142857Y-97964286D01*
X143214285Y-97821429D01*
X143285714Y-97535714D01*
X143285714Y-97321429D01*
X143214285Y-97035714D01*
X143142857Y-96892857D01*
X142999999Y-96750000D01*
X142785714Y-96678571D01*
X142642857Y-96678571D01*
X142428571Y-96750000D01*
X142357142Y-96821429D01*
X164999999Y-99728571D02*
X164642856Y-100728571D01*
X164285714Y-99728571D01*
X163714285Y-100585714D02*
X163642857Y-100657143D01*
X163714285Y-100728571D01*
X163785714Y-100657143D01*
X163714285Y-100585714D01*
X163714285Y-100728571D01*
X162714285Y-99228571D02*
X162571428Y-99228571D01*
X162428571Y-99300000D01*
X162357142Y-99371429D01*
X162285713Y-99514286D01*
X162214285Y-99800000D01*
X162214285Y-100157143D01*
X162285713Y-100442857D01*
X162357142Y-100585714D01*
X162428571Y-100657143D01*
X162571428Y-100728571D01*
X162714285Y-100728571D01*
X162857142Y-100657143D01*
X162928571Y-100585714D01*
X162999999Y-100442857D01*
X163071428Y-100157143D01*
X163071428Y-99800000D01*
X162999999Y-99514286D01*
X162928571Y-99371429D01*
X162857142Y-99300000D01*
X162714285Y-99228571D01*
X161571428Y-100585714D02*
X161500000Y-100657143D01*
X161571428Y-100728571D01*
X161642857Y-100657143D01*
X161571428Y-100585714D01*
X161571428Y-100728571D01*
X160071428Y-100728571D02*
X160928571Y-100728571D01*
X160499999Y-100728571D02*
X160499999Y-99228571D01*
X160642856Y-99442857D01*
X160785714Y-99585714D01*
X160928571Y-99657143D01*
D12*
G36*
X173399754Y-111270945D02*
X173347189Y-111271480D01*
X173193165Y-111275196D01*
X173064171Y-111286235D01*
X172955809Y-111305782D01*
X172863684Y-111335019D01*
X172783399Y-111375133D01*
X172710558Y-111427305D01*
X172684541Y-111449969D01*
X172641383Y-111502998D01*
X172602467Y-111574957D01*
X172572473Y-111654720D01*
X172556081Y-111731161D01*
X172554378Y-111759408D01*
X172565051Y-111837710D01*
X172593653Y-111923241D01*
X172635057Y-112004199D01*
X172684141Y-112068782D01*
X172692113Y-112076574D01*
X172759646Y-112131344D01*
X172833598Y-112174099D01*
X172918234Y-112205959D01*
X173017817Y-112228044D01*
X173136612Y-112241474D01*
X173278880Y-112247370D01*
X173344046Y-112247870D01*
X173426901Y-112247471D01*
X173485169Y-112245802D01*
X173524316Y-112242158D01*
X173549809Y-112235829D01*
X173567114Y-112226110D01*
X173576390Y-112217810D01*
X173585152Y-112207728D01*
X173592025Y-112194721D01*
X173597238Y-112175305D01*
X173601019Y-112145996D01*
X173603597Y-112103309D01*
X173605200Y-112043761D01*
X173606057Y-111963866D01*
X173606397Y-111860141D01*
X173606449Y-111759408D01*
X173606780Y-111625055D01*
X173606708Y-111517728D01*
X173605430Y-111466331D01*
X173411065Y-111466331D01*
X173411065Y-112052485D01*
X173287071Y-112052371D01*
X173212461Y-112050232D01*
X173134318Y-112044719D01*
X173069120Y-112037008D01*
X173067136Y-112036691D01*
X172961763Y-112011214D01*
X172880032Y-111971536D01*
X172817862Y-111915074D01*
X172778360Y-111853942D01*
X172754020Y-111786129D01*
X172755907Y-111722455D01*
X172784155Y-111654201D01*
X172839408Y-111583592D01*
X172915973Y-111531271D01*
X173015495Y-111496299D01*
X173082007Y-111483922D01*
X173157507Y-111475230D01*
X173237525Y-111468940D01*
X173305584Y-111466324D01*
X173309615Y-111466312D01*
X173411065Y-111466331D01*
X173605430Y-111466331D01*
X173604636Y-111434417D01*
X173598961Y-111372115D01*
X173588087Y-111327811D01*
X173570414Y-111298496D01*
X173544343Y-111281161D01*
X173508275Y-111272797D01*
X173460612Y-111270395D01*
X173399754Y-111270945D01*
X173399754Y-111270945D01*
G37*
X173399754Y-111270945D02*
X173347189Y-111271480D01*
X173193165Y-111275196D01*
X173064171Y-111286235D01*
X172955809Y-111305782D01*
X172863684Y-111335019D01*
X172783399Y-111375133D01*
X172710558Y-111427305D01*
X172684541Y-111449969D01*
X172641383Y-111502998D01*
X172602467Y-111574957D01*
X172572473Y-111654720D01*
X172556081Y-111731161D01*
X172554378Y-111759408D01*
X172565051Y-111837710D01*
X172593653Y-111923241D01*
X172635057Y-112004199D01*
X172684141Y-112068782D01*
X172692113Y-112076574D01*
X172759646Y-112131344D01*
X172833598Y-112174099D01*
X172918234Y-112205959D01*
X173017817Y-112228044D01*
X173136612Y-112241474D01*
X173278880Y-112247370D01*
X173344046Y-112247870D01*
X173426901Y-112247471D01*
X173485169Y-112245802D01*
X173524316Y-112242158D01*
X173549809Y-112235829D01*
X173567114Y-112226110D01*
X173576390Y-112217810D01*
X173585152Y-112207728D01*
X173592025Y-112194721D01*
X173597238Y-112175305D01*
X173601019Y-112145996D01*
X173603597Y-112103309D01*
X173605200Y-112043761D01*
X173606057Y-111963866D01*
X173606397Y-111860141D01*
X173606449Y-111759408D01*
X173606780Y-111625055D01*
X173606708Y-111517728D01*
X173605430Y-111466331D01*
X173411065Y-111466331D01*
X173411065Y-112052485D01*
X173287071Y-112052371D01*
X173212461Y-112050232D01*
X173134318Y-112044719D01*
X173069120Y-112037008D01*
X173067136Y-112036691D01*
X172961763Y-112011214D01*
X172880032Y-111971536D01*
X172817862Y-111915074D01*
X172778360Y-111853942D01*
X172754020Y-111786129D01*
X172755907Y-111722455D01*
X172784155Y-111654201D01*
X172839408Y-111583592D01*
X172915973Y-111531271D01*
X173015495Y-111496299D01*
X173082007Y-111483922D01*
X173157507Y-111475230D01*
X173237525Y-111468940D01*
X173305584Y-111466324D01*
X173309615Y-111466312D01*
X173411065Y-111466331D01*
X173605430Y-111466331D01*
X173604636Y-111434417D01*
X173598961Y-111372115D01*
X173588087Y-111327811D01*
X173570414Y-111298496D01*
X173544343Y-111281161D01*
X173508275Y-111272797D01*
X173460612Y-111270395D01*
X173399754Y-111270945D01*
G36*
X171524430Y-111271052D02*
X171432022Y-111271548D01*
X171362273Y-111272701D01*
X171311483Y-111274780D01*
X171275951Y-111278051D01*
X171251978Y-111282783D01*
X171235864Y-111289243D01*
X171223909Y-111297699D01*
X171219579Y-111301591D01*
X171193251Y-111342940D01*
X171188511Y-111390452D01*
X171205830Y-111432631D01*
X171213839Y-111441156D01*
X171226792Y-111449421D01*
X171247648Y-111455797D01*
X171280276Y-111460595D01*
X171328542Y-111464124D01*
X171396314Y-111466694D01*
X171487460Y-111468617D01*
X171570791Y-111469787D01*
X171900592Y-111473846D01*
X171909606Y-111646686D01*
X171685742Y-111646686D01*
X171588554Y-111647525D01*
X171517403Y-111651032D01*
X171468291Y-111658695D01*
X171437217Y-111672003D01*
X171420184Y-111692441D01*
X171413192Y-111721499D01*
X171412130Y-111748467D01*
X171415430Y-111781557D01*
X171427883Y-111805940D01*
X171453320Y-111822889D01*
X171495571Y-111833679D01*
X171558466Y-111839584D01*
X171645835Y-111841877D01*
X171693521Y-111842071D01*
X171908106Y-111842071D01*
X171908106Y-112052485D01*
X171577455Y-112052485D01*
X171469070Y-112052636D01*
X171386697Y-112053314D01*
X171326289Y-112054856D01*
X171283799Y-112057599D01*
X171255181Y-112061881D01*
X171236388Y-112068039D01*
X171223374Y-112076409D01*
X171216745Y-112082544D01*
X171194007Y-112118349D01*
X171186686Y-112150177D01*
X171197139Y-112189054D01*
X171216745Y-112217810D01*
X171227205Y-112226863D01*
X171240708Y-112233893D01*
X171260886Y-112239154D01*
X171291371Y-112242901D01*
X171335795Y-112245390D01*
X171397791Y-112246875D01*
X171480991Y-112247611D01*
X171589027Y-112247854D01*
X171645089Y-112247870D01*
X171765144Y-112247763D01*
X171858774Y-112247275D01*
X171929609Y-112246149D01*
X171981281Y-112244131D01*
X172017423Y-112240966D01*
X172041668Y-112236399D01*
X172057647Y-112230176D01*
X172068993Y-112222040D01*
X172073432Y-112217810D01*
X172082217Y-112207696D01*
X172089104Y-112194648D01*
X172094321Y-112175170D01*
X172098099Y-112145764D01*
X172100670Y-112102934D01*
X172102264Y-112043184D01*
X172103111Y-111963017D01*
X172103442Y-111858937D01*
X172103491Y-111762028D01*
X172103446Y-111637923D01*
X172103134Y-111540366D01*
X172102288Y-111465846D01*
X172100642Y-111410851D01*
X172097929Y-111371870D01*
X172093883Y-111345393D01*
X172088237Y-111327906D01*
X172080726Y-111315900D01*
X172071082Y-111305863D01*
X172068706Y-111303626D01*
X172057175Y-111293719D01*
X172043778Y-111286048D01*
X172024796Y-111280326D01*
X171996515Y-111276268D01*
X171955218Y-111273588D01*
X171897188Y-111272002D01*
X171818709Y-111271224D01*
X171716066Y-111270968D01*
X171643196Y-111270946D01*
X171524430Y-111271052D01*
X171524430Y-111271052D01*
G37*
X171524430Y-111271052D02*
X171432022Y-111271548D01*
X171362273Y-111272701D01*
X171311483Y-111274780D01*
X171275951Y-111278051D01*
X171251978Y-111282783D01*
X171235864Y-111289243D01*
X171223909Y-111297699D01*
X171219579Y-111301591D01*
X171193251Y-111342940D01*
X171188511Y-111390452D01*
X171205830Y-111432631D01*
X171213839Y-111441156D01*
X171226792Y-111449421D01*
X171247648Y-111455797D01*
X171280276Y-111460595D01*
X171328542Y-111464124D01*
X171396314Y-111466694D01*
X171487460Y-111468617D01*
X171570791Y-111469787D01*
X171900592Y-111473846D01*
X171909606Y-111646686D01*
X171685742Y-111646686D01*
X171588554Y-111647525D01*
X171517403Y-111651032D01*
X171468291Y-111658695D01*
X171437217Y-111672003D01*
X171420184Y-111692441D01*
X171413192Y-111721499D01*
X171412130Y-111748467D01*
X171415430Y-111781557D01*
X171427883Y-111805940D01*
X171453320Y-111822889D01*
X171495571Y-111833679D01*
X171558466Y-111839584D01*
X171645835Y-111841877D01*
X171693521Y-111842071D01*
X171908106Y-111842071D01*
X171908106Y-112052485D01*
X171577455Y-112052485D01*
X171469070Y-112052636D01*
X171386697Y-112053314D01*
X171326289Y-112054856D01*
X171283799Y-112057599D01*
X171255181Y-112061881D01*
X171236388Y-112068039D01*
X171223374Y-112076409D01*
X171216745Y-112082544D01*
X171194007Y-112118349D01*
X171186686Y-112150177D01*
X171197139Y-112189054D01*
X171216745Y-112217810D01*
X171227205Y-112226863D01*
X171240708Y-112233893D01*
X171260886Y-112239154D01*
X171291371Y-112242901D01*
X171335795Y-112245390D01*
X171397791Y-112246875D01*
X171480991Y-112247611D01*
X171589027Y-112247854D01*
X171645089Y-112247870D01*
X171765144Y-112247763D01*
X171858774Y-112247275D01*
X171929609Y-112246149D01*
X171981281Y-112244131D01*
X172017423Y-112240966D01*
X172041668Y-112236399D01*
X172057647Y-112230176D01*
X172068993Y-112222040D01*
X172073432Y-112217810D01*
X172082217Y-112207696D01*
X172089104Y-112194648D01*
X172094321Y-112175170D01*
X172098099Y-112145764D01*
X172100670Y-112102934D01*
X172102264Y-112043184D01*
X172103111Y-111963017D01*
X172103442Y-111858937D01*
X172103491Y-111762028D01*
X172103446Y-111637923D01*
X172103134Y-111540366D01*
X172102288Y-111465846D01*
X172100642Y-111410851D01*
X172097929Y-111371870D01*
X172093883Y-111345393D01*
X172088237Y-111327906D01*
X172080726Y-111315900D01*
X172071082Y-111305863D01*
X172068706Y-111303626D01*
X172057175Y-111293719D01*
X172043778Y-111286048D01*
X172024796Y-111280326D01*
X171996515Y-111276268D01*
X171955218Y-111273588D01*
X171897188Y-111272002D01*
X171818709Y-111271224D01*
X171716066Y-111270968D01*
X171643196Y-111270946D01*
X171524430Y-111271052D01*
G36*
X170164988Y-111272657D02*
X170065383Y-111279620D01*
X169972744Y-111290495D01*
X169892458Y-111304874D01*
X169829908Y-111322346D01*
X169790481Y-111342502D01*
X169784429Y-111348435D01*
X169763384Y-111394475D01*
X169769766Y-111441740D01*
X169802407Y-111482178D01*
X169803964Y-111483337D01*
X169823163Y-111495797D01*
X169843205Y-111502349D01*
X169871160Y-111503144D01*
X169914099Y-111498336D01*
X169979091Y-111488075D01*
X169984319Y-111487211D01*
X170081161Y-111475314D01*
X170185644Y-111469445D01*
X170290435Y-111469388D01*
X170388202Y-111474927D01*
X170471612Y-111485845D01*
X170533333Y-111501925D01*
X170537388Y-111503541D01*
X170582164Y-111528629D01*
X170597896Y-111554018D01*
X170585580Y-111578987D01*
X170546215Y-111602816D01*
X170480798Y-111624782D01*
X170390326Y-111644166D01*
X170330000Y-111653498D01*
X170204600Y-111671449D01*
X170104865Y-111687859D01*
X170026546Y-111704148D01*
X169965393Y-111721738D01*
X169917159Y-111742049D01*
X169877595Y-111766503D01*
X169842452Y-111796520D01*
X169814211Y-111825996D01*
X169780708Y-111867067D01*
X169764219Y-111902382D01*
X169759063Y-111945893D01*
X169758876Y-111961828D01*
X169762748Y-112014705D01*
X169778227Y-112054043D01*
X169805015Y-112088960D01*
X169859459Y-112142334D01*
X169920170Y-112183038D01*
X169991658Y-112212400D01*
X170078436Y-112231747D01*
X170185014Y-112242406D01*
X170315903Y-112245705D01*
X170337515Y-112245649D01*
X170424798Y-112243840D01*
X170511359Y-112239729D01*
X170587762Y-112233906D01*
X170644570Y-112226961D01*
X170649164Y-112226164D01*
X170705645Y-112212784D01*
X170753552Y-112195882D01*
X170780673Y-112180431D01*
X170805911Y-112139666D01*
X170807669Y-112092198D01*
X170785912Y-112049895D01*
X170781044Y-112045112D01*
X170760922Y-112030899D01*
X170735758Y-112024776D01*
X170696813Y-112025818D01*
X170649535Y-112031234D01*
X170596705Y-112036073D01*
X170522648Y-112040155D01*
X170436191Y-112043118D01*
X170346163Y-112044597D01*
X170322485Y-112044694D01*
X170232122Y-112044330D01*
X170165989Y-112042576D01*
X170118267Y-112038823D01*
X170083138Y-112032463D01*
X170054782Y-112022887D01*
X170037741Y-112014911D01*
X170000296Y-111992765D01*
X169976421Y-111972708D01*
X169972932Y-111967023D01*
X169980293Y-111943545D01*
X170015287Y-111920817D01*
X170075488Y-111899870D01*
X170158471Y-111881736D01*
X170182920Y-111877697D01*
X170310622Y-111857639D01*
X170412540Y-111840874D01*
X170492606Y-111826183D01*
X170554754Y-111812348D01*
X170602918Y-111798151D01*
X170641032Y-111782373D01*
X170673030Y-111763796D01*
X170702844Y-111741202D01*
X170734410Y-111713373D01*
X170745032Y-111703616D01*
X170782273Y-111667202D01*
X170801987Y-111638352D01*
X170809699Y-111605338D01*
X170810947Y-111563735D01*
X170797215Y-111482151D01*
X170756178Y-111412834D01*
X170688070Y-111356008D01*
X170593127Y-111311897D01*
X170525384Y-111292112D01*
X170451759Y-111279333D01*
X170363561Y-111272104D01*
X170266176Y-111270015D01*
X170164988Y-111272657D01*
X170164988Y-111272657D01*
G37*
X170164988Y-111272657D02*
X170065383Y-111279620D01*
X169972744Y-111290495D01*
X169892458Y-111304874D01*
X169829908Y-111322346D01*
X169790481Y-111342502D01*
X169784429Y-111348435D01*
X169763384Y-111394475D01*
X169769766Y-111441740D01*
X169802407Y-111482178D01*
X169803964Y-111483337D01*
X169823163Y-111495797D01*
X169843205Y-111502349D01*
X169871160Y-111503144D01*
X169914099Y-111498336D01*
X169979091Y-111488075D01*
X169984319Y-111487211D01*
X170081161Y-111475314D01*
X170185644Y-111469445D01*
X170290435Y-111469388D01*
X170388202Y-111474927D01*
X170471612Y-111485845D01*
X170533333Y-111501925D01*
X170537388Y-111503541D01*
X170582164Y-111528629D01*
X170597896Y-111554018D01*
X170585580Y-111578987D01*
X170546215Y-111602816D01*
X170480798Y-111624782D01*
X170390326Y-111644166D01*
X170330000Y-111653498D01*
X170204600Y-111671449D01*
X170104865Y-111687859D01*
X170026546Y-111704148D01*
X169965393Y-111721738D01*
X169917159Y-111742049D01*
X169877595Y-111766503D01*
X169842452Y-111796520D01*
X169814211Y-111825996D01*
X169780708Y-111867067D01*
X169764219Y-111902382D01*
X169759063Y-111945893D01*
X169758876Y-111961828D01*
X169762748Y-112014705D01*
X169778227Y-112054043D01*
X169805015Y-112088960D01*
X169859459Y-112142334D01*
X169920170Y-112183038D01*
X169991658Y-112212400D01*
X170078436Y-112231747D01*
X170185014Y-112242406D01*
X170315903Y-112245705D01*
X170337515Y-112245649D01*
X170424798Y-112243840D01*
X170511359Y-112239729D01*
X170587762Y-112233906D01*
X170644570Y-112226961D01*
X170649164Y-112226164D01*
X170705645Y-112212784D01*
X170753552Y-112195882D01*
X170780673Y-112180431D01*
X170805911Y-112139666D01*
X170807669Y-112092198D01*
X170785912Y-112049895D01*
X170781044Y-112045112D01*
X170760922Y-112030899D01*
X170735758Y-112024776D01*
X170696813Y-112025818D01*
X170649535Y-112031234D01*
X170596705Y-112036073D01*
X170522648Y-112040155D01*
X170436191Y-112043118D01*
X170346163Y-112044597D01*
X170322485Y-112044694D01*
X170232122Y-112044330D01*
X170165989Y-112042576D01*
X170118267Y-112038823D01*
X170083138Y-112032463D01*
X170054782Y-112022887D01*
X170037741Y-112014911D01*
X170000296Y-111992765D01*
X169976421Y-111972708D01*
X169972932Y-111967023D01*
X169980293Y-111943545D01*
X170015287Y-111920817D01*
X170075488Y-111899870D01*
X170158471Y-111881736D01*
X170182920Y-111877697D01*
X170310622Y-111857639D01*
X170412540Y-111840874D01*
X170492606Y-111826183D01*
X170554754Y-111812348D01*
X170602918Y-111798151D01*
X170641032Y-111782373D01*
X170673030Y-111763796D01*
X170702844Y-111741202D01*
X170734410Y-111713373D01*
X170745032Y-111703616D01*
X170782273Y-111667202D01*
X170801987Y-111638352D01*
X170809699Y-111605338D01*
X170810947Y-111563735D01*
X170797215Y-111482151D01*
X170756178Y-111412834D01*
X170688070Y-111356008D01*
X170593127Y-111311897D01*
X170525384Y-111292112D01*
X170451759Y-111279333D01*
X170363561Y-111272104D01*
X170266176Y-111270015D01*
X170164988Y-111272657D01*
G36*
X169142663Y-111301006D02*
X169133901Y-111311088D01*
X169127028Y-111324095D01*
X169121815Y-111343511D01*
X169118034Y-111372820D01*
X169115456Y-111415507D01*
X169113853Y-111475055D01*
X169112995Y-111554950D01*
X169112656Y-111658676D01*
X169112603Y-111759408D01*
X169112696Y-111884352D01*
X169113127Y-111982721D01*
X169114123Y-112058001D01*
X169115915Y-112113674D01*
X169118729Y-112153226D01*
X169122796Y-112180141D01*
X169128342Y-112197903D01*
X169135597Y-112209997D01*
X169142663Y-112217810D01*
X169186602Y-112244012D01*
X169233420Y-112241661D01*
X169275309Y-112213084D01*
X169284934Y-112201927D01*
X169292455Y-112188983D01*
X169298134Y-112170672D01*
X169302227Y-112143418D01*
X169304995Y-112103640D01*
X169306696Y-112047762D01*
X169307589Y-111972204D01*
X169307933Y-111873388D01*
X169307988Y-111761514D01*
X169307988Y-111344728D01*
X169271097Y-111307837D01*
X169225625Y-111276800D01*
X169181516Y-111275681D01*
X169142663Y-111301006D01*
X169142663Y-111301006D01*
G37*
X169142663Y-111301006D02*
X169133901Y-111311088D01*
X169127028Y-111324095D01*
X169121815Y-111343511D01*
X169118034Y-111372820D01*
X169115456Y-111415507D01*
X169113853Y-111475055D01*
X169112995Y-111554950D01*
X169112656Y-111658676D01*
X169112603Y-111759408D01*
X169112696Y-111884352D01*
X169113127Y-111982721D01*
X169114123Y-112058001D01*
X169115915Y-112113674D01*
X169118729Y-112153226D01*
X169122796Y-112180141D01*
X169128342Y-112197903D01*
X169135597Y-112209997D01*
X169142663Y-112217810D01*
X169186602Y-112244012D01*
X169233420Y-112241661D01*
X169275309Y-112213084D01*
X169284934Y-112201927D01*
X169292455Y-112188983D01*
X169298134Y-112170672D01*
X169302227Y-112143418D01*
X169304995Y-112103640D01*
X169306696Y-112047762D01*
X169307589Y-111972204D01*
X169307933Y-111873388D01*
X169307988Y-111761514D01*
X169307988Y-111344728D01*
X169271097Y-111307837D01*
X169225625Y-111276800D01*
X169181516Y-111275681D01*
X169142663Y-111301006D01*
G36*
X167846262Y-111278312D02*
X167755041Y-111293618D01*
X167684982Y-111317411D01*
X167639404Y-111348740D01*
X167626984Y-111366614D01*
X167614354Y-111408185D01*
X167622853Y-111445792D01*
X167649685Y-111481455D01*
X167691376Y-111498139D01*
X167751870Y-111496784D01*
X167798659Y-111487745D01*
X167902628Y-111470523D01*
X168008880Y-111468887D01*
X168127809Y-111482865D01*
X168160660Y-111488788D01*
X168271245Y-111519967D01*
X168357759Y-111566346D01*
X168419253Y-111627135D01*
X168454778Y-111701544D01*
X168462125Y-111740014D01*
X168457316Y-111818063D01*
X168426266Y-111887117D01*
X168371806Y-111945829D01*
X168296764Y-111992853D01*
X168203970Y-112026843D01*
X168096252Y-112046454D01*
X167976441Y-112050341D01*
X167847365Y-112037156D01*
X167840077Y-112035912D01*
X167788738Y-112026350D01*
X167760272Y-112017114D01*
X167747934Y-112003409D01*
X167744978Y-111980442D01*
X167744911Y-111968279D01*
X167744911Y-111917219D01*
X167836077Y-111917219D01*
X167916582Y-111911704D01*
X167971521Y-111894130D01*
X168003486Y-111862953D01*
X168015072Y-111816630D01*
X168015213Y-111810584D01*
X168008435Y-111770989D01*
X167985191Y-111742717D01*
X167941930Y-111724007D01*
X167875101Y-111713100D01*
X167810370Y-111709090D01*
X167716287Y-111706789D01*
X167648044Y-111710300D01*
X167601501Y-111723255D01*
X167572518Y-111749286D01*
X167556955Y-111792027D01*
X167550671Y-111855110D01*
X167549526Y-111937964D01*
X167551402Y-112030446D01*
X167557046Y-112093354D01*
X167566482Y-112126939D01*
X167568313Y-112129569D01*
X167620125Y-112171534D01*
X167696090Y-112204768D01*
X167791392Y-112228559D01*
X167901216Y-112242199D01*
X168020746Y-112244978D01*
X168145166Y-112236185D01*
X168218343Y-112225385D01*
X168333120Y-112192898D01*
X168439796Y-112139786D01*
X168529111Y-112070855D01*
X168542686Y-112057078D01*
X168586792Y-111999158D01*
X168626589Y-111927376D01*
X168657427Y-111852119D01*
X168674657Y-111783777D01*
X168676734Y-111757529D01*
X168667893Y-111702777D01*
X168644395Y-111634655D01*
X168610749Y-111562950D01*
X168571464Y-111497449D01*
X168536755Y-111453698D01*
X168455603Y-111388619D01*
X168350698Y-111336821D01*
X168225800Y-111299474D01*
X168084667Y-111277753D01*
X167955325Y-111272445D01*
X167846262Y-111278312D01*
X167846262Y-111278312D01*
G37*
X167846262Y-111278312D02*
X167755041Y-111293618D01*
X167684982Y-111317411D01*
X167639404Y-111348740D01*
X167626984Y-111366614D01*
X167614354Y-111408185D01*
X167622853Y-111445792D01*
X167649685Y-111481455D01*
X167691376Y-111498139D01*
X167751870Y-111496784D01*
X167798659Y-111487745D01*
X167902628Y-111470523D01*
X168008880Y-111468887D01*
X168127809Y-111482865D01*
X168160660Y-111488788D01*
X168271245Y-111519967D01*
X168357759Y-111566346D01*
X168419253Y-111627135D01*
X168454778Y-111701544D01*
X168462125Y-111740014D01*
X168457316Y-111818063D01*
X168426266Y-111887117D01*
X168371806Y-111945829D01*
X168296764Y-111992853D01*
X168203970Y-112026843D01*
X168096252Y-112046454D01*
X167976441Y-112050341D01*
X167847365Y-112037156D01*
X167840077Y-112035912D01*
X167788738Y-112026350D01*
X167760272Y-112017114D01*
X167747934Y-112003409D01*
X167744978Y-111980442D01*
X167744911Y-111968279D01*
X167744911Y-111917219D01*
X167836077Y-111917219D01*
X167916582Y-111911704D01*
X167971521Y-111894130D01*
X168003486Y-111862953D01*
X168015072Y-111816630D01*
X168015213Y-111810584D01*
X168008435Y-111770989D01*
X167985191Y-111742717D01*
X167941930Y-111724007D01*
X167875101Y-111713100D01*
X167810370Y-111709090D01*
X167716287Y-111706789D01*
X167648044Y-111710300D01*
X167601501Y-111723255D01*
X167572518Y-111749286D01*
X167556955Y-111792027D01*
X167550671Y-111855110D01*
X167549526Y-111937964D01*
X167551402Y-112030446D01*
X167557046Y-112093354D01*
X167566482Y-112126939D01*
X167568313Y-112129569D01*
X167620125Y-112171534D01*
X167696090Y-112204768D01*
X167791392Y-112228559D01*
X167901216Y-112242199D01*
X168020746Y-112244978D01*
X168145166Y-112236185D01*
X168218343Y-112225385D01*
X168333120Y-112192898D01*
X168439796Y-112139786D01*
X168529111Y-112070855D01*
X168542686Y-112057078D01*
X168586792Y-111999158D01*
X168626589Y-111927376D01*
X168657427Y-111852119D01*
X168674657Y-111783777D01*
X168676734Y-111757529D01*
X168667893Y-111702777D01*
X168644395Y-111634655D01*
X168610749Y-111562950D01*
X168571464Y-111497449D01*
X168536755Y-111453698D01*
X168455603Y-111388619D01*
X168350698Y-111336821D01*
X168225800Y-111299474D01*
X168084667Y-111277753D01*
X167955325Y-111272445D01*
X167846262Y-111278312D01*
G36*
X166980920Y-111276780D02*
X166949545Y-111295185D01*
X166908522Y-111325285D01*
X166855724Y-111368496D01*
X166789025Y-111426238D01*
X166706299Y-111499928D01*
X166605420Y-111590984D01*
X166489941Y-111695674D01*
X166249467Y-111913743D01*
X166241952Y-111621044D01*
X166239239Y-111520290D01*
X166236622Y-111445258D01*
X166233520Y-111391620D01*
X166229356Y-111355046D01*
X166223551Y-111331207D01*
X166215524Y-111315774D01*
X166204697Y-111304418D01*
X166198956Y-111299646D01*
X166152983Y-111274413D01*
X166109237Y-111278102D01*
X166074535Y-111299659D01*
X166039053Y-111328371D01*
X166034640Y-111747686D01*
X166033419Y-111871007D01*
X166032797Y-111967884D01*
X166032990Y-112041930D01*
X166034214Y-112096757D01*
X166036684Y-112135979D01*
X166040614Y-112163209D01*
X166046220Y-112182059D01*
X166053718Y-112196141D01*
X166062033Y-112207435D01*
X166080022Y-112228382D01*
X166097921Y-112242267D01*
X166118212Y-112247596D01*
X166143378Y-112242876D01*
X166175900Y-112226613D01*
X166218263Y-112197313D01*
X166272948Y-112153482D01*
X166342437Y-112093627D01*
X166429215Y-112016254D01*
X166527515Y-111927350D01*
X166880710Y-111606971D01*
X166888225Y-111898713D01*
X166890943Y-111999283D01*
X166893567Y-112074140D01*
X166896679Y-112127620D01*
X166900862Y-112164062D01*
X166906697Y-112187804D01*
X166914766Y-112203182D01*
X166925651Y-112214536D01*
X166931221Y-112219162D01*
X166980456Y-112244578D01*
X167026977Y-112240745D01*
X167067489Y-112208269D01*
X167076756Y-112195203D01*
X167083979Y-112179945D01*
X167089412Y-112158832D01*
X167093308Y-112128205D01*
X167095921Y-112084402D01*
X167097507Y-112023763D01*
X167098318Y-111942627D01*
X167098608Y-111837333D01*
X167098639Y-111759408D01*
X167098541Y-111637524D01*
X167098079Y-111542039D01*
X167096997Y-111469291D01*
X167095043Y-111415619D01*
X167091962Y-111377363D01*
X167087500Y-111350863D01*
X167081403Y-111332456D01*
X167073417Y-111318484D01*
X167067489Y-111310547D01*
X167052462Y-111291748D01*
X167038418Y-111277553D01*
X167023230Y-111269382D01*
X167004773Y-111268652D01*
X166980920Y-111276780D01*
X166980920Y-111276780D01*
G37*
X166980920Y-111276780D02*
X166949545Y-111295185D01*
X166908522Y-111325285D01*
X166855724Y-111368496D01*
X166789025Y-111426238D01*
X166706299Y-111499928D01*
X166605420Y-111590984D01*
X166489941Y-111695674D01*
X166249467Y-111913743D01*
X166241952Y-111621044D01*
X166239239Y-111520290D01*
X166236622Y-111445258D01*
X166233520Y-111391620D01*
X166229356Y-111355046D01*
X166223551Y-111331207D01*
X166215524Y-111315774D01*
X166204697Y-111304418D01*
X166198956Y-111299646D01*
X166152983Y-111274413D01*
X166109237Y-111278102D01*
X166074535Y-111299659D01*
X166039053Y-111328371D01*
X166034640Y-111747686D01*
X166033419Y-111871007D01*
X166032797Y-111967884D01*
X166032990Y-112041930D01*
X166034214Y-112096757D01*
X166036684Y-112135979D01*
X166040614Y-112163209D01*
X166046220Y-112182059D01*
X166053718Y-112196141D01*
X166062033Y-112207435D01*
X166080022Y-112228382D01*
X166097921Y-112242267D01*
X166118212Y-112247596D01*
X166143378Y-112242876D01*
X166175900Y-112226613D01*
X166218263Y-112197313D01*
X166272948Y-112153482D01*
X166342437Y-112093627D01*
X166429215Y-112016254D01*
X166527515Y-111927350D01*
X166880710Y-111606971D01*
X166888225Y-111898713D01*
X166890943Y-111999283D01*
X166893567Y-112074140D01*
X166896679Y-112127620D01*
X166900862Y-112164062D01*
X166906697Y-112187804D01*
X166914766Y-112203182D01*
X166925651Y-112214536D01*
X166931221Y-112219162D01*
X166980456Y-112244578D01*
X167026977Y-112240745D01*
X167067489Y-112208269D01*
X167076756Y-112195203D01*
X167083979Y-112179945D01*
X167089412Y-112158832D01*
X167093308Y-112128205D01*
X167095921Y-112084402D01*
X167097507Y-112023763D01*
X167098318Y-111942627D01*
X167098608Y-111837333D01*
X167098639Y-111759408D01*
X167098541Y-111637524D01*
X167098079Y-111542039D01*
X167096997Y-111469291D01*
X167095043Y-111415619D01*
X167091962Y-111377363D01*
X167087500Y-111350863D01*
X167081403Y-111332456D01*
X167073417Y-111318484D01*
X167067489Y-111310547D01*
X167052462Y-111291748D01*
X167038418Y-111277553D01*
X167023230Y-111269382D01*
X167004773Y-111268652D01*
X166980920Y-111276780D01*
G36*
X164943330Y-111271203D02*
X164841669Y-111272420D01*
X164763764Y-111275266D01*
X164706465Y-111280410D01*
X164666619Y-111288520D01*
X164641078Y-111300267D01*
X164626689Y-111316318D01*
X164620301Y-111337344D01*
X164618765Y-111364012D01*
X164618757Y-111367162D01*
X164620091Y-111397326D01*
X164626395Y-111420639D01*
X164641124Y-111438042D01*
X164667731Y-111450476D01*
X164709672Y-111458881D01*
X164770400Y-111464201D01*
X164853370Y-111467375D01*
X164962035Y-111469345D01*
X164995341Y-111469781D01*
X165317633Y-111473846D01*
X165322140Y-111560266D01*
X165326648Y-111646686D01*
X165102783Y-111646686D01*
X165015325Y-111647009D01*
X164952877Y-111648373D01*
X164910392Y-111651375D01*
X164882823Y-111656609D01*
X164865124Y-111664671D01*
X164852249Y-111676156D01*
X164852166Y-111676247D01*
X164828816Y-111721007D01*
X164829660Y-111769383D01*
X164854167Y-111810622D01*
X164859017Y-111814861D01*
X164876231Y-111825785D01*
X164899820Y-111833385D01*
X164935039Y-111838233D01*
X164987146Y-111840902D01*
X165061396Y-111841964D01*
X165108884Y-111842071D01*
X165325148Y-111842071D01*
X165325148Y-112052485D01*
X164996826Y-112052485D01*
X164888428Y-112052675D01*
X164806111Y-112053450D01*
X164745897Y-112055120D01*
X164703811Y-112057994D01*
X164675875Y-112062383D01*
X164658112Y-112068595D01*
X164646546Y-112076940D01*
X164643631Y-112079970D01*
X164622110Y-112121970D01*
X164620536Y-112169750D01*
X164638191Y-112211178D01*
X164652161Y-112224473D01*
X164666692Y-112231792D01*
X164689208Y-112237455D01*
X164723270Y-112241659D01*
X164772439Y-112244604D01*
X164840278Y-112246487D01*
X164930348Y-112247506D01*
X165046209Y-112247861D01*
X165072403Y-112247870D01*
X165190207Y-112247792D01*
X165281650Y-112247367D01*
X165350432Y-112246302D01*
X165400250Y-112244305D01*
X165434806Y-112241086D01*
X165457796Y-112236352D01*
X165472920Y-112229813D01*
X165483877Y-112221177D01*
X165489888Y-112214976D01*
X165498936Y-112203993D01*
X165506004Y-112190388D01*
X165511337Y-112170592D01*
X165515178Y-112141038D01*
X165517771Y-112098157D01*
X165519359Y-112038381D01*
X165520185Y-111958143D01*
X165520494Y-111853875D01*
X165520532Y-111766116D01*
X165520438Y-111643144D01*
X165519989Y-111546605D01*
X165518938Y-111472875D01*
X165517036Y-111418326D01*
X165514037Y-111379335D01*
X165509691Y-111352275D01*
X165503752Y-111333520D01*
X165495971Y-111319446D01*
X165489382Y-111310547D01*
X165458232Y-111270946D01*
X165071898Y-111270946D01*
X164943330Y-111271203D01*
X164943330Y-111271203D01*
G37*
X164943330Y-111271203D02*
X164841669Y-111272420D01*
X164763764Y-111275266D01*
X164706465Y-111280410D01*
X164666619Y-111288520D01*
X164641078Y-111300267D01*
X164626689Y-111316318D01*
X164620301Y-111337344D01*
X164618765Y-111364012D01*
X164618757Y-111367162D01*
X164620091Y-111397326D01*
X164626395Y-111420639D01*
X164641124Y-111438042D01*
X164667731Y-111450476D01*
X164709672Y-111458881D01*
X164770400Y-111464201D01*
X164853370Y-111467375D01*
X164962035Y-111469345D01*
X164995341Y-111469781D01*
X165317633Y-111473846D01*
X165322140Y-111560266D01*
X165326648Y-111646686D01*
X165102783Y-111646686D01*
X165015325Y-111647009D01*
X164952877Y-111648373D01*
X164910392Y-111651375D01*
X164882823Y-111656609D01*
X164865124Y-111664671D01*
X164852249Y-111676156D01*
X164852166Y-111676247D01*
X164828816Y-111721007D01*
X164829660Y-111769383D01*
X164854167Y-111810622D01*
X164859017Y-111814861D01*
X164876231Y-111825785D01*
X164899820Y-111833385D01*
X164935039Y-111838233D01*
X164987146Y-111840902D01*
X165061396Y-111841964D01*
X165108884Y-111842071D01*
X165325148Y-111842071D01*
X165325148Y-112052485D01*
X164996826Y-112052485D01*
X164888428Y-112052675D01*
X164806111Y-112053450D01*
X164745897Y-112055120D01*
X164703811Y-112057994D01*
X164675875Y-112062383D01*
X164658112Y-112068595D01*
X164646546Y-112076940D01*
X164643631Y-112079970D01*
X164622110Y-112121970D01*
X164620536Y-112169750D01*
X164638191Y-112211178D01*
X164652161Y-112224473D01*
X164666692Y-112231792D01*
X164689208Y-112237455D01*
X164723270Y-112241659D01*
X164772439Y-112244604D01*
X164840278Y-112246487D01*
X164930348Y-112247506D01*
X165046209Y-112247861D01*
X165072403Y-112247870D01*
X165190207Y-112247792D01*
X165281650Y-112247367D01*
X165350432Y-112246302D01*
X165400250Y-112244305D01*
X165434806Y-112241086D01*
X165457796Y-112236352D01*
X165472920Y-112229813D01*
X165483877Y-112221177D01*
X165489888Y-112214976D01*
X165498936Y-112203993D01*
X165506004Y-112190388D01*
X165511337Y-112170592D01*
X165515178Y-112141038D01*
X165517771Y-112098157D01*
X165519359Y-112038381D01*
X165520185Y-111958143D01*
X165520494Y-111853875D01*
X165520532Y-111766116D01*
X165520438Y-111643144D01*
X165519989Y-111546605D01*
X165518938Y-111472875D01*
X165517036Y-111418326D01*
X165514037Y-111379335D01*
X165509691Y-111352275D01*
X165503752Y-111333520D01*
X165495971Y-111319446D01*
X165489382Y-111310547D01*
X165458232Y-111270946D01*
X165071898Y-111270946D01*
X164943330Y-111271203D01*
G36*
X163894263Y-111271223D02*
X163722545Y-111277029D01*
X163576491Y-111294637D01*
X163453693Y-111325099D01*
X163351743Y-111369471D01*
X163268232Y-111428807D01*
X163200753Y-111504160D01*
X163146897Y-111596586D01*
X163145838Y-111598840D01*
X163113697Y-111681560D01*
X163102245Y-111754820D01*
X163111526Y-111828548D01*
X163141585Y-111912671D01*
X163147285Y-111925473D01*
X163186161Y-112000398D01*
X163229851Y-112058293D01*
X163286240Y-112107508D01*
X163363208Y-112156393D01*
X163367680Y-112158945D01*
X163434683Y-112191131D01*
X163510415Y-112215168D01*
X163599742Y-112231887D01*
X163707531Y-112242115D01*
X163838648Y-112246682D01*
X163884974Y-112247079D01*
X164105570Y-112247870D01*
X164136720Y-112208269D01*
X164145960Y-112195247D01*
X164153168Y-112180040D01*
X164158596Y-112159002D01*
X164162495Y-112128486D01*
X164165117Y-112084847D01*
X164165972Y-112052485D01*
X163957455Y-112052485D01*
X163832464Y-112052485D01*
X163759323Y-112050346D01*
X163684239Y-112044717D01*
X163622616Y-112036779D01*
X163618897Y-112036111D01*
X163509447Y-112006748D01*
X163424552Y-111962633D01*
X163361528Y-111901719D01*
X163317686Y-111821960D01*
X163310063Y-111800820D01*
X163302590Y-111767898D01*
X163305825Y-111735372D01*
X163321567Y-111692100D01*
X163331056Y-111670843D01*
X163362129Y-111614356D01*
X163399567Y-111574727D01*
X163440759Y-111547130D01*
X163523270Y-111511218D01*
X163628867Y-111485204D01*
X163751882Y-111470224D01*
X163840976Y-111466928D01*
X163957455Y-111466331D01*
X163957455Y-112052485D01*
X164165972Y-112052485D01*
X164166714Y-112024436D01*
X164167536Y-111943608D01*
X164167836Y-111838717D01*
X164167870Y-111756698D01*
X164167870Y-111344728D01*
X164130979Y-111307837D01*
X164114606Y-111292884D01*
X164096903Y-111282644D01*
X164072181Y-111276237D01*
X164034752Y-111272783D01*
X163978927Y-111271403D01*
X163899018Y-111271217D01*
X163894263Y-111271223D01*
X163894263Y-111271223D01*
G37*
X163894263Y-111271223D02*
X163722545Y-111277029D01*
X163576491Y-111294637D01*
X163453693Y-111325099D01*
X163351743Y-111369471D01*
X163268232Y-111428807D01*
X163200753Y-111504160D01*
X163146897Y-111596586D01*
X163145838Y-111598840D01*
X163113697Y-111681560D01*
X163102245Y-111754820D01*
X163111526Y-111828548D01*
X163141585Y-111912671D01*
X163147285Y-111925473D01*
X163186161Y-112000398D01*
X163229851Y-112058293D01*
X163286240Y-112107508D01*
X163363208Y-112156393D01*
X163367680Y-112158945D01*
X163434683Y-112191131D01*
X163510415Y-112215168D01*
X163599742Y-112231887D01*
X163707531Y-112242115D01*
X163838648Y-112246682D01*
X163884974Y-112247079D01*
X164105570Y-112247870D01*
X164136720Y-112208269D01*
X164145960Y-112195247D01*
X164153168Y-112180040D01*
X164158596Y-112159002D01*
X164162495Y-112128486D01*
X164165117Y-112084847D01*
X164165972Y-112052485D01*
X163957455Y-112052485D01*
X163832464Y-112052485D01*
X163759323Y-112050346D01*
X163684239Y-112044717D01*
X163622616Y-112036779D01*
X163618897Y-112036111D01*
X163509447Y-112006748D01*
X163424552Y-111962633D01*
X163361528Y-111901719D01*
X163317686Y-111821960D01*
X163310063Y-111800820D01*
X163302590Y-111767898D01*
X163305825Y-111735372D01*
X163321567Y-111692100D01*
X163331056Y-111670843D01*
X163362129Y-111614356D01*
X163399567Y-111574727D01*
X163440759Y-111547130D01*
X163523270Y-111511218D01*
X163628867Y-111485204D01*
X163751882Y-111470224D01*
X163840976Y-111466928D01*
X163957455Y-111466331D01*
X163957455Y-112052485D01*
X164165972Y-112052485D01*
X164166714Y-112024436D01*
X164167536Y-111943608D01*
X164167836Y-111838717D01*
X164167870Y-111756698D01*
X164167870Y-111344728D01*
X164130979Y-111307837D01*
X164114606Y-111292884D01*
X164096903Y-111282644D01*
X164072181Y-111276237D01*
X164034752Y-111272783D01*
X163978927Y-111271403D01*
X163899018Y-111271217D01*
X163894263Y-111271223D01*
G36*
X160264499Y-111273566D02*
X160238418Y-111282886D01*
X160237412Y-111283342D01*
X160201994Y-111310370D01*
X160182480Y-111338172D01*
X160178662Y-111351208D01*
X160178851Y-111368528D01*
X160184224Y-111393203D01*
X160195958Y-111428300D01*
X160215233Y-111476889D01*
X160243224Y-111542038D01*
X160281110Y-111626817D01*
X160330068Y-111734295D01*
X160357015Y-111793039D01*
X160405676Y-111897909D01*
X160451356Y-111994350D01*
X160492312Y-112078834D01*
X160526800Y-112147836D01*
X160553077Y-112197830D01*
X160569400Y-112225290D01*
X160572630Y-112229083D01*
X160613957Y-112245816D01*
X160660637Y-112243575D01*
X160698076Y-112223223D01*
X160699602Y-112221568D01*
X160714495Y-112199022D01*
X160739477Y-112155107D01*
X160771467Y-112095476D01*
X160807386Y-112025782D01*
X160820294Y-112000099D01*
X160917732Y-111804933D01*
X161023940Y-112016943D01*
X161061849Y-112090197D01*
X161097019Y-112153726D01*
X161126578Y-112202667D01*
X161147652Y-112232158D01*
X161154794Y-112238412D01*
X161210308Y-112246881D01*
X161256117Y-112229083D01*
X161269592Y-112210061D01*
X161292910Y-112167785D01*
X161324169Y-112106416D01*
X161361466Y-112030112D01*
X161402900Y-111943035D01*
X161446568Y-111849343D01*
X161490568Y-111753197D01*
X161532998Y-111658757D01*
X161571956Y-111570181D01*
X161605539Y-111491632D01*
X161631845Y-111427267D01*
X161648972Y-111381247D01*
X161655017Y-111357733D01*
X161654955Y-111356881D01*
X161640246Y-111327292D01*
X161610844Y-111297156D01*
X161609113Y-111295844D01*
X161572976Y-111275418D01*
X161539552Y-111275616D01*
X161527024Y-111279467D01*
X161511759Y-111287789D01*
X161495548Y-111304161D01*
X161476447Y-111331978D01*
X161452511Y-111374636D01*
X161421795Y-111435531D01*
X161382355Y-111518061D01*
X161346788Y-111594243D01*
X161305869Y-111682550D01*
X161269202Y-111761962D01*
X161238692Y-111828332D01*
X161216244Y-111877511D01*
X161203763Y-111905349D01*
X161201943Y-111909704D01*
X161193756Y-111902585D01*
X161174941Y-111872777D01*
X161148000Y-111824632D01*
X161115438Y-111762499D01*
X161102480Y-111736864D01*
X161058586Y-111650301D01*
X161024735Y-111587261D01*
X160998149Y-111544078D01*
X160976051Y-111517088D01*
X160955662Y-111502624D01*
X160934206Y-111497023D01*
X160920223Y-111496390D01*
X160895558Y-111498576D01*
X160873944Y-111507615D01*
X160852468Y-111527233D01*
X160828216Y-111561153D01*
X160798276Y-111613098D01*
X160759733Y-111686794D01*
X160738468Y-111728716D01*
X160703974Y-111795530D01*
X160673890Y-111850937D01*
X160650869Y-111890263D01*
X160637566Y-111908832D01*
X160635757Y-111909605D01*
X160627166Y-111894991D01*
X160607932Y-111857043D01*
X160579981Y-111799732D01*
X160545239Y-111727032D01*
X160505633Y-111642912D01*
X160486150Y-111601130D01*
X160435466Y-111493299D01*
X160394653Y-111410326D01*
X160361592Y-111349502D01*
X160334165Y-111308121D01*
X160310254Y-111283476D01*
X160287738Y-111272860D01*
X160264499Y-111273566D01*
X160264499Y-111273566D01*
G37*
X160264499Y-111273566D02*
X160238418Y-111282886D01*
X160237412Y-111283342D01*
X160201994Y-111310370D01*
X160182480Y-111338172D01*
X160178662Y-111351208D01*
X160178851Y-111368528D01*
X160184224Y-111393203D01*
X160195958Y-111428300D01*
X160215233Y-111476889D01*
X160243224Y-111542038D01*
X160281110Y-111626817D01*
X160330068Y-111734295D01*
X160357015Y-111793039D01*
X160405676Y-111897909D01*
X160451356Y-111994350D01*
X160492312Y-112078834D01*
X160526800Y-112147836D01*
X160553077Y-112197830D01*
X160569400Y-112225290D01*
X160572630Y-112229083D01*
X160613957Y-112245816D01*
X160660637Y-112243575D01*
X160698076Y-112223223D01*
X160699602Y-112221568D01*
X160714495Y-112199022D01*
X160739477Y-112155107D01*
X160771467Y-112095476D01*
X160807386Y-112025782D01*
X160820294Y-112000099D01*
X160917732Y-111804933D01*
X161023940Y-112016943D01*
X161061849Y-112090197D01*
X161097019Y-112153726D01*
X161126578Y-112202667D01*
X161147652Y-112232158D01*
X161154794Y-112238412D01*
X161210308Y-112246881D01*
X161256117Y-112229083D01*
X161269592Y-112210061D01*
X161292910Y-112167785D01*
X161324169Y-112106416D01*
X161361466Y-112030112D01*
X161402900Y-111943035D01*
X161446568Y-111849343D01*
X161490568Y-111753197D01*
X161532998Y-111658757D01*
X161571956Y-111570181D01*
X161605539Y-111491632D01*
X161631845Y-111427267D01*
X161648972Y-111381247D01*
X161655017Y-111357733D01*
X161654955Y-111356881D01*
X161640246Y-111327292D01*
X161610844Y-111297156D01*
X161609113Y-111295844D01*
X161572976Y-111275418D01*
X161539552Y-111275616D01*
X161527024Y-111279467D01*
X161511759Y-111287789D01*
X161495548Y-111304161D01*
X161476447Y-111331978D01*
X161452511Y-111374636D01*
X161421795Y-111435531D01*
X161382355Y-111518061D01*
X161346788Y-111594243D01*
X161305869Y-111682550D01*
X161269202Y-111761962D01*
X161238692Y-111828332D01*
X161216244Y-111877511D01*
X161203763Y-111905349D01*
X161201943Y-111909704D01*
X161193756Y-111902585D01*
X161174941Y-111872777D01*
X161148000Y-111824632D01*
X161115438Y-111762499D01*
X161102480Y-111736864D01*
X161058586Y-111650301D01*
X161024735Y-111587261D01*
X160998149Y-111544078D01*
X160976051Y-111517088D01*
X160955662Y-111502624D01*
X160934206Y-111497023D01*
X160920223Y-111496390D01*
X160895558Y-111498576D01*
X160873944Y-111507615D01*
X160852468Y-111527233D01*
X160828216Y-111561153D01*
X160798276Y-111613098D01*
X160759733Y-111686794D01*
X160738468Y-111728716D01*
X160703974Y-111795530D01*
X160673890Y-111850937D01*
X160650869Y-111890263D01*
X160637566Y-111908832D01*
X160635757Y-111909605D01*
X160627166Y-111894991D01*
X160607932Y-111857043D01*
X160579981Y-111799732D01*
X160545239Y-111727032D01*
X160505633Y-111642912D01*
X160486150Y-111601130D01*
X160435466Y-111493299D01*
X160394653Y-111410326D01*
X160361592Y-111349502D01*
X160334165Y-111308121D01*
X160310254Y-111283476D01*
X160287738Y-111272860D01*
X160264499Y-111273566D01*
G36*
X159673442Y-111280013D02*
X159641872Y-111299678D01*
X159606390Y-111328409D01*
X159606390Y-111756502D01*
X159606503Y-111881726D01*
X159606987Y-111980383D01*
X159608060Y-112055966D01*
X159609938Y-112111969D01*
X159612840Y-112151883D01*
X159616983Y-112179202D01*
X159622584Y-112197417D01*
X159629861Y-112210022D01*
X159635022Y-112216232D01*
X159676878Y-112243516D01*
X159724541Y-112242403D01*
X159766293Y-112219138D01*
X159801775Y-112190407D01*
X159801775Y-111328409D01*
X159766293Y-111299678D01*
X159732048Y-111278778D01*
X159704083Y-111270946D01*
X159673442Y-111280013D01*
X159673442Y-111280013D01*
G37*
X159673442Y-111280013D02*
X159641872Y-111299678D01*
X159606390Y-111328409D01*
X159606390Y-111756502D01*
X159606503Y-111881726D01*
X159606987Y-111980383D01*
X159608060Y-112055966D01*
X159609938Y-112111969D01*
X159612840Y-112151883D01*
X159616983Y-112179202D01*
X159622584Y-112197417D01*
X159629861Y-112210022D01*
X159635022Y-112216232D01*
X159676878Y-112243516D01*
X159724541Y-112242403D01*
X159766293Y-112219138D01*
X159801775Y-112190407D01*
X159801775Y-111328409D01*
X159766293Y-111299678D01*
X159732048Y-111278778D01*
X159704083Y-111270946D01*
X159673442Y-111280013D01*
G36*
X158642369Y-111271075D02*
X158537581Y-111271579D01*
X158456247Y-111272632D01*
X158395066Y-111274412D01*
X158350735Y-111277093D01*
X158319952Y-111280850D01*
X158299415Y-111285861D01*
X158285821Y-111292299D01*
X158279243Y-111297248D01*
X158245102Y-111340565D01*
X158240972Y-111385539D01*
X158262070Y-111426396D01*
X158275867Y-111442722D01*
X158290714Y-111453854D01*
X158312231Y-111460786D01*
X158346038Y-111464513D01*
X158397754Y-111466030D01*
X158472999Y-111466330D01*
X158487777Y-111466331D01*
X158682071Y-111466331D01*
X158682071Y-111827041D01*
X158682199Y-111940737D01*
X158682780Y-112028221D01*
X158684110Y-112093338D01*
X158686486Y-112139934D01*
X158690202Y-112171855D01*
X158695554Y-112192948D01*
X158702839Y-112207059D01*
X158712130Y-112217810D01*
X158755975Y-112244232D01*
X158801746Y-112242150D01*
X158843256Y-112212005D01*
X158846305Y-112208269D01*
X158856234Y-112194146D01*
X158863798Y-112177622D01*
X158869317Y-112154682D01*
X158873113Y-112121309D01*
X158875504Y-112073491D01*
X158876812Y-112007210D01*
X158877355Y-111918454D01*
X158877455Y-111817499D01*
X158877455Y-111466331D01*
X159062996Y-111466331D01*
X159142619Y-111465792D01*
X159197742Y-111463693D01*
X159233914Y-111459307D01*
X159256684Y-111451912D01*
X159271599Y-111440781D01*
X159273410Y-111438846D01*
X159295188Y-111394593D01*
X159293262Y-111344565D01*
X159268225Y-111301006D01*
X159258542Y-111292556D01*
X159246058Y-111285857D01*
X159227443Y-111280705D01*
X159199369Y-111276897D01*
X159158505Y-111274233D01*
X159101524Y-111272508D01*
X159025094Y-111271520D01*
X158925889Y-111271068D01*
X158800577Y-111270948D01*
X158773913Y-111270946D01*
X158642369Y-111271075D01*
X158642369Y-111271075D01*
G37*
X158642369Y-111271075D02*
X158537581Y-111271579D01*
X158456247Y-111272632D01*
X158395066Y-111274412D01*
X158350735Y-111277093D01*
X158319952Y-111280850D01*
X158299415Y-111285861D01*
X158285821Y-111292299D01*
X158279243Y-111297248D01*
X158245102Y-111340565D01*
X158240972Y-111385539D01*
X158262070Y-111426396D01*
X158275867Y-111442722D01*
X158290714Y-111453854D01*
X158312231Y-111460786D01*
X158346038Y-111464513D01*
X158397754Y-111466030D01*
X158472999Y-111466330D01*
X158487777Y-111466331D01*
X158682071Y-111466331D01*
X158682071Y-111827041D01*
X158682199Y-111940737D01*
X158682780Y-112028221D01*
X158684110Y-112093338D01*
X158686486Y-112139934D01*
X158690202Y-112171855D01*
X158695554Y-112192948D01*
X158702839Y-112207059D01*
X158712130Y-112217810D01*
X158755975Y-112244232D01*
X158801746Y-112242150D01*
X158843256Y-112212005D01*
X158846305Y-112208269D01*
X158856234Y-112194146D01*
X158863798Y-112177622D01*
X158869317Y-112154682D01*
X158873113Y-112121309D01*
X158875504Y-112073491D01*
X158876812Y-112007210D01*
X158877355Y-111918454D01*
X158877455Y-111817499D01*
X158877455Y-111466331D01*
X159062996Y-111466331D01*
X159142619Y-111465792D01*
X159197742Y-111463693D01*
X159233914Y-111459307D01*
X159256684Y-111451912D01*
X159271599Y-111440781D01*
X159273410Y-111438846D01*
X159295188Y-111394593D01*
X159293262Y-111344565D01*
X159268225Y-111301006D01*
X159258542Y-111292556D01*
X159246058Y-111285857D01*
X159227443Y-111280705D01*
X159199369Y-111276897D01*
X159158505Y-111274233D01*
X159101524Y-111272508D01*
X159025094Y-111271520D01*
X158925889Y-111271068D01*
X158800577Y-111270948D01*
X158773913Y-111270946D01*
X158642369Y-111271075D01*
G36*
X156957187Y-111278224D02*
X156915411Y-111307837D01*
X156878521Y-111344728D01*
X156878521Y-111756698D01*
X156878617Y-111879022D01*
X156879074Y-111974934D01*
X156880143Y-112048080D01*
X156882075Y-112102106D01*
X156885123Y-112140659D01*
X156889537Y-112167384D01*
X156895570Y-112185930D01*
X156903472Y-112199941D01*
X156909671Y-112208269D01*
X156950585Y-112240985D01*
X156997564Y-112244536D01*
X157040502Y-112224473D01*
X157054690Y-112212628D01*
X157064174Y-112196894D01*
X157069895Y-112171558D01*
X157072793Y-112130906D01*
X157073808Y-112069224D01*
X157073905Y-112021574D01*
X157073905Y-111842071D01*
X157735207Y-111842071D01*
X157735207Y-112005369D01*
X157735891Y-112080041D01*
X157738627Y-112131360D01*
X157744442Y-112166013D01*
X157754362Y-112190691D01*
X157766357Y-112208269D01*
X157807500Y-112240893D01*
X157854029Y-112244756D01*
X157898573Y-112221568D01*
X157910734Y-112209412D01*
X157919323Y-112193297D01*
X157924988Y-112168196D01*
X157928377Y-112129080D01*
X157930138Y-112070922D01*
X157930918Y-111988694D01*
X157931010Y-111969822D01*
X157931654Y-111814893D01*
X157931986Y-111687210D01*
X157931878Y-111583963D01*
X157931201Y-111502339D01*
X157929828Y-111439528D01*
X157927630Y-111392717D01*
X157924480Y-111359095D01*
X157920248Y-111335851D01*
X157914808Y-111320172D01*
X157908031Y-111309247D01*
X157900532Y-111301006D01*
X157858113Y-111274643D01*
X157813874Y-111278224D01*
X157772098Y-111307837D01*
X157755193Y-111326943D01*
X157744417Y-111348047D01*
X157738405Y-111378104D01*
X157735790Y-111424069D01*
X157735207Y-111492896D01*
X157735207Y-111646686D01*
X157073905Y-111646686D01*
X157073905Y-111488875D01*
X157073230Y-111416172D01*
X157070520Y-111367081D01*
X157064745Y-111335172D01*
X157054877Y-111314014D01*
X157043846Y-111301006D01*
X157001427Y-111274643D01*
X156957187Y-111278224D01*
X156957187Y-111278224D01*
G37*
X156957187Y-111278224D02*
X156915411Y-111307837D01*
X156878521Y-111344728D01*
X156878521Y-111756698D01*
X156878617Y-111879022D01*
X156879074Y-111974934D01*
X156880143Y-112048080D01*
X156882075Y-112102106D01*
X156885123Y-112140659D01*
X156889537Y-112167384D01*
X156895570Y-112185930D01*
X156903472Y-112199941D01*
X156909671Y-112208269D01*
X156950585Y-112240985D01*
X156997564Y-112244536D01*
X157040502Y-112224473D01*
X157054690Y-112212628D01*
X157064174Y-112196894D01*
X157069895Y-112171558D01*
X157072793Y-112130906D01*
X157073808Y-112069224D01*
X157073905Y-112021574D01*
X157073905Y-111842071D01*
X157735207Y-111842071D01*
X157735207Y-112005369D01*
X157735891Y-112080041D01*
X157738627Y-112131360D01*
X157744442Y-112166013D01*
X157754362Y-112190691D01*
X157766357Y-112208269D01*
X157807500Y-112240893D01*
X157854029Y-112244756D01*
X157898573Y-112221568D01*
X157910734Y-112209412D01*
X157919323Y-112193297D01*
X157924988Y-112168196D01*
X157928377Y-112129080D01*
X157930138Y-112070922D01*
X157930918Y-111988694D01*
X157931010Y-111969822D01*
X157931654Y-111814893D01*
X157931986Y-111687210D01*
X157931878Y-111583963D01*
X157931201Y-111502339D01*
X157929828Y-111439528D01*
X157927630Y-111392717D01*
X157924480Y-111359095D01*
X157920248Y-111335851D01*
X157914808Y-111320172D01*
X157908031Y-111309247D01*
X157900532Y-111301006D01*
X157858113Y-111274643D01*
X157813874Y-111278224D01*
X157772098Y-111307837D01*
X157755193Y-111326943D01*
X157744417Y-111348047D01*
X157738405Y-111378104D01*
X157735790Y-111424069D01*
X157735207Y-111492896D01*
X157735207Y-111646686D01*
X157073905Y-111646686D01*
X157073905Y-111488875D01*
X157073230Y-111416172D01*
X157070520Y-111367081D01*
X157064745Y-111335172D01*
X157054877Y-111314014D01*
X157043846Y-111301006D01*
X157001427Y-111274643D01*
X156957187Y-111278224D01*
G36*
X169172722Y-104907024D02*
X169158256Y-105058719D01*
X169116163Y-105202003D01*
X169048393Y-105333807D01*
X168956899Y-105451058D01*
X168843635Y-105550687D01*
X168714510Y-105627729D01*
X168573028Y-105680479D01*
X168430554Y-105705201D01*
X168289896Y-105703684D01*
X168153864Y-105677717D01*
X168025267Y-105629090D01*
X167906914Y-105559593D01*
X167801614Y-105471014D01*
X167712177Y-105365143D01*
X167641412Y-105243770D01*
X167592129Y-105108683D01*
X167567135Y-104961674D01*
X167564556Y-104895244D01*
X167564556Y-104778165D01*
X167495420Y-104778165D01*
X167447081Y-104781953D01*
X167411271Y-104797662D01*
X167375183Y-104829266D01*
X167324083Y-104880367D01*
X167324083Y-107798138D01*
X167324095Y-108147138D01*
X167324138Y-108467332D01*
X167324223Y-108759974D01*
X167324361Y-109026318D01*
X167324562Y-109267617D01*
X167324838Y-109485125D01*
X167325200Y-109680095D01*
X167325658Y-109853780D01*
X167326223Y-110007435D01*
X167326906Y-110142313D01*
X167327717Y-110259668D01*
X167328669Y-110360753D01*
X167329771Y-110446821D01*
X167331035Y-110519127D01*
X167332470Y-110578923D01*
X167334089Y-110627464D01*
X167335902Y-110666003D01*
X167337920Y-110695793D01*
X167340154Y-110718089D01*
X167342614Y-110734143D01*
X167345312Y-110745210D01*
X167348258Y-110752542D01*
X167349699Y-110755005D01*
X167355241Y-110764340D01*
X167359947Y-110772923D01*
X167365045Y-110780784D01*
X167371765Y-110787955D01*
X167381336Y-110794467D01*
X167394986Y-110800353D01*
X167413945Y-110805642D01*
X167439442Y-110810368D01*
X167472705Y-110814560D01*
X167514964Y-110818251D01*
X167567448Y-110821472D01*
X167631386Y-110824254D01*
X167708007Y-110826630D01*
X167798540Y-110828629D01*
X167904214Y-110830284D01*
X168026258Y-110831627D01*
X168165901Y-110832687D01*
X168324372Y-110833498D01*
X168502900Y-110834090D01*
X168702715Y-110834495D01*
X168925045Y-110834744D01*
X169171119Y-110834869D01*
X169442166Y-110834901D01*
X169739416Y-110834871D01*
X170064097Y-110834811D01*
X170417438Y-110834752D01*
X170468541Y-110834746D01*
X170823985Y-110834689D01*
X171150594Y-110834595D01*
X171449592Y-110834455D01*
X171722204Y-110834259D01*
X171969653Y-110833997D01*
X172193164Y-110833660D01*
X172393960Y-110833239D01*
X172573266Y-110832723D01*
X172732307Y-110832104D01*
X172872306Y-110831371D01*
X172994487Y-110830515D01*
X173100075Y-110829526D01*
X173190293Y-110828394D01*
X173266366Y-110827111D01*
X173329519Y-110825666D01*
X173380975Y-110824049D01*
X173421958Y-110822252D01*
X173453692Y-110820265D01*
X173477402Y-110818077D01*
X173494312Y-110815679D01*
X173505646Y-110813063D01*
X173511448Y-110810841D01*
X173522714Y-110806088D01*
X173533058Y-110802578D01*
X173542517Y-110799068D01*
X173551132Y-110794313D01*
X173558942Y-110787069D01*
X173565985Y-110776091D01*
X173572302Y-110760135D01*
X173577931Y-110737955D01*
X173582912Y-110708309D01*
X173587284Y-110669951D01*
X173591086Y-110621637D01*
X173594358Y-110562122D01*
X173597139Y-110490163D01*
X173599467Y-110404513D01*
X173601383Y-110303931D01*
X173602925Y-110187169D01*
X173604134Y-110052985D01*
X173605047Y-109900134D01*
X173605705Y-109727371D01*
X173606146Y-109533452D01*
X173606411Y-109317133D01*
X173606536Y-109077168D01*
X173606564Y-108812314D01*
X173606533Y-108521326D01*
X173606481Y-108202960D01*
X173606449Y-107855970D01*
X173606449Y-107799852D01*
X173606467Y-107449841D01*
X173606501Y-107128636D01*
X173606515Y-106834983D01*
X173606476Y-106567628D01*
X173606351Y-106325317D01*
X173606103Y-106106797D01*
X173605700Y-105910813D01*
X173605107Y-105736113D01*
X173604335Y-105589763D01*
X173201149Y-105589763D01*
X173148174Y-105666775D01*
X173133302Y-105687768D01*
X173119895Y-105706356D01*
X173107876Y-105724120D01*
X173097170Y-105742638D01*
X173087703Y-105763491D01*
X173079397Y-105788257D01*
X173072178Y-105818517D01*
X173065969Y-105855850D01*
X173060696Y-105901835D01*
X173056282Y-105958052D01*
X173052652Y-106026080D01*
X173049730Y-106107500D01*
X173047441Y-106203890D01*
X173045709Y-106316830D01*
X173044458Y-106447899D01*
X173043614Y-106598678D01*
X173043099Y-106770746D01*
X173042839Y-106965681D01*
X173042757Y-107185065D01*
X173042779Y-107430476D01*
X173042828Y-107703494D01*
X173042840Y-107866745D01*
X173042808Y-108155583D01*
X173042763Y-108415943D01*
X173042779Y-108649406D01*
X173042931Y-108857554D01*
X173043294Y-109041969D01*
X173043943Y-109204231D01*
X173044953Y-109345922D01*
X173046399Y-109468624D01*
X173048355Y-109573917D01*
X173050896Y-109663383D01*
X173054097Y-109738603D01*
X173058033Y-109801159D01*
X173062780Y-109852632D01*
X173068410Y-109894603D01*
X173075001Y-109928653D01*
X173082626Y-109956365D01*
X173091360Y-109979318D01*
X173101279Y-109999096D01*
X173112456Y-110017278D01*
X173124967Y-110035446D01*
X173138888Y-110055182D01*
X173146997Y-110067019D01*
X173198618Y-110143728D01*
X172490914Y-110143728D01*
X172326826Y-110143681D01*
X172190367Y-110143481D01*
X172079109Y-110143033D01*
X171990621Y-110142244D01*
X171922476Y-110141020D01*
X171872243Y-110139269D01*
X171837493Y-110136897D01*
X171815798Y-110133810D01*
X171804727Y-110129916D01*
X171801851Y-110125120D01*
X171804741Y-110119330D01*
X171806333Y-110117426D01*
X171839817Y-110068070D01*
X171874296Y-109997773D01*
X171905729Y-109915227D01*
X171916738Y-109880061D01*
X171922884Y-109856175D01*
X171928078Y-109828135D01*
X171932430Y-109793165D01*
X171936048Y-109748489D01*
X171939043Y-109691329D01*
X171941523Y-109618910D01*
X171943598Y-109528455D01*
X171945377Y-109417188D01*
X171946970Y-109282331D01*
X171948486Y-109121109D01*
X171948988Y-109061597D01*
X171950342Y-108894976D01*
X171951352Y-108756026D01*
X171951941Y-108642361D01*
X171952031Y-108551596D01*
X171951544Y-108481344D01*
X171950403Y-108429219D01*
X171948530Y-108392834D01*
X171945847Y-108369804D01*
X171942276Y-108357742D01*
X171937739Y-108354261D01*
X171932159Y-108356976D01*
X171926203Y-108362722D01*
X171912417Y-108379943D01*
X171883050Y-108418651D01*
X171840179Y-108476010D01*
X171785882Y-108549181D01*
X171722237Y-108635326D01*
X171651323Y-108731609D01*
X171575216Y-108835192D01*
X171495995Y-108943237D01*
X171415738Y-109052907D01*
X171336522Y-109161364D01*
X171260426Y-109265770D01*
X171189527Y-109363289D01*
X171125903Y-109451083D01*
X171071633Y-109526314D01*
X171028793Y-109586144D01*
X170999462Y-109627737D01*
X170993380Y-109636567D01*
X170962864Y-109685698D01*
X170927172Y-109749590D01*
X170893357Y-109815542D01*
X170889069Y-109824437D01*
X170860208Y-109888602D01*
X170843452Y-109938610D01*
X170835823Y-109986307D01*
X170834334Y-110042278D01*
X170835178Y-110143728D01*
X169298204Y-110143728D01*
X169419575Y-110018938D01*
X169481879Y-109952510D01*
X169548830Y-109877316D01*
X169610132Y-109805063D01*
X169637325Y-109771310D01*
X169677849Y-109718661D01*
X169731176Y-109647817D01*
X169795747Y-109560947D01*
X169870001Y-109460222D01*
X169952381Y-109347809D01*
X170041326Y-109225879D01*
X170135278Y-109096602D01*
X170232678Y-108962146D01*
X170331965Y-108824681D01*
X170431581Y-108686377D01*
X170529967Y-108549403D01*
X170625564Y-108415929D01*
X170716812Y-108288124D01*
X170802152Y-108168157D01*
X170880025Y-108058199D01*
X170948871Y-107960418D01*
X171007132Y-107876984D01*
X171053249Y-107810066D01*
X171085661Y-107761834D01*
X171102810Y-107734458D01*
X171105150Y-107728996D01*
X171094554Y-107713917D01*
X171066868Y-107677730D01*
X171023909Y-107622701D01*
X170967490Y-107551093D01*
X170899426Y-107465171D01*
X170821533Y-107367198D01*
X170735625Y-107259438D01*
X170643517Y-107144155D01*
X170547023Y-107023614D01*
X170447959Y-106900079D01*
X170368438Y-106801082D01*
X169022426Y-106801082D01*
X169014558Y-106818333D01*
X168995480Y-106847955D01*
X168994086Y-106849928D01*
X168969073Y-106890073D01*
X168942916Y-106939109D01*
X168937725Y-106949941D01*
X168933017Y-106961163D01*
X168928857Y-106974634D01*
X168925203Y-106992210D01*
X168922015Y-107015745D01*
X168919255Y-107047094D01*
X168916881Y-107088112D01*
X168914853Y-107140652D01*
X168913132Y-107206571D01*
X168911676Y-107287723D01*
X168910447Y-107385962D01*
X168909404Y-107503143D01*
X168908506Y-107641121D01*
X168907714Y-107801751D01*
X168906988Y-107986888D01*
X168906287Y-108198386D01*
X168905577Y-108436509D01*
X168904860Y-108682967D01*
X168904282Y-108901229D01*
X168903931Y-109093155D01*
X168903898Y-109260607D01*
X168904272Y-109405449D01*
X168905143Y-109529540D01*
X168906601Y-109634744D01*
X168908736Y-109722922D01*
X168911637Y-109795936D01*
X168915394Y-109855648D01*
X168920097Y-109903920D01*
X168925835Y-109942614D01*
X168932699Y-109973591D01*
X168940778Y-109998714D01*
X168950162Y-110019845D01*
X168960940Y-110038845D01*
X168973203Y-110057576D01*
X168984520Y-110074175D01*
X169007334Y-110109182D01*
X169020843Y-110132593D01*
X169022426Y-110136880D01*
X169007905Y-110138314D01*
X168966375Y-110139646D01*
X168900889Y-110140845D01*
X168814495Y-110141877D01*
X168710246Y-110142712D01*
X168591192Y-110143317D01*
X168460384Y-110143660D01*
X168368639Y-110143728D01*
X168228855Y-110143434D01*
X168099924Y-110142593D01*
X167984758Y-110141263D01*
X167886270Y-110139503D01*
X167807376Y-110137372D01*
X167750988Y-110134928D01*
X167720020Y-110132231D01*
X167714852Y-110130538D01*
X167725100Y-110110697D01*
X167735749Y-110100006D01*
X167753286Y-110077204D01*
X167776237Y-110036929D01*
X167792110Y-110004231D01*
X167827574Y-109925799D01*
X167831668Y-108358964D01*
X167835762Y-106792130D01*
X168429094Y-106792130D01*
X168559323Y-106792349D01*
X168679670Y-106792973D01*
X168786932Y-106793953D01*
X168877907Y-106795243D01*
X168949393Y-106796792D01*
X168998186Y-106798554D01*
X169021085Y-106800479D01*
X169022426Y-106801082D01*
X170368438Y-106801082D01*
X170348140Y-106775813D01*
X170249380Y-106653081D01*
X170153493Y-106534147D01*
X170062296Y-106421274D01*
X169977602Y-106316728D01*
X169901227Y-106222771D01*
X169834984Y-106141668D01*
X169780690Y-106075684D01*
X169757838Y-106048165D01*
X169642952Y-105914149D01*
X169540971Y-105803303D01*
X169449355Y-105713009D01*
X169365566Y-105640651D01*
X169353077Y-105630842D01*
X169300473Y-105590096D01*
X170053864Y-105589930D01*
X170807254Y-105589763D01*
X170800213Y-105653639D01*
X170804610Y-105729984D01*
X170833276Y-105820882D01*
X170886496Y-105927057D01*
X170946817Y-106023292D01*
X170968409Y-106053441D01*
X171005758Y-106103441D01*
X171056637Y-106170442D01*
X171118820Y-106251591D01*
X171190081Y-106344038D01*
X171268192Y-106444933D01*
X171350928Y-106551423D01*
X171436063Y-106660658D01*
X171521369Y-106769787D01*
X171604621Y-106875959D01*
X171683592Y-106976323D01*
X171756055Y-107068027D01*
X171819785Y-107148221D01*
X171872555Y-107214054D01*
X171912138Y-107262674D01*
X171936309Y-107291230D01*
X171940381Y-107295621D01*
X171944188Y-107284962D01*
X171947135Y-107244630D01*
X171949217Y-107175000D01*
X171950429Y-107076447D01*
X171950766Y-106949344D01*
X171950223Y-106794068D01*
X171949013Y-106634319D01*
X171947253Y-106458431D01*
X171945223Y-106309667D01*
X171942593Y-106185092D01*
X171939031Y-106081771D01*
X171934206Y-105996769D01*
X171927787Y-105927152D01*
X171919444Y-105869984D01*
X171908844Y-105822331D01*
X171895657Y-105781257D01*
X171879552Y-105743827D01*
X171860197Y-105707107D01*
X171840650Y-105673771D01*
X171790063Y-105589763D01*
X173201149Y-105589763D01*
X173604335Y-105589763D01*
X173604291Y-105581442D01*
X173603218Y-105445547D01*
X173601853Y-105327174D01*
X173600162Y-105225069D01*
X173598112Y-105137979D01*
X173595668Y-105064650D01*
X173592796Y-105003829D01*
X173589462Y-104954260D01*
X173585633Y-104914692D01*
X173581274Y-104883870D01*
X173576351Y-104860540D01*
X173570830Y-104843448D01*
X173564678Y-104831342D01*
X173557859Y-104822967D01*
X173550340Y-104817070D01*
X173542087Y-104812396D01*
X173533067Y-104807693D01*
X173525084Y-104802942D01*
X173518117Y-104799512D01*
X173507232Y-104796412D01*
X173490972Y-104793625D01*
X173467879Y-104791134D01*
X173436497Y-104788923D01*
X173395368Y-104786976D01*
X173343034Y-104785276D01*
X173278039Y-104783807D01*
X173198925Y-104782552D01*
X173104236Y-104781494D01*
X172992512Y-104780618D01*
X172862299Y-104779907D01*
X172712137Y-104779345D01*
X172540570Y-104778914D01*
X172346141Y-104778599D01*
X172127392Y-104778383D01*
X171882866Y-104778250D01*
X171611105Y-104778183D01*
X171329996Y-104778165D01*
X169172722Y-104778165D01*
X169172722Y-104907024D01*
X169172722Y-104907024D01*
G37*
X169172722Y-104907024D02*
X169158256Y-105058719D01*
X169116163Y-105202003D01*
X169048393Y-105333807D01*
X168956899Y-105451058D01*
X168843635Y-105550687D01*
X168714510Y-105627729D01*
X168573028Y-105680479D01*
X168430554Y-105705201D01*
X168289896Y-105703684D01*
X168153864Y-105677717D01*
X168025267Y-105629090D01*
X167906914Y-105559593D01*
X167801614Y-105471014D01*
X167712177Y-105365143D01*
X167641412Y-105243770D01*
X167592129Y-105108683D01*
X167567135Y-104961674D01*
X167564556Y-104895244D01*
X167564556Y-104778165D01*
X167495420Y-104778165D01*
X167447081Y-104781953D01*
X167411271Y-104797662D01*
X167375183Y-104829266D01*
X167324083Y-104880367D01*
X167324083Y-107798138D01*
X167324095Y-108147138D01*
X167324138Y-108467332D01*
X167324223Y-108759974D01*
X167324361Y-109026318D01*
X167324562Y-109267617D01*
X167324838Y-109485125D01*
X167325200Y-109680095D01*
X167325658Y-109853780D01*
X167326223Y-110007435D01*
X167326906Y-110142313D01*
X167327717Y-110259668D01*
X167328669Y-110360753D01*
X167329771Y-110446821D01*
X167331035Y-110519127D01*
X167332470Y-110578923D01*
X167334089Y-110627464D01*
X167335902Y-110666003D01*
X167337920Y-110695793D01*
X167340154Y-110718089D01*
X167342614Y-110734143D01*
X167345312Y-110745210D01*
X167348258Y-110752542D01*
X167349699Y-110755005D01*
X167355241Y-110764340D01*
X167359947Y-110772923D01*
X167365045Y-110780784D01*
X167371765Y-110787955D01*
X167381336Y-110794467D01*
X167394986Y-110800353D01*
X167413945Y-110805642D01*
X167439442Y-110810368D01*
X167472705Y-110814560D01*
X167514964Y-110818251D01*
X167567448Y-110821472D01*
X167631386Y-110824254D01*
X167708007Y-110826630D01*
X167798540Y-110828629D01*
X167904214Y-110830284D01*
X168026258Y-110831627D01*
X168165901Y-110832687D01*
X168324372Y-110833498D01*
X168502900Y-110834090D01*
X168702715Y-110834495D01*
X168925045Y-110834744D01*
X169171119Y-110834869D01*
X169442166Y-110834901D01*
X169739416Y-110834871D01*
X170064097Y-110834811D01*
X170417438Y-110834752D01*
X170468541Y-110834746D01*
X170823985Y-110834689D01*
X171150594Y-110834595D01*
X171449592Y-110834455D01*
X171722204Y-110834259D01*
X171969653Y-110833997D01*
X172193164Y-110833660D01*
X172393960Y-110833239D01*
X172573266Y-110832723D01*
X172732307Y-110832104D01*
X172872306Y-110831371D01*
X172994487Y-110830515D01*
X173100075Y-110829526D01*
X173190293Y-110828394D01*
X173266366Y-110827111D01*
X173329519Y-110825666D01*
X173380975Y-110824049D01*
X173421958Y-110822252D01*
X173453692Y-110820265D01*
X173477402Y-110818077D01*
X173494312Y-110815679D01*
X173505646Y-110813063D01*
X173511448Y-110810841D01*
X173522714Y-110806088D01*
X173533058Y-110802578D01*
X173542517Y-110799068D01*
X173551132Y-110794313D01*
X173558942Y-110787069D01*
X173565985Y-110776091D01*
X173572302Y-110760135D01*
X173577931Y-110737955D01*
X173582912Y-110708309D01*
X173587284Y-110669951D01*
X173591086Y-110621637D01*
X173594358Y-110562122D01*
X173597139Y-110490163D01*
X173599467Y-110404513D01*
X173601383Y-110303931D01*
X173602925Y-110187169D01*
X173604134Y-110052985D01*
X173605047Y-109900134D01*
X173605705Y-109727371D01*
X173606146Y-109533452D01*
X173606411Y-109317133D01*
X173606536Y-109077168D01*
X173606564Y-108812314D01*
X173606533Y-108521326D01*
X173606481Y-108202960D01*
X173606449Y-107855970D01*
X173606449Y-107799852D01*
X173606467Y-107449841D01*
X173606501Y-107128636D01*
X173606515Y-106834983D01*
X173606476Y-106567628D01*
X173606351Y-106325317D01*
X173606103Y-106106797D01*
X173605700Y-105910813D01*
X173605107Y-105736113D01*
X173604335Y-105589763D01*
X173201149Y-105589763D01*
X173148174Y-105666775D01*
X173133302Y-105687768D01*
X173119895Y-105706356D01*
X173107876Y-105724120D01*
X173097170Y-105742638D01*
X173087703Y-105763491D01*
X173079397Y-105788257D01*
X173072178Y-105818517D01*
X173065969Y-105855850D01*
X173060696Y-105901835D01*
X173056282Y-105958052D01*
X173052652Y-106026080D01*
X173049730Y-106107500D01*
X173047441Y-106203890D01*
X173045709Y-106316830D01*
X173044458Y-106447899D01*
X173043614Y-106598678D01*
X173043099Y-106770746D01*
X173042839Y-106965681D01*
X173042757Y-107185065D01*
X173042779Y-107430476D01*
X173042828Y-107703494D01*
X173042840Y-107866745D01*
X173042808Y-108155583D01*
X173042763Y-108415943D01*
X173042779Y-108649406D01*
X173042931Y-108857554D01*
X173043294Y-109041969D01*
X173043943Y-109204231D01*
X173044953Y-109345922D01*
X173046399Y-109468624D01*
X173048355Y-109573917D01*
X173050896Y-109663383D01*
X173054097Y-109738603D01*
X173058033Y-109801159D01*
X173062780Y-109852632D01*
X173068410Y-109894603D01*
X173075001Y-109928653D01*
X173082626Y-109956365D01*
X173091360Y-109979318D01*
X173101279Y-109999096D01*
X173112456Y-110017278D01*
X173124967Y-110035446D01*
X173138888Y-110055182D01*
X173146997Y-110067019D01*
X173198618Y-110143728D01*
X172490914Y-110143728D01*
X172326826Y-110143681D01*
X172190367Y-110143481D01*
X172079109Y-110143033D01*
X171990621Y-110142244D01*
X171922476Y-110141020D01*
X171872243Y-110139269D01*
X171837493Y-110136897D01*
X171815798Y-110133810D01*
X171804727Y-110129916D01*
X171801851Y-110125120D01*
X171804741Y-110119330D01*
X171806333Y-110117426D01*
X171839817Y-110068070D01*
X171874296Y-109997773D01*
X171905729Y-109915227D01*
X171916738Y-109880061D01*
X171922884Y-109856175D01*
X171928078Y-109828135D01*
X171932430Y-109793165D01*
X171936048Y-109748489D01*
X171939043Y-109691329D01*
X171941523Y-109618910D01*
X171943598Y-109528455D01*
X171945377Y-109417188D01*
X171946970Y-109282331D01*
X171948486Y-109121109D01*
X171948988Y-109061597D01*
X171950342Y-108894976D01*
X171951352Y-108756026D01*
X171951941Y-108642361D01*
X171952031Y-108551596D01*
X171951544Y-108481344D01*
X171950403Y-108429219D01*
X171948530Y-108392834D01*
X171945847Y-108369804D01*
X171942276Y-108357742D01*
X171937739Y-108354261D01*
X171932159Y-108356976D01*
X171926203Y-108362722D01*
X171912417Y-108379943D01*
X171883050Y-108418651D01*
X171840179Y-108476010D01*
X171785882Y-108549181D01*
X171722237Y-108635326D01*
X171651323Y-108731609D01*
X171575216Y-108835192D01*
X171495995Y-108943237D01*
X171415738Y-109052907D01*
X171336522Y-109161364D01*
X171260426Y-109265770D01*
X171189527Y-109363289D01*
X171125903Y-109451083D01*
X171071633Y-109526314D01*
X171028793Y-109586144D01*
X170999462Y-109627737D01*
X170993380Y-109636567D01*
X170962864Y-109685698D01*
X170927172Y-109749590D01*
X170893357Y-109815542D01*
X170889069Y-109824437D01*
X170860208Y-109888602D01*
X170843452Y-109938610D01*
X170835823Y-109986307D01*
X170834334Y-110042278D01*
X170835178Y-110143728D01*
X169298204Y-110143728D01*
X169419575Y-110018938D01*
X169481879Y-109952510D01*
X169548830Y-109877316D01*
X169610132Y-109805063D01*
X169637325Y-109771310D01*
X169677849Y-109718661D01*
X169731176Y-109647817D01*
X169795747Y-109560947D01*
X169870001Y-109460222D01*
X169952381Y-109347809D01*
X170041326Y-109225879D01*
X170135278Y-109096602D01*
X170232678Y-108962146D01*
X170331965Y-108824681D01*
X170431581Y-108686377D01*
X170529967Y-108549403D01*
X170625564Y-108415929D01*
X170716812Y-108288124D01*
X170802152Y-108168157D01*
X170880025Y-108058199D01*
X170948871Y-107960418D01*
X171007132Y-107876984D01*
X171053249Y-107810066D01*
X171085661Y-107761834D01*
X171102810Y-107734458D01*
X171105150Y-107728996D01*
X171094554Y-107713917D01*
X171066868Y-107677730D01*
X171023909Y-107622701D01*
X170967490Y-107551093D01*
X170899426Y-107465171D01*
X170821533Y-107367198D01*
X170735625Y-107259438D01*
X170643517Y-107144155D01*
X170547023Y-107023614D01*
X170447959Y-106900079D01*
X170368438Y-106801082D01*
X169022426Y-106801082D01*
X169014558Y-106818333D01*
X168995480Y-106847955D01*
X168994086Y-106849928D01*
X168969073Y-106890073D01*
X168942916Y-106939109D01*
X168937725Y-106949941D01*
X168933017Y-106961163D01*
X168928857Y-106974634D01*
X168925203Y-106992210D01*
X168922015Y-107015745D01*
X168919255Y-107047094D01*
X168916881Y-107088112D01*
X168914853Y-107140652D01*
X168913132Y-107206571D01*
X168911676Y-107287723D01*
X168910447Y-107385962D01*
X168909404Y-107503143D01*
X168908506Y-107641121D01*
X168907714Y-107801751D01*
X168906988Y-107986888D01*
X168906287Y-108198386D01*
X168905577Y-108436509D01*
X168904860Y-108682967D01*
X168904282Y-108901229D01*
X168903931Y-109093155D01*
X168903898Y-109260607D01*
X168904272Y-109405449D01*
X168905143Y-109529540D01*
X168906601Y-109634744D01*
X168908736Y-109722922D01*
X168911637Y-109795936D01*
X168915394Y-109855648D01*
X168920097Y-109903920D01*
X168925835Y-109942614D01*
X168932699Y-109973591D01*
X168940778Y-109998714D01*
X168950162Y-110019845D01*
X168960940Y-110038845D01*
X168973203Y-110057576D01*
X168984520Y-110074175D01*
X169007334Y-110109182D01*
X169020843Y-110132593D01*
X169022426Y-110136880D01*
X169007905Y-110138314D01*
X168966375Y-110139646D01*
X168900889Y-110140845D01*
X168814495Y-110141877D01*
X168710246Y-110142712D01*
X168591192Y-110143317D01*
X168460384Y-110143660D01*
X168368639Y-110143728D01*
X168228855Y-110143434D01*
X168099924Y-110142593D01*
X167984758Y-110141263D01*
X167886270Y-110139503D01*
X167807376Y-110137372D01*
X167750988Y-110134928D01*
X167720020Y-110132231D01*
X167714852Y-110130538D01*
X167725100Y-110110697D01*
X167735749Y-110100006D01*
X167753286Y-110077204D01*
X167776237Y-110036929D01*
X167792110Y-110004231D01*
X167827574Y-109925799D01*
X167831668Y-108358964D01*
X167835762Y-106792130D01*
X168429094Y-106792130D01*
X168559323Y-106792349D01*
X168679670Y-106792973D01*
X168786932Y-106793953D01*
X168877907Y-106795243D01*
X168949393Y-106796792D01*
X168998186Y-106798554D01*
X169021085Y-106800479D01*
X169022426Y-106801082D01*
X170368438Y-106801082D01*
X170348140Y-106775813D01*
X170249380Y-106653081D01*
X170153493Y-106534147D01*
X170062296Y-106421274D01*
X169977602Y-106316728D01*
X169901227Y-106222771D01*
X169834984Y-106141668D01*
X169780690Y-106075684D01*
X169757838Y-106048165D01*
X169642952Y-105914149D01*
X169540971Y-105803303D01*
X169449355Y-105713009D01*
X169365566Y-105640651D01*
X169353077Y-105630842D01*
X169300473Y-105590096D01*
X170053864Y-105589930D01*
X170807254Y-105589763D01*
X170800213Y-105653639D01*
X170804610Y-105729984D01*
X170833276Y-105820882D01*
X170886496Y-105927057D01*
X170946817Y-106023292D01*
X170968409Y-106053441D01*
X171005758Y-106103441D01*
X171056637Y-106170442D01*
X171118820Y-106251591D01*
X171190081Y-106344038D01*
X171268192Y-106444933D01*
X171350928Y-106551423D01*
X171436063Y-106660658D01*
X171521369Y-106769787D01*
X171604621Y-106875959D01*
X171683592Y-106976323D01*
X171756055Y-107068027D01*
X171819785Y-107148221D01*
X171872555Y-107214054D01*
X171912138Y-107262674D01*
X171936309Y-107291230D01*
X171940381Y-107295621D01*
X171944188Y-107284962D01*
X171947135Y-107244630D01*
X171949217Y-107175000D01*
X171950429Y-107076447D01*
X171950766Y-106949344D01*
X171950223Y-106794068D01*
X171949013Y-106634319D01*
X171947253Y-106458431D01*
X171945223Y-106309667D01*
X171942593Y-106185092D01*
X171939031Y-106081771D01*
X171934206Y-105996769D01*
X171927787Y-105927152D01*
X171919444Y-105869984D01*
X171908844Y-105822331D01*
X171895657Y-105781257D01*
X171879552Y-105743827D01*
X171860197Y-105707107D01*
X171840650Y-105673771D01*
X171790063Y-105589763D01*
X173201149Y-105589763D01*
X173604335Y-105589763D01*
X173604291Y-105581442D01*
X173603218Y-105445547D01*
X173601853Y-105327174D01*
X173600162Y-105225069D01*
X173598112Y-105137979D01*
X173595668Y-105064650D01*
X173592796Y-105003829D01*
X173589462Y-104954260D01*
X173585633Y-104914692D01*
X173581274Y-104883870D01*
X173576351Y-104860540D01*
X173570830Y-104843448D01*
X173564678Y-104831342D01*
X173557859Y-104822967D01*
X173550340Y-104817070D01*
X173542087Y-104812396D01*
X173533067Y-104807693D01*
X173525084Y-104802942D01*
X173518117Y-104799512D01*
X173507232Y-104796412D01*
X173490972Y-104793625D01*
X173467879Y-104791134D01*
X173436497Y-104788923D01*
X173395368Y-104786976D01*
X173343034Y-104785276D01*
X173278039Y-104783807D01*
X173198925Y-104782552D01*
X173104236Y-104781494D01*
X172992512Y-104780618D01*
X172862299Y-104779907D01*
X172712137Y-104779345D01*
X172540570Y-104778914D01*
X172346141Y-104778599D01*
X172127392Y-104778383D01*
X171882866Y-104778250D01*
X171611105Y-104778183D01*
X171329996Y-104778165D01*
X169172722Y-104778165D01*
X169172722Y-104907024D01*
G36*
X164812742Y-105519473D02*
X164599536Y-105547663D01*
X164381273Y-105601103D01*
X164155204Y-105680325D01*
X163918582Y-105785856D01*
X163903580Y-105793238D01*
X163826768Y-105830550D01*
X163758140Y-105862605D01*
X163702703Y-105887166D01*
X163665464Y-105901992D01*
X163652722Y-105905384D01*
X163627137Y-105912051D01*
X163620997Y-105917651D01*
X163627792Y-105931541D01*
X163649147Y-105966540D01*
X163682604Y-106018980D01*
X163725706Y-106085194D01*
X163775992Y-106161514D01*
X163831005Y-106244273D01*
X163888286Y-106329801D01*
X163945377Y-106414433D01*
X163999817Y-106494500D01*
X164049150Y-106566334D01*
X164090917Y-106626268D01*
X164122658Y-106670635D01*
X164141915Y-106695765D01*
X164144558Y-106698680D01*
X164158029Y-106692491D01*
X164187773Y-106669623D01*
X164228473Y-106634314D01*
X164249434Y-106615040D01*
X164377896Y-106514814D01*
X164519966Y-106441002D01*
X164673744Y-106394270D01*
X164837328Y-106375284D01*
X164929725Y-106376843D01*
X165091005Y-106399690D01*
X165236413Y-106447462D01*
X165366384Y-106520508D01*
X165481353Y-106619176D01*
X165581754Y-106743815D01*
X165668022Y-106894776D01*
X165717839Y-107010059D01*
X165776222Y-107190724D01*
X165819252Y-107387078D01*
X165847040Y-107594057D01*
X165859695Y-107806598D01*
X165857330Y-108019638D01*
X165840055Y-108228113D01*
X165807981Y-108426961D01*
X165761218Y-108611118D01*
X165699877Y-108775520D01*
X165678200Y-108821124D01*
X165587340Y-108973014D01*
X165480219Y-109101481D01*
X165358412Y-109205478D01*
X165223490Y-109283958D01*
X165077029Y-109335874D01*
X164920600Y-109360179D01*
X164865392Y-109361967D01*
X164703554Y-109347428D01*
X164543209Y-109303737D01*
X164386390Y-109231798D01*
X164235133Y-109132512D01*
X164113436Y-109028232D01*
X164051488Y-108968945D01*
X163810155Y-109364709D01*
X163750114Y-109463446D01*
X163695211Y-109554262D01*
X163647394Y-109633895D01*
X163608609Y-109699080D01*
X163580806Y-109746554D01*
X163565930Y-109773055D01*
X163563997Y-109777175D01*
X163574953Y-109790009D01*
X163609007Y-109813016D01*
X163661855Y-109844015D01*
X163729189Y-109880829D01*
X163806706Y-109921278D01*
X163890098Y-109963182D01*
X163975060Y-110004363D01*
X164057286Y-110042642D01*
X164132471Y-110075838D01*
X164196309Y-110101775D01*
X164227533Y-110112997D01*
X164405623Y-110163342D01*
X164589209Y-110196630D01*
X164785858Y-110213943D01*
X164954659Y-110217043D01*
X165045133Y-110215585D01*
X165132471Y-110212792D01*
X165208932Y-110209009D01*
X165266770Y-110204578D01*
X165285549Y-110202337D01*
X165470628Y-110163947D01*
X165659051Y-110103877D01*
X165842090Y-110025702D01*
X166011013Y-109933000D01*
X166114201Y-109862864D01*
X166283826Y-109718809D01*
X166441330Y-109550302D01*
X166583795Y-109361508D01*
X166708303Y-109156591D01*
X166811938Y-108939715D01*
X166870324Y-108783550D01*
X166937222Y-108539076D01*
X166981821Y-108280064D01*
X167004135Y-108012119D01*
X167004179Y-107740845D01*
X166981966Y-107471847D01*
X166937509Y-107210729D01*
X166870824Y-106963095D01*
X166865743Y-106947666D01*
X166782022Y-106731915D01*
X166679844Y-106534983D01*
X166555742Y-106351299D01*
X166406250Y-106175288D01*
X166347850Y-106115027D01*
X166166596Y-105950016D01*
X165980263Y-105813495D01*
X165785991Y-105703979D01*
X165580921Y-105619981D01*
X165362190Y-105560015D01*
X165234970Y-105536730D01*
X165023637Y-105516005D01*
X164812742Y-105519473D01*
X164812742Y-105519473D01*
G37*
X164812742Y-105519473D02*
X164599536Y-105547663D01*
X164381273Y-105601103D01*
X164155204Y-105680325D01*
X163918582Y-105785856D01*
X163903580Y-105793238D01*
X163826768Y-105830550D01*
X163758140Y-105862605D01*
X163702703Y-105887166D01*
X163665464Y-105901992D01*
X163652722Y-105905384D01*
X163627137Y-105912051D01*
X163620997Y-105917651D01*
X163627792Y-105931541D01*
X163649147Y-105966540D01*
X163682604Y-106018980D01*
X163725706Y-106085194D01*
X163775992Y-106161514D01*
X163831005Y-106244273D01*
X163888286Y-106329801D01*
X163945377Y-106414433D01*
X163999817Y-106494500D01*
X164049150Y-106566334D01*
X164090917Y-106626268D01*
X164122658Y-106670635D01*
X164141915Y-106695765D01*
X164144558Y-106698680D01*
X164158029Y-106692491D01*
X164187773Y-106669623D01*
X164228473Y-106634314D01*
X164249434Y-106615040D01*
X164377896Y-106514814D01*
X164519966Y-106441002D01*
X164673744Y-106394270D01*
X164837328Y-106375284D01*
X164929725Y-106376843D01*
X165091005Y-106399690D01*
X165236413Y-106447462D01*
X165366384Y-106520508D01*
X165481353Y-106619176D01*
X165581754Y-106743815D01*
X165668022Y-106894776D01*
X165717839Y-107010059D01*
X165776222Y-107190724D01*
X165819252Y-107387078D01*
X165847040Y-107594057D01*
X165859695Y-107806598D01*
X165857330Y-108019638D01*
X165840055Y-108228113D01*
X165807981Y-108426961D01*
X165761218Y-108611118D01*
X165699877Y-108775520D01*
X165678200Y-108821124D01*
X165587340Y-108973014D01*
X165480219Y-109101481D01*
X165358412Y-109205478D01*
X165223490Y-109283958D01*
X165077029Y-109335874D01*
X164920600Y-109360179D01*
X164865392Y-109361967D01*
X164703554Y-109347428D01*
X164543209Y-109303737D01*
X164386390Y-109231798D01*
X164235133Y-109132512D01*
X164113436Y-109028232D01*
X164051488Y-108968945D01*
X163810155Y-109364709D01*
X163750114Y-109463446D01*
X163695211Y-109554262D01*
X163647394Y-109633895D01*
X163608609Y-109699080D01*
X163580806Y-109746554D01*
X163565930Y-109773055D01*
X163563997Y-109777175D01*
X163574953Y-109790009D01*
X163609007Y-109813016D01*
X163661855Y-109844015D01*
X163729189Y-109880829D01*
X163806706Y-109921278D01*
X163890098Y-109963182D01*
X163975060Y-110004363D01*
X164057286Y-110042642D01*
X164132471Y-110075838D01*
X164196309Y-110101775D01*
X164227533Y-110112997D01*
X164405623Y-110163342D01*
X164589209Y-110196630D01*
X164785858Y-110213943D01*
X164954659Y-110217043D01*
X165045133Y-110215585D01*
X165132471Y-110212792D01*
X165208932Y-110209009D01*
X165266770Y-110204578D01*
X165285549Y-110202337D01*
X165470628Y-110163947D01*
X165659051Y-110103877D01*
X165842090Y-110025702D01*
X166011013Y-109933000D01*
X166114201Y-109862864D01*
X166283826Y-109718809D01*
X166441330Y-109550302D01*
X166583795Y-109361508D01*
X166708303Y-109156591D01*
X166811938Y-108939715D01*
X166870324Y-108783550D01*
X166937222Y-108539076D01*
X166981821Y-108280064D01*
X167004135Y-108012119D01*
X167004179Y-107740845D01*
X166981966Y-107471847D01*
X166937509Y-107210729D01*
X166870824Y-106963095D01*
X166865743Y-106947666D01*
X166782022Y-106731915D01*
X166679844Y-106534983D01*
X166555742Y-106351299D01*
X166406250Y-106175288D01*
X166347850Y-106115027D01*
X166166596Y-105950016D01*
X165980263Y-105813495D01*
X165785991Y-105703979D01*
X165580921Y-105619981D01*
X165362190Y-105560015D01*
X165234970Y-105536730D01*
X165023637Y-105516005D01*
X164812742Y-105519473D01*
G36*
X161690508Y-106740971D02*
X161488250Y-106767618D01*
X161308164Y-106812398D01*
X161149089Y-106875669D01*
X161009862Y-106957787D01*
X160906535Y-107042409D01*
X160814884Y-107141108D01*
X160743334Y-107247313D01*
X160686214Y-107370092D01*
X160665612Y-107427433D01*
X160648492Y-107479331D01*
X160633578Y-107527455D01*
X160620698Y-107574246D01*
X160609680Y-107622144D01*
X160600350Y-107673587D01*
X160592537Y-107731016D01*
X160586068Y-107796870D01*
X160580770Y-107873589D01*
X160576470Y-107963612D01*
X160572997Y-108069380D01*
X160570177Y-108193331D01*
X160567838Y-108337906D01*
X160565807Y-108505544D01*
X160563912Y-108698685D01*
X160562245Y-108888757D01*
X160560479Y-109096703D01*
X160558874Y-109276797D01*
X160557263Y-109431244D01*
X160555480Y-109562249D01*
X160553357Y-109672017D01*
X160550728Y-109762753D01*
X160547424Y-109836662D01*
X160543281Y-109895950D01*
X160538130Y-109942822D01*
X160531804Y-109979483D01*
X160524137Y-110008137D01*
X160514962Y-110030990D01*
X160504112Y-110050248D01*
X160491419Y-110068115D01*
X160476717Y-110086796D01*
X160470991Y-110094029D01*
X160449930Y-110124436D01*
X160440562Y-110145142D01*
X160440532Y-110145754D01*
X160455014Y-110148682D01*
X160496267Y-110151378D01*
X160561003Y-110153769D01*
X160645936Y-110155778D01*
X160747777Y-110157329D01*
X160863240Y-110158346D01*
X160989036Y-110158753D01*
X161003557Y-110158757D01*
X161566581Y-110158757D01*
X161570924Y-110030858D01*
X161575266Y-109902958D01*
X161657929Y-109970841D01*
X161787510Y-110060726D01*
X161933828Y-110133541D01*
X162048944Y-110173787D01*
X162140902Y-110193342D01*
X162251874Y-110206647D01*
X162371385Y-110213285D01*
X162488963Y-110212843D01*
X162594133Y-110204905D01*
X162642367Y-110197298D01*
X162828782Y-110146890D01*
X162997100Y-110073874D01*
X163146104Y-109979337D01*
X163274576Y-109864365D01*
X163381301Y-109730046D01*
X163465060Y-109577467D01*
X163524140Y-109409594D01*
X163540562Y-109334261D01*
X163550693Y-109251451D01*
X163555524Y-109151815D01*
X163556183Y-109106686D01*
X163556096Y-109102446D01*
X162544344Y-109102446D01*
X162531971Y-109202367D01*
X162494444Y-109287343D01*
X162429915Y-109361417D01*
X162423182Y-109367292D01*
X162358885Y-109413659D01*
X162290042Y-109443724D01*
X162209186Y-109459595D01*
X162108851Y-109463380D01*
X162084743Y-109462840D01*
X162013091Y-109459309D01*
X161959797Y-109452098D01*
X161913177Y-109438566D01*
X161861548Y-109416072D01*
X161847380Y-109409178D01*
X161766632Y-109361478D01*
X161704299Y-109304719D01*
X161687341Y-109284431D01*
X161627870Y-109209194D01*
X161627870Y-108948413D01*
X161628583Y-108843706D01*
X161630833Y-108766552D01*
X161634785Y-108714478D01*
X161640604Y-108685009D01*
X161646042Y-108676400D01*
X161667245Y-108672188D01*
X161712222Y-108668697D01*
X161774695Y-108666256D01*
X161848381Y-108665194D01*
X161860214Y-108665174D01*
X162021010Y-108672169D01*
X162157701Y-108693693D01*
X162272935Y-108730569D01*
X162369359Y-108783620D01*
X162442491Y-108846127D01*
X162501799Y-108923195D01*
X162534715Y-109007135D01*
X162544344Y-109102446D01*
X163556096Y-109102446D01*
X163553609Y-108981864D01*
X163542499Y-108876821D01*
X163520871Y-108781998D01*
X163486739Y-108687837D01*
X163454791Y-108618111D01*
X163376748Y-108491236D01*
X163272773Y-108374042D01*
X163146030Y-108268662D01*
X162999682Y-108177228D01*
X162836894Y-108101874D01*
X162660829Y-108044732D01*
X162574734Y-108024842D01*
X162393426Y-107995413D01*
X162195792Y-107975997D01*
X161994150Y-107967502D01*
X161825654Y-107969675D01*
X161610125Y-107978700D01*
X161620003Y-107900178D01*
X161645689Y-107768170D01*
X161687139Y-107660702D01*
X161745499Y-107576952D01*
X161821917Y-107516095D01*
X161917539Y-107477308D01*
X162033510Y-107459766D01*
X162170979Y-107462647D01*
X162221538Y-107467974D01*
X162409514Y-107501482D01*
X162591662Y-107556113D01*
X162717515Y-107606706D01*
X162777639Y-107632501D01*
X162828806Y-107653231D01*
X162863889Y-107666071D01*
X162874125Y-107668797D01*
X162887098Y-107656710D01*
X162909357Y-107618142D01*
X162941110Y-107552655D01*
X162982568Y-107459816D01*
X163033939Y-107339187D01*
X163042723Y-107318165D01*
X163082739Y-107221885D01*
X163118659Y-107134885D01*
X163148931Y-107060969D01*
X163172004Y-107003941D01*
X163186326Y-106967607D01*
X163190462Y-106955839D01*
X163177150Y-106949509D01*
X163142167Y-106942483D01*
X163104526Y-106937585D01*
X163064377Y-106931252D01*
X163000754Y-106918677D01*
X162919303Y-106901092D01*
X162825664Y-106879730D01*
X162725480Y-106855825D01*
X162687455Y-106846475D01*
X162547581Y-106812408D01*
X162430869Y-106785698D01*
X162331565Y-106765491D01*
X162243915Y-106750934D01*
X162162164Y-106741173D01*
X162080559Y-106735356D01*
X161993344Y-106732630D01*
X161916102Y-106732100D01*
X161690508Y-106740971D01*
X161690508Y-106740971D01*
G37*
X161690508Y-106740971D02*
X161488250Y-106767618D01*
X161308164Y-106812398D01*
X161149089Y-106875669D01*
X161009862Y-106957787D01*
X160906535Y-107042409D01*
X160814884Y-107141108D01*
X160743334Y-107247313D01*
X160686214Y-107370092D01*
X160665612Y-107427433D01*
X160648492Y-107479331D01*
X160633578Y-107527455D01*
X160620698Y-107574246D01*
X160609680Y-107622144D01*
X160600350Y-107673587D01*
X160592537Y-107731016D01*
X160586068Y-107796870D01*
X160580770Y-107873589D01*
X160576470Y-107963612D01*
X160572997Y-108069380D01*
X160570177Y-108193331D01*
X160567838Y-108337906D01*
X160565807Y-108505544D01*
X160563912Y-108698685D01*
X160562245Y-108888757D01*
X160560479Y-109096703D01*
X160558874Y-109276797D01*
X160557263Y-109431244D01*
X160555480Y-109562249D01*
X160553357Y-109672017D01*
X160550728Y-109762753D01*
X160547424Y-109836662D01*
X160543281Y-109895950D01*
X160538130Y-109942822D01*
X160531804Y-109979483D01*
X160524137Y-110008137D01*
X160514962Y-110030990D01*
X160504112Y-110050248D01*
X160491419Y-110068115D01*
X160476717Y-110086796D01*
X160470991Y-110094029D01*
X160449930Y-110124436D01*
X160440562Y-110145142D01*
X160440532Y-110145754D01*
X160455014Y-110148682D01*
X160496267Y-110151378D01*
X160561003Y-110153769D01*
X160645936Y-110155778D01*
X160747777Y-110157329D01*
X160863240Y-110158346D01*
X160989036Y-110158753D01*
X161003557Y-110158757D01*
X161566581Y-110158757D01*
X161570924Y-110030858D01*
X161575266Y-109902958D01*
X161657929Y-109970841D01*
X161787510Y-110060726D01*
X161933828Y-110133541D01*
X162048944Y-110173787D01*
X162140902Y-110193342D01*
X162251874Y-110206647D01*
X162371385Y-110213285D01*
X162488963Y-110212843D01*
X162594133Y-110204905D01*
X162642367Y-110197298D01*
X162828782Y-110146890D01*
X162997100Y-110073874D01*
X163146104Y-109979337D01*
X163274576Y-109864365D01*
X163381301Y-109730046D01*
X163465060Y-109577467D01*
X163524140Y-109409594D01*
X163540562Y-109334261D01*
X163550693Y-109251451D01*
X163555524Y-109151815D01*
X163556183Y-109106686D01*
X163556096Y-109102446D01*
X162544344Y-109102446D01*
X162531971Y-109202367D01*
X162494444Y-109287343D01*
X162429915Y-109361417D01*
X162423182Y-109367292D01*
X162358885Y-109413659D01*
X162290042Y-109443724D01*
X162209186Y-109459595D01*
X162108851Y-109463380D01*
X162084743Y-109462840D01*
X162013091Y-109459309D01*
X161959797Y-109452098D01*
X161913177Y-109438566D01*
X161861548Y-109416072D01*
X161847380Y-109409178D01*
X161766632Y-109361478D01*
X161704299Y-109304719D01*
X161687341Y-109284431D01*
X161627870Y-109209194D01*
X161627870Y-108948413D01*
X161628583Y-108843706D01*
X161630833Y-108766552D01*
X161634785Y-108714478D01*
X161640604Y-108685009D01*
X161646042Y-108676400D01*
X161667245Y-108672188D01*
X161712222Y-108668697D01*
X161774695Y-108666256D01*
X161848381Y-108665194D01*
X161860214Y-108665174D01*
X162021010Y-108672169D01*
X162157701Y-108693693D01*
X162272935Y-108730569D01*
X162369359Y-108783620D01*
X162442491Y-108846127D01*
X162501799Y-108923195D01*
X162534715Y-109007135D01*
X162544344Y-109102446D01*
X163556096Y-109102446D01*
X163553609Y-108981864D01*
X163542499Y-108876821D01*
X163520871Y-108781998D01*
X163486739Y-108687837D01*
X163454791Y-108618111D01*
X163376748Y-108491236D01*
X163272773Y-108374042D01*
X163146030Y-108268662D01*
X162999682Y-108177228D01*
X162836894Y-108101874D01*
X162660829Y-108044732D01*
X162574734Y-108024842D01*
X162393426Y-107995413D01*
X162195792Y-107975997D01*
X161994150Y-107967502D01*
X161825654Y-107969675D01*
X161610125Y-107978700D01*
X161620003Y-107900178D01*
X161645689Y-107768170D01*
X161687139Y-107660702D01*
X161745499Y-107576952D01*
X161821917Y-107516095D01*
X161917539Y-107477308D01*
X162033510Y-107459766D01*
X162170979Y-107462647D01*
X162221538Y-107467974D01*
X162409514Y-107501482D01*
X162591662Y-107556113D01*
X162717515Y-107606706D01*
X162777639Y-107632501D01*
X162828806Y-107653231D01*
X162863889Y-107666071D01*
X162874125Y-107668797D01*
X162887098Y-107656710D01*
X162909357Y-107618142D01*
X162941110Y-107552655D01*
X162982568Y-107459816D01*
X163033939Y-107339187D01*
X163042723Y-107318165D01*
X163082739Y-107221885D01*
X163118659Y-107134885D01*
X163148931Y-107060969D01*
X163172004Y-107003941D01*
X163186326Y-106967607D01*
X163190462Y-106955839D01*
X163177150Y-106949509D01*
X163142167Y-106942483D01*
X163104526Y-106937585D01*
X163064377Y-106931252D01*
X163000754Y-106918677D01*
X162919303Y-106901092D01*
X162825664Y-106879730D01*
X162725480Y-106855825D01*
X162687455Y-106846475D01*
X162547581Y-106812408D01*
X162430869Y-106785698D01*
X162331565Y-106765491D01*
X162243915Y-106750934D01*
X162162164Y-106741173D01*
X162080559Y-106735356D01*
X161993344Y-106732630D01*
X161916102Y-106732100D01*
X161690508Y-106740971D01*
G36*
X157013526Y-107547367D02*
X157013500Y-107859461D01*
X157013465Y-108142962D01*
X157013369Y-108399336D01*
X157013159Y-108630048D01*
X157012784Y-108836565D01*
X157012191Y-109020351D01*
X157011330Y-109182874D01*
X157010147Y-109325598D01*
X157008592Y-109449990D01*
X157006611Y-109557515D01*
X157004154Y-109649640D01*
X157001167Y-109727830D01*
X156997600Y-109793551D01*
X156993401Y-109848269D01*
X156988516Y-109893449D01*
X156982896Y-109930558D01*
X156976487Y-109961062D01*
X156969237Y-109986426D01*
X156961095Y-110008115D01*
X156952010Y-110027597D01*
X156941927Y-110046337D01*
X156930797Y-110065800D01*
X156923883Y-110077924D01*
X156878264Y-110158757D01*
X158020769Y-110158757D01*
X158020769Y-110031006D01*
X158021743Y-109973273D01*
X158024342Y-109929119D01*
X158028082Y-109905446D01*
X158029735Y-109903254D01*
X158044942Y-109912419D01*
X158075183Y-109936175D01*
X158105405Y-109961969D01*
X158178076Y-110016201D01*
X158270577Y-110070792D01*
X158373161Y-110120725D01*
X158476081Y-110160987D01*
X158517157Y-110173833D01*
X158608351Y-110193225D01*
X158718657Y-110206487D01*
X158837671Y-110213202D01*
X158954995Y-110212953D01*
X159060227Y-110205324D01*
X159110414Y-110197592D01*
X159294270Y-110146918D01*
X159463755Y-110070067D01*
X159617954Y-109967737D01*
X159755956Y-109840628D01*
X159876849Y-109689440D01*
X159965786Y-109541927D01*
X160038835Y-109386483D01*
X160094752Y-109227586D01*
X160134689Y-109059843D01*
X160159793Y-108877861D01*
X160171214Y-108676245D01*
X160172181Y-108573136D01*
X160169393Y-108497545D01*
X159065540Y-108497545D01*
X159065263Y-108621452D01*
X159061385Y-108738199D01*
X159053846Y-108840820D01*
X159042589Y-108922349D01*
X159039149Y-108938779D01*
X158996811Y-109081612D01*
X158941348Y-109197473D01*
X158872297Y-109286654D01*
X158789196Y-109349444D01*
X158691582Y-109386137D01*
X158578990Y-109397021D01*
X158450959Y-109382390D01*
X158366449Y-109361458D01*
X158301022Y-109337241D01*
X158228957Y-109302828D01*
X158174822Y-109271272D01*
X158080887Y-109209540D01*
X158080887Y-107678220D01*
X158170631Y-107620216D01*
X158275177Y-107565733D01*
X158387258Y-107530251D01*
X158500589Y-107514376D01*
X158608883Y-107518712D01*
X158705855Y-107543865D01*
X158748397Y-107564593D01*
X158825515Y-107621838D01*
X158890695Y-107697422D01*
X158945487Y-107794108D01*
X158991439Y-107914658D01*
X159030103Y-108061833D01*
X159031809Y-108069645D01*
X159045350Y-108152527D01*
X159055524Y-108256116D01*
X159062274Y-108373444D01*
X159065540Y-108497545D01*
X160169393Y-108497545D01*
X160161728Y-108289801D01*
X160132512Y-108029073D01*
X160084604Y-107791123D01*
X160018072Y-107576124D01*
X159932985Y-107384250D01*
X159829413Y-107215674D01*
X159707425Y-107070568D01*
X159567089Y-106949105D01*
X159506959Y-106907898D01*
X159372559Y-106833145D01*
X159235043Y-106780409D01*
X159088476Y-106748243D01*
X158926927Y-106735203D01*
X158803769Y-106736595D01*
X158631152Y-106751195D01*
X158481249Y-106780239D01*
X158349722Y-106825063D01*
X158232235Y-106887000D01*
X158167177Y-106932549D01*
X158128080Y-106961725D01*
X158099202Y-106981656D01*
X158088272Y-106987515D01*
X158086122Y-106973097D01*
X158084404Y-106932287D01*
X158083100Y-106868747D01*
X158082195Y-106786140D01*
X158081672Y-106688130D01*
X158081513Y-106578379D01*
X158081702Y-106460551D01*
X158082222Y-106338307D01*
X158083056Y-106215313D01*
X158084188Y-106095230D01*
X158085601Y-105981721D01*
X158087277Y-105878450D01*
X158089200Y-105789080D01*
X158091354Y-105717273D01*
X158093720Y-105666693D01*
X158094375Y-105657396D01*
X158104463Y-105563647D01*
X158119855Y-105490224D01*
X158143472Y-105427489D01*
X158178233Y-105365802D01*
X158186577Y-105353047D01*
X158219105Y-105304201D01*
X157013787Y-105304201D01*
X157013526Y-107547367D01*
X157013526Y-107547367D01*
G37*
X157013526Y-107547367D02*
X157013500Y-107859461D01*
X157013465Y-108142962D01*
X157013369Y-108399336D01*
X157013159Y-108630048D01*
X157012784Y-108836565D01*
X157012191Y-109020351D01*
X157011330Y-109182874D01*
X157010147Y-109325598D01*
X157008592Y-109449990D01*
X157006611Y-109557515D01*
X157004154Y-109649640D01*
X157001167Y-109727830D01*
X156997600Y-109793551D01*
X156993401Y-109848269D01*
X156988516Y-109893449D01*
X156982896Y-109930558D01*
X156976487Y-109961062D01*
X156969237Y-109986426D01*
X156961095Y-110008115D01*
X156952010Y-110027597D01*
X156941927Y-110046337D01*
X156930797Y-110065800D01*
X156923883Y-110077924D01*
X156878264Y-110158757D01*
X158020769Y-110158757D01*
X158020769Y-110031006D01*
X158021743Y-109973273D01*
X158024342Y-109929119D01*
X158028082Y-109905446D01*
X158029735Y-109903254D01*
X158044942Y-109912419D01*
X158075183Y-109936175D01*
X158105405Y-109961969D01*
X158178076Y-110016201D01*
X158270577Y-110070792D01*
X158373161Y-110120725D01*
X158476081Y-110160987D01*
X158517157Y-110173833D01*
X158608351Y-110193225D01*
X158718657Y-110206487D01*
X158837671Y-110213202D01*
X158954995Y-110212953D01*
X159060227Y-110205324D01*
X159110414Y-110197592D01*
X159294270Y-110146918D01*
X159463755Y-110070067D01*
X159617954Y-109967737D01*
X159755956Y-109840628D01*
X159876849Y-109689440D01*
X159965786Y-109541927D01*
X160038835Y-109386483D01*
X160094752Y-109227586D01*
X160134689Y-109059843D01*
X160159793Y-108877861D01*
X160171214Y-108676245D01*
X160172181Y-108573136D01*
X160169393Y-108497545D01*
X159065540Y-108497545D01*
X159065263Y-108621452D01*
X159061385Y-108738199D01*
X159053846Y-108840820D01*
X159042589Y-108922349D01*
X159039149Y-108938779D01*
X158996811Y-109081612D01*
X158941348Y-109197473D01*
X158872297Y-109286654D01*
X158789196Y-109349444D01*
X158691582Y-109386137D01*
X158578990Y-109397021D01*
X158450959Y-109382390D01*
X158366449Y-109361458D01*
X158301022Y-109337241D01*
X158228957Y-109302828D01*
X158174822Y-109271272D01*
X158080887Y-109209540D01*
X158080887Y-107678220D01*
X158170631Y-107620216D01*
X158275177Y-107565733D01*
X158387258Y-107530251D01*
X158500589Y-107514376D01*
X158608883Y-107518712D01*
X158705855Y-107543865D01*
X158748397Y-107564593D01*
X158825515Y-107621838D01*
X158890695Y-107697422D01*
X158945487Y-107794108D01*
X158991439Y-107914658D01*
X159030103Y-108061833D01*
X159031809Y-108069645D01*
X159045350Y-108152527D01*
X159055524Y-108256116D01*
X159062274Y-108373444D01*
X159065540Y-108497545D01*
X160169393Y-108497545D01*
X160161728Y-108289801D01*
X160132512Y-108029073D01*
X160084604Y-107791123D01*
X160018072Y-107576124D01*
X159932985Y-107384250D01*
X159829413Y-107215674D01*
X159707425Y-107070568D01*
X159567089Y-106949105D01*
X159506959Y-106907898D01*
X159372559Y-106833145D01*
X159235043Y-106780409D01*
X159088476Y-106748243D01*
X158926927Y-106735203D01*
X158803769Y-106736595D01*
X158631152Y-106751195D01*
X158481249Y-106780239D01*
X158349722Y-106825063D01*
X158232235Y-106887000D01*
X158167177Y-106932549D01*
X158128080Y-106961725D01*
X158099202Y-106981656D01*
X158088272Y-106987515D01*
X158086122Y-106973097D01*
X158084404Y-106932287D01*
X158083100Y-106868747D01*
X158082195Y-106786140D01*
X158081672Y-106688130D01*
X158081513Y-106578379D01*
X158081702Y-106460551D01*
X158082222Y-106338307D01*
X158083056Y-106215313D01*
X158084188Y-106095230D01*
X158085601Y-105981721D01*
X158087277Y-105878450D01*
X158089200Y-105789080D01*
X158091354Y-105717273D01*
X158093720Y-105666693D01*
X158094375Y-105657396D01*
X158104463Y-105563647D01*
X158119855Y-105490224D01*
X158143472Y-105427489D01*
X158178233Y-105365802D01*
X158186577Y-105353047D01*
X158219105Y-105304201D01*
X157013787Y-105304201D01*
X157013526Y-107547367D01*
G36*
X168276240Y-104291293D02*
X168148063Y-104323562D01*
X168032789Y-104380587D01*
X167933189Y-104460172D01*
X167852035Y-104560125D01*
X167792098Y-104678251D01*
X167757134Y-104806475D01*
X167749344Y-104935969D01*
X167769120Y-105060929D01*
X167813988Y-105177899D01*
X167881472Y-105283422D01*
X167969098Y-105374042D01*
X168074393Y-105446303D01*
X168194882Y-105496748D01*
X168263135Y-105513288D01*
X168322378Y-105523302D01*
X168368046Y-105527259D01*
X168411928Y-105524830D01*
X168465814Y-105515684D01*
X168509877Y-105506398D01*
X168634248Y-105464447D01*
X168745647Y-105396383D01*
X168841565Y-105304269D01*
X168919496Y-105190170D01*
X168938067Y-105153905D01*
X168959951Y-105105487D01*
X168973675Y-105064828D01*
X168981085Y-105022049D01*
X168984027Y-104967272D01*
X168984397Y-104905917D01*
X168978957Y-104793606D01*
X168961096Y-104701371D01*
X168927559Y-104620658D01*
X168875090Y-104542914D01*
X168823769Y-104483982D01*
X168728054Y-104396355D01*
X168628078Y-104335868D01*
X168517907Y-104299653D01*
X168414549Y-104285973D01*
X168276240Y-104291293D01*
X168276240Y-104291293D01*
G37*
X168276240Y-104291293D02*
X168148063Y-104323562D01*
X168032789Y-104380587D01*
X167933189Y-104460172D01*
X167852035Y-104560125D01*
X167792098Y-104678251D01*
X167757134Y-104806475D01*
X167749344Y-104935969D01*
X167769120Y-105060929D01*
X167813988Y-105177899D01*
X167881472Y-105283422D01*
X167969098Y-105374042D01*
X168074393Y-105446303D01*
X168194882Y-105496748D01*
X168263135Y-105513288D01*
X168322378Y-105523302D01*
X168368046Y-105527259D01*
X168411928Y-105524830D01*
X168465814Y-105515684D01*
X168509877Y-105506398D01*
X168634248Y-105464447D01*
X168745647Y-105396383D01*
X168841565Y-105304269D01*
X168919496Y-105190170D01*
X168938067Y-105153905D01*
X168959951Y-105105487D01*
X168973675Y-105064828D01*
X168981085Y-105022049D01*
X168984027Y-104967272D01*
X168984397Y-104905917D01*
X168978957Y-104793606D01*
X168961096Y-104701371D01*
X168927559Y-104620658D01*
X168875090Y-104542914D01*
X168823769Y-104483982D01*
X168728054Y-104396355D01*
X168628078Y-104335868D01*
X168517907Y-104299653D01*
X168414549Y-104285973D01*
X168276240Y-104291293D01*
G36*
X111036640Y-109452468D02*
X111001408Y-109469874D01*
X110957960Y-109500206D01*
X110926294Y-109533283D01*
X110904606Y-109574817D01*
X110891097Y-109630522D01*
X110883962Y-109706111D01*
X110881400Y-109807296D01*
X110881250Y-109850797D01*
X110881688Y-109946135D01*
X110883504Y-110014271D01*
X110887455Y-110061418D01*
X110894298Y-110093790D01*
X110904789Y-110117600D01*
X110915704Y-110133843D01*
X110985381Y-110202952D01*
X111067434Y-110244521D01*
X111155950Y-110257023D01*
X111245019Y-110238934D01*
X111273237Y-110226142D01*
X111340790Y-110190931D01*
X111340790Y-110742700D01*
X111291488Y-110717205D01*
X111226527Y-110697480D01*
X111146680Y-110692427D01*
X111066948Y-110701756D01*
X111006735Y-110722714D01*
X110956792Y-110762627D01*
X110914119Y-110819741D01*
X110910910Y-110825605D01*
X110897378Y-110853227D01*
X110887495Y-110881068D01*
X110880691Y-110914794D01*
X110876399Y-110960071D01*
X110874049Y-111022562D01*
X110873072Y-111107935D01*
X110872895Y-111204010D01*
X110872895Y-111510526D01*
X111056711Y-111510526D01*
X111056711Y-110945339D01*
X111108125Y-110902077D01*
X111161534Y-110867472D01*
X111212112Y-110861180D01*
X111262970Y-110877372D01*
X111290075Y-110893227D01*
X111310249Y-110915810D01*
X111324597Y-110949940D01*
X111334224Y-111000434D01*
X111340237Y-111072111D01*
X111343740Y-111169788D01*
X111344974Y-111234802D01*
X111349145Y-111502171D01*
X111436875Y-111507222D01*
X111524606Y-111512273D01*
X111524606Y-109853101D01*
X111340790Y-109853101D01*
X111336104Y-109945600D01*
X111320312Y-110009809D01*
X111290817Y-110049759D01*
X111245020Y-110069480D01*
X111198750Y-110073421D01*
X111146372Y-110068892D01*
X111111610Y-110051069D01*
X111089872Y-110027519D01*
X111072760Y-110002189D01*
X111062573Y-109973969D01*
X111058040Y-109934431D01*
X111057891Y-109875142D01*
X111059416Y-109825498D01*
X111062919Y-109750710D01*
X111068133Y-109701611D01*
X111076913Y-109670467D01*
X111091114Y-109649545D01*
X111104516Y-109637452D01*
X111160513Y-109611081D01*
X111226789Y-109606822D01*
X111264844Y-109615906D01*
X111302523Y-109648196D01*
X111327481Y-109711006D01*
X111339578Y-109803894D01*
X111340790Y-109853101D01*
X111524606Y-109853101D01*
X111524606Y-109438421D01*
X111432698Y-109438421D01*
X111377517Y-109440603D01*
X111349048Y-109448351D01*
X111340794Y-109463468D01*
X111340790Y-109463916D01*
X111336960Y-109478720D01*
X111320067Y-109477039D01*
X111286481Y-109460772D01*
X111208222Y-109435887D01*
X111120173Y-109433271D01*
X111036640Y-109452468D01*
X111036640Y-109452468D01*
G37*
X111036640Y-109452468D02*
X111001408Y-109469874D01*
X110957960Y-109500206D01*
X110926294Y-109533283D01*
X110904606Y-109574817D01*
X110891097Y-109630522D01*
X110883962Y-109706111D01*
X110881400Y-109807296D01*
X110881250Y-109850797D01*
X110881688Y-109946135D01*
X110883504Y-110014271D01*
X110887455Y-110061418D01*
X110894298Y-110093790D01*
X110904789Y-110117600D01*
X110915704Y-110133843D01*
X110985381Y-110202952D01*
X111067434Y-110244521D01*
X111155950Y-110257023D01*
X111245019Y-110238934D01*
X111273237Y-110226142D01*
X111340790Y-110190931D01*
X111340790Y-110742700D01*
X111291488Y-110717205D01*
X111226527Y-110697480D01*
X111146680Y-110692427D01*
X111066948Y-110701756D01*
X111006735Y-110722714D01*
X110956792Y-110762627D01*
X110914119Y-110819741D01*
X110910910Y-110825605D01*
X110897378Y-110853227D01*
X110887495Y-110881068D01*
X110880691Y-110914794D01*
X110876399Y-110960071D01*
X110874049Y-111022562D01*
X110873072Y-111107935D01*
X110872895Y-111204010D01*
X110872895Y-111510526D01*
X111056711Y-111510526D01*
X111056711Y-110945339D01*
X111108125Y-110902077D01*
X111161534Y-110867472D01*
X111212112Y-110861180D01*
X111262970Y-110877372D01*
X111290075Y-110893227D01*
X111310249Y-110915810D01*
X111324597Y-110949940D01*
X111334224Y-111000434D01*
X111340237Y-111072111D01*
X111343740Y-111169788D01*
X111344974Y-111234802D01*
X111349145Y-111502171D01*
X111436875Y-111507222D01*
X111524606Y-111512273D01*
X111524606Y-109853101D01*
X111340790Y-109853101D01*
X111336104Y-109945600D01*
X111320312Y-110009809D01*
X111290817Y-110049759D01*
X111245020Y-110069480D01*
X111198750Y-110073421D01*
X111146372Y-110068892D01*
X111111610Y-110051069D01*
X111089872Y-110027519D01*
X111072760Y-110002189D01*
X111062573Y-109973969D01*
X111058040Y-109934431D01*
X111057891Y-109875142D01*
X111059416Y-109825498D01*
X111062919Y-109750710D01*
X111068133Y-109701611D01*
X111076913Y-109670467D01*
X111091114Y-109649545D01*
X111104516Y-109637452D01*
X111160513Y-109611081D01*
X111226789Y-109606822D01*
X111264844Y-109615906D01*
X111302523Y-109648196D01*
X111327481Y-109711006D01*
X111339578Y-109803894D01*
X111340790Y-109853101D01*
X111524606Y-109853101D01*
X111524606Y-109438421D01*
X111432698Y-109438421D01*
X111377517Y-109440603D01*
X111349048Y-109448351D01*
X111340794Y-109463468D01*
X111340790Y-109463916D01*
X111336960Y-109478720D01*
X111320067Y-109477039D01*
X111286481Y-109460772D01*
X111208222Y-109435887D01*
X111120173Y-109433271D01*
X111036640Y-109452468D01*
G36*
X110339543Y-110698184D02*
X110260930Y-110719160D01*
X110201084Y-110757180D01*
X110158853Y-110806978D01*
X110145725Y-110828230D01*
X110136032Y-110850492D01*
X110129256Y-110878970D01*
X110124877Y-110918871D01*
X110122376Y-110975401D01*
X110121232Y-111053767D01*
X110120928Y-111159176D01*
X110120922Y-111187142D01*
X110120922Y-111510526D01*
X110201132Y-111510526D01*
X110252294Y-111506943D01*
X110290123Y-111497866D01*
X110299601Y-111492268D01*
X110325512Y-111482606D01*
X110351976Y-111492268D01*
X110395548Y-111504330D01*
X110458840Y-111509185D01*
X110528990Y-111507078D01*
X110593140Y-111498256D01*
X110630593Y-111486937D01*
X110703067Y-111440412D01*
X110748360Y-111375846D01*
X110768722Y-111290000D01*
X110768912Y-111287796D01*
X110767125Y-111249713D01*
X110605527Y-111249713D01*
X110591399Y-111293030D01*
X110568388Y-111317408D01*
X110522196Y-111335845D01*
X110461225Y-111343205D01*
X110399051Y-111339583D01*
X110349249Y-111325074D01*
X110335297Y-111315765D01*
X110310915Y-111272753D01*
X110304737Y-111223857D01*
X110304737Y-111159605D01*
X110397182Y-111159605D01*
X110485005Y-111166366D01*
X110551582Y-111185520D01*
X110592998Y-111215376D01*
X110605527Y-111249713D01*
X110767125Y-111249713D01*
X110764510Y-111194004D01*
X110733576Y-111119847D01*
X110675419Y-111063767D01*
X110667380Y-111058665D01*
X110632837Y-111042055D01*
X110590082Y-111031996D01*
X110530314Y-111027107D01*
X110459310Y-111025983D01*
X110304737Y-111025921D01*
X110304737Y-110961125D01*
X110311294Y-110910850D01*
X110328025Y-110877169D01*
X110329984Y-110875376D01*
X110367217Y-110860642D01*
X110423420Y-110854931D01*
X110485533Y-110857737D01*
X110540490Y-110868556D01*
X110573101Y-110884782D01*
X110590772Y-110897780D01*
X110609431Y-110900262D01*
X110635181Y-110889613D01*
X110674127Y-110863218D01*
X110732370Y-110818465D01*
X110737716Y-110814273D01*
X110734977Y-110798760D01*
X110712124Y-110772960D01*
X110677391Y-110744289D01*
X110639010Y-110720166D01*
X110626952Y-110714470D01*
X110582966Y-110703103D01*
X110518513Y-110694995D01*
X110446503Y-110691743D01*
X110443136Y-110691736D01*
X110339543Y-110698184D01*
X110339543Y-110698184D01*
G37*
X110339543Y-110698184D02*
X110260930Y-110719160D01*
X110201084Y-110757180D01*
X110158853Y-110806978D01*
X110145725Y-110828230D01*
X110136032Y-110850492D01*
X110129256Y-110878970D01*
X110124877Y-110918871D01*
X110122376Y-110975401D01*
X110121232Y-111053767D01*
X110120928Y-111159176D01*
X110120922Y-111187142D01*
X110120922Y-111510526D01*
X110201132Y-111510526D01*
X110252294Y-111506943D01*
X110290123Y-111497866D01*
X110299601Y-111492268D01*
X110325512Y-111482606D01*
X110351976Y-111492268D01*
X110395548Y-111504330D01*
X110458840Y-111509185D01*
X110528990Y-111507078D01*
X110593140Y-111498256D01*
X110630593Y-111486937D01*
X110703067Y-111440412D01*
X110748360Y-111375846D01*
X110768722Y-111290000D01*
X110768912Y-111287796D01*
X110767125Y-111249713D01*
X110605527Y-111249713D01*
X110591399Y-111293030D01*
X110568388Y-111317408D01*
X110522196Y-111335845D01*
X110461225Y-111343205D01*
X110399051Y-111339583D01*
X110349249Y-111325074D01*
X110335297Y-111315765D01*
X110310915Y-111272753D01*
X110304737Y-111223857D01*
X110304737Y-111159605D01*
X110397182Y-111159605D01*
X110485005Y-111166366D01*
X110551582Y-111185520D01*
X110592998Y-111215376D01*
X110605527Y-111249713D01*
X110767125Y-111249713D01*
X110764510Y-111194004D01*
X110733576Y-111119847D01*
X110675419Y-111063767D01*
X110667380Y-111058665D01*
X110632837Y-111042055D01*
X110590082Y-111031996D01*
X110530314Y-111027107D01*
X110459310Y-111025983D01*
X110304737Y-111025921D01*
X110304737Y-110961125D01*
X110311294Y-110910850D01*
X110328025Y-110877169D01*
X110329984Y-110875376D01*
X110367217Y-110860642D01*
X110423420Y-110854931D01*
X110485533Y-110857737D01*
X110540490Y-110868556D01*
X110573101Y-110884782D01*
X110590772Y-110897780D01*
X110609431Y-110900262D01*
X110635181Y-110889613D01*
X110674127Y-110863218D01*
X110732370Y-110818465D01*
X110737716Y-110814273D01*
X110734977Y-110798760D01*
X110712124Y-110772960D01*
X110677391Y-110744289D01*
X110639010Y-110720166D01*
X110626952Y-110714470D01*
X110582966Y-110703103D01*
X110518513Y-110694995D01*
X110446503Y-110691743D01*
X110443136Y-110691736D01*
X110339543Y-110698184D01*
G36*
X109820119Y-110693486D02*
X109795112Y-110700982D01*
X109787050Y-110717451D01*
X109786711Y-110724886D01*
X109785264Y-110745594D01*
X109775302Y-110748845D01*
X109748388Y-110734648D01*
X109732402Y-110724948D01*
X109681967Y-110704175D01*
X109621728Y-110693904D01*
X109558566Y-110693114D01*
X109499363Y-110700786D01*
X109450998Y-110715898D01*
X109420354Y-110737432D01*
X109414311Y-110764366D01*
X109417361Y-110771660D01*
X109439594Y-110801937D01*
X109474070Y-110839175D01*
X109480306Y-110845195D01*
X109513167Y-110872875D01*
X109541520Y-110881818D01*
X109581173Y-110875576D01*
X109597058Y-110871429D01*
X109646491Y-110861467D01*
X109681248Y-110865947D01*
X109710600Y-110881746D01*
X109737487Y-110902949D01*
X109757290Y-110929614D01*
X109771052Y-110966827D01*
X109779816Y-111019673D01*
X109784626Y-111093237D01*
X109786526Y-111192605D01*
X109786711Y-111252601D01*
X109786711Y-111510526D01*
X109953816Y-111510526D01*
X109953816Y-110691710D01*
X109870264Y-110691710D01*
X109820119Y-110693486D01*
X109820119Y-110693486D01*
G37*
X109820119Y-110693486D02*
X109795112Y-110700982D01*
X109787050Y-110717451D01*
X109786711Y-110724886D01*
X109785264Y-110745594D01*
X109775302Y-110748845D01*
X109748388Y-110734648D01*
X109732402Y-110724948D01*
X109681967Y-110704175D01*
X109621728Y-110693904D01*
X109558566Y-110693114D01*
X109499363Y-110700786D01*
X109450998Y-110715898D01*
X109420354Y-110737432D01*
X109414311Y-110764366D01*
X109417361Y-110771660D01*
X109439594Y-110801937D01*
X109474070Y-110839175D01*
X109480306Y-110845195D01*
X109513167Y-110872875D01*
X109541520Y-110881818D01*
X109581173Y-110875576D01*
X109597058Y-110871429D01*
X109646491Y-110861467D01*
X109681248Y-110865947D01*
X109710600Y-110881746D01*
X109737487Y-110902949D01*
X109757290Y-110929614D01*
X109771052Y-110966827D01*
X109779816Y-111019673D01*
X109784626Y-111093237D01*
X109786526Y-111192605D01*
X109786711Y-111252601D01*
X109786711Y-111510526D01*
X109953816Y-111510526D01*
X109953816Y-110691710D01*
X109870264Y-110691710D01*
X109820119Y-110693486D01*
G36*
X108767369Y-111510526D02*
X108859277Y-111510526D01*
X108912623Y-111508962D01*
X108940407Y-111502485D01*
X108950410Y-111488418D01*
X108951185Y-111478906D01*
X108952872Y-111459832D01*
X108963510Y-111456174D01*
X108991465Y-111467932D01*
X109013205Y-111478906D01*
X109096668Y-111504911D01*
X109187396Y-111506416D01*
X109261158Y-111487021D01*
X109329846Y-111440165D01*
X109382206Y-111371004D01*
X109410878Y-111289427D01*
X109411608Y-111284866D01*
X109415868Y-111235101D01*
X109417986Y-111163659D01*
X109417816Y-111109626D01*
X109235280Y-111109626D01*
X109231051Y-111181441D01*
X109221432Y-111240634D01*
X109208410Y-111274060D01*
X109159144Y-111319740D01*
X109100650Y-111336115D01*
X109040329Y-111322873D01*
X108988783Y-111283373D01*
X108969262Y-111256807D01*
X108957848Y-111225106D01*
X108952502Y-111178832D01*
X108951185Y-111109328D01*
X108953542Y-111040499D01*
X108959767Y-110980026D01*
X108968592Y-110939556D01*
X108970063Y-110935929D01*
X109005653Y-110892802D01*
X109057600Y-110869124D01*
X109115722Y-110865301D01*
X109169840Y-110881738D01*
X109209774Y-110918840D01*
X109213917Y-110926222D01*
X109226884Y-110971239D01*
X109233948Y-111035967D01*
X109235280Y-111109626D01*
X109417816Y-111109626D01*
X109417729Y-111082230D01*
X109416528Y-111038405D01*
X109408355Y-110929988D01*
X109391370Y-110848588D01*
X109363113Y-110788412D01*
X109321128Y-110743666D01*
X109280368Y-110717400D01*
X109223419Y-110698935D01*
X109152589Y-110692602D01*
X109080059Y-110697760D01*
X109018014Y-110713769D01*
X108985232Y-110732920D01*
X108951185Y-110763732D01*
X108951185Y-110374210D01*
X108767369Y-110374210D01*
X108767369Y-111510526D01*
X108767369Y-111510526D01*
G37*
X108767369Y-111510526D02*
X108859277Y-111510526D01*
X108912623Y-111508962D01*
X108940407Y-111502485D01*
X108950410Y-111488418D01*
X108951185Y-111478906D01*
X108952872Y-111459832D01*
X108963510Y-111456174D01*
X108991465Y-111467932D01*
X109013205Y-111478906D01*
X109096668Y-111504911D01*
X109187396Y-111506416D01*
X109261158Y-111487021D01*
X109329846Y-111440165D01*
X109382206Y-111371004D01*
X109410878Y-111289427D01*
X109411608Y-111284866D01*
X109415868Y-111235101D01*
X109417986Y-111163659D01*
X109417816Y-111109626D01*
X109235280Y-111109626D01*
X109231051Y-111181441D01*
X109221432Y-111240634D01*
X109208410Y-111274060D01*
X109159144Y-111319740D01*
X109100650Y-111336115D01*
X109040329Y-111322873D01*
X108988783Y-111283373D01*
X108969262Y-111256807D01*
X108957848Y-111225106D01*
X108952502Y-111178832D01*
X108951185Y-111109328D01*
X108953542Y-111040499D01*
X108959767Y-110980026D01*
X108968592Y-110939556D01*
X108970063Y-110935929D01*
X109005653Y-110892802D01*
X109057600Y-110869124D01*
X109115722Y-110865301D01*
X109169840Y-110881738D01*
X109209774Y-110918840D01*
X109213917Y-110926222D01*
X109226884Y-110971239D01*
X109233948Y-111035967D01*
X109235280Y-111109626D01*
X109417816Y-111109626D01*
X109417729Y-111082230D01*
X109416528Y-111038405D01*
X109408355Y-110929988D01*
X109391370Y-110848588D01*
X109363113Y-110788412D01*
X109321128Y-110743666D01*
X109280368Y-110717400D01*
X109223419Y-110698935D01*
X109152589Y-110692602D01*
X109080059Y-110697760D01*
X109018014Y-110713769D01*
X108985232Y-110732920D01*
X108951185Y-110763732D01*
X108951185Y-110374210D01*
X108767369Y-110374210D01*
X108767369Y-111510526D01*
G36*
X108125870Y-110695104D02*
X108059780Y-110700066D01*
X107973374Y-110959079D01*
X107886969Y-111218092D01*
X107859876Y-111126184D01*
X107843572Y-111069384D01*
X107822125Y-110992625D01*
X107798965Y-110908251D01*
X107786720Y-110862993D01*
X107740656Y-110691710D01*
X107550613Y-110691710D01*
X107607418Y-110871349D01*
X107635393Y-110959704D01*
X107669187Y-111066281D01*
X107704480Y-111177454D01*
X107735987Y-111276579D01*
X107807750Y-111502171D01*
X107962714Y-111512253D01*
X108004730Y-111373528D01*
X108030641Y-111287351D01*
X108058917Y-111192347D01*
X108083631Y-111108441D01*
X108084606Y-111105102D01*
X108103065Y-111048248D01*
X108119351Y-111009456D01*
X108130758Y-110994787D01*
X108133102Y-110996483D01*
X108141329Y-111019225D01*
X108156962Y-111067940D01*
X108178096Y-111136502D01*
X108202830Y-111218785D01*
X108216213Y-111264046D01*
X108288689Y-111510526D01*
X108442505Y-111510526D01*
X108565469Y-111122006D01*
X108600012Y-111013022D01*
X108631479Y-110914048D01*
X108658384Y-110829736D01*
X108679241Y-110764734D01*
X108692562Y-110723692D01*
X108696612Y-110711701D01*
X108693406Y-110699423D01*
X108668235Y-110694046D01*
X108615854Y-110694584D01*
X108607655Y-110694990D01*
X108510518Y-110700066D01*
X108446900Y-110934013D01*
X108423516Y-111019333D01*
X108402619Y-111094335D01*
X108386049Y-111152507D01*
X108375646Y-111187337D01*
X108373724Y-111193016D01*
X108365759Y-111186486D01*
X108349696Y-111152654D01*
X108327379Y-111096127D01*
X108300655Y-111021510D01*
X108278063Y-110954107D01*
X108191959Y-110690143D01*
X108125870Y-110695104D01*
X108125870Y-110695104D01*
G37*
X108125870Y-110695104D02*
X108059780Y-110700066D01*
X107973374Y-110959079D01*
X107886969Y-111218092D01*
X107859876Y-111126184D01*
X107843572Y-111069384D01*
X107822125Y-110992625D01*
X107798965Y-110908251D01*
X107786720Y-110862993D01*
X107740656Y-110691710D01*
X107550613Y-110691710D01*
X107607418Y-110871349D01*
X107635393Y-110959704D01*
X107669187Y-111066281D01*
X107704480Y-111177454D01*
X107735987Y-111276579D01*
X107807750Y-111502171D01*
X107962714Y-111512253D01*
X108004730Y-111373528D01*
X108030641Y-111287351D01*
X108058917Y-111192347D01*
X108083631Y-111108441D01*
X108084606Y-111105102D01*
X108103065Y-111048248D01*
X108119351Y-111009456D01*
X108130758Y-110994787D01*
X108133102Y-110996483D01*
X108141329Y-111019225D01*
X108156962Y-111067940D01*
X108178096Y-111136502D01*
X108202830Y-111218785D01*
X108216213Y-111264046D01*
X108288689Y-111510526D01*
X108442505Y-111510526D01*
X108565469Y-111122006D01*
X108600012Y-111013022D01*
X108631479Y-110914048D01*
X108658384Y-110829736D01*
X108679241Y-110764734D01*
X108692562Y-110723692D01*
X108696612Y-110711701D01*
X108693406Y-110699423D01*
X108668235Y-110694046D01*
X108615854Y-110694584D01*
X108607655Y-110694990D01*
X108510518Y-110700066D01*
X108446900Y-110934013D01*
X108423516Y-111019333D01*
X108402619Y-111094335D01*
X108386049Y-111152507D01*
X108375646Y-111187337D01*
X108373724Y-111193016D01*
X108365759Y-111186486D01*
X108349696Y-111152654D01*
X108327379Y-111096127D01*
X108300655Y-111021510D01*
X108278063Y-110954107D01*
X108191959Y-110690143D01*
X108125870Y-110695104D01*
G36*
X107120008Y-110696673D02*
X107049573Y-110713780D01*
X107029213Y-110722844D01*
X106989747Y-110746583D01*
X106959459Y-110773321D01*
X106937048Y-110807699D01*
X106921214Y-110854360D01*
X106910657Y-110917946D01*
X106904076Y-111003099D01*
X106900172Y-111114462D01*
X106898690Y-111188849D01*
X106893235Y-111510526D01*
X106986420Y-111510526D01*
X107042953Y-111508156D01*
X107072078Y-111500055D01*
X107079606Y-111486451D01*
X107083580Y-111471741D01*
X107101348Y-111474554D01*
X107125560Y-111486348D01*
X107186172Y-111504427D01*
X107264071Y-111509299D01*
X107346005Y-111501330D01*
X107418719Y-111480889D01*
X107425241Y-111478051D01*
X107491698Y-111431365D01*
X107535509Y-111366464D01*
X107555668Y-111290600D01*
X107554128Y-111263344D01*
X107389655Y-111263344D01*
X107375163Y-111300024D01*
X107332195Y-111326309D01*
X107262871Y-111340417D01*
X107225823Y-111342290D01*
X107164081Y-111337494D01*
X107123040Y-111318858D01*
X107113027Y-111310000D01*
X107085900Y-111261806D01*
X107079606Y-111218092D01*
X107079606Y-111159605D01*
X107161070Y-111159605D01*
X107255766Y-111164432D01*
X107322187Y-111179613D01*
X107364154Y-111206200D01*
X107373551Y-111218052D01*
X107389655Y-111263344D01*
X107554128Y-111263344D01*
X107551171Y-111211026D01*
X107521015Y-111134995D01*
X107479869Y-111083612D01*
X107454948Y-111061397D01*
X107430552Y-111046798D01*
X107398809Y-111037897D01*
X107351848Y-111032775D01*
X107281796Y-111029515D01*
X107254010Y-111028577D01*
X107079606Y-111022879D01*
X107079862Y-110970091D01*
X107086616Y-110914603D01*
X107111036Y-110881052D01*
X107160370Y-110859618D01*
X107161694Y-110859236D01*
X107231640Y-110850808D01*
X107300086Y-110861816D01*
X107350953Y-110888585D01*
X107371363Y-110901803D01*
X107393346Y-110899974D01*
X107427174Y-110880824D01*
X107447039Y-110867308D01*
X107485894Y-110838432D01*
X107509962Y-110816786D01*
X107513824Y-110810589D01*
X107497921Y-110778519D01*
X107450935Y-110740219D01*
X107430527Y-110727297D01*
X107371857Y-110705041D01*
X107292788Y-110692432D01*
X107204959Y-110689600D01*
X107120008Y-110696673D01*
X107120008Y-110696673D01*
G37*
X107120008Y-110696673D02*
X107049573Y-110713780D01*
X107029213Y-110722844D01*
X106989747Y-110746583D01*
X106959459Y-110773321D01*
X106937048Y-110807699D01*
X106921214Y-110854360D01*
X106910657Y-110917946D01*
X106904076Y-111003099D01*
X106900172Y-111114462D01*
X106898690Y-111188849D01*
X106893235Y-111510526D01*
X106986420Y-111510526D01*
X107042953Y-111508156D01*
X107072078Y-111500055D01*
X107079606Y-111486451D01*
X107083580Y-111471741D01*
X107101348Y-111474554D01*
X107125560Y-111486348D01*
X107186172Y-111504427D01*
X107264071Y-111509299D01*
X107346005Y-111501330D01*
X107418719Y-111480889D01*
X107425241Y-111478051D01*
X107491698Y-111431365D01*
X107535509Y-111366464D01*
X107555668Y-111290600D01*
X107554128Y-111263344D01*
X107389655Y-111263344D01*
X107375163Y-111300024D01*
X107332195Y-111326309D01*
X107262871Y-111340417D01*
X107225823Y-111342290D01*
X107164081Y-111337494D01*
X107123040Y-111318858D01*
X107113027Y-111310000D01*
X107085900Y-111261806D01*
X107079606Y-111218092D01*
X107079606Y-111159605D01*
X107161070Y-111159605D01*
X107255766Y-111164432D01*
X107322187Y-111179613D01*
X107364154Y-111206200D01*
X107373551Y-111218052D01*
X107389655Y-111263344D01*
X107554128Y-111263344D01*
X107551171Y-111211026D01*
X107521015Y-111134995D01*
X107479869Y-111083612D01*
X107454948Y-111061397D01*
X107430552Y-111046798D01*
X107398809Y-111037897D01*
X107351848Y-111032775D01*
X107281796Y-111029515D01*
X107254010Y-111028577D01*
X107079606Y-111022879D01*
X107079862Y-110970091D01*
X107086616Y-110914603D01*
X107111036Y-110881052D01*
X107160370Y-110859618D01*
X107161694Y-110859236D01*
X107231640Y-110850808D01*
X107300086Y-110861816D01*
X107350953Y-110888585D01*
X107371363Y-110901803D01*
X107393346Y-110899974D01*
X107427174Y-110880824D01*
X107447039Y-110867308D01*
X107485894Y-110838432D01*
X107509962Y-110816786D01*
X107513824Y-110810589D01*
X107497921Y-110778519D01*
X107450935Y-110740219D01*
X107430527Y-110727297D01*
X107371857Y-110705041D01*
X107292788Y-110692432D01*
X107204959Y-110689600D01*
X107120008Y-110696673D01*
G36*
X106326833Y-110691447D02*
X106262592Y-110704112D01*
X106226020Y-110722864D01*
X106187547Y-110754017D01*
X106242283Y-110823127D01*
X106276031Y-110864979D01*
X106298947Y-110885398D01*
X106321721Y-110888517D01*
X106355044Y-110878472D01*
X106370686Y-110872789D01*
X106434458Y-110864404D01*
X106492860Y-110882378D01*
X106535736Y-110922982D01*
X106542701Y-110935929D01*
X106550287Y-110970224D01*
X106556141Y-111033427D01*
X106559989Y-111121060D01*
X106561557Y-111228640D01*
X106561579Y-111243944D01*
X106561579Y-111510526D01*
X106745395Y-111510526D01*
X106745395Y-110691710D01*
X106653487Y-110691710D01*
X106600493Y-110693094D01*
X106572885Y-110699252D01*
X106562676Y-110713194D01*
X106561579Y-110726344D01*
X106561579Y-110760978D01*
X106517550Y-110726344D01*
X106467063Y-110702716D01*
X106399240Y-110691033D01*
X106326833Y-110691447D01*
X106326833Y-110691447D01*
G37*
X106326833Y-110691447D02*
X106262592Y-110704112D01*
X106226020Y-110722864D01*
X106187547Y-110754017D01*
X106242283Y-110823127D01*
X106276031Y-110864979D01*
X106298947Y-110885398D01*
X106321721Y-110888517D01*
X106355044Y-110878472D01*
X106370686Y-110872789D01*
X106434458Y-110864404D01*
X106492860Y-110882378D01*
X106535736Y-110922982D01*
X106542701Y-110935929D01*
X106550287Y-110970224D01*
X106556141Y-111033427D01*
X106559989Y-111121060D01*
X106561557Y-111228640D01*
X106561579Y-111243944D01*
X106561579Y-111510526D01*
X106745395Y-111510526D01*
X106745395Y-110691710D01*
X106653487Y-110691710D01*
X106600493Y-110693094D01*
X106572885Y-110699252D01*
X106562676Y-110713194D01*
X106561579Y-110726344D01*
X106561579Y-110760978D01*
X106517550Y-110726344D01*
X106467063Y-110702716D01*
X106399240Y-110691033D01*
X106326833Y-110691447D01*
G36*
X105798807Y-110696078D02*
X105718932Y-110716845D01*
X105652038Y-110759705D01*
X105619649Y-110791723D01*
X105566555Y-110867413D01*
X105536127Y-110955216D01*
X105525673Y-111063150D01*
X105525620Y-111071875D01*
X105525527Y-111159605D01*
X106030466Y-111159605D01*
X106019702Y-111205559D01*
X106000268Y-111247178D01*
X105966255Y-111290544D01*
X105959140Y-111297467D01*
X105897997Y-111334935D01*
X105828271Y-111341289D01*
X105748013Y-111316638D01*
X105734408Y-111310000D01*
X105692681Y-111289819D01*
X105664732Y-111278321D01*
X105659855Y-111277258D01*
X105642832Y-111287583D01*
X105610367Y-111312845D01*
X105593886Y-111326650D01*
X105559736Y-111358361D01*
X105548522Y-111379299D01*
X105556305Y-111398560D01*
X105560465Y-111403827D01*
X105588643Y-111426878D01*
X105635138Y-111454892D01*
X105667566Y-111471246D01*
X105759615Y-111500059D01*
X105861524Y-111509395D01*
X105958037Y-111498332D01*
X105985066Y-111490412D01*
X106068724Y-111445581D01*
X106130734Y-111376598D01*
X106171455Y-111282794D01*
X106191245Y-111163498D01*
X106193418Y-111101118D01*
X106187074Y-111010298D01*
X106026843Y-111010298D01*
X106011345Y-111017012D01*
X105969688Y-111022280D01*
X105909124Y-111025389D01*
X105868093Y-111025921D01*
X105794289Y-111025408D01*
X105747707Y-111023006D01*
X105722152Y-111017422D01*
X105711431Y-111007361D01*
X105709343Y-110992763D01*
X105723669Y-110947796D01*
X105759738Y-110903353D01*
X105807185Y-110869242D01*
X105854651Y-110855288D01*
X105919121Y-110867666D01*
X105974930Y-110903452D01*
X106013626Y-110955033D01*
X106026843Y-111010298D01*
X106187074Y-111010298D01*
X106184179Y-110968866D01*
X106155664Y-110863498D01*
X106107271Y-110784178D01*
X106038396Y-110730071D01*
X105948435Y-110700343D01*
X105899700Y-110694618D01*
X105798807Y-110696078D01*
X105798807Y-110696078D01*
G37*
X105798807Y-110696078D02*
X105718932Y-110716845D01*
X105652038Y-110759705D01*
X105619649Y-110791723D01*
X105566555Y-110867413D01*
X105536127Y-110955216D01*
X105525673Y-111063150D01*
X105525620Y-111071875D01*
X105525527Y-111159605D01*
X106030466Y-111159605D01*
X106019702Y-111205559D01*
X106000268Y-111247178D01*
X105966255Y-111290544D01*
X105959140Y-111297467D01*
X105897997Y-111334935D01*
X105828271Y-111341289D01*
X105748013Y-111316638D01*
X105734408Y-111310000D01*
X105692681Y-111289819D01*
X105664732Y-111278321D01*
X105659855Y-111277258D01*
X105642832Y-111287583D01*
X105610367Y-111312845D01*
X105593886Y-111326650D01*
X105559736Y-111358361D01*
X105548522Y-111379299D01*
X105556305Y-111398560D01*
X105560465Y-111403827D01*
X105588643Y-111426878D01*
X105635138Y-111454892D01*
X105667566Y-111471246D01*
X105759615Y-111500059D01*
X105861524Y-111509395D01*
X105958037Y-111498332D01*
X105985066Y-111490412D01*
X106068724Y-111445581D01*
X106130734Y-111376598D01*
X106171455Y-111282794D01*
X106191245Y-111163498D01*
X106193418Y-111101118D01*
X106187074Y-111010298D01*
X106026843Y-111010298D01*
X106011345Y-111017012D01*
X105969688Y-111022280D01*
X105909124Y-111025389D01*
X105868093Y-111025921D01*
X105794289Y-111025408D01*
X105747707Y-111023006D01*
X105722152Y-111017422D01*
X105711431Y-111007361D01*
X105709343Y-110992763D01*
X105723669Y-110947796D01*
X105759738Y-110903353D01*
X105807185Y-110869242D01*
X105854651Y-110855288D01*
X105919121Y-110867666D01*
X105974930Y-110903452D01*
X106013626Y-110955033D01*
X106026843Y-111010298D01*
X106187074Y-111010298D01*
X106184179Y-110968866D01*
X106155664Y-110863498D01*
X106107271Y-110784178D01*
X106038396Y-110730071D01*
X105948435Y-110700343D01*
X105899700Y-110694618D01*
X105798807Y-110696078D01*
G36*
X111873216Y-109447104D02*
X111785795Y-109485754D01*
X111719430Y-109550290D01*
X111674024Y-109640812D01*
X111649482Y-109757418D01*
X111647723Y-109775624D01*
X111646344Y-109903984D01*
X111664216Y-110016496D01*
X111700250Y-110107688D01*
X111719545Y-110137022D01*
X111786755Y-110199106D01*
X111872350Y-110239316D01*
X111968110Y-110256003D01*
X112065813Y-110247517D01*
X112140083Y-110221380D01*
X112203953Y-110177335D01*
X112256154Y-110119587D01*
X112257057Y-110118236D01*
X112278256Y-110082593D01*
X112292033Y-110046752D01*
X112300376Y-110001519D01*
X112305273Y-109937701D01*
X112307431Y-109885368D01*
X112308329Y-109837910D01*
X112141257Y-109837910D01*
X112139624Y-109885154D01*
X112133696Y-109948046D01*
X112123239Y-109988407D01*
X112104381Y-110017122D01*
X112086719Y-110033896D01*
X112024106Y-110069016D01*
X111958592Y-110073710D01*
X111897579Y-110048440D01*
X111867072Y-110020124D01*
X111845089Y-109991589D01*
X111832231Y-109964284D01*
X111826588Y-109928750D01*
X111826249Y-109875524D01*
X111827988Y-109826506D01*
X111831729Y-109756482D01*
X111837659Y-109711064D01*
X111848347Y-109681440D01*
X111866361Y-109658797D01*
X111880637Y-109645855D01*
X111940349Y-109611860D01*
X112004766Y-109610165D01*
X112058781Y-109630301D01*
X112104860Y-109672352D01*
X112132311Y-109741428D01*
X112141257Y-109837910D01*
X112308329Y-109837910D01*
X112309401Y-109781299D01*
X112306036Y-109703468D01*
X112295955Y-109644930D01*
X112277774Y-109598737D01*
X112250110Y-109557942D01*
X112239854Y-109545828D01*
X112175722Y-109485474D01*
X112106934Y-109450220D01*
X112022811Y-109435450D01*
X111981791Y-109434243D01*
X111873216Y-109447104D01*
X111873216Y-109447104D01*
G37*
X111873216Y-109447104D02*
X111785795Y-109485754D01*
X111719430Y-109550290D01*
X111674024Y-109640812D01*
X111649482Y-109757418D01*
X111647723Y-109775624D01*
X111646344Y-109903984D01*
X111664216Y-110016496D01*
X111700250Y-110107688D01*
X111719545Y-110137022D01*
X111786755Y-110199106D01*
X111872350Y-110239316D01*
X111968110Y-110256003D01*
X112065813Y-110247517D01*
X112140083Y-110221380D01*
X112203953Y-110177335D01*
X112256154Y-110119587D01*
X112257057Y-110118236D01*
X112278256Y-110082593D01*
X112292033Y-110046752D01*
X112300376Y-110001519D01*
X112305273Y-109937701D01*
X112307431Y-109885368D01*
X112308329Y-109837910D01*
X112141257Y-109837910D01*
X112139624Y-109885154D01*
X112133696Y-109948046D01*
X112123239Y-109988407D01*
X112104381Y-110017122D01*
X112086719Y-110033896D01*
X112024106Y-110069016D01*
X111958592Y-110073710D01*
X111897579Y-110048440D01*
X111867072Y-110020124D01*
X111845089Y-109991589D01*
X111832231Y-109964284D01*
X111826588Y-109928750D01*
X111826249Y-109875524D01*
X111827988Y-109826506D01*
X111831729Y-109756482D01*
X111837659Y-109711064D01*
X111848347Y-109681440D01*
X111866361Y-109658797D01*
X111880637Y-109645855D01*
X111940349Y-109611860D01*
X112004766Y-109610165D01*
X112058781Y-109630301D01*
X112104860Y-109672352D01*
X112132311Y-109741428D01*
X112141257Y-109837910D01*
X112308329Y-109837910D01*
X112309401Y-109781299D01*
X112306036Y-109703468D01*
X112295955Y-109644930D01*
X112277774Y-109598737D01*
X112250110Y-109557942D01*
X112239854Y-109545828D01*
X112175722Y-109485474D01*
X112106934Y-109450220D01*
X112022811Y-109435450D01*
X111981791Y-109434243D01*
X111873216Y-109447104D01*
G36*
X110302982Y-109457027D02*
X110286330Y-109464866D01*
X110228695Y-109507086D01*
X110174195Y-109568700D01*
X110133501Y-109636543D01*
X110121926Y-109667734D01*
X110111366Y-109723449D01*
X110105069Y-109790781D01*
X110104304Y-109818585D01*
X110104211Y-109906316D01*
X110609150Y-109906316D01*
X110598387Y-109952270D01*
X110571967Y-110006620D01*
X110525778Y-110053591D01*
X110470828Y-110083848D01*
X110435811Y-110090131D01*
X110388323Y-110082506D01*
X110331665Y-110063383D01*
X110312418Y-110054584D01*
X110241241Y-110019036D01*
X110180498Y-110065367D01*
X110145448Y-110096703D01*
X110126798Y-110122567D01*
X110125853Y-110130158D01*
X110142515Y-110148556D01*
X110179030Y-110176515D01*
X110212172Y-110198327D01*
X110301607Y-110237537D01*
X110401871Y-110255285D01*
X110501246Y-110250670D01*
X110580461Y-110226551D01*
X110662120Y-110174884D01*
X110720151Y-110106856D01*
X110756454Y-110018843D01*
X110772928Y-109907216D01*
X110774389Y-109856138D01*
X110768543Y-109739091D01*
X110767825Y-109735686D01*
X110600511Y-109735686D01*
X110595903Y-109746662D01*
X110576964Y-109752715D01*
X110537902Y-109755310D01*
X110472923Y-109755910D01*
X110447903Y-109755921D01*
X110371779Y-109755014D01*
X110323504Y-109751720D01*
X110297540Y-109745181D01*
X110288352Y-109734537D01*
X110288027Y-109731119D01*
X110298513Y-109703956D01*
X110324758Y-109665903D01*
X110336041Y-109652579D01*
X110377928Y-109614896D01*
X110421591Y-109600080D01*
X110445115Y-109598842D01*
X110508757Y-109614329D01*
X110562127Y-109655930D01*
X110595981Y-109716353D01*
X110596581Y-109718322D01*
X110600511Y-109735686D01*
X110767825Y-109735686D01*
X110749101Y-109646928D01*
X110714078Y-109573190D01*
X110671244Y-109520848D01*
X110592052Y-109464092D01*
X110498960Y-109433762D01*
X110399945Y-109431021D01*
X110302982Y-109457027D01*
X110302982Y-109457027D01*
G37*
X110302982Y-109457027D02*
X110286330Y-109464866D01*
X110228695Y-109507086D01*
X110174195Y-109568700D01*
X110133501Y-109636543D01*
X110121926Y-109667734D01*
X110111366Y-109723449D01*
X110105069Y-109790781D01*
X110104304Y-109818585D01*
X110104211Y-109906316D01*
X110609150Y-109906316D01*
X110598387Y-109952270D01*
X110571967Y-110006620D01*
X110525778Y-110053591D01*
X110470828Y-110083848D01*
X110435811Y-110090131D01*
X110388323Y-110082506D01*
X110331665Y-110063383D01*
X110312418Y-110054584D01*
X110241241Y-110019036D01*
X110180498Y-110065367D01*
X110145448Y-110096703D01*
X110126798Y-110122567D01*
X110125853Y-110130158D01*
X110142515Y-110148556D01*
X110179030Y-110176515D01*
X110212172Y-110198327D01*
X110301607Y-110237537D01*
X110401871Y-110255285D01*
X110501246Y-110250670D01*
X110580461Y-110226551D01*
X110662120Y-110174884D01*
X110720151Y-110106856D01*
X110756454Y-110018843D01*
X110772928Y-109907216D01*
X110774389Y-109856138D01*
X110768543Y-109739091D01*
X110767825Y-109735686D01*
X110600511Y-109735686D01*
X110595903Y-109746662D01*
X110576964Y-109752715D01*
X110537902Y-109755310D01*
X110472923Y-109755910D01*
X110447903Y-109755921D01*
X110371779Y-109755014D01*
X110323504Y-109751720D01*
X110297540Y-109745181D01*
X110288352Y-109734537D01*
X110288027Y-109731119D01*
X110298513Y-109703956D01*
X110324758Y-109665903D01*
X110336041Y-109652579D01*
X110377928Y-109614896D01*
X110421591Y-109600080D01*
X110445115Y-109598842D01*
X110508757Y-109614329D01*
X110562127Y-109655930D01*
X110595981Y-109716353D01*
X110596581Y-109718322D01*
X110600511Y-109735686D01*
X110767825Y-109735686D01*
X110749101Y-109646928D01*
X110714078Y-109573190D01*
X110671244Y-109520848D01*
X110592052Y-109464092D01*
X110498960Y-109433762D01*
X110399945Y-109431021D01*
X110302982Y-109457027D01*
G36*
X108481372Y-109435547D02*
X108418092Y-109447548D01*
X108352443Y-109472648D01*
X108345428Y-109475848D01*
X108295644Y-109502026D01*
X108261166Y-109526353D01*
X108250022Y-109541937D01*
X108260634Y-109567353D01*
X108286412Y-109604853D01*
X108297854Y-109618852D01*
X108345008Y-109673954D01*
X108405799Y-109638086D01*
X108463653Y-109614192D01*
X108530500Y-109601420D01*
X108594606Y-109600613D01*
X108644236Y-109612615D01*
X108656146Y-109620105D01*
X108678828Y-109654450D01*
X108681584Y-109694013D01*
X108664612Y-109724920D01*
X108654573Y-109730913D01*
X108624490Y-109738357D01*
X108571611Y-109747106D01*
X108506425Y-109755467D01*
X108494400Y-109756778D01*
X108389703Y-109774888D01*
X108313768Y-109805651D01*
X108263408Y-109851907D01*
X108235436Y-109916497D01*
X108226722Y-109995387D01*
X108238760Y-110085065D01*
X108277849Y-110155486D01*
X108344145Y-110206777D01*
X108437806Y-110239067D01*
X108541777Y-110251807D01*
X108626562Y-110251654D01*
X108695335Y-110240083D01*
X108742303Y-110224109D01*
X108801650Y-110196275D01*
X108856494Y-110163973D01*
X108875987Y-110149755D01*
X108926119Y-110108835D01*
X108805197Y-109986477D01*
X108736457Y-110031967D01*
X108667512Y-110066133D01*
X108593889Y-110084004D01*
X108523117Y-110085889D01*
X108462726Y-110072101D01*
X108420243Y-110042949D01*
X108406526Y-110018352D01*
X108408583Y-109978904D01*
X108442670Y-109948737D01*
X108508692Y-109927906D01*
X108581026Y-109918279D01*
X108692348Y-109899910D01*
X108775048Y-109865254D01*
X108830235Y-109813297D01*
X108859012Y-109743023D01*
X108862999Y-109659707D01*
X108843307Y-109572681D01*
X108798411Y-109506902D01*
X108727909Y-109462068D01*
X108631399Y-109437879D01*
X108559900Y-109433137D01*
X108481372Y-109435547D01*
X108481372Y-109435547D01*
G37*
X108481372Y-109435547D02*
X108418092Y-109447548D01*
X108352443Y-109472648D01*
X108345428Y-109475848D01*
X108295644Y-109502026D01*
X108261166Y-109526353D01*
X108250022Y-109541937D01*
X108260634Y-109567353D01*
X108286412Y-109604853D01*
X108297854Y-109618852D01*
X108345008Y-109673954D01*
X108405799Y-109638086D01*
X108463653Y-109614192D01*
X108530500Y-109601420D01*
X108594606Y-109600613D01*
X108644236Y-109612615D01*
X108656146Y-109620105D01*
X108678828Y-109654450D01*
X108681584Y-109694013D01*
X108664612Y-109724920D01*
X108654573Y-109730913D01*
X108624490Y-109738357D01*
X108571611Y-109747106D01*
X108506425Y-109755467D01*
X108494400Y-109756778D01*
X108389703Y-109774888D01*
X108313768Y-109805651D01*
X108263408Y-109851907D01*
X108235436Y-109916497D01*
X108226722Y-109995387D01*
X108238760Y-110085065D01*
X108277849Y-110155486D01*
X108344145Y-110206777D01*
X108437806Y-110239067D01*
X108541777Y-110251807D01*
X108626562Y-110251654D01*
X108695335Y-110240083D01*
X108742303Y-110224109D01*
X108801650Y-110196275D01*
X108856494Y-110163973D01*
X108875987Y-110149755D01*
X108926119Y-110108835D01*
X108805197Y-109986477D01*
X108736457Y-110031967D01*
X108667512Y-110066133D01*
X108593889Y-110084004D01*
X108523117Y-110085889D01*
X108462726Y-110072101D01*
X108420243Y-110042949D01*
X108406526Y-110018352D01*
X108408583Y-109978904D01*
X108442670Y-109948737D01*
X108508692Y-109927906D01*
X108581026Y-109918279D01*
X108692348Y-109899910D01*
X108775048Y-109865254D01*
X108830235Y-109813297D01*
X108859012Y-109743023D01*
X108862999Y-109659707D01*
X108843307Y-109572681D01*
X108798411Y-109506902D01*
X108727909Y-109462068D01*
X108631399Y-109437879D01*
X108559900Y-109433137D01*
X108481372Y-109435547D01*
G36*
X107688331Y-109448310D02*
X107603808Y-109494340D01*
X107537679Y-109567006D01*
X107506522Y-109626106D01*
X107493145Y-109678305D01*
X107484478Y-109752719D01*
X107480763Y-109838442D01*
X107482246Y-109924569D01*
X107489169Y-110000193D01*
X107497255Y-110040584D01*
X107524535Y-110095840D01*
X107571780Y-110154530D01*
X107628718Y-110205852D01*
X107685076Y-110239005D01*
X107686450Y-110239531D01*
X107756384Y-110254018D01*
X107839263Y-110254377D01*
X107918023Y-110241188D01*
X107948434Y-110230617D01*
X108026761Y-110186201D01*
X108082857Y-110128007D01*
X108119714Y-110050965D01*
X108140320Y-109950001D01*
X108144982Y-109897116D01*
X108144387Y-109830663D01*
X107965264Y-109830663D01*
X107959230Y-109927630D01*
X107941862Y-110001523D01*
X107914260Y-110048736D01*
X107894596Y-110062237D01*
X107844213Y-110071651D01*
X107784327Y-110068864D01*
X107732551Y-110055316D01*
X107718973Y-110047862D01*
X107683151Y-110004451D01*
X107659507Y-109938014D01*
X107649442Y-109857161D01*
X107654358Y-109770502D01*
X107665345Y-109718349D01*
X107696891Y-109657951D01*
X107746689Y-109620197D01*
X107806663Y-109607143D01*
X107868736Y-109620849D01*
X107916418Y-109654372D01*
X107941475Y-109682031D01*
X107956100Y-109709294D01*
X107963071Y-109746190D01*
X107965167Y-109802750D01*
X107965264Y-109830663D01*
X108144387Y-109830663D01*
X108143718Y-109755994D01*
X108120735Y-109640271D01*
X108076028Y-109549941D01*
X108009595Y-109485000D01*
X107921435Y-109445445D01*
X107902505Y-109440858D01*
X107788734Y-109430090D01*
X107688331Y-109448310D01*
X107688331Y-109448310D01*
G37*
X107688331Y-109448310D02*
X107603808Y-109494340D01*
X107537679Y-109567006D01*
X107506522Y-109626106D01*
X107493145Y-109678305D01*
X107484478Y-109752719D01*
X107480763Y-109838442D01*
X107482246Y-109924569D01*
X107489169Y-110000193D01*
X107497255Y-110040584D01*
X107524535Y-110095840D01*
X107571780Y-110154530D01*
X107628718Y-110205852D01*
X107685076Y-110239005D01*
X107686450Y-110239531D01*
X107756384Y-110254018D01*
X107839263Y-110254377D01*
X107918023Y-110241188D01*
X107948434Y-110230617D01*
X108026761Y-110186201D01*
X108082857Y-110128007D01*
X108119714Y-110050965D01*
X108140320Y-109950001D01*
X108144982Y-109897116D01*
X108144387Y-109830663D01*
X107965264Y-109830663D01*
X107959230Y-109927630D01*
X107941862Y-110001523D01*
X107914260Y-110048736D01*
X107894596Y-110062237D01*
X107844213Y-110071651D01*
X107784327Y-110068864D01*
X107732551Y-110055316D01*
X107718973Y-110047862D01*
X107683151Y-110004451D01*
X107659507Y-109938014D01*
X107649442Y-109857161D01*
X107654358Y-109770502D01*
X107665345Y-109718349D01*
X107696891Y-109657951D01*
X107746689Y-109620197D01*
X107806663Y-109607143D01*
X107868736Y-109620849D01*
X107916418Y-109654372D01*
X107941475Y-109682031D01*
X107956100Y-109709294D01*
X107963071Y-109746190D01*
X107965167Y-109802750D01*
X107965264Y-109830663D01*
X108144387Y-109830663D01*
X108143718Y-109755994D01*
X108120735Y-109640271D01*
X108076028Y-109549941D01*
X108009595Y-109485000D01*
X107921435Y-109445445D01*
X107902505Y-109440858D01*
X107788734Y-109430090D01*
X107688331Y-109448310D01*
G36*
X107179869Y-109698533D02*
X107178290Y-109821089D01*
X107172519Y-109914179D01*
X107161009Y-109981651D01*
X107142210Y-110027355D01*
X107114574Y-110055139D01*
X107076552Y-110068854D01*
X107029474Y-110072358D01*
X106980168Y-110068432D01*
X106942717Y-110054089D01*
X106915572Y-110025478D01*
X106897185Y-109978751D01*
X106886007Y-109910058D01*
X106880489Y-109815550D01*
X106879079Y-109698533D01*
X106879079Y-109438421D01*
X106695264Y-109438421D01*
X106695264Y-110240526D01*
X106787172Y-110240526D01*
X106842578Y-110238281D01*
X106871109Y-110230396D01*
X106879079Y-110215428D01*
X106883880Y-110202097D01*
X106902986Y-110204917D01*
X106941496Y-110223783D01*
X107029761Y-110252887D01*
X107123377Y-110250825D01*
X107213079Y-110219221D01*
X107255796Y-110194257D01*
X107288379Y-110167226D01*
X107312183Y-110133405D01*
X107328561Y-110088068D01*
X107338869Y-110026489D01*
X107344459Y-109943943D01*
X107346688Y-109835705D01*
X107346974Y-109752004D01*
X107346974Y-109438421D01*
X107179869Y-109438421D01*
X107179869Y-109698533D01*
X107179869Y-109698533D01*
G37*
X107179869Y-109698533D02*
X107178290Y-109821089D01*
X107172519Y-109914179D01*
X107161009Y-109981651D01*
X107142210Y-110027355D01*
X107114574Y-110055139D01*
X107076552Y-110068854D01*
X107029474Y-110072358D01*
X106980168Y-110068432D01*
X106942717Y-110054089D01*
X106915572Y-110025478D01*
X106897185Y-109978751D01*
X106886007Y-109910058D01*
X106880489Y-109815550D01*
X106879079Y-109698533D01*
X106879079Y-109438421D01*
X106695264Y-109438421D01*
X106695264Y-110240526D01*
X106787172Y-110240526D01*
X106842578Y-110238281D01*
X106871109Y-110230396D01*
X106879079Y-110215428D01*
X106883880Y-110202097D01*
X106902986Y-110204917D01*
X106941496Y-110223783D01*
X107029761Y-110252887D01*
X107123377Y-110250825D01*
X107213079Y-110219221D01*
X107255796Y-110194257D01*
X107288379Y-110167226D01*
X107312183Y-110133405D01*
X107328561Y-110088068D01*
X107338869Y-110026489D01*
X107344459Y-109943943D01*
X107346688Y-109835705D01*
X107346974Y-109752004D01*
X107346974Y-109438421D01*
X107179869Y-109438421D01*
X107179869Y-109698533D01*
G36*
X105553424Y-109445419D02*
X105456605Y-109486549D01*
X105426110Y-109506571D01*
X105387135Y-109537340D01*
X105362669Y-109561533D01*
X105358422Y-109569413D01*
X105370416Y-109586899D01*
X105401113Y-109616570D01*
X105425688Y-109637279D01*
X105492954Y-109691336D01*
X105546070Y-109646642D01*
X105587116Y-109617789D01*
X105627137Y-109607829D01*
X105672941Y-109610261D01*
X105745676Y-109628345D01*
X105795744Y-109665881D01*
X105826171Y-109726562D01*
X105839983Y-109814081D01*
X105839987Y-109814136D01*
X105838792Y-109911958D01*
X105820228Y-109983730D01*
X105783196Y-110032595D01*
X105757950Y-110049143D01*
X105690903Y-110069749D01*
X105619291Y-110069762D01*
X105556985Y-110049768D01*
X105542237Y-110040000D01*
X105505250Y-110015047D01*
X105476332Y-110010958D01*
X105445144Y-110029530D01*
X105410664Y-110062887D01*
X105356088Y-110119196D01*
X105416682Y-110169142D01*
X105510302Y-110225513D01*
X105615875Y-110253293D01*
X105726202Y-110251282D01*
X105798657Y-110232862D01*
X105883344Y-110187310D01*
X105951073Y-110115650D01*
X105981843Y-110065066D01*
X106006764Y-109992488D01*
X106019234Y-109900569D01*
X106019330Y-109800948D01*
X106007130Y-109705267D01*
X105982710Y-109625169D01*
X105978864Y-109616956D01*
X105921907Y-109536413D01*
X105844791Y-109477771D01*
X105753610Y-109442247D01*
X105654457Y-109431057D01*
X105553424Y-109445419D01*
X105553424Y-109445419D01*
G37*
X105553424Y-109445419D02*
X105456605Y-109486549D01*
X105426110Y-109506571D01*
X105387135Y-109537340D01*
X105362669Y-109561533D01*
X105358422Y-109569413D01*
X105370416Y-109586899D01*
X105401113Y-109616570D01*
X105425688Y-109637279D01*
X105492954Y-109691336D01*
X105546070Y-109646642D01*
X105587116Y-109617789D01*
X105627137Y-109607829D01*
X105672941Y-109610261D01*
X105745676Y-109628345D01*
X105795744Y-109665881D01*
X105826171Y-109726562D01*
X105839983Y-109814081D01*
X105839987Y-109814136D01*
X105838792Y-109911958D01*
X105820228Y-109983730D01*
X105783196Y-110032595D01*
X105757950Y-110049143D01*
X105690903Y-110069749D01*
X105619291Y-110069762D01*
X105556985Y-110049768D01*
X105542237Y-110040000D01*
X105505250Y-110015047D01*
X105476332Y-110010958D01*
X105445144Y-110029530D01*
X105410664Y-110062887D01*
X105356088Y-110119196D01*
X105416682Y-110169142D01*
X105510302Y-110225513D01*
X105615875Y-110253293D01*
X105726202Y-110251282D01*
X105798657Y-110232862D01*
X105883344Y-110187310D01*
X105951073Y-110115650D01*
X105981843Y-110065066D01*
X106006764Y-109992488D01*
X106019234Y-109900569D01*
X106019330Y-109800948D01*
X106007130Y-109705267D01*
X105982710Y-109625169D01*
X105978864Y-109616956D01*
X105921907Y-109536413D01*
X105844791Y-109477771D01*
X105753610Y-109442247D01*
X105654457Y-109431057D01*
X105553424Y-109445419D01*
G36*
X104941216Y-109435554D02*
X104898426Y-109445949D01*
X104816391Y-109484013D01*
X104746243Y-109542149D01*
X104697695Y-109611852D01*
X104691025Y-109627502D01*
X104681876Y-109668496D01*
X104675471Y-109729138D01*
X104673290Y-109790430D01*
X104673290Y-109906316D01*
X104915593Y-109906316D01*
X105015529Y-109906693D01*
X105085931Y-109908987D01*
X105130687Y-109914938D01*
X105153685Y-109926285D01*
X105158811Y-109944771D01*
X105149952Y-109972136D01*
X105134083Y-110004155D01*
X105089816Y-110057592D01*
X105028301Y-110084215D01*
X104953115Y-110083347D01*
X104867947Y-110054371D01*
X104794341Y-110018611D01*
X104733266Y-110066904D01*
X104672190Y-110115197D01*
X104729649Y-110168285D01*
X104806359Y-110218445D01*
X104900698Y-110248688D01*
X105002173Y-110257151D01*
X105100289Y-110241974D01*
X105116119Y-110236824D01*
X105202353Y-110191791D01*
X105266499Y-110124652D01*
X105309909Y-110033405D01*
X105333936Y-109916044D01*
X105334216Y-109913529D01*
X105336367Y-109785627D01*
X105327671Y-109739997D01*
X105157895Y-109739997D01*
X105142303Y-109747013D01*
X105099971Y-109752388D01*
X105037566Y-109755457D01*
X104998019Y-109755921D01*
X104924272Y-109755630D01*
X104878160Y-109753783D01*
X104853900Y-109748912D01*
X104845706Y-109739555D01*
X104847794Y-109724245D01*
X104849545Y-109718322D01*
X104879440Y-109662668D01*
X104926458Y-109617815D01*
X104967951Y-109598105D01*
X105023074Y-109599295D01*
X105078932Y-109623875D01*
X105125788Y-109664570D01*
X105153906Y-109714108D01*
X105157895Y-109739997D01*
X105327671Y-109739997D01*
X105314926Y-109673133D01*
X105272389Y-109578727D01*
X105211253Y-109505088D01*
X105134015Y-109454893D01*
X105043170Y-109430822D01*
X104941216Y-109435554D01*
X104941216Y-109435554D01*
G37*
X104941216Y-109435554D02*
X104898426Y-109445949D01*
X104816391Y-109484013D01*
X104746243Y-109542149D01*
X104697695Y-109611852D01*
X104691025Y-109627502D01*
X104681876Y-109668496D01*
X104675471Y-109729138D01*
X104673290Y-109790430D01*
X104673290Y-109906316D01*
X104915593Y-109906316D01*
X105015529Y-109906693D01*
X105085931Y-109908987D01*
X105130687Y-109914938D01*
X105153685Y-109926285D01*
X105158811Y-109944771D01*
X105149952Y-109972136D01*
X105134083Y-110004155D01*
X105089816Y-110057592D01*
X105028301Y-110084215D01*
X104953115Y-110083347D01*
X104867947Y-110054371D01*
X104794341Y-110018611D01*
X104733266Y-110066904D01*
X104672190Y-110115197D01*
X104729649Y-110168285D01*
X104806359Y-110218445D01*
X104900698Y-110248688D01*
X105002173Y-110257151D01*
X105100289Y-110241974D01*
X105116119Y-110236824D01*
X105202353Y-110191791D01*
X105266499Y-110124652D01*
X105309909Y-110033405D01*
X105333936Y-109916044D01*
X105334216Y-109913529D01*
X105336367Y-109785627D01*
X105327671Y-109739997D01*
X105157895Y-109739997D01*
X105142303Y-109747013D01*
X105099971Y-109752388D01*
X105037566Y-109755457D01*
X104998019Y-109755921D01*
X104924272Y-109755630D01*
X104878160Y-109753783D01*
X104853900Y-109748912D01*
X104845706Y-109739555D01*
X104847794Y-109724245D01*
X104849545Y-109718322D01*
X104879440Y-109662668D01*
X104926458Y-109617815D01*
X104967951Y-109598105D01*
X105023074Y-109599295D01*
X105078932Y-109623875D01*
X105125788Y-109664570D01*
X105153906Y-109714108D01*
X105157895Y-109739997D01*
X105327671Y-109739997D01*
X105314926Y-109673133D01*
X105272389Y-109578727D01*
X105211253Y-109505088D01*
X105134015Y-109454893D01*
X105043170Y-109430822D01*
X104941216Y-109435554D01*
G36*
X109502043Y-109452226D02*
X109460454Y-109472090D01*
X109420175Y-109500784D01*
X109389490Y-109533809D01*
X109367139Y-109575931D01*
X109351864Y-109631915D01*
X109342408Y-109706528D01*
X109337513Y-109804535D01*
X109335919Y-109930702D01*
X109335894Y-109943914D01*
X109335527Y-110240526D01*
X109519343Y-110240526D01*
X109519343Y-109967081D01*
X109519473Y-109865777D01*
X109520379Y-109792353D01*
X109522827Y-109741271D01*
X109527586Y-109706990D01*
X109535426Y-109683971D01*
X109547115Y-109666673D01*
X109563398Y-109649581D01*
X109620366Y-109612857D01*
X109682555Y-109606042D01*
X109741801Y-109629261D01*
X109762405Y-109646543D01*
X109777530Y-109662791D01*
X109788390Y-109680191D01*
X109795690Y-109704212D01*
X109800137Y-109740322D01*
X109802436Y-109793988D01*
X109803296Y-109870680D01*
X109803422Y-109964043D01*
X109803422Y-110240526D01*
X109987237Y-110240526D01*
X109987237Y-109438421D01*
X109895329Y-109438421D01*
X109840149Y-109440603D01*
X109811680Y-109448351D01*
X109803425Y-109463468D01*
X109803422Y-109463916D01*
X109799592Y-109478720D01*
X109782699Y-109477040D01*
X109749112Y-109460773D01*
X109672937Y-109436840D01*
X109585800Y-109434178D01*
X109502043Y-109452226D01*
X109502043Y-109452226D01*
G37*
X109502043Y-109452226D02*
X109460454Y-109472090D01*
X109420175Y-109500784D01*
X109389490Y-109533809D01*
X109367139Y-109575931D01*
X109351864Y-109631915D01*
X109342408Y-109706528D01*
X109337513Y-109804535D01*
X109335919Y-109930702D01*
X109335894Y-109943914D01*
X109335527Y-110240526D01*
X109519343Y-110240526D01*
X109519343Y-109967081D01*
X109519473Y-109865777D01*
X109520379Y-109792353D01*
X109522827Y-109741271D01*
X109527586Y-109706990D01*
X109535426Y-109683971D01*
X109547115Y-109666673D01*
X109563398Y-109649581D01*
X109620366Y-109612857D01*
X109682555Y-109606042D01*
X109741801Y-109629261D01*
X109762405Y-109646543D01*
X109777530Y-109662791D01*
X109788390Y-109680191D01*
X109795690Y-109704212D01*
X109800137Y-109740322D01*
X109802436Y-109793988D01*
X109803296Y-109870680D01*
X109803422Y-109964043D01*
X109803422Y-110240526D01*
X109987237Y-110240526D01*
X109987237Y-109438421D01*
X109895329Y-109438421D01*
X109840149Y-109440603D01*
X109811680Y-109448351D01*
X109803425Y-109463468D01*
X109803422Y-109463916D01*
X109799592Y-109478720D01*
X109782699Y-109477040D01*
X109749112Y-109460773D01*
X109672937Y-109436840D01*
X109585800Y-109434178D01*
X109502043Y-109452226D01*
G36*
X106108612Y-109437645D02*
X106051135Y-109455206D01*
X106014128Y-109477395D01*
X106002073Y-109494942D01*
X106005391Y-109515742D01*
X106026921Y-109548419D01*
X106045126Y-109571562D01*
X106082656Y-109613402D01*
X106110852Y-109631005D01*
X106134889Y-109629856D01*
X106206192Y-109611710D01*
X106258558Y-109612534D01*
X106301082Y-109633098D01*
X106315358Y-109645134D01*
X106361053Y-109687483D01*
X106361053Y-110240526D01*
X106544869Y-110240526D01*
X106544869Y-109438421D01*
X106452961Y-109438421D01*
X106397781Y-109440603D01*
X106369312Y-109448351D01*
X106361057Y-109463468D01*
X106361053Y-109463916D01*
X106357155Y-109479749D01*
X106339526Y-109477684D01*
X106315099Y-109466261D01*
X106264650Y-109445005D01*
X106223684Y-109432216D01*
X106170972Y-109428938D01*
X106108612Y-109437645D01*
X106108612Y-109437645D01*
G37*
X106108612Y-109437645D02*
X106051135Y-109455206D01*
X106014128Y-109477395D01*
X106002073Y-109494942D01*
X106005391Y-109515742D01*
X106026921Y-109548419D01*
X106045126Y-109571562D01*
X106082656Y-109613402D01*
X106110852Y-109631005D01*
X106134889Y-109629856D01*
X106206192Y-109611710D01*
X106258558Y-109612534D01*
X106301082Y-109633098D01*
X106315358Y-109645134D01*
X106361053Y-109687483D01*
X106361053Y-110240526D01*
X106544869Y-110240526D01*
X106544869Y-109438421D01*
X106452961Y-109438421D01*
X106397781Y-109440603D01*
X106369312Y-109448351D01*
X106361057Y-109463468D01*
X106361053Y-109463916D01*
X106357155Y-109479749D01*
X106339526Y-109477684D01*
X106315099Y-109466261D01*
X106264650Y-109445005D01*
X106223684Y-109432216D01*
X106170972Y-109428938D01*
X106108612Y-109437645D01*
G36*
X107999036Y-103898576D02*
X107923487Y-104299322D01*
X107365959Y-104529154D01*
X107031535Y-104301748D01*
X106937878Y-104238431D01*
X106853218Y-104181896D01*
X106781505Y-104134727D01*
X106726689Y-104099502D01*
X106692720Y-104078805D01*
X106683470Y-104074342D01*
X106666805Y-104085820D01*
X106631194Y-104117551D01*
X106580629Y-104165483D01*
X106519100Y-104225562D01*
X106450601Y-104293733D01*
X106379121Y-104365945D01*
X106308653Y-104438142D01*
X106243189Y-104506273D01*
X106186720Y-104566283D01*
X106143237Y-104614119D01*
X106116732Y-104645727D01*
X106110395Y-104656305D01*
X106119514Y-104675806D01*
X106145080Y-104718531D01*
X106184403Y-104780298D01*
X106234797Y-104856931D01*
X106293573Y-104944248D01*
X106327632Y-104994052D01*
X106389711Y-105084993D01*
X106444874Y-105167059D01*
X106490446Y-105236163D01*
X106523750Y-105288222D01*
X106542110Y-105319150D01*
X106544869Y-105325650D01*
X106538615Y-105344121D01*
X106521566Y-105387172D01*
X106496297Y-105448749D01*
X106465378Y-105522799D01*
X106431382Y-105603270D01*
X106396882Y-105684107D01*
X106364449Y-105759258D01*
X106336657Y-105822671D01*
X106316077Y-105868293D01*
X106305281Y-105890069D01*
X106304644Y-105890926D01*
X106287693Y-105895084D01*
X106242549Y-105904361D01*
X106173890Y-105917844D01*
X106086398Y-105934621D01*
X105984750Y-105953781D01*
X105925444Y-105964830D01*
X105816828Y-105985510D01*
X105718723Y-106005189D01*
X105636091Y-106022789D01*
X105573896Y-106037233D01*
X105537101Y-106047446D01*
X105529704Y-106050686D01*
X105522460Y-106072617D01*
X105516615Y-106122147D01*
X105512165Y-106193485D01*
X105509107Y-106280839D01*
X105507435Y-106378417D01*
X105507147Y-106480426D01*
X105508239Y-106581075D01*
X105510706Y-106674572D01*
X105514544Y-106755125D01*
X105519750Y-106816942D01*
X105526319Y-106854230D01*
X105530259Y-106861993D01*
X105553812Y-106871298D01*
X105603718Y-106884600D01*
X105673377Y-106900337D01*
X105756187Y-106916946D01*
X105785095Y-106922319D01*
X105924469Y-106947848D01*
X106034564Y-106968408D01*
X106119018Y-106984815D01*
X106181470Y-106997887D01*
X106225556Y-107008441D01*
X106254915Y-107017294D01*
X106273185Y-107025263D01*
X106284002Y-107033165D01*
X106285515Y-107034727D01*
X106300623Y-107059886D01*
X106323671Y-107108850D01*
X106352356Y-107175621D01*
X106384378Y-107254205D01*
X106417435Y-107338607D01*
X106449227Y-107422830D01*
X106477451Y-107500879D01*
X106499807Y-107566759D01*
X106513993Y-107614473D01*
X106517707Y-107638027D01*
X106517398Y-107638852D01*
X106504811Y-107658104D01*
X106476256Y-107700463D01*
X106434733Y-107761521D01*
X106383244Y-107836868D01*
X106324789Y-107922096D01*
X106308142Y-107946315D01*
X106248785Y-108034123D01*
X106196553Y-108114238D01*
X106154292Y-108182062D01*
X106124847Y-108232993D01*
X106111063Y-108262431D01*
X106110395Y-108266048D01*
X106121976Y-108285057D01*
X106153976Y-108322714D01*
X106202282Y-108374973D01*
X106262780Y-108437786D01*
X106331356Y-108507106D01*
X106403896Y-108578885D01*
X106476288Y-108649077D01*
X106544416Y-108713635D01*
X106604168Y-108768510D01*
X106651429Y-108809656D01*
X106682087Y-108833026D01*
X106690568Y-108836842D01*
X106710309Y-108827855D01*
X106750726Y-108803616D01*
X106805237Y-108768209D01*
X106847177Y-108739711D01*
X106923171Y-108687418D01*
X107013166Y-108625845D01*
X107103436Y-108564370D01*
X107151968Y-108531469D01*
X107316238Y-108420359D01*
X107454131Y-108494916D01*
X107516951Y-108527578D01*
X107570371Y-108552966D01*
X107606516Y-108567446D01*
X107615716Y-108569460D01*
X107626779Y-108554584D01*
X107648606Y-108512547D01*
X107679566Y-108447227D01*
X107718030Y-108362500D01*
X107762368Y-108262245D01*
X107810953Y-108150339D01*
X107862154Y-108030659D01*
X107914341Y-107907084D01*
X107965887Y-107783491D01*
X108015160Y-107663757D01*
X108060533Y-107551759D01*
X108100375Y-107451377D01*
X108133058Y-107366486D01*
X108156951Y-107300965D01*
X108170426Y-107258690D01*
X108172594Y-107244172D01*
X108155417Y-107225653D01*
X108117810Y-107195590D01*
X108067634Y-107160232D01*
X108063422Y-107157434D01*
X107933736Y-107053625D01*
X107829166Y-106932515D01*
X107750619Y-106797976D01*
X107699001Y-106653882D01*
X107675218Y-106504105D01*
X107680177Y-106352517D01*
X107714783Y-106202992D01*
X107779943Y-106059400D01*
X107799114Y-106027984D01*
X107898826Y-105901125D01*
X108016623Y-105799255D01*
X108148429Y-105722904D01*
X108290167Y-105672602D01*
X108437758Y-105648879D01*
X108587127Y-105652265D01*
X108734197Y-105683288D01*
X108874889Y-105742480D01*
X109005127Y-105830369D01*
X109045414Y-105866042D01*
X109147945Y-105977706D01*
X109222659Y-106095257D01*
X109273910Y-106227020D01*
X109302454Y-106357507D01*
X109309500Y-106504216D01*
X109286004Y-106651653D01*
X109234351Y-106794834D01*
X109156929Y-106928777D01*
X109056125Y-107048498D01*
X108934324Y-107149014D01*
X108918316Y-107159609D01*
X108867602Y-107194306D01*
X108829050Y-107224370D01*
X108810619Y-107243565D01*
X108810351Y-107244172D01*
X108814308Y-107264936D01*
X108829993Y-107312062D01*
X108855778Y-107381673D01*
X108890031Y-107469893D01*
X108931123Y-107572844D01*
X108977424Y-107686650D01*
X109027304Y-107807435D01*
X109079133Y-107931321D01*
X109131281Y-108054432D01*
X109182118Y-108172891D01*
X109230013Y-108282823D01*
X109273338Y-108380349D01*
X109310462Y-108461593D01*
X109339756Y-108522679D01*
X109359588Y-108559730D01*
X109367574Y-108569460D01*
X109391979Y-108561883D01*
X109437642Y-108541560D01*
X109496690Y-108512125D01*
X109529160Y-108494916D01*
X109667053Y-108420359D01*
X109831323Y-108531469D01*
X109915179Y-108588390D01*
X110006987Y-108651030D01*
X110093020Y-108710011D01*
X110136113Y-108739711D01*
X110196723Y-108780410D01*
X110248045Y-108812663D01*
X110283385Y-108832384D01*
X110294863Y-108836554D01*
X110311570Y-108825307D01*
X110348546Y-108793911D01*
X110402205Y-108745624D01*
X110468962Y-108683708D01*
X110545234Y-108611421D01*
X110593473Y-108565008D01*
X110677867Y-108482087D01*
X110750803Y-108407920D01*
X110809331Y-108345680D01*
X110850503Y-108298541D01*
X110871372Y-108269673D01*
X110873374Y-108263815D01*
X110864083Y-108241532D01*
X110838409Y-108196477D01*
X110799200Y-108133211D01*
X110749303Y-108056295D01*
X110691567Y-107970292D01*
X110675149Y-107946315D01*
X110615323Y-107859170D01*
X110561650Y-107780710D01*
X110517130Y-107715345D01*
X110484765Y-107667484D01*
X110467555Y-107641535D01*
X110465893Y-107638852D01*
X110468379Y-107618172D01*
X110481577Y-107572704D01*
X110503186Y-107508444D01*
X110530904Y-107431387D01*
X110562430Y-107347529D01*
X110595463Y-107262866D01*
X110627701Y-107183392D01*
X110656843Y-107115104D01*
X110680588Y-107063997D01*
X110696635Y-107036067D01*
X110697775Y-107034727D01*
X110707588Y-107026745D01*
X110724161Y-107018851D01*
X110751132Y-107010229D01*
X110792139Y-107000062D01*
X110850820Y-106987531D01*
X110930813Y-106971821D01*
X111035755Y-106952113D01*
X111169285Y-106927592D01*
X111198196Y-106922319D01*
X111283882Y-106905764D01*
X111358582Y-106889569D01*
X111415694Y-106875296D01*
X111448617Y-106864508D01*
X111453031Y-106861993D01*
X111460306Y-106839696D01*
X111466219Y-106789869D01*
X111470766Y-106718304D01*
X111473945Y-106630793D01*
X111475749Y-106533128D01*
X111476177Y-106431101D01*
X111475223Y-106330503D01*
X111472884Y-106237127D01*
X111469156Y-106156765D01*
X111464034Y-106095209D01*
X111457516Y-106058250D01*
X111453586Y-106050686D01*
X111431708Y-106043056D01*
X111381891Y-106030642D01*
X111309097Y-106014522D01*
X111218289Y-105995773D01*
X111114431Y-105975471D01*
X111057846Y-105964830D01*
X110950486Y-105944760D01*
X110854746Y-105926580D01*
X110775306Y-105911199D01*
X110716846Y-105899531D01*
X110684045Y-105892488D01*
X110678646Y-105890926D01*
X110669522Y-105873322D01*
X110650235Y-105830918D01*
X110623355Y-105769772D01*
X110591454Y-105695943D01*
X110557102Y-105615489D01*
X110522871Y-105534468D01*
X110491331Y-105458937D01*
X110465054Y-105394955D01*
X110446611Y-105348580D01*
X110438571Y-105325869D01*
X110438422Y-105324876D01*
X110447535Y-105306961D01*
X110473086Y-105265733D01*
X110512388Y-105205291D01*
X110562757Y-105129731D01*
X110621506Y-105043152D01*
X110655658Y-104993421D01*
X110717890Y-104902236D01*
X110773164Y-104819449D01*
X110818782Y-104749249D01*
X110852048Y-104695824D01*
X110870264Y-104663361D01*
X110872895Y-104656083D01*
X110861586Y-104639145D01*
X110830319Y-104602978D01*
X110783090Y-104551635D01*
X110723892Y-104489167D01*
X110656719Y-104419626D01*
X110585566Y-104347065D01*
X110514426Y-104275535D01*
X110447293Y-104209087D01*
X110388161Y-104151774D01*
X110341025Y-104107647D01*
X110309877Y-104080759D01*
X110299457Y-104074342D01*
X110282491Y-104083365D01*
X110241911Y-104108715D01*
X110181663Y-104147810D01*
X110105693Y-104198071D01*
X110017946Y-104256917D01*
X109951756Y-104301748D01*
X109617332Y-104529154D01*
X109338567Y-104414238D01*
X109059803Y-104299322D01*
X108984254Y-103898576D01*
X108908706Y-103497829D01*
X108074585Y-103497829D01*
X107999036Y-103898576D01*
X107999036Y-103898576D01*
G37*
X107999036Y-103898576D02*
X107923487Y-104299322D01*
X107365959Y-104529154D01*
X107031535Y-104301748D01*
X106937878Y-104238431D01*
X106853218Y-104181896D01*
X106781505Y-104134727D01*
X106726689Y-104099502D01*
X106692720Y-104078805D01*
X106683470Y-104074342D01*
X106666805Y-104085820D01*
X106631194Y-104117551D01*
X106580629Y-104165483D01*
X106519100Y-104225562D01*
X106450601Y-104293733D01*
X106379121Y-104365945D01*
X106308653Y-104438142D01*
X106243189Y-104506273D01*
X106186720Y-104566283D01*
X106143237Y-104614119D01*
X106116732Y-104645727D01*
X106110395Y-104656305D01*
X106119514Y-104675806D01*
X106145080Y-104718531D01*
X106184403Y-104780298D01*
X106234797Y-104856931D01*
X106293573Y-104944248D01*
X106327632Y-104994052D01*
X106389711Y-105084993D01*
X106444874Y-105167059D01*
X106490446Y-105236163D01*
X106523750Y-105288222D01*
X106542110Y-105319150D01*
X106544869Y-105325650D01*
X106538615Y-105344121D01*
X106521566Y-105387172D01*
X106496297Y-105448749D01*
X106465378Y-105522799D01*
X106431382Y-105603270D01*
X106396882Y-105684107D01*
X106364449Y-105759258D01*
X106336657Y-105822671D01*
X106316077Y-105868293D01*
X106305281Y-105890069D01*
X106304644Y-105890926D01*
X106287693Y-105895084D01*
X106242549Y-105904361D01*
X106173890Y-105917844D01*
X106086398Y-105934621D01*
X105984750Y-105953781D01*
X105925444Y-105964830D01*
X105816828Y-105985510D01*
X105718723Y-106005189D01*
X105636091Y-106022789D01*
X105573896Y-106037233D01*
X105537101Y-106047446D01*
X105529704Y-106050686D01*
X105522460Y-106072617D01*
X105516615Y-106122147D01*
X105512165Y-106193485D01*
X105509107Y-106280839D01*
X105507435Y-106378417D01*
X105507147Y-106480426D01*
X105508239Y-106581075D01*
X105510706Y-106674572D01*
X105514544Y-106755125D01*
X105519750Y-106816942D01*
X105526319Y-106854230D01*
X105530259Y-106861993D01*
X105553812Y-106871298D01*
X105603718Y-106884600D01*
X105673377Y-106900337D01*
X105756187Y-106916946D01*
X105785095Y-106922319D01*
X105924469Y-106947848D01*
X106034564Y-106968408D01*
X106119018Y-106984815D01*
X106181470Y-106997887D01*
X106225556Y-107008441D01*
X106254915Y-107017294D01*
X106273185Y-107025263D01*
X106284002Y-107033165D01*
X106285515Y-107034727D01*
X106300623Y-107059886D01*
X106323671Y-107108850D01*
X106352356Y-107175621D01*
X106384378Y-107254205D01*
X106417435Y-107338607D01*
X106449227Y-107422830D01*
X106477451Y-107500879D01*
X106499807Y-107566759D01*
X106513993Y-107614473D01*
X106517707Y-107638027D01*
X106517398Y-107638852D01*
X106504811Y-107658104D01*
X106476256Y-107700463D01*
X106434733Y-107761521D01*
X106383244Y-107836868D01*
X106324789Y-107922096D01*
X106308142Y-107946315D01*
X106248785Y-108034123D01*
X106196553Y-108114238D01*
X106154292Y-108182062D01*
X106124847Y-108232993D01*
X106111063Y-108262431D01*
X106110395Y-108266048D01*
X106121976Y-108285057D01*
X106153976Y-108322714D01*
X106202282Y-108374973D01*
X106262780Y-108437786D01*
X106331356Y-108507106D01*
X106403896Y-108578885D01*
X106476288Y-108649077D01*
X106544416Y-108713635D01*
X106604168Y-108768510D01*
X106651429Y-108809656D01*
X106682087Y-108833026D01*
X106690568Y-108836842D01*
X106710309Y-108827855D01*
X106750726Y-108803616D01*
X106805237Y-108768209D01*
X106847177Y-108739711D01*
X106923171Y-108687418D01*
X107013166Y-108625845D01*
X107103436Y-108564370D01*
X107151968Y-108531469D01*
X107316238Y-108420359D01*
X107454131Y-108494916D01*
X107516951Y-108527578D01*
X107570371Y-108552966D01*
X107606516Y-108567446D01*
X107615716Y-108569460D01*
X107626779Y-108554584D01*
X107648606Y-108512547D01*
X107679566Y-108447227D01*
X107718030Y-108362500D01*
X107762368Y-108262245D01*
X107810953Y-108150339D01*
X107862154Y-108030659D01*
X107914341Y-107907084D01*
X107965887Y-107783491D01*
X108015160Y-107663757D01*
X108060533Y-107551759D01*
X108100375Y-107451377D01*
X108133058Y-107366486D01*
X108156951Y-107300965D01*
X108170426Y-107258690D01*
X108172594Y-107244172D01*
X108155417Y-107225653D01*
X108117810Y-107195590D01*
X108067634Y-107160232D01*
X108063422Y-107157434D01*
X107933736Y-107053625D01*
X107829166Y-106932515D01*
X107750619Y-106797976D01*
X107699001Y-106653882D01*
X107675218Y-106504105D01*
X107680177Y-106352517D01*
X107714783Y-106202992D01*
X107779943Y-106059400D01*
X107799114Y-106027984D01*
X107898826Y-105901125D01*
X108016623Y-105799255D01*
X108148429Y-105722904D01*
X108290167Y-105672602D01*
X108437758Y-105648879D01*
X108587127Y-105652265D01*
X108734197Y-105683288D01*
X108874889Y-105742480D01*
X109005127Y-105830369D01*
X109045414Y-105866042D01*
X109147945Y-105977706D01*
X109222659Y-106095257D01*
X109273910Y-106227020D01*
X109302454Y-106357507D01*
X109309500Y-106504216D01*
X109286004Y-106651653D01*
X109234351Y-106794834D01*
X109156929Y-106928777D01*
X109056125Y-107048498D01*
X108934324Y-107149014D01*
X108918316Y-107159609D01*
X108867602Y-107194306D01*
X108829050Y-107224370D01*
X108810619Y-107243565D01*
X108810351Y-107244172D01*
X108814308Y-107264936D01*
X108829993Y-107312062D01*
X108855778Y-107381673D01*
X108890031Y-107469893D01*
X108931123Y-107572844D01*
X108977424Y-107686650D01*
X109027304Y-107807435D01*
X109079133Y-107931321D01*
X109131281Y-108054432D01*
X109182118Y-108172891D01*
X109230013Y-108282823D01*
X109273338Y-108380349D01*
X109310462Y-108461593D01*
X109339756Y-108522679D01*
X109359588Y-108559730D01*
X109367574Y-108569460D01*
X109391979Y-108561883D01*
X109437642Y-108541560D01*
X109496690Y-108512125D01*
X109529160Y-108494916D01*
X109667053Y-108420359D01*
X109831323Y-108531469D01*
X109915179Y-108588390D01*
X110006987Y-108651030D01*
X110093020Y-108710011D01*
X110136113Y-108739711D01*
X110196723Y-108780410D01*
X110248045Y-108812663D01*
X110283385Y-108832384D01*
X110294863Y-108836554D01*
X110311570Y-108825307D01*
X110348546Y-108793911D01*
X110402205Y-108745624D01*
X110468962Y-108683708D01*
X110545234Y-108611421D01*
X110593473Y-108565008D01*
X110677867Y-108482087D01*
X110750803Y-108407920D01*
X110809331Y-108345680D01*
X110850503Y-108298541D01*
X110871372Y-108269673D01*
X110873374Y-108263815D01*
X110864083Y-108241532D01*
X110838409Y-108196477D01*
X110799200Y-108133211D01*
X110749303Y-108056295D01*
X110691567Y-107970292D01*
X110675149Y-107946315D01*
X110615323Y-107859170D01*
X110561650Y-107780710D01*
X110517130Y-107715345D01*
X110484765Y-107667484D01*
X110467555Y-107641535D01*
X110465893Y-107638852D01*
X110468379Y-107618172D01*
X110481577Y-107572704D01*
X110503186Y-107508444D01*
X110530904Y-107431387D01*
X110562430Y-107347529D01*
X110595463Y-107262866D01*
X110627701Y-107183392D01*
X110656843Y-107115104D01*
X110680588Y-107063997D01*
X110696635Y-107036067D01*
X110697775Y-107034727D01*
X110707588Y-107026745D01*
X110724161Y-107018851D01*
X110751132Y-107010229D01*
X110792139Y-107000062D01*
X110850820Y-106987531D01*
X110930813Y-106971821D01*
X111035755Y-106952113D01*
X111169285Y-106927592D01*
X111198196Y-106922319D01*
X111283882Y-106905764D01*
X111358582Y-106889569D01*
X111415694Y-106875296D01*
X111448617Y-106864508D01*
X111453031Y-106861993D01*
X111460306Y-106839696D01*
X111466219Y-106789869D01*
X111470766Y-106718304D01*
X111473945Y-106630793D01*
X111475749Y-106533128D01*
X111476177Y-106431101D01*
X111475223Y-106330503D01*
X111472884Y-106237127D01*
X111469156Y-106156765D01*
X111464034Y-106095209D01*
X111457516Y-106058250D01*
X111453586Y-106050686D01*
X111431708Y-106043056D01*
X111381891Y-106030642D01*
X111309097Y-106014522D01*
X111218289Y-105995773D01*
X111114431Y-105975471D01*
X111057846Y-105964830D01*
X110950486Y-105944760D01*
X110854746Y-105926580D01*
X110775306Y-105911199D01*
X110716846Y-105899531D01*
X110684045Y-105892488D01*
X110678646Y-105890926D01*
X110669522Y-105873322D01*
X110650235Y-105830918D01*
X110623355Y-105769772D01*
X110591454Y-105695943D01*
X110557102Y-105615489D01*
X110522871Y-105534468D01*
X110491331Y-105458937D01*
X110465054Y-105394955D01*
X110446611Y-105348580D01*
X110438571Y-105325869D01*
X110438422Y-105324876D01*
X110447535Y-105306961D01*
X110473086Y-105265733D01*
X110512388Y-105205291D01*
X110562757Y-105129731D01*
X110621506Y-105043152D01*
X110655658Y-104993421D01*
X110717890Y-104902236D01*
X110773164Y-104819449D01*
X110818782Y-104749249D01*
X110852048Y-104695824D01*
X110870264Y-104663361D01*
X110872895Y-104656083D01*
X110861586Y-104639145D01*
X110830319Y-104602978D01*
X110783090Y-104551635D01*
X110723892Y-104489167D01*
X110656719Y-104419626D01*
X110585566Y-104347065D01*
X110514426Y-104275535D01*
X110447293Y-104209087D01*
X110388161Y-104151774D01*
X110341025Y-104107647D01*
X110309877Y-104080759D01*
X110299457Y-104074342D01*
X110282491Y-104083365D01*
X110241911Y-104108715D01*
X110181663Y-104147810D01*
X110105693Y-104198071D01*
X110017946Y-104256917D01*
X109951756Y-104301748D01*
X109617332Y-104529154D01*
X109338567Y-104414238D01*
X109059803Y-104299322D01*
X108984254Y-103898576D01*
X108908706Y-103497829D01*
X108074585Y-103497829D01*
X107999036Y-103898576D01*
M02*
