M48
;DRILL file {KiCad 4.0.7-e2-6376~58~ubuntu16.04.1} date Tue Aug 14 19:25:40 2018
;FORMAT={-:-/ absolute / inch / decimal}
FMAT,2
INCH,TZ
T1C0.016
T2C0.020
T3C0.039
T4C0.040
T5C0.014
T6C0.087
T7C0.126
%
G90
G05
M72
T1
X5.2559Y-4.498
X5.2953Y-4.498
X5.3262Y-4.498
X7.0177Y-3.1594
T2
X3.5827Y-4.6949
X3.5925Y-4.2126
X3.7205Y-4.626
X4.5571Y-4.6955
X4.6457Y-4.7539
X5.1437Y-3.622
X5.374Y-3.622
X5.561Y-4.5669
X6.7028Y-4.5571
X6.8898Y-4.1437
T3
X3.4449Y-4.3228
X3.4449Y-4.4228
X3.4449Y-4.5228
X3.4449Y-4.6228
X3.4449Y-4.7228
X3.4449Y-4.8228
X3.4843Y-3.75
X3.5827Y-3.75
X3.6417Y-4.8524
X3.6811Y-3.75
X3.7402Y-4.8524
X3.8386Y-4.8524
X4.5866Y-3.75
X4.685Y-3.75
X4.7441Y-4.8524
X4.7835Y-3.75
X4.8425Y-4.8524
X4.9409Y-4.8524
X4.9803Y-3.8287
X5.0803Y-3.8287
X5.1378Y-4.3898
X5.1803Y-3.8287
X5.2378Y-4.3898
X5.2803Y-3.8287
X5.3378Y-4.3898
X5.3803Y-3.8287
X5.4378Y-4.3898
X5.4803Y-3.8287
X5.5378Y-4.3898
X5.6378Y-4.3898
X5.689Y-3.75
X5.7874Y-3.75
X5.8465Y-4.8524
X5.8858Y-3.75
X5.9449Y-4.8524
X6.0433Y-4.8524
X6.7913Y-3.75
X6.8898Y-3.75
X6.9488Y-4.8524
X6.9882Y-3.75
X7.0472Y-4.8524
X7.1457Y-4.8524
X7.185Y-3.2205
X7.185Y-3.3205
X7.185Y-3.4205
X7.185Y-3.5205
X7.185Y-3.6205
X7.185Y-3.7205
T4
X5.0559Y-3.3063
X5.0559Y-3.4063
X5.1559Y-3.3063
X5.1559Y-3.4063
X5.2559Y-3.3063
X5.2559Y-3.4063
X5.3559Y-3.3063
X5.3559Y-3.4063
X5.4559Y-3.3063
X5.4559Y-3.4063
T5
X3.4941Y-3.9862
X3.4941Y-4.065
X3.5531Y-3.9862
X3.5531Y-4.065
X3.6122Y-3.9862
X3.6122Y-4.065
X3.6713Y-3.9862
X3.6713Y-4.065
X5.1476Y-3.9862
X5.1476Y-4.065
X5.2067Y-3.9862
X5.2067Y-4.065
X5.2657Y-3.9862
X5.2657Y-4.065
X5.3248Y-3.9862
X5.3248Y-4.065
X6.8012Y-3.9862
X6.8012Y-4.065
X6.8602Y-3.9862
X6.8602Y-4.065
X6.9193Y-3.9862
X6.9193Y-4.065
X6.9783Y-3.9862
X6.9783Y-4.065
T6
X3.4094Y-3.4744
X3.5669Y-4.5768
X3.7559Y-3.4744
X3.9134Y-4.5768
X4.5118Y-3.4744
X4.6693Y-4.5768
X4.8583Y-3.4744
X5.0157Y-4.5768
X5.6142Y-3.4744
X5.7717Y-4.5768
X5.9606Y-3.4744
X6.1181Y-4.5768
X6.7165Y-3.4744
X6.874Y-4.5768
X7.063Y-3.4744
X7.2205Y-4.5768
T7
X4.1339Y-3.4744
X4.2913Y-4.5768
X6.3386Y-3.4744
X6.4961Y-4.5768
T0
M30
