M48
INCH,TZ
T1C0.016
T2C0.018
T3C0.031
T4C0.033
T5C0.039
T6C0.040
T7C0.055
T8C0.059
T9C0.126
%
G90
G05
T1
X63121Y-27346
X63154Y-22117
X71896Y-23655
T2
X60600Y-20800
X61100Y-18536
X62000Y-34200
X62400Y-17500
X62736Y-18700
X63200Y-34200
X63418Y-28431
X63600Y-18100
X65200Y-17500
X66700Y-28900
X66800Y-25000
X67900Y-32100
X68300Y-16500
X68458Y-21322
X69000Y-30400
X69434Y-15511
X70100Y-32700
X70400Y-27500
X71900Y-18300
X73000Y-27500
X73800Y-18800
X74600Y-17200
T3
X71550Y-19600
X71550Y-20600
X74550Y-19600
X74550Y-20600
T4
X60000Y-42500
X60787Y-42500
X61575Y-42500
T5
X68500Y-26000
X68500Y-29000
X69500Y-26000
X69500Y-29000
X70500Y-26000
X70500Y-29000
X71500Y-26000
X71500Y-29000
X72500Y-26000
X72500Y-29000
X73500Y-26000
X73500Y-29000
X74500Y-26000
X74500Y-29000
X75500Y-26000
X75500Y-29000
X76500Y-26000
X76500Y-29000
T6
X59366Y-19839
X59366Y-20839
X59366Y-21839
X59366Y-22839
X59366Y-23839
X59366Y-24839
X59366Y-25839
X59366Y-26839
X59366Y-28439
X59366Y-29439
X59366Y-30439
X59366Y-31439
X59366Y-32439
X59366Y-33439
X59366Y-34439
X59366Y-35439
X59366Y-36439
X59366Y-37439
X60500Y-40500
X60666Y-36935
X60666Y-37935
X60666Y-38935
X61500Y-20000
X61500Y-31000
X61500Y-32000
X61500Y-40500
X61666Y-36935
X61666Y-37935
X61666Y-38935
X62500Y-20000
X62500Y-31000
X62500Y-32000
X62666Y-36935
X62666Y-37935
X62750Y-15500
X62750Y-16500
X63500Y-20000
X63500Y-31000
X63500Y-32000
X63666Y-36935
X63666Y-37935
X63750Y-15500
X63750Y-16500
X64000Y-22000
X64000Y-23000
X64500Y-31000
X64500Y-32000
X64750Y-15500
X64750Y-16500
X65000Y-22000
X65000Y-23000
X65500Y-31000
X65500Y-32000
X65750Y-15500
X65750Y-16500
X66000Y-22000
X66000Y-23000
X66750Y-15500
X66750Y-16500
X67000Y-22000
X67000Y-23000
X67386Y-18784
X67386Y-19784
X68000Y-22000
X68000Y-23000
X68386Y-18784
X68386Y-19784
X69000Y-22000
X69000Y-23000
X69385Y-18784
X69385Y-19784
X71250Y-15500
X71250Y-16500
X72250Y-15500
X72250Y-16500
X73250Y-15500
X73250Y-16500
X74250Y-15500
X74250Y-16500
X75250Y-15500
X75250Y-16500
X78366Y-19839
X78366Y-20839
X78366Y-21839
X78366Y-22839
X78366Y-23839
X78366Y-24839
X78366Y-26839
X78366Y-27839
X78366Y-28839
X78366Y-29839
X78366Y-30839
X78366Y-31839
X78366Y-32839
X78366Y-33839
T7
X64826Y-40079
X65732Y-39095
X65732Y-43898
X67700Y-40079
X69668Y-39095
X69668Y-43898
X70574Y-40079
X72926Y-40079
X73832Y-39095
X73832Y-43898
X75800Y-40079
X77768Y-39095
X77768Y-43898
X78674Y-40079
T8
X59173Y-42500
X62402Y-42500
T9
X59380Y-38840
X65380Y-18840
X76380Y-18840
T0
M30
