M48
;DRILL file {KiCad 4.0.7-e2-6376~58~ubuntu16.04.1} date Mon Aug 13 19:10:42 2018
;FORMAT={-:-/ absolute / inch / decimal}
FMAT,2
INCH,TZ
T1C0.014
T2C0.018
T3C0.020
T4C0.031
T5C0.033
T6C0.040
T7C0.055
T8C0.051
T9C0.096
T10C0.126
%
G90
G05
M72
T1
X6.1183Y-2.24
X6.2234Y-2.2
X6.225Y-1.8
X6.23Y-1.84
X6.4Y-2.93
X6.4084Y-2.62
X6.41Y-2.73
X6.415Y-2.83
X6.425Y-2.875
X6.4563Y-2.995
X6.4563Y-2.945
X6.49Y-2.3634
X6.535Y-2.3634
X6.56Y-2.65
X6.56Y-2.75
X6.56Y-2.85
X6.61Y-3.49
X6.61Y-3.24
X6.64Y-2.47
X6.77Y-1.4866
X6.82Y-1.51
X6.86Y-2.45
X6.95Y-2.82
X6.9562Y-1.7438
X7.01Y-1.76
X7.02Y-2.9234
T2
X6.035Y-2.13
X6.05Y-2.035
X6.055Y-2.555
X6.27Y-2.04
X6.455Y-2.
X6.68Y-2.13
X6.7836Y-3.3344
X6.94Y-2.71
T3
X6.89Y-1.73
X7.25Y-3.57
T4
X7.17Y-2.25
X7.17Y-2.35
X7.17Y-2.45
X7.17Y-2.55
X7.17Y-2.65
X7.17Y-2.75
X7.17Y-2.85
X7.17Y-2.95
X7.17Y-3.05
X7.47Y-2.25
X7.47Y-2.35
X7.47Y-2.45
X7.47Y-2.55
X7.47Y-2.65
X7.47Y-2.75
X7.47Y-2.85
X7.47Y-2.95
X7.47Y-3.05
T5
X6.Y-4.25
X6.0787Y-4.25
X6.1575Y-4.25
T6
X5.9366Y-1.9839
X5.9366Y-2.0839
X5.9366Y-2.1839
X5.9366Y-2.2839
X5.9366Y-2.3839
X5.9366Y-2.4839
X5.9366Y-2.5839
X5.9366Y-2.6839
X5.9366Y-2.8439
X5.9366Y-2.9439
X5.9366Y-3.0439
X5.9366Y-3.1439
X5.9366Y-3.2439
X5.9366Y-3.3439
X5.9366Y-3.4439
X5.9366Y-3.5439
X5.9366Y-3.6439
X5.9366Y-3.7439
X6.0666Y-3.6739
X6.0666Y-3.7739
X6.0666Y-3.8739
X6.1666Y-3.6739
X6.1666Y-3.7739
X6.1666Y-3.8739
X6.2666Y-3.6739
X6.2666Y-3.7739
X6.275Y-1.55
X6.275Y-1.65
X6.3666Y-3.6739
X6.3666Y-3.7739
X6.375Y-1.55
X6.375Y-1.65
X6.475Y-1.55
X6.475Y-1.65
X6.575Y-1.55
X6.575Y-1.65
X6.675Y-1.55
X6.675Y-1.65
X6.7391Y-1.8789
X6.7391Y-1.9789
X6.8391Y-1.8789
X6.8391Y-1.9789
X6.9391Y-1.8789
X6.9391Y-1.9789
X7.125Y-1.55
X7.125Y-1.65
X7.225Y-1.55
X7.225Y-1.65
X7.325Y-1.55
X7.325Y-1.65
X7.425Y-1.55
X7.425Y-1.65
X7.525Y-1.55
X7.525Y-1.65
X7.8366Y-1.9839
X7.8366Y-2.0839
X7.8366Y-2.1839
X7.8366Y-2.2839
X7.8366Y-2.3839
X7.8366Y-2.4839
X7.8366Y-2.6839
X7.8366Y-2.7839
X7.8366Y-2.8839
X7.8366Y-2.9839
X7.8366Y-3.0839
X7.8366Y-3.1839
X7.8366Y-3.2839
X7.8366Y-3.3839
T7
X6.4826Y-4.0079
X6.5732Y-3.9095
X6.5732Y-4.3898
X6.6716Y-4.3937
X6.77Y-4.0079
X6.8684Y-4.3937
X6.9668Y-3.9095
X6.9668Y-4.3898
X7.0574Y-4.0079
X7.2926Y-4.0079
X7.3832Y-3.9095
X7.3832Y-4.3898
X7.4816Y-4.3937
X7.58Y-4.0079
X7.6784Y-4.3937
X7.7768Y-3.9095
X7.7768Y-4.3898
X7.8674Y-4.0079
T8
X5.9173Y-4.25
X6.2402Y-4.25
T9
X6.4826Y-4.3031
X7.0574Y-4.3031
X7.2926Y-4.3031
X7.8674Y-4.3031
T10
X5.9409Y-3.8876
X6.5409Y-1.8954
X7.6453Y-1.8954
T0
M30
