G04 #@! TF.FileFunction,Copper,L2,Bot,Signal*
%FSLAX46Y46*%
G04 Gerber Fmt 4.6, Leading zero omitted, Abs format (unit mm)*
G04 Created by KiCad (PCBNEW 4.0.7) date 04/09/18 15:19:32*
%MOMM*%
%LPD*%
G01*
G04 APERTURE LIST*
%ADD10C,0.100000*%
%ADD11C,0.254000*%
%ADD12R,0.635000X1.270000*%
%ADD13R,1.270000X0.635000*%
%ADD14C,1.879600*%
%ADD15R,1.600000X1.600000*%
%ADD16C,1.600000*%
%ADD17C,2.286000*%
%ADD18O,1.600000X1.600000*%
%ADD19R,1.700000X1.700000*%
%ADD20C,1.700000*%
%ADD21C,0.950000*%
%ADD22C,0.762000*%
%ADD23C,0.250000*%
%ADD24C,0.152400*%
G04 APERTURE END LIST*
D10*
D11*
X195580000Y-57912000D02*
X196596000Y-57912000D01*
X195580000Y-55245000D02*
X196596000Y-55245000D01*
X154940000Y-55880000D02*
X154940000Y-54864000D01*
X154940000Y-59690000D02*
X154940000Y-58674000D01*
D12*
X194564000Y-57912000D03*
X195580000Y-57912000D03*
X196596000Y-57912000D03*
X194564000Y-55245000D03*
X195580000Y-55245000D03*
X196596000Y-55245000D03*
D13*
X154940000Y-56896000D03*
X154940000Y-55880000D03*
X154940000Y-54864000D03*
D14*
X166370000Y-78740000D03*
X166370000Y-81280000D03*
X163830000Y-78740000D03*
X163830000Y-81280000D03*
X161290000Y-78740000D03*
X161290000Y-81280000D03*
X158750000Y-78740000D03*
X158750000Y-81280000D03*
X156210000Y-78740000D03*
X156210000Y-81280000D03*
X162560000Y-58420000D03*
X162560000Y-55880000D03*
X165100000Y-58420000D03*
X165100000Y-55880000D03*
X167640000Y-58420000D03*
X167640000Y-55880000D03*
X170180000Y-58420000D03*
X170180000Y-55880000D03*
X172720000Y-58420000D03*
X172720000Y-55880000D03*
X175260000Y-58420000D03*
X175260000Y-55880000D03*
D12*
X180746400Y-62230000D03*
X179933600Y-62230000D03*
D13*
X154940000Y-60706000D03*
X154940000Y-59690000D03*
X154940000Y-58674000D03*
D12*
X180746400Y-59690000D03*
X179933600Y-59690000D03*
D15*
X173990000Y-73660000D03*
D16*
X176530000Y-73660000D03*
X179070000Y-73660000D03*
X181610000Y-73660000D03*
X184150000Y-73660000D03*
X186690000Y-73660000D03*
X189230000Y-73660000D03*
X189230000Y-66040000D03*
X186690000Y-66040000D03*
X184150000Y-66040000D03*
X181610000Y-66040000D03*
X179070000Y-66040000D03*
X176530000Y-66040000D03*
X173990000Y-66040000D03*
X191770000Y-73660000D03*
X191770000Y-66040000D03*
X194310000Y-73660000D03*
X194310000Y-66040000D03*
D14*
X199050000Y-78330000D03*
X199050000Y-75790000D03*
X171160800Y-47710300D03*
X199050000Y-63090000D03*
X199050000Y-60550000D03*
X199050000Y-58010000D03*
X199050000Y-55470000D03*
X199050000Y-52930000D03*
X199050000Y-50390000D03*
X150790000Y-90014000D03*
X150790000Y-55470000D03*
X150790000Y-58010000D03*
X150790000Y-60550000D03*
X150790000Y-63090000D03*
X150790000Y-65630000D03*
X150790000Y-68170000D03*
X150790000Y-72234000D03*
X150790000Y-74774000D03*
X150790000Y-77314000D03*
X150790000Y-79854000D03*
X150790000Y-82394000D03*
X150790000Y-84934000D03*
X199050000Y-73250000D03*
X199050000Y-70710000D03*
X150790000Y-87474000D03*
X176238260Y-47710300D03*
X199050000Y-83410000D03*
X171160800Y-50250300D03*
X173700800Y-47710300D03*
X199050000Y-85950000D03*
X199050000Y-80870000D03*
X176238260Y-50250300D03*
X150790000Y-50390000D03*
X173700800Y-50250300D03*
X150790000Y-95094000D03*
X150790000Y-92554000D03*
X150790000Y-52930000D03*
X199050000Y-68170000D03*
X154092000Y-93815600D03*
X156632000Y-93815600D03*
X159172000Y-93815600D03*
X161712000Y-93815600D03*
X154092000Y-96355600D03*
X156632000Y-96355600D03*
X159172000Y-96355600D03*
X161712000Y-96355600D03*
X154092000Y-98895600D03*
X156632000Y-98895600D03*
D17*
X199831960Y-101800660D03*
X192532000Y-101800660D03*
X185232040Y-101800660D03*
X197530720Y-99301300D03*
X187533280Y-99301300D03*
X187533280Y-111500920D03*
X197530720Y-111500920D03*
X179257960Y-101800660D03*
X171958000Y-101800660D03*
X164658040Y-101800660D03*
X176956720Y-99301300D03*
X166959280Y-99301300D03*
X166959280Y-111500920D03*
X176956720Y-111500920D03*
D14*
X153670000Y-102870000D03*
X156210000Y-102870000D03*
X156210000Y-50800000D03*
X158750000Y-50800000D03*
X161290000Y-50800000D03*
D15*
X181737000Y-49784000D03*
D18*
X189357000Y-52324000D03*
X181737000Y-52324000D03*
X189357000Y-49784000D03*
D19*
X152400000Y-107950000D03*
D20*
X154400000Y-107950000D03*
X156400000Y-107950000D03*
X150300000Y-107950000D03*
X158500000Y-107950000D03*
D12*
X180746400Y-57150000D03*
X179933600Y-57150000D03*
D14*
X159385000Y-41910000D03*
X159385000Y-39370000D03*
X161925000Y-41910000D03*
X161925000Y-39370000D03*
X164465000Y-41910000D03*
X164465000Y-39370000D03*
X167005000Y-41910000D03*
X167005000Y-39370000D03*
X169545000Y-41910000D03*
X169545000Y-39370000D03*
X180975000Y-41910000D03*
X180975000Y-39370000D03*
X183515000Y-41910000D03*
X183515000Y-39370000D03*
X186055000Y-41910000D03*
X186055000Y-39370000D03*
X188595000Y-41910000D03*
X188595000Y-39370000D03*
X191135000Y-41910000D03*
X191135000Y-39370000D03*
D21*
X173883200Y-54158500D03*
X161082922Y-72213586D03*
X159348249Y-47498000D03*
X161544000Y-45974000D03*
X178816000Y-69850000D03*
X185420000Y-69850000D03*
X175260000Y-77216000D03*
X169672000Y-63500000D03*
X169418000Y-73406000D03*
X157480000Y-86868000D03*
X160528000Y-86868000D03*
X172466000Y-81534000D03*
X178054000Y-83058000D03*
X189484000Y-43688000D03*
X182626000Y-46482000D03*
X187452000Y-47752000D03*
X155194000Y-47080249D03*
X153924000Y-52832000D03*
X158496000Y-44450000D03*
X165608000Y-44450000D03*
X176363066Y-39398961D03*
X173482000Y-41910000D03*
D22*
X160326859Y-69457780D03*
X160411279Y-56178180D03*
X182614600Y-60083800D03*
D23*
X180550400Y-54158500D02*
X180550400Y-51845600D01*
X180550400Y-51845600D02*
X181257900Y-51138100D01*
X181257900Y-51138100D02*
X182233000Y-51138100D01*
X182233000Y-51138100D02*
X188040400Y-56945500D01*
X188040400Y-56945500D02*
X188040400Y-71093204D01*
X188040400Y-71093204D02*
X188848756Y-71901560D01*
X188848756Y-71901560D02*
X195161560Y-71901560D01*
X195161560Y-71901560D02*
X199050000Y-75790000D01*
X177800000Y-62230000D02*
X179933600Y-62230000D01*
X173990000Y-66040000D02*
X177800000Y-62230000D01*
X180746400Y-57150000D02*
X180746400Y-58160300D01*
X179933600Y-62230000D02*
X179933600Y-59690000D01*
X180227000Y-58679700D02*
X180746400Y-58160300D01*
X179933600Y-58679700D02*
X180227000Y-58679700D01*
X179933600Y-59690000D02*
X179933600Y-58679700D01*
X180550400Y-54158500D02*
X173883200Y-54158500D01*
X180746400Y-54354500D02*
X180550400Y-54158500D01*
X180746400Y-57150000D02*
X180746400Y-54354500D01*
D24*
X197263000Y-58010000D02*
X197165000Y-57912000D01*
X199050000Y-58010000D02*
X197263000Y-58010000D01*
X196596000Y-57912000D02*
X197165000Y-57912000D01*
X197390000Y-55470000D02*
X197165000Y-55245000D01*
X199050000Y-55470000D02*
X197390000Y-55470000D01*
X196596000Y-55245000D02*
X197165000Y-55245000D01*
X150790000Y-60550000D02*
X151981400Y-59358600D01*
X151981400Y-51794300D02*
X156209645Y-47566055D01*
X151981400Y-59358600D02*
X151981400Y-51794300D01*
X156209645Y-47566055D02*
X156209645Y-39647736D01*
X158467881Y-37389500D02*
X185846700Y-37389500D01*
X156209645Y-39647736D02*
X158467881Y-37389500D01*
X200619800Y-52698000D02*
X200619800Y-58195200D01*
X199581800Y-51660000D02*
X200619800Y-52698000D01*
X194683590Y-51660000D02*
X199581800Y-51660000D01*
X192014975Y-48991385D02*
X194683590Y-51660000D01*
X192014975Y-47766795D02*
X192014975Y-48991385D01*
X187325100Y-43076920D02*
X192014975Y-47766795D01*
X187325100Y-38867900D02*
X187325100Y-43076920D01*
X185846700Y-37389500D02*
X187325100Y-38867900D01*
X199590900Y-59224100D02*
X195558600Y-59224100D01*
X200619800Y-58195200D02*
X199590900Y-59224100D01*
X195558600Y-59224100D02*
X194564000Y-58229500D01*
X194564000Y-58229500D02*
X194564000Y-57912000D01*
X194564000Y-54457600D02*
X194564000Y-55245000D01*
X150790000Y-63090000D02*
X152309200Y-61570800D01*
X194564000Y-52929497D02*
X194564000Y-54457600D01*
X191032742Y-49398239D02*
X194564000Y-52929497D01*
X158554610Y-37765800D02*
X183606300Y-37765800D01*
X184711826Y-44823426D02*
X187594037Y-44823426D01*
X187594037Y-44823426D02*
X191032742Y-48262131D01*
X182245100Y-42356700D02*
X184711826Y-44823426D01*
X182245100Y-41399300D02*
X182245100Y-42356700D01*
X182925800Y-40718600D02*
X182245100Y-41399300D01*
X183947000Y-40718600D02*
X182925800Y-40718600D01*
X157052600Y-39267810D02*
X158554610Y-37765800D01*
X157052600Y-47450500D02*
X157052600Y-39267810D01*
X152309200Y-52193900D02*
X157052600Y-47450500D01*
X152309200Y-61570800D02*
X152309200Y-52193900D01*
X183606300Y-37765800D02*
X184706400Y-38865900D01*
X184706400Y-38865900D02*
X184706400Y-39959200D01*
X184706400Y-39959200D02*
X183947000Y-40718600D01*
X191032742Y-48262131D02*
X191032742Y-49398239D01*
X154940000Y-59690000D02*
X156142847Y-59690000D01*
X156142847Y-59690000D02*
X157444589Y-58388258D01*
X159962100Y-48069927D02*
X160149450Y-47882577D01*
X157444589Y-58388258D02*
X157444589Y-55760615D01*
X157444589Y-55760615D02*
X159962100Y-53243104D01*
X159962100Y-53243104D02*
X159962100Y-48069927D01*
X160149450Y-47882577D02*
X160149450Y-44114550D01*
X160149450Y-44114550D02*
X160655000Y-43609000D01*
X160655000Y-43609000D02*
X160655000Y-38686451D01*
X160655000Y-38686451D02*
X161247951Y-38093500D01*
X161247951Y-38093500D02*
X182238500Y-38093500D01*
X182238500Y-38093500D02*
X182575201Y-38430201D01*
X182575201Y-38430201D02*
X183515000Y-39370000D01*
X150790000Y-72234000D02*
X149582500Y-71026500D01*
X149582500Y-71026500D02*
X149582500Y-67633700D01*
X149582500Y-67633700D02*
X150316200Y-66900000D01*
X150316200Y-66900000D02*
X151231600Y-66900000D01*
X151231600Y-66900000D02*
X152748000Y-65383600D01*
X152748000Y-65383600D02*
X152748000Y-55151238D01*
X152748000Y-55151238D02*
X153035238Y-54864000D01*
X153035238Y-54864000D02*
X154940000Y-54864000D01*
X172413200Y-50717000D02*
X172413200Y-49058900D01*
X169337200Y-53793000D02*
X172413200Y-50717000D01*
X167187000Y-53793000D02*
X169337200Y-53793000D01*
X165100000Y-55880000D02*
X167187000Y-53793000D01*
X151729799Y-78914201D02*
X150790000Y-79854000D01*
X152682845Y-67308055D02*
X152682845Y-77961155D01*
X160788556Y-52879677D02*
X157772000Y-55896233D01*
X157772000Y-62218900D02*
X152682845Y-67308055D01*
X164334731Y-52879677D02*
X160788556Y-52879677D01*
X157772000Y-55896233D02*
X157772000Y-62218900D01*
X168192038Y-49022370D02*
X164334731Y-52879677D01*
X172376670Y-49022370D02*
X168192038Y-49022370D01*
X172413200Y-49058900D02*
X172376670Y-49022370D01*
X152682845Y-77961155D02*
X151729799Y-78914201D01*
X172413200Y-48997900D02*
X173700800Y-47710300D01*
X172413200Y-49058900D02*
X172413200Y-48997900D01*
X158122312Y-56042779D02*
X158122312Y-62332088D01*
X160958003Y-53207088D02*
X158122312Y-56042779D01*
X171160800Y-50250300D02*
X168204012Y-53207088D01*
X168204012Y-53207088D02*
X160958003Y-53207088D01*
X153010256Y-80173744D02*
X151729799Y-81454201D01*
X151729799Y-81454201D02*
X150790000Y-82394000D01*
X158122312Y-62332088D02*
X153010256Y-67444144D01*
X153010256Y-67444144D02*
X153010256Y-80173744D01*
X170064200Y-54685000D02*
X167150200Y-54685000D01*
X165521900Y-57150000D02*
X159302156Y-57150000D01*
X167150200Y-54685000D02*
X166370200Y-55465000D01*
X166370200Y-55465000D02*
X166370200Y-56301700D01*
X158777133Y-57675023D02*
X158777133Y-62626798D01*
X166370200Y-56301700D02*
X165521900Y-57150000D01*
X159302156Y-57150000D02*
X158777133Y-57675023D01*
X158777133Y-62626798D02*
X153665078Y-67738854D01*
X153665078Y-67738854D02*
X153665078Y-82058922D01*
X153665078Y-82058922D02*
X151729799Y-83994201D01*
X151729799Y-83994201D02*
X150790000Y-84934000D01*
X170180000Y-54800800D02*
X170064200Y-54685000D01*
X170180000Y-55880000D02*
X170180000Y-54800800D01*
X170064200Y-53886900D02*
X170064200Y-54685000D01*
X173700800Y-50250300D02*
X170064200Y-53886900D01*
D23*
X154400000Y-107950000D02*
X155274518Y-107075482D01*
X155274518Y-106648000D02*
X152876000Y-106648000D01*
X155274518Y-107075482D02*
X155274518Y-106648000D01*
X152876000Y-106648000D02*
X150876000Y-104648000D01*
X172212000Y-43684000D02*
X171311298Y-43684000D01*
X169545000Y-41917702D02*
X169545000Y-41910000D01*
X171311298Y-43684000D02*
X169545000Y-41917702D01*
X169672000Y-63500000D02*
X169672000Y-66770017D01*
X169672000Y-66770017D02*
X164228431Y-72213586D01*
X164228431Y-72213586D02*
X161082922Y-72213586D01*
X169418000Y-73406000D02*
X167716545Y-75107455D01*
X167716545Y-75107455D02*
X160705461Y-75107455D01*
X160705461Y-75107455D02*
X160705461Y-72591047D01*
X160705461Y-72591047D02*
X161082922Y-72213586D01*
X158496000Y-44704000D02*
X158496000Y-44450000D01*
X159348249Y-45556249D02*
X158496000Y-44704000D01*
X163834000Y-43684000D02*
X161544000Y-45974000D01*
X165608000Y-43684000D02*
X163834000Y-43684000D01*
X159348249Y-47498000D02*
X159348249Y-45556249D01*
X172466000Y-80010000D02*
X175260000Y-77216000D01*
X172466000Y-81534000D02*
X172466000Y-80010000D01*
X180340000Y-85344000D02*
X178054000Y-83058000D01*
X180340000Y-87630000D02*
X171958000Y-96012000D01*
X194310000Y-73660000D02*
X180340000Y-87630000D01*
X180340000Y-87630000D02*
X180340000Y-85344000D01*
X189484000Y-43688000D02*
X189958999Y-44162999D01*
X189958999Y-44162999D02*
X193006999Y-44162999D01*
X182880000Y-47710300D02*
X176238300Y-47710300D01*
X186108000Y-47710300D02*
X182880000Y-47710300D01*
X182880000Y-47710300D02*
X182880000Y-46736000D01*
X182880000Y-46736000D02*
X182626000Y-46482000D01*
X186911700Y-48514000D02*
X186108000Y-47710300D01*
X188181700Y-49784000D02*
X186911700Y-48514000D01*
X186911700Y-48514000D02*
X186911700Y-48292300D01*
X186911700Y-48292300D02*
X187452000Y-47752000D01*
X172212000Y-43684000D02*
X165608000Y-43684000D01*
X165608000Y-43684000D02*
X165608000Y-44450000D01*
X172720000Y-44192000D02*
X172212000Y-43684000D01*
X176238300Y-47710300D02*
X172720000Y-44192000D01*
X172720000Y-44192000D02*
X172720000Y-42672000D01*
X172720000Y-42672000D02*
X173482000Y-41910000D01*
X157803500Y-97724100D02*
X171958000Y-97724100D01*
X156632000Y-98895600D02*
X157803500Y-97724100D01*
X171958000Y-96012000D02*
X171958000Y-97724100D01*
X171958000Y-97724100D02*
X171958000Y-101800700D01*
X189357000Y-49784000D02*
X188181700Y-49784000D01*
D24*
X158750000Y-81280000D02*
X156210000Y-81280000D01*
X159172000Y-81702000D02*
X158750000Y-81280000D01*
X159172000Y-93815600D02*
X159172000Y-81702000D01*
X166370000Y-89157600D02*
X166370000Y-81280000D01*
X161712000Y-93815600D02*
X166370000Y-89157600D01*
X155359700Y-97627900D02*
X156632000Y-96355600D01*
X155359700Y-100283300D02*
X155359700Y-97627900D01*
X157403800Y-102327400D02*
X155359700Y-100283300D01*
X157403800Y-106946200D02*
X157403800Y-102327400D01*
X156400000Y-107950000D02*
X157403800Y-106946200D01*
X161290000Y-78740000D02*
X163830000Y-78740000D01*
X163830000Y-78740000D02*
X166370000Y-78740000D01*
X158750000Y-78740000D02*
X156210000Y-78740000D01*
X161290000Y-81280000D02*
X158750000Y-78740000D01*
X154940000Y-55880000D02*
X156802357Y-55880000D01*
X156802357Y-55880000D02*
X157480000Y-55202357D01*
X157480000Y-55202357D02*
X157480000Y-41275000D01*
X157480000Y-41275000D02*
X159385000Y-39370000D01*
X194694800Y-67160700D02*
X190350700Y-67160700D01*
X190705331Y-48397749D02*
X190705331Y-49533857D01*
X187458419Y-45150837D02*
X190705331Y-48397749D01*
X174291899Y-40640000D02*
X178802736Y-45150837D01*
X193356500Y-58270600D02*
X195365400Y-60279500D01*
X163195000Y-40640000D02*
X174291899Y-40640000D01*
X161925000Y-39370000D02*
X163195000Y-40640000D01*
X178802736Y-45150837D02*
X187458419Y-45150837D01*
X190705331Y-49533857D02*
X193356500Y-52185025D01*
X193356500Y-52185025D02*
X193356500Y-58270600D01*
X195365400Y-60279500D02*
X195365400Y-66490100D01*
X195365400Y-66490100D02*
X194694800Y-67160700D01*
X190350700Y-67160700D02*
X190029999Y-66839999D01*
X190029999Y-66839999D02*
X189230000Y-66040000D01*
X187729655Y-44496015D02*
X186101015Y-44496015D01*
X191360153Y-49262621D02*
X191360153Y-48126513D01*
X195580000Y-53482468D02*
X191360153Y-49262621D01*
X195580000Y-55245000D02*
X195580000Y-53482468D01*
X186101015Y-44496015D02*
X184454799Y-42849799D01*
X184454799Y-42849799D02*
X183515000Y-41910000D01*
X191360153Y-48126513D02*
X187729655Y-44496015D01*
X200270700Y-55001400D02*
X200270700Y-55940600D01*
X199471300Y-56740000D02*
X196434500Y-56740000D01*
X186055000Y-42269848D02*
X191687564Y-47902412D01*
X196434500Y-56740000D02*
X195580000Y-57594500D01*
X199469300Y-54200000D02*
X200270700Y-55001400D01*
X198345000Y-54200000D02*
X199469300Y-54200000D01*
X200270700Y-55940600D02*
X199471300Y-56740000D01*
X191687564Y-49127003D02*
X194547972Y-51987411D01*
X195580000Y-57594500D02*
X195580000Y-57912000D01*
X196132411Y-51987411D02*
X198345000Y-54200000D01*
X194547972Y-51987411D02*
X196132411Y-51987411D01*
X191687564Y-47902412D02*
X191687564Y-49127003D01*
X186055000Y-41910000D02*
X186055000Y-42269848D01*
X181737000Y-49784000D02*
X180685500Y-49784000D01*
X180685500Y-49784000D02*
X177112500Y-53357000D01*
X175260021Y-74595713D02*
X172985634Y-76870100D01*
X172985634Y-76870100D02*
X156394600Y-76870100D01*
X156394600Y-76870100D02*
X155018600Y-78246100D01*
X155018600Y-78246100D02*
X155018600Y-91559923D01*
X177112500Y-53357000D02*
X173498800Y-53357000D01*
X173498800Y-53357000D02*
X171506500Y-55349300D01*
X171506500Y-55349300D02*
X171506500Y-69239157D01*
X171506500Y-69239157D02*
X174512948Y-72245605D01*
X174512948Y-72245605D02*
X174878147Y-72245605D01*
X174878147Y-72245605D02*
X175260021Y-72627479D01*
X175260021Y-72627479D02*
X175260021Y-74595713D01*
X155018600Y-91559923D02*
X154092000Y-92486523D01*
X154092000Y-92486523D02*
X154092000Y-93815600D01*
X150790000Y-68170000D02*
X153075700Y-65884300D01*
X153075700Y-65884300D02*
X153075700Y-59450210D01*
X153075700Y-59450210D02*
X153851910Y-58674000D01*
X153851910Y-58674000D02*
X154829200Y-58674000D01*
X154940000Y-58674000D02*
X154829200Y-58674000D01*
X154940000Y-58563200D02*
X154940000Y-56896000D01*
X154829200Y-58674000D02*
X154940000Y-58563200D01*
X157858960Y-66989881D02*
X159945860Y-69076781D01*
X157858960Y-64008000D02*
X157858960Y-66989881D01*
X159945860Y-69076781D02*
X160326859Y-69457780D01*
X157858960Y-64008000D02*
X154000050Y-67866910D01*
X161846891Y-60020069D02*
X157858960Y-64008000D01*
X167640000Y-55880000D02*
X166313141Y-57206859D01*
X166313141Y-57206859D02*
X166313141Y-59379565D01*
X166313141Y-59379565D02*
X165672637Y-60020069D01*
X165672637Y-60020069D02*
X161846891Y-60020069D01*
X154000050Y-67866910D02*
X154000050Y-91883950D01*
X154000050Y-91883950D02*
X151729799Y-94154201D01*
X151729799Y-94154201D02*
X150790000Y-95094000D01*
X159250901Y-56178180D02*
X159872464Y-56178180D01*
X158449723Y-56979358D02*
X159250901Y-56178180D01*
X158449723Y-60198000D02*
X158449723Y-56979358D01*
X159872464Y-56178180D02*
X160411279Y-56178180D01*
X158449723Y-60198000D02*
X158449723Y-56226803D01*
X158449723Y-62491181D02*
X158449723Y-60198000D01*
X162560000Y-54550923D02*
X162560000Y-55880000D01*
X158449723Y-56226803D02*
X161130659Y-53545867D01*
X149477700Y-84502500D02*
X150316200Y-83664000D01*
X149477700Y-91241700D02*
X149477700Y-84502500D01*
X151252600Y-83664000D02*
X153337667Y-81578933D01*
X153337667Y-81578933D02*
X153337667Y-67603237D01*
X161554944Y-53545867D02*
X162560000Y-54550923D01*
X150790000Y-92554000D02*
X149477700Y-91241700D01*
X153337667Y-67603237D02*
X158449723Y-62491181D01*
X161130659Y-53545867D02*
X161554944Y-53545867D01*
X150316200Y-83664000D02*
X151252600Y-83664000D01*
X165100000Y-58420000D02*
X162560000Y-58420000D01*
X184150000Y-73660000D02*
X182576471Y-75233529D01*
X182576471Y-75233529D02*
X181179180Y-75233529D01*
X181179180Y-75233529D02*
X180371331Y-74425681D01*
X180371331Y-74425681D02*
X180371331Y-72752281D01*
X180371331Y-72752281D02*
X180832958Y-72290654D01*
X180832958Y-72290654D02*
X182044730Y-72290654D01*
X182044730Y-72290654D02*
X182602531Y-71732853D01*
X182602531Y-71732853D02*
X182602531Y-67756271D01*
X182602531Y-67756271D02*
X182026019Y-67179759D01*
X182026019Y-67179759D02*
X182023451Y-67182327D01*
X182023451Y-67182327D02*
X181061195Y-67182327D01*
X181061195Y-67182327D02*
X180401435Y-66522567D01*
X180401435Y-66522567D02*
X180401435Y-64990616D01*
X180401435Y-64990616D02*
X180746400Y-64645651D01*
X180746400Y-64645651D02*
X180746400Y-62230000D01*
X182995599Y-73405771D02*
X182995599Y-60464799D01*
X182995599Y-60464799D02*
X182614600Y-60083800D01*
X182741370Y-73660000D02*
X182995599Y-73405771D01*
X181610000Y-73660000D02*
X182741370Y-73660000D01*
X180746400Y-59690000D02*
X181315400Y-59690000D01*
X181709200Y-60083800D02*
X181315400Y-59690000D01*
X182614600Y-60083800D02*
X181709200Y-60083800D01*
X154092000Y-96355600D02*
X155362000Y-95085600D01*
X183655198Y-72248040D02*
X183342556Y-71935398D01*
X183342556Y-71935398D02*
X183342556Y-67774735D01*
X155362000Y-95085600D02*
X164803774Y-95085600D01*
X164803774Y-95085600D02*
X185358191Y-74531183D01*
X185358191Y-74531183D02*
X185358191Y-73061364D01*
X181737000Y-53375500D02*
X181737000Y-52324000D01*
X185358191Y-73061364D02*
X184544867Y-72248040D01*
X184544867Y-72248040D02*
X183655198Y-72248040D01*
X183342556Y-67774735D02*
X183735251Y-67382040D01*
X183735251Y-67382040D02*
X184597305Y-67382040D01*
X184597305Y-67382040D02*
X185457796Y-66521549D01*
X185457796Y-66521549D02*
X185457796Y-57096296D01*
X185457796Y-57096296D02*
X181737000Y-53375500D01*
X173990000Y-73660000D02*
X173990000Y-72608500D01*
X173990000Y-72608500D02*
X170180000Y-68798500D01*
X170180000Y-68798500D02*
X170180000Y-66407129D01*
X170180000Y-66407129D02*
X171119799Y-65467330D01*
X171119799Y-65467330D02*
X171119799Y-59359799D01*
X171119799Y-59359799D02*
X170180000Y-58420000D01*
X170180000Y-58420000D02*
X167640000Y-58420000D01*
X179070000Y-73660000D02*
X177801830Y-72391830D01*
X177801830Y-72391830D02*
X175577746Y-72391830D01*
X175577746Y-72391830D02*
X171959035Y-68773119D01*
X171959035Y-68773119D02*
X171959035Y-59180965D01*
X171959035Y-59180965D02*
X172720000Y-58420000D01*
X172720000Y-58420000D02*
X175260000Y-58420000D01*
X152355434Y-75748566D02*
X151729799Y-76374201D01*
X152355434Y-67171966D02*
X152355434Y-75748566D01*
X154940000Y-64587400D02*
X152355434Y-67171966D01*
X154940000Y-60706000D02*
X154940000Y-64587400D01*
X151729799Y-76374201D02*
X150790000Y-77314000D01*
X173990000Y-57150000D02*
X179933600Y-57150000D01*
X172720000Y-55880000D02*
X173990000Y-57150000D01*
X161290000Y-50800000D02*
X162680205Y-49409795D01*
X162680205Y-49409795D02*
X162680205Y-47271559D01*
X164364822Y-45586942D02*
X173324242Y-45586942D01*
X162680205Y-47271559D02*
X164364822Y-45586942D01*
X175464358Y-49033300D02*
X176852100Y-49033300D01*
X173324242Y-45586942D02*
X174957700Y-47220400D01*
X174957700Y-47220400D02*
X174957700Y-48526642D01*
X194310000Y-60363900D02*
X194310000Y-66040000D01*
X174957700Y-48526642D02*
X175464358Y-49033300D01*
X176852100Y-49033300D02*
X177178900Y-48706500D01*
X177178900Y-48706500D02*
X182652600Y-48706500D01*
X182652600Y-48706500D02*
X194310000Y-60363900D01*
D11*
G36*
X200839000Y-100293630D02*
X200187178Y-100022969D01*
X199479846Y-100022352D01*
X199089537Y-100183624D01*
X199308411Y-99656518D01*
X199309028Y-98949186D01*
X199038914Y-98295460D01*
X198539191Y-97794864D01*
X197885938Y-97523609D01*
X197178606Y-97522992D01*
X196524880Y-97793106D01*
X196024284Y-98292829D01*
X195753029Y-98946082D01*
X195752412Y-99653414D01*
X196022526Y-100307140D01*
X196522249Y-100807736D01*
X197175502Y-101078991D01*
X197882834Y-101079608D01*
X198273143Y-100918336D01*
X198054269Y-101445442D01*
X198053652Y-102152774D01*
X198323766Y-102806500D01*
X198823489Y-103307096D01*
X199476742Y-103578351D01*
X200184074Y-103578968D01*
X200837800Y-103308854D01*
X200839000Y-103307656D01*
X200839000Y-113590000D01*
X151170091Y-113590000D01*
X149433126Y-111853034D01*
X165180972Y-111853034D01*
X165451086Y-112506760D01*
X165950809Y-113007356D01*
X166604062Y-113278611D01*
X167311394Y-113279228D01*
X167965120Y-113009114D01*
X168465716Y-112509391D01*
X168736971Y-111856138D01*
X168736973Y-111853034D01*
X175178412Y-111853034D01*
X175448526Y-112506760D01*
X175948249Y-113007356D01*
X176601502Y-113278611D01*
X177308834Y-113279228D01*
X177962560Y-113009114D01*
X178463156Y-112509391D01*
X178734411Y-111856138D01*
X178734413Y-111853034D01*
X185754972Y-111853034D01*
X186025086Y-112506760D01*
X186524809Y-113007356D01*
X187178062Y-113278611D01*
X187885394Y-113279228D01*
X188539120Y-113009114D01*
X189039716Y-112509391D01*
X189310971Y-111856138D01*
X189310973Y-111853034D01*
X195752412Y-111853034D01*
X196022526Y-112506760D01*
X196522249Y-113007356D01*
X197175502Y-113278611D01*
X197882834Y-113279228D01*
X198536560Y-113009114D01*
X199037156Y-112509391D01*
X199308411Y-111856138D01*
X199309028Y-111148806D01*
X199038914Y-110495080D01*
X198539191Y-109994484D01*
X197885938Y-109723229D01*
X197178606Y-109722612D01*
X196524880Y-109992726D01*
X196024284Y-110492449D01*
X195753029Y-111145702D01*
X195752412Y-111853034D01*
X189310973Y-111853034D01*
X189311588Y-111148806D01*
X189041474Y-110495080D01*
X188541751Y-109994484D01*
X187888498Y-109723229D01*
X187181166Y-109722612D01*
X186527440Y-109992726D01*
X186026844Y-110492449D01*
X185755589Y-111145702D01*
X185754972Y-111853034D01*
X178734413Y-111853034D01*
X178735028Y-111148806D01*
X178464914Y-110495080D01*
X177965191Y-109994484D01*
X177311938Y-109723229D01*
X176604606Y-109722612D01*
X175950880Y-109992726D01*
X175450284Y-110492449D01*
X175179029Y-111145702D01*
X175178412Y-111853034D01*
X168736973Y-111853034D01*
X168737588Y-111148806D01*
X168467474Y-110495080D01*
X167967751Y-109994484D01*
X167314498Y-109723229D01*
X166607166Y-109722612D01*
X165953440Y-109992726D01*
X165452844Y-110492449D01*
X165181589Y-111145702D01*
X165180972Y-111853034D01*
X149433126Y-111853034D01*
X149046000Y-111465908D01*
X149046000Y-108795752D01*
X149457717Y-109208188D01*
X150003319Y-109434742D01*
X150594089Y-109435257D01*
X151076048Y-109236116D01*
X151085910Y-109251441D01*
X151298110Y-109396431D01*
X151550000Y-109447440D01*
X153250000Y-109447440D01*
X153485317Y-109403162D01*
X153689324Y-109271887D01*
X154171279Y-109446718D01*
X154761458Y-109420315D01*
X155184080Y-109245259D01*
X155264352Y-108993960D01*
X155379062Y-109108670D01*
X155418752Y-109068980D01*
X155557717Y-109208188D01*
X156103319Y-109434742D01*
X156694089Y-109435257D01*
X157240086Y-109209656D01*
X157450000Y-109000108D01*
X157657717Y-109208188D01*
X158203319Y-109434742D01*
X158794089Y-109435257D01*
X159340086Y-109209656D01*
X159758188Y-108792283D01*
X159984742Y-108246681D01*
X159985257Y-107655911D01*
X159759656Y-107109914D01*
X159342283Y-106691812D01*
X158796681Y-106465258D01*
X158205911Y-106464743D01*
X158115000Y-106502307D01*
X158115000Y-102327400D01*
X158080265Y-102152774D01*
X162879732Y-102152774D01*
X163149846Y-102806500D01*
X163649569Y-103307096D01*
X164302822Y-103578351D01*
X165010154Y-103578968D01*
X165663880Y-103308854D01*
X165916551Y-103056623D01*
X170881642Y-103056623D01*
X170997806Y-103338318D01*
X171659333Y-103588722D01*
X172366329Y-103566909D01*
X172918194Y-103338318D01*
X173034358Y-103056623D01*
X171958000Y-101980265D01*
X170881642Y-103056623D01*
X165916551Y-103056623D01*
X166164476Y-102809131D01*
X166435731Y-102155878D01*
X166436301Y-101501993D01*
X170169938Y-101501993D01*
X170191751Y-102208989D01*
X170420342Y-102760854D01*
X170702037Y-102877018D01*
X171778395Y-101800660D01*
X172137605Y-101800660D01*
X173213963Y-102877018D01*
X173495658Y-102760854D01*
X173746062Y-102099327D01*
X173724249Y-101392331D01*
X173495658Y-100840466D01*
X173213963Y-100724302D01*
X172137605Y-101800660D01*
X171778395Y-101800660D01*
X170702037Y-100724302D01*
X170420342Y-100840466D01*
X170169938Y-101501993D01*
X166436301Y-101501993D01*
X166436348Y-101448546D01*
X166217292Y-100918390D01*
X166604062Y-101078991D01*
X167311394Y-101079608D01*
X167965120Y-100809494D01*
X168230379Y-100544697D01*
X170881642Y-100544697D01*
X171958000Y-101621055D01*
X173034358Y-100544697D01*
X172918194Y-100263002D01*
X172256667Y-100012598D01*
X171549671Y-100034411D01*
X170997806Y-100263002D01*
X170881642Y-100544697D01*
X168230379Y-100544697D01*
X168465716Y-100309771D01*
X168736971Y-99656518D01*
X168736973Y-99653414D01*
X175178412Y-99653414D01*
X175448526Y-100307140D01*
X175948249Y-100807736D01*
X176601502Y-101078991D01*
X177308834Y-101079608D01*
X177699143Y-100918336D01*
X177480269Y-101445442D01*
X177479652Y-102152774D01*
X177749766Y-102806500D01*
X178249489Y-103307096D01*
X178902742Y-103578351D01*
X179610074Y-103578968D01*
X180263800Y-103308854D01*
X180764396Y-102809131D01*
X181035651Y-102155878D01*
X181035653Y-102152774D01*
X183453732Y-102152774D01*
X183723846Y-102806500D01*
X184223569Y-103307096D01*
X184876822Y-103578351D01*
X185584154Y-103578968D01*
X186237880Y-103308854D01*
X186738476Y-102809131D01*
X187009731Y-102155878D01*
X187009733Y-102152774D01*
X190753692Y-102152774D01*
X191023806Y-102806500D01*
X191523529Y-103307096D01*
X192176782Y-103578351D01*
X192884114Y-103578968D01*
X193537840Y-103308854D01*
X194038436Y-102809131D01*
X194309691Y-102155878D01*
X194310308Y-101448546D01*
X194040194Y-100794820D01*
X193540471Y-100294224D01*
X192887218Y-100022969D01*
X192179886Y-100022352D01*
X191526160Y-100292466D01*
X191025564Y-100792189D01*
X190754309Y-101445442D01*
X190753692Y-102152774D01*
X187009733Y-102152774D01*
X187010348Y-101448546D01*
X186791292Y-100918390D01*
X187178062Y-101078991D01*
X187885394Y-101079608D01*
X188539120Y-100809494D01*
X189039716Y-100309771D01*
X189310971Y-99656518D01*
X189311588Y-98949186D01*
X189041474Y-98295460D01*
X188541751Y-97794864D01*
X187888498Y-97523609D01*
X187181166Y-97522992D01*
X186527440Y-97793106D01*
X186026844Y-98292829D01*
X185755589Y-98946082D01*
X185754972Y-99653414D01*
X185974028Y-100183570D01*
X185587258Y-100022969D01*
X184879926Y-100022352D01*
X184226200Y-100292466D01*
X183725604Y-100792189D01*
X183454349Y-101445442D01*
X183453732Y-102152774D01*
X181035653Y-102152774D01*
X181036268Y-101448546D01*
X180766154Y-100794820D01*
X180266431Y-100294224D01*
X179613178Y-100022969D01*
X178905846Y-100022352D01*
X178515537Y-100183624D01*
X178734411Y-99656518D01*
X178735028Y-98949186D01*
X178464914Y-98295460D01*
X177965191Y-97794864D01*
X177311938Y-97523609D01*
X176604606Y-97522992D01*
X175950880Y-97793106D01*
X175450284Y-98292829D01*
X175179029Y-98946082D01*
X175178412Y-99653414D01*
X168736973Y-99653414D01*
X168737588Y-98949186D01*
X168467474Y-98295460D01*
X167967751Y-97794864D01*
X167314498Y-97523609D01*
X166607166Y-97522992D01*
X165953440Y-97793106D01*
X165452844Y-98292829D01*
X165181589Y-98946082D01*
X165180972Y-99653414D01*
X165400028Y-100183570D01*
X165013258Y-100022969D01*
X164305926Y-100022352D01*
X163652200Y-100292466D01*
X163151604Y-100792189D01*
X162880349Y-101445442D01*
X162879732Y-102152774D01*
X158080265Y-102152774D01*
X158060863Y-102055235D01*
X157906694Y-101824506D01*
X156556845Y-100474657D01*
X157007828Y-100456649D01*
X157470077Y-100265180D01*
X157561363Y-100004568D01*
X156632000Y-99075205D01*
X156617858Y-99089348D01*
X156438253Y-98909743D01*
X156452395Y-98895600D01*
X156811605Y-98895600D01*
X157740968Y-99824963D01*
X158001580Y-99733677D01*
X158218045Y-99145767D01*
X158193049Y-98519772D01*
X158001580Y-98057523D01*
X157740968Y-97966237D01*
X156811605Y-98895600D01*
X156452395Y-98895600D01*
X156438253Y-98881458D01*
X156617858Y-98701853D01*
X156632000Y-98715995D01*
X157561363Y-97786632D01*
X157526687Y-97687636D01*
X157902273Y-97312704D01*
X158278783Y-97689872D01*
X158857379Y-97930126D01*
X159483873Y-97930673D01*
X160062887Y-97691429D01*
X160442273Y-97312704D01*
X160818783Y-97689872D01*
X161397379Y-97930126D01*
X162023873Y-97930673D01*
X162602887Y-97691429D01*
X163046272Y-97248817D01*
X163286526Y-96670221D01*
X163287073Y-96043727D01*
X163185045Y-95796800D01*
X164803774Y-95796800D01*
X165075939Y-95742663D01*
X165306668Y-95588494D01*
X185861085Y-75034078D01*
X185947117Y-74905322D01*
X186403309Y-75094750D01*
X186974187Y-75095248D01*
X187501800Y-74877243D01*
X187905824Y-74473923D01*
X187959862Y-74343785D01*
X188012757Y-74471800D01*
X188416077Y-74875824D01*
X188943309Y-75094750D01*
X189514187Y-75095248D01*
X190041800Y-74877243D01*
X190445824Y-74473923D01*
X190499862Y-74343785D01*
X190552757Y-74471800D01*
X190956077Y-74875824D01*
X191483309Y-75094750D01*
X192054187Y-75095248D01*
X192581800Y-74877243D01*
X192791663Y-74667745D01*
X193481861Y-74667745D01*
X193555995Y-74913864D01*
X194093223Y-75106965D01*
X194663454Y-75079778D01*
X195064005Y-74913864D01*
X195138139Y-74667745D01*
X194310000Y-73839605D01*
X193481861Y-74667745D01*
X192791663Y-74667745D01*
X192985824Y-74473923D01*
X193033448Y-74359232D01*
X193056136Y-74414005D01*
X193302255Y-74488139D01*
X194130395Y-73660000D01*
X194116252Y-73645858D01*
X194295858Y-73466252D01*
X194310000Y-73480395D01*
X194324142Y-73466252D01*
X194503748Y-73645858D01*
X194489605Y-73660000D01*
X195317745Y-74488139D01*
X195563864Y-74414005D01*
X195756965Y-73876777D01*
X195741695Y-73556497D01*
X197529784Y-75344586D01*
X197475474Y-75475379D01*
X197474927Y-76101873D01*
X197714171Y-76680887D01*
X198092896Y-77060273D01*
X197715728Y-77436783D01*
X197475474Y-78015379D01*
X197474927Y-78641873D01*
X197714171Y-79220887D01*
X198092896Y-79600273D01*
X197715728Y-79976783D01*
X197475474Y-80555379D01*
X197474927Y-81181873D01*
X197714171Y-81760887D01*
X198092896Y-82140273D01*
X197715728Y-82516783D01*
X197475474Y-83095379D01*
X197474927Y-83721873D01*
X197714171Y-84300887D01*
X198092896Y-84680273D01*
X197715728Y-85056783D01*
X197475474Y-85635379D01*
X197474927Y-86261873D01*
X197714171Y-86840887D01*
X198156783Y-87284272D01*
X198735379Y-87524526D01*
X199361873Y-87525073D01*
X199940887Y-87285829D01*
X200384272Y-86843217D01*
X200624526Y-86264621D01*
X200625073Y-85638127D01*
X200385829Y-85059113D01*
X200007104Y-84679727D01*
X200384272Y-84303217D01*
X200624526Y-83724621D01*
X200625073Y-83098127D01*
X200385829Y-82519113D01*
X200007104Y-82139727D01*
X200384272Y-81763217D01*
X200624526Y-81184621D01*
X200625073Y-80558127D01*
X200385829Y-79979113D01*
X200007104Y-79599727D01*
X200384272Y-79223217D01*
X200624526Y-78644621D01*
X200625073Y-78018127D01*
X200385829Y-77439113D01*
X200007104Y-77059727D01*
X200384272Y-76683217D01*
X200624526Y-76104621D01*
X200625073Y-75478127D01*
X200385829Y-74899113D01*
X199944885Y-74457399D01*
X199979363Y-74358968D01*
X199050000Y-73429605D01*
X199035858Y-73443748D01*
X198856253Y-73264143D01*
X198870395Y-73250000D01*
X199229605Y-73250000D01*
X200158968Y-74179363D01*
X200419580Y-74088077D01*
X200636045Y-73500167D01*
X200611049Y-72874172D01*
X200419580Y-72411923D01*
X200158968Y-72320637D01*
X199229605Y-73250000D01*
X198870395Y-73250000D01*
X197941032Y-72320637D01*
X197680420Y-72411923D01*
X197463955Y-72999833D01*
X197469334Y-73134532D01*
X196153770Y-71818968D01*
X198120637Y-71818968D01*
X198177043Y-71980000D01*
X198120637Y-72141032D01*
X199050000Y-73070395D01*
X199979363Y-72141032D01*
X199922957Y-71980000D01*
X199979363Y-71818968D01*
X199050000Y-70889605D01*
X198120637Y-71818968D01*
X196153770Y-71818968D01*
X195698961Y-71364159D01*
X195452399Y-71199412D01*
X195161560Y-71141560D01*
X189163558Y-71141560D01*
X188800400Y-70778402D01*
X188800400Y-70459833D01*
X197463955Y-70459833D01*
X197488951Y-71085828D01*
X197680420Y-71548077D01*
X197941032Y-71639363D01*
X198870395Y-70710000D01*
X199229605Y-70710000D01*
X200158968Y-71639363D01*
X200419580Y-71548077D01*
X200636045Y-70960167D01*
X200611049Y-70334172D01*
X200419580Y-69871923D01*
X200158968Y-69780637D01*
X199229605Y-70710000D01*
X198870395Y-70710000D01*
X197941032Y-69780637D01*
X197680420Y-69871923D01*
X197463955Y-70459833D01*
X188800400Y-70459833D01*
X188800400Y-68481873D01*
X197474927Y-68481873D01*
X197714171Y-69060887D01*
X198155115Y-69502601D01*
X198120637Y-69601032D01*
X199050000Y-70530395D01*
X199979363Y-69601032D01*
X199944687Y-69502036D01*
X200384272Y-69063217D01*
X200624526Y-68484621D01*
X200625073Y-67858127D01*
X200385829Y-67279113D01*
X199943217Y-66835728D01*
X199364621Y-66595474D01*
X198738127Y-66594927D01*
X198159113Y-66834171D01*
X197715728Y-67276783D01*
X197475474Y-67855379D01*
X197474927Y-68481873D01*
X188800400Y-68481873D01*
X188800400Y-67415409D01*
X188943309Y-67474750D01*
X189514187Y-67475248D01*
X189616985Y-67432773D01*
X189847806Y-67663595D01*
X190014140Y-67774735D01*
X190078536Y-67817763D01*
X190350700Y-67871900D01*
X194694800Y-67871900D01*
X194966965Y-67817763D01*
X195197694Y-67663594D01*
X195868295Y-66992994D01*
X196022463Y-66762264D01*
X196076600Y-66490100D01*
X196076600Y-60279500D01*
X196022463Y-60007336D01*
X195992107Y-59961905D01*
X195974330Y-59935300D01*
X197600078Y-59935300D01*
X197475474Y-60235379D01*
X197474927Y-60861873D01*
X197714171Y-61440887D01*
X198092896Y-61820273D01*
X197715728Y-62196783D01*
X197475474Y-62775379D01*
X197474927Y-63401873D01*
X197714171Y-63980887D01*
X198156783Y-64424272D01*
X198735379Y-64664526D01*
X199361873Y-64665073D01*
X199940887Y-64425829D01*
X200384272Y-63983217D01*
X200624526Y-63404621D01*
X200625073Y-62778127D01*
X200385829Y-62199113D01*
X200007104Y-61819727D01*
X200384272Y-61443217D01*
X200624526Y-60864621D01*
X200625073Y-60238127D01*
X200385829Y-59659113D01*
X200273850Y-59546938D01*
X200839000Y-58981789D01*
X200839000Y-100293630D01*
X200839000Y-100293630D01*
G37*
X200839000Y-100293630D02*
X200187178Y-100022969D01*
X199479846Y-100022352D01*
X199089537Y-100183624D01*
X199308411Y-99656518D01*
X199309028Y-98949186D01*
X199038914Y-98295460D01*
X198539191Y-97794864D01*
X197885938Y-97523609D01*
X197178606Y-97522992D01*
X196524880Y-97793106D01*
X196024284Y-98292829D01*
X195753029Y-98946082D01*
X195752412Y-99653414D01*
X196022526Y-100307140D01*
X196522249Y-100807736D01*
X197175502Y-101078991D01*
X197882834Y-101079608D01*
X198273143Y-100918336D01*
X198054269Y-101445442D01*
X198053652Y-102152774D01*
X198323766Y-102806500D01*
X198823489Y-103307096D01*
X199476742Y-103578351D01*
X200184074Y-103578968D01*
X200837800Y-103308854D01*
X200839000Y-103307656D01*
X200839000Y-113590000D01*
X151170091Y-113590000D01*
X149433126Y-111853034D01*
X165180972Y-111853034D01*
X165451086Y-112506760D01*
X165950809Y-113007356D01*
X166604062Y-113278611D01*
X167311394Y-113279228D01*
X167965120Y-113009114D01*
X168465716Y-112509391D01*
X168736971Y-111856138D01*
X168736973Y-111853034D01*
X175178412Y-111853034D01*
X175448526Y-112506760D01*
X175948249Y-113007356D01*
X176601502Y-113278611D01*
X177308834Y-113279228D01*
X177962560Y-113009114D01*
X178463156Y-112509391D01*
X178734411Y-111856138D01*
X178734413Y-111853034D01*
X185754972Y-111853034D01*
X186025086Y-112506760D01*
X186524809Y-113007356D01*
X187178062Y-113278611D01*
X187885394Y-113279228D01*
X188539120Y-113009114D01*
X189039716Y-112509391D01*
X189310971Y-111856138D01*
X189310973Y-111853034D01*
X195752412Y-111853034D01*
X196022526Y-112506760D01*
X196522249Y-113007356D01*
X197175502Y-113278611D01*
X197882834Y-113279228D01*
X198536560Y-113009114D01*
X199037156Y-112509391D01*
X199308411Y-111856138D01*
X199309028Y-111148806D01*
X199038914Y-110495080D01*
X198539191Y-109994484D01*
X197885938Y-109723229D01*
X197178606Y-109722612D01*
X196524880Y-109992726D01*
X196024284Y-110492449D01*
X195753029Y-111145702D01*
X195752412Y-111853034D01*
X189310973Y-111853034D01*
X189311588Y-111148806D01*
X189041474Y-110495080D01*
X188541751Y-109994484D01*
X187888498Y-109723229D01*
X187181166Y-109722612D01*
X186527440Y-109992726D01*
X186026844Y-110492449D01*
X185755589Y-111145702D01*
X185754972Y-111853034D01*
X178734413Y-111853034D01*
X178735028Y-111148806D01*
X178464914Y-110495080D01*
X177965191Y-109994484D01*
X177311938Y-109723229D01*
X176604606Y-109722612D01*
X175950880Y-109992726D01*
X175450284Y-110492449D01*
X175179029Y-111145702D01*
X175178412Y-111853034D01*
X168736973Y-111853034D01*
X168737588Y-111148806D01*
X168467474Y-110495080D01*
X167967751Y-109994484D01*
X167314498Y-109723229D01*
X166607166Y-109722612D01*
X165953440Y-109992726D01*
X165452844Y-110492449D01*
X165181589Y-111145702D01*
X165180972Y-111853034D01*
X149433126Y-111853034D01*
X149046000Y-111465908D01*
X149046000Y-108795752D01*
X149457717Y-109208188D01*
X150003319Y-109434742D01*
X150594089Y-109435257D01*
X151076048Y-109236116D01*
X151085910Y-109251441D01*
X151298110Y-109396431D01*
X151550000Y-109447440D01*
X153250000Y-109447440D01*
X153485317Y-109403162D01*
X153689324Y-109271887D01*
X154171279Y-109446718D01*
X154761458Y-109420315D01*
X155184080Y-109245259D01*
X155264352Y-108993960D01*
X155379062Y-109108670D01*
X155418752Y-109068980D01*
X155557717Y-109208188D01*
X156103319Y-109434742D01*
X156694089Y-109435257D01*
X157240086Y-109209656D01*
X157450000Y-109000108D01*
X157657717Y-109208188D01*
X158203319Y-109434742D01*
X158794089Y-109435257D01*
X159340086Y-109209656D01*
X159758188Y-108792283D01*
X159984742Y-108246681D01*
X159985257Y-107655911D01*
X159759656Y-107109914D01*
X159342283Y-106691812D01*
X158796681Y-106465258D01*
X158205911Y-106464743D01*
X158115000Y-106502307D01*
X158115000Y-102327400D01*
X158080265Y-102152774D01*
X162879732Y-102152774D01*
X163149846Y-102806500D01*
X163649569Y-103307096D01*
X164302822Y-103578351D01*
X165010154Y-103578968D01*
X165663880Y-103308854D01*
X165916551Y-103056623D01*
X170881642Y-103056623D01*
X170997806Y-103338318D01*
X171659333Y-103588722D01*
X172366329Y-103566909D01*
X172918194Y-103338318D01*
X173034358Y-103056623D01*
X171958000Y-101980265D01*
X170881642Y-103056623D01*
X165916551Y-103056623D01*
X166164476Y-102809131D01*
X166435731Y-102155878D01*
X166436301Y-101501993D01*
X170169938Y-101501993D01*
X170191751Y-102208989D01*
X170420342Y-102760854D01*
X170702037Y-102877018D01*
X171778395Y-101800660D01*
X172137605Y-101800660D01*
X173213963Y-102877018D01*
X173495658Y-102760854D01*
X173746062Y-102099327D01*
X173724249Y-101392331D01*
X173495658Y-100840466D01*
X173213963Y-100724302D01*
X172137605Y-101800660D01*
X171778395Y-101800660D01*
X170702037Y-100724302D01*
X170420342Y-100840466D01*
X170169938Y-101501993D01*
X166436301Y-101501993D01*
X166436348Y-101448546D01*
X166217292Y-100918390D01*
X166604062Y-101078991D01*
X167311394Y-101079608D01*
X167965120Y-100809494D01*
X168230379Y-100544697D01*
X170881642Y-100544697D01*
X171958000Y-101621055D01*
X173034358Y-100544697D01*
X172918194Y-100263002D01*
X172256667Y-100012598D01*
X171549671Y-100034411D01*
X170997806Y-100263002D01*
X170881642Y-100544697D01*
X168230379Y-100544697D01*
X168465716Y-100309771D01*
X168736971Y-99656518D01*
X168736973Y-99653414D01*
X175178412Y-99653414D01*
X175448526Y-100307140D01*
X175948249Y-100807736D01*
X176601502Y-101078991D01*
X177308834Y-101079608D01*
X177699143Y-100918336D01*
X177480269Y-101445442D01*
X177479652Y-102152774D01*
X177749766Y-102806500D01*
X178249489Y-103307096D01*
X178902742Y-103578351D01*
X179610074Y-103578968D01*
X180263800Y-103308854D01*
X180764396Y-102809131D01*
X181035651Y-102155878D01*
X181035653Y-102152774D01*
X183453732Y-102152774D01*
X183723846Y-102806500D01*
X184223569Y-103307096D01*
X184876822Y-103578351D01*
X185584154Y-103578968D01*
X186237880Y-103308854D01*
X186738476Y-102809131D01*
X187009731Y-102155878D01*
X187009733Y-102152774D01*
X190753692Y-102152774D01*
X191023806Y-102806500D01*
X191523529Y-103307096D01*
X192176782Y-103578351D01*
X192884114Y-103578968D01*
X193537840Y-103308854D01*
X194038436Y-102809131D01*
X194309691Y-102155878D01*
X194310308Y-101448546D01*
X194040194Y-100794820D01*
X193540471Y-100294224D01*
X192887218Y-100022969D01*
X192179886Y-100022352D01*
X191526160Y-100292466D01*
X191025564Y-100792189D01*
X190754309Y-101445442D01*
X190753692Y-102152774D01*
X187009733Y-102152774D01*
X187010348Y-101448546D01*
X186791292Y-100918390D01*
X187178062Y-101078991D01*
X187885394Y-101079608D01*
X188539120Y-100809494D01*
X189039716Y-100309771D01*
X189310971Y-99656518D01*
X189311588Y-98949186D01*
X189041474Y-98295460D01*
X188541751Y-97794864D01*
X187888498Y-97523609D01*
X187181166Y-97522992D01*
X186527440Y-97793106D01*
X186026844Y-98292829D01*
X185755589Y-98946082D01*
X185754972Y-99653414D01*
X185974028Y-100183570D01*
X185587258Y-100022969D01*
X184879926Y-100022352D01*
X184226200Y-100292466D01*
X183725604Y-100792189D01*
X183454349Y-101445442D01*
X183453732Y-102152774D01*
X181035653Y-102152774D01*
X181036268Y-101448546D01*
X180766154Y-100794820D01*
X180266431Y-100294224D01*
X179613178Y-100022969D01*
X178905846Y-100022352D01*
X178515537Y-100183624D01*
X178734411Y-99656518D01*
X178735028Y-98949186D01*
X178464914Y-98295460D01*
X177965191Y-97794864D01*
X177311938Y-97523609D01*
X176604606Y-97522992D01*
X175950880Y-97793106D01*
X175450284Y-98292829D01*
X175179029Y-98946082D01*
X175178412Y-99653414D01*
X168736973Y-99653414D01*
X168737588Y-98949186D01*
X168467474Y-98295460D01*
X167967751Y-97794864D01*
X167314498Y-97523609D01*
X166607166Y-97522992D01*
X165953440Y-97793106D01*
X165452844Y-98292829D01*
X165181589Y-98946082D01*
X165180972Y-99653414D01*
X165400028Y-100183570D01*
X165013258Y-100022969D01*
X164305926Y-100022352D01*
X163652200Y-100292466D01*
X163151604Y-100792189D01*
X162880349Y-101445442D01*
X162879732Y-102152774D01*
X158080265Y-102152774D01*
X158060863Y-102055235D01*
X157906694Y-101824506D01*
X156556845Y-100474657D01*
X157007828Y-100456649D01*
X157470077Y-100265180D01*
X157561363Y-100004568D01*
X156632000Y-99075205D01*
X156617858Y-99089348D01*
X156438253Y-98909743D01*
X156452395Y-98895600D01*
X156811605Y-98895600D01*
X157740968Y-99824963D01*
X158001580Y-99733677D01*
X158218045Y-99145767D01*
X158193049Y-98519772D01*
X158001580Y-98057523D01*
X157740968Y-97966237D01*
X156811605Y-98895600D01*
X156452395Y-98895600D01*
X156438253Y-98881458D01*
X156617858Y-98701853D01*
X156632000Y-98715995D01*
X157561363Y-97786632D01*
X157526687Y-97687636D01*
X157902273Y-97312704D01*
X158278783Y-97689872D01*
X158857379Y-97930126D01*
X159483873Y-97930673D01*
X160062887Y-97691429D01*
X160442273Y-97312704D01*
X160818783Y-97689872D01*
X161397379Y-97930126D01*
X162023873Y-97930673D01*
X162602887Y-97691429D01*
X163046272Y-97248817D01*
X163286526Y-96670221D01*
X163287073Y-96043727D01*
X163185045Y-95796800D01*
X164803774Y-95796800D01*
X165075939Y-95742663D01*
X165306668Y-95588494D01*
X185861085Y-75034078D01*
X185947117Y-74905322D01*
X186403309Y-75094750D01*
X186974187Y-75095248D01*
X187501800Y-74877243D01*
X187905824Y-74473923D01*
X187959862Y-74343785D01*
X188012757Y-74471800D01*
X188416077Y-74875824D01*
X188943309Y-75094750D01*
X189514187Y-75095248D01*
X190041800Y-74877243D01*
X190445824Y-74473923D01*
X190499862Y-74343785D01*
X190552757Y-74471800D01*
X190956077Y-74875824D01*
X191483309Y-75094750D01*
X192054187Y-75095248D01*
X192581800Y-74877243D01*
X192791663Y-74667745D01*
X193481861Y-74667745D01*
X193555995Y-74913864D01*
X194093223Y-75106965D01*
X194663454Y-75079778D01*
X195064005Y-74913864D01*
X195138139Y-74667745D01*
X194310000Y-73839605D01*
X193481861Y-74667745D01*
X192791663Y-74667745D01*
X192985824Y-74473923D01*
X193033448Y-74359232D01*
X193056136Y-74414005D01*
X193302255Y-74488139D01*
X194130395Y-73660000D01*
X194116252Y-73645858D01*
X194295858Y-73466252D01*
X194310000Y-73480395D01*
X194324142Y-73466252D01*
X194503748Y-73645858D01*
X194489605Y-73660000D01*
X195317745Y-74488139D01*
X195563864Y-74414005D01*
X195756965Y-73876777D01*
X195741695Y-73556497D01*
X197529784Y-75344586D01*
X197475474Y-75475379D01*
X197474927Y-76101873D01*
X197714171Y-76680887D01*
X198092896Y-77060273D01*
X197715728Y-77436783D01*
X197475474Y-78015379D01*
X197474927Y-78641873D01*
X197714171Y-79220887D01*
X198092896Y-79600273D01*
X197715728Y-79976783D01*
X197475474Y-80555379D01*
X197474927Y-81181873D01*
X197714171Y-81760887D01*
X198092896Y-82140273D01*
X197715728Y-82516783D01*
X197475474Y-83095379D01*
X197474927Y-83721873D01*
X197714171Y-84300887D01*
X198092896Y-84680273D01*
X197715728Y-85056783D01*
X197475474Y-85635379D01*
X197474927Y-86261873D01*
X197714171Y-86840887D01*
X198156783Y-87284272D01*
X198735379Y-87524526D01*
X199361873Y-87525073D01*
X199940887Y-87285829D01*
X200384272Y-86843217D01*
X200624526Y-86264621D01*
X200625073Y-85638127D01*
X200385829Y-85059113D01*
X200007104Y-84679727D01*
X200384272Y-84303217D01*
X200624526Y-83724621D01*
X200625073Y-83098127D01*
X200385829Y-82519113D01*
X200007104Y-82139727D01*
X200384272Y-81763217D01*
X200624526Y-81184621D01*
X200625073Y-80558127D01*
X200385829Y-79979113D01*
X200007104Y-79599727D01*
X200384272Y-79223217D01*
X200624526Y-78644621D01*
X200625073Y-78018127D01*
X200385829Y-77439113D01*
X200007104Y-77059727D01*
X200384272Y-76683217D01*
X200624526Y-76104621D01*
X200625073Y-75478127D01*
X200385829Y-74899113D01*
X199944885Y-74457399D01*
X199979363Y-74358968D01*
X199050000Y-73429605D01*
X199035858Y-73443748D01*
X198856253Y-73264143D01*
X198870395Y-73250000D01*
X199229605Y-73250000D01*
X200158968Y-74179363D01*
X200419580Y-74088077D01*
X200636045Y-73500167D01*
X200611049Y-72874172D01*
X200419580Y-72411923D01*
X200158968Y-72320637D01*
X199229605Y-73250000D01*
X198870395Y-73250000D01*
X197941032Y-72320637D01*
X197680420Y-72411923D01*
X197463955Y-72999833D01*
X197469334Y-73134532D01*
X196153770Y-71818968D01*
X198120637Y-71818968D01*
X198177043Y-71980000D01*
X198120637Y-72141032D01*
X199050000Y-73070395D01*
X199979363Y-72141032D01*
X199922957Y-71980000D01*
X199979363Y-71818968D01*
X199050000Y-70889605D01*
X198120637Y-71818968D01*
X196153770Y-71818968D01*
X195698961Y-71364159D01*
X195452399Y-71199412D01*
X195161560Y-71141560D01*
X189163558Y-71141560D01*
X188800400Y-70778402D01*
X188800400Y-70459833D01*
X197463955Y-70459833D01*
X197488951Y-71085828D01*
X197680420Y-71548077D01*
X197941032Y-71639363D01*
X198870395Y-70710000D01*
X199229605Y-70710000D01*
X200158968Y-71639363D01*
X200419580Y-71548077D01*
X200636045Y-70960167D01*
X200611049Y-70334172D01*
X200419580Y-69871923D01*
X200158968Y-69780637D01*
X199229605Y-70710000D01*
X198870395Y-70710000D01*
X197941032Y-69780637D01*
X197680420Y-69871923D01*
X197463955Y-70459833D01*
X188800400Y-70459833D01*
X188800400Y-68481873D01*
X197474927Y-68481873D01*
X197714171Y-69060887D01*
X198155115Y-69502601D01*
X198120637Y-69601032D01*
X199050000Y-70530395D01*
X199979363Y-69601032D01*
X199944687Y-69502036D01*
X200384272Y-69063217D01*
X200624526Y-68484621D01*
X200625073Y-67858127D01*
X200385829Y-67279113D01*
X199943217Y-66835728D01*
X199364621Y-66595474D01*
X198738127Y-66594927D01*
X198159113Y-66834171D01*
X197715728Y-67276783D01*
X197475474Y-67855379D01*
X197474927Y-68481873D01*
X188800400Y-68481873D01*
X188800400Y-67415409D01*
X188943309Y-67474750D01*
X189514187Y-67475248D01*
X189616985Y-67432773D01*
X189847806Y-67663595D01*
X190014140Y-67774735D01*
X190078536Y-67817763D01*
X190350700Y-67871900D01*
X194694800Y-67871900D01*
X194966965Y-67817763D01*
X195197694Y-67663594D01*
X195868295Y-66992994D01*
X196022463Y-66762264D01*
X196076600Y-66490100D01*
X196076600Y-60279500D01*
X196022463Y-60007336D01*
X195992107Y-59961905D01*
X195974330Y-59935300D01*
X197600078Y-59935300D01*
X197475474Y-60235379D01*
X197474927Y-60861873D01*
X197714171Y-61440887D01*
X198092896Y-61820273D01*
X197715728Y-62196783D01*
X197475474Y-62775379D01*
X197474927Y-63401873D01*
X197714171Y-63980887D01*
X198156783Y-64424272D01*
X198735379Y-64664526D01*
X199361873Y-64665073D01*
X199940887Y-64425829D01*
X200384272Y-63983217D01*
X200624526Y-63404621D01*
X200625073Y-62778127D01*
X200385829Y-62199113D01*
X200007104Y-61819727D01*
X200384272Y-61443217D01*
X200624526Y-60864621D01*
X200625073Y-60238127D01*
X200385829Y-59659113D01*
X200273850Y-59546938D01*
X200839000Y-58981789D01*
X200839000Y-100293630D01*
G36*
X154593748Y-107935858D02*
X154579605Y-107950000D01*
X154593748Y-107964143D01*
X154414143Y-108143748D01*
X154400000Y-108129605D01*
X154385858Y-108143748D01*
X154206253Y-107964143D01*
X154220395Y-107950000D01*
X154206253Y-107935858D01*
X154385858Y-107756253D01*
X154400000Y-107770395D01*
X154414143Y-107756253D01*
X154593748Y-107935858D01*
X154593748Y-107935858D01*
G37*
X154593748Y-107935858D02*
X154579605Y-107950000D01*
X154593748Y-107964143D01*
X154414143Y-108143748D01*
X154400000Y-108129605D01*
X154385858Y-108143748D01*
X154206253Y-107964143D01*
X154220395Y-107950000D01*
X154206253Y-107935858D01*
X154385858Y-107756253D01*
X154400000Y-107770395D01*
X154414143Y-107756253D01*
X154593748Y-107935858D01*
G36*
X153198783Y-100229872D02*
X153777379Y-100470126D01*
X154403873Y-100470673D01*
X154664362Y-100363041D01*
X154702637Y-100555465D01*
X154856806Y-100786194D01*
X155521258Y-101450646D01*
X155319113Y-101534171D01*
X154939727Y-101912896D01*
X154563217Y-101535728D01*
X153984621Y-101295474D01*
X153358127Y-101294927D01*
X152779113Y-101534171D01*
X152335728Y-101976783D01*
X152095474Y-102555379D01*
X152094927Y-103181873D01*
X152334171Y-103760887D01*
X152776783Y-104204272D01*
X153355379Y-104444526D01*
X153981873Y-104445073D01*
X154560887Y-104205829D01*
X154940273Y-103827104D01*
X155316783Y-104204272D01*
X155895379Y-104444526D01*
X156521873Y-104445073D01*
X156692600Y-104374530D01*
X156692600Y-106465254D01*
X156105911Y-106464743D01*
X155559914Y-106690344D01*
X155418872Y-106831140D01*
X155379062Y-106791330D01*
X155264352Y-106906040D01*
X155184080Y-106654741D01*
X154628721Y-106453282D01*
X154038542Y-106479685D01*
X153682671Y-106627092D01*
X153501890Y-106503569D01*
X153250000Y-106452560D01*
X151550000Y-106452560D01*
X151314683Y-106496838D01*
X151098559Y-106635910D01*
X151078468Y-106665314D01*
X150596681Y-106465258D01*
X150005911Y-106464743D01*
X149459914Y-106690344D01*
X149046000Y-107103536D01*
X149046000Y-100034821D01*
X149557521Y-100547236D01*
X150378681Y-100888211D01*
X151267819Y-100888987D01*
X152089572Y-100549445D01*
X152718836Y-99921279D01*
X152769332Y-99799671D01*
X153198783Y-100229872D01*
X153198783Y-100229872D01*
G37*
X153198783Y-100229872D02*
X153777379Y-100470126D01*
X154403873Y-100470673D01*
X154664362Y-100363041D01*
X154702637Y-100555465D01*
X154856806Y-100786194D01*
X155521258Y-101450646D01*
X155319113Y-101534171D01*
X154939727Y-101912896D01*
X154563217Y-101535728D01*
X153984621Y-101295474D01*
X153358127Y-101294927D01*
X152779113Y-101534171D01*
X152335728Y-101976783D01*
X152095474Y-102555379D01*
X152094927Y-103181873D01*
X152334171Y-103760887D01*
X152776783Y-104204272D01*
X153355379Y-104444526D01*
X153981873Y-104445073D01*
X154560887Y-104205829D01*
X154940273Y-103827104D01*
X155316783Y-104204272D01*
X155895379Y-104444526D01*
X156521873Y-104445073D01*
X156692600Y-104374530D01*
X156692600Y-106465254D01*
X156105911Y-106464743D01*
X155559914Y-106690344D01*
X155418872Y-106831140D01*
X155379062Y-106791330D01*
X155264352Y-106906040D01*
X155184080Y-106654741D01*
X154628721Y-106453282D01*
X154038542Y-106479685D01*
X153682671Y-106627092D01*
X153501890Y-106503569D01*
X153250000Y-106452560D01*
X151550000Y-106452560D01*
X151314683Y-106496838D01*
X151098559Y-106635910D01*
X151078468Y-106665314D01*
X150596681Y-106465258D01*
X150005911Y-106464743D01*
X149459914Y-106690344D01*
X149046000Y-107103536D01*
X149046000Y-100034821D01*
X149557521Y-100547236D01*
X150378681Y-100888211D01*
X151267819Y-100888987D01*
X152089572Y-100549445D01*
X152718836Y-99921279D01*
X152769332Y-99799671D01*
X153198783Y-100229872D01*
G36*
X177852757Y-74471800D02*
X178256077Y-74875824D01*
X178783309Y-75094750D01*
X179354187Y-75095248D01*
X179844449Y-74892676D01*
X179868437Y-74928576D01*
X180676286Y-75736423D01*
X180907015Y-75890592D01*
X180952170Y-75899574D01*
X181179180Y-75944729D01*
X182576471Y-75944729D01*
X182848636Y-75890592D01*
X183079365Y-75736423D01*
X183762781Y-75053007D01*
X183810686Y-75072899D01*
X164509186Y-94374400D01*
X163185134Y-94374400D01*
X163286526Y-94130221D01*
X163287073Y-93503727D01*
X163211810Y-93321578D01*
X166872895Y-89660494D01*
X167027063Y-89429765D01*
X167081200Y-89157600D01*
X167081200Y-82690074D01*
X167260887Y-82615829D01*
X167704272Y-82173217D01*
X167944526Y-81594621D01*
X167945073Y-80968127D01*
X167705829Y-80389113D01*
X167327104Y-80009727D01*
X167704272Y-79633217D01*
X167944526Y-79054621D01*
X167945073Y-78428127D01*
X167705829Y-77849113D01*
X167438483Y-77581300D01*
X172985634Y-77581300D01*
X173257799Y-77527163D01*
X173488528Y-77372994D01*
X175762915Y-75098607D01*
X175869271Y-74939436D01*
X176243309Y-75094750D01*
X176814187Y-75095248D01*
X177341800Y-74877243D01*
X177745824Y-74473923D01*
X177799862Y-74343785D01*
X177852757Y-74471800D01*
X177852757Y-74471800D01*
G37*
X177852757Y-74471800D02*
X178256077Y-74875824D01*
X178783309Y-75094750D01*
X179354187Y-75095248D01*
X179844449Y-74892676D01*
X179868437Y-74928576D01*
X180676286Y-75736423D01*
X180907015Y-75890592D01*
X180952170Y-75899574D01*
X181179180Y-75944729D01*
X182576471Y-75944729D01*
X182848636Y-75890592D01*
X183079365Y-75736423D01*
X183762781Y-75053007D01*
X183810686Y-75072899D01*
X164509186Y-94374400D01*
X163185134Y-94374400D01*
X163286526Y-94130221D01*
X163287073Y-93503727D01*
X163211810Y-93321578D01*
X166872895Y-89660494D01*
X167027063Y-89429765D01*
X167081200Y-89157600D01*
X167081200Y-82690074D01*
X167260887Y-82615829D01*
X167704272Y-82173217D01*
X167944526Y-81594621D01*
X167945073Y-80968127D01*
X167705829Y-80389113D01*
X167327104Y-80009727D01*
X167704272Y-79633217D01*
X167944526Y-79054621D01*
X167945073Y-78428127D01*
X167705829Y-77849113D01*
X167438483Y-77581300D01*
X172985634Y-77581300D01*
X173257799Y-77527163D01*
X173488528Y-77372994D01*
X175762915Y-75098607D01*
X175869271Y-74939436D01*
X176243309Y-75094750D01*
X176814187Y-75095248D01*
X177341800Y-74877243D01*
X177745824Y-74473923D01*
X177799862Y-74343785D01*
X177852757Y-74471800D01*
G36*
X157856783Y-82614272D02*
X158435379Y-82854526D01*
X158460800Y-82854548D01*
X158460800Y-92405526D01*
X158281113Y-92479771D01*
X157901727Y-92858496D01*
X157525217Y-92481328D01*
X156946621Y-92241074D01*
X156320127Y-92240527D01*
X155741113Y-92479771D01*
X155361727Y-92858496D01*
X155044049Y-92540263D01*
X155521494Y-92062818D01*
X155675663Y-91832088D01*
X155686954Y-91775323D01*
X155729800Y-91559923D01*
X155729800Y-82785772D01*
X155895379Y-82854526D01*
X156521873Y-82855073D01*
X157100887Y-82615829D01*
X157480273Y-82237104D01*
X157856783Y-82614272D01*
X157856783Y-82614272D01*
G37*
X157856783Y-82614272D02*
X158435379Y-82854526D01*
X158460800Y-82854548D01*
X158460800Y-92405526D01*
X158281113Y-92479771D01*
X157901727Y-92858496D01*
X157525217Y-92481328D01*
X156946621Y-92241074D01*
X156320127Y-92240527D01*
X155741113Y-92479771D01*
X155361727Y-92858496D01*
X155044049Y-92540263D01*
X155521494Y-92062818D01*
X155675663Y-91832088D01*
X155686954Y-91775323D01*
X155729800Y-91559923D01*
X155729800Y-82785772D01*
X155895379Y-82854526D01*
X156521873Y-82855073D01*
X157100887Y-82615829D01*
X157480273Y-82237104D01*
X157856783Y-82614272D01*
G36*
X165476783Y-82614272D02*
X165658800Y-82689852D01*
X165658800Y-88863011D01*
X162206179Y-92315633D01*
X162026621Y-92241074D01*
X161400127Y-92240527D01*
X160821113Y-92479771D01*
X160441727Y-92858496D01*
X160065217Y-92481328D01*
X159883200Y-92405748D01*
X159883200Y-82373938D01*
X160020273Y-82237104D01*
X160396783Y-82614272D01*
X160975379Y-82854526D01*
X161601873Y-82855073D01*
X162180887Y-82615829D01*
X162560273Y-82237104D01*
X162936783Y-82614272D01*
X163515379Y-82854526D01*
X164141873Y-82855073D01*
X164720887Y-82615829D01*
X165100273Y-82237104D01*
X165476783Y-82614272D01*
X165476783Y-82614272D01*
G37*
X165476783Y-82614272D02*
X165658800Y-82689852D01*
X165658800Y-88863011D01*
X162206179Y-92315633D01*
X162026621Y-92241074D01*
X161400127Y-92240527D01*
X160821113Y-92479771D01*
X160441727Y-92858496D01*
X160065217Y-92481328D01*
X159883200Y-92405748D01*
X159883200Y-82373938D01*
X160020273Y-82237104D01*
X160396783Y-82614272D01*
X160975379Y-82854526D01*
X161601873Y-82855073D01*
X162180887Y-82615829D01*
X162560273Y-82237104D01*
X162936783Y-82614272D01*
X163515379Y-82854526D01*
X164141873Y-82855073D01*
X164720887Y-82615829D01*
X165100273Y-82237104D01*
X165476783Y-82614272D01*
G36*
X153288850Y-91589361D02*
X152364836Y-92513375D01*
X152365073Y-92242127D01*
X152125829Y-91663113D01*
X151747104Y-91283727D01*
X152124272Y-90907217D01*
X152364526Y-90328621D01*
X152365073Y-89702127D01*
X152125829Y-89123113D01*
X151684885Y-88681399D01*
X151719363Y-88582968D01*
X150790000Y-87653605D01*
X150775858Y-87667748D01*
X150596253Y-87488143D01*
X150610395Y-87474000D01*
X150969605Y-87474000D01*
X151898968Y-88403363D01*
X152159580Y-88312077D01*
X152376045Y-87724167D01*
X152351049Y-87098172D01*
X152159580Y-86635923D01*
X151898968Y-86544637D01*
X150969605Y-87474000D01*
X150610395Y-87474000D01*
X150596253Y-87459858D01*
X150775858Y-87280253D01*
X150790000Y-87294395D01*
X151719363Y-86365032D01*
X151684687Y-86266036D01*
X152124272Y-85827217D01*
X152364526Y-85248621D01*
X152365073Y-84622127D01*
X152289810Y-84439978D01*
X153288850Y-83440938D01*
X153288850Y-91589361D01*
X153288850Y-91589361D01*
G37*
X153288850Y-91589361D02*
X152364836Y-92513375D01*
X152365073Y-92242127D01*
X152125829Y-91663113D01*
X151747104Y-91283727D01*
X152124272Y-90907217D01*
X152364526Y-90328621D01*
X152365073Y-89702127D01*
X152125829Y-89123113D01*
X151684885Y-88681399D01*
X151719363Y-88582968D01*
X150790000Y-87653605D01*
X150775858Y-87667748D01*
X150596253Y-87488143D01*
X150610395Y-87474000D01*
X150969605Y-87474000D01*
X151898968Y-88403363D01*
X152159580Y-88312077D01*
X152376045Y-87724167D01*
X152351049Y-87098172D01*
X152159580Y-86635923D01*
X151898968Y-86544637D01*
X150969605Y-87474000D01*
X150610395Y-87474000D01*
X150596253Y-87459858D01*
X150775858Y-87280253D01*
X150790000Y-87294395D01*
X151719363Y-86365032D01*
X151684687Y-86266036D01*
X152124272Y-85827217D01*
X152364526Y-85248621D01*
X152365073Y-84622127D01*
X152289810Y-84439978D01*
X153288850Y-83440938D01*
X153288850Y-91589361D01*
G36*
X169286783Y-59754272D02*
X169865379Y-59994526D01*
X170408599Y-59995000D01*
X170408599Y-65172741D01*
X169677106Y-65904235D01*
X169522937Y-66134964D01*
X169499975Y-66250402D01*
X169468800Y-66407129D01*
X169468800Y-68798500D01*
X169522937Y-69070665D01*
X169677106Y-69301394D01*
X172758676Y-72382965D01*
X172738559Y-72395910D01*
X172593569Y-72608110D01*
X172542560Y-72860000D01*
X172542560Y-74460000D01*
X172586838Y-74695317D01*
X172725910Y-74911441D01*
X172938110Y-75056431D01*
X173190000Y-75107440D01*
X173742506Y-75107440D01*
X172691046Y-76158900D01*
X156394600Y-76158900D01*
X156122435Y-76213037D01*
X155891706Y-76367206D01*
X154711250Y-77547662D01*
X154711250Y-68161498D01*
X157147760Y-65724988D01*
X157147760Y-66989881D01*
X157201897Y-67262046D01*
X157356066Y-67492775D01*
X159310867Y-69447577D01*
X159310683Y-69658988D01*
X159465034Y-70032546D01*
X159750590Y-70318601D01*
X160123877Y-70473604D01*
X160528067Y-70473956D01*
X160901625Y-70319605D01*
X161187680Y-70034049D01*
X161342683Y-69660762D01*
X161343035Y-69256572D01*
X161188684Y-68883014D01*
X160903128Y-68596959D01*
X160529841Y-68441956D01*
X160316638Y-68441770D01*
X158570160Y-66695293D01*
X158570160Y-64302588D01*
X162141479Y-60731269D01*
X165672637Y-60731269D01*
X165944802Y-60677132D01*
X166175531Y-60522963D01*
X166816035Y-59882460D01*
X166868043Y-59804624D01*
X167325379Y-59994526D01*
X167951873Y-59995073D01*
X168530887Y-59755829D01*
X168910273Y-59377104D01*
X169286783Y-59754272D01*
X169286783Y-59754272D01*
G37*
X169286783Y-59754272D02*
X169865379Y-59994526D01*
X170408599Y-59995000D01*
X170408599Y-65172741D01*
X169677106Y-65904235D01*
X169522937Y-66134964D01*
X169499975Y-66250402D01*
X169468800Y-66407129D01*
X169468800Y-68798500D01*
X169522937Y-69070665D01*
X169677106Y-69301394D01*
X172758676Y-72382965D01*
X172738559Y-72395910D01*
X172593569Y-72608110D01*
X172542560Y-72860000D01*
X172542560Y-74460000D01*
X172586838Y-74695317D01*
X172725910Y-74911441D01*
X172938110Y-75056431D01*
X173190000Y-75107440D01*
X173742506Y-75107440D01*
X172691046Y-76158900D01*
X156394600Y-76158900D01*
X156122435Y-76213037D01*
X155891706Y-76367206D01*
X154711250Y-77547662D01*
X154711250Y-68161498D01*
X157147760Y-65724988D01*
X157147760Y-66989881D01*
X157201897Y-67262046D01*
X157356066Y-67492775D01*
X159310867Y-69447577D01*
X159310683Y-69658988D01*
X159465034Y-70032546D01*
X159750590Y-70318601D01*
X160123877Y-70473604D01*
X160528067Y-70473956D01*
X160901625Y-70319605D01*
X161187680Y-70034049D01*
X161342683Y-69660762D01*
X161343035Y-69256572D01*
X161188684Y-68883014D01*
X160903128Y-68596959D01*
X160529841Y-68441956D01*
X160316638Y-68441770D01*
X158570160Y-66695293D01*
X158570160Y-64302588D01*
X162141479Y-60731269D01*
X165672637Y-60731269D01*
X165944802Y-60677132D01*
X166175531Y-60522963D01*
X166816035Y-59882460D01*
X166868043Y-59804624D01*
X167325379Y-59994526D01*
X167951873Y-59995073D01*
X168530887Y-59755829D01*
X168910273Y-59377104D01*
X169286783Y-59754272D01*
G36*
X185876077Y-67255824D02*
X186403309Y-67474750D01*
X186974187Y-67475248D01*
X187280400Y-67348724D01*
X187280400Y-71093204D01*
X187338252Y-71384043D01*
X187502999Y-71630605D01*
X188311355Y-72438961D01*
X188377637Y-72483249D01*
X188014176Y-72846077D01*
X187960138Y-72976215D01*
X187907243Y-72848200D01*
X187503923Y-72444176D01*
X186976691Y-72225250D01*
X186405813Y-72224752D01*
X185878200Y-72442757D01*
X185811728Y-72509113D01*
X185047761Y-71745146D01*
X184817032Y-71590977D01*
X184544867Y-71536840D01*
X184053756Y-71536840D01*
X184053756Y-68093240D01*
X184597305Y-68093240D01*
X184869470Y-68039103D01*
X185100199Y-67884934D01*
X185802757Y-67182376D01*
X185876077Y-67255824D01*
X185876077Y-67255824D01*
G37*
X185876077Y-67255824D02*
X186403309Y-67474750D01*
X186974187Y-67475248D01*
X187280400Y-67348724D01*
X187280400Y-71093204D01*
X187338252Y-71384043D01*
X187502999Y-71630605D01*
X188311355Y-72438961D01*
X188377637Y-72483249D01*
X188014176Y-72846077D01*
X187960138Y-72976215D01*
X187907243Y-72848200D01*
X187503923Y-72444176D01*
X186976691Y-72225250D01*
X186405813Y-72224752D01*
X185878200Y-72442757D01*
X185811728Y-72509113D01*
X185047761Y-71745146D01*
X184817032Y-71590977D01*
X184544867Y-71536840D01*
X184053756Y-71536840D01*
X184053756Y-68093240D01*
X184597305Y-68093240D01*
X184869470Y-68039103D01*
X185100199Y-67884934D01*
X185802757Y-67182376D01*
X185876077Y-67255824D01*
G36*
X172772757Y-66851800D02*
X173176077Y-67255824D01*
X173703309Y-67474750D01*
X174274187Y-67475248D01*
X174801800Y-67257243D01*
X175205824Y-66853923D01*
X175259862Y-66723785D01*
X175312757Y-66851800D01*
X175716077Y-67255824D01*
X176243309Y-67474750D01*
X176814187Y-67475248D01*
X177341800Y-67257243D01*
X177745824Y-66853923D01*
X177799862Y-66723785D01*
X177852757Y-66851800D01*
X178256077Y-67255824D01*
X178783309Y-67474750D01*
X179354187Y-67475248D01*
X179881800Y-67257243D01*
X180006170Y-67133090D01*
X180558301Y-67685222D01*
X180746466Y-67810949D01*
X180789031Y-67839390D01*
X181061195Y-67893527D01*
X181733999Y-67893527D01*
X181891331Y-68050859D01*
X181891331Y-71438264D01*
X181750142Y-71579454D01*
X180832958Y-71579454D01*
X180605948Y-71624609D01*
X180560793Y-71633591D01*
X180330064Y-71787760D01*
X179868437Y-72249387D01*
X179769915Y-72396836D01*
X179356691Y-72225250D01*
X178785813Y-72224752D01*
X178683015Y-72267227D01*
X178304724Y-71888936D01*
X178073995Y-71734767D01*
X177801830Y-71680630D01*
X175872334Y-71680630D01*
X172670235Y-68478531D01*
X172670235Y-66603678D01*
X172772757Y-66851800D01*
X172772757Y-66851800D01*
G37*
X172772757Y-66851800D02*
X173176077Y-67255824D01*
X173703309Y-67474750D01*
X174274187Y-67475248D01*
X174801800Y-67257243D01*
X175205824Y-66853923D01*
X175259862Y-66723785D01*
X175312757Y-66851800D01*
X175716077Y-67255824D01*
X176243309Y-67474750D01*
X176814187Y-67475248D01*
X177341800Y-67257243D01*
X177745824Y-66853923D01*
X177799862Y-66723785D01*
X177852757Y-66851800D01*
X178256077Y-67255824D01*
X178783309Y-67474750D01*
X179354187Y-67475248D01*
X179881800Y-67257243D01*
X180006170Y-67133090D01*
X180558301Y-67685222D01*
X180746466Y-67810949D01*
X180789031Y-67839390D01*
X181061195Y-67893527D01*
X181733999Y-67893527D01*
X181891331Y-68050859D01*
X181891331Y-71438264D01*
X181750142Y-71579454D01*
X180832958Y-71579454D01*
X180605948Y-71624609D01*
X180560793Y-71633591D01*
X180330064Y-71787760D01*
X179868437Y-72249387D01*
X179769915Y-72396836D01*
X179356691Y-72225250D01*
X178785813Y-72224752D01*
X178683015Y-72267227D01*
X178304724Y-71888936D01*
X178073995Y-71734767D01*
X177801830Y-71680630D01*
X175872334Y-71680630D01*
X172670235Y-68478531D01*
X172670235Y-66603678D01*
X172772757Y-66851800D01*
G36*
X157964987Y-36886606D02*
X155706751Y-39144842D01*
X155552582Y-39375571D01*
X155552582Y-39375572D01*
X155498445Y-39647736D01*
X155498445Y-47271466D01*
X152364787Y-50405124D01*
X152365073Y-50078127D01*
X152125829Y-49499113D01*
X151683217Y-49055728D01*
X151104621Y-48815474D01*
X150478127Y-48814927D01*
X149899113Y-49054171D01*
X149455728Y-49496783D01*
X149215474Y-50075379D01*
X149214927Y-50701873D01*
X149454171Y-51280887D01*
X149832896Y-51660273D01*
X149455728Y-52036783D01*
X149215474Y-52615379D01*
X149214927Y-53241873D01*
X149454171Y-53820887D01*
X149832896Y-54200273D01*
X149455728Y-54576783D01*
X149215474Y-55155379D01*
X149214927Y-55781873D01*
X149454171Y-56360887D01*
X149832896Y-56740273D01*
X149455728Y-57116783D01*
X149215474Y-57695379D01*
X149214927Y-58321873D01*
X149454171Y-58900887D01*
X149832896Y-59280273D01*
X149455728Y-59656783D01*
X149215474Y-60235379D01*
X149214927Y-60861873D01*
X149454171Y-61440887D01*
X149832896Y-61820273D01*
X149455728Y-62196783D01*
X149215474Y-62775379D01*
X149214927Y-63401873D01*
X149454171Y-63980887D01*
X149832896Y-64360273D01*
X149455728Y-64736783D01*
X149215474Y-65315379D01*
X149214927Y-65941873D01*
X149454171Y-66520887D01*
X149571745Y-66638666D01*
X149079606Y-67130806D01*
X149046000Y-67181101D01*
X149046000Y-49316092D01*
X149773092Y-48589000D01*
X152146000Y-48589000D01*
X152214584Y-48575358D01*
X152284514Y-48575358D01*
X153110728Y-48411014D01*
X153221073Y-48365307D01*
X153366669Y-48305000D01*
X154067099Y-47836987D01*
X154163600Y-47740486D01*
X154262988Y-47641099D01*
X154731000Y-46940668D01*
X154797162Y-46780937D01*
X154837014Y-46684728D01*
X155001357Y-45858514D01*
X155001357Y-45788587D01*
X155015000Y-45720000D01*
X155015000Y-36778000D01*
X158127527Y-36778000D01*
X157964987Y-36886606D01*
X157964987Y-36886606D01*
G37*
X157964987Y-36886606D02*
X155706751Y-39144842D01*
X155552582Y-39375571D01*
X155552582Y-39375572D01*
X155498445Y-39647736D01*
X155498445Y-47271466D01*
X152364787Y-50405124D01*
X152365073Y-50078127D01*
X152125829Y-49499113D01*
X151683217Y-49055728D01*
X151104621Y-48815474D01*
X150478127Y-48814927D01*
X149899113Y-49054171D01*
X149455728Y-49496783D01*
X149215474Y-50075379D01*
X149214927Y-50701873D01*
X149454171Y-51280887D01*
X149832896Y-51660273D01*
X149455728Y-52036783D01*
X149215474Y-52615379D01*
X149214927Y-53241873D01*
X149454171Y-53820887D01*
X149832896Y-54200273D01*
X149455728Y-54576783D01*
X149215474Y-55155379D01*
X149214927Y-55781873D01*
X149454171Y-56360887D01*
X149832896Y-56740273D01*
X149455728Y-57116783D01*
X149215474Y-57695379D01*
X149214927Y-58321873D01*
X149454171Y-58900887D01*
X149832896Y-59280273D01*
X149455728Y-59656783D01*
X149215474Y-60235379D01*
X149214927Y-60861873D01*
X149454171Y-61440887D01*
X149832896Y-61820273D01*
X149455728Y-62196783D01*
X149215474Y-62775379D01*
X149214927Y-63401873D01*
X149454171Y-63980887D01*
X149832896Y-64360273D01*
X149455728Y-64736783D01*
X149215474Y-65315379D01*
X149214927Y-65941873D01*
X149454171Y-66520887D01*
X149571745Y-66638666D01*
X149079606Y-67130806D01*
X149046000Y-67181101D01*
X149046000Y-49316092D01*
X149773092Y-48589000D01*
X152146000Y-48589000D01*
X152214584Y-48575358D01*
X152284514Y-48575358D01*
X153110728Y-48411014D01*
X153221073Y-48365307D01*
X153366669Y-48305000D01*
X154067099Y-47836987D01*
X154163600Y-47740486D01*
X154262988Y-47641099D01*
X154731000Y-46940668D01*
X154797162Y-46780937D01*
X154837014Y-46684728D01*
X155001357Y-45858514D01*
X155001357Y-45788587D01*
X155015000Y-45720000D01*
X155015000Y-36778000D01*
X158127527Y-36778000D01*
X157964987Y-36886606D01*
G36*
X178299842Y-45653731D02*
X178530571Y-45807900D01*
X178802736Y-45862037D01*
X187163831Y-45862037D01*
X189698176Y-48396382D01*
X189484000Y-48513371D01*
X189484000Y-49657000D01*
X189504000Y-49657000D01*
X189504000Y-49911000D01*
X189484000Y-49911000D01*
X189484000Y-52197000D01*
X190626915Y-52197000D01*
X190748904Y-51974961D01*
X190588041Y-51586577D01*
X190212134Y-51171611D01*
X189963633Y-51054000D01*
X190212134Y-50936389D01*
X190588041Y-50521423D01*
X190617056Y-50451370D01*
X192645300Y-52479614D01*
X192645300Y-57693412D01*
X187624927Y-52673039D01*
X187965096Y-52673039D01*
X188125959Y-53061423D01*
X188501866Y-53476389D01*
X189007959Y-53715914D01*
X189230000Y-53594629D01*
X189230000Y-52451000D01*
X189484000Y-52451000D01*
X189484000Y-53594629D01*
X189706041Y-53715914D01*
X190212134Y-53476389D01*
X190588041Y-53061423D01*
X190748904Y-52673039D01*
X190626915Y-52451000D01*
X189484000Y-52451000D01*
X189230000Y-52451000D01*
X188087085Y-52451000D01*
X187965096Y-52673039D01*
X187624927Y-52673039D01*
X185084927Y-50133039D01*
X187965096Y-50133039D01*
X188125959Y-50521423D01*
X188501866Y-50936389D01*
X188750367Y-51054000D01*
X188501866Y-51171611D01*
X188125959Y-51586577D01*
X187965096Y-51974961D01*
X188087085Y-52197000D01*
X189230000Y-52197000D01*
X189230000Y-49911000D01*
X188087085Y-49911000D01*
X187965096Y-50133039D01*
X185084927Y-50133039D01*
X184386849Y-49434961D01*
X187965096Y-49434961D01*
X188087085Y-49657000D01*
X189230000Y-49657000D01*
X189230000Y-48513371D01*
X189007959Y-48392086D01*
X188501866Y-48631611D01*
X188125959Y-49046577D01*
X187965096Y-49434961D01*
X184386849Y-49434961D01*
X183155494Y-48203606D01*
X182924765Y-48049437D01*
X182652600Y-47995300D01*
X177811480Y-47995300D01*
X177824305Y-47960467D01*
X177799309Y-47334472D01*
X177607840Y-46872223D01*
X177347228Y-46780937D01*
X176417865Y-47710300D01*
X176432008Y-47724443D01*
X176252403Y-47904048D01*
X176238260Y-47889905D01*
X176224118Y-47904048D01*
X176044513Y-47724443D01*
X176058655Y-47710300D01*
X176044513Y-47696158D01*
X176224118Y-47516553D01*
X176238260Y-47530695D01*
X177167623Y-46601332D01*
X177076337Y-46340720D01*
X176488427Y-46124255D01*
X175862432Y-46149251D01*
X175400183Y-46340720D01*
X175318112Y-46575023D01*
X173827136Y-45084048D01*
X173596407Y-44929879D01*
X173324242Y-44875742D01*
X164364822Y-44875742D01*
X164137812Y-44920897D01*
X164092657Y-44929879D01*
X163861928Y-45084048D01*
X162177311Y-46768665D01*
X162023142Y-46999394D01*
X161970528Y-47263901D01*
X161969005Y-47271559D01*
X161969005Y-49115206D01*
X161784179Y-49300033D01*
X161604621Y-49225474D01*
X160978127Y-49224927D01*
X160673300Y-49350879D01*
X160673300Y-48354108D01*
X160806513Y-48154742D01*
X160860650Y-47882577D01*
X160860650Y-44409138D01*
X161157895Y-44111894D01*
X161312063Y-43881164D01*
X161366200Y-43609000D01*
X161366200Y-43383134D01*
X161610379Y-43484526D01*
X162236873Y-43485073D01*
X162815887Y-43245829D01*
X163195273Y-42867104D01*
X163571783Y-43244272D01*
X164150379Y-43484526D01*
X164776873Y-43485073D01*
X165355887Y-43245829D01*
X165735273Y-42867104D01*
X166111783Y-43244272D01*
X166690379Y-43484526D01*
X167316873Y-43485073D01*
X167895887Y-43245829D01*
X168123144Y-43018968D01*
X168615637Y-43018968D01*
X168706923Y-43279580D01*
X169294833Y-43496045D01*
X169920828Y-43471049D01*
X170383077Y-43279580D01*
X170474363Y-43018968D01*
X169545000Y-42089605D01*
X168615637Y-43018968D01*
X168123144Y-43018968D01*
X168337601Y-42804885D01*
X168436032Y-42839363D01*
X169365395Y-41910000D01*
X169351253Y-41895858D01*
X169530858Y-41716253D01*
X169545000Y-41730395D01*
X169559143Y-41716253D01*
X169738748Y-41895858D01*
X169724605Y-41910000D01*
X170653968Y-42839363D01*
X170914580Y-42748077D01*
X171131045Y-42160167D01*
X171106049Y-41534172D01*
X171030260Y-41351200D01*
X173997311Y-41351200D01*
X178299842Y-45653731D01*
X178299842Y-45653731D01*
G37*
X178299842Y-45653731D02*
X178530571Y-45807900D01*
X178802736Y-45862037D01*
X187163831Y-45862037D01*
X189698176Y-48396382D01*
X189484000Y-48513371D01*
X189484000Y-49657000D01*
X189504000Y-49657000D01*
X189504000Y-49911000D01*
X189484000Y-49911000D01*
X189484000Y-52197000D01*
X190626915Y-52197000D01*
X190748904Y-51974961D01*
X190588041Y-51586577D01*
X190212134Y-51171611D01*
X189963633Y-51054000D01*
X190212134Y-50936389D01*
X190588041Y-50521423D01*
X190617056Y-50451370D01*
X192645300Y-52479614D01*
X192645300Y-57693412D01*
X187624927Y-52673039D01*
X187965096Y-52673039D01*
X188125959Y-53061423D01*
X188501866Y-53476389D01*
X189007959Y-53715914D01*
X189230000Y-53594629D01*
X189230000Y-52451000D01*
X189484000Y-52451000D01*
X189484000Y-53594629D01*
X189706041Y-53715914D01*
X190212134Y-53476389D01*
X190588041Y-53061423D01*
X190748904Y-52673039D01*
X190626915Y-52451000D01*
X189484000Y-52451000D01*
X189230000Y-52451000D01*
X188087085Y-52451000D01*
X187965096Y-52673039D01*
X187624927Y-52673039D01*
X185084927Y-50133039D01*
X187965096Y-50133039D01*
X188125959Y-50521423D01*
X188501866Y-50936389D01*
X188750367Y-51054000D01*
X188501866Y-51171611D01*
X188125959Y-51586577D01*
X187965096Y-51974961D01*
X188087085Y-52197000D01*
X189230000Y-52197000D01*
X189230000Y-49911000D01*
X188087085Y-49911000D01*
X187965096Y-50133039D01*
X185084927Y-50133039D01*
X184386849Y-49434961D01*
X187965096Y-49434961D01*
X188087085Y-49657000D01*
X189230000Y-49657000D01*
X189230000Y-48513371D01*
X189007959Y-48392086D01*
X188501866Y-48631611D01*
X188125959Y-49046577D01*
X187965096Y-49434961D01*
X184386849Y-49434961D01*
X183155494Y-48203606D01*
X182924765Y-48049437D01*
X182652600Y-47995300D01*
X177811480Y-47995300D01*
X177824305Y-47960467D01*
X177799309Y-47334472D01*
X177607840Y-46872223D01*
X177347228Y-46780937D01*
X176417865Y-47710300D01*
X176432008Y-47724443D01*
X176252403Y-47904048D01*
X176238260Y-47889905D01*
X176224118Y-47904048D01*
X176044513Y-47724443D01*
X176058655Y-47710300D01*
X176044513Y-47696158D01*
X176224118Y-47516553D01*
X176238260Y-47530695D01*
X177167623Y-46601332D01*
X177076337Y-46340720D01*
X176488427Y-46124255D01*
X175862432Y-46149251D01*
X175400183Y-46340720D01*
X175318112Y-46575023D01*
X173827136Y-45084048D01*
X173596407Y-44929879D01*
X173324242Y-44875742D01*
X164364822Y-44875742D01*
X164137812Y-44920897D01*
X164092657Y-44929879D01*
X163861928Y-45084048D01*
X162177311Y-46768665D01*
X162023142Y-46999394D01*
X161970528Y-47263901D01*
X161969005Y-47271559D01*
X161969005Y-49115206D01*
X161784179Y-49300033D01*
X161604621Y-49225474D01*
X160978127Y-49224927D01*
X160673300Y-49350879D01*
X160673300Y-48354108D01*
X160806513Y-48154742D01*
X160860650Y-47882577D01*
X160860650Y-44409138D01*
X161157895Y-44111894D01*
X161312063Y-43881164D01*
X161366200Y-43609000D01*
X161366200Y-43383134D01*
X161610379Y-43484526D01*
X162236873Y-43485073D01*
X162815887Y-43245829D01*
X163195273Y-42867104D01*
X163571783Y-43244272D01*
X164150379Y-43484526D01*
X164776873Y-43485073D01*
X165355887Y-43245829D01*
X165735273Y-42867104D01*
X166111783Y-43244272D01*
X166690379Y-43484526D01*
X167316873Y-43485073D01*
X167895887Y-43245829D01*
X168123144Y-43018968D01*
X168615637Y-43018968D01*
X168706923Y-43279580D01*
X169294833Y-43496045D01*
X169920828Y-43471049D01*
X170383077Y-43279580D01*
X170474363Y-43018968D01*
X169545000Y-42089605D01*
X168615637Y-43018968D01*
X168123144Y-43018968D01*
X168337601Y-42804885D01*
X168436032Y-42839363D01*
X169365395Y-41910000D01*
X169351253Y-41895858D01*
X169530858Y-41716253D01*
X169545000Y-41730395D01*
X169559143Y-41716253D01*
X169738748Y-41895858D01*
X169724605Y-41910000D01*
X170653968Y-42839363D01*
X170914580Y-42748077D01*
X171131045Y-42160167D01*
X171106049Y-41534172D01*
X171030260Y-41351200D01*
X173997311Y-41351200D01*
X178299842Y-45653731D01*
G36*
X154634927Y-51111873D02*
X154874171Y-51690887D01*
X155316783Y-52134272D01*
X155895379Y-52374526D01*
X156521873Y-52375073D01*
X156768800Y-52273045D01*
X156768800Y-54907769D01*
X156507769Y-55168800D01*
X156222440Y-55168800D01*
X156222440Y-54546500D01*
X156178162Y-54311183D01*
X156039090Y-54095059D01*
X155826890Y-53950069D01*
X155575000Y-53899060D01*
X154305000Y-53899060D01*
X154069683Y-53943338D01*
X153853559Y-54082410D01*
X153805464Y-54152800D01*
X153035238Y-54152800D01*
X153020400Y-54155751D01*
X153020400Y-52488488D01*
X154635135Y-50873753D01*
X154634927Y-51111873D01*
X154634927Y-51111873D01*
G37*
X154634927Y-51111873D02*
X154874171Y-51690887D01*
X155316783Y-52134272D01*
X155895379Y-52374526D01*
X156521873Y-52375073D01*
X156768800Y-52273045D01*
X156768800Y-54907769D01*
X156507769Y-55168800D01*
X156222440Y-55168800D01*
X156222440Y-54546500D01*
X156178162Y-54311183D01*
X156039090Y-54095059D01*
X155826890Y-53950069D01*
X155575000Y-53899060D01*
X154305000Y-53899060D01*
X154069683Y-53943338D01*
X153853559Y-54082410D01*
X153805464Y-54152800D01*
X153035238Y-54152800D01*
X153020400Y-54155751D01*
X153020400Y-52488488D01*
X154635135Y-50873753D01*
X154634927Y-51111873D01*
G36*
X158491783Y-43244272D02*
X159070379Y-43484526D01*
X159696873Y-43485073D01*
X159826840Y-43431372D01*
X159646556Y-43611656D01*
X159492387Y-43842385D01*
X159464925Y-43980447D01*
X159438250Y-44114550D01*
X159438250Y-47598396D01*
X159305037Y-47797762D01*
X159294016Y-47853170D01*
X159250900Y-48069927D01*
X159250900Y-49302824D01*
X159064621Y-49225474D01*
X158438127Y-49224927D01*
X158191200Y-49326955D01*
X158191200Y-42943164D01*
X158491783Y-43244272D01*
X158491783Y-43244272D01*
G37*
X158491783Y-43244272D02*
X159070379Y-43484526D01*
X159696873Y-43485073D01*
X159826840Y-43431372D01*
X159646556Y-43611656D01*
X159492387Y-43842385D01*
X159464925Y-43980447D01*
X159438250Y-44114550D01*
X159438250Y-47598396D01*
X159305037Y-47797762D01*
X159294016Y-47853170D01*
X159250900Y-48069927D01*
X159250900Y-49302824D01*
X159064621Y-49225474D01*
X158438127Y-49224927D01*
X158191200Y-49326955D01*
X158191200Y-42943164D01*
X158491783Y-43244272D01*
G36*
X195505000Y-45720000D02*
X195518642Y-45788584D01*
X195518642Y-45858514D01*
X195605000Y-46292666D01*
X195272879Y-45959964D01*
X194451719Y-45618989D01*
X193562581Y-45618213D01*
X192740828Y-45957755D01*
X192111564Y-46585921D01*
X192031853Y-46777885D01*
X188738894Y-43484926D01*
X188906873Y-43485073D01*
X189485887Y-43245829D01*
X189865273Y-42867104D01*
X190241783Y-43244272D01*
X190820379Y-43484526D01*
X191446873Y-43485073D01*
X192025887Y-43245829D01*
X192469272Y-42803217D01*
X192709526Y-42224621D01*
X192710073Y-41598127D01*
X192470829Y-41019113D01*
X192092104Y-40639727D01*
X192469272Y-40263217D01*
X192709526Y-39684621D01*
X192710073Y-39058127D01*
X192470829Y-38479113D01*
X192028217Y-38035728D01*
X191449621Y-37795474D01*
X190823127Y-37794927D01*
X190244113Y-38034171D01*
X189864727Y-38412896D01*
X189488217Y-38035728D01*
X188909621Y-37795474D01*
X188283127Y-37794927D01*
X187704113Y-38034171D01*
X187600546Y-38137557D01*
X186349594Y-36886606D01*
X186187054Y-36778000D01*
X195505000Y-36778000D01*
X195505000Y-45720000D01*
X195505000Y-45720000D01*
G37*
X195505000Y-45720000D02*
X195518642Y-45788584D01*
X195518642Y-45858514D01*
X195605000Y-46292666D01*
X195272879Y-45959964D01*
X194451719Y-45618989D01*
X193562581Y-45618213D01*
X192740828Y-45957755D01*
X192111564Y-46585921D01*
X192031853Y-46777885D01*
X188738894Y-43484926D01*
X188906873Y-43485073D01*
X189485887Y-43245829D01*
X189865273Y-42867104D01*
X190241783Y-43244272D01*
X190820379Y-43484526D01*
X191446873Y-43485073D01*
X192025887Y-43245829D01*
X192469272Y-42803217D01*
X192709526Y-42224621D01*
X192710073Y-41598127D01*
X192470829Y-41019113D01*
X192092104Y-40639727D01*
X192469272Y-40263217D01*
X192709526Y-39684621D01*
X192710073Y-39058127D01*
X192470829Y-38479113D01*
X192028217Y-38035728D01*
X191449621Y-37795474D01*
X190823127Y-37794927D01*
X190244113Y-38034171D01*
X189864727Y-38412896D01*
X189488217Y-38035728D01*
X188909621Y-37795474D01*
X188283127Y-37794927D01*
X187704113Y-38034171D01*
X187600546Y-38137557D01*
X186349594Y-36886606D01*
X186187054Y-36778000D01*
X195505000Y-36778000D01*
X195505000Y-45720000D01*
G36*
X179400474Y-39055379D02*
X179399927Y-39681873D01*
X179639171Y-40260887D01*
X180017896Y-40640273D01*
X179640728Y-41016783D01*
X179400474Y-41595379D01*
X179399927Y-42221873D01*
X179639171Y-42800887D01*
X180081783Y-43244272D01*
X180660379Y-43484526D01*
X181286873Y-43485073D01*
X181865887Y-43245829D01*
X181997278Y-43114667D01*
X183322248Y-44439637D01*
X179097324Y-44439637D01*
X174794793Y-40137106D01*
X174564064Y-39982937D01*
X174291899Y-39928800D01*
X171018134Y-39928800D01*
X171119526Y-39684621D01*
X171120073Y-39058127D01*
X171015359Y-38804700D01*
X179504565Y-38804700D01*
X179400474Y-39055379D01*
X179400474Y-39055379D01*
G37*
X179400474Y-39055379D02*
X179399927Y-39681873D01*
X179639171Y-40260887D01*
X180017896Y-40640273D01*
X179640728Y-41016783D01*
X179400474Y-41595379D01*
X179399927Y-42221873D01*
X179639171Y-42800887D01*
X180081783Y-43244272D01*
X180660379Y-43484526D01*
X181286873Y-43485073D01*
X181865887Y-43245829D01*
X181997278Y-43114667D01*
X183322248Y-44439637D01*
X179097324Y-44439637D01*
X174794793Y-40137106D01*
X174564064Y-39982937D01*
X174291899Y-39928800D01*
X171018134Y-39928800D01*
X171119526Y-39684621D01*
X171120073Y-39058127D01*
X171015359Y-38804700D01*
X179504565Y-38804700D01*
X179400474Y-39055379D01*
M02*
