G04 #@! TF.FileFunction,Soldermask,Bot*
%FSLAX46Y46*%
G04 Gerber Fmt 4.6, Leading zero omitted, Abs format (unit mm)*
G04 Created by KiCad (PCBNEW 4.0.7) date 04/09/18 15:19:32*
%MOMM*%
%LPD*%
G01*
G04 APERTURE LIST*
%ADD10C,0.100000*%
%ADD11R,0.838200X1.473200*%
%ADD12R,1.473200X0.838200*%
%ADD13C,2.082800*%
%ADD14R,2.000000X2.000000*%
%ADD15C,2.000000*%
%ADD16C,2.279600*%
%ADD17C,2.489200*%
%ADD18O,2.000000X2.000000*%
%ADD19R,2.100000X2.100000*%
%ADD20C,2.100000*%
%ADD21C,3.403200*%
G04 APERTURE END LIST*
D10*
D11*
X194564000Y-57912000D03*
X195580000Y-57912000D03*
X196596000Y-57912000D03*
X194564000Y-55245000D03*
X195580000Y-55245000D03*
X196596000Y-55245000D03*
D12*
X154940000Y-56896000D03*
X154940000Y-55880000D03*
X154940000Y-54864000D03*
D13*
X166370000Y-78740000D03*
X166370000Y-81280000D03*
X163830000Y-78740000D03*
X163830000Y-81280000D03*
X161290000Y-78740000D03*
X161290000Y-81280000D03*
X158750000Y-78740000D03*
X158750000Y-81280000D03*
X156210000Y-78740000D03*
X156210000Y-81280000D03*
X162560000Y-58420000D03*
X162560000Y-55880000D03*
X165100000Y-58420000D03*
X165100000Y-55880000D03*
X167640000Y-58420000D03*
X167640000Y-55880000D03*
X170180000Y-58420000D03*
X170180000Y-55880000D03*
X172720000Y-58420000D03*
X172720000Y-55880000D03*
X175260000Y-58420000D03*
X175260000Y-55880000D03*
D11*
X180746400Y-62230000D03*
X179933600Y-62230000D03*
D12*
X154940000Y-60706000D03*
X154940000Y-59690000D03*
X154940000Y-58674000D03*
D11*
X180746400Y-59690000D03*
X179933600Y-59690000D03*
D14*
X173990000Y-73660000D03*
D15*
X176530000Y-73660000D03*
X179070000Y-73660000D03*
X181610000Y-73660000D03*
X184150000Y-73660000D03*
X186690000Y-73660000D03*
X189230000Y-73660000D03*
X189230000Y-66040000D03*
X186690000Y-66040000D03*
X184150000Y-66040000D03*
X181610000Y-66040000D03*
X179070000Y-66040000D03*
X176530000Y-66040000D03*
X173990000Y-66040000D03*
X191770000Y-73660000D03*
X191770000Y-66040000D03*
X194310000Y-73660000D03*
X194310000Y-66040000D03*
D13*
X199050000Y-78330000D03*
X199050000Y-75790000D03*
X171160800Y-47710300D03*
X199050000Y-63090000D03*
X199050000Y-60550000D03*
X199050000Y-58010000D03*
X199050000Y-55470000D03*
X199050000Y-52930000D03*
X199050000Y-50390000D03*
X150790000Y-90014000D03*
X150790000Y-55470000D03*
X150790000Y-58010000D03*
X150790000Y-60550000D03*
X150790000Y-63090000D03*
X150790000Y-65630000D03*
X150790000Y-68170000D03*
X150790000Y-72234000D03*
X150790000Y-74774000D03*
X150790000Y-77314000D03*
X150790000Y-79854000D03*
X150790000Y-82394000D03*
X150790000Y-84934000D03*
X199050000Y-73250000D03*
X199050000Y-70710000D03*
X150790000Y-87474000D03*
X176238260Y-47710300D03*
X199050000Y-83410000D03*
X171160800Y-50250300D03*
X173700800Y-47710300D03*
X199050000Y-85950000D03*
X199050000Y-80870000D03*
X176238260Y-50250300D03*
X150790000Y-50390000D03*
X173700800Y-50250300D03*
X150790000Y-95094000D03*
X150790000Y-92554000D03*
X150790000Y-52930000D03*
X199050000Y-68170000D03*
D16*
X154092000Y-93815600D03*
X156632000Y-93815600D03*
X159172000Y-93815600D03*
X161712000Y-93815600D03*
X154092000Y-96355600D03*
X156632000Y-96355600D03*
X159172000Y-96355600D03*
X161712000Y-96355600D03*
X154092000Y-98895600D03*
X156632000Y-98895600D03*
D17*
X199831960Y-101800660D03*
X192532000Y-101800660D03*
X185232040Y-101800660D03*
X197530720Y-99301300D03*
X187533280Y-99301300D03*
X187533280Y-111500920D03*
X197530720Y-111500920D03*
X179257960Y-101800660D03*
X171958000Y-101800660D03*
X164658040Y-101800660D03*
X176956720Y-99301300D03*
X166959280Y-99301300D03*
X166959280Y-111500920D03*
X176956720Y-111500920D03*
D13*
X153670000Y-102870000D03*
X156210000Y-102870000D03*
X156210000Y-50800000D03*
X158750000Y-50800000D03*
X161290000Y-50800000D03*
D14*
X181737000Y-49784000D03*
D18*
X189357000Y-52324000D03*
X181737000Y-52324000D03*
X189357000Y-49784000D03*
D19*
X152400000Y-107950000D03*
D20*
X154400000Y-107950000D03*
X156400000Y-107950000D03*
X150300000Y-107950000D03*
X158500000Y-107950000D03*
D11*
X180746400Y-57150000D03*
X179933600Y-57150000D03*
D13*
X159385000Y-41910000D03*
X159385000Y-39370000D03*
X161925000Y-41910000D03*
X161925000Y-39370000D03*
X164465000Y-41910000D03*
X164465000Y-39370000D03*
X167005000Y-41910000D03*
X167005000Y-39370000D03*
X169545000Y-41910000D03*
X169545000Y-39370000D03*
X180975000Y-41910000D03*
X180975000Y-39370000D03*
X183515000Y-41910000D03*
X183515000Y-39370000D03*
X186055000Y-41910000D03*
X186055000Y-39370000D03*
X188595000Y-41910000D03*
X188595000Y-39370000D03*
X191135000Y-41910000D03*
X191135000Y-39370000D03*
D21*
X166065200Y-47853600D03*
X194005200Y-47853600D03*
X150825200Y-98653600D03*
M02*
