G04 #@! TF.FileFunction,Copper,L2,Bot,Signal*
%FSLAX46Y46*%
G04 Gerber Fmt 4.6, Leading zero omitted, Abs format (unit mm)*
G04 Created by KiCad (PCBNEW 4.0.7-e2-6376~58~ubuntu16.04.1) date Mon Aug 13 19:10:38 2018*
%MOMM*%
%LPD*%
G01*
G04 APERTURE LIST*
%ADD10C,0.100000*%
%ADD11C,0.254000*%
%ADD12C,1.879600*%
%ADD13R,0.635000X1.270000*%
%ADD14R,1.270000X0.635000*%
%ADD15C,2.286000*%
%ADD16R,2.400000X1.600000*%
%ADD17O,2.400000X1.600000*%
%ADD18R,1.700000X1.700000*%
%ADD19C,1.700000*%
%ADD20C,1.500000*%
%ADD21C,0.850000*%
%ADD22C,0.900000*%
%ADD23C,0.700000*%
%ADD24C,0.275000*%
%ADD25C,0.325000*%
%ADD26C,0.300000*%
%ADD27C,0.250000*%
%ADD28C,0.152400*%
G04 APERTURE END LIST*
D10*
D11*
X164465000Y-44577000D02*
X165481000Y-44577000D01*
X160655000Y-44577000D02*
X161671000Y-44577000D01*
X154178000Y-69342000D02*
X154178000Y-70358000D01*
X156718000Y-69342000D02*
X156718000Y-68326000D01*
X157226000Y-56896000D02*
X157226000Y-57912000D01*
D12*
X159385000Y-41910000D03*
X159385000Y-39370000D03*
X161925000Y-41910000D03*
X161925000Y-39370000D03*
X164465000Y-41910000D03*
X164465000Y-39370000D03*
X167005000Y-41910000D03*
X167005000Y-39370000D03*
X169545000Y-41910000D03*
X169545000Y-39370000D03*
D13*
X163449000Y-44577000D03*
X164465000Y-44577000D03*
X165481000Y-44577000D03*
X159639000Y-44577000D03*
X160655000Y-44577000D03*
X161671000Y-44577000D03*
D14*
X154178000Y-68326000D03*
X154178000Y-69342000D03*
X154178000Y-70358000D03*
D13*
X177698400Y-67310000D03*
X176885600Y-67310000D03*
D14*
X156718000Y-70358000D03*
X156718000Y-69342000D03*
X156718000Y-68326000D03*
D13*
X177698400Y-64770000D03*
X176885600Y-64770000D03*
X177698400Y-62230000D03*
X176885600Y-62230000D03*
D12*
X180975000Y-41910000D03*
X180975000Y-39370000D03*
X183515000Y-41910000D03*
X183515000Y-39370000D03*
X186055000Y-41910000D03*
X186055000Y-39370000D03*
X188595000Y-41910000D03*
X188595000Y-39370000D03*
X191135000Y-41910000D03*
X191135000Y-39370000D03*
D15*
X199831960Y-101800660D03*
X192532000Y-101800660D03*
X185232040Y-101800660D03*
X197530720Y-99301300D03*
X187533280Y-99301300D03*
X187533280Y-111500920D03*
X197530720Y-111500920D03*
X190032000Y-111600000D03*
X195032000Y-111600000D03*
X179257960Y-101800660D03*
X171958000Y-101800660D03*
X164658040Y-101800660D03*
X176956720Y-99301300D03*
X166959280Y-99301300D03*
X166959280Y-111500920D03*
X176956720Y-111500920D03*
X169458000Y-111600000D03*
X174458000Y-111600000D03*
D14*
X154432000Y-57708800D03*
X154432000Y-56896000D03*
X154432000Y-56083200D03*
X157226000Y-55880000D03*
X157226000Y-56896000D03*
X157226000Y-57912000D03*
D16*
X182118000Y-57150000D03*
D17*
X189738000Y-77470000D03*
X182118000Y-59690000D03*
X189738000Y-74930000D03*
X182118000Y-62230000D03*
X189738000Y-72390000D03*
X182118000Y-64770000D03*
X189738000Y-69850000D03*
X182118000Y-67310000D03*
X189738000Y-67310000D03*
X182118000Y-69850000D03*
X189738000Y-64770000D03*
X182118000Y-72390000D03*
X189738000Y-62230000D03*
X182118000Y-74930000D03*
X189738000Y-59690000D03*
X182118000Y-77470000D03*
X189738000Y-57150000D03*
D18*
X152400000Y-107950000D03*
D19*
X154400000Y-107950000D03*
X156400000Y-107950000D03*
D20*
X150300000Y-107950000D03*
X158500000Y-107950000D03*
D12*
X176253500Y-47723000D03*
X176253500Y-50263000D03*
X173713500Y-47723000D03*
X173713500Y-50263000D03*
X171173500Y-47723000D03*
X171173500Y-50263000D03*
X199050000Y-78330000D03*
X199050000Y-75790000D03*
X199050000Y-63090000D03*
X199050000Y-60550000D03*
X199050000Y-58010000D03*
X199050000Y-55470000D03*
X199050000Y-52930000D03*
X199050000Y-50390000D03*
X150790000Y-90014000D03*
X150790000Y-55470000D03*
X150790000Y-58010000D03*
X150790000Y-60550000D03*
X150790000Y-63090000D03*
X150790000Y-65630000D03*
X150790000Y-68170000D03*
X150790000Y-72234000D03*
X150790000Y-74774000D03*
X150790000Y-77314000D03*
X150790000Y-79854000D03*
X150790000Y-82394000D03*
X150790000Y-84934000D03*
X199050000Y-73250000D03*
X199050000Y-70710000D03*
X150790000Y-87474000D03*
X199050000Y-83410000D03*
X199050000Y-85950000D03*
X199050000Y-80870000D03*
X150790000Y-50390000D03*
X150790000Y-95094000D03*
X150790000Y-92554000D03*
X150790000Y-52930000D03*
X199050000Y-68170000D03*
X154092000Y-93316000D03*
X156632000Y-93316000D03*
X159172000Y-93316000D03*
X161712000Y-93316000D03*
X154092000Y-95856000D03*
X156632000Y-95856000D03*
X159172000Y-95856000D03*
X161712000Y-95856000D03*
X154092000Y-98396000D03*
X156632000Y-98396000D03*
D21*
X172303819Y-84694209D03*
D22*
X184150000Y-90678000D03*
D21*
X176276000Y-68834000D03*
D22*
X175006000Y-43942000D03*
D23*
X176686854Y-44293146D03*
X178054000Y-44704000D03*
X158242000Y-46736000D03*
X158115000Y-45720000D03*
X162814000Y-69342000D03*
X171958000Y-37758621D03*
X162774379Y-66548000D03*
X162941000Y-71882000D03*
D21*
X153797000Y-64897000D03*
X163957000Y-50800000D03*
X159258000Y-51816000D03*
X153670000Y-51689000D03*
X153289000Y-54102000D03*
X169672000Y-54102000D03*
D23*
X173228000Y-38354000D03*
X165989000Y-60031390D03*
X167894008Y-82296000D03*
X164846000Y-60031390D03*
X167894000Y-88646000D03*
X163990788Y-76073000D03*
X163990790Y-74803000D03*
X163195000Y-73025000D03*
X176530000Y-71628000D03*
X158073800Y-55880000D03*
X178308000Y-74253800D03*
X162560000Y-74422000D03*
X155405643Y-56896001D03*
X168656000Y-62738000D03*
X174244000Y-62230000D03*
X166624000Y-72390000D03*
X166624000Y-69850000D03*
X166624000Y-67310000D03*
D24*
X184150000Y-90678000D02*
X180594000Y-87122000D01*
X180594000Y-87122000D02*
X176276000Y-87122000D01*
X176276000Y-87122000D02*
X174752000Y-85598000D01*
X174752000Y-85598000D02*
X174752000Y-84836000D01*
X174752000Y-84836000D02*
X174750618Y-84834618D01*
X174750618Y-84834618D02*
X172444228Y-84834618D01*
X172444228Y-84834618D02*
X172303819Y-84694209D01*
X175792499Y-75970499D02*
X179832000Y-80010000D01*
X179832000Y-80010000D02*
X189738000Y-80010000D01*
X176276000Y-68834000D02*
X175792499Y-69317501D01*
X175792499Y-69317501D02*
X175792499Y-75970499D01*
D25*
X184150000Y-90678000D02*
X186436000Y-88392000D01*
X197104000Y-75692000D02*
X198952000Y-75692000D01*
X192786000Y-80010000D02*
X197104000Y-75692000D01*
X189738000Y-80010000D02*
X192786000Y-80010000D01*
X186436000Y-83312000D02*
X189738000Y-80010000D01*
X186436000Y-88392000D02*
X186436000Y-83312000D01*
D26*
X198952000Y-75692000D02*
X199050000Y-75790000D01*
D27*
X176885600Y-64770000D02*
X176885600Y-63955298D01*
X176885600Y-63955298D02*
X177698400Y-63142498D01*
X177698400Y-63142498D02*
X177698400Y-62230000D01*
X176885600Y-67310000D02*
X176885600Y-64770000D01*
X176276000Y-68834000D02*
X176885600Y-68224400D01*
X176885600Y-68224400D02*
X176885600Y-67310000D01*
D26*
X174954500Y-43942000D02*
X175006000Y-43942000D01*
X171173500Y-47723000D02*
X174954500Y-43942000D01*
D28*
X176784000Y-44196000D02*
X176686854Y-44293146D01*
X165481000Y-44577000D02*
X169291000Y-44577000D01*
X169291000Y-44577000D02*
X170942000Y-42926000D01*
X170942000Y-42926000D02*
X170942000Y-42418000D01*
X171196000Y-42164000D02*
X174752000Y-42164000D01*
X170942000Y-42418000D02*
X171196000Y-42164000D01*
X174752000Y-42164000D02*
X176784000Y-44196000D01*
X178054000Y-44704000D02*
X173990000Y-40640000D01*
X173990000Y-40640000D02*
X163830000Y-40640000D01*
X163830000Y-40640000D02*
X163116001Y-41353999D01*
X163116001Y-41353999D02*
X163116001Y-42481681D01*
X163116001Y-42481681D02*
X161671000Y-43926682D01*
X161671000Y-43926682D02*
X161671000Y-44577000D01*
X158843040Y-46736000D02*
X158242000Y-46736000D01*
X160820100Y-46736000D02*
X158843040Y-46736000D01*
X162979100Y-44577000D02*
X160820100Y-46736000D01*
X163449000Y-44577000D02*
X162979100Y-44577000D01*
X158115000Y-45720000D02*
X159258000Y-44577000D01*
X159258000Y-44577000D02*
X159639000Y-44577000D01*
X156718000Y-69342000D02*
X157035500Y-69342000D01*
X157035500Y-69342000D02*
X158750000Y-67627500D01*
X158750000Y-67627500D02*
X158750000Y-55118000D01*
X158750000Y-55118000D02*
X156972000Y-53340000D01*
X156972000Y-53340000D02*
X156972000Y-38354000D01*
X160985201Y-38430201D02*
X161925000Y-39370000D01*
X156972000Y-38354000D02*
X157841178Y-37484822D01*
X157841178Y-37484822D02*
X160039822Y-37484822D01*
X160039822Y-37484822D02*
X160985201Y-38430201D01*
X154178000Y-70358000D02*
X152666000Y-70358000D01*
X152666000Y-70358000D02*
X150790000Y-72234000D01*
X163163999Y-68992001D02*
X162814000Y-69342000D01*
X164456382Y-58854589D02*
X163375589Y-59935382D01*
X171704000Y-55461945D02*
X168311354Y-58854589D01*
X172466000Y-51054000D02*
X171704000Y-51816000D01*
X172466000Y-48970500D02*
X172466000Y-51054000D01*
X173713500Y-47723000D02*
X172466000Y-48970500D01*
X163375589Y-68780411D02*
X163163999Y-68992001D01*
X163375589Y-59935382D02*
X163375589Y-68780411D01*
X168311354Y-58854589D02*
X164456382Y-58854589D01*
X171704000Y-51816000D02*
X171704000Y-55461945D01*
X164465000Y-39370000D02*
X166243000Y-37592000D01*
X166243000Y-37592000D02*
X171791379Y-37592000D01*
X171791379Y-37592000D02*
X171958000Y-37758621D01*
X162774379Y-66053026D02*
X162774379Y-66548000D01*
X162774379Y-58662121D02*
X162774379Y-66053026D01*
X171173500Y-50263000D02*
X162774379Y-58662121D01*
X163290999Y-71532001D02*
X162941000Y-71882000D01*
X163703000Y-71120000D02*
X163290999Y-71532001D01*
X163703000Y-60071000D02*
X163703000Y-71120000D01*
X164592000Y-59182000D02*
X163703000Y-60071000D01*
X168446973Y-59182000D02*
X164592000Y-59182000D01*
X173713500Y-53915473D02*
X168446973Y-59182000D01*
X173713500Y-50263000D02*
X173713500Y-53915473D01*
D27*
X159258000Y-51816000D02*
X160274000Y-50800000D01*
X160274000Y-50800000D02*
X163957000Y-50800000D01*
X153289000Y-54102000D02*
X153289000Y-52070000D01*
X153289000Y-52070000D02*
X153670000Y-51689000D01*
X154432000Y-109184081D02*
X154432000Y-111506000D01*
X154400000Y-107950000D02*
X154400000Y-109152081D01*
X154400000Y-109152081D02*
X154432000Y-109184081D01*
X158242000Y-100076000D02*
X158242000Y-100006000D01*
X158242000Y-100006000D02*
X156632000Y-98396000D01*
X155702000Y-102616000D02*
X158242000Y-100076000D01*
X155702000Y-105445919D02*
X155702000Y-102616000D01*
X154400000Y-107950000D02*
X154400000Y-106747919D01*
X154400000Y-106747919D02*
X155702000Y-105445919D01*
D28*
X172878001Y-38703999D02*
X173228000Y-38354000D01*
X172013600Y-38703999D02*
X172878001Y-38703999D01*
X171356799Y-38047198D02*
X172013600Y-38703999D01*
X168327802Y-38047198D02*
X171356799Y-38047198D01*
X167005000Y-39370000D02*
X168327802Y-38047198D01*
X167544009Y-81946001D02*
X167894008Y-82296000D01*
X165100000Y-79501992D02*
X167544009Y-81946001D01*
X165100000Y-60920390D02*
X165100000Y-79501992D01*
X165989000Y-60031390D02*
X165100000Y-60920390D01*
X167894000Y-88646000D02*
X167894000Y-83185000D01*
X164772589Y-80063589D02*
X164772589Y-60599775D01*
X167894000Y-83185000D02*
X164772589Y-80063589D01*
X164772589Y-60599775D02*
X164846000Y-60526364D01*
X164846000Y-60526364D02*
X164846000Y-60031390D01*
X156908500Y-56896000D02*
X157226000Y-56896000D01*
X155956000Y-55943500D02*
X156908500Y-56896000D01*
X155956000Y-38862000D02*
X155956000Y-55943500D01*
X157660589Y-37157411D02*
X155956000Y-38862000D01*
X177365411Y-37157411D02*
X157660589Y-37157411D01*
X179324000Y-39116000D02*
X177365411Y-37157411D01*
X180975000Y-41910000D02*
X179324000Y-40259000D01*
X179324000Y-40259000D02*
X179324000Y-39116000D01*
X149098000Y-49784000D02*
X149098000Y-69342000D01*
X153670000Y-48514000D02*
X150368000Y-48514000D01*
X155194000Y-46990000D02*
X153670000Y-48514000D01*
X149098000Y-69342000D02*
X149606000Y-69850000D01*
X178435000Y-36830000D02*
X157480000Y-36830000D01*
X155194000Y-39116000D02*
X155194000Y-46990000D01*
X180975000Y-39370000D02*
X178435000Y-36830000D01*
X157480000Y-36830000D02*
X155194000Y-39116000D01*
X150368000Y-48514000D02*
X149098000Y-49784000D01*
X149606000Y-69850000D02*
X152882600Y-69850000D01*
X152882600Y-69850000D02*
X153390600Y-69342000D01*
X153390600Y-69342000D02*
X154178000Y-69342000D01*
X184454799Y-42849799D02*
X183515000Y-41910000D01*
X185961767Y-44356767D02*
X184454799Y-42849799D01*
X185961767Y-60242854D02*
X185961767Y-44356767D01*
X187271411Y-61552498D02*
X185961767Y-60242854D01*
X189738000Y-69850000D02*
X189338000Y-69850000D01*
X187271411Y-67783411D02*
X187271411Y-61552498D01*
X189338000Y-69850000D02*
X187271411Y-67783411D01*
X186944000Y-69996000D02*
X189338000Y-72390000D01*
X185928000Y-60672116D02*
X185928000Y-60706000D01*
X182323999Y-40561001D02*
X182323999Y-43385999D01*
X183515000Y-39370000D02*
X182323999Y-40561001D01*
X182323999Y-43385999D02*
X185634356Y-46696356D01*
X185634356Y-46696356D02*
X185634356Y-60378472D01*
X185634356Y-60378472D02*
X185928000Y-60672116D01*
X185928000Y-60706000D02*
X186944000Y-61722000D01*
X186944000Y-61722000D02*
X186944000Y-69996000D01*
X189338000Y-72390000D02*
X189738000Y-72390000D01*
X186289178Y-60107236D02*
X187598822Y-61416880D01*
X186289178Y-43473255D02*
X186289178Y-60107236D01*
X189338000Y-67310000D02*
X189738000Y-67310000D01*
X187598822Y-61416880D02*
X187598822Y-65570822D01*
X186055000Y-43239077D02*
X186289178Y-43473255D01*
X186055000Y-41910000D02*
X186055000Y-43239077D01*
X187598822Y-65570822D02*
X189338000Y-67310000D01*
X186616589Y-55236382D02*
X187322209Y-54530763D01*
X186994799Y-40309799D02*
X186055000Y-39370000D01*
X186616589Y-59971618D02*
X186616589Y-55236382D01*
X187322209Y-40637209D02*
X186994799Y-40309799D01*
X187322209Y-54530763D02*
X187322209Y-40637209D01*
X187926233Y-61281262D02*
X186616589Y-59971618D01*
X187926233Y-63358233D02*
X187926233Y-61281262D01*
X189738000Y-64770000D02*
X189338000Y-64770000D01*
X189338000Y-64770000D02*
X187926233Y-63358233D01*
X188595000Y-41910000D02*
X188595000Y-53721000D01*
X186944000Y-55372000D02*
X186944000Y-59836000D01*
X188595000Y-53721000D02*
X186944000Y-55372000D01*
X186944000Y-59836000D02*
X189338000Y-62230000D01*
X189338000Y-62230000D02*
X189738000Y-62230000D01*
X191770000Y-55783998D02*
X191770000Y-58058000D01*
X191770000Y-58058000D02*
X190138000Y-59690000D01*
X190138000Y-59690000D02*
X189738000Y-59690000D01*
X189786001Y-53799999D02*
X191770000Y-55783998D01*
X188595000Y-39370000D02*
X189786001Y-40561001D01*
X189786001Y-40561001D02*
X189786001Y-53799999D01*
X161925000Y-41910000D02*
X160655000Y-43180000D01*
X160655000Y-43180000D02*
X160655000Y-44577000D01*
X164465000Y-41910000D02*
X164465000Y-43239077D01*
X164465000Y-43239077D02*
X164465000Y-44577000D01*
X154092000Y-93316000D02*
X163990788Y-83417212D01*
X163990788Y-83417212D02*
X163990788Y-76567974D01*
X163990788Y-76567974D02*
X163990788Y-76073000D01*
X157226000Y-57912000D02*
X154635200Y-57912000D01*
X154635200Y-57912000D02*
X154432000Y-57708800D01*
X154432000Y-57708800D02*
X151091200Y-57708800D01*
X151091200Y-57708800D02*
X150790000Y-58010000D01*
X156718000Y-68326000D02*
X155930600Y-68326000D01*
X155930600Y-68326000D02*
X154178000Y-68326000D01*
X154178000Y-68326000D02*
X150946000Y-68326000D01*
X150946000Y-68326000D02*
X150790000Y-68170000D01*
X154444000Y-91440000D02*
X163389587Y-82494413D01*
X152400000Y-92710000D02*
X153670000Y-91440000D01*
X152400000Y-93484000D02*
X152400000Y-92710000D01*
X150790000Y-95094000D02*
X152400000Y-93484000D01*
X163640791Y-75152999D02*
X163990790Y-74803000D01*
X163389587Y-82494413D02*
X163389587Y-75404203D01*
X153670000Y-91440000D02*
X154444000Y-91440000D01*
X163389587Y-75404203D02*
X163640791Y-75152999D01*
X163195000Y-73519974D02*
X163195000Y-73025000D01*
X163195000Y-74709012D02*
X163195000Y-73519974D01*
X163062176Y-74841836D02*
X163195000Y-74709012D01*
X163062176Y-80281824D02*
X163062176Y-74841836D01*
X150790000Y-92554000D02*
X163062176Y-80281824D01*
X177698400Y-67310000D02*
X178168300Y-67310000D01*
X178168300Y-67310000D02*
X182118000Y-67310000D01*
X177698400Y-64770000D02*
X182118000Y-64770000D01*
X156718000Y-70358000D02*
X155956000Y-71120000D01*
X155956000Y-71120000D02*
X154178000Y-71120000D01*
X149098000Y-75438000D02*
X150790000Y-77130000D01*
X154178000Y-71120000D02*
X151765000Y-73533000D01*
X151765000Y-73533000D02*
X149733000Y-73533000D01*
X149098000Y-74168000D02*
X149098000Y-75438000D01*
X149733000Y-73533000D02*
X149098000Y-74168000D01*
X150790000Y-77130000D02*
X150790000Y-77314000D01*
X176530000Y-71628000D02*
X178816000Y-71628000D01*
X178816000Y-71628000D02*
X180848000Y-73660000D01*
X180848000Y-73660000D02*
X187115600Y-73660000D01*
X187115600Y-73660000D02*
X188385600Y-74930000D01*
X188385600Y-74930000D02*
X189738000Y-74930000D01*
X157226000Y-55880000D02*
X158073800Y-55880000D01*
X178851210Y-75981210D02*
X178308000Y-75438000D01*
X178308000Y-75438000D02*
X178308000Y-74253800D01*
X186861600Y-75946000D02*
X182988635Y-75946000D01*
X182988635Y-75946000D02*
X182953425Y-75981210D01*
X182953425Y-75981210D02*
X178851210Y-75981210D01*
X189738000Y-77470000D02*
X188385600Y-77470000D01*
X188385600Y-77470000D02*
X186861600Y-75946000D01*
X154432000Y-56083200D02*
X151403200Y-56083200D01*
X151403200Y-56083200D02*
X150790000Y-55470000D01*
X162560000Y-74422000D02*
X151142000Y-74422000D01*
X151142000Y-74422000D02*
X150790000Y-74774000D01*
X154432000Y-56896000D02*
X155405642Y-56896000D01*
X155405642Y-56896000D02*
X155405643Y-56896001D01*
X169150974Y-62738000D02*
X168656000Y-62738000D01*
X173736000Y-62738000D02*
X169150974Y-62738000D01*
X174244000Y-62230000D02*
X173736000Y-62738000D01*
X174244000Y-62230000D02*
X176885600Y-62230000D01*
X166274001Y-72040001D02*
X166624000Y-72390000D01*
X165608000Y-69297029D02*
X165608000Y-71374000D01*
X165461178Y-69150207D02*
X165608000Y-69297029D01*
X165461178Y-62974764D02*
X165461178Y-69150207D01*
X182118000Y-57150000D02*
X171285943Y-57150000D01*
X171285943Y-57150000D02*
X165461178Y-62974764D01*
X165608000Y-71374000D02*
X166274001Y-72040001D01*
X165788589Y-66937618D02*
X165862000Y-67011029D01*
X165862000Y-69088000D02*
X166274001Y-69500001D01*
X169208971Y-59690000D02*
X165788589Y-63110382D01*
X165788589Y-63110382D02*
X165788589Y-66937618D01*
X182118000Y-59690000D02*
X169208971Y-59690000D01*
X166274001Y-69500001D02*
X166624000Y-69850000D01*
X165862000Y-67011029D02*
X165862000Y-69088000D01*
X182118000Y-62230000D02*
X180765600Y-62230000D01*
X180765600Y-62230000D02*
X178553010Y-60017410D01*
X166116000Y-63246000D02*
X166116000Y-66802000D01*
X178553010Y-60017410D02*
X169344590Y-60017410D01*
X169344590Y-60017410D02*
X166116000Y-63246000D01*
X166116000Y-66802000D02*
X166624000Y-67310000D01*
D11*
G36*
X195505000Y-45720000D02*
X195518642Y-45788584D01*
X195518642Y-45858514D01*
X195631152Y-46424140D01*
X195457679Y-46250364D01*
X194636519Y-45909389D01*
X193747381Y-45908613D01*
X192925628Y-46248155D01*
X192296364Y-46876321D01*
X191955389Y-47697481D01*
X191954613Y-48586619D01*
X192294155Y-49408372D01*
X192922321Y-50037636D01*
X193743481Y-50378611D01*
X194632619Y-50379387D01*
X195454372Y-50039845D01*
X196083636Y-49411679D01*
X196424611Y-48590519D01*
X196425071Y-48063277D01*
X196443001Y-48090111D01*
X196638889Y-48285999D01*
X197545327Y-48891662D01*
X197801268Y-48997677D01*
X198146846Y-49066417D01*
X197715728Y-49496783D01*
X197475474Y-50075379D01*
X197474927Y-50701873D01*
X197714171Y-51280887D01*
X198092896Y-51660273D01*
X197715728Y-52036783D01*
X197475474Y-52615379D01*
X197474927Y-53241873D01*
X197714171Y-53820887D01*
X198092896Y-54200273D01*
X197715728Y-54576783D01*
X197475474Y-55155379D01*
X197474927Y-55781873D01*
X197714171Y-56360887D01*
X198092896Y-56740273D01*
X197715728Y-57116783D01*
X197475474Y-57695379D01*
X197474927Y-58321873D01*
X197714171Y-58900887D01*
X198092896Y-59280273D01*
X197715728Y-59656783D01*
X197475474Y-60235379D01*
X197474927Y-60861873D01*
X197714171Y-61440887D01*
X198092896Y-61820273D01*
X197715728Y-62196783D01*
X197475474Y-62775379D01*
X197474927Y-63401873D01*
X197714171Y-63980887D01*
X198156783Y-64424272D01*
X198735379Y-64664526D01*
X199361873Y-64665073D01*
X199940887Y-64425829D01*
X200384272Y-63983217D01*
X200624526Y-63404621D01*
X200625073Y-62778127D01*
X200385829Y-62199113D01*
X200007104Y-61819727D01*
X200384272Y-61443217D01*
X200624526Y-60864621D01*
X200625073Y-60238127D01*
X200385829Y-59659113D01*
X200007104Y-59279727D01*
X200384272Y-58903217D01*
X200624526Y-58324621D01*
X200625073Y-57698127D01*
X200385829Y-57119113D01*
X200007104Y-56739727D01*
X200384272Y-56363217D01*
X200624526Y-55784621D01*
X200625073Y-55158127D01*
X200385829Y-54579113D01*
X200007104Y-54199727D01*
X200384272Y-53823217D01*
X200624526Y-53244621D01*
X200625073Y-52618127D01*
X200385829Y-52039113D01*
X200007104Y-51659727D01*
X200384272Y-51283217D01*
X200624526Y-50704621D01*
X200625073Y-50078127D01*
X200385829Y-49499113D01*
X200111196Y-49224000D01*
X200839000Y-49224000D01*
X200839000Y-100293630D01*
X200187178Y-100022969D01*
X199479846Y-100022352D01*
X199089537Y-100183624D01*
X199308411Y-99656518D01*
X199309028Y-98949186D01*
X199038914Y-98295460D01*
X198539191Y-97794864D01*
X197885938Y-97523609D01*
X197178606Y-97522992D01*
X196524880Y-97793106D01*
X196024284Y-98292829D01*
X195753029Y-98946082D01*
X195752412Y-99653414D01*
X196022526Y-100307140D01*
X196522249Y-100807736D01*
X197175502Y-101078991D01*
X197882834Y-101079608D01*
X198273143Y-100918336D01*
X198054269Y-101445442D01*
X198053652Y-102152774D01*
X198323766Y-102806500D01*
X198823489Y-103307096D01*
X199476742Y-103578351D01*
X200184074Y-103578968D01*
X200837800Y-103308854D01*
X200839000Y-103307656D01*
X200839000Y-107704165D01*
X200203600Y-107440323D01*
X199463646Y-107439677D01*
X198779771Y-107722249D01*
X198256088Y-108245019D01*
X197972323Y-108928400D01*
X197971677Y-109668354D01*
X198016804Y-109777569D01*
X197885938Y-109723229D01*
X197178606Y-109722612D01*
X196524880Y-109992726D01*
X196231834Y-110285261D01*
X196040471Y-110093564D01*
X195387218Y-109822309D01*
X194679886Y-109821692D01*
X194026160Y-110091806D01*
X193525564Y-110591529D01*
X193254309Y-111244782D01*
X193253692Y-111952114D01*
X193523806Y-112605840D01*
X194023529Y-113106436D01*
X194676782Y-113377691D01*
X195384114Y-113378308D01*
X196037840Y-113108194D01*
X196330886Y-112815659D01*
X196522249Y-113007356D01*
X197175502Y-113278611D01*
X197882834Y-113279228D01*
X198536560Y-113009114D01*
X199037156Y-112509391D01*
X199308411Y-111856138D01*
X199309028Y-111148806D01*
X199283100Y-111086056D01*
X199460400Y-111159677D01*
X200200354Y-111160323D01*
X200839000Y-110896439D01*
X200839000Y-113590000D01*
X151170091Y-113590000D01*
X149046000Y-111465908D01*
X149046000Y-109668354D01*
X162797677Y-109668354D01*
X163080249Y-110352229D01*
X163603019Y-110875912D01*
X164286400Y-111159677D01*
X165026354Y-111160323D01*
X165206411Y-111085925D01*
X165181589Y-111145702D01*
X165180972Y-111853034D01*
X165451086Y-112506760D01*
X165950809Y-113007356D01*
X166604062Y-113278611D01*
X167311394Y-113279228D01*
X167965120Y-113009114D01*
X168159086Y-112815486D01*
X168449529Y-113106436D01*
X169102782Y-113377691D01*
X169810114Y-113378308D01*
X170463840Y-113108194D01*
X170964436Y-112608471D01*
X171235691Y-111955218D01*
X171235693Y-111952114D01*
X172679692Y-111952114D01*
X172949806Y-112605840D01*
X173449529Y-113106436D01*
X174102782Y-113377691D01*
X174810114Y-113378308D01*
X175463840Y-113108194D01*
X175756886Y-112815659D01*
X175948249Y-113007356D01*
X176601502Y-113278611D01*
X177308834Y-113279228D01*
X177962560Y-113009114D01*
X178463156Y-112509391D01*
X178734411Y-111856138D01*
X178735028Y-111148806D01*
X178709100Y-111086056D01*
X178886400Y-111159677D01*
X179626354Y-111160323D01*
X180310229Y-110877751D01*
X180833912Y-110354981D01*
X181117677Y-109671600D01*
X181117679Y-109668354D01*
X183371677Y-109668354D01*
X183654249Y-110352229D01*
X184177019Y-110875912D01*
X184860400Y-111159677D01*
X185600354Y-111160323D01*
X185780411Y-111085925D01*
X185755589Y-111145702D01*
X185754972Y-111853034D01*
X186025086Y-112506760D01*
X186524809Y-113007356D01*
X187178062Y-113278611D01*
X187885394Y-113279228D01*
X188539120Y-113009114D01*
X188733086Y-112815486D01*
X189023529Y-113106436D01*
X189676782Y-113377691D01*
X190384114Y-113378308D01*
X191037840Y-113108194D01*
X191538436Y-112608471D01*
X191809691Y-111955218D01*
X191810308Y-111247886D01*
X191540194Y-110594160D01*
X191040471Y-110093564D01*
X190387218Y-109822309D01*
X189679886Y-109821692D01*
X189026160Y-110091806D01*
X188832194Y-110285434D01*
X188541751Y-109994484D01*
X187888498Y-109723229D01*
X187181166Y-109722612D01*
X187047574Y-109777811D01*
X187091677Y-109671600D01*
X187092323Y-108931646D01*
X186809751Y-108247771D01*
X186286981Y-107724088D01*
X185603600Y-107440323D01*
X184863646Y-107439677D01*
X184179771Y-107722249D01*
X183656088Y-108245019D01*
X183372323Y-108928400D01*
X183371677Y-109668354D01*
X181117679Y-109668354D01*
X181118323Y-108931646D01*
X180835751Y-108247771D01*
X180312981Y-107724088D01*
X179629600Y-107440323D01*
X178889646Y-107439677D01*
X178205771Y-107722249D01*
X177682088Y-108245019D01*
X177398323Y-108928400D01*
X177397677Y-109668354D01*
X177442804Y-109777569D01*
X177311938Y-109723229D01*
X176604606Y-109722612D01*
X175950880Y-109992726D01*
X175657834Y-110285261D01*
X175466471Y-110093564D01*
X174813218Y-109822309D01*
X174105886Y-109821692D01*
X173452160Y-110091806D01*
X172951564Y-110591529D01*
X172680309Y-111244782D01*
X172679692Y-111952114D01*
X171235693Y-111952114D01*
X171236308Y-111247886D01*
X170966194Y-110594160D01*
X170466471Y-110093564D01*
X169813218Y-109822309D01*
X169105886Y-109821692D01*
X168452160Y-110091806D01*
X168258194Y-110285434D01*
X167967751Y-109994484D01*
X167314498Y-109723229D01*
X166607166Y-109722612D01*
X166473574Y-109777811D01*
X166517677Y-109671600D01*
X166518323Y-108931646D01*
X166235751Y-108247771D01*
X165712981Y-107724088D01*
X165029600Y-107440323D01*
X164289646Y-107439677D01*
X163605771Y-107722249D01*
X163082088Y-108245019D01*
X162798323Y-108928400D01*
X162797677Y-109668354D01*
X149046000Y-109668354D01*
X149046000Y-108541911D01*
X149125169Y-108733515D01*
X149514436Y-109123461D01*
X150023298Y-109334759D01*
X150574285Y-109335240D01*
X151021048Y-109150642D01*
X151085910Y-109251441D01*
X151298110Y-109396431D01*
X151550000Y-109447440D01*
X153250000Y-109447440D01*
X153485317Y-109403162D01*
X153689324Y-109271887D01*
X154171279Y-109446718D01*
X154761458Y-109420315D01*
X155184080Y-109245259D01*
X155264352Y-108993960D01*
X155379062Y-109108670D01*
X155418752Y-109068980D01*
X155557717Y-109208188D01*
X156103319Y-109434742D01*
X156694089Y-109435257D01*
X157240086Y-109209656D01*
X157520772Y-108929459D01*
X157714436Y-109123461D01*
X158223298Y-109334759D01*
X158774285Y-109335240D01*
X159283515Y-109124831D01*
X159673461Y-108735564D01*
X159884759Y-108226702D01*
X159885240Y-107675715D01*
X159674831Y-107166485D01*
X159285564Y-106776539D01*
X158776702Y-106565241D01*
X158225715Y-106564760D01*
X157716485Y-106775169D01*
X157520649Y-106970664D01*
X157242283Y-106691812D01*
X156696681Y-106465258D01*
X156105911Y-106464743D01*
X155559914Y-106690344D01*
X155418872Y-106831140D01*
X155379062Y-106791330D01*
X155264352Y-106906040D01*
X155184080Y-106654741D01*
X154628721Y-106453282D01*
X154038542Y-106479685D01*
X153682671Y-106627092D01*
X153501890Y-106503569D01*
X153250000Y-106452560D01*
X151550000Y-106452560D01*
X151314683Y-106496838D01*
X151098559Y-106635910D01*
X151020836Y-106749662D01*
X150576702Y-106565241D01*
X150025715Y-106564760D01*
X149516485Y-106775169D01*
X149126539Y-107164436D01*
X149046000Y-107358395D01*
X149046000Y-102152774D01*
X162879732Y-102152774D01*
X163149846Y-102806500D01*
X163649569Y-103307096D01*
X164302822Y-103578351D01*
X165010154Y-103578968D01*
X165663880Y-103308854D01*
X165916551Y-103056623D01*
X170881642Y-103056623D01*
X170997806Y-103338318D01*
X171659333Y-103588722D01*
X172366329Y-103566909D01*
X172918194Y-103338318D01*
X173034358Y-103056623D01*
X171958000Y-101980265D01*
X170881642Y-103056623D01*
X165916551Y-103056623D01*
X166164476Y-102809131D01*
X166435731Y-102155878D01*
X166436301Y-101501993D01*
X170169938Y-101501993D01*
X170191751Y-102208989D01*
X170420342Y-102760854D01*
X170702037Y-102877018D01*
X171778395Y-101800660D01*
X172137605Y-101800660D01*
X173213963Y-102877018D01*
X173495658Y-102760854D01*
X173746062Y-102099327D01*
X173724249Y-101392331D01*
X173495658Y-100840466D01*
X173213963Y-100724302D01*
X172137605Y-101800660D01*
X171778395Y-101800660D01*
X170702037Y-100724302D01*
X170420342Y-100840466D01*
X170169938Y-101501993D01*
X166436301Y-101501993D01*
X166436348Y-101448546D01*
X166217292Y-100918390D01*
X166604062Y-101078991D01*
X167311394Y-101079608D01*
X167965120Y-100809494D01*
X168230379Y-100544697D01*
X170881642Y-100544697D01*
X171958000Y-101621055D01*
X173034358Y-100544697D01*
X172918194Y-100263002D01*
X172256667Y-100012598D01*
X171549671Y-100034411D01*
X170997806Y-100263002D01*
X170881642Y-100544697D01*
X168230379Y-100544697D01*
X168465716Y-100309771D01*
X168736971Y-99656518D01*
X168736973Y-99653414D01*
X175178412Y-99653414D01*
X175448526Y-100307140D01*
X175948249Y-100807736D01*
X176601502Y-101078991D01*
X177308834Y-101079608D01*
X177699143Y-100918336D01*
X177480269Y-101445442D01*
X177479652Y-102152774D01*
X177749766Y-102806500D01*
X178249489Y-103307096D01*
X178902742Y-103578351D01*
X179610074Y-103578968D01*
X180263800Y-103308854D01*
X180764396Y-102809131D01*
X181035651Y-102155878D01*
X181035653Y-102152774D01*
X183453732Y-102152774D01*
X183723846Y-102806500D01*
X184223569Y-103307096D01*
X184876822Y-103578351D01*
X185584154Y-103578968D01*
X186237880Y-103308854D01*
X186738476Y-102809131D01*
X187009731Y-102155878D01*
X187009733Y-102152774D01*
X190753692Y-102152774D01*
X191023806Y-102806500D01*
X191523529Y-103307096D01*
X192176782Y-103578351D01*
X192884114Y-103578968D01*
X193537840Y-103308854D01*
X194038436Y-102809131D01*
X194309691Y-102155878D01*
X194310308Y-101448546D01*
X194040194Y-100794820D01*
X193540471Y-100294224D01*
X192887218Y-100022969D01*
X192179886Y-100022352D01*
X191526160Y-100292466D01*
X191025564Y-100792189D01*
X190754309Y-101445442D01*
X190753692Y-102152774D01*
X187009733Y-102152774D01*
X187010348Y-101448546D01*
X186791292Y-100918390D01*
X187178062Y-101078991D01*
X187885394Y-101079608D01*
X188539120Y-100809494D01*
X189039716Y-100309771D01*
X189310971Y-99656518D01*
X189311588Y-98949186D01*
X189041474Y-98295460D01*
X188541751Y-97794864D01*
X187888498Y-97523609D01*
X187181166Y-97522992D01*
X186527440Y-97793106D01*
X186026844Y-98292829D01*
X185755589Y-98946082D01*
X185754972Y-99653414D01*
X185974028Y-100183570D01*
X185587258Y-100022969D01*
X184879926Y-100022352D01*
X184226200Y-100292466D01*
X183725604Y-100792189D01*
X183454349Y-101445442D01*
X183453732Y-102152774D01*
X181035653Y-102152774D01*
X181036268Y-101448546D01*
X180766154Y-100794820D01*
X180266431Y-100294224D01*
X179613178Y-100022969D01*
X178905846Y-100022352D01*
X178515537Y-100183624D01*
X178734411Y-99656518D01*
X178735028Y-98949186D01*
X178464914Y-98295460D01*
X177965191Y-97794864D01*
X177311938Y-97523609D01*
X176604606Y-97522992D01*
X175950880Y-97793106D01*
X175450284Y-98292829D01*
X175179029Y-98946082D01*
X175178412Y-99653414D01*
X168736973Y-99653414D01*
X168737588Y-98949186D01*
X168467474Y-98295460D01*
X167967751Y-97794864D01*
X167314498Y-97523609D01*
X166607166Y-97522992D01*
X165953440Y-97793106D01*
X165452844Y-98292829D01*
X165181589Y-98946082D01*
X165180972Y-99653414D01*
X165400028Y-100183570D01*
X165013258Y-100022969D01*
X164305926Y-100022352D01*
X163652200Y-100292466D01*
X163151604Y-100792189D01*
X162880349Y-101445442D01*
X162879732Y-102152774D01*
X149046000Y-102152774D01*
X149046000Y-100050290D01*
X149632321Y-100637636D01*
X150453481Y-100978611D01*
X151342619Y-100979387D01*
X152164372Y-100639845D01*
X152793636Y-100011679D01*
X152995178Y-99526311D01*
X153198783Y-99730272D01*
X153777379Y-99970526D01*
X154403873Y-99971073D01*
X154982887Y-99731829D01*
X155210144Y-99504968D01*
X155702637Y-99504968D01*
X155793923Y-99765580D01*
X156381833Y-99982045D01*
X157007828Y-99957049D01*
X157470077Y-99765580D01*
X157561363Y-99504968D01*
X156632000Y-98575605D01*
X155702637Y-99504968D01*
X155210144Y-99504968D01*
X155424601Y-99290885D01*
X155523032Y-99325363D01*
X156452395Y-98396000D01*
X156811605Y-98396000D01*
X157740968Y-99325363D01*
X158001580Y-99234077D01*
X158218045Y-98646167D01*
X158193049Y-98020172D01*
X158001580Y-97557923D01*
X157740968Y-97466637D01*
X156811605Y-98396000D01*
X156452395Y-98396000D01*
X155523032Y-97466637D01*
X155424036Y-97501313D01*
X155049104Y-97125727D01*
X155362273Y-96813104D01*
X155737115Y-97188601D01*
X155702637Y-97287032D01*
X156632000Y-98216395D01*
X157561363Y-97287032D01*
X157526687Y-97188036D01*
X157902273Y-96813104D01*
X158278783Y-97190272D01*
X158857379Y-97430526D01*
X159483873Y-97431073D01*
X160062887Y-97191829D01*
X160442273Y-96813104D01*
X160818783Y-97190272D01*
X161397379Y-97430526D01*
X162023873Y-97431073D01*
X162602887Y-97191829D01*
X163046272Y-96749217D01*
X163286526Y-96170621D01*
X163287073Y-95544127D01*
X163047829Y-94965113D01*
X162669104Y-94585727D01*
X163046272Y-94209217D01*
X163286526Y-93630621D01*
X163287073Y-93004127D01*
X163047829Y-92425113D01*
X162605217Y-91981728D01*
X162026621Y-91741474D01*
X161400127Y-91740927D01*
X160821113Y-91980171D01*
X160441727Y-92358896D01*
X160065217Y-91981728D01*
X159486621Y-91741474D01*
X158860127Y-91740927D01*
X158281113Y-91980171D01*
X157901727Y-92358896D01*
X157525217Y-91981728D01*
X156946621Y-91741474D01*
X156672554Y-91741235D01*
X164493682Y-83920107D01*
X164647851Y-83689377D01*
X164665993Y-83598171D01*
X164701988Y-83417212D01*
X164701988Y-80998776D01*
X167182800Y-83479589D01*
X167182800Y-87964174D01*
X167059445Y-88087314D01*
X166909172Y-88449212D01*
X166908830Y-88841069D01*
X167058471Y-89203229D01*
X167335314Y-89480555D01*
X167697212Y-89630828D01*
X168089069Y-89631170D01*
X168451229Y-89481529D01*
X168728555Y-89204686D01*
X168878828Y-88842788D01*
X168879170Y-88450931D01*
X168729529Y-88088771D01*
X168605200Y-87964225D01*
X168605200Y-83185000D01*
X168570819Y-83012155D01*
X168728563Y-82854686D01*
X168878836Y-82492788D01*
X168879178Y-82100931D01*
X168729537Y-81738771D01*
X168452694Y-81461445D01*
X168090796Y-81311172D01*
X167914815Y-81311018D01*
X165811200Y-79207404D01*
X165811200Y-72969998D01*
X166065314Y-73224555D01*
X166427212Y-73374828D01*
X166819069Y-73375170D01*
X167181229Y-73225529D01*
X167458555Y-72948686D01*
X167608828Y-72586788D01*
X167609170Y-72194931D01*
X167459529Y-71832771D01*
X167182686Y-71555445D01*
X166820788Y-71405172D01*
X166644807Y-71405018D01*
X166319200Y-71079412D01*
X166319200Y-70789978D01*
X166427212Y-70834828D01*
X166819069Y-70835170D01*
X167181229Y-70685529D01*
X167458555Y-70408686D01*
X167608828Y-70046788D01*
X167609170Y-69654931D01*
X167459529Y-69292771D01*
X167182686Y-69015445D01*
X166820788Y-68865172D01*
X166644807Y-68865018D01*
X166573200Y-68793411D01*
X166573200Y-68294955D01*
X166819069Y-68295170D01*
X167181229Y-68145529D01*
X167458555Y-67868686D01*
X167608828Y-67506788D01*
X167609170Y-67114931D01*
X167459529Y-66752771D01*
X167182686Y-66475445D01*
X166827200Y-66327834D01*
X166827200Y-63540588D01*
X167671036Y-62696752D01*
X167670830Y-62933069D01*
X167820471Y-63295229D01*
X168097314Y-63572555D01*
X168459212Y-63722828D01*
X168851069Y-63723170D01*
X169213229Y-63573529D01*
X169337775Y-63449200D01*
X173736000Y-63449200D01*
X174008165Y-63395063D01*
X174238894Y-63240894D01*
X174264770Y-63215018D01*
X174439069Y-63215170D01*
X174801229Y-63065529D01*
X174925775Y-62941200D01*
X175934998Y-62941200D01*
X175964938Y-63100317D01*
X176104010Y-63316441D01*
X176316210Y-63461431D01*
X176318765Y-63461948D01*
X176226270Y-63600377D01*
X176116659Y-63670910D01*
X175971669Y-63883110D01*
X175920660Y-64135000D01*
X175920660Y-65405000D01*
X175964938Y-65640317D01*
X176104010Y-65856441D01*
X176125600Y-65871193D01*
X176125600Y-66205157D01*
X176116659Y-66210910D01*
X175971669Y-66423110D01*
X175920660Y-66675000D01*
X175920660Y-67833901D01*
X175676342Y-67934851D01*
X175377899Y-68232774D01*
X175216184Y-68622228D01*
X175216014Y-68816525D01*
X175078802Y-69021878D01*
X175019999Y-69317501D01*
X175019999Y-75970499D01*
X175078802Y-76266122D01*
X175246259Y-76516739D01*
X179285760Y-80556240D01*
X179536377Y-80723697D01*
X179832000Y-80782500D01*
X187837664Y-80782500D01*
X185872082Y-82748082D01*
X185699206Y-83006810D01*
X185638500Y-83312000D01*
X185638500Y-88061664D01*
X184132322Y-89567842D01*
X181140240Y-86575760D01*
X180889623Y-86408303D01*
X180594000Y-86349500D01*
X176595980Y-86349500D01*
X175524500Y-85278020D01*
X175524500Y-84836000D01*
X175465697Y-84540377D01*
X175298240Y-84289760D01*
X175296858Y-84288378D01*
X175046241Y-84120921D01*
X174750618Y-84062118D01*
X173170592Y-84062118D01*
X172905045Y-83796108D01*
X172515591Y-83634393D01*
X172093897Y-83634025D01*
X171704161Y-83795060D01*
X171405718Y-84092983D01*
X171244003Y-84482437D01*
X171243635Y-84904131D01*
X171404670Y-85293867D01*
X171702593Y-85592310D01*
X172092047Y-85754025D01*
X172513741Y-85754393D01*
X172870175Y-85607118D01*
X173981314Y-85607118D01*
X174038303Y-85893623D01*
X174205760Y-86144240D01*
X175729760Y-87668240D01*
X175980377Y-87835697D01*
X176276000Y-87894500D01*
X180274020Y-87894500D01*
X183064993Y-90685473D01*
X183064812Y-90892873D01*
X183229646Y-91291800D01*
X183534595Y-91597282D01*
X183933233Y-91762811D01*
X184364873Y-91763188D01*
X184763800Y-91598354D01*
X185069282Y-91293405D01*
X185234811Y-90894767D01*
X185234963Y-90720873D01*
X186999918Y-88955918D01*
X187172794Y-88697190D01*
X187233500Y-88392000D01*
X187233500Y-83642336D01*
X190068336Y-80807500D01*
X192786000Y-80807500D01*
X193091190Y-80746794D01*
X193349918Y-80573918D01*
X197434336Y-76489500D01*
X197635091Y-76489500D01*
X197714171Y-76680887D01*
X198092896Y-77060273D01*
X197715728Y-77436783D01*
X197475474Y-78015379D01*
X197474927Y-78641873D01*
X197714171Y-79220887D01*
X198092896Y-79600273D01*
X197715728Y-79976783D01*
X197475474Y-80555379D01*
X197474927Y-81181873D01*
X197714171Y-81760887D01*
X198092896Y-82140273D01*
X197715728Y-82516783D01*
X197475474Y-83095379D01*
X197474927Y-83721873D01*
X197714171Y-84300887D01*
X198092896Y-84680273D01*
X197715728Y-85056783D01*
X197475474Y-85635379D01*
X197474927Y-86261873D01*
X197714171Y-86840887D01*
X198156783Y-87284272D01*
X198735379Y-87524526D01*
X199361873Y-87525073D01*
X199940887Y-87285829D01*
X200384272Y-86843217D01*
X200624526Y-86264621D01*
X200625073Y-85638127D01*
X200385829Y-85059113D01*
X200007104Y-84679727D01*
X200384272Y-84303217D01*
X200624526Y-83724621D01*
X200625073Y-83098127D01*
X200385829Y-82519113D01*
X200007104Y-82139727D01*
X200384272Y-81763217D01*
X200624526Y-81184621D01*
X200625073Y-80558127D01*
X200385829Y-79979113D01*
X200007104Y-79599727D01*
X200384272Y-79223217D01*
X200624526Y-78644621D01*
X200625073Y-78018127D01*
X200385829Y-77439113D01*
X200007104Y-77059727D01*
X200384272Y-76683217D01*
X200624526Y-76104621D01*
X200625073Y-75478127D01*
X200385829Y-74899113D01*
X199944885Y-74457399D01*
X199979363Y-74358968D01*
X199050000Y-73429605D01*
X198120637Y-74358968D01*
X198155313Y-74457964D01*
X197718015Y-74894500D01*
X197104000Y-74894500D01*
X196798810Y-74955206D01*
X196540082Y-75128082D01*
X192455664Y-79212500D01*
X189738000Y-79212500D01*
X189612316Y-79237500D01*
X180151980Y-79237500D01*
X178733519Y-77819039D01*
X180326096Y-77819039D01*
X180343633Y-77901819D01*
X180613500Y-78394896D01*
X181051517Y-78747166D01*
X181591000Y-78905000D01*
X181991000Y-78905000D01*
X181991000Y-77597000D01*
X182245000Y-77597000D01*
X182245000Y-78905000D01*
X182645000Y-78905000D01*
X183184483Y-78747166D01*
X183622500Y-78394896D01*
X183892367Y-77901819D01*
X183909904Y-77819039D01*
X183787915Y-77597000D01*
X182245000Y-77597000D01*
X181991000Y-77597000D01*
X180448085Y-77597000D01*
X180326096Y-77819039D01*
X178733519Y-77819039D01*
X176564999Y-75650519D01*
X176564999Y-72613030D01*
X176725069Y-72613170D01*
X177087229Y-72463529D01*
X177211775Y-72339200D01*
X178521412Y-72339200D01*
X180345106Y-74162894D01*
X180453515Y-74235331D01*
X180356283Y-74380849D01*
X180247050Y-74930000D01*
X180314682Y-75270010D01*
X179145798Y-75270010D01*
X179019200Y-75143412D01*
X179019200Y-74935626D01*
X179142555Y-74812486D01*
X179292828Y-74450588D01*
X179293170Y-74058731D01*
X179143529Y-73696571D01*
X178866686Y-73419245D01*
X178504788Y-73268972D01*
X178112931Y-73268630D01*
X177750771Y-73418271D01*
X177473445Y-73695114D01*
X177323172Y-74057012D01*
X177322830Y-74448869D01*
X177472471Y-74811029D01*
X177596800Y-74935575D01*
X177596800Y-75438000D01*
X177650937Y-75710165D01*
X177805106Y-75940894D01*
X178348316Y-76484104D01*
X178579045Y-76638273D01*
X178851210Y-76692410D01*
X180532878Y-76692410D01*
X180343633Y-77038181D01*
X180326096Y-77120961D01*
X180448085Y-77343000D01*
X181991000Y-77343000D01*
X181991000Y-77323000D01*
X182245000Y-77323000D01*
X182245000Y-77343000D01*
X183787915Y-77343000D01*
X183909904Y-77120961D01*
X183892367Y-77038181D01*
X183683851Y-76657200D01*
X186567012Y-76657200D01*
X187882705Y-77972894D01*
X187951934Y-78019151D01*
X187995922Y-78048542D01*
X188287352Y-78484698D01*
X188752899Y-78795767D01*
X189302050Y-78905000D01*
X190173950Y-78905000D01*
X190723101Y-78795767D01*
X191188648Y-78484698D01*
X191499717Y-78019151D01*
X191608950Y-77470000D01*
X191499717Y-76920849D01*
X191188648Y-76455302D01*
X190806562Y-76200000D01*
X191188648Y-75944698D01*
X191499717Y-75479151D01*
X191608950Y-74930000D01*
X191499717Y-74380849D01*
X191188648Y-73915302D01*
X190806562Y-73660000D01*
X191188648Y-73404698D01*
X191459170Y-72999833D01*
X197463955Y-72999833D01*
X197488951Y-73625828D01*
X197680420Y-74088077D01*
X197941032Y-74179363D01*
X198870395Y-73250000D01*
X199229605Y-73250000D01*
X200158968Y-74179363D01*
X200419580Y-74088077D01*
X200636045Y-73500167D01*
X200611049Y-72874172D01*
X200419580Y-72411923D01*
X200158968Y-72320637D01*
X199229605Y-73250000D01*
X198870395Y-73250000D01*
X197941032Y-72320637D01*
X197680420Y-72411923D01*
X197463955Y-72999833D01*
X191459170Y-72999833D01*
X191499717Y-72939151D01*
X191608950Y-72390000D01*
X191499717Y-71840849D01*
X191485097Y-71818968D01*
X198120637Y-71818968D01*
X198177043Y-71980000D01*
X198120637Y-72141032D01*
X199050000Y-73070395D01*
X199979363Y-72141032D01*
X199922957Y-71980000D01*
X199979363Y-71818968D01*
X199050000Y-70889605D01*
X198120637Y-71818968D01*
X191485097Y-71818968D01*
X191188648Y-71375302D01*
X190806562Y-71120000D01*
X191188648Y-70864698D01*
X191459170Y-70459833D01*
X197463955Y-70459833D01*
X197488951Y-71085828D01*
X197680420Y-71548077D01*
X197941032Y-71639363D01*
X198870395Y-70710000D01*
X199229605Y-70710000D01*
X200158968Y-71639363D01*
X200419580Y-71548077D01*
X200636045Y-70960167D01*
X200611049Y-70334172D01*
X200419580Y-69871923D01*
X200158968Y-69780637D01*
X199229605Y-70710000D01*
X198870395Y-70710000D01*
X197941032Y-69780637D01*
X197680420Y-69871923D01*
X197463955Y-70459833D01*
X191459170Y-70459833D01*
X191499717Y-70399151D01*
X191608950Y-69850000D01*
X191499717Y-69300849D01*
X191188648Y-68835302D01*
X190806562Y-68580000D01*
X190953419Y-68481873D01*
X197474927Y-68481873D01*
X197714171Y-69060887D01*
X198155115Y-69502601D01*
X198120637Y-69601032D01*
X199050000Y-70530395D01*
X199979363Y-69601032D01*
X199944687Y-69502036D01*
X200384272Y-69063217D01*
X200624526Y-68484621D01*
X200625073Y-67858127D01*
X200385829Y-67279113D01*
X199943217Y-66835728D01*
X199364621Y-66595474D01*
X198738127Y-66594927D01*
X198159113Y-66834171D01*
X197715728Y-67276783D01*
X197475474Y-67855379D01*
X197474927Y-68481873D01*
X190953419Y-68481873D01*
X191188648Y-68324698D01*
X191499717Y-67859151D01*
X191608950Y-67310000D01*
X191499717Y-66760849D01*
X191188648Y-66295302D01*
X190806562Y-66040000D01*
X191188648Y-65784698D01*
X191499717Y-65319151D01*
X191608950Y-64770000D01*
X191499717Y-64220849D01*
X191188648Y-63755302D01*
X190806562Y-63500000D01*
X191188648Y-63244698D01*
X191499717Y-62779151D01*
X191608950Y-62230000D01*
X191499717Y-61680849D01*
X191188648Y-61215302D01*
X190806562Y-60960000D01*
X191188648Y-60704698D01*
X191499717Y-60239151D01*
X191608950Y-59690000D01*
X191531775Y-59302014D01*
X192272895Y-58560894D01*
X192427063Y-58330164D01*
X192481200Y-58058000D01*
X192481200Y-55783998D01*
X192427063Y-55511834D01*
X192427063Y-55511833D01*
X192272894Y-55281103D01*
X190497201Y-53505411D01*
X190497201Y-43353321D01*
X190884833Y-43496045D01*
X191510828Y-43471049D01*
X191973077Y-43279580D01*
X192064363Y-43018968D01*
X191135000Y-42089605D01*
X191120858Y-42103748D01*
X190941253Y-41924143D01*
X190955395Y-41910000D01*
X191314605Y-41910000D01*
X192243968Y-42839363D01*
X192504580Y-42748077D01*
X192721045Y-42160167D01*
X192696049Y-41534172D01*
X192504580Y-41071923D01*
X192243968Y-40980637D01*
X191314605Y-41910000D01*
X190955395Y-41910000D01*
X190941253Y-41895858D01*
X191120858Y-41716253D01*
X191135000Y-41730395D01*
X192064363Y-40801032D01*
X192029687Y-40702036D01*
X192469272Y-40263217D01*
X192709526Y-39684621D01*
X192710073Y-39058127D01*
X192470829Y-38479113D01*
X192028217Y-38035728D01*
X191449621Y-37795474D01*
X190823127Y-37794927D01*
X190244113Y-38034171D01*
X189864727Y-38412896D01*
X189488217Y-38035728D01*
X188909621Y-37795474D01*
X188283127Y-37794927D01*
X187704113Y-38034171D01*
X187324727Y-38412896D01*
X186948217Y-38035728D01*
X186369621Y-37795474D01*
X185743127Y-37794927D01*
X185164113Y-38034171D01*
X184784727Y-38412896D01*
X184408217Y-38035728D01*
X183829621Y-37795474D01*
X183203127Y-37794927D01*
X182624113Y-38034171D01*
X182244727Y-38412896D01*
X181868217Y-38035728D01*
X181289621Y-37795474D01*
X180663127Y-37794927D01*
X180480978Y-37870189D01*
X179388788Y-36778000D01*
X195505000Y-36778000D01*
X195505000Y-45720000D01*
X195505000Y-45720000D01*
G37*
X195505000Y-45720000D02*
X195518642Y-45788584D01*
X195518642Y-45858514D01*
X195631152Y-46424140D01*
X195457679Y-46250364D01*
X194636519Y-45909389D01*
X193747381Y-45908613D01*
X192925628Y-46248155D01*
X192296364Y-46876321D01*
X191955389Y-47697481D01*
X191954613Y-48586619D01*
X192294155Y-49408372D01*
X192922321Y-50037636D01*
X193743481Y-50378611D01*
X194632619Y-50379387D01*
X195454372Y-50039845D01*
X196083636Y-49411679D01*
X196424611Y-48590519D01*
X196425071Y-48063277D01*
X196443001Y-48090111D01*
X196638889Y-48285999D01*
X197545327Y-48891662D01*
X197801268Y-48997677D01*
X198146846Y-49066417D01*
X197715728Y-49496783D01*
X197475474Y-50075379D01*
X197474927Y-50701873D01*
X197714171Y-51280887D01*
X198092896Y-51660273D01*
X197715728Y-52036783D01*
X197475474Y-52615379D01*
X197474927Y-53241873D01*
X197714171Y-53820887D01*
X198092896Y-54200273D01*
X197715728Y-54576783D01*
X197475474Y-55155379D01*
X197474927Y-55781873D01*
X197714171Y-56360887D01*
X198092896Y-56740273D01*
X197715728Y-57116783D01*
X197475474Y-57695379D01*
X197474927Y-58321873D01*
X197714171Y-58900887D01*
X198092896Y-59280273D01*
X197715728Y-59656783D01*
X197475474Y-60235379D01*
X197474927Y-60861873D01*
X197714171Y-61440887D01*
X198092896Y-61820273D01*
X197715728Y-62196783D01*
X197475474Y-62775379D01*
X197474927Y-63401873D01*
X197714171Y-63980887D01*
X198156783Y-64424272D01*
X198735379Y-64664526D01*
X199361873Y-64665073D01*
X199940887Y-64425829D01*
X200384272Y-63983217D01*
X200624526Y-63404621D01*
X200625073Y-62778127D01*
X200385829Y-62199113D01*
X200007104Y-61819727D01*
X200384272Y-61443217D01*
X200624526Y-60864621D01*
X200625073Y-60238127D01*
X200385829Y-59659113D01*
X200007104Y-59279727D01*
X200384272Y-58903217D01*
X200624526Y-58324621D01*
X200625073Y-57698127D01*
X200385829Y-57119113D01*
X200007104Y-56739727D01*
X200384272Y-56363217D01*
X200624526Y-55784621D01*
X200625073Y-55158127D01*
X200385829Y-54579113D01*
X200007104Y-54199727D01*
X200384272Y-53823217D01*
X200624526Y-53244621D01*
X200625073Y-52618127D01*
X200385829Y-52039113D01*
X200007104Y-51659727D01*
X200384272Y-51283217D01*
X200624526Y-50704621D01*
X200625073Y-50078127D01*
X200385829Y-49499113D01*
X200111196Y-49224000D01*
X200839000Y-49224000D01*
X200839000Y-100293630D01*
X200187178Y-100022969D01*
X199479846Y-100022352D01*
X199089537Y-100183624D01*
X199308411Y-99656518D01*
X199309028Y-98949186D01*
X199038914Y-98295460D01*
X198539191Y-97794864D01*
X197885938Y-97523609D01*
X197178606Y-97522992D01*
X196524880Y-97793106D01*
X196024284Y-98292829D01*
X195753029Y-98946082D01*
X195752412Y-99653414D01*
X196022526Y-100307140D01*
X196522249Y-100807736D01*
X197175502Y-101078991D01*
X197882834Y-101079608D01*
X198273143Y-100918336D01*
X198054269Y-101445442D01*
X198053652Y-102152774D01*
X198323766Y-102806500D01*
X198823489Y-103307096D01*
X199476742Y-103578351D01*
X200184074Y-103578968D01*
X200837800Y-103308854D01*
X200839000Y-103307656D01*
X200839000Y-107704165D01*
X200203600Y-107440323D01*
X199463646Y-107439677D01*
X198779771Y-107722249D01*
X198256088Y-108245019D01*
X197972323Y-108928400D01*
X197971677Y-109668354D01*
X198016804Y-109777569D01*
X197885938Y-109723229D01*
X197178606Y-109722612D01*
X196524880Y-109992726D01*
X196231834Y-110285261D01*
X196040471Y-110093564D01*
X195387218Y-109822309D01*
X194679886Y-109821692D01*
X194026160Y-110091806D01*
X193525564Y-110591529D01*
X193254309Y-111244782D01*
X193253692Y-111952114D01*
X193523806Y-112605840D01*
X194023529Y-113106436D01*
X194676782Y-113377691D01*
X195384114Y-113378308D01*
X196037840Y-113108194D01*
X196330886Y-112815659D01*
X196522249Y-113007356D01*
X197175502Y-113278611D01*
X197882834Y-113279228D01*
X198536560Y-113009114D01*
X199037156Y-112509391D01*
X199308411Y-111856138D01*
X199309028Y-111148806D01*
X199283100Y-111086056D01*
X199460400Y-111159677D01*
X200200354Y-111160323D01*
X200839000Y-110896439D01*
X200839000Y-113590000D01*
X151170091Y-113590000D01*
X149046000Y-111465908D01*
X149046000Y-109668354D01*
X162797677Y-109668354D01*
X163080249Y-110352229D01*
X163603019Y-110875912D01*
X164286400Y-111159677D01*
X165026354Y-111160323D01*
X165206411Y-111085925D01*
X165181589Y-111145702D01*
X165180972Y-111853034D01*
X165451086Y-112506760D01*
X165950809Y-113007356D01*
X166604062Y-113278611D01*
X167311394Y-113279228D01*
X167965120Y-113009114D01*
X168159086Y-112815486D01*
X168449529Y-113106436D01*
X169102782Y-113377691D01*
X169810114Y-113378308D01*
X170463840Y-113108194D01*
X170964436Y-112608471D01*
X171235691Y-111955218D01*
X171235693Y-111952114D01*
X172679692Y-111952114D01*
X172949806Y-112605840D01*
X173449529Y-113106436D01*
X174102782Y-113377691D01*
X174810114Y-113378308D01*
X175463840Y-113108194D01*
X175756886Y-112815659D01*
X175948249Y-113007356D01*
X176601502Y-113278611D01*
X177308834Y-113279228D01*
X177962560Y-113009114D01*
X178463156Y-112509391D01*
X178734411Y-111856138D01*
X178735028Y-111148806D01*
X178709100Y-111086056D01*
X178886400Y-111159677D01*
X179626354Y-111160323D01*
X180310229Y-110877751D01*
X180833912Y-110354981D01*
X181117677Y-109671600D01*
X181117679Y-109668354D01*
X183371677Y-109668354D01*
X183654249Y-110352229D01*
X184177019Y-110875912D01*
X184860400Y-111159677D01*
X185600354Y-111160323D01*
X185780411Y-111085925D01*
X185755589Y-111145702D01*
X185754972Y-111853034D01*
X186025086Y-112506760D01*
X186524809Y-113007356D01*
X187178062Y-113278611D01*
X187885394Y-113279228D01*
X188539120Y-113009114D01*
X188733086Y-112815486D01*
X189023529Y-113106436D01*
X189676782Y-113377691D01*
X190384114Y-113378308D01*
X191037840Y-113108194D01*
X191538436Y-112608471D01*
X191809691Y-111955218D01*
X191810308Y-111247886D01*
X191540194Y-110594160D01*
X191040471Y-110093564D01*
X190387218Y-109822309D01*
X189679886Y-109821692D01*
X189026160Y-110091806D01*
X188832194Y-110285434D01*
X188541751Y-109994484D01*
X187888498Y-109723229D01*
X187181166Y-109722612D01*
X187047574Y-109777811D01*
X187091677Y-109671600D01*
X187092323Y-108931646D01*
X186809751Y-108247771D01*
X186286981Y-107724088D01*
X185603600Y-107440323D01*
X184863646Y-107439677D01*
X184179771Y-107722249D01*
X183656088Y-108245019D01*
X183372323Y-108928400D01*
X183371677Y-109668354D01*
X181117679Y-109668354D01*
X181118323Y-108931646D01*
X180835751Y-108247771D01*
X180312981Y-107724088D01*
X179629600Y-107440323D01*
X178889646Y-107439677D01*
X178205771Y-107722249D01*
X177682088Y-108245019D01*
X177398323Y-108928400D01*
X177397677Y-109668354D01*
X177442804Y-109777569D01*
X177311938Y-109723229D01*
X176604606Y-109722612D01*
X175950880Y-109992726D01*
X175657834Y-110285261D01*
X175466471Y-110093564D01*
X174813218Y-109822309D01*
X174105886Y-109821692D01*
X173452160Y-110091806D01*
X172951564Y-110591529D01*
X172680309Y-111244782D01*
X172679692Y-111952114D01*
X171235693Y-111952114D01*
X171236308Y-111247886D01*
X170966194Y-110594160D01*
X170466471Y-110093564D01*
X169813218Y-109822309D01*
X169105886Y-109821692D01*
X168452160Y-110091806D01*
X168258194Y-110285434D01*
X167967751Y-109994484D01*
X167314498Y-109723229D01*
X166607166Y-109722612D01*
X166473574Y-109777811D01*
X166517677Y-109671600D01*
X166518323Y-108931646D01*
X166235751Y-108247771D01*
X165712981Y-107724088D01*
X165029600Y-107440323D01*
X164289646Y-107439677D01*
X163605771Y-107722249D01*
X163082088Y-108245019D01*
X162798323Y-108928400D01*
X162797677Y-109668354D01*
X149046000Y-109668354D01*
X149046000Y-108541911D01*
X149125169Y-108733515D01*
X149514436Y-109123461D01*
X150023298Y-109334759D01*
X150574285Y-109335240D01*
X151021048Y-109150642D01*
X151085910Y-109251441D01*
X151298110Y-109396431D01*
X151550000Y-109447440D01*
X153250000Y-109447440D01*
X153485317Y-109403162D01*
X153689324Y-109271887D01*
X154171279Y-109446718D01*
X154761458Y-109420315D01*
X155184080Y-109245259D01*
X155264352Y-108993960D01*
X155379062Y-109108670D01*
X155418752Y-109068980D01*
X155557717Y-109208188D01*
X156103319Y-109434742D01*
X156694089Y-109435257D01*
X157240086Y-109209656D01*
X157520772Y-108929459D01*
X157714436Y-109123461D01*
X158223298Y-109334759D01*
X158774285Y-109335240D01*
X159283515Y-109124831D01*
X159673461Y-108735564D01*
X159884759Y-108226702D01*
X159885240Y-107675715D01*
X159674831Y-107166485D01*
X159285564Y-106776539D01*
X158776702Y-106565241D01*
X158225715Y-106564760D01*
X157716485Y-106775169D01*
X157520649Y-106970664D01*
X157242283Y-106691812D01*
X156696681Y-106465258D01*
X156105911Y-106464743D01*
X155559914Y-106690344D01*
X155418872Y-106831140D01*
X155379062Y-106791330D01*
X155264352Y-106906040D01*
X155184080Y-106654741D01*
X154628721Y-106453282D01*
X154038542Y-106479685D01*
X153682671Y-106627092D01*
X153501890Y-106503569D01*
X153250000Y-106452560D01*
X151550000Y-106452560D01*
X151314683Y-106496838D01*
X151098559Y-106635910D01*
X151020836Y-106749662D01*
X150576702Y-106565241D01*
X150025715Y-106564760D01*
X149516485Y-106775169D01*
X149126539Y-107164436D01*
X149046000Y-107358395D01*
X149046000Y-102152774D01*
X162879732Y-102152774D01*
X163149846Y-102806500D01*
X163649569Y-103307096D01*
X164302822Y-103578351D01*
X165010154Y-103578968D01*
X165663880Y-103308854D01*
X165916551Y-103056623D01*
X170881642Y-103056623D01*
X170997806Y-103338318D01*
X171659333Y-103588722D01*
X172366329Y-103566909D01*
X172918194Y-103338318D01*
X173034358Y-103056623D01*
X171958000Y-101980265D01*
X170881642Y-103056623D01*
X165916551Y-103056623D01*
X166164476Y-102809131D01*
X166435731Y-102155878D01*
X166436301Y-101501993D01*
X170169938Y-101501993D01*
X170191751Y-102208989D01*
X170420342Y-102760854D01*
X170702037Y-102877018D01*
X171778395Y-101800660D01*
X172137605Y-101800660D01*
X173213963Y-102877018D01*
X173495658Y-102760854D01*
X173746062Y-102099327D01*
X173724249Y-101392331D01*
X173495658Y-100840466D01*
X173213963Y-100724302D01*
X172137605Y-101800660D01*
X171778395Y-101800660D01*
X170702037Y-100724302D01*
X170420342Y-100840466D01*
X170169938Y-101501993D01*
X166436301Y-101501993D01*
X166436348Y-101448546D01*
X166217292Y-100918390D01*
X166604062Y-101078991D01*
X167311394Y-101079608D01*
X167965120Y-100809494D01*
X168230379Y-100544697D01*
X170881642Y-100544697D01*
X171958000Y-101621055D01*
X173034358Y-100544697D01*
X172918194Y-100263002D01*
X172256667Y-100012598D01*
X171549671Y-100034411D01*
X170997806Y-100263002D01*
X170881642Y-100544697D01*
X168230379Y-100544697D01*
X168465716Y-100309771D01*
X168736971Y-99656518D01*
X168736973Y-99653414D01*
X175178412Y-99653414D01*
X175448526Y-100307140D01*
X175948249Y-100807736D01*
X176601502Y-101078991D01*
X177308834Y-101079608D01*
X177699143Y-100918336D01*
X177480269Y-101445442D01*
X177479652Y-102152774D01*
X177749766Y-102806500D01*
X178249489Y-103307096D01*
X178902742Y-103578351D01*
X179610074Y-103578968D01*
X180263800Y-103308854D01*
X180764396Y-102809131D01*
X181035651Y-102155878D01*
X181035653Y-102152774D01*
X183453732Y-102152774D01*
X183723846Y-102806500D01*
X184223569Y-103307096D01*
X184876822Y-103578351D01*
X185584154Y-103578968D01*
X186237880Y-103308854D01*
X186738476Y-102809131D01*
X187009731Y-102155878D01*
X187009733Y-102152774D01*
X190753692Y-102152774D01*
X191023806Y-102806500D01*
X191523529Y-103307096D01*
X192176782Y-103578351D01*
X192884114Y-103578968D01*
X193537840Y-103308854D01*
X194038436Y-102809131D01*
X194309691Y-102155878D01*
X194310308Y-101448546D01*
X194040194Y-100794820D01*
X193540471Y-100294224D01*
X192887218Y-100022969D01*
X192179886Y-100022352D01*
X191526160Y-100292466D01*
X191025564Y-100792189D01*
X190754309Y-101445442D01*
X190753692Y-102152774D01*
X187009733Y-102152774D01*
X187010348Y-101448546D01*
X186791292Y-100918390D01*
X187178062Y-101078991D01*
X187885394Y-101079608D01*
X188539120Y-100809494D01*
X189039716Y-100309771D01*
X189310971Y-99656518D01*
X189311588Y-98949186D01*
X189041474Y-98295460D01*
X188541751Y-97794864D01*
X187888498Y-97523609D01*
X187181166Y-97522992D01*
X186527440Y-97793106D01*
X186026844Y-98292829D01*
X185755589Y-98946082D01*
X185754972Y-99653414D01*
X185974028Y-100183570D01*
X185587258Y-100022969D01*
X184879926Y-100022352D01*
X184226200Y-100292466D01*
X183725604Y-100792189D01*
X183454349Y-101445442D01*
X183453732Y-102152774D01*
X181035653Y-102152774D01*
X181036268Y-101448546D01*
X180766154Y-100794820D01*
X180266431Y-100294224D01*
X179613178Y-100022969D01*
X178905846Y-100022352D01*
X178515537Y-100183624D01*
X178734411Y-99656518D01*
X178735028Y-98949186D01*
X178464914Y-98295460D01*
X177965191Y-97794864D01*
X177311938Y-97523609D01*
X176604606Y-97522992D01*
X175950880Y-97793106D01*
X175450284Y-98292829D01*
X175179029Y-98946082D01*
X175178412Y-99653414D01*
X168736973Y-99653414D01*
X168737588Y-98949186D01*
X168467474Y-98295460D01*
X167967751Y-97794864D01*
X167314498Y-97523609D01*
X166607166Y-97522992D01*
X165953440Y-97793106D01*
X165452844Y-98292829D01*
X165181589Y-98946082D01*
X165180972Y-99653414D01*
X165400028Y-100183570D01*
X165013258Y-100022969D01*
X164305926Y-100022352D01*
X163652200Y-100292466D01*
X163151604Y-100792189D01*
X162880349Y-101445442D01*
X162879732Y-102152774D01*
X149046000Y-102152774D01*
X149046000Y-100050290D01*
X149632321Y-100637636D01*
X150453481Y-100978611D01*
X151342619Y-100979387D01*
X152164372Y-100639845D01*
X152793636Y-100011679D01*
X152995178Y-99526311D01*
X153198783Y-99730272D01*
X153777379Y-99970526D01*
X154403873Y-99971073D01*
X154982887Y-99731829D01*
X155210144Y-99504968D01*
X155702637Y-99504968D01*
X155793923Y-99765580D01*
X156381833Y-99982045D01*
X157007828Y-99957049D01*
X157470077Y-99765580D01*
X157561363Y-99504968D01*
X156632000Y-98575605D01*
X155702637Y-99504968D01*
X155210144Y-99504968D01*
X155424601Y-99290885D01*
X155523032Y-99325363D01*
X156452395Y-98396000D01*
X156811605Y-98396000D01*
X157740968Y-99325363D01*
X158001580Y-99234077D01*
X158218045Y-98646167D01*
X158193049Y-98020172D01*
X158001580Y-97557923D01*
X157740968Y-97466637D01*
X156811605Y-98396000D01*
X156452395Y-98396000D01*
X155523032Y-97466637D01*
X155424036Y-97501313D01*
X155049104Y-97125727D01*
X155362273Y-96813104D01*
X155737115Y-97188601D01*
X155702637Y-97287032D01*
X156632000Y-98216395D01*
X157561363Y-97287032D01*
X157526687Y-97188036D01*
X157902273Y-96813104D01*
X158278783Y-97190272D01*
X158857379Y-97430526D01*
X159483873Y-97431073D01*
X160062887Y-97191829D01*
X160442273Y-96813104D01*
X160818783Y-97190272D01*
X161397379Y-97430526D01*
X162023873Y-97431073D01*
X162602887Y-97191829D01*
X163046272Y-96749217D01*
X163286526Y-96170621D01*
X163287073Y-95544127D01*
X163047829Y-94965113D01*
X162669104Y-94585727D01*
X163046272Y-94209217D01*
X163286526Y-93630621D01*
X163287073Y-93004127D01*
X163047829Y-92425113D01*
X162605217Y-91981728D01*
X162026621Y-91741474D01*
X161400127Y-91740927D01*
X160821113Y-91980171D01*
X160441727Y-92358896D01*
X160065217Y-91981728D01*
X159486621Y-91741474D01*
X158860127Y-91740927D01*
X158281113Y-91980171D01*
X157901727Y-92358896D01*
X157525217Y-91981728D01*
X156946621Y-91741474D01*
X156672554Y-91741235D01*
X164493682Y-83920107D01*
X164647851Y-83689377D01*
X164665993Y-83598171D01*
X164701988Y-83417212D01*
X164701988Y-80998776D01*
X167182800Y-83479589D01*
X167182800Y-87964174D01*
X167059445Y-88087314D01*
X166909172Y-88449212D01*
X166908830Y-88841069D01*
X167058471Y-89203229D01*
X167335314Y-89480555D01*
X167697212Y-89630828D01*
X168089069Y-89631170D01*
X168451229Y-89481529D01*
X168728555Y-89204686D01*
X168878828Y-88842788D01*
X168879170Y-88450931D01*
X168729529Y-88088771D01*
X168605200Y-87964225D01*
X168605200Y-83185000D01*
X168570819Y-83012155D01*
X168728563Y-82854686D01*
X168878836Y-82492788D01*
X168879178Y-82100931D01*
X168729537Y-81738771D01*
X168452694Y-81461445D01*
X168090796Y-81311172D01*
X167914815Y-81311018D01*
X165811200Y-79207404D01*
X165811200Y-72969998D01*
X166065314Y-73224555D01*
X166427212Y-73374828D01*
X166819069Y-73375170D01*
X167181229Y-73225529D01*
X167458555Y-72948686D01*
X167608828Y-72586788D01*
X167609170Y-72194931D01*
X167459529Y-71832771D01*
X167182686Y-71555445D01*
X166820788Y-71405172D01*
X166644807Y-71405018D01*
X166319200Y-71079412D01*
X166319200Y-70789978D01*
X166427212Y-70834828D01*
X166819069Y-70835170D01*
X167181229Y-70685529D01*
X167458555Y-70408686D01*
X167608828Y-70046788D01*
X167609170Y-69654931D01*
X167459529Y-69292771D01*
X167182686Y-69015445D01*
X166820788Y-68865172D01*
X166644807Y-68865018D01*
X166573200Y-68793411D01*
X166573200Y-68294955D01*
X166819069Y-68295170D01*
X167181229Y-68145529D01*
X167458555Y-67868686D01*
X167608828Y-67506788D01*
X167609170Y-67114931D01*
X167459529Y-66752771D01*
X167182686Y-66475445D01*
X166827200Y-66327834D01*
X166827200Y-63540588D01*
X167671036Y-62696752D01*
X167670830Y-62933069D01*
X167820471Y-63295229D01*
X168097314Y-63572555D01*
X168459212Y-63722828D01*
X168851069Y-63723170D01*
X169213229Y-63573529D01*
X169337775Y-63449200D01*
X173736000Y-63449200D01*
X174008165Y-63395063D01*
X174238894Y-63240894D01*
X174264770Y-63215018D01*
X174439069Y-63215170D01*
X174801229Y-63065529D01*
X174925775Y-62941200D01*
X175934998Y-62941200D01*
X175964938Y-63100317D01*
X176104010Y-63316441D01*
X176316210Y-63461431D01*
X176318765Y-63461948D01*
X176226270Y-63600377D01*
X176116659Y-63670910D01*
X175971669Y-63883110D01*
X175920660Y-64135000D01*
X175920660Y-65405000D01*
X175964938Y-65640317D01*
X176104010Y-65856441D01*
X176125600Y-65871193D01*
X176125600Y-66205157D01*
X176116659Y-66210910D01*
X175971669Y-66423110D01*
X175920660Y-66675000D01*
X175920660Y-67833901D01*
X175676342Y-67934851D01*
X175377899Y-68232774D01*
X175216184Y-68622228D01*
X175216014Y-68816525D01*
X175078802Y-69021878D01*
X175019999Y-69317501D01*
X175019999Y-75970499D01*
X175078802Y-76266122D01*
X175246259Y-76516739D01*
X179285760Y-80556240D01*
X179536377Y-80723697D01*
X179832000Y-80782500D01*
X187837664Y-80782500D01*
X185872082Y-82748082D01*
X185699206Y-83006810D01*
X185638500Y-83312000D01*
X185638500Y-88061664D01*
X184132322Y-89567842D01*
X181140240Y-86575760D01*
X180889623Y-86408303D01*
X180594000Y-86349500D01*
X176595980Y-86349500D01*
X175524500Y-85278020D01*
X175524500Y-84836000D01*
X175465697Y-84540377D01*
X175298240Y-84289760D01*
X175296858Y-84288378D01*
X175046241Y-84120921D01*
X174750618Y-84062118D01*
X173170592Y-84062118D01*
X172905045Y-83796108D01*
X172515591Y-83634393D01*
X172093897Y-83634025D01*
X171704161Y-83795060D01*
X171405718Y-84092983D01*
X171244003Y-84482437D01*
X171243635Y-84904131D01*
X171404670Y-85293867D01*
X171702593Y-85592310D01*
X172092047Y-85754025D01*
X172513741Y-85754393D01*
X172870175Y-85607118D01*
X173981314Y-85607118D01*
X174038303Y-85893623D01*
X174205760Y-86144240D01*
X175729760Y-87668240D01*
X175980377Y-87835697D01*
X176276000Y-87894500D01*
X180274020Y-87894500D01*
X183064993Y-90685473D01*
X183064812Y-90892873D01*
X183229646Y-91291800D01*
X183534595Y-91597282D01*
X183933233Y-91762811D01*
X184364873Y-91763188D01*
X184763800Y-91598354D01*
X185069282Y-91293405D01*
X185234811Y-90894767D01*
X185234963Y-90720873D01*
X186999918Y-88955918D01*
X187172794Y-88697190D01*
X187233500Y-88392000D01*
X187233500Y-83642336D01*
X190068336Y-80807500D01*
X192786000Y-80807500D01*
X193091190Y-80746794D01*
X193349918Y-80573918D01*
X197434336Y-76489500D01*
X197635091Y-76489500D01*
X197714171Y-76680887D01*
X198092896Y-77060273D01*
X197715728Y-77436783D01*
X197475474Y-78015379D01*
X197474927Y-78641873D01*
X197714171Y-79220887D01*
X198092896Y-79600273D01*
X197715728Y-79976783D01*
X197475474Y-80555379D01*
X197474927Y-81181873D01*
X197714171Y-81760887D01*
X198092896Y-82140273D01*
X197715728Y-82516783D01*
X197475474Y-83095379D01*
X197474927Y-83721873D01*
X197714171Y-84300887D01*
X198092896Y-84680273D01*
X197715728Y-85056783D01*
X197475474Y-85635379D01*
X197474927Y-86261873D01*
X197714171Y-86840887D01*
X198156783Y-87284272D01*
X198735379Y-87524526D01*
X199361873Y-87525073D01*
X199940887Y-87285829D01*
X200384272Y-86843217D01*
X200624526Y-86264621D01*
X200625073Y-85638127D01*
X200385829Y-85059113D01*
X200007104Y-84679727D01*
X200384272Y-84303217D01*
X200624526Y-83724621D01*
X200625073Y-83098127D01*
X200385829Y-82519113D01*
X200007104Y-82139727D01*
X200384272Y-81763217D01*
X200624526Y-81184621D01*
X200625073Y-80558127D01*
X200385829Y-79979113D01*
X200007104Y-79599727D01*
X200384272Y-79223217D01*
X200624526Y-78644621D01*
X200625073Y-78018127D01*
X200385829Y-77439113D01*
X200007104Y-77059727D01*
X200384272Y-76683217D01*
X200624526Y-76104621D01*
X200625073Y-75478127D01*
X200385829Y-74899113D01*
X199944885Y-74457399D01*
X199979363Y-74358968D01*
X199050000Y-73429605D01*
X198120637Y-74358968D01*
X198155313Y-74457964D01*
X197718015Y-74894500D01*
X197104000Y-74894500D01*
X196798810Y-74955206D01*
X196540082Y-75128082D01*
X192455664Y-79212500D01*
X189738000Y-79212500D01*
X189612316Y-79237500D01*
X180151980Y-79237500D01*
X178733519Y-77819039D01*
X180326096Y-77819039D01*
X180343633Y-77901819D01*
X180613500Y-78394896D01*
X181051517Y-78747166D01*
X181591000Y-78905000D01*
X181991000Y-78905000D01*
X181991000Y-77597000D01*
X182245000Y-77597000D01*
X182245000Y-78905000D01*
X182645000Y-78905000D01*
X183184483Y-78747166D01*
X183622500Y-78394896D01*
X183892367Y-77901819D01*
X183909904Y-77819039D01*
X183787915Y-77597000D01*
X182245000Y-77597000D01*
X181991000Y-77597000D01*
X180448085Y-77597000D01*
X180326096Y-77819039D01*
X178733519Y-77819039D01*
X176564999Y-75650519D01*
X176564999Y-72613030D01*
X176725069Y-72613170D01*
X177087229Y-72463529D01*
X177211775Y-72339200D01*
X178521412Y-72339200D01*
X180345106Y-74162894D01*
X180453515Y-74235331D01*
X180356283Y-74380849D01*
X180247050Y-74930000D01*
X180314682Y-75270010D01*
X179145798Y-75270010D01*
X179019200Y-75143412D01*
X179019200Y-74935626D01*
X179142555Y-74812486D01*
X179292828Y-74450588D01*
X179293170Y-74058731D01*
X179143529Y-73696571D01*
X178866686Y-73419245D01*
X178504788Y-73268972D01*
X178112931Y-73268630D01*
X177750771Y-73418271D01*
X177473445Y-73695114D01*
X177323172Y-74057012D01*
X177322830Y-74448869D01*
X177472471Y-74811029D01*
X177596800Y-74935575D01*
X177596800Y-75438000D01*
X177650937Y-75710165D01*
X177805106Y-75940894D01*
X178348316Y-76484104D01*
X178579045Y-76638273D01*
X178851210Y-76692410D01*
X180532878Y-76692410D01*
X180343633Y-77038181D01*
X180326096Y-77120961D01*
X180448085Y-77343000D01*
X181991000Y-77343000D01*
X181991000Y-77323000D01*
X182245000Y-77323000D01*
X182245000Y-77343000D01*
X183787915Y-77343000D01*
X183909904Y-77120961D01*
X183892367Y-77038181D01*
X183683851Y-76657200D01*
X186567012Y-76657200D01*
X187882705Y-77972894D01*
X187951934Y-78019151D01*
X187995922Y-78048542D01*
X188287352Y-78484698D01*
X188752899Y-78795767D01*
X189302050Y-78905000D01*
X190173950Y-78905000D01*
X190723101Y-78795767D01*
X191188648Y-78484698D01*
X191499717Y-78019151D01*
X191608950Y-77470000D01*
X191499717Y-76920849D01*
X191188648Y-76455302D01*
X190806562Y-76200000D01*
X191188648Y-75944698D01*
X191499717Y-75479151D01*
X191608950Y-74930000D01*
X191499717Y-74380849D01*
X191188648Y-73915302D01*
X190806562Y-73660000D01*
X191188648Y-73404698D01*
X191459170Y-72999833D01*
X197463955Y-72999833D01*
X197488951Y-73625828D01*
X197680420Y-74088077D01*
X197941032Y-74179363D01*
X198870395Y-73250000D01*
X199229605Y-73250000D01*
X200158968Y-74179363D01*
X200419580Y-74088077D01*
X200636045Y-73500167D01*
X200611049Y-72874172D01*
X200419580Y-72411923D01*
X200158968Y-72320637D01*
X199229605Y-73250000D01*
X198870395Y-73250000D01*
X197941032Y-72320637D01*
X197680420Y-72411923D01*
X197463955Y-72999833D01*
X191459170Y-72999833D01*
X191499717Y-72939151D01*
X191608950Y-72390000D01*
X191499717Y-71840849D01*
X191485097Y-71818968D01*
X198120637Y-71818968D01*
X198177043Y-71980000D01*
X198120637Y-72141032D01*
X199050000Y-73070395D01*
X199979363Y-72141032D01*
X199922957Y-71980000D01*
X199979363Y-71818968D01*
X199050000Y-70889605D01*
X198120637Y-71818968D01*
X191485097Y-71818968D01*
X191188648Y-71375302D01*
X190806562Y-71120000D01*
X191188648Y-70864698D01*
X191459170Y-70459833D01*
X197463955Y-70459833D01*
X197488951Y-71085828D01*
X197680420Y-71548077D01*
X197941032Y-71639363D01*
X198870395Y-70710000D01*
X199229605Y-70710000D01*
X200158968Y-71639363D01*
X200419580Y-71548077D01*
X200636045Y-70960167D01*
X200611049Y-70334172D01*
X200419580Y-69871923D01*
X200158968Y-69780637D01*
X199229605Y-70710000D01*
X198870395Y-70710000D01*
X197941032Y-69780637D01*
X197680420Y-69871923D01*
X197463955Y-70459833D01*
X191459170Y-70459833D01*
X191499717Y-70399151D01*
X191608950Y-69850000D01*
X191499717Y-69300849D01*
X191188648Y-68835302D01*
X190806562Y-68580000D01*
X190953419Y-68481873D01*
X197474927Y-68481873D01*
X197714171Y-69060887D01*
X198155115Y-69502601D01*
X198120637Y-69601032D01*
X199050000Y-70530395D01*
X199979363Y-69601032D01*
X199944687Y-69502036D01*
X200384272Y-69063217D01*
X200624526Y-68484621D01*
X200625073Y-67858127D01*
X200385829Y-67279113D01*
X199943217Y-66835728D01*
X199364621Y-66595474D01*
X198738127Y-66594927D01*
X198159113Y-66834171D01*
X197715728Y-67276783D01*
X197475474Y-67855379D01*
X197474927Y-68481873D01*
X190953419Y-68481873D01*
X191188648Y-68324698D01*
X191499717Y-67859151D01*
X191608950Y-67310000D01*
X191499717Y-66760849D01*
X191188648Y-66295302D01*
X190806562Y-66040000D01*
X191188648Y-65784698D01*
X191499717Y-65319151D01*
X191608950Y-64770000D01*
X191499717Y-64220849D01*
X191188648Y-63755302D01*
X190806562Y-63500000D01*
X191188648Y-63244698D01*
X191499717Y-62779151D01*
X191608950Y-62230000D01*
X191499717Y-61680849D01*
X191188648Y-61215302D01*
X190806562Y-60960000D01*
X191188648Y-60704698D01*
X191499717Y-60239151D01*
X191608950Y-59690000D01*
X191531775Y-59302014D01*
X192272895Y-58560894D01*
X192427063Y-58330164D01*
X192481200Y-58058000D01*
X192481200Y-55783998D01*
X192427063Y-55511834D01*
X192427063Y-55511833D01*
X192272894Y-55281103D01*
X190497201Y-53505411D01*
X190497201Y-43353321D01*
X190884833Y-43496045D01*
X191510828Y-43471049D01*
X191973077Y-43279580D01*
X192064363Y-43018968D01*
X191135000Y-42089605D01*
X191120858Y-42103748D01*
X190941253Y-41924143D01*
X190955395Y-41910000D01*
X191314605Y-41910000D01*
X192243968Y-42839363D01*
X192504580Y-42748077D01*
X192721045Y-42160167D01*
X192696049Y-41534172D01*
X192504580Y-41071923D01*
X192243968Y-40980637D01*
X191314605Y-41910000D01*
X190955395Y-41910000D01*
X190941253Y-41895858D01*
X191120858Y-41716253D01*
X191135000Y-41730395D01*
X192064363Y-40801032D01*
X192029687Y-40702036D01*
X192469272Y-40263217D01*
X192709526Y-39684621D01*
X192710073Y-39058127D01*
X192470829Y-38479113D01*
X192028217Y-38035728D01*
X191449621Y-37795474D01*
X190823127Y-37794927D01*
X190244113Y-38034171D01*
X189864727Y-38412896D01*
X189488217Y-38035728D01*
X188909621Y-37795474D01*
X188283127Y-37794927D01*
X187704113Y-38034171D01*
X187324727Y-38412896D01*
X186948217Y-38035728D01*
X186369621Y-37795474D01*
X185743127Y-37794927D01*
X185164113Y-38034171D01*
X184784727Y-38412896D01*
X184408217Y-38035728D01*
X183829621Y-37795474D01*
X183203127Y-37794927D01*
X182624113Y-38034171D01*
X182244727Y-38412896D01*
X181868217Y-38035728D01*
X181289621Y-37795474D01*
X180663127Y-37794927D01*
X180480978Y-37870189D01*
X179388788Y-36778000D01*
X195505000Y-36778000D01*
X195505000Y-45720000D01*
G36*
X154593748Y-107935858D02*
X154579605Y-107950000D01*
X154593748Y-107964143D01*
X154414143Y-108143748D01*
X154400000Y-108129605D01*
X154385858Y-108143748D01*
X154206253Y-107964143D01*
X154220395Y-107950000D01*
X154206253Y-107935858D01*
X154385858Y-107756253D01*
X154400000Y-107770395D01*
X154414143Y-107756253D01*
X154593748Y-107935858D01*
X154593748Y-107935858D01*
G37*
X154593748Y-107935858D02*
X154579605Y-107950000D01*
X154593748Y-107964143D01*
X154414143Y-108143748D01*
X154400000Y-108129605D01*
X154385858Y-108143748D01*
X154206253Y-107964143D01*
X154220395Y-107950000D01*
X154206253Y-107935858D01*
X154385858Y-107756253D01*
X154400000Y-107770395D01*
X154414143Y-107756253D01*
X154593748Y-107935858D01*
G36*
X162001314Y-75256555D02*
X162350976Y-75401747D01*
X162350976Y-79987235D01*
X152364836Y-89973376D01*
X152365073Y-89702127D01*
X152125829Y-89123113D01*
X151684885Y-88681399D01*
X151719363Y-88582968D01*
X150790000Y-87653605D01*
X149860637Y-88582968D01*
X149895313Y-88681964D01*
X149455728Y-89120783D01*
X149215474Y-89699379D01*
X149214927Y-90325873D01*
X149454171Y-90904887D01*
X149832896Y-91284273D01*
X149455728Y-91660783D01*
X149215474Y-92239379D01*
X149214927Y-92865873D01*
X149454171Y-93444887D01*
X149832896Y-93824273D01*
X149455728Y-94200783D01*
X149215474Y-94779379D01*
X149214927Y-95405873D01*
X149454171Y-95984887D01*
X149896783Y-96428272D01*
X150273370Y-96584645D01*
X149635628Y-96848155D01*
X149046000Y-97436754D01*
X149046000Y-87223833D01*
X149203955Y-87223833D01*
X149228951Y-87849828D01*
X149420420Y-88312077D01*
X149681032Y-88403363D01*
X150610395Y-87474000D01*
X150969605Y-87474000D01*
X151898968Y-88403363D01*
X152159580Y-88312077D01*
X152376045Y-87724167D01*
X152351049Y-87098172D01*
X152159580Y-86635923D01*
X151898968Y-86544637D01*
X150969605Y-87474000D01*
X150610395Y-87474000D01*
X149681032Y-86544637D01*
X149420420Y-86635923D01*
X149203955Y-87223833D01*
X149046000Y-87223833D01*
X149046000Y-76391788D01*
X149344019Y-76689808D01*
X149215474Y-76999379D01*
X149214927Y-77625873D01*
X149454171Y-78204887D01*
X149832896Y-78584273D01*
X149455728Y-78960783D01*
X149215474Y-79539379D01*
X149214927Y-80165873D01*
X149454171Y-80744887D01*
X149832896Y-81124273D01*
X149455728Y-81500783D01*
X149215474Y-82079379D01*
X149214927Y-82705873D01*
X149454171Y-83284887D01*
X149832896Y-83664273D01*
X149455728Y-84040783D01*
X149215474Y-84619379D01*
X149214927Y-85245873D01*
X149454171Y-85824887D01*
X149895115Y-86266601D01*
X149860637Y-86365032D01*
X150790000Y-87294395D01*
X151719363Y-86365032D01*
X151684687Y-86266036D01*
X152124272Y-85827217D01*
X152364526Y-85248621D01*
X152365073Y-84622127D01*
X152125829Y-84043113D01*
X151747104Y-83663727D01*
X152124272Y-83287217D01*
X152364526Y-82708621D01*
X152365073Y-82082127D01*
X152125829Y-81503113D01*
X151747104Y-81123727D01*
X152124272Y-80747217D01*
X152364526Y-80168621D01*
X152365073Y-79542127D01*
X152125829Y-78963113D01*
X151747104Y-78583727D01*
X152124272Y-78207217D01*
X152364526Y-77628621D01*
X152365073Y-77002127D01*
X152125829Y-76423113D01*
X151747104Y-76043727D01*
X152124272Y-75667217D01*
X152346015Y-75133200D01*
X161878174Y-75133200D01*
X162001314Y-75256555D01*
X162001314Y-75256555D01*
G37*
X162001314Y-75256555D02*
X162350976Y-75401747D01*
X162350976Y-79987235D01*
X152364836Y-89973376D01*
X152365073Y-89702127D01*
X152125829Y-89123113D01*
X151684885Y-88681399D01*
X151719363Y-88582968D01*
X150790000Y-87653605D01*
X149860637Y-88582968D01*
X149895313Y-88681964D01*
X149455728Y-89120783D01*
X149215474Y-89699379D01*
X149214927Y-90325873D01*
X149454171Y-90904887D01*
X149832896Y-91284273D01*
X149455728Y-91660783D01*
X149215474Y-92239379D01*
X149214927Y-92865873D01*
X149454171Y-93444887D01*
X149832896Y-93824273D01*
X149455728Y-94200783D01*
X149215474Y-94779379D01*
X149214927Y-95405873D01*
X149454171Y-95984887D01*
X149896783Y-96428272D01*
X150273370Y-96584645D01*
X149635628Y-96848155D01*
X149046000Y-97436754D01*
X149046000Y-87223833D01*
X149203955Y-87223833D01*
X149228951Y-87849828D01*
X149420420Y-88312077D01*
X149681032Y-88403363D01*
X150610395Y-87474000D01*
X150969605Y-87474000D01*
X151898968Y-88403363D01*
X152159580Y-88312077D01*
X152376045Y-87724167D01*
X152351049Y-87098172D01*
X152159580Y-86635923D01*
X151898968Y-86544637D01*
X150969605Y-87474000D01*
X150610395Y-87474000D01*
X149681032Y-86544637D01*
X149420420Y-86635923D01*
X149203955Y-87223833D01*
X149046000Y-87223833D01*
X149046000Y-76391788D01*
X149344019Y-76689808D01*
X149215474Y-76999379D01*
X149214927Y-77625873D01*
X149454171Y-78204887D01*
X149832896Y-78584273D01*
X149455728Y-78960783D01*
X149215474Y-79539379D01*
X149214927Y-80165873D01*
X149454171Y-80744887D01*
X149832896Y-81124273D01*
X149455728Y-81500783D01*
X149215474Y-82079379D01*
X149214927Y-82705873D01*
X149454171Y-83284887D01*
X149832896Y-83664273D01*
X149455728Y-84040783D01*
X149215474Y-84619379D01*
X149214927Y-85245873D01*
X149454171Y-85824887D01*
X149895115Y-86266601D01*
X149860637Y-86365032D01*
X150790000Y-87294395D01*
X151719363Y-86365032D01*
X151684687Y-86266036D01*
X152124272Y-85827217D01*
X152364526Y-85248621D01*
X152365073Y-84622127D01*
X152125829Y-84043113D01*
X151747104Y-83663727D01*
X152124272Y-83287217D01*
X152364526Y-82708621D01*
X152365073Y-82082127D01*
X152125829Y-81503113D01*
X151747104Y-81123727D01*
X152124272Y-80747217D01*
X152364526Y-80168621D01*
X152365073Y-79542127D01*
X152125829Y-78963113D01*
X151747104Y-78583727D01*
X152124272Y-78207217D01*
X152364526Y-77628621D01*
X152365073Y-77002127D01*
X152125829Y-76423113D01*
X151747104Y-76043727D01*
X152124272Y-75667217D01*
X152346015Y-75133200D01*
X161878174Y-75133200D01*
X162001314Y-75256555D01*
G36*
X178612800Y-39410588D02*
X178612800Y-40259000D01*
X178666937Y-40531165D01*
X178821106Y-40761894D01*
X179475033Y-41415821D01*
X179400474Y-41595379D01*
X179399927Y-42221873D01*
X179639171Y-42800887D01*
X180081783Y-43244272D01*
X180660379Y-43484526D01*
X181286873Y-43485073D01*
X181612799Y-43350403D01*
X181612799Y-43385999D01*
X181666936Y-43658164D01*
X181821105Y-43888893D01*
X184923156Y-46990945D01*
X184923156Y-60378472D01*
X184977293Y-60650637D01*
X185131462Y-60881366D01*
X185356875Y-61106780D01*
X185425106Y-61208894D01*
X186232800Y-62016588D01*
X186232800Y-69996000D01*
X186286937Y-70268165D01*
X186441106Y-70498894D01*
X187944225Y-72002014D01*
X187867050Y-72390000D01*
X187976283Y-72939151D01*
X188287352Y-73404698D01*
X188669438Y-73660000D01*
X188340907Y-73879518D01*
X187618494Y-73157106D01*
X187387765Y-73002937D01*
X187115600Y-72948800D01*
X183873270Y-72948800D01*
X183879717Y-72939151D01*
X183988950Y-72390000D01*
X183879717Y-71840849D01*
X183568648Y-71375302D01*
X183186562Y-71120000D01*
X183568648Y-70864698D01*
X183879717Y-70399151D01*
X183988950Y-69850000D01*
X183879717Y-69300849D01*
X183568648Y-68835302D01*
X183186562Y-68580000D01*
X183568648Y-68324698D01*
X183879717Y-67859151D01*
X183988950Y-67310000D01*
X183879717Y-66760849D01*
X183568648Y-66295302D01*
X183186562Y-66040000D01*
X183568648Y-65784698D01*
X183879717Y-65319151D01*
X183988950Y-64770000D01*
X183879717Y-64220849D01*
X183568648Y-63755302D01*
X183186562Y-63500000D01*
X183568648Y-63244698D01*
X183879717Y-62779151D01*
X183988950Y-62230000D01*
X183879717Y-61680849D01*
X183568648Y-61215302D01*
X183186562Y-60960000D01*
X183568648Y-60704698D01*
X183879717Y-60239151D01*
X183988950Y-59690000D01*
X183879717Y-59140849D01*
X183568648Y-58675302D01*
X183422650Y-58577749D01*
X183553317Y-58553162D01*
X183769441Y-58414090D01*
X183914431Y-58201890D01*
X183965440Y-57950000D01*
X183965440Y-56350000D01*
X183921162Y-56114683D01*
X183782090Y-55898559D01*
X183569890Y-55753569D01*
X183318000Y-55702560D01*
X180918000Y-55702560D01*
X180682683Y-55746838D01*
X180466559Y-55885910D01*
X180321569Y-56098110D01*
X180270560Y-56350000D01*
X180270560Y-56438800D01*
X172195961Y-56438800D01*
X174216394Y-54418367D01*
X174370563Y-54187638D01*
X174424700Y-53915473D01*
X174424700Y-51673074D01*
X174604387Y-51598829D01*
X174983773Y-51220104D01*
X175360283Y-51597272D01*
X175938879Y-51837526D01*
X176565373Y-51838073D01*
X177144387Y-51598829D01*
X177587772Y-51156217D01*
X177828026Y-50577621D01*
X177828573Y-49951127D01*
X177589329Y-49372113D01*
X177148385Y-48930399D01*
X177182863Y-48831968D01*
X176253500Y-47902605D01*
X175324137Y-48831968D01*
X175358813Y-48930964D01*
X174983227Y-49305896D01*
X174670604Y-48992727D01*
X175046101Y-48617885D01*
X175144532Y-48652363D01*
X176073895Y-47723000D01*
X176433105Y-47723000D01*
X177362468Y-48652363D01*
X177623080Y-48561077D01*
X177839545Y-47973167D01*
X177814549Y-47347172D01*
X177623080Y-46884923D01*
X177362468Y-46793637D01*
X176433105Y-47723000D01*
X176073895Y-47723000D01*
X175144532Y-46793637D01*
X175045536Y-46828313D01*
X174831629Y-46614032D01*
X175324137Y-46614032D01*
X176253500Y-47543395D01*
X177182863Y-46614032D01*
X177091577Y-46353420D01*
X176503667Y-46136955D01*
X175877672Y-46161951D01*
X175415423Y-46353420D01*
X175324137Y-46614032D01*
X174831629Y-46614032D01*
X174606717Y-46388728D01*
X174028121Y-46148474D01*
X173858332Y-46148326D01*
X174979680Y-45026977D01*
X175220873Y-45027188D01*
X175619800Y-44862354D01*
X175787219Y-44695227D01*
X175851325Y-44850375D01*
X176128168Y-45127701D01*
X176490066Y-45277974D01*
X176881923Y-45278316D01*
X177175423Y-45157045D01*
X177218471Y-45261229D01*
X177495314Y-45538555D01*
X177857212Y-45688828D01*
X178249069Y-45689170D01*
X178611229Y-45539529D01*
X178888555Y-45262686D01*
X179038828Y-44900788D01*
X179039170Y-44508931D01*
X178889529Y-44146771D01*
X178612686Y-43869445D01*
X178250788Y-43719172D01*
X178074806Y-43719018D01*
X174492894Y-40137106D01*
X174262165Y-39982937D01*
X173990000Y-39928800D01*
X171018134Y-39928800D01*
X171119526Y-39684621D01*
X171120073Y-39058127D01*
X170996227Y-38758398D01*
X171062211Y-38758398D01*
X171510706Y-39206893D01*
X171741435Y-39361062D01*
X172013600Y-39415199D01*
X172878001Y-39415199D01*
X173150166Y-39361062D01*
X173183243Y-39338961D01*
X173423069Y-39339170D01*
X173785229Y-39189529D01*
X174062555Y-38912686D01*
X174212828Y-38550788D01*
X174213170Y-38158931D01*
X174093213Y-37868611D01*
X177070823Y-37868611D01*
X178612800Y-39410588D01*
X178612800Y-39410588D01*
G37*
X178612800Y-39410588D02*
X178612800Y-40259000D01*
X178666937Y-40531165D01*
X178821106Y-40761894D01*
X179475033Y-41415821D01*
X179400474Y-41595379D01*
X179399927Y-42221873D01*
X179639171Y-42800887D01*
X180081783Y-43244272D01*
X180660379Y-43484526D01*
X181286873Y-43485073D01*
X181612799Y-43350403D01*
X181612799Y-43385999D01*
X181666936Y-43658164D01*
X181821105Y-43888893D01*
X184923156Y-46990945D01*
X184923156Y-60378472D01*
X184977293Y-60650637D01*
X185131462Y-60881366D01*
X185356875Y-61106780D01*
X185425106Y-61208894D01*
X186232800Y-62016588D01*
X186232800Y-69996000D01*
X186286937Y-70268165D01*
X186441106Y-70498894D01*
X187944225Y-72002014D01*
X187867050Y-72390000D01*
X187976283Y-72939151D01*
X188287352Y-73404698D01*
X188669438Y-73660000D01*
X188340907Y-73879518D01*
X187618494Y-73157106D01*
X187387765Y-73002937D01*
X187115600Y-72948800D01*
X183873270Y-72948800D01*
X183879717Y-72939151D01*
X183988950Y-72390000D01*
X183879717Y-71840849D01*
X183568648Y-71375302D01*
X183186562Y-71120000D01*
X183568648Y-70864698D01*
X183879717Y-70399151D01*
X183988950Y-69850000D01*
X183879717Y-69300849D01*
X183568648Y-68835302D01*
X183186562Y-68580000D01*
X183568648Y-68324698D01*
X183879717Y-67859151D01*
X183988950Y-67310000D01*
X183879717Y-66760849D01*
X183568648Y-66295302D01*
X183186562Y-66040000D01*
X183568648Y-65784698D01*
X183879717Y-65319151D01*
X183988950Y-64770000D01*
X183879717Y-64220849D01*
X183568648Y-63755302D01*
X183186562Y-63500000D01*
X183568648Y-63244698D01*
X183879717Y-62779151D01*
X183988950Y-62230000D01*
X183879717Y-61680849D01*
X183568648Y-61215302D01*
X183186562Y-60960000D01*
X183568648Y-60704698D01*
X183879717Y-60239151D01*
X183988950Y-59690000D01*
X183879717Y-59140849D01*
X183568648Y-58675302D01*
X183422650Y-58577749D01*
X183553317Y-58553162D01*
X183769441Y-58414090D01*
X183914431Y-58201890D01*
X183965440Y-57950000D01*
X183965440Y-56350000D01*
X183921162Y-56114683D01*
X183782090Y-55898559D01*
X183569890Y-55753569D01*
X183318000Y-55702560D01*
X180918000Y-55702560D01*
X180682683Y-55746838D01*
X180466559Y-55885910D01*
X180321569Y-56098110D01*
X180270560Y-56350000D01*
X180270560Y-56438800D01*
X172195961Y-56438800D01*
X174216394Y-54418367D01*
X174370563Y-54187638D01*
X174424700Y-53915473D01*
X174424700Y-51673074D01*
X174604387Y-51598829D01*
X174983773Y-51220104D01*
X175360283Y-51597272D01*
X175938879Y-51837526D01*
X176565373Y-51838073D01*
X177144387Y-51598829D01*
X177587772Y-51156217D01*
X177828026Y-50577621D01*
X177828573Y-49951127D01*
X177589329Y-49372113D01*
X177148385Y-48930399D01*
X177182863Y-48831968D01*
X176253500Y-47902605D01*
X175324137Y-48831968D01*
X175358813Y-48930964D01*
X174983227Y-49305896D01*
X174670604Y-48992727D01*
X175046101Y-48617885D01*
X175144532Y-48652363D01*
X176073895Y-47723000D01*
X176433105Y-47723000D01*
X177362468Y-48652363D01*
X177623080Y-48561077D01*
X177839545Y-47973167D01*
X177814549Y-47347172D01*
X177623080Y-46884923D01*
X177362468Y-46793637D01*
X176433105Y-47723000D01*
X176073895Y-47723000D01*
X175144532Y-46793637D01*
X175045536Y-46828313D01*
X174831629Y-46614032D01*
X175324137Y-46614032D01*
X176253500Y-47543395D01*
X177182863Y-46614032D01*
X177091577Y-46353420D01*
X176503667Y-46136955D01*
X175877672Y-46161951D01*
X175415423Y-46353420D01*
X175324137Y-46614032D01*
X174831629Y-46614032D01*
X174606717Y-46388728D01*
X174028121Y-46148474D01*
X173858332Y-46148326D01*
X174979680Y-45026977D01*
X175220873Y-45027188D01*
X175619800Y-44862354D01*
X175787219Y-44695227D01*
X175851325Y-44850375D01*
X176128168Y-45127701D01*
X176490066Y-45277974D01*
X176881923Y-45278316D01*
X177175423Y-45157045D01*
X177218471Y-45261229D01*
X177495314Y-45538555D01*
X177857212Y-45688828D01*
X178249069Y-45689170D01*
X178611229Y-45539529D01*
X178888555Y-45262686D01*
X179038828Y-44900788D01*
X179039170Y-44508931D01*
X178889529Y-44146771D01*
X178612686Y-43869445D01*
X178250788Y-43719172D01*
X178074806Y-43719018D01*
X174492894Y-40137106D01*
X174262165Y-39982937D01*
X173990000Y-39928800D01*
X171018134Y-39928800D01*
X171119526Y-39684621D01*
X171120073Y-39058127D01*
X170996227Y-38758398D01*
X171062211Y-38758398D01*
X171510706Y-39206893D01*
X171741435Y-39361062D01*
X172013600Y-39415199D01*
X172878001Y-39415199D01*
X173150166Y-39361062D01*
X173183243Y-39338961D01*
X173423069Y-39339170D01*
X173785229Y-39189529D01*
X174062555Y-38912686D01*
X174212828Y-38550788D01*
X174213170Y-38158931D01*
X174093213Y-37868611D01*
X177070823Y-37868611D01*
X178612800Y-39410588D01*
G36*
X174541973Y-42959761D02*
X174392200Y-43021646D01*
X174086718Y-43326595D01*
X173921189Y-43725233D01*
X173921067Y-43865276D01*
X171593932Y-46192410D01*
X171488121Y-46148474D01*
X170861627Y-46147927D01*
X170282613Y-46387171D01*
X169839228Y-46829783D01*
X169598974Y-47408379D01*
X169598427Y-48034873D01*
X169837671Y-48613887D01*
X170216396Y-48993273D01*
X169839228Y-49369783D01*
X169598974Y-49948379D01*
X169598427Y-50574873D01*
X169673690Y-50757022D01*
X162271485Y-58159227D01*
X162117316Y-58389956D01*
X162092862Y-58512894D01*
X162063179Y-58662121D01*
X162063179Y-65866174D01*
X161939824Y-65989314D01*
X161789551Y-66351212D01*
X161789209Y-66743069D01*
X161938850Y-67105229D01*
X162215693Y-67382555D01*
X162577591Y-67532828D01*
X162664389Y-67532904D01*
X162664389Y-68356870D01*
X162618931Y-68356830D01*
X162256771Y-68506471D01*
X161979445Y-68783314D01*
X161829172Y-69145212D01*
X161828830Y-69537069D01*
X161978471Y-69899229D01*
X162255314Y-70176555D01*
X162617212Y-70326828D01*
X162991800Y-70327155D01*
X162991800Y-70825412D01*
X162920230Y-70896982D01*
X162745931Y-70896830D01*
X162383771Y-71046471D01*
X162106445Y-71323314D01*
X161956172Y-71685212D01*
X161955830Y-72077069D01*
X162105471Y-72439229D01*
X162293485Y-72627571D01*
X162210172Y-72828212D01*
X162209830Y-73220069D01*
X162308951Y-73459960D01*
X162002771Y-73586471D01*
X161878225Y-73710800D01*
X152592988Y-73710800D01*
X154472589Y-71831200D01*
X155956000Y-71831200D01*
X156228165Y-71777063D01*
X156458894Y-71622894D01*
X156758848Y-71322940D01*
X157353000Y-71322940D01*
X157588317Y-71278662D01*
X157804441Y-71139590D01*
X157949431Y-70927390D01*
X158000440Y-70675500D01*
X158000440Y-70040500D01*
X157963279Y-69843007D01*
X158000440Y-69659500D01*
X158000440Y-69382848D01*
X159252894Y-68130394D01*
X159407063Y-67899665D01*
X159422291Y-67823106D01*
X159461200Y-67627500D01*
X159461200Y-55118000D01*
X159407063Y-54845836D01*
X159385081Y-54812937D01*
X159252895Y-54615106D01*
X157683200Y-53045412D01*
X157683200Y-48586619D01*
X163904613Y-48586619D01*
X164020500Y-48867086D01*
X164020500Y-48958500D01*
X164029834Y-49006289D01*
X164057697Y-49048303D01*
X164121909Y-49112515D01*
X164244155Y-49408372D01*
X164872321Y-50037636D01*
X165171089Y-50161695D01*
X165200697Y-50191303D01*
X165241090Y-50218494D01*
X165290500Y-50228500D01*
X165331973Y-50228500D01*
X165693481Y-50378611D01*
X166582619Y-50379387D01*
X167404372Y-50039845D01*
X168033636Y-49411679D01*
X168374611Y-48590519D01*
X168375387Y-47701381D01*
X168035845Y-46879628D01*
X167407679Y-46250364D01*
X166586519Y-45909389D01*
X165697381Y-45908613D01*
X164875628Y-46248155D01*
X164246364Y-46876321D01*
X164042509Y-47367260D01*
X164030506Y-47385090D01*
X164026128Y-47406709D01*
X163905389Y-47697481D01*
X163904613Y-48586619D01*
X157683200Y-48586619D01*
X157683200Y-47570441D01*
X157683314Y-47570555D01*
X158045212Y-47720828D01*
X158437069Y-47721170D01*
X158799229Y-47571529D01*
X158923775Y-47447200D01*
X160820100Y-47447200D01*
X161092265Y-47393063D01*
X161322994Y-47238894D01*
X162804665Y-45757223D01*
X162879610Y-45808431D01*
X163131500Y-45859440D01*
X163766500Y-45859440D01*
X163963993Y-45822279D01*
X164147500Y-45859440D01*
X164782500Y-45859440D01*
X164979993Y-45822279D01*
X165163500Y-45859440D01*
X165798500Y-45859440D01*
X166033817Y-45815162D01*
X166249941Y-45676090D01*
X166394931Y-45463890D01*
X166430509Y-45288200D01*
X169291000Y-45288200D01*
X169563165Y-45234063D01*
X169793894Y-45079894D01*
X171444895Y-43428894D01*
X171599063Y-43198164D01*
X171653200Y-42926000D01*
X171653200Y-42875200D01*
X174457412Y-42875200D01*
X174541973Y-42959761D01*
X174541973Y-42959761D01*
G37*
X174541973Y-42959761D02*
X174392200Y-43021646D01*
X174086718Y-43326595D01*
X173921189Y-43725233D01*
X173921067Y-43865276D01*
X171593932Y-46192410D01*
X171488121Y-46148474D01*
X170861627Y-46147927D01*
X170282613Y-46387171D01*
X169839228Y-46829783D01*
X169598974Y-47408379D01*
X169598427Y-48034873D01*
X169837671Y-48613887D01*
X170216396Y-48993273D01*
X169839228Y-49369783D01*
X169598974Y-49948379D01*
X169598427Y-50574873D01*
X169673690Y-50757022D01*
X162271485Y-58159227D01*
X162117316Y-58389956D01*
X162092862Y-58512894D01*
X162063179Y-58662121D01*
X162063179Y-65866174D01*
X161939824Y-65989314D01*
X161789551Y-66351212D01*
X161789209Y-66743069D01*
X161938850Y-67105229D01*
X162215693Y-67382555D01*
X162577591Y-67532828D01*
X162664389Y-67532904D01*
X162664389Y-68356870D01*
X162618931Y-68356830D01*
X162256771Y-68506471D01*
X161979445Y-68783314D01*
X161829172Y-69145212D01*
X161828830Y-69537069D01*
X161978471Y-69899229D01*
X162255314Y-70176555D01*
X162617212Y-70326828D01*
X162991800Y-70327155D01*
X162991800Y-70825412D01*
X162920230Y-70896982D01*
X162745931Y-70896830D01*
X162383771Y-71046471D01*
X162106445Y-71323314D01*
X161956172Y-71685212D01*
X161955830Y-72077069D01*
X162105471Y-72439229D01*
X162293485Y-72627571D01*
X162210172Y-72828212D01*
X162209830Y-73220069D01*
X162308951Y-73459960D01*
X162002771Y-73586471D01*
X161878225Y-73710800D01*
X152592988Y-73710800D01*
X154472589Y-71831200D01*
X155956000Y-71831200D01*
X156228165Y-71777063D01*
X156458894Y-71622894D01*
X156758848Y-71322940D01*
X157353000Y-71322940D01*
X157588317Y-71278662D01*
X157804441Y-71139590D01*
X157949431Y-70927390D01*
X158000440Y-70675500D01*
X158000440Y-70040500D01*
X157963279Y-69843007D01*
X158000440Y-69659500D01*
X158000440Y-69382848D01*
X159252894Y-68130394D01*
X159407063Y-67899665D01*
X159422291Y-67823106D01*
X159461200Y-67627500D01*
X159461200Y-55118000D01*
X159407063Y-54845836D01*
X159385081Y-54812937D01*
X159252895Y-54615106D01*
X157683200Y-53045412D01*
X157683200Y-48586619D01*
X163904613Y-48586619D01*
X164020500Y-48867086D01*
X164020500Y-48958500D01*
X164029834Y-49006289D01*
X164057697Y-49048303D01*
X164121909Y-49112515D01*
X164244155Y-49408372D01*
X164872321Y-50037636D01*
X165171089Y-50161695D01*
X165200697Y-50191303D01*
X165241090Y-50218494D01*
X165290500Y-50228500D01*
X165331973Y-50228500D01*
X165693481Y-50378611D01*
X166582619Y-50379387D01*
X167404372Y-50039845D01*
X168033636Y-49411679D01*
X168374611Y-48590519D01*
X168375387Y-47701381D01*
X168035845Y-46879628D01*
X167407679Y-46250364D01*
X166586519Y-45909389D01*
X165697381Y-45908613D01*
X164875628Y-46248155D01*
X164246364Y-46876321D01*
X164042509Y-47367260D01*
X164030506Y-47385090D01*
X164026128Y-47406709D01*
X163905389Y-47697481D01*
X163904613Y-48586619D01*
X157683200Y-48586619D01*
X157683200Y-47570441D01*
X157683314Y-47570555D01*
X158045212Y-47720828D01*
X158437069Y-47721170D01*
X158799229Y-47571529D01*
X158923775Y-47447200D01*
X160820100Y-47447200D01*
X161092265Y-47393063D01*
X161322994Y-47238894D01*
X162804665Y-45757223D01*
X162879610Y-45808431D01*
X163131500Y-45859440D01*
X163766500Y-45859440D01*
X163963993Y-45822279D01*
X164147500Y-45859440D01*
X164782500Y-45859440D01*
X164979993Y-45822279D01*
X165163500Y-45859440D01*
X165798500Y-45859440D01*
X166033817Y-45815162D01*
X166249941Y-45676090D01*
X166394931Y-45463890D01*
X166430509Y-45288200D01*
X169291000Y-45288200D01*
X169563165Y-45234063D01*
X169793894Y-45079894D01*
X171444895Y-43428894D01*
X171599063Y-43198164D01*
X171653200Y-42926000D01*
X171653200Y-42875200D01*
X174457412Y-42875200D01*
X174541973Y-42959761D01*
G36*
X153332910Y-58477741D02*
X153545110Y-58622731D01*
X153797000Y-58673740D01*
X155067000Y-58673740D01*
X155302317Y-58629462D01*
X155312048Y-58623200D01*
X156089755Y-58623200D01*
X156126910Y-58680941D01*
X156339110Y-58825931D01*
X156591000Y-58876940D01*
X157861000Y-58876940D01*
X158038800Y-58843485D01*
X158038800Y-67332912D01*
X157815642Y-67556070D01*
X157604890Y-67412069D01*
X157353000Y-67361060D01*
X156083000Y-67361060D01*
X155847683Y-67405338D01*
X155631559Y-67544410D01*
X155583464Y-67614800D01*
X155314245Y-67614800D01*
X155277090Y-67557059D01*
X155064890Y-67412069D01*
X154813000Y-67361060D01*
X153543000Y-67361060D01*
X153307683Y-67405338D01*
X153091559Y-67544410D01*
X153043464Y-67614800D01*
X152264532Y-67614800D01*
X152125829Y-67279113D01*
X151747104Y-66899727D01*
X152124272Y-66523217D01*
X152364526Y-65944621D01*
X152365073Y-65318127D01*
X152125829Y-64739113D01*
X151747104Y-64359727D01*
X152124272Y-63983217D01*
X152364526Y-63404621D01*
X152365073Y-62778127D01*
X152125829Y-62199113D01*
X151747104Y-61819727D01*
X152124272Y-61443217D01*
X152364526Y-60864621D01*
X152365073Y-60238127D01*
X152125829Y-59659113D01*
X151747104Y-59279727D01*
X152124272Y-58903217D01*
X152324921Y-58420000D01*
X153295755Y-58420000D01*
X153332910Y-58477741D01*
X153332910Y-58477741D01*
G37*
X153332910Y-58477741D02*
X153545110Y-58622731D01*
X153797000Y-58673740D01*
X155067000Y-58673740D01*
X155302317Y-58629462D01*
X155312048Y-58623200D01*
X156089755Y-58623200D01*
X156126910Y-58680941D01*
X156339110Y-58825931D01*
X156591000Y-58876940D01*
X157861000Y-58876940D01*
X158038800Y-58843485D01*
X158038800Y-67332912D01*
X157815642Y-67556070D01*
X157604890Y-67412069D01*
X157353000Y-67361060D01*
X156083000Y-67361060D01*
X155847683Y-67405338D01*
X155631559Y-67544410D01*
X155583464Y-67614800D01*
X155314245Y-67614800D01*
X155277090Y-67557059D01*
X155064890Y-67412069D01*
X154813000Y-67361060D01*
X153543000Y-67361060D01*
X153307683Y-67405338D01*
X153091559Y-67544410D01*
X153043464Y-67614800D01*
X152264532Y-67614800D01*
X152125829Y-67279113D01*
X151747104Y-66899727D01*
X152124272Y-66523217D01*
X152364526Y-65944621D01*
X152365073Y-65318127D01*
X152125829Y-64739113D01*
X151747104Y-64359727D01*
X152124272Y-63983217D01*
X152364526Y-63404621D01*
X152365073Y-62778127D01*
X152125829Y-62199113D01*
X151747104Y-61819727D01*
X152124272Y-61443217D01*
X152364526Y-60864621D01*
X152365073Y-60238127D01*
X152125829Y-59659113D01*
X151747104Y-59279727D01*
X152124272Y-58903217D01*
X152324921Y-58420000D01*
X153295755Y-58420000D01*
X153332910Y-58477741D01*
G36*
X170858879Y-51837526D02*
X170992800Y-51837643D01*
X170992800Y-55167356D01*
X168016766Y-58143389D01*
X164456382Y-58143389D01*
X164259795Y-58182493D01*
X170679321Y-51762967D01*
X170858879Y-51837526D01*
X170858879Y-51837526D01*
G37*
X170858879Y-51837526D02*
X170992800Y-51837643D01*
X170992800Y-55167356D01*
X168016766Y-58143389D01*
X164456382Y-58143389D01*
X164259795Y-58182493D01*
X170679321Y-51762967D01*
X170858879Y-51837526D01*
G36*
X155244800Y-55154265D02*
X155067000Y-55118260D01*
X153797000Y-55118260D01*
X153561683Y-55162538D01*
X153345559Y-55301610D01*
X153297464Y-55372000D01*
X152364886Y-55372000D01*
X152365073Y-55158127D01*
X152125829Y-54579113D01*
X151747104Y-54199727D01*
X152124272Y-53823217D01*
X152364526Y-53244621D01*
X152365073Y-52618127D01*
X152125829Y-52039113D01*
X151747104Y-51659727D01*
X152124272Y-51283217D01*
X152364526Y-50704621D01*
X152365073Y-50078127D01*
X152125829Y-49499113D01*
X151852394Y-49225200D01*
X153670000Y-49225200D01*
X153942165Y-49171063D01*
X154172894Y-49016894D01*
X155244800Y-47944989D01*
X155244800Y-55154265D01*
X155244800Y-55154265D01*
G37*
X155244800Y-55154265D02*
X155067000Y-55118260D01*
X153797000Y-55118260D01*
X153561683Y-55162538D01*
X153345559Y-55301610D01*
X153297464Y-55372000D01*
X152364886Y-55372000D01*
X152365073Y-55158127D01*
X152125829Y-54579113D01*
X151747104Y-54199727D01*
X152124272Y-53823217D01*
X152364526Y-53244621D01*
X152365073Y-52618127D01*
X152125829Y-52039113D01*
X151747104Y-51659727D01*
X152124272Y-51283217D01*
X152364526Y-50704621D01*
X152365073Y-50078127D01*
X152125829Y-49499113D01*
X151852394Y-49225200D01*
X153670000Y-49225200D01*
X153942165Y-49171063D01*
X154172894Y-49016894D01*
X155244800Y-47944989D01*
X155244800Y-55154265D01*
M02*
