G04 #@! TF.FileFunction,Soldermask,Bot*
%FSLAX46Y46*%
G04 Gerber Fmt 4.6, Leading zero omitted, Abs format (unit mm)*
G04 Created by KiCad (PCBNEW 4.0.7-e2-6376~58~ubuntu16.04.1) date Mon Aug 13 19:10:38 2018*
%MOMM*%
%LPD*%
G01*
G04 APERTURE LIST*
%ADD10C,0.100000*%
%ADD11C,2.082800*%
%ADD12R,0.838200X1.473200*%
%ADD13R,1.473200X0.838200*%
%ADD14C,2.850000*%
%ADD15C,2.489200*%
%ADD16C,2.686000*%
%ADD17R,2.800000X2.000000*%
%ADD18O,2.800000X2.000000*%
%ADD19R,2.100000X2.100000*%
%ADD20C,2.100000*%
%ADD21C,1.900000*%
%ADD22C,2.279600*%
%ADD23C,3.600000*%
G04 APERTURE END LIST*
D10*
D11*
X159385000Y-41910000D03*
X159385000Y-39370000D03*
X161925000Y-41910000D03*
X161925000Y-39370000D03*
X164465000Y-41910000D03*
X164465000Y-39370000D03*
X167005000Y-41910000D03*
X167005000Y-39370000D03*
X169545000Y-41910000D03*
X169545000Y-39370000D03*
D12*
X163449000Y-44577000D03*
X164465000Y-44577000D03*
X165481000Y-44577000D03*
X159639000Y-44577000D03*
X160655000Y-44577000D03*
X161671000Y-44577000D03*
D13*
X154178000Y-68326000D03*
X154178000Y-69342000D03*
X154178000Y-70358000D03*
D12*
X177698400Y-67310000D03*
X176885600Y-67310000D03*
D13*
X156718000Y-70358000D03*
X156718000Y-69342000D03*
X156718000Y-68326000D03*
D12*
X177698400Y-64770000D03*
X176885600Y-64770000D03*
X177698400Y-62230000D03*
X176885600Y-62230000D03*
D11*
X180975000Y-41910000D03*
X180975000Y-39370000D03*
X183515000Y-41910000D03*
X183515000Y-39370000D03*
X186055000Y-41910000D03*
X186055000Y-39370000D03*
X188595000Y-41910000D03*
X188595000Y-39370000D03*
X191135000Y-41910000D03*
X191135000Y-39370000D03*
D14*
X199832000Y-109300000D03*
D15*
X199831960Y-101800660D03*
X192532000Y-101800660D03*
X185232040Y-101800660D03*
X197530720Y-99301300D03*
X187533280Y-99301300D03*
X187533280Y-111500920D03*
X197530720Y-111500920D03*
D16*
X190032000Y-111600000D03*
X195032000Y-111600000D03*
D14*
X185232000Y-109300000D03*
X179258000Y-109300000D03*
D15*
X179257960Y-101800660D03*
X171958000Y-101800660D03*
X164658040Y-101800660D03*
X176956720Y-99301300D03*
X166959280Y-99301300D03*
X166959280Y-111500920D03*
X176956720Y-111500920D03*
D16*
X169458000Y-111600000D03*
X174458000Y-111600000D03*
D14*
X164658000Y-109300000D03*
D13*
X154432000Y-57708800D03*
X154432000Y-56896000D03*
X154432000Y-56083200D03*
X157226000Y-55880000D03*
X157226000Y-56896000D03*
X157226000Y-57912000D03*
D17*
X182118000Y-57150000D03*
D18*
X189738000Y-77470000D03*
X182118000Y-59690000D03*
X189738000Y-74930000D03*
X182118000Y-62230000D03*
X189738000Y-72390000D03*
X182118000Y-64770000D03*
X189738000Y-69850000D03*
X182118000Y-67310000D03*
X189738000Y-67310000D03*
X182118000Y-69850000D03*
X189738000Y-64770000D03*
X182118000Y-72390000D03*
X189738000Y-62230000D03*
X182118000Y-74930000D03*
X189738000Y-59690000D03*
X182118000Y-77470000D03*
X189738000Y-57150000D03*
D19*
X152400000Y-107950000D03*
D20*
X154400000Y-107950000D03*
X156400000Y-107950000D03*
D21*
X150300000Y-107950000D03*
X158500000Y-107950000D03*
D22*
X176253500Y-47723000D03*
X176253500Y-50263000D03*
X173713500Y-47723000D03*
X173713500Y-50263000D03*
X171173500Y-47723000D03*
X171173500Y-50263000D03*
D11*
X199050000Y-78330000D03*
X199050000Y-75790000D03*
X199050000Y-63090000D03*
X199050000Y-60550000D03*
X199050000Y-58010000D03*
X199050000Y-55470000D03*
X199050000Y-52930000D03*
X199050000Y-50390000D03*
X150790000Y-90014000D03*
X150790000Y-55470000D03*
X150790000Y-58010000D03*
X150790000Y-60550000D03*
X150790000Y-63090000D03*
X150790000Y-65630000D03*
X150790000Y-68170000D03*
X150790000Y-72234000D03*
X150790000Y-74774000D03*
X150790000Y-77314000D03*
X150790000Y-79854000D03*
X150790000Y-82394000D03*
X150790000Y-84934000D03*
X199050000Y-73250000D03*
X199050000Y-70710000D03*
X150790000Y-87474000D03*
X199050000Y-83410000D03*
X199050000Y-85950000D03*
X199050000Y-80870000D03*
X150790000Y-50390000D03*
X150790000Y-95094000D03*
X150790000Y-92554000D03*
X150790000Y-52930000D03*
X199050000Y-68170000D03*
D22*
X154092000Y-93316000D03*
X156632000Y-93316000D03*
X159172000Y-93316000D03*
X161712000Y-93316000D03*
X154092000Y-95856000D03*
X156632000Y-95856000D03*
X159172000Y-95856000D03*
X161712000Y-95856000D03*
X154092000Y-98396000D03*
X156632000Y-98396000D03*
D23*
X150900000Y-98744000D03*
X166140000Y-48144000D03*
X194190000Y-48144000D03*
M02*
