G04 #@! TF.FileFunction,Legend,Top*
%FSLAX46Y46*%
G04 Gerber Fmt 4.6, Leading zero omitted, Abs format (unit mm)*
G04 Created by KiCad (PCBNEW 4.0.7) date 04/09/18 15:19:32*
%MOMM*%
%LPD*%
G01*
G04 APERTURE LIST*
%ADD10C,0.100000*%
%ADD11C,0.200000*%
%ADD12C,0.152400*%
%ADD13C,0.120000*%
%ADD14C,0.203200*%
%ADD15C,0.150000*%
%ADD16C,0.254000*%
G04 APERTURE END LIST*
D10*
D11*
X172212000Y-65786000D02*
X163576000Y-65786000D01*
X172212000Y-60452000D02*
X172212000Y-65786000D01*
X163576000Y-60452000D02*
X172212000Y-60452000D01*
X163576000Y-65786000D02*
X163576000Y-60452000D01*
X191262000Y-50038000D02*
X191516000Y-50038000D01*
X191262000Y-53086000D02*
X191262000Y-50038000D01*
X197358000Y-53086000D02*
X191262000Y-53086000D01*
X197358000Y-50038000D02*
X197358000Y-53086000D01*
X197104000Y-50038000D02*
X197358000Y-50038000D01*
X191516000Y-50038000D02*
X197104000Y-50038000D01*
X159258000Y-75438000D02*
X159258000Y-58166000D01*
X152146000Y-75438000D02*
X159258000Y-75438000D01*
X152146000Y-58166000D02*
X152146000Y-75438000D01*
X159258000Y-58166000D02*
X152146000Y-58166000D01*
D12*
X159955895Y-104839104D02*
X159955895Y-105303561D01*
X159955895Y-105071332D02*
X159143095Y-105071332D01*
X159259210Y-105148742D01*
X159336619Y-105226151D01*
X159375324Y-105303561D01*
X159143095Y-104142418D02*
X159143095Y-104297237D01*
X159181800Y-104374647D01*
X159220505Y-104413352D01*
X159336619Y-104490761D01*
X159491438Y-104529466D01*
X159801076Y-104529466D01*
X159878486Y-104490761D01*
X159917190Y-104452056D01*
X159955895Y-104374647D01*
X159955895Y-104219828D01*
X159917190Y-104142418D01*
X159878486Y-104103714D01*
X159801076Y-104065009D01*
X159607552Y-104065009D01*
X159530143Y-104103714D01*
X159491438Y-104142418D01*
X159452733Y-104219828D01*
X159452733Y-104374647D01*
X159491438Y-104452056D01*
X159530143Y-104490761D01*
X159607552Y-104529466D01*
X159143095Y-103716666D02*
X159801076Y-103716666D01*
X159878486Y-103677961D01*
X159917190Y-103639257D01*
X159955895Y-103561847D01*
X159955895Y-103407028D01*
X159917190Y-103329619D01*
X159878486Y-103290914D01*
X159801076Y-103252209D01*
X159143095Y-103252209D01*
X159220505Y-102903866D02*
X159181800Y-102865161D01*
X159143095Y-102787752D01*
X159143095Y-102594228D01*
X159181800Y-102516818D01*
X159220505Y-102478114D01*
X159297914Y-102439409D01*
X159375324Y-102439409D01*
X159491438Y-102478114D01*
X159955895Y-102942571D01*
X159955895Y-102439409D01*
X160033305Y-102284590D02*
X160033305Y-101665314D01*
X159955895Y-101471790D02*
X159143095Y-101471790D01*
X159143095Y-101162152D01*
X159181800Y-101084743D01*
X159220505Y-101046038D01*
X159297914Y-101007333D01*
X159414029Y-101007333D01*
X159491438Y-101046038D01*
X159530143Y-101084743D01*
X159568848Y-101162152D01*
X159568848Y-101471790D01*
X159530143Y-100388057D02*
X159568848Y-100271943D01*
X159607552Y-100233238D01*
X159684962Y-100194533D01*
X159801076Y-100194533D01*
X159878486Y-100233238D01*
X159917190Y-100271943D01*
X159955895Y-100349352D01*
X159955895Y-100658990D01*
X159143095Y-100658990D01*
X159143095Y-100388057D01*
X159181800Y-100310647D01*
X159220505Y-100271943D01*
X159297914Y-100233238D01*
X159375324Y-100233238D01*
X159452733Y-100271943D01*
X159491438Y-100310647D01*
X159530143Y-100388057D01*
X159530143Y-100658990D01*
X159143095Y-99923600D02*
X159143095Y-99381733D01*
X159955895Y-99730076D01*
X161327495Y-104839104D02*
X161327495Y-105303561D01*
X161327495Y-105071332D02*
X160514695Y-105071332D01*
X160630810Y-105148742D01*
X160708219Y-105226151D01*
X160746924Y-105303561D01*
X160514695Y-104142418D02*
X160514695Y-104297237D01*
X160553400Y-104374647D01*
X160592105Y-104413352D01*
X160708219Y-104490761D01*
X160863038Y-104529466D01*
X161172676Y-104529466D01*
X161250086Y-104490761D01*
X161288790Y-104452056D01*
X161327495Y-104374647D01*
X161327495Y-104219828D01*
X161288790Y-104142418D01*
X161250086Y-104103714D01*
X161172676Y-104065009D01*
X160979152Y-104065009D01*
X160901743Y-104103714D01*
X160863038Y-104142418D01*
X160824333Y-104219828D01*
X160824333Y-104374647D01*
X160863038Y-104452056D01*
X160901743Y-104490761D01*
X160979152Y-104529466D01*
X160514695Y-103716666D02*
X161172676Y-103716666D01*
X161250086Y-103677961D01*
X161288790Y-103639257D01*
X161327495Y-103561847D01*
X161327495Y-103407028D01*
X161288790Y-103329619D01*
X161250086Y-103290914D01*
X161172676Y-103252209D01*
X160514695Y-103252209D01*
X160592105Y-102903866D02*
X160553400Y-102865161D01*
X160514695Y-102787752D01*
X160514695Y-102594228D01*
X160553400Y-102516818D01*
X160592105Y-102478114D01*
X160669514Y-102439409D01*
X160746924Y-102439409D01*
X160863038Y-102478114D01*
X161327495Y-102942571D01*
X161327495Y-102439409D01*
X161404905Y-102284590D02*
X161404905Y-101665314D01*
X161327495Y-101471790D02*
X160514695Y-101471790D01*
X160514695Y-101162152D01*
X160553400Y-101084743D01*
X160592105Y-101046038D01*
X160669514Y-101007333D01*
X160785629Y-101007333D01*
X160863038Y-101046038D01*
X160901743Y-101084743D01*
X160940448Y-101162152D01*
X160940448Y-101471790D01*
X160901743Y-100388057D02*
X160940448Y-100271943D01*
X160979152Y-100233238D01*
X161056562Y-100194533D01*
X161172676Y-100194533D01*
X161250086Y-100233238D01*
X161288790Y-100271943D01*
X161327495Y-100349352D01*
X161327495Y-100658990D01*
X160514695Y-100658990D01*
X160514695Y-100388057D01*
X160553400Y-100310647D01*
X160592105Y-100271943D01*
X160669514Y-100233238D01*
X160746924Y-100233238D01*
X160824333Y-100271943D01*
X160863038Y-100310647D01*
X160901743Y-100388057D01*
X160901743Y-100658990D01*
X160514695Y-99497847D02*
X160514695Y-99652666D01*
X160553400Y-99730076D01*
X160592105Y-99768781D01*
X160708219Y-99846190D01*
X160863038Y-99884895D01*
X161172676Y-99884895D01*
X161250086Y-99846190D01*
X161288790Y-99807485D01*
X161327495Y-99730076D01*
X161327495Y-99575257D01*
X161288790Y-99497847D01*
X161250086Y-99459143D01*
X161172676Y-99420438D01*
X160979152Y-99420438D01*
X160901743Y-99459143D01*
X160863038Y-99497847D01*
X160824333Y-99575257D01*
X160824333Y-99730076D01*
X160863038Y-99807485D01*
X160901743Y-99846190D01*
X160979152Y-99884895D01*
X192065124Y-50818143D02*
X191794191Y-50818143D01*
X191794191Y-51243895D02*
X191794191Y-50431095D01*
X192181238Y-50431095D01*
X192452172Y-51011667D02*
X192839220Y-51011667D01*
X192374763Y-51243895D02*
X192645696Y-50431095D01*
X192916629Y-51243895D01*
X193148858Y-51205190D02*
X193264972Y-51243895D01*
X193458496Y-51243895D01*
X193535906Y-51205190D01*
X193574610Y-51166486D01*
X193613315Y-51089076D01*
X193613315Y-51011667D01*
X193574610Y-50934257D01*
X193535906Y-50895552D01*
X193458496Y-50856848D01*
X193303677Y-50818143D01*
X193226268Y-50779438D01*
X193187563Y-50740733D01*
X193148858Y-50663324D01*
X193148858Y-50585914D01*
X193187563Y-50508505D01*
X193226268Y-50469800D01*
X193303677Y-50431095D01*
X193497201Y-50431095D01*
X193613315Y-50469800D01*
X193845544Y-50431095D02*
X194310001Y-50431095D01*
X194077772Y-51243895D02*
X194077772Y-50431095D01*
X194580934Y-51166486D02*
X194619639Y-51205190D01*
X194580934Y-51243895D01*
X194542229Y-51205190D01*
X194580934Y-51166486D01*
X194580934Y-51243895D01*
X194929277Y-51205190D02*
X195045391Y-51243895D01*
X195238915Y-51243895D01*
X195316325Y-51205190D01*
X195355029Y-51166486D01*
X195393734Y-51089076D01*
X195393734Y-51011667D01*
X195355029Y-50934257D01*
X195316325Y-50895552D01*
X195238915Y-50856848D01*
X195084096Y-50818143D01*
X195006687Y-50779438D01*
X194967982Y-50740733D01*
X194929277Y-50663324D01*
X194929277Y-50585914D01*
X194967982Y-50508505D01*
X195006687Y-50469800D01*
X195084096Y-50431095D01*
X195277620Y-50431095D01*
X195393734Y-50469800D01*
X196206534Y-51243895D02*
X195935601Y-50856848D01*
X195742077Y-51243895D02*
X195742077Y-50431095D01*
X196051715Y-50431095D01*
X196129124Y-50469800D01*
X196167829Y-50508505D01*
X196206534Y-50585914D01*
X196206534Y-50702029D01*
X196167829Y-50779438D01*
X196129124Y-50818143D01*
X196051715Y-50856848D01*
X195742077Y-50856848D01*
X196941924Y-51243895D02*
X196554877Y-51243895D01*
X196554877Y-50431095D01*
X191678076Y-52576790D02*
X191794190Y-52615495D01*
X191987714Y-52615495D01*
X192065124Y-52576790D01*
X192103828Y-52538086D01*
X192142533Y-52460676D01*
X192142533Y-52383267D01*
X192103828Y-52305857D01*
X192065124Y-52267152D01*
X191987714Y-52228448D01*
X191832895Y-52189743D01*
X191755486Y-52151038D01*
X191716781Y-52112333D01*
X191678076Y-52034924D01*
X191678076Y-51957514D01*
X191716781Y-51880105D01*
X191755486Y-51841400D01*
X191832895Y-51802695D01*
X192026419Y-51802695D01*
X192142533Y-51841400D01*
X192645695Y-51802695D02*
X192800514Y-51802695D01*
X192877923Y-51841400D01*
X192955333Y-51918810D01*
X192994038Y-52073629D01*
X192994038Y-52344562D01*
X192955333Y-52499381D01*
X192877923Y-52576790D01*
X192800514Y-52615495D01*
X192645695Y-52615495D01*
X192568285Y-52576790D01*
X192490876Y-52499381D01*
X192452171Y-52344562D01*
X192452171Y-52073629D01*
X192490876Y-51918810D01*
X192568285Y-51841400D01*
X192645695Y-51802695D01*
X193613314Y-52189743D02*
X193342381Y-52189743D01*
X193342381Y-52615495D02*
X193342381Y-51802695D01*
X193729428Y-51802695D01*
X193922953Y-51802695D02*
X194387410Y-51802695D01*
X194155181Y-52615495D02*
X194155181Y-51802695D01*
X194658343Y-52538086D02*
X194697048Y-52576790D01*
X194658343Y-52615495D01*
X194619638Y-52576790D01*
X194658343Y-52538086D01*
X194658343Y-52615495D01*
X195006686Y-52576790D02*
X195122800Y-52615495D01*
X195316324Y-52615495D01*
X195393734Y-52576790D01*
X195432438Y-52538086D01*
X195471143Y-52460676D01*
X195471143Y-52383267D01*
X195432438Y-52305857D01*
X195393734Y-52267152D01*
X195316324Y-52228448D01*
X195161505Y-52189743D01*
X195084096Y-52151038D01*
X195045391Y-52112333D01*
X195006686Y-52034924D01*
X195006686Y-51957514D01*
X195045391Y-51880105D01*
X195084096Y-51841400D01*
X195161505Y-51802695D01*
X195355029Y-51802695D01*
X195471143Y-51841400D01*
X196283943Y-52615495D02*
X196013010Y-52228448D01*
X195819486Y-52615495D02*
X195819486Y-51802695D01*
X196129124Y-51802695D01*
X196206533Y-51841400D01*
X196245238Y-51880105D01*
X196283943Y-51957514D01*
X196283943Y-52073629D01*
X196245238Y-52151038D01*
X196206533Y-52189743D01*
X196129124Y-52228448D01*
X195819486Y-52228448D01*
X197019333Y-52615495D02*
X196632286Y-52615495D01*
X196632286Y-51802695D01*
X164832695Y-65236876D02*
X164019895Y-65236876D01*
X164097305Y-64888533D02*
X164058600Y-64849828D01*
X164019895Y-64772419D01*
X164019895Y-64578895D01*
X164058600Y-64501485D01*
X164097305Y-64462781D01*
X164174714Y-64424076D01*
X164252124Y-64424076D01*
X164368238Y-64462781D01*
X164832695Y-64927238D01*
X164832695Y-64424076D01*
X164755286Y-63611276D02*
X164793990Y-63649981D01*
X164832695Y-63766095D01*
X164832695Y-63843505D01*
X164793990Y-63959619D01*
X164716581Y-64037028D01*
X164639171Y-64075733D01*
X164484352Y-64114438D01*
X164368238Y-64114438D01*
X164213419Y-64075733D01*
X164136010Y-64037028D01*
X164058600Y-63959619D01*
X164019895Y-63843505D01*
X164019895Y-63766095D01*
X164058600Y-63649981D01*
X164097305Y-63611276D01*
X164910105Y-63456457D02*
X164910105Y-62837181D01*
X164793990Y-62682362D02*
X164832695Y-62566248D01*
X164832695Y-62372724D01*
X164793990Y-62295314D01*
X164755286Y-62256610D01*
X164677876Y-62217905D01*
X164600467Y-62217905D01*
X164523057Y-62256610D01*
X164484352Y-62295314D01*
X164445648Y-62372724D01*
X164406943Y-62527543D01*
X164368238Y-62604952D01*
X164329533Y-62643657D01*
X164252124Y-62682362D01*
X164174714Y-62682362D01*
X164097305Y-62643657D01*
X164058600Y-62604952D01*
X164019895Y-62527543D01*
X164019895Y-62334019D01*
X164058600Y-62217905D01*
X164832695Y-61869562D02*
X164019895Y-61869562D01*
X164019895Y-61676038D01*
X164058600Y-61559924D01*
X164136010Y-61482515D01*
X164213419Y-61443810D01*
X164368238Y-61405105D01*
X164484352Y-61405105D01*
X164639171Y-61443810D01*
X164716581Y-61482515D01*
X164793990Y-61559924D01*
X164832695Y-61676038D01*
X164832695Y-61869562D01*
X164600467Y-61095467D02*
X164600467Y-60708419D01*
X164832695Y-61172876D02*
X164019895Y-60901943D01*
X164832695Y-60631010D01*
X166165590Y-64714362D02*
X166204295Y-64598248D01*
X166204295Y-64404724D01*
X166165590Y-64327314D01*
X166126886Y-64288610D01*
X166049476Y-64249905D01*
X165972067Y-64249905D01*
X165894657Y-64288610D01*
X165855952Y-64327314D01*
X165817248Y-64404724D01*
X165778543Y-64559543D01*
X165739838Y-64636952D01*
X165701133Y-64675657D01*
X165623724Y-64714362D01*
X165546314Y-64714362D01*
X165468905Y-64675657D01*
X165430200Y-64636952D01*
X165391495Y-64559543D01*
X165391495Y-64366019D01*
X165430200Y-64249905D01*
X166204295Y-63901562D02*
X165391495Y-63901562D01*
X165391495Y-63591924D01*
X165430200Y-63514515D01*
X165468905Y-63475810D01*
X165546314Y-63437105D01*
X165662429Y-63437105D01*
X165739838Y-63475810D01*
X165778543Y-63514515D01*
X165817248Y-63591924D01*
X165817248Y-63901562D01*
X166204295Y-63088762D02*
X165391495Y-63088762D01*
X166281705Y-62895238D02*
X166281705Y-62275962D01*
X166165590Y-62121143D02*
X166204295Y-62005029D01*
X166204295Y-61811505D01*
X166165590Y-61734095D01*
X166126886Y-61695391D01*
X166049476Y-61656686D01*
X165972067Y-61656686D01*
X165894657Y-61695391D01*
X165855952Y-61734095D01*
X165817248Y-61811505D01*
X165778543Y-61966324D01*
X165739838Y-62043733D01*
X165701133Y-62082438D01*
X165623724Y-62121143D01*
X165546314Y-62121143D01*
X165468905Y-62082438D01*
X165430200Y-62043733D01*
X165391495Y-61966324D01*
X165391495Y-61772800D01*
X165430200Y-61656686D01*
X166204295Y-61308343D02*
X165391495Y-61308343D01*
X167575895Y-65217523D02*
X166763095Y-65217523D01*
X166840505Y-64869180D02*
X166801800Y-64830475D01*
X166763095Y-64753066D01*
X166763095Y-64559542D01*
X166801800Y-64482132D01*
X166840505Y-64443428D01*
X166917914Y-64404723D01*
X166995324Y-64404723D01*
X167111438Y-64443428D01*
X167575895Y-64907885D01*
X167575895Y-64404723D01*
X167498486Y-63591923D02*
X167537190Y-63630628D01*
X167575895Y-63746742D01*
X167575895Y-63824152D01*
X167537190Y-63940266D01*
X167459781Y-64017675D01*
X167382371Y-64056380D01*
X167227552Y-64095085D01*
X167111438Y-64095085D01*
X166956619Y-64056380D01*
X166879210Y-64017675D01*
X166801800Y-63940266D01*
X166763095Y-63824152D01*
X166763095Y-63746742D01*
X166801800Y-63630628D01*
X166840505Y-63591923D01*
X167653305Y-63437104D02*
X167653305Y-62817828D01*
X167537190Y-62663009D02*
X167575895Y-62546895D01*
X167575895Y-62353371D01*
X167537190Y-62275961D01*
X167498486Y-62237257D01*
X167421076Y-62198552D01*
X167343667Y-62198552D01*
X167266257Y-62237257D01*
X167227552Y-62275961D01*
X167188848Y-62353371D01*
X167150143Y-62508190D01*
X167111438Y-62585599D01*
X167072733Y-62624304D01*
X166995324Y-62663009D01*
X166917914Y-62663009D01*
X166840505Y-62624304D01*
X166801800Y-62585599D01*
X166763095Y-62508190D01*
X166763095Y-62314666D01*
X166801800Y-62198552D01*
X167498486Y-61385752D02*
X167537190Y-61424457D01*
X167575895Y-61540571D01*
X167575895Y-61617981D01*
X167537190Y-61734095D01*
X167459781Y-61811504D01*
X167382371Y-61850209D01*
X167227552Y-61888914D01*
X167111438Y-61888914D01*
X166956619Y-61850209D01*
X166879210Y-61811504D01*
X166801800Y-61734095D01*
X166763095Y-61617981D01*
X166763095Y-61540571D01*
X166801800Y-61424457D01*
X166840505Y-61385752D01*
X167575895Y-60650362D02*
X167575895Y-61037409D01*
X166763095Y-61037409D01*
X168908790Y-65333638D02*
X168947495Y-65217524D01*
X168947495Y-65024000D01*
X168908790Y-64946590D01*
X168870086Y-64907886D01*
X168792676Y-64869181D01*
X168715267Y-64869181D01*
X168637857Y-64907886D01*
X168599152Y-64946590D01*
X168560448Y-65024000D01*
X168521743Y-65178819D01*
X168483038Y-65256228D01*
X168444333Y-65294933D01*
X168366924Y-65333638D01*
X168289514Y-65333638D01*
X168212105Y-65294933D01*
X168173400Y-65256228D01*
X168134695Y-65178819D01*
X168134695Y-64985295D01*
X168173400Y-64869181D01*
X168947495Y-64520838D02*
X168134695Y-64520838D01*
X168134695Y-64211200D01*
X168173400Y-64133791D01*
X168212105Y-64095086D01*
X168289514Y-64056381D01*
X168405629Y-64056381D01*
X168483038Y-64095086D01*
X168521743Y-64133791D01*
X168560448Y-64211200D01*
X168560448Y-64520838D01*
X168947495Y-63708038D02*
X168134695Y-63708038D01*
X169024905Y-63514514D02*
X169024905Y-62895238D01*
X168908790Y-62740419D02*
X168947495Y-62624305D01*
X168947495Y-62430781D01*
X168908790Y-62353371D01*
X168870086Y-62314667D01*
X168792676Y-62275962D01*
X168715267Y-62275962D01*
X168637857Y-62314667D01*
X168599152Y-62353371D01*
X168560448Y-62430781D01*
X168521743Y-62585600D01*
X168483038Y-62663009D01*
X168444333Y-62701714D01*
X168366924Y-62740419D01*
X168289514Y-62740419D01*
X168212105Y-62701714D01*
X168173400Y-62663009D01*
X168134695Y-62585600D01*
X168134695Y-62392076D01*
X168173400Y-62275962D01*
X168870086Y-61463162D02*
X168908790Y-61501867D01*
X168947495Y-61617981D01*
X168947495Y-61695391D01*
X168908790Y-61811505D01*
X168831381Y-61888914D01*
X168753971Y-61927619D01*
X168599152Y-61966324D01*
X168483038Y-61966324D01*
X168328219Y-61927619D01*
X168250810Y-61888914D01*
X168173400Y-61811505D01*
X168134695Y-61695391D01*
X168134695Y-61617981D01*
X168173400Y-61501867D01*
X168212105Y-61463162D01*
X168947495Y-61114819D02*
X168134695Y-61114819D01*
X168947495Y-60650362D02*
X168483038Y-60998705D01*
X168134695Y-60650362D02*
X168599152Y-61114819D01*
X170319095Y-64830476D02*
X169506295Y-64830476D01*
X169583705Y-64482133D02*
X169545000Y-64443428D01*
X169506295Y-64366019D01*
X169506295Y-64172495D01*
X169545000Y-64095085D01*
X169583705Y-64056381D01*
X169661114Y-64017676D01*
X169738524Y-64017676D01*
X169854638Y-64056381D01*
X170319095Y-64520838D01*
X170319095Y-64017676D01*
X170241686Y-63204876D02*
X170280390Y-63243581D01*
X170319095Y-63359695D01*
X170319095Y-63437105D01*
X170280390Y-63553219D01*
X170202981Y-63630628D01*
X170125571Y-63669333D01*
X169970752Y-63708038D01*
X169854638Y-63708038D01*
X169699819Y-63669333D01*
X169622410Y-63630628D01*
X169545000Y-63553219D01*
X169506295Y-63437105D01*
X169506295Y-63359695D01*
X169545000Y-63243581D01*
X169583705Y-63204876D01*
X170396505Y-63050057D02*
X170396505Y-62430781D01*
X170086867Y-62275962D02*
X170086867Y-61888914D01*
X170319095Y-62353371D02*
X169506295Y-62082438D01*
X170319095Y-61811505D01*
X169583705Y-61579276D02*
X169545000Y-61540571D01*
X169506295Y-61463162D01*
X169506295Y-61269638D01*
X169545000Y-61192228D01*
X169583705Y-61153524D01*
X169661114Y-61114819D01*
X169738524Y-61114819D01*
X169854638Y-61153524D01*
X170319095Y-61617981D01*
X170319095Y-61114819D01*
X171651990Y-64714362D02*
X171690695Y-64598248D01*
X171690695Y-64404724D01*
X171651990Y-64327314D01*
X171613286Y-64288610D01*
X171535876Y-64249905D01*
X171458467Y-64249905D01*
X171381057Y-64288610D01*
X171342352Y-64327314D01*
X171303648Y-64404724D01*
X171264943Y-64559543D01*
X171226238Y-64636952D01*
X171187533Y-64675657D01*
X171110124Y-64714362D01*
X171032714Y-64714362D01*
X170955305Y-64675657D01*
X170916600Y-64636952D01*
X170877895Y-64559543D01*
X170877895Y-64366019D01*
X170916600Y-64249905D01*
X171690695Y-63901562D02*
X170877895Y-63901562D01*
X170877895Y-63591924D01*
X170916600Y-63514515D01*
X170955305Y-63475810D01*
X171032714Y-63437105D01*
X171148829Y-63437105D01*
X171226238Y-63475810D01*
X171264943Y-63514515D01*
X171303648Y-63591924D01*
X171303648Y-63901562D01*
X171690695Y-63088762D02*
X170877895Y-63088762D01*
X171768105Y-62895238D02*
X171768105Y-62275962D01*
X171651990Y-62121143D02*
X171690695Y-62005029D01*
X171690695Y-61811505D01*
X171651990Y-61734095D01*
X171613286Y-61695391D01*
X171535876Y-61656686D01*
X171458467Y-61656686D01*
X171381057Y-61695391D01*
X171342352Y-61734095D01*
X171303648Y-61811505D01*
X171264943Y-61966324D01*
X171226238Y-62043733D01*
X171187533Y-62082438D01*
X171110124Y-62121143D01*
X171032714Y-62121143D01*
X170955305Y-62082438D01*
X170916600Y-62043733D01*
X170877895Y-61966324D01*
X170877895Y-61772800D01*
X170916600Y-61656686D01*
X171690695Y-61308343D02*
X170877895Y-61308343D01*
X158077505Y-58613524D02*
X158890305Y-58613524D01*
X158309733Y-58884457D01*
X158890305Y-59155390D01*
X158077505Y-59155390D01*
X158077505Y-59542438D02*
X158890305Y-59542438D01*
X158077505Y-59929486D02*
X158890305Y-59929486D01*
X158890305Y-60123010D01*
X158851600Y-60239124D01*
X158774190Y-60316533D01*
X158696781Y-60355238D01*
X158541962Y-60393943D01*
X158425848Y-60393943D01*
X158271029Y-60355238D01*
X158193619Y-60316533D01*
X158116210Y-60239124D01*
X158077505Y-60123010D01*
X158077505Y-59929486D01*
X158077505Y-60742286D02*
X158890305Y-60742286D01*
X158000095Y-60935810D02*
X158000095Y-61555086D01*
X158077505Y-61748610D02*
X158890305Y-61748610D01*
X158077505Y-62135658D02*
X158890305Y-62135658D01*
X158077505Y-62600115D01*
X158890305Y-62600115D01*
X157806571Y-64419239D02*
X158967714Y-64419239D01*
X158077505Y-65425562D02*
X158077505Y-64961105D01*
X158077505Y-65193334D02*
X158890305Y-65193334D01*
X158774190Y-65115924D01*
X158696781Y-65038515D01*
X158658076Y-64961105D01*
X158890305Y-66122248D02*
X158890305Y-65967429D01*
X158851600Y-65890019D01*
X158812895Y-65851314D01*
X158696781Y-65773905D01*
X158541962Y-65735200D01*
X158232324Y-65735200D01*
X158154914Y-65773905D01*
X158116210Y-65812610D01*
X158077505Y-65890019D01*
X158077505Y-66044838D01*
X158116210Y-66122248D01*
X158154914Y-66160952D01*
X158232324Y-66199657D01*
X158425848Y-66199657D01*
X158503257Y-66160952D01*
X158541962Y-66122248D01*
X158580667Y-66044838D01*
X158580667Y-65890019D01*
X158541962Y-65812610D01*
X158503257Y-65773905D01*
X158425848Y-65735200D01*
X158890305Y-66548000D02*
X158232324Y-66548000D01*
X158154914Y-66586705D01*
X158116210Y-66625409D01*
X158077505Y-66702819D01*
X158077505Y-66857638D01*
X158116210Y-66935047D01*
X158154914Y-66973752D01*
X158232324Y-67012457D01*
X158890305Y-67012457D01*
X158812895Y-67360800D02*
X158851600Y-67399505D01*
X158890305Y-67476914D01*
X158890305Y-67670438D01*
X158851600Y-67747848D01*
X158812895Y-67786552D01*
X158735486Y-67825257D01*
X158658076Y-67825257D01*
X158541962Y-67786552D01*
X158077505Y-67322095D01*
X158077505Y-67825257D01*
X158000095Y-67980076D02*
X158000095Y-68599352D01*
X158116210Y-68754171D02*
X158077505Y-68870285D01*
X158077505Y-69063809D01*
X158116210Y-69141219D01*
X158154914Y-69179923D01*
X158232324Y-69218628D01*
X158309733Y-69218628D01*
X158387143Y-69179923D01*
X158425848Y-69141219D01*
X158464552Y-69063809D01*
X158503257Y-68908990D01*
X158541962Y-68831581D01*
X158580667Y-68792876D01*
X158658076Y-68754171D01*
X158735486Y-68754171D01*
X158812895Y-68792876D01*
X158851600Y-68831581D01*
X158890305Y-68908990D01*
X158890305Y-69102514D01*
X158851600Y-69218628D01*
X158503257Y-69837904D02*
X158503257Y-69566971D01*
X158077505Y-69566971D02*
X158890305Y-69566971D01*
X158890305Y-69954018D01*
X158890305Y-70147543D02*
X158890305Y-70612000D01*
X158077505Y-70379771D02*
X158890305Y-70379771D01*
X158154914Y-70882933D02*
X158116210Y-70921638D01*
X158077505Y-70882933D01*
X158116210Y-70844228D01*
X158154914Y-70882933D01*
X158077505Y-70882933D01*
X158116210Y-71231276D02*
X158077505Y-71347390D01*
X158077505Y-71540914D01*
X158116210Y-71618324D01*
X158154914Y-71657028D01*
X158232324Y-71695733D01*
X158309733Y-71695733D01*
X158387143Y-71657028D01*
X158425848Y-71618324D01*
X158464552Y-71540914D01*
X158503257Y-71386095D01*
X158541962Y-71308686D01*
X158580667Y-71269981D01*
X158658076Y-71231276D01*
X158735486Y-71231276D01*
X158812895Y-71269981D01*
X158851600Y-71308686D01*
X158890305Y-71386095D01*
X158890305Y-71579619D01*
X158851600Y-71695733D01*
X158077505Y-72508533D02*
X158464552Y-72237600D01*
X158077505Y-72044076D02*
X158890305Y-72044076D01*
X158890305Y-72353714D01*
X158851600Y-72431123D01*
X158812895Y-72469828D01*
X158735486Y-72508533D01*
X158619371Y-72508533D01*
X158541962Y-72469828D01*
X158503257Y-72431123D01*
X158464552Y-72353714D01*
X158464552Y-72044076D01*
X158077505Y-73243923D02*
X158077505Y-72856876D01*
X158890305Y-72856876D01*
X158154914Y-73514857D02*
X158116210Y-73553562D01*
X158077505Y-73514857D01*
X158116210Y-73476152D01*
X158154914Y-73514857D01*
X158077505Y-73514857D01*
X158077505Y-74366362D02*
X158464552Y-74095429D01*
X158077505Y-73901905D02*
X158890305Y-73901905D01*
X158890305Y-74211543D01*
X158851600Y-74288952D01*
X158812895Y-74327657D01*
X158735486Y-74366362D01*
X158619371Y-74366362D01*
X158541962Y-74327657D01*
X158503257Y-74288952D01*
X158464552Y-74211543D01*
X158464552Y-73901905D01*
X158890305Y-74637295D02*
X158077505Y-75179162D01*
X158890305Y-75179162D02*
X158077505Y-74637295D01*
X156434971Y-64380532D02*
X157596114Y-64380532D01*
X157518705Y-64883693D02*
X157518705Y-65386855D01*
X157209067Y-65115922D01*
X157209067Y-65232036D01*
X157170362Y-65309446D01*
X157131657Y-65348150D01*
X157054248Y-65386855D01*
X156860724Y-65386855D01*
X156783314Y-65348150D01*
X156744610Y-65309446D01*
X156705905Y-65232036D01*
X156705905Y-64999808D01*
X156744610Y-64922398D01*
X156783314Y-64883693D01*
X157441295Y-65696493D02*
X157480000Y-65735198D01*
X157518705Y-65812607D01*
X157518705Y-66006131D01*
X157480000Y-66083541D01*
X157441295Y-66122245D01*
X157363886Y-66160950D01*
X157286476Y-66160950D01*
X157170362Y-66122245D01*
X156705905Y-65657788D01*
X156705905Y-66160950D01*
X157170362Y-66625407D02*
X157209067Y-66547998D01*
X157247771Y-66509293D01*
X157325181Y-66470588D01*
X157363886Y-66470588D01*
X157441295Y-66509293D01*
X157480000Y-66547998D01*
X157518705Y-66625407D01*
X157518705Y-66780226D01*
X157480000Y-66857636D01*
X157441295Y-66896340D01*
X157363886Y-66935045D01*
X157325181Y-66935045D01*
X157247771Y-66896340D01*
X157209067Y-66857636D01*
X157170362Y-66780226D01*
X157170362Y-66625407D01*
X157131657Y-66547998D01*
X157092952Y-66509293D01*
X157015543Y-66470588D01*
X156860724Y-66470588D01*
X156783314Y-66509293D01*
X156744610Y-66547998D01*
X156705905Y-66625407D01*
X156705905Y-66780226D01*
X156744610Y-66857636D01*
X156783314Y-66896340D01*
X156860724Y-66935045D01*
X157015543Y-66935045D01*
X157092952Y-66896340D01*
X157131657Y-66857636D01*
X157170362Y-66780226D01*
X156705905Y-67283388D02*
X157518705Y-67283388D01*
X157518705Y-67593026D01*
X157480000Y-67670435D01*
X157441295Y-67709140D01*
X157363886Y-67747845D01*
X157247771Y-67747845D01*
X157170362Y-67709140D01*
X157131657Y-67670435D01*
X157092952Y-67593026D01*
X157092952Y-67283388D01*
X156628495Y-67902664D02*
X156628495Y-68521940D01*
X156705905Y-69179921D02*
X157092952Y-68908988D01*
X156705905Y-68715464D02*
X157518705Y-68715464D01*
X157518705Y-69025102D01*
X157480000Y-69102511D01*
X157441295Y-69141216D01*
X157363886Y-69179921D01*
X157247771Y-69179921D01*
X157170362Y-69141216D01*
X157131657Y-69102511D01*
X157092952Y-69025102D01*
X157092952Y-68715464D01*
X157518705Y-69450854D02*
X156705905Y-69992721D01*
X157518705Y-69992721D02*
X156705905Y-69450854D01*
X155063371Y-64380532D02*
X156224514Y-64380532D01*
X156147105Y-64844989D02*
X156147105Y-65309446D01*
X155334305Y-65077217D02*
X156147105Y-65077217D01*
X155334305Y-65580379D02*
X156147105Y-65580379D01*
X155760057Y-65580379D02*
X155760057Y-66044836D01*
X155334305Y-66044836D02*
X156147105Y-66044836D01*
X155334305Y-66896341D02*
X155721352Y-66625408D01*
X155334305Y-66431884D02*
X156147105Y-66431884D01*
X156147105Y-66741522D01*
X156108400Y-66818931D01*
X156069695Y-66857636D01*
X155992286Y-66896341D01*
X155876171Y-66896341D01*
X155798762Y-66857636D01*
X155760057Y-66818931D01*
X155721352Y-66741522D01*
X155721352Y-66431884D01*
X156147105Y-67244684D02*
X155489124Y-67244684D01*
X155411714Y-67283389D01*
X155373010Y-67322093D01*
X155334305Y-67399503D01*
X155334305Y-67554322D01*
X155373010Y-67631731D01*
X155411714Y-67670436D01*
X155489124Y-67709141D01*
X156147105Y-67709141D01*
X153962705Y-58613524D02*
X154775505Y-58613524D01*
X154194933Y-58884457D01*
X154775505Y-59155390D01*
X153962705Y-59155390D01*
X153962705Y-59542438D02*
X154775505Y-59542438D01*
X153962705Y-59929486D02*
X154775505Y-59929486D01*
X154775505Y-60123010D01*
X154736800Y-60239124D01*
X154659390Y-60316533D01*
X154581981Y-60355238D01*
X154427162Y-60393943D01*
X154311048Y-60393943D01*
X154156229Y-60355238D01*
X154078819Y-60316533D01*
X154001410Y-60239124D01*
X153962705Y-60123010D01*
X153962705Y-59929486D01*
X153962705Y-60742286D02*
X154775505Y-60742286D01*
X153885295Y-60935810D02*
X153885295Y-61555086D01*
X154775505Y-61903429D02*
X154775505Y-62058248D01*
X154736800Y-62135657D01*
X154659390Y-62213067D01*
X154504571Y-62251772D01*
X154233638Y-62251772D01*
X154078819Y-62213067D01*
X154001410Y-62135657D01*
X153962705Y-62058248D01*
X153962705Y-61903429D01*
X154001410Y-61826019D01*
X154078819Y-61748610D01*
X154233638Y-61709905D01*
X154504571Y-61709905D01*
X154659390Y-61748610D01*
X154736800Y-61826019D01*
X154775505Y-61903429D01*
X154775505Y-62600115D02*
X154117524Y-62600115D01*
X154040114Y-62638820D01*
X154001410Y-62677524D01*
X153962705Y-62754934D01*
X153962705Y-62909753D01*
X154001410Y-62987162D01*
X154040114Y-63025867D01*
X154117524Y-63064572D01*
X154775505Y-63064572D01*
X154775505Y-63335506D02*
X154775505Y-63799963D01*
X153962705Y-63567734D02*
X154775505Y-63567734D01*
X153691771Y-64264420D02*
X154852914Y-64264420D01*
X153962705Y-65270743D02*
X153962705Y-64806286D01*
X153962705Y-65038515D02*
X154775505Y-65038515D01*
X154659390Y-64961105D01*
X154581981Y-64883696D01*
X154543276Y-64806286D01*
X154775505Y-65967429D02*
X154775505Y-65812610D01*
X154736800Y-65735200D01*
X154698095Y-65696495D01*
X154581981Y-65619086D01*
X154427162Y-65580381D01*
X154117524Y-65580381D01*
X154040114Y-65619086D01*
X154001410Y-65657791D01*
X153962705Y-65735200D01*
X153962705Y-65890019D01*
X154001410Y-65967429D01*
X154040114Y-66006133D01*
X154117524Y-66044838D01*
X154311048Y-66044838D01*
X154388457Y-66006133D01*
X154427162Y-65967429D01*
X154465867Y-65890019D01*
X154465867Y-65735200D01*
X154427162Y-65657791D01*
X154388457Y-65619086D01*
X154311048Y-65580381D01*
X154775505Y-66393181D02*
X154117524Y-66393181D01*
X154040114Y-66431886D01*
X154001410Y-66470590D01*
X153962705Y-66548000D01*
X153962705Y-66702819D01*
X154001410Y-66780228D01*
X154040114Y-66818933D01*
X154117524Y-66857638D01*
X154775505Y-66857638D01*
X154698095Y-67205981D02*
X154736800Y-67244686D01*
X154775505Y-67322095D01*
X154775505Y-67515619D01*
X154736800Y-67593029D01*
X154698095Y-67631733D01*
X154620686Y-67670438D01*
X154543276Y-67670438D01*
X154427162Y-67631733D01*
X153962705Y-67167276D01*
X153962705Y-67670438D01*
X153885295Y-67825257D02*
X153885295Y-68444533D01*
X154001410Y-68599352D02*
X153962705Y-68715466D01*
X153962705Y-68908990D01*
X154001410Y-68986400D01*
X154040114Y-69025104D01*
X154117524Y-69063809D01*
X154194933Y-69063809D01*
X154272343Y-69025104D01*
X154311048Y-68986400D01*
X154349752Y-68908990D01*
X154388457Y-68754171D01*
X154427162Y-68676762D01*
X154465867Y-68638057D01*
X154543276Y-68599352D01*
X154620686Y-68599352D01*
X154698095Y-68638057D01*
X154736800Y-68676762D01*
X154775505Y-68754171D01*
X154775505Y-68947695D01*
X154736800Y-69063809D01*
X154388457Y-69683085D02*
X154388457Y-69412152D01*
X153962705Y-69412152D02*
X154775505Y-69412152D01*
X154775505Y-69799199D01*
X154775505Y-69992724D02*
X154775505Y-70457181D01*
X153962705Y-70224952D02*
X154775505Y-70224952D01*
X154040114Y-70728114D02*
X154001410Y-70766819D01*
X153962705Y-70728114D01*
X154001410Y-70689409D01*
X154040114Y-70728114D01*
X153962705Y-70728114D01*
X154001410Y-71076457D02*
X153962705Y-71192571D01*
X153962705Y-71386095D01*
X154001410Y-71463505D01*
X154040114Y-71502209D01*
X154117524Y-71540914D01*
X154194933Y-71540914D01*
X154272343Y-71502209D01*
X154311048Y-71463505D01*
X154349752Y-71386095D01*
X154388457Y-71231276D01*
X154427162Y-71153867D01*
X154465867Y-71115162D01*
X154543276Y-71076457D01*
X154620686Y-71076457D01*
X154698095Y-71115162D01*
X154736800Y-71153867D01*
X154775505Y-71231276D01*
X154775505Y-71424800D01*
X154736800Y-71540914D01*
X153962705Y-72353714D02*
X154349752Y-72082781D01*
X153962705Y-71889257D02*
X154775505Y-71889257D01*
X154775505Y-72198895D01*
X154736800Y-72276304D01*
X154698095Y-72315009D01*
X154620686Y-72353714D01*
X154504571Y-72353714D01*
X154427162Y-72315009D01*
X154388457Y-72276304D01*
X154349752Y-72198895D01*
X154349752Y-71889257D01*
X153962705Y-73089104D02*
X153962705Y-72702057D01*
X154775505Y-72702057D01*
X154040114Y-73360038D02*
X154001410Y-73398743D01*
X153962705Y-73360038D01*
X154001410Y-73321333D01*
X154040114Y-73360038D01*
X153962705Y-73360038D01*
X154775505Y-73630972D02*
X154775505Y-74095429D01*
X153962705Y-73863200D02*
X154775505Y-73863200D01*
X154775505Y-74288952D02*
X153962705Y-74830819D01*
X154775505Y-74830819D02*
X153962705Y-74288952D01*
X152320171Y-64380532D02*
X153481314Y-64380532D01*
X153403905Y-64883693D02*
X153403905Y-65386855D01*
X153094267Y-65115922D01*
X153094267Y-65232036D01*
X153055562Y-65309446D01*
X153016857Y-65348150D01*
X152939448Y-65386855D01*
X152745924Y-65386855D01*
X152668514Y-65348150D01*
X152629810Y-65309446D01*
X152591105Y-65232036D01*
X152591105Y-64999808D01*
X152629810Y-64922398D01*
X152668514Y-64883693D01*
X153326495Y-65696493D02*
X153365200Y-65735198D01*
X153403905Y-65812607D01*
X153403905Y-66006131D01*
X153365200Y-66083541D01*
X153326495Y-66122245D01*
X153249086Y-66160950D01*
X153171676Y-66160950D01*
X153055562Y-66122245D01*
X152591105Y-65657788D01*
X152591105Y-66160950D01*
X153055562Y-66625407D02*
X153094267Y-66547998D01*
X153132971Y-66509293D01*
X153210381Y-66470588D01*
X153249086Y-66470588D01*
X153326495Y-66509293D01*
X153365200Y-66547998D01*
X153403905Y-66625407D01*
X153403905Y-66780226D01*
X153365200Y-66857636D01*
X153326495Y-66896340D01*
X153249086Y-66935045D01*
X153210381Y-66935045D01*
X153132971Y-66896340D01*
X153094267Y-66857636D01*
X153055562Y-66780226D01*
X153055562Y-66625407D01*
X153016857Y-66547998D01*
X152978152Y-66509293D01*
X152900743Y-66470588D01*
X152745924Y-66470588D01*
X152668514Y-66509293D01*
X152629810Y-66547998D01*
X152591105Y-66625407D01*
X152591105Y-66780226D01*
X152629810Y-66857636D01*
X152668514Y-66896340D01*
X152745924Y-66935045D01*
X152900743Y-66935045D01*
X152978152Y-66896340D01*
X153016857Y-66857636D01*
X153055562Y-66780226D01*
X152591105Y-67283388D02*
X153403905Y-67283388D01*
X153403905Y-67593026D01*
X153365200Y-67670435D01*
X153326495Y-67709140D01*
X153249086Y-67747845D01*
X153132971Y-67747845D01*
X153055562Y-67709140D01*
X153016857Y-67670435D01*
X152978152Y-67593026D01*
X152978152Y-67283388D01*
X152513695Y-67902664D02*
X152513695Y-68521940D01*
X153403905Y-68599350D02*
X153403905Y-69063807D01*
X152591105Y-68831578D02*
X153403905Y-68831578D01*
X153403905Y-69257330D02*
X152591105Y-69799197D01*
X153403905Y-69799197D02*
X152591105Y-69257330D01*
D13*
X192770000Y-58075000D02*
X190770000Y-58075000D01*
X190770000Y-58075000D02*
X190770000Y-61975000D01*
X192770000Y-58075000D02*
X192770000Y-61975000D01*
D12*
X167640000Y-78105000D02*
X167005000Y-77470000D01*
X165735000Y-77470000D02*
X165100000Y-78105000D01*
X165100000Y-78105000D02*
X164465000Y-77470000D01*
X163195000Y-77470000D02*
X162560000Y-78105000D01*
X162560000Y-78105000D02*
X161925000Y-77470000D01*
X160655000Y-77470000D02*
X160020000Y-78105000D01*
X160020000Y-78105000D02*
X159385000Y-77470000D01*
X158115000Y-77470000D02*
X157480000Y-78105000D01*
X167640000Y-78105000D02*
X167640000Y-81915000D01*
X167640000Y-81915000D02*
X167005000Y-82550000D01*
X167005000Y-82550000D02*
X165735000Y-82550000D01*
X165735000Y-82550000D02*
X165100000Y-81915000D01*
X165100000Y-81915000D02*
X164465000Y-82550000D01*
X164465000Y-82550000D02*
X163195000Y-82550000D01*
X163195000Y-82550000D02*
X162560000Y-81915000D01*
X162560000Y-81915000D02*
X161925000Y-82550000D01*
X161925000Y-82550000D02*
X160655000Y-82550000D01*
X160655000Y-82550000D02*
X160020000Y-81915000D01*
X160020000Y-81915000D02*
X159385000Y-82550000D01*
X159385000Y-82550000D02*
X158115000Y-82550000D01*
X158115000Y-82550000D02*
X157480000Y-81915000D01*
X165100000Y-81915000D02*
X165100000Y-78105000D01*
X162560000Y-81915000D02*
X162560000Y-78105000D01*
X160020000Y-81915000D02*
X160020000Y-78105000D01*
X157480000Y-81915000D02*
X157480000Y-78105000D01*
X159385000Y-77470000D02*
X158115000Y-77470000D01*
X161925000Y-77470000D02*
X160655000Y-77470000D01*
X164465000Y-77470000D02*
X163195000Y-77470000D01*
X167005000Y-77470000D02*
X165735000Y-77470000D01*
X157480000Y-78105000D02*
X156845000Y-77470000D01*
X155575000Y-77470000D02*
X154940000Y-78105000D01*
X157480000Y-81915000D02*
X156845000Y-82550000D01*
X156845000Y-82550000D02*
X155575000Y-82550000D01*
X155575000Y-82550000D02*
X154940000Y-81915000D01*
X154940000Y-81915000D02*
X154940000Y-78105000D01*
X156845000Y-77470000D02*
X155575000Y-77470000D01*
D14*
X167005000Y-77089000D02*
X165735000Y-77089000D01*
X167005000Y-77089000D02*
X165735000Y-77089000D01*
X161290000Y-59055000D02*
X161925000Y-59690000D01*
X163195000Y-59690000D02*
X163830000Y-59055000D01*
X163830000Y-59055000D02*
X164465000Y-59690000D01*
X165735000Y-59690000D02*
X166370000Y-59055000D01*
X166370000Y-59055000D02*
X167005000Y-59690000D01*
X168275000Y-59690000D02*
X168910000Y-59055000D01*
X168910000Y-59055000D02*
X169545000Y-59690000D01*
X170815000Y-59690000D02*
X171450000Y-59055000D01*
X171450000Y-59055000D02*
X172085000Y-59690000D01*
X173355000Y-59690000D02*
X173990000Y-59055000D01*
X173990000Y-59055000D02*
X174625000Y-59690000D01*
X175895000Y-59690000D02*
X176530000Y-59055000D01*
X161290000Y-59055000D02*
X161290000Y-55245000D01*
X161290000Y-55245000D02*
X161925000Y-54610000D01*
X161925000Y-54610000D02*
X163195000Y-54610000D01*
X163195000Y-54610000D02*
X163830000Y-55245000D01*
X163830000Y-55245000D02*
X164465000Y-54610000D01*
X164465000Y-54610000D02*
X165735000Y-54610000D01*
X165735000Y-54610000D02*
X166370000Y-55245000D01*
X166370000Y-55245000D02*
X167005000Y-54610000D01*
X167005000Y-54610000D02*
X168275000Y-54610000D01*
X168275000Y-54610000D02*
X168910000Y-55245000D01*
X168910000Y-55245000D02*
X169545000Y-54610000D01*
X169545000Y-54610000D02*
X170815000Y-54610000D01*
X170815000Y-54610000D02*
X171450000Y-55245000D01*
X171450000Y-55245000D02*
X172085000Y-54610000D01*
X172085000Y-54610000D02*
X173355000Y-54610000D01*
X173355000Y-54610000D02*
X173990000Y-55245000D01*
X173990000Y-55245000D02*
X174625000Y-54610000D01*
X174625000Y-54610000D02*
X175895000Y-54610000D01*
X175895000Y-54610000D02*
X176530000Y-55245000D01*
X163830000Y-55245000D02*
X163830000Y-59055000D01*
X166370000Y-55245000D02*
X166370000Y-59055000D01*
X168910000Y-55245000D02*
X168910000Y-59055000D01*
X171450000Y-55245000D02*
X171450000Y-59055000D01*
X173990000Y-55245000D02*
X173990000Y-59055000D01*
X176530000Y-55245000D02*
X176530000Y-59055000D01*
X174625000Y-59690000D02*
X175895000Y-59690000D01*
X172085000Y-59690000D02*
X173355000Y-59690000D01*
X169545000Y-59690000D02*
X170815000Y-59690000D01*
X167005000Y-59690000D02*
X168275000Y-59690000D01*
X164465000Y-59690000D02*
X165735000Y-59690000D01*
X161925000Y-59690000D02*
X163195000Y-59690000D01*
X161925000Y-60071000D02*
X163195000Y-60071000D01*
X163195000Y-60071000D02*
X161925000Y-60071000D01*
X161290000Y-59055000D02*
X161925000Y-59690000D01*
X161290000Y-59055000D02*
X161290000Y-55245000D01*
X161290000Y-55245000D02*
X161925000Y-54610000D01*
X161290000Y-59055000D02*
X161925000Y-59690000D01*
X161290000Y-59055000D02*
X161290000Y-55245000D01*
X161290000Y-55245000D02*
X161925000Y-54610000D01*
D10*
X171690000Y-72060000D02*
X171690000Y-72460000D01*
X171690000Y-72460000D02*
X172590000Y-73360000D01*
X172590000Y-73360000D02*
X172990000Y-73360000D01*
X172990000Y-73360000D02*
X172990000Y-74160000D01*
X196390000Y-66760000D02*
X196390000Y-66360000D01*
X196390000Y-66360000D02*
X195990000Y-66360000D01*
X195990000Y-73360000D02*
X196390000Y-73360000D01*
X196390000Y-73360000D02*
X196390000Y-72960000D01*
X172080000Y-66380000D02*
X171680000Y-66380000D01*
X171680000Y-66380000D02*
X171680000Y-66780000D01*
D15*
X152822000Y-92554000D02*
X157902000Y-92554000D01*
X157902000Y-92554000D02*
X157902000Y-100174000D01*
X157902000Y-100174000D02*
X152822000Y-100174000D01*
X152822000Y-100174000D02*
X152822000Y-92554000D01*
D14*
X171745000Y-52041000D02*
X170475000Y-52041000D01*
D16*
X169840000Y-50898000D02*
X169840000Y-47088000D01*
X176952000Y-51533000D02*
X170475000Y-51533000D01*
X170475000Y-51533000D02*
X169840000Y-50898000D01*
X169840000Y-47088000D02*
X170475000Y-46453000D01*
X170475000Y-46453000D02*
X176952000Y-46453000D01*
X176952000Y-46453000D02*
X177587000Y-47088000D01*
X177587000Y-47088000D02*
X177587000Y-50898000D01*
X177587000Y-50898000D02*
X176952000Y-51533000D01*
D14*
X182034180Y-114300000D02*
X201531220Y-114300000D01*
X203029820Y-113301780D02*
X203029820Y-112201960D01*
X203029820Y-112201960D02*
X201531220Y-112201960D01*
X201531220Y-112201960D02*
X201531220Y-95300800D01*
X201531220Y-95300800D02*
X198031100Y-95300800D01*
X194530980Y-95300800D02*
X190533020Y-95300800D01*
X187032900Y-95300800D02*
X183532780Y-95300800D01*
X183532780Y-95300800D02*
X183532780Y-112201960D01*
X182034180Y-113301780D02*
X182034180Y-114300000D01*
X183532780Y-112201960D02*
X201531220Y-112201960D01*
X201531220Y-114300000D02*
X201531220Y-113301780D01*
X201531220Y-113301780D02*
X203029820Y-113301780D01*
X183532780Y-112301020D02*
X183532780Y-113301780D01*
X183532780Y-113301780D02*
X182034180Y-113301780D01*
X198031100Y-97800160D02*
X194530980Y-97800160D01*
X190533020Y-97800160D02*
X187032900Y-97800160D01*
X187032900Y-95300800D02*
X187032900Y-97800160D01*
X198031100Y-95300800D02*
X198031100Y-97800160D01*
X194530980Y-95300800D02*
X194530980Y-97800160D01*
X190533020Y-95300800D02*
X190533020Y-97800160D01*
X161460180Y-114300000D02*
X180957220Y-114300000D01*
X182455820Y-113301780D02*
X182455820Y-112201960D01*
X182455820Y-112201960D02*
X180957220Y-112201960D01*
X180957220Y-112201960D02*
X180957220Y-95300800D01*
X180957220Y-95300800D02*
X177457100Y-95300800D01*
X173956980Y-95300800D02*
X169959020Y-95300800D01*
X166458900Y-95300800D02*
X162958780Y-95300800D01*
X162958780Y-95300800D02*
X162958780Y-112201960D01*
X161460180Y-113301780D02*
X161460180Y-114300000D01*
X162958780Y-112201960D02*
X180957220Y-112201960D01*
X180957220Y-114300000D02*
X180957220Y-113301780D01*
X180957220Y-113301780D02*
X182455820Y-113301780D01*
X162958780Y-112301020D02*
X162958780Y-113301780D01*
X162958780Y-113301780D02*
X161460180Y-113301780D01*
X177457100Y-97800160D02*
X173956980Y-97800160D01*
X169959020Y-97800160D02*
X166458900Y-97800160D01*
X166458900Y-95300800D02*
X166458900Y-97800160D01*
X177457100Y-95300800D02*
X177457100Y-97800160D01*
X173956980Y-95300800D02*
X173956980Y-97800160D01*
X169959020Y-95300800D02*
X169959020Y-97800160D01*
X153035000Y-101600000D02*
X154305000Y-101600000D01*
X154305000Y-101600000D02*
X154940000Y-102235000D01*
X154940000Y-103505000D02*
X154305000Y-104140000D01*
X154940000Y-102235000D02*
X155575000Y-101600000D01*
X155575000Y-101600000D02*
X156845000Y-101600000D01*
X156845000Y-101600000D02*
X157480000Y-102235000D01*
X157480000Y-103505000D02*
X156845000Y-104140000D01*
X156845000Y-104140000D02*
X155575000Y-104140000D01*
X155575000Y-104140000D02*
X154940000Y-103505000D01*
X152400000Y-102235000D02*
X152400000Y-103505000D01*
X153035000Y-101600000D02*
X152400000Y-102235000D01*
X152400000Y-103505000D02*
X153035000Y-104140000D01*
X154305000Y-104140000D02*
X153035000Y-104140000D01*
X157480000Y-102235000D02*
X157480000Y-103505000D01*
X160020000Y-50165000D02*
X160655000Y-49530000D01*
X160655000Y-49530000D02*
X161925000Y-49530000D01*
X161925000Y-49530000D02*
X162560000Y-50165000D01*
X162560000Y-51435000D02*
X161925000Y-52070000D01*
X161925000Y-52070000D02*
X160655000Y-52070000D01*
X160655000Y-52070000D02*
X160020000Y-51435000D01*
X155575000Y-49530000D02*
X156845000Y-49530000D01*
X156845000Y-49530000D02*
X157480000Y-50165000D01*
X157480000Y-51435000D02*
X156845000Y-52070000D01*
X157480000Y-50165000D02*
X158115000Y-49530000D01*
X158115000Y-49530000D02*
X159385000Y-49530000D01*
X159385000Y-49530000D02*
X160020000Y-50165000D01*
X160020000Y-51435000D02*
X159385000Y-52070000D01*
X159385000Y-52070000D02*
X158115000Y-52070000D01*
X158115000Y-52070000D02*
X157480000Y-51435000D01*
X154940000Y-50165000D02*
X154940000Y-51435000D01*
X155575000Y-49530000D02*
X154940000Y-50165000D01*
X154940000Y-51435000D02*
X155575000Y-52070000D01*
X156845000Y-52070000D02*
X155575000Y-52070000D01*
X162560000Y-50165000D02*
X162560000Y-51435000D01*
D13*
X180337000Y-47104000D02*
X180337000Y-48374000D01*
X180337000Y-47104000D02*
X182877000Y-47104000D01*
X180537000Y-47304000D02*
X190557000Y-47304000D01*
X190557000Y-47304000D02*
X190557000Y-54804000D01*
X190557000Y-54804000D02*
X180537000Y-54804000D01*
X180537000Y-54804000D02*
X180537000Y-47304000D01*
X183517000Y-49149000D02*
X183517000Y-50419000D01*
X183517000Y-50419000D02*
X187577000Y-50419000D01*
X187577000Y-50419000D02*
X187577000Y-49149000D01*
X187577000Y-49149000D02*
X183517000Y-49149000D01*
X185547000Y-49149000D02*
X185547000Y-50419000D01*
X183517000Y-51689000D02*
X183517000Y-52959000D01*
X183517000Y-52959000D02*
X187577000Y-52959000D01*
X187577000Y-52959000D02*
X187577000Y-51689000D01*
X187577000Y-51689000D02*
X183517000Y-51689000D01*
X185547000Y-51689000D02*
X185547000Y-52959000D01*
D10*
X159430000Y-110050000D02*
X158930000Y-110050000D01*
X159430000Y-110050000D02*
X159430000Y-109550000D01*
X149435000Y-110050000D02*
X149935000Y-110050000D01*
X149435000Y-110050000D02*
X149435000Y-109550000D01*
X149371500Y-105850000D02*
X149871500Y-105850000D01*
X149371500Y-105850000D02*
X149371500Y-106350000D01*
X159430000Y-105850000D02*
X159430000Y-106350000D01*
X159430000Y-105850000D02*
X158930000Y-105850000D01*
D13*
X171030000Y-70350000D02*
X171030000Y-69350000D01*
X169330000Y-69350000D02*
X169330000Y-70350000D01*
X184515000Y-84110000D02*
X182515000Y-84110000D01*
X182515000Y-84110000D02*
X182515000Y-88010000D01*
X184515000Y-84110000D02*
X184515000Y-88010000D01*
X172685000Y-91685000D02*
X171485000Y-91685000D01*
X171485000Y-89925000D02*
X172685000Y-89925000D01*
X192370000Y-79620000D02*
X191170000Y-79620000D01*
X191170000Y-77860000D02*
X192370000Y-77860000D01*
X172685000Y-89145000D02*
X171485000Y-89145000D01*
X171485000Y-87385000D02*
X172685000Y-87385000D01*
X171485000Y-84845000D02*
X172685000Y-84845000D01*
X172685000Y-86605000D02*
X171485000Y-86605000D01*
X186655000Y-60570000D02*
X185455000Y-60570000D01*
X185455000Y-58810000D02*
X186655000Y-58810000D01*
X192370000Y-77080000D02*
X191170000Y-77080000D01*
X191170000Y-75320000D02*
X192370000Y-75320000D01*
X186655000Y-63110000D02*
X185455000Y-63110000D01*
X185455000Y-61350000D02*
X186655000Y-61350000D01*
X186655000Y-58030000D02*
X185455000Y-58030000D01*
X185455000Y-56270000D02*
X186655000Y-56270000D01*
D10*
X156483000Y-85013000D02*
X156783000Y-85013000D01*
X156483000Y-85013000D02*
X156133000Y-85338000D01*
X156133000Y-85338000D02*
X155833000Y-85338000D01*
X155833000Y-85338000D02*
X155833000Y-85113000D01*
X155833000Y-85113000D02*
X154183000Y-85113000D01*
X162383000Y-85563000D02*
X162383000Y-85013000D01*
X162383000Y-85013000D02*
X161883000Y-85013000D01*
X156533000Y-91263000D02*
X156133000Y-91263000D01*
X156133000Y-91263000D02*
X156133000Y-90863000D01*
X162383000Y-90888000D02*
X162383000Y-91263000D01*
X162383000Y-91263000D02*
X162008000Y-91263000D01*
D13*
X186630000Y-85360000D02*
G75*
G02X186630000Y-87360000I0J-1000000D01*
G01*
X186630000Y-87360000D02*
X186630000Y-89010000D01*
X186630000Y-89010000D02*
X196910000Y-89010000D01*
X196910000Y-89010000D02*
X196910000Y-83710000D01*
X196910000Y-83710000D02*
X186630000Y-83710000D01*
X186630000Y-83710000D02*
X186630000Y-85360000D01*
X186570000Y-91500000D02*
X196970000Y-91500000D01*
X196970000Y-91500000D02*
X196970000Y-81220000D01*
X196970000Y-81220000D02*
X186570000Y-81220000D01*
X186570000Y-81220000D02*
X186570000Y-91500000D01*
D14*
X158750000Y-43413680D02*
X160020000Y-43413680D01*
X154365960Y-36141660D02*
X174564040Y-36141660D01*
X174564040Y-45138340D02*
X166664640Y-45138340D01*
X166664640Y-45138340D02*
X162265360Y-45138340D01*
X162265360Y-45138340D02*
X154365960Y-45138340D01*
X154365960Y-45138340D02*
X154365960Y-36240720D01*
X174564040Y-36141660D02*
X174564040Y-45138340D01*
X162265360Y-45138340D02*
X162265360Y-43639740D01*
X162265360Y-43639740D02*
X166664640Y-43639740D01*
X166664640Y-43639740D02*
X166664640Y-45138340D01*
X158750000Y-43451780D02*
X160020000Y-43451780D01*
X180340000Y-43413680D02*
X181610000Y-43413680D01*
X175955960Y-36141660D02*
X196154040Y-36141660D01*
X196154040Y-45138340D02*
X188254640Y-45138340D01*
X188254640Y-45138340D02*
X183855360Y-45138340D01*
X183855360Y-45138340D02*
X175955960Y-45138340D01*
X175955960Y-45138340D02*
X175955960Y-36240720D01*
X196154040Y-36141660D02*
X196154040Y-45138340D01*
X183855360Y-45138340D02*
X183855360Y-43639740D01*
X183855360Y-43639740D02*
X188254640Y-43639740D01*
X188254640Y-43639740D02*
X188254640Y-45138340D01*
X180340000Y-43451780D02*
X181610000Y-43451780D01*
D13*
X164500000Y-68462000D02*
X165700000Y-68462000D01*
X165700000Y-70222000D02*
X164500000Y-70222000D01*
X164500000Y-66430000D02*
X165700000Y-66430000D01*
X165700000Y-68190000D02*
X164500000Y-68190000D01*
D12*
X190232695Y-60924923D02*
X189419895Y-60924923D01*
X189419895Y-60731399D01*
X189458600Y-60615285D01*
X189536010Y-60537876D01*
X189613419Y-60499171D01*
X189768238Y-60460466D01*
X189884352Y-60460466D01*
X190039171Y-60499171D01*
X190116581Y-60537876D01*
X190193990Y-60615285D01*
X190232695Y-60731399D01*
X190232695Y-60924923D01*
X189497305Y-60150828D02*
X189458600Y-60112123D01*
X189419895Y-60034714D01*
X189419895Y-59841190D01*
X189458600Y-59763780D01*
X189497305Y-59725076D01*
X189574714Y-59686371D01*
X189652124Y-59686371D01*
X189768238Y-59725076D01*
X190232695Y-60189533D01*
X190232695Y-59686371D01*
X165692667Y-82739895D02*
X165692667Y-83320467D01*
X165653963Y-83436581D01*
X165576553Y-83513990D01*
X165460439Y-83552695D01*
X165383029Y-83552695D01*
X166079715Y-83552695D02*
X166079715Y-82739895D01*
X166389353Y-82739895D01*
X166466762Y-82778600D01*
X166505467Y-82817305D01*
X166544172Y-82894714D01*
X166544172Y-83010829D01*
X166505467Y-83088238D01*
X166466762Y-83126943D01*
X166389353Y-83165648D01*
X166079715Y-83165648D01*
X167318267Y-83552695D02*
X166853810Y-83552695D01*
X167086039Y-83552695D02*
X167086039Y-82739895D01*
X167008629Y-82856010D01*
X166931220Y-82933419D01*
X166853810Y-82972124D01*
X161882667Y-53529895D02*
X161882667Y-54110467D01*
X161843963Y-54226581D01*
X161766553Y-54303990D01*
X161650439Y-54342695D01*
X161573029Y-54342695D01*
X162269715Y-54342695D02*
X162269715Y-53529895D01*
X162579353Y-53529895D01*
X162656762Y-53568600D01*
X162695467Y-53607305D01*
X162734172Y-53684714D01*
X162734172Y-53800829D01*
X162695467Y-53878238D01*
X162656762Y-53916943D01*
X162579353Y-53955648D01*
X162269715Y-53955648D01*
X163469562Y-53529895D02*
X163082515Y-53529895D01*
X163043810Y-53916943D01*
X163082515Y-53878238D01*
X163159924Y-53839533D01*
X163353448Y-53839533D01*
X163430858Y-53878238D01*
X163469562Y-53916943D01*
X163508267Y-53994352D01*
X163508267Y-54187876D01*
X163469562Y-54265286D01*
X163430858Y-54303990D01*
X163353448Y-54342695D01*
X163159924Y-54342695D01*
X163082515Y-54303990D01*
X163043810Y-54265286D01*
X170369895Y-74279276D02*
X171027876Y-74279276D01*
X171105286Y-74240571D01*
X171143990Y-74201867D01*
X171182695Y-74124457D01*
X171182695Y-73969638D01*
X171143990Y-73892229D01*
X171105286Y-73853524D01*
X171027876Y-73814819D01*
X170369895Y-73814819D01*
X170447305Y-73466476D02*
X170408600Y-73427771D01*
X170369895Y-73350362D01*
X170369895Y-73156838D01*
X170408600Y-73079428D01*
X170447305Y-73040724D01*
X170524714Y-73002019D01*
X170602124Y-73002019D01*
X170718238Y-73040724D01*
X171182695Y-73505181D01*
X171182695Y-73002019D01*
X200253600Y-72501276D02*
X200214895Y-72578685D01*
X200214895Y-72694800D01*
X200253600Y-72810914D01*
X200331010Y-72888323D01*
X200408419Y-72927028D01*
X200563238Y-72965733D01*
X200679352Y-72965733D01*
X200834171Y-72927028D01*
X200911581Y-72888323D01*
X200988990Y-72810914D01*
X201027695Y-72694800D01*
X201027695Y-72617390D01*
X200988990Y-72501276D01*
X200950286Y-72462571D01*
X200679352Y-72462571D01*
X200679352Y-72617390D01*
X201027695Y-72114228D02*
X200214895Y-72114228D01*
X201027695Y-71649771D01*
X200214895Y-71649771D01*
X201027695Y-71262723D02*
X200214895Y-71262723D01*
X200214895Y-71069199D01*
X200253600Y-70953085D01*
X200331010Y-70875676D01*
X200408419Y-70836971D01*
X200563238Y-70798266D01*
X200679352Y-70798266D01*
X200834171Y-70836971D01*
X200911581Y-70875676D01*
X200988990Y-70953085D01*
X201027695Y-71069199D01*
X201027695Y-71262723D01*
X200718057Y-76991028D02*
X200718057Y-76371752D01*
X201027695Y-76681390D02*
X200408419Y-76681390D01*
X200214895Y-75597657D02*
X200214895Y-75984704D01*
X200601943Y-76023409D01*
X200563238Y-75984704D01*
X200524533Y-75907295D01*
X200524533Y-75713771D01*
X200563238Y-75636361D01*
X200601943Y-75597657D01*
X200679352Y-75558952D01*
X200872876Y-75558952D01*
X200950286Y-75597657D01*
X200988990Y-75636361D01*
X201027695Y-75713771D01*
X201027695Y-75907295D01*
X200988990Y-75984704D01*
X200950286Y-76023409D01*
X200214895Y-75326723D02*
X201027695Y-75055790D01*
X200214895Y-74784857D01*
X201027695Y-81090104D02*
X200640648Y-81361037D01*
X201027695Y-81554561D02*
X200214895Y-81554561D01*
X200214895Y-81244923D01*
X200253600Y-81167514D01*
X200292305Y-81128809D01*
X200369714Y-81090104D01*
X200485829Y-81090104D01*
X200563238Y-81128809D01*
X200601943Y-81167514D01*
X200640648Y-81244923D01*
X200640648Y-81554561D01*
X200988990Y-80780466D02*
X201027695Y-80664352D01*
X201027695Y-80470828D01*
X200988990Y-80393418D01*
X200950286Y-80354714D01*
X200872876Y-80316009D01*
X200795467Y-80316009D01*
X200718057Y-80354714D01*
X200679352Y-80393418D01*
X200640648Y-80470828D01*
X200601943Y-80625647D01*
X200563238Y-80703056D01*
X200524533Y-80741761D01*
X200447124Y-80780466D01*
X200369714Y-80780466D01*
X200292305Y-80741761D01*
X200253600Y-80703056D01*
X200214895Y-80625647D01*
X200214895Y-80432123D01*
X200253600Y-80316009D01*
X200214895Y-80083780D02*
X200214895Y-79619323D01*
X201027695Y-79851552D02*
X200214895Y-79851552D01*
X200214895Y-68835209D02*
X201027695Y-68564276D01*
X200214895Y-68293343D01*
X201027695Y-68022409D02*
X200214895Y-68022409D01*
X201027695Y-67635361D02*
X200214895Y-67635361D01*
X201027695Y-67170904D01*
X200214895Y-67170904D01*
X197162057Y-80111600D02*
X197162057Y-79492324D01*
X197471695Y-79801962D02*
X196852419Y-79801962D01*
X196658895Y-79182686D02*
X196658895Y-78679524D01*
X196968533Y-78950457D01*
X196968533Y-78834343D01*
X197007238Y-78756933D01*
X197045943Y-78718229D01*
X197123352Y-78679524D01*
X197316876Y-78679524D01*
X197394286Y-78718229D01*
X197432990Y-78756933D01*
X197471695Y-78834343D01*
X197471695Y-79066571D01*
X197432990Y-79143981D01*
X197394286Y-79182686D01*
X197394286Y-78331181D02*
X197432990Y-78292476D01*
X197471695Y-78331181D01*
X197432990Y-78369886D01*
X197394286Y-78331181D01*
X197471695Y-78331181D01*
X196658895Y-78021543D02*
X196658895Y-77518381D01*
X196968533Y-77789314D01*
X196968533Y-77673200D01*
X197007238Y-77595790D01*
X197045943Y-77557086D01*
X197123352Y-77518381D01*
X197316876Y-77518381D01*
X197394286Y-77557086D01*
X197432990Y-77595790D01*
X197471695Y-77673200D01*
X197471695Y-77905428D01*
X197432990Y-77982838D01*
X197394286Y-78021543D01*
X196658895Y-77286152D02*
X197471695Y-77015219D01*
X196658895Y-76744286D01*
X200795467Y-63445571D02*
X200795467Y-63058523D01*
X201027695Y-63522980D02*
X200214895Y-63252047D01*
X201027695Y-62981114D01*
X200214895Y-62555361D02*
X200214895Y-62477952D01*
X200253600Y-62400542D01*
X200292305Y-62361837D01*
X200369714Y-62323133D01*
X200524533Y-62284428D01*
X200718057Y-62284428D01*
X200872876Y-62323133D01*
X200950286Y-62361837D01*
X200988990Y-62400542D01*
X201027695Y-62477952D01*
X201027695Y-62555361D01*
X200988990Y-62632771D01*
X200950286Y-62671475D01*
X200872876Y-62710180D01*
X200718057Y-62748885D01*
X200524533Y-62748885D01*
X200369714Y-62710180D01*
X200292305Y-62671475D01*
X200253600Y-62632771D01*
X200214895Y-62555361D01*
X200795467Y-60905571D02*
X200795467Y-60518523D01*
X201027695Y-60982980D02*
X200214895Y-60712047D01*
X201027695Y-60441114D01*
X201027695Y-59744428D02*
X201027695Y-60208885D01*
X201027695Y-59976656D02*
X200214895Y-59976656D01*
X200331010Y-60054066D01*
X200408419Y-60131475D01*
X200447124Y-60208885D01*
X200795467Y-58365571D02*
X200795467Y-57978523D01*
X201027695Y-58442980D02*
X200214895Y-58172047D01*
X201027695Y-57901114D01*
X200292305Y-57668885D02*
X200253600Y-57630180D01*
X200214895Y-57552771D01*
X200214895Y-57359247D01*
X200253600Y-57281837D01*
X200292305Y-57243133D01*
X200369714Y-57204428D01*
X200447124Y-57204428D01*
X200563238Y-57243133D01*
X201027695Y-57707590D01*
X201027695Y-57204428D01*
X200795467Y-55825571D02*
X200795467Y-55438523D01*
X201027695Y-55902980D02*
X200214895Y-55632047D01*
X201027695Y-55361114D01*
X200214895Y-55167590D02*
X200214895Y-54664428D01*
X200524533Y-54935361D01*
X200524533Y-54819247D01*
X200563238Y-54741837D01*
X200601943Y-54703133D01*
X200679352Y-54664428D01*
X200872876Y-54664428D01*
X200950286Y-54703133D01*
X200988990Y-54741837D01*
X201027695Y-54819247D01*
X201027695Y-55051475D01*
X200988990Y-55128885D01*
X200950286Y-55167590D01*
X200795467Y-53285571D02*
X200795467Y-52898523D01*
X201027695Y-53362980D02*
X200214895Y-53092047D01*
X201027695Y-52821114D01*
X200485829Y-52201837D02*
X201027695Y-52201837D01*
X200176190Y-52395361D02*
X200756762Y-52588885D01*
X200756762Y-52085723D01*
X200795467Y-50745571D02*
X200795467Y-50358523D01*
X201027695Y-50822980D02*
X200214895Y-50552047D01*
X201027695Y-50281114D01*
X200214895Y-49623133D02*
X200214895Y-50010180D01*
X200601943Y-50048885D01*
X200563238Y-50010180D01*
X200524533Y-49932771D01*
X200524533Y-49739247D01*
X200563238Y-49661837D01*
X200601943Y-49623133D01*
X200679352Y-49584428D01*
X200872876Y-49584428D01*
X200950286Y-49623133D01*
X200988990Y-49661837D01*
X201027695Y-49739247D01*
X201027695Y-49932771D01*
X200988990Y-50010180D01*
X200950286Y-50048885D01*
X148691600Y-87995276D02*
X148652895Y-88072685D01*
X148652895Y-88188800D01*
X148691600Y-88304914D01*
X148769010Y-88382323D01*
X148846419Y-88421028D01*
X149001238Y-88459733D01*
X149117352Y-88459733D01*
X149272171Y-88421028D01*
X149349581Y-88382323D01*
X149426990Y-88304914D01*
X149465695Y-88188800D01*
X149465695Y-88111390D01*
X149426990Y-87995276D01*
X149388286Y-87956571D01*
X149117352Y-87956571D01*
X149117352Y-88111390D01*
X149465695Y-87608228D02*
X148652895Y-87608228D01*
X149465695Y-87143771D01*
X148652895Y-87143771D01*
X149465695Y-86756723D02*
X148652895Y-86756723D01*
X148652895Y-86563199D01*
X148691600Y-86447085D01*
X148769010Y-86369676D01*
X148846419Y-86330971D01*
X149001238Y-86292266D01*
X149117352Y-86292266D01*
X149272171Y-86330971D01*
X149349581Y-86369676D01*
X149426990Y-86447085D01*
X149465695Y-86563199D01*
X149465695Y-86756723D01*
X149592695Y-85244819D02*
X149592695Y-85709276D01*
X149592695Y-85477047D02*
X148779895Y-85477047D01*
X148896010Y-85554457D01*
X148973419Y-85631866D01*
X149012124Y-85709276D01*
X148779895Y-84973886D02*
X148779895Y-84470724D01*
X149089533Y-84741657D01*
X149089533Y-84625543D01*
X149128238Y-84548133D01*
X149166943Y-84509429D01*
X149244352Y-84470724D01*
X149437876Y-84470724D01*
X149515286Y-84509429D01*
X149553990Y-84548133D01*
X149592695Y-84625543D01*
X149592695Y-84857771D01*
X149553990Y-84935181D01*
X149515286Y-84973886D01*
X149592695Y-82704819D02*
X149592695Y-83169276D01*
X149592695Y-82937047D02*
X148779895Y-82937047D01*
X148896010Y-83014457D01*
X148973419Y-83091866D01*
X149012124Y-83169276D01*
X148857305Y-82395181D02*
X148818600Y-82356476D01*
X148779895Y-82279067D01*
X148779895Y-82085543D01*
X148818600Y-82008133D01*
X148857305Y-81969429D01*
X148934714Y-81930724D01*
X149012124Y-81930724D01*
X149128238Y-81969429D01*
X149592695Y-82433886D01*
X149592695Y-81930724D01*
X149592695Y-80164819D02*
X149592695Y-80629276D01*
X149592695Y-80397047D02*
X148779895Y-80397047D01*
X148896010Y-80474457D01*
X148973419Y-80551866D01*
X149012124Y-80629276D01*
X149592695Y-79390724D02*
X149592695Y-79855181D01*
X149592695Y-79622952D02*
X148779895Y-79622952D01*
X148896010Y-79700362D01*
X148973419Y-79777771D01*
X149012124Y-79855181D01*
X149233467Y-90864267D02*
X149233467Y-90477219D01*
X149465695Y-90941676D02*
X148652895Y-90670743D01*
X149465695Y-90399810D01*
X149465695Y-89664419D02*
X149078648Y-89935352D01*
X149465695Y-90128876D02*
X148652895Y-90128876D01*
X148652895Y-89819238D01*
X148691600Y-89741829D01*
X148730305Y-89703124D01*
X148807714Y-89664419D01*
X148923829Y-89664419D01*
X149001238Y-89703124D01*
X149039943Y-89741829D01*
X149078648Y-89819238D01*
X149078648Y-90128876D01*
X149039943Y-89045143D02*
X149039943Y-89316076D01*
X149465695Y-89316076D02*
X148652895Y-89316076D01*
X148652895Y-88929029D01*
X149592695Y-77624819D02*
X149592695Y-78089276D01*
X149592695Y-77857047D02*
X148779895Y-77857047D01*
X148896010Y-77934457D01*
X148973419Y-78011866D01*
X149012124Y-78089276D01*
X148779895Y-77121657D02*
X148779895Y-77044248D01*
X148818600Y-76966838D01*
X148857305Y-76928133D01*
X148934714Y-76889429D01*
X149089533Y-76850724D01*
X149283057Y-76850724D01*
X149437876Y-76889429D01*
X149515286Y-76928133D01*
X149553990Y-76966838D01*
X149592695Y-77044248D01*
X149592695Y-77121657D01*
X149553990Y-77199067D01*
X149515286Y-77237771D01*
X149437876Y-77276476D01*
X149283057Y-77315181D01*
X149089533Y-77315181D01*
X148934714Y-77276476D01*
X148857305Y-77237771D01*
X148818600Y-77199067D01*
X148779895Y-77121657D01*
X149592695Y-75084818D02*
X149592695Y-74929999D01*
X149553990Y-74852590D01*
X149515286Y-74813885D01*
X149399171Y-74736476D01*
X149244352Y-74697771D01*
X148934714Y-74697771D01*
X148857305Y-74736476D01*
X148818600Y-74775180D01*
X148779895Y-74852590D01*
X148779895Y-75007409D01*
X148818600Y-75084818D01*
X148857305Y-75123523D01*
X148934714Y-75162228D01*
X149128238Y-75162228D01*
X149205648Y-75123523D01*
X149244352Y-75084818D01*
X149283057Y-75007409D01*
X149283057Y-74852590D01*
X149244352Y-74775180D01*
X149205648Y-74736476D01*
X149128238Y-74697771D01*
X149128238Y-72467409D02*
X149089533Y-72544818D01*
X149050829Y-72583523D01*
X148973419Y-72622228D01*
X148934714Y-72622228D01*
X148857305Y-72583523D01*
X148818600Y-72544818D01*
X148779895Y-72467409D01*
X148779895Y-72312590D01*
X148818600Y-72235180D01*
X148857305Y-72196476D01*
X148934714Y-72157771D01*
X148973419Y-72157771D01*
X149050829Y-72196476D01*
X149089533Y-72235180D01*
X149128238Y-72312590D01*
X149128238Y-72467409D01*
X149166943Y-72544818D01*
X149205648Y-72583523D01*
X149283057Y-72622228D01*
X149437876Y-72622228D01*
X149515286Y-72583523D01*
X149553990Y-72544818D01*
X149592695Y-72467409D01*
X149592695Y-72312590D01*
X149553990Y-72235180D01*
X149515286Y-72196476D01*
X149437876Y-72157771D01*
X149283057Y-72157771D01*
X149205648Y-72196476D01*
X149166943Y-72235180D01*
X149128238Y-72312590D01*
X148779895Y-68215933D02*
X148779895Y-67674066D01*
X149592695Y-68022409D01*
X148779895Y-65250180D02*
X148779895Y-65404999D01*
X148818600Y-65482409D01*
X148857305Y-65521114D01*
X148973419Y-65598523D01*
X149128238Y-65637228D01*
X149437876Y-65637228D01*
X149515286Y-65598523D01*
X149553990Y-65559818D01*
X149592695Y-65482409D01*
X149592695Y-65327590D01*
X149553990Y-65250180D01*
X149515286Y-65211476D01*
X149437876Y-65172771D01*
X149244352Y-65172771D01*
X149166943Y-65211476D01*
X149128238Y-65250180D01*
X149089533Y-65327590D01*
X149089533Y-65482409D01*
X149128238Y-65559818D01*
X149166943Y-65598523D01*
X149244352Y-65637228D01*
X148779895Y-62671476D02*
X148779895Y-63058523D01*
X149166943Y-63097228D01*
X149128238Y-63058523D01*
X149089533Y-62981114D01*
X149089533Y-62787590D01*
X149128238Y-62710180D01*
X149166943Y-62671476D01*
X149244352Y-62632771D01*
X149437876Y-62632771D01*
X149515286Y-62671476D01*
X149553990Y-62710180D01*
X149592695Y-62787590D01*
X149592695Y-62981114D01*
X149553990Y-63058523D01*
X149515286Y-63097228D01*
X149050829Y-60170180D02*
X149592695Y-60170180D01*
X148741190Y-60363704D02*
X149321762Y-60557228D01*
X149321762Y-60054066D01*
X148779895Y-58055933D02*
X148779895Y-57552771D01*
X149089533Y-57823704D01*
X149089533Y-57707590D01*
X149128238Y-57630180D01*
X149166943Y-57591476D01*
X149244352Y-57552771D01*
X149437876Y-57552771D01*
X149515286Y-57591476D01*
X149553990Y-57630180D01*
X149592695Y-57707590D01*
X149592695Y-57939818D01*
X149553990Y-58017228D01*
X149515286Y-58055933D01*
X148857305Y-55477228D02*
X148818600Y-55438523D01*
X148779895Y-55361114D01*
X148779895Y-55167590D01*
X148818600Y-55090180D01*
X148857305Y-55051476D01*
X148934714Y-55012771D01*
X149012124Y-55012771D01*
X149128238Y-55051476D01*
X149592695Y-55515933D01*
X149592695Y-55012771D01*
X148779895Y-53324275D02*
X148779895Y-52859818D01*
X149592695Y-53092047D02*
X148779895Y-53092047D01*
X148779895Y-52666295D02*
X149592695Y-52124428D01*
X148779895Y-52124428D02*
X149592695Y-52666295D01*
X149592695Y-50300466D02*
X149205648Y-50571399D01*
X149592695Y-50764923D02*
X148779895Y-50764923D01*
X148779895Y-50455285D01*
X148818600Y-50377876D01*
X148857305Y-50339171D01*
X148934714Y-50300466D01*
X149050829Y-50300466D01*
X149128238Y-50339171D01*
X149166943Y-50377876D01*
X149205648Y-50455285D01*
X149205648Y-50764923D01*
X148779895Y-50029533D02*
X149592695Y-49487666D01*
X148779895Y-49487666D02*
X149592695Y-50029533D01*
X149553990Y-93696971D02*
X149592695Y-93580857D01*
X149592695Y-93387333D01*
X149553990Y-93309923D01*
X149515286Y-93271219D01*
X149437876Y-93232514D01*
X149360467Y-93232514D01*
X149283057Y-93271219D01*
X149244352Y-93309923D01*
X149205648Y-93387333D01*
X149166943Y-93542152D01*
X149128238Y-93619561D01*
X149089533Y-93658266D01*
X149012124Y-93696971D01*
X148934714Y-93696971D01*
X148857305Y-93658266D01*
X148818600Y-93619561D01*
X148779895Y-93542152D01*
X148779895Y-93348628D01*
X148818600Y-93232514D01*
X149592695Y-92884171D02*
X148779895Y-92884171D01*
X148779895Y-92690647D01*
X148818600Y-92574533D01*
X148896010Y-92497124D01*
X148973419Y-92458419D01*
X149128238Y-92419714D01*
X149244352Y-92419714D01*
X149399171Y-92458419D01*
X149476581Y-92497124D01*
X149553990Y-92574533D01*
X149592695Y-92690647D01*
X149592695Y-92884171D01*
X149360467Y-92110076D02*
X149360467Y-91723028D01*
X149592695Y-92187485D02*
X148779895Y-91916552D01*
X149592695Y-91645619D01*
X149553990Y-96217619D02*
X149592695Y-96101505D01*
X149592695Y-95907981D01*
X149553990Y-95830571D01*
X149515286Y-95791867D01*
X149437876Y-95753162D01*
X149360467Y-95753162D01*
X149283057Y-95791867D01*
X149244352Y-95830571D01*
X149205648Y-95907981D01*
X149166943Y-96062800D01*
X149128238Y-96140209D01*
X149089533Y-96178914D01*
X149012124Y-96217619D01*
X148934714Y-96217619D01*
X148857305Y-96178914D01*
X148818600Y-96140209D01*
X148779895Y-96062800D01*
X148779895Y-95869276D01*
X148818600Y-95753162D01*
X149515286Y-94940362D02*
X149553990Y-94979067D01*
X149592695Y-95095181D01*
X149592695Y-95172591D01*
X149553990Y-95288705D01*
X149476581Y-95366114D01*
X149399171Y-95404819D01*
X149244352Y-95443524D01*
X149128238Y-95443524D01*
X148973419Y-95404819D01*
X148896010Y-95366114D01*
X148818600Y-95288705D01*
X148779895Y-95172591D01*
X148779895Y-95095181D01*
X148818600Y-94979067D01*
X148857305Y-94940362D01*
X149592695Y-94204972D02*
X149592695Y-94592019D01*
X148779895Y-94592019D01*
X201027695Y-84746495D02*
X200214895Y-84746495D01*
X200214895Y-84204628D02*
X200214895Y-84049809D01*
X200253600Y-83972400D01*
X200331010Y-83894990D01*
X200485829Y-83856285D01*
X200756762Y-83856285D01*
X200911581Y-83894990D01*
X200988990Y-83972400D01*
X201027695Y-84049809D01*
X201027695Y-84204628D01*
X200988990Y-84282038D01*
X200911581Y-84359447D01*
X200756762Y-84398152D01*
X200485829Y-84398152D01*
X200331010Y-84359447D01*
X200253600Y-84282038D01*
X200214895Y-84204628D01*
X201027695Y-83043485D02*
X200640648Y-83314418D01*
X201027695Y-83507942D02*
X200214895Y-83507942D01*
X200214895Y-83198304D01*
X200253600Y-83120895D01*
X200292305Y-83082190D01*
X200369714Y-83043485D01*
X200485829Y-83043485D01*
X200563238Y-83082190D01*
X200601943Y-83120895D01*
X200640648Y-83198304D01*
X200640648Y-83507942D01*
X200601943Y-82424209D02*
X200601943Y-82695142D01*
X201027695Y-82695142D02*
X200214895Y-82695142D01*
X200214895Y-82308095D01*
X184895067Y-94042895D02*
X184895067Y-94623467D01*
X184856363Y-94739581D01*
X184778953Y-94816990D01*
X184662839Y-94855695D01*
X184585429Y-94855695D01*
X185707867Y-94855695D02*
X185243410Y-94855695D01*
X185475639Y-94855695D02*
X185475639Y-94042895D01*
X185398229Y-94159010D01*
X185320820Y-94236419D01*
X185243410Y-94275124D01*
X190538705Y-94855695D02*
X190538705Y-94042895D01*
X190809638Y-94623467D01*
X191080571Y-94042895D01*
X191080571Y-94855695D01*
X191467619Y-94855695D02*
X191467619Y-94042895D01*
X191854667Y-94855695D02*
X191854667Y-94042895D01*
X192048191Y-94042895D01*
X192164305Y-94081600D01*
X192241714Y-94159010D01*
X192280419Y-94236419D01*
X192319124Y-94391238D01*
X192319124Y-94507352D01*
X192280419Y-94662171D01*
X192241714Y-94739581D01*
X192164305Y-94816990D01*
X192048191Y-94855695D01*
X191854667Y-94855695D01*
X192667467Y-94855695D02*
X192667467Y-94042895D01*
X192860991Y-94933105D02*
X193480267Y-94933105D01*
X193673791Y-94855695D02*
X193673791Y-94042895D01*
X194060839Y-94855695D02*
X194060839Y-94042895D01*
X194525296Y-94855695D01*
X194525296Y-94042895D01*
X190936638Y-107047695D02*
X190936638Y-106234895D01*
X191130162Y-106234895D01*
X191246276Y-106273600D01*
X191323685Y-106351010D01*
X191362390Y-106428419D01*
X191401095Y-106583238D01*
X191401095Y-106699352D01*
X191362390Y-106854171D01*
X191323685Y-106931581D01*
X191246276Y-107008990D01*
X191130162Y-107047695D01*
X190936638Y-107047695D01*
X191749438Y-107047695D02*
X191749438Y-106234895D01*
X192136486Y-107047695D02*
X192136486Y-106234895D01*
X192600943Y-107047695D01*
X192600943Y-106234895D01*
X192987991Y-106738057D02*
X193607267Y-106738057D01*
X194381362Y-106234895D02*
X193994315Y-106234895D01*
X193955610Y-106621943D01*
X193994315Y-106583238D01*
X194071724Y-106544533D01*
X194265248Y-106544533D01*
X194342658Y-106583238D01*
X194381362Y-106621943D01*
X194420067Y-106699352D01*
X194420067Y-106892876D01*
X194381362Y-106970286D01*
X194342658Y-107008990D01*
X194265248Y-107047695D01*
X194071724Y-107047695D01*
X193994315Y-107008990D01*
X193955610Y-106970286D01*
X164321067Y-94042895D02*
X164321067Y-94623467D01*
X164282363Y-94739581D01*
X164204953Y-94816990D01*
X164088839Y-94855695D01*
X164011429Y-94855695D01*
X164669410Y-94120305D02*
X164708115Y-94081600D01*
X164785524Y-94042895D01*
X164979048Y-94042895D01*
X165056458Y-94081600D01*
X165095162Y-94120305D01*
X165133867Y-94197714D01*
X165133867Y-94275124D01*
X165095162Y-94391238D01*
X164630705Y-94855695D01*
X165133867Y-94855695D01*
X169168838Y-94855695D02*
X169168838Y-94042895D01*
X169439771Y-94623467D01*
X169710704Y-94042895D01*
X169710704Y-94855695D01*
X170097752Y-94855695D02*
X170097752Y-94042895D01*
X170484800Y-94855695D02*
X170484800Y-94042895D01*
X170678324Y-94042895D01*
X170794438Y-94081600D01*
X170871847Y-94159010D01*
X170910552Y-94236419D01*
X170949257Y-94391238D01*
X170949257Y-94507352D01*
X170910552Y-94662171D01*
X170871847Y-94739581D01*
X170794438Y-94816990D01*
X170678324Y-94855695D01*
X170484800Y-94855695D01*
X171297600Y-94855695D02*
X171297600Y-94042895D01*
X171491124Y-94933105D02*
X172110400Y-94933105D01*
X172458743Y-94042895D02*
X172613562Y-94042895D01*
X172690971Y-94081600D01*
X172768381Y-94159010D01*
X172807086Y-94313829D01*
X172807086Y-94584762D01*
X172768381Y-94739581D01*
X172690971Y-94816990D01*
X172613562Y-94855695D01*
X172458743Y-94855695D01*
X172381333Y-94816990D01*
X172303924Y-94739581D01*
X172265219Y-94584762D01*
X172265219Y-94313829D01*
X172303924Y-94159010D01*
X172381333Y-94081600D01*
X172458743Y-94042895D01*
X173155429Y-94042895D02*
X173155429Y-94700876D01*
X173194134Y-94778286D01*
X173232838Y-94816990D01*
X173310248Y-94855695D01*
X173465067Y-94855695D01*
X173542476Y-94816990D01*
X173581181Y-94778286D01*
X173619886Y-94700876D01*
X173619886Y-94042895D01*
X173890820Y-94042895D02*
X174355277Y-94042895D01*
X174123048Y-94855695D02*
X174123048Y-94042895D01*
X170362638Y-107047695D02*
X170362638Y-106234895D01*
X170556162Y-106234895D01*
X170672276Y-106273600D01*
X170749685Y-106351010D01*
X170788390Y-106428419D01*
X170827095Y-106583238D01*
X170827095Y-106699352D01*
X170788390Y-106854171D01*
X170749685Y-106931581D01*
X170672276Y-107008990D01*
X170556162Y-107047695D01*
X170362638Y-107047695D01*
X171175438Y-107047695D02*
X171175438Y-106234895D01*
X171562486Y-107047695D02*
X171562486Y-106234895D01*
X172026943Y-107047695D01*
X172026943Y-106234895D01*
X172413991Y-106738057D02*
X173033267Y-106738057D01*
X173807362Y-106234895D02*
X173420315Y-106234895D01*
X173381610Y-106621943D01*
X173420315Y-106583238D01*
X173497724Y-106544533D01*
X173691248Y-106544533D01*
X173768658Y-106583238D01*
X173807362Y-106621943D01*
X173846067Y-106699352D01*
X173846067Y-106892876D01*
X173807362Y-106970286D01*
X173768658Y-107008990D01*
X173691248Y-107047695D01*
X173497724Y-107047695D01*
X173420315Y-107008990D01*
X173381610Y-106970286D01*
X153399067Y-100519895D02*
X153399067Y-101100467D01*
X153360363Y-101216581D01*
X153282953Y-101293990D01*
X153166839Y-101332695D01*
X153089429Y-101332695D01*
X153708705Y-100519895D02*
X154211867Y-100519895D01*
X153940934Y-100829533D01*
X154057048Y-100829533D01*
X154134458Y-100868238D01*
X154173162Y-100906943D01*
X154211867Y-100984352D01*
X154211867Y-101177876D01*
X154173162Y-101255286D01*
X154134458Y-101293990D01*
X154057048Y-101332695D01*
X153824820Y-101332695D01*
X153747410Y-101293990D01*
X153708705Y-101255286D01*
X155939067Y-48449895D02*
X155939067Y-49030467D01*
X155900363Y-49146581D01*
X155822953Y-49223990D01*
X155706839Y-49262695D01*
X155629429Y-49262695D01*
X156674458Y-48720829D02*
X156674458Y-49262695D01*
X156480934Y-48411190D02*
X156287410Y-48991762D01*
X156790572Y-48991762D01*
X184463267Y-46632990D02*
X184579381Y-46671695D01*
X184772905Y-46671695D01*
X184850315Y-46632990D01*
X184889019Y-46594286D01*
X184927724Y-46516876D01*
X184927724Y-46439467D01*
X184889019Y-46362057D01*
X184850315Y-46323352D01*
X184772905Y-46284648D01*
X184618086Y-46245943D01*
X184540677Y-46207238D01*
X184501972Y-46168533D01*
X184463267Y-46091124D01*
X184463267Y-46013714D01*
X184501972Y-45936305D01*
X184540677Y-45897600D01*
X184618086Y-45858895D01*
X184811610Y-45858895D01*
X184927724Y-45897600D01*
X185198657Y-45858895D02*
X185392181Y-46671695D01*
X185547000Y-46091124D01*
X185701819Y-46671695D01*
X185895343Y-45858895D01*
X186630733Y-46671695D02*
X186166276Y-46671695D01*
X186398505Y-46671695D02*
X186398505Y-45858895D01*
X186321095Y-45975010D01*
X186243686Y-46052419D01*
X186166276Y-46091124D01*
X153812724Y-105230990D02*
X153928838Y-105269695D01*
X154122362Y-105269695D01*
X154199772Y-105230990D01*
X154238476Y-105192286D01*
X154277181Y-105114876D01*
X154277181Y-105037467D01*
X154238476Y-104960057D01*
X154199772Y-104921352D01*
X154122362Y-104882648D01*
X153967543Y-104843943D01*
X153890134Y-104805238D01*
X153851429Y-104766533D01*
X153812724Y-104689124D01*
X153812724Y-104611714D01*
X153851429Y-104534305D01*
X153890134Y-104495600D01*
X153967543Y-104456895D01*
X154161067Y-104456895D01*
X154277181Y-104495600D01*
X155051276Y-105269695D02*
X154586819Y-105269695D01*
X154819048Y-105269695D02*
X154819048Y-104456895D01*
X154741638Y-104573010D01*
X154664229Y-104650419D01*
X154586819Y-104689124D01*
X168565286Y-69985466D02*
X168603990Y-70024171D01*
X168642695Y-70140285D01*
X168642695Y-70217695D01*
X168603990Y-70333809D01*
X168526581Y-70411218D01*
X168449171Y-70449923D01*
X168294352Y-70488628D01*
X168178238Y-70488628D01*
X168023419Y-70449923D01*
X167946010Y-70411218D01*
X167868600Y-70333809D01*
X167829895Y-70217695D01*
X167829895Y-70140285D01*
X167868600Y-70024171D01*
X167907305Y-69985466D01*
X168642695Y-69211371D02*
X168642695Y-69675828D01*
X168642695Y-69443599D02*
X167829895Y-69443599D01*
X167946010Y-69521009D01*
X168023419Y-69598418D01*
X168062124Y-69675828D01*
X181977695Y-86959923D02*
X181164895Y-86959923D01*
X181164895Y-86766399D01*
X181203600Y-86650285D01*
X181281010Y-86572876D01*
X181358419Y-86534171D01*
X181513238Y-86495466D01*
X181629352Y-86495466D01*
X181784171Y-86534171D01*
X181861581Y-86572876D01*
X181938990Y-86650285D01*
X181977695Y-86766399D01*
X181977695Y-86959923D01*
X181977695Y-85721371D02*
X181977695Y-86185828D01*
X181977695Y-85953599D02*
X181164895Y-85953599D01*
X181281010Y-86031009D01*
X181358419Y-86108418D01*
X181397124Y-86185828D01*
X175759534Y-91172695D02*
X175488601Y-90785648D01*
X175295077Y-91172695D02*
X175295077Y-90359895D01*
X175604715Y-90359895D01*
X175682124Y-90398600D01*
X175720829Y-90437305D01*
X175759534Y-90514714D01*
X175759534Y-90630829D01*
X175720829Y-90708238D01*
X175682124Y-90746943D01*
X175604715Y-90785648D01*
X175295077Y-90785648D01*
X176533629Y-91172695D02*
X176069172Y-91172695D01*
X176301401Y-91172695D02*
X176301401Y-90359895D01*
X176223991Y-90476010D01*
X176146582Y-90553419D01*
X176069172Y-90592124D01*
X187697534Y-79234695D02*
X187426601Y-78847648D01*
X187233077Y-79234695D02*
X187233077Y-78421895D01*
X187542715Y-78421895D01*
X187620124Y-78460600D01*
X187658829Y-78499305D01*
X187697534Y-78576714D01*
X187697534Y-78692829D01*
X187658829Y-78770238D01*
X187620124Y-78808943D01*
X187542715Y-78847648D01*
X187233077Y-78847648D01*
X188007172Y-78499305D02*
X188045877Y-78460600D01*
X188123286Y-78421895D01*
X188316810Y-78421895D01*
X188394220Y-78460600D01*
X188432924Y-78499305D01*
X188471629Y-78576714D01*
X188471629Y-78654124D01*
X188432924Y-78770238D01*
X187968467Y-79234695D01*
X188471629Y-79234695D01*
X175759534Y-88632695D02*
X175488601Y-88245648D01*
X175295077Y-88632695D02*
X175295077Y-87819895D01*
X175604715Y-87819895D01*
X175682124Y-87858600D01*
X175720829Y-87897305D01*
X175759534Y-87974714D01*
X175759534Y-88090829D01*
X175720829Y-88168238D01*
X175682124Y-88206943D01*
X175604715Y-88245648D01*
X175295077Y-88245648D01*
X176030467Y-87819895D02*
X176533629Y-87819895D01*
X176262696Y-88129533D01*
X176378810Y-88129533D01*
X176456220Y-88168238D01*
X176494924Y-88206943D01*
X176533629Y-88284352D01*
X176533629Y-88477876D01*
X176494924Y-88555286D01*
X176456220Y-88593990D01*
X176378810Y-88632695D01*
X176146582Y-88632695D01*
X176069172Y-88593990D01*
X176030467Y-88555286D01*
X175759534Y-86092695D02*
X175488601Y-85705648D01*
X175295077Y-86092695D02*
X175295077Y-85279895D01*
X175604715Y-85279895D01*
X175682124Y-85318600D01*
X175720829Y-85357305D01*
X175759534Y-85434714D01*
X175759534Y-85550829D01*
X175720829Y-85628238D01*
X175682124Y-85666943D01*
X175604715Y-85705648D01*
X175295077Y-85705648D01*
X176456220Y-85550829D02*
X176456220Y-86092695D01*
X176262696Y-85241190D02*
X176069172Y-85821762D01*
X176572334Y-85821762D01*
X182109534Y-60057695D02*
X181838601Y-59670648D01*
X181645077Y-60057695D02*
X181645077Y-59244895D01*
X181954715Y-59244895D01*
X182032124Y-59283600D01*
X182070829Y-59322305D01*
X182109534Y-59399714D01*
X182109534Y-59515829D01*
X182070829Y-59593238D01*
X182032124Y-59631943D01*
X181954715Y-59670648D01*
X181645077Y-59670648D01*
X182844924Y-59244895D02*
X182457877Y-59244895D01*
X182419172Y-59631943D01*
X182457877Y-59593238D01*
X182535286Y-59554533D01*
X182728810Y-59554533D01*
X182806220Y-59593238D01*
X182844924Y-59631943D01*
X182883629Y-59709352D01*
X182883629Y-59902876D01*
X182844924Y-59980286D01*
X182806220Y-60018990D01*
X182728810Y-60057695D01*
X182535286Y-60057695D01*
X182457877Y-60018990D01*
X182419172Y-59980286D01*
X187824534Y-76567695D02*
X187553601Y-76180648D01*
X187360077Y-76567695D02*
X187360077Y-75754895D01*
X187669715Y-75754895D01*
X187747124Y-75793600D01*
X187785829Y-75832305D01*
X187824534Y-75909714D01*
X187824534Y-76025829D01*
X187785829Y-76103238D01*
X187747124Y-76141943D01*
X187669715Y-76180648D01*
X187360077Y-76180648D01*
X188521220Y-75754895D02*
X188366401Y-75754895D01*
X188288991Y-75793600D01*
X188250286Y-75832305D01*
X188172877Y-75948419D01*
X188134172Y-76103238D01*
X188134172Y-76412876D01*
X188172877Y-76490286D01*
X188211582Y-76528990D01*
X188288991Y-76567695D01*
X188443810Y-76567695D01*
X188521220Y-76528990D01*
X188559924Y-76490286D01*
X188598629Y-76412876D01*
X188598629Y-76219352D01*
X188559924Y-76141943D01*
X188521220Y-76103238D01*
X188443810Y-76064533D01*
X188288991Y-76064533D01*
X188211582Y-76103238D01*
X188172877Y-76141943D01*
X188134172Y-76219352D01*
X182109534Y-62597695D02*
X181838601Y-62210648D01*
X181645077Y-62597695D02*
X181645077Y-61784895D01*
X181954715Y-61784895D01*
X182032124Y-61823600D01*
X182070829Y-61862305D01*
X182109534Y-61939714D01*
X182109534Y-62055829D01*
X182070829Y-62133238D01*
X182032124Y-62171943D01*
X181954715Y-62210648D01*
X181645077Y-62210648D01*
X182380467Y-61784895D02*
X182922334Y-61784895D01*
X182573991Y-62597695D01*
X182109534Y-57517695D02*
X181838601Y-57130648D01*
X181645077Y-57517695D02*
X181645077Y-56704895D01*
X181954715Y-56704895D01*
X182032124Y-56743600D01*
X182070829Y-56782305D01*
X182109534Y-56859714D01*
X182109534Y-56975829D01*
X182070829Y-57053238D01*
X182032124Y-57091943D01*
X181954715Y-57130648D01*
X181645077Y-57130648D01*
X182573991Y-57053238D02*
X182496582Y-57014533D01*
X182457877Y-56975829D01*
X182419172Y-56898419D01*
X182419172Y-56859714D01*
X182457877Y-56782305D01*
X182496582Y-56743600D01*
X182573991Y-56704895D01*
X182728810Y-56704895D01*
X182806220Y-56743600D01*
X182844924Y-56782305D01*
X182883629Y-56859714D01*
X182883629Y-56898419D01*
X182844924Y-56975829D01*
X182806220Y-57014533D01*
X182728810Y-57053238D01*
X182573991Y-57053238D01*
X182496582Y-57091943D01*
X182457877Y-57130648D01*
X182419172Y-57208057D01*
X182419172Y-57362876D01*
X182457877Y-57440286D01*
X182496582Y-57478990D01*
X182573991Y-57517695D01*
X182728810Y-57517695D01*
X182806220Y-57478990D01*
X182844924Y-57440286D01*
X182883629Y-57362876D01*
X182883629Y-57208057D01*
X182844924Y-57130648D01*
X182806220Y-57091943D01*
X182728810Y-57053238D01*
X166186990Y-88982276D02*
X166225695Y-88866162D01*
X166225695Y-88672638D01*
X166186990Y-88595228D01*
X166148286Y-88556524D01*
X166070876Y-88517819D01*
X165993467Y-88517819D01*
X165916057Y-88556524D01*
X165877352Y-88595228D01*
X165838648Y-88672638D01*
X165799943Y-88827457D01*
X165761238Y-88904866D01*
X165722533Y-88943571D01*
X165645124Y-88982276D01*
X165567714Y-88982276D01*
X165490305Y-88943571D01*
X165451600Y-88904866D01*
X165412895Y-88827457D01*
X165412895Y-88633933D01*
X165451600Y-88517819D01*
X165490305Y-88208181D02*
X165451600Y-88169476D01*
X165412895Y-88092067D01*
X165412895Y-87898543D01*
X165451600Y-87821133D01*
X165490305Y-87782429D01*
X165567714Y-87743724D01*
X165645124Y-87743724D01*
X165761238Y-87782429D01*
X166225695Y-88246886D01*
X166225695Y-87743724D01*
X184974895Y-90789276D02*
X185632876Y-90789276D01*
X185710286Y-90750571D01*
X185748990Y-90711867D01*
X185787695Y-90634457D01*
X185787695Y-90479638D01*
X185748990Y-90402229D01*
X185710286Y-90363524D01*
X185632876Y-90324819D01*
X184974895Y-90324819D01*
X185787695Y-89512019D02*
X185787695Y-89976476D01*
X185787695Y-89744247D02*
X184974895Y-89744247D01*
X185091010Y-89821657D01*
X185168419Y-89899066D01*
X185207124Y-89976476D01*
X155109334Y-45915943D02*
X155380267Y-45915943D01*
X155496381Y-46341695D02*
X155109334Y-46341695D01*
X155109334Y-45528895D01*
X155496381Y-45528895D01*
X155767314Y-45528895D02*
X156309181Y-46341695D01*
X156309181Y-45528895D02*
X155767314Y-46341695D01*
X156618819Y-46341695D02*
X156618819Y-45528895D01*
X156928457Y-45528895D01*
X157005866Y-45567600D01*
X157044571Y-45606305D01*
X157083276Y-45683714D01*
X157083276Y-45799829D01*
X157044571Y-45877238D01*
X157005866Y-45915943D01*
X156928457Y-45954648D01*
X156618819Y-45954648D01*
X157857371Y-46341695D02*
X157392914Y-46341695D01*
X157625143Y-46341695D02*
X157625143Y-45528895D01*
X157547733Y-45645010D01*
X157470324Y-45722419D01*
X157392914Y-45761124D01*
X177715334Y-45915943D02*
X177986267Y-45915943D01*
X178102381Y-46341695D02*
X177715334Y-46341695D01*
X177715334Y-45528895D01*
X178102381Y-45528895D01*
X178373314Y-45528895D02*
X178915181Y-46341695D01*
X178915181Y-45528895D02*
X178373314Y-46341695D01*
X179224819Y-46341695D02*
X179224819Y-45528895D01*
X179534457Y-45528895D01*
X179611866Y-45567600D01*
X179650571Y-45606305D01*
X179689276Y-45683714D01*
X179689276Y-45799829D01*
X179650571Y-45877238D01*
X179611866Y-45915943D01*
X179534457Y-45954648D01*
X179224819Y-45954648D01*
X179998914Y-45606305D02*
X180037619Y-45567600D01*
X180115028Y-45528895D01*
X180308552Y-45528895D01*
X180385962Y-45567600D01*
X180424666Y-45606305D01*
X180463371Y-45683714D01*
X180463371Y-45761124D01*
X180424666Y-45877238D01*
X179960209Y-46341695D01*
X180463371Y-46341695D01*
X161408534Y-69709695D02*
X161137601Y-69322648D01*
X160944077Y-69709695D02*
X160944077Y-68896895D01*
X161253715Y-68896895D01*
X161331124Y-68935600D01*
X161369829Y-68974305D01*
X161408534Y-69051714D01*
X161408534Y-69167829D01*
X161369829Y-69245238D01*
X161331124Y-69283943D01*
X161253715Y-69322648D01*
X160944077Y-69322648D01*
X161795582Y-69709695D02*
X161950401Y-69709695D01*
X162027810Y-69670990D01*
X162066515Y-69632286D01*
X162143924Y-69516171D01*
X162182629Y-69361352D01*
X162182629Y-69051714D01*
X162143924Y-68974305D01*
X162105220Y-68935600D01*
X162027810Y-68896895D01*
X161872991Y-68896895D01*
X161795582Y-68935600D01*
X161756877Y-68974305D01*
X161718172Y-69051714D01*
X161718172Y-69245238D01*
X161756877Y-69322648D01*
X161795582Y-69361352D01*
X161872991Y-69400057D01*
X162027810Y-69400057D01*
X162105220Y-69361352D01*
X162143924Y-69322648D01*
X162182629Y-69245238D01*
X160767486Y-67931695D02*
X160496553Y-67544648D01*
X160303029Y-67931695D02*
X160303029Y-67118895D01*
X160612667Y-67118895D01*
X160690076Y-67157600D01*
X160728781Y-67196305D01*
X160767486Y-67273714D01*
X160767486Y-67389829D01*
X160728781Y-67467238D01*
X160690076Y-67505943D01*
X160612667Y-67544648D01*
X160303029Y-67544648D01*
X161541581Y-67931695D02*
X161077124Y-67931695D01*
X161309353Y-67931695D02*
X161309353Y-67118895D01*
X161231943Y-67235010D01*
X161154534Y-67312419D01*
X161077124Y-67351124D01*
X162044743Y-67118895D02*
X162122152Y-67118895D01*
X162199562Y-67157600D01*
X162238267Y-67196305D01*
X162276971Y-67273714D01*
X162315676Y-67428533D01*
X162315676Y-67622057D01*
X162276971Y-67776876D01*
X162238267Y-67854286D01*
X162199562Y-67892990D01*
X162122152Y-67931695D01*
X162044743Y-67931695D01*
X161967333Y-67892990D01*
X161928629Y-67854286D01*
X161889924Y-67776876D01*
X161851219Y-67622057D01*
X161851219Y-67428533D01*
X161889924Y-67273714D01*
X161928629Y-67196305D01*
X161967333Y-67157600D01*
X162044743Y-67118895D01*
M02*
