G04 #@! TF.FileFunction,Legend,Bot*
%FSLAX46Y46*%
G04 Gerber Fmt 4.6, Leading zero omitted, Abs format (unit mm)*
G04 Created by KiCad (PCBNEW 4.0.7) date 04/09/18 15:19:32*
%MOMM*%
%LPD*%
G01*
G04 APERTURE LIST*
%ADD10C,0.100000*%
%ADD11C,0.152400*%
%ADD12C,0.010000*%
G04 APERTURE END LIST*
D10*
D11*
X196850000Y-56896000D02*
X194310000Y-56896000D01*
X197307200Y-57353200D02*
X197307200Y-58470800D01*
X193852800Y-57353200D02*
X193852800Y-58470800D01*
X194310000Y-58928000D02*
X196850000Y-58928000D01*
X197307200Y-58470800D02*
G75*
G02X196850000Y-58928000I-457200J0D01*
G01*
X194310000Y-58928000D02*
G75*
G02X193852800Y-58470800I0J457200D01*
G01*
X193852800Y-57353200D02*
G75*
G02X194310000Y-56896000I457200J0D01*
G01*
X196850000Y-56896000D02*
G75*
G02X197307200Y-57353200I0J-457200D01*
G01*
X196850000Y-54229000D02*
X194310000Y-54229000D01*
X197307200Y-54686200D02*
X197307200Y-55803800D01*
X193852800Y-54686200D02*
X193852800Y-55803800D01*
X194310000Y-56261000D02*
X196850000Y-56261000D01*
X197307200Y-55803800D02*
G75*
G02X196850000Y-56261000I-457200J0D01*
G01*
X194310000Y-56261000D02*
G75*
G02X193852800Y-55803800I0J457200D01*
G01*
X193852800Y-54686200D02*
G75*
G02X194310000Y-54229000I457200J0D01*
G01*
X196850000Y-54229000D02*
G75*
G02X197307200Y-54686200I0J-457200D01*
G01*
X153924000Y-54610000D02*
X153924000Y-57150000D01*
X154381200Y-54152800D02*
X155498800Y-54152800D01*
X154381200Y-57607200D02*
X155498800Y-57607200D01*
X155956000Y-57150000D02*
X155956000Y-54610000D01*
X155498800Y-54152800D02*
G75*
G02X155956000Y-54610000I0J-457200D01*
G01*
X155956000Y-57150000D02*
G75*
G02X155498800Y-57607200I-457200J0D01*
G01*
X154381200Y-57607200D02*
G75*
G02X153924000Y-57150000I0J457200D01*
G01*
X153924000Y-54610000D02*
G75*
G02X154381200Y-54152800I457200J0D01*
G01*
X179476400Y-63246000D02*
X181203600Y-63246000D01*
X179222400Y-62992000D02*
X179222400Y-61468000D01*
X181457600Y-62992000D02*
X181457600Y-61468000D01*
X181203600Y-61214000D02*
X179476400Y-61214000D01*
X179222400Y-61468000D02*
G75*
G02X179476400Y-61214000I254000J0D01*
G01*
X181203600Y-61214000D02*
G75*
G02X181457600Y-61468000I0J-254000D01*
G01*
X181457600Y-62992000D02*
G75*
G02X181203600Y-63246000I-254000J0D01*
G01*
X179476400Y-63246000D02*
G75*
G02X179222400Y-62992000I0J254000D01*
G01*
X153924000Y-58420000D02*
X153924000Y-60960000D01*
X154381200Y-57962800D02*
X155498800Y-57962800D01*
X154381200Y-61417200D02*
X155498800Y-61417200D01*
X155956000Y-60960000D02*
X155956000Y-58420000D01*
X155498800Y-57962800D02*
G75*
G02X155956000Y-58420000I0J-457200D01*
G01*
X155956000Y-60960000D02*
G75*
G02X155498800Y-61417200I-457200J0D01*
G01*
X154381200Y-61417200D02*
G75*
G02X153924000Y-60960000I0J457200D01*
G01*
X153924000Y-58420000D02*
G75*
G02X154381200Y-57962800I457200J0D01*
G01*
X179476400Y-60706000D02*
X181203600Y-60706000D01*
X179222400Y-60452000D02*
X179222400Y-58928000D01*
X181457600Y-60452000D02*
X181457600Y-58928000D01*
X181203600Y-58674000D02*
X179476400Y-58674000D01*
X179222400Y-58928000D02*
G75*
G02X179476400Y-58674000I254000J0D01*
G01*
X181203600Y-58674000D02*
G75*
G02X181457600Y-58928000I0J-254000D01*
G01*
X181457600Y-60452000D02*
G75*
G02X181203600Y-60706000I-254000J0D01*
G01*
X179476400Y-60706000D02*
G75*
G02X179222400Y-60452000I0J254000D01*
G01*
X179476400Y-58166000D02*
X181203600Y-58166000D01*
X179222400Y-57912000D02*
X179222400Y-56388000D01*
X181457600Y-57912000D02*
X181457600Y-56388000D01*
X181203600Y-56134000D02*
X179476400Y-56134000D01*
X179222400Y-56388000D02*
G75*
G02X179476400Y-56134000I254000J0D01*
G01*
X181203600Y-56134000D02*
G75*
G02X181457600Y-56388000I0J-254000D01*
G01*
X181457600Y-57912000D02*
G75*
G02X181203600Y-58166000I-254000J0D01*
G01*
X179476400Y-58166000D02*
G75*
G02X179222400Y-57912000I0J254000D01*
G01*
D12*
G36*
X173632197Y-76180640D02*
X173463324Y-77076427D01*
X172840204Y-77333298D01*
X172217084Y-77590168D01*
X171469547Y-77081849D01*
X171260198Y-76940316D01*
X171070957Y-76813945D01*
X170910657Y-76708507D01*
X170788126Y-76629770D01*
X170712198Y-76583505D01*
X170691520Y-76573529D01*
X170654269Y-76599186D01*
X170574668Y-76670115D01*
X170461639Y-76777257D01*
X170324105Y-76911550D01*
X170170988Y-77063934D01*
X170011211Y-77225347D01*
X169853695Y-77386730D01*
X169707363Y-77539022D01*
X169581137Y-77673162D01*
X169483940Y-77780089D01*
X169424693Y-77850742D01*
X169410529Y-77874388D01*
X169430913Y-77917979D01*
X169488059Y-78013481D01*
X169575959Y-78151550D01*
X169688604Y-78322845D01*
X169819987Y-78518025D01*
X169896118Y-78629352D01*
X170034882Y-78832633D01*
X170158189Y-79016073D01*
X170260055Y-79170542D01*
X170334499Y-79286909D01*
X170375539Y-79356042D01*
X170381706Y-79370570D01*
X170367726Y-79411860D01*
X170329618Y-79508092D01*
X170273133Y-79645734D01*
X170204020Y-79811258D01*
X170128030Y-79991132D01*
X170050911Y-80171828D01*
X169978415Y-80339814D01*
X169916291Y-80481560D01*
X169870288Y-80583537D01*
X169846157Y-80632214D01*
X169844733Y-80634130D01*
X169806842Y-80643425D01*
X169705931Y-80664160D01*
X169552460Y-80694298D01*
X169356888Y-80731801D01*
X169129675Y-80774629D01*
X168997109Y-80799326D01*
X168754321Y-80845553D01*
X168535026Y-80889540D01*
X168350319Y-80928881D01*
X168211295Y-80961169D01*
X168129048Y-80983997D01*
X168112515Y-80991240D01*
X168096322Y-81040261D01*
X168083256Y-81150977D01*
X168073309Y-81310438D01*
X168066472Y-81505700D01*
X168062736Y-81723814D01*
X168062093Y-81951835D01*
X168064532Y-82176815D01*
X168070047Y-82385809D01*
X168078626Y-82565868D01*
X168090263Y-82704047D01*
X168104948Y-82787398D01*
X168113755Y-82804750D01*
X168166401Y-82825548D01*
X168277957Y-82855282D01*
X168433665Y-82890459D01*
X168618771Y-82927586D01*
X168683387Y-82939597D01*
X168994929Y-82996662D01*
X169241024Y-83042618D01*
X169429805Y-83079293D01*
X169569402Y-83108513D01*
X169667948Y-83132104D01*
X169733574Y-83151892D01*
X169774411Y-83169706D01*
X169798591Y-83187370D01*
X169801974Y-83190861D01*
X169835745Y-83247100D01*
X169887263Y-83356547D01*
X169951383Y-83505800D01*
X170022961Y-83681459D01*
X170096854Y-83870121D01*
X170167917Y-84058385D01*
X170231007Y-84232848D01*
X170280979Y-84380108D01*
X170312688Y-84486764D01*
X170320992Y-84539413D01*
X170320300Y-84541257D01*
X170292164Y-84584292D01*
X170228335Y-84678978D01*
X170135520Y-84815460D01*
X170020427Y-84983882D01*
X169889763Y-85174390D01*
X169852552Y-85228529D01*
X169719871Y-85424804D01*
X169603117Y-85603886D01*
X169508651Y-85755492D01*
X169442832Y-85869338D01*
X169412022Y-85935141D01*
X169410529Y-85943225D01*
X169436416Y-85985715D01*
X169507946Y-86069891D01*
X169615924Y-86186705D01*
X169751154Y-86327110D01*
X169904442Y-86482061D01*
X170066591Y-86642509D01*
X170228407Y-86799409D01*
X170380694Y-86943713D01*
X170514257Y-87066376D01*
X170619900Y-87158350D01*
X170688428Y-87210589D01*
X170707386Y-87219118D01*
X170751513Y-87199029D01*
X170841858Y-87144849D01*
X170963705Y-87065704D01*
X171057454Y-87002001D01*
X171227322Y-86885110D01*
X171428488Y-86747476D01*
X171630267Y-86610063D01*
X171738750Y-86536519D01*
X172105942Y-86288155D01*
X172414174Y-86454813D01*
X172554596Y-86527822D01*
X172674004Y-86584571D01*
X172754798Y-86616937D01*
X172775364Y-86621441D01*
X172800094Y-86588189D01*
X172848882Y-86494224D01*
X172918087Y-86348213D01*
X173004065Y-86158824D01*
X173103176Y-85934724D01*
X173211776Y-85684581D01*
X173326225Y-85417063D01*
X173442880Y-85140836D01*
X173558099Y-84864568D01*
X173668240Y-84596927D01*
X173769661Y-84346580D01*
X173858720Y-84122195D01*
X173931775Y-83932439D01*
X173985184Y-83785980D01*
X174015305Y-83691485D01*
X174020149Y-83659031D01*
X173981755Y-83617636D01*
X173897692Y-83550438D01*
X173785533Y-83471400D01*
X173776119Y-83465147D01*
X173486232Y-83233103D01*
X173252488Y-82962386D01*
X173076913Y-82661653D01*
X172961531Y-82339561D01*
X172908370Y-82004765D01*
X172919453Y-81665922D01*
X172996808Y-81331688D01*
X173142460Y-81010719D01*
X173185312Y-80940495D01*
X173408198Y-80656927D01*
X173671509Y-80429218D01*
X173966135Y-80258551D01*
X174282959Y-80146112D01*
X174612870Y-80093083D01*
X174946754Y-80100651D01*
X175275497Y-80169998D01*
X175589986Y-80302309D01*
X175881107Y-80498768D01*
X175971160Y-80578506D01*
X176200347Y-80828108D01*
X176367354Y-81090868D01*
X176481915Y-81385399D01*
X176545719Y-81677075D01*
X176561470Y-82005012D01*
X176508949Y-82334577D01*
X176393490Y-82654630D01*
X176220429Y-82954032D01*
X175995101Y-83221643D01*
X175722840Y-83446325D01*
X175687058Y-83470008D01*
X175573698Y-83547568D01*
X175487522Y-83614768D01*
X175446323Y-83657675D01*
X175445724Y-83659031D01*
X175454569Y-83705446D01*
X175489631Y-83810786D01*
X175547267Y-83966388D01*
X175623834Y-84163584D01*
X175715686Y-84393710D01*
X175819183Y-84648101D01*
X175930679Y-84918090D01*
X176046532Y-85195012D01*
X176163097Y-85470201D01*
X176276733Y-85734993D01*
X176383794Y-85980721D01*
X176480638Y-86198721D01*
X176563621Y-86380326D01*
X176629099Y-86516871D01*
X176673431Y-86599690D01*
X176691283Y-86621441D01*
X176745834Y-86604504D01*
X176847905Y-86559077D01*
X176979895Y-86493280D01*
X177052474Y-86454813D01*
X177360705Y-86288155D01*
X177727897Y-86536519D01*
X177915340Y-86663754D01*
X178120557Y-86803773D01*
X178312867Y-86935612D01*
X178409193Y-87002001D01*
X178544673Y-87092976D01*
X178659393Y-87165071D01*
X178738388Y-87209154D01*
X178764046Y-87218473D01*
X178801391Y-87193334D01*
X178884042Y-87123154D01*
X179003985Y-87015220D01*
X179153209Y-86876818D01*
X179323699Y-86715235D01*
X179431526Y-86611488D01*
X179620172Y-86426135D01*
X179783205Y-86260351D01*
X179914032Y-86121227D01*
X180006065Y-86015856D01*
X180052713Y-85951329D01*
X180057188Y-85938234D01*
X180036420Y-85888425D01*
X179979031Y-85787713D01*
X179891387Y-85646295D01*
X179779854Y-85474367D01*
X179650797Y-85282124D01*
X179614096Y-85228529D01*
X179480368Y-85033733D01*
X179360393Y-84858353D01*
X179260879Y-84712243D01*
X179188533Y-84605258D01*
X179150064Y-84547255D01*
X179146347Y-84541257D01*
X179151905Y-84495032D01*
X179181407Y-84393398D01*
X179229709Y-84249758D01*
X179291667Y-84077514D01*
X179362137Y-83890066D01*
X179435975Y-83700818D01*
X179508037Y-83523171D01*
X179573178Y-83370527D01*
X179626255Y-83256288D01*
X179662123Y-83193856D01*
X179664673Y-83190861D01*
X179686606Y-83173019D01*
X179723652Y-83155374D01*
X179783941Y-83136101D01*
X179875604Y-83113374D01*
X180006774Y-83085364D01*
X180185582Y-83050247D01*
X180420158Y-83006195D01*
X180718635Y-82951382D01*
X180783260Y-82939597D01*
X180974794Y-82902591D01*
X181141769Y-82866389D01*
X181269432Y-82834485D01*
X181343024Y-82810372D01*
X181352892Y-82804750D01*
X181369153Y-82754910D01*
X181382370Y-82643532D01*
X181392536Y-82483563D01*
X181399640Y-82287950D01*
X181403674Y-82069640D01*
X181404630Y-81841579D01*
X181402498Y-81616714D01*
X181397269Y-81407991D01*
X181388935Y-81228358D01*
X181377487Y-81090762D01*
X181362916Y-81008148D01*
X181354132Y-80991240D01*
X181305230Y-80974184D01*
X181193873Y-80946436D01*
X181031156Y-80910403D01*
X180828174Y-80868493D01*
X180596021Y-80823111D01*
X180469538Y-80799326D01*
X180229555Y-80754465D01*
X180015549Y-80713825D01*
X179837978Y-80679446D01*
X179707302Y-80653365D01*
X179633982Y-80637621D01*
X179621915Y-80634130D01*
X179601519Y-80594779D01*
X179558406Y-80499993D01*
X179498321Y-80363315D01*
X179427013Y-80198286D01*
X179350227Y-80018447D01*
X179273710Y-79837340D01*
X179203210Y-79668507D01*
X179144473Y-79525488D01*
X179103246Y-79421826D01*
X179085276Y-79371061D01*
X179084941Y-79368842D01*
X179105313Y-79328796D01*
X179162427Y-79236639D01*
X179250279Y-79101533D01*
X179362867Y-78932635D01*
X179494189Y-78739105D01*
X179570529Y-78627941D01*
X179709636Y-78424116D01*
X179833188Y-78239063D01*
X179935158Y-78082146D01*
X180009517Y-77962724D01*
X180050237Y-77890160D01*
X180056118Y-77873893D01*
X180030837Y-77836030D01*
X179960948Y-77755186D01*
X179855377Y-77640419D01*
X179723052Y-77500785D01*
X179572901Y-77345342D01*
X179413852Y-77183146D01*
X179254833Y-77023254D01*
X179104771Y-76874724D01*
X178972594Y-76746613D01*
X178867230Y-76647977D01*
X178797607Y-76587873D01*
X178774315Y-76573529D01*
X178736390Y-76593699D01*
X178645683Y-76650363D01*
X178511011Y-76737753D01*
X178341195Y-76850100D01*
X178145054Y-76981638D01*
X177997100Y-77081849D01*
X177249564Y-77590168D01*
X176626444Y-77333298D01*
X176003324Y-77076427D01*
X175665576Y-75284853D01*
X173801071Y-75284853D01*
X173632197Y-76180640D01*
X173632197Y-76180640D01*
G37*
X173632197Y-76180640D02*
X173463324Y-77076427D01*
X172840204Y-77333298D01*
X172217084Y-77590168D01*
X171469547Y-77081849D01*
X171260198Y-76940316D01*
X171070957Y-76813945D01*
X170910657Y-76708507D01*
X170788126Y-76629770D01*
X170712198Y-76583505D01*
X170691520Y-76573529D01*
X170654269Y-76599186D01*
X170574668Y-76670115D01*
X170461639Y-76777257D01*
X170324105Y-76911550D01*
X170170988Y-77063934D01*
X170011211Y-77225347D01*
X169853695Y-77386730D01*
X169707363Y-77539022D01*
X169581137Y-77673162D01*
X169483940Y-77780089D01*
X169424693Y-77850742D01*
X169410529Y-77874388D01*
X169430913Y-77917979D01*
X169488059Y-78013481D01*
X169575959Y-78151550D01*
X169688604Y-78322845D01*
X169819987Y-78518025D01*
X169896118Y-78629352D01*
X170034882Y-78832633D01*
X170158189Y-79016073D01*
X170260055Y-79170542D01*
X170334499Y-79286909D01*
X170375539Y-79356042D01*
X170381706Y-79370570D01*
X170367726Y-79411860D01*
X170329618Y-79508092D01*
X170273133Y-79645734D01*
X170204020Y-79811258D01*
X170128030Y-79991132D01*
X170050911Y-80171828D01*
X169978415Y-80339814D01*
X169916291Y-80481560D01*
X169870288Y-80583537D01*
X169846157Y-80632214D01*
X169844733Y-80634130D01*
X169806842Y-80643425D01*
X169705931Y-80664160D01*
X169552460Y-80694298D01*
X169356888Y-80731801D01*
X169129675Y-80774629D01*
X168997109Y-80799326D01*
X168754321Y-80845553D01*
X168535026Y-80889540D01*
X168350319Y-80928881D01*
X168211295Y-80961169D01*
X168129048Y-80983997D01*
X168112515Y-80991240D01*
X168096322Y-81040261D01*
X168083256Y-81150977D01*
X168073309Y-81310438D01*
X168066472Y-81505700D01*
X168062736Y-81723814D01*
X168062093Y-81951835D01*
X168064532Y-82176815D01*
X168070047Y-82385809D01*
X168078626Y-82565868D01*
X168090263Y-82704047D01*
X168104948Y-82787398D01*
X168113755Y-82804750D01*
X168166401Y-82825548D01*
X168277957Y-82855282D01*
X168433665Y-82890459D01*
X168618771Y-82927586D01*
X168683387Y-82939597D01*
X168994929Y-82996662D01*
X169241024Y-83042618D01*
X169429805Y-83079293D01*
X169569402Y-83108513D01*
X169667948Y-83132104D01*
X169733574Y-83151892D01*
X169774411Y-83169706D01*
X169798591Y-83187370D01*
X169801974Y-83190861D01*
X169835745Y-83247100D01*
X169887263Y-83356547D01*
X169951383Y-83505800D01*
X170022961Y-83681459D01*
X170096854Y-83870121D01*
X170167917Y-84058385D01*
X170231007Y-84232848D01*
X170280979Y-84380108D01*
X170312688Y-84486764D01*
X170320992Y-84539413D01*
X170320300Y-84541257D01*
X170292164Y-84584292D01*
X170228335Y-84678978D01*
X170135520Y-84815460D01*
X170020427Y-84983882D01*
X169889763Y-85174390D01*
X169852552Y-85228529D01*
X169719871Y-85424804D01*
X169603117Y-85603886D01*
X169508651Y-85755492D01*
X169442832Y-85869338D01*
X169412022Y-85935141D01*
X169410529Y-85943225D01*
X169436416Y-85985715D01*
X169507946Y-86069891D01*
X169615924Y-86186705D01*
X169751154Y-86327110D01*
X169904442Y-86482061D01*
X170066591Y-86642509D01*
X170228407Y-86799409D01*
X170380694Y-86943713D01*
X170514257Y-87066376D01*
X170619900Y-87158350D01*
X170688428Y-87210589D01*
X170707386Y-87219118D01*
X170751513Y-87199029D01*
X170841858Y-87144849D01*
X170963705Y-87065704D01*
X171057454Y-87002001D01*
X171227322Y-86885110D01*
X171428488Y-86747476D01*
X171630267Y-86610063D01*
X171738750Y-86536519D01*
X172105942Y-86288155D01*
X172414174Y-86454813D01*
X172554596Y-86527822D01*
X172674004Y-86584571D01*
X172754798Y-86616937D01*
X172775364Y-86621441D01*
X172800094Y-86588189D01*
X172848882Y-86494224D01*
X172918087Y-86348213D01*
X173004065Y-86158824D01*
X173103176Y-85934724D01*
X173211776Y-85684581D01*
X173326225Y-85417063D01*
X173442880Y-85140836D01*
X173558099Y-84864568D01*
X173668240Y-84596927D01*
X173769661Y-84346580D01*
X173858720Y-84122195D01*
X173931775Y-83932439D01*
X173985184Y-83785980D01*
X174015305Y-83691485D01*
X174020149Y-83659031D01*
X173981755Y-83617636D01*
X173897692Y-83550438D01*
X173785533Y-83471400D01*
X173776119Y-83465147D01*
X173486232Y-83233103D01*
X173252488Y-82962386D01*
X173076913Y-82661653D01*
X172961531Y-82339561D01*
X172908370Y-82004765D01*
X172919453Y-81665922D01*
X172996808Y-81331688D01*
X173142460Y-81010719D01*
X173185312Y-80940495D01*
X173408198Y-80656927D01*
X173671509Y-80429218D01*
X173966135Y-80258551D01*
X174282959Y-80146112D01*
X174612870Y-80093083D01*
X174946754Y-80100651D01*
X175275497Y-80169998D01*
X175589986Y-80302309D01*
X175881107Y-80498768D01*
X175971160Y-80578506D01*
X176200347Y-80828108D01*
X176367354Y-81090868D01*
X176481915Y-81385399D01*
X176545719Y-81677075D01*
X176561470Y-82005012D01*
X176508949Y-82334577D01*
X176393490Y-82654630D01*
X176220429Y-82954032D01*
X175995101Y-83221643D01*
X175722840Y-83446325D01*
X175687058Y-83470008D01*
X175573698Y-83547568D01*
X175487522Y-83614768D01*
X175446323Y-83657675D01*
X175445724Y-83659031D01*
X175454569Y-83705446D01*
X175489631Y-83810786D01*
X175547267Y-83966388D01*
X175623834Y-84163584D01*
X175715686Y-84393710D01*
X175819183Y-84648101D01*
X175930679Y-84918090D01*
X176046532Y-85195012D01*
X176163097Y-85470201D01*
X176276733Y-85734993D01*
X176383794Y-85980721D01*
X176480638Y-86198721D01*
X176563621Y-86380326D01*
X176629099Y-86516871D01*
X176673431Y-86599690D01*
X176691283Y-86621441D01*
X176745834Y-86604504D01*
X176847905Y-86559077D01*
X176979895Y-86493280D01*
X177052474Y-86454813D01*
X177360705Y-86288155D01*
X177727897Y-86536519D01*
X177915340Y-86663754D01*
X178120557Y-86803773D01*
X178312867Y-86935612D01*
X178409193Y-87002001D01*
X178544673Y-87092976D01*
X178659393Y-87165071D01*
X178738388Y-87209154D01*
X178764046Y-87218473D01*
X178801391Y-87193334D01*
X178884042Y-87123154D01*
X179003985Y-87015220D01*
X179153209Y-86876818D01*
X179323699Y-86715235D01*
X179431526Y-86611488D01*
X179620172Y-86426135D01*
X179783205Y-86260351D01*
X179914032Y-86121227D01*
X180006065Y-86015856D01*
X180052713Y-85951329D01*
X180057188Y-85938234D01*
X180036420Y-85888425D01*
X179979031Y-85787713D01*
X179891387Y-85646295D01*
X179779854Y-85474367D01*
X179650797Y-85282124D01*
X179614096Y-85228529D01*
X179480368Y-85033733D01*
X179360393Y-84858353D01*
X179260879Y-84712243D01*
X179188533Y-84605258D01*
X179150064Y-84547255D01*
X179146347Y-84541257D01*
X179151905Y-84495032D01*
X179181407Y-84393398D01*
X179229709Y-84249758D01*
X179291667Y-84077514D01*
X179362137Y-83890066D01*
X179435975Y-83700818D01*
X179508037Y-83523171D01*
X179573178Y-83370527D01*
X179626255Y-83256288D01*
X179662123Y-83193856D01*
X179664673Y-83190861D01*
X179686606Y-83173019D01*
X179723652Y-83155374D01*
X179783941Y-83136101D01*
X179875604Y-83113374D01*
X180006774Y-83085364D01*
X180185582Y-83050247D01*
X180420158Y-83006195D01*
X180718635Y-82951382D01*
X180783260Y-82939597D01*
X180974794Y-82902591D01*
X181141769Y-82866389D01*
X181269432Y-82834485D01*
X181343024Y-82810372D01*
X181352892Y-82804750D01*
X181369153Y-82754910D01*
X181382370Y-82643532D01*
X181392536Y-82483563D01*
X181399640Y-82287950D01*
X181403674Y-82069640D01*
X181404630Y-81841579D01*
X181402498Y-81616714D01*
X181397269Y-81407991D01*
X181388935Y-81228358D01*
X181377487Y-81090762D01*
X181362916Y-81008148D01*
X181354132Y-80991240D01*
X181305230Y-80974184D01*
X181193873Y-80946436D01*
X181031156Y-80910403D01*
X180828174Y-80868493D01*
X180596021Y-80823111D01*
X180469538Y-80799326D01*
X180229555Y-80754465D01*
X180015549Y-80713825D01*
X179837978Y-80679446D01*
X179707302Y-80653365D01*
X179633982Y-80637621D01*
X179621915Y-80634130D01*
X179601519Y-80594779D01*
X179558406Y-80499993D01*
X179498321Y-80363315D01*
X179427013Y-80198286D01*
X179350227Y-80018447D01*
X179273710Y-79837340D01*
X179203210Y-79668507D01*
X179144473Y-79525488D01*
X179103246Y-79421826D01*
X179085276Y-79371061D01*
X179084941Y-79368842D01*
X179105313Y-79328796D01*
X179162427Y-79236639D01*
X179250279Y-79101533D01*
X179362867Y-78932635D01*
X179494189Y-78739105D01*
X179570529Y-78627941D01*
X179709636Y-78424116D01*
X179833188Y-78239063D01*
X179935158Y-78082146D01*
X180009517Y-77962724D01*
X180050237Y-77890160D01*
X180056118Y-77873893D01*
X180030837Y-77836030D01*
X179960948Y-77755186D01*
X179855377Y-77640419D01*
X179723052Y-77500785D01*
X179572901Y-77345342D01*
X179413852Y-77183146D01*
X179254833Y-77023254D01*
X179104771Y-76874724D01*
X178972594Y-76746613D01*
X178867230Y-76647977D01*
X178797607Y-76587873D01*
X178774315Y-76573529D01*
X178736390Y-76593699D01*
X178645683Y-76650363D01*
X178511011Y-76737753D01*
X178341195Y-76850100D01*
X178145054Y-76981638D01*
X177997100Y-77081849D01*
X177249564Y-77590168D01*
X176626444Y-77333298D01*
X176003324Y-77076427D01*
X175665576Y-75284853D01*
X173801071Y-75284853D01*
X173632197Y-76180640D01*
G36*
X195097371Y-81263066D02*
X195057889Y-81263467D01*
X194942200Y-81266259D01*
X194845311Y-81274550D01*
X194763919Y-81289232D01*
X194694723Y-81311193D01*
X194634420Y-81341322D01*
X194579708Y-81380510D01*
X194560167Y-81397532D01*
X194527750Y-81437363D01*
X194498520Y-81491413D01*
X194475991Y-81551323D01*
X194463679Y-81608739D01*
X194462400Y-81629956D01*
X194470417Y-81688769D01*
X194491899Y-81753013D01*
X194522999Y-81813821D01*
X194559866Y-81862330D01*
X194565854Y-81868182D01*
X194616579Y-81909321D01*
X194672125Y-81941435D01*
X194735696Y-81965365D01*
X194810494Y-81981953D01*
X194899722Y-81992041D01*
X195006582Y-81996469D01*
X195055528Y-81996845D01*
X195117762Y-81996545D01*
X195161528Y-81995292D01*
X195190931Y-81992554D01*
X195210079Y-81987801D01*
X195223077Y-81980501D01*
X195230045Y-81974267D01*
X195236626Y-81966694D01*
X195241788Y-81956924D01*
X195245703Y-81942340D01*
X195248543Y-81920326D01*
X195250480Y-81888264D01*
X195251684Y-81843536D01*
X195252328Y-81783526D01*
X195252583Y-81705617D01*
X195252622Y-81629956D01*
X195252870Y-81529041D01*
X195252817Y-81448427D01*
X195251857Y-81409822D01*
X195105867Y-81409822D01*
X195105867Y-81850089D01*
X195012734Y-81850004D01*
X194956693Y-81848396D01*
X194897999Y-81844256D01*
X194849028Y-81838464D01*
X194847538Y-81838226D01*
X194768392Y-81819090D01*
X194707002Y-81789287D01*
X194660305Y-81746878D01*
X194630635Y-81700961D01*
X194612353Y-81650026D01*
X194613771Y-81602200D01*
X194634988Y-81550933D01*
X194676489Y-81497899D01*
X194733998Y-81458600D01*
X194808750Y-81432331D01*
X194858708Y-81423035D01*
X194915416Y-81416507D01*
X194975519Y-81411782D01*
X195026639Y-81409817D01*
X195029667Y-81409808D01*
X195105867Y-81409822D01*
X195251857Y-81409822D01*
X195251260Y-81385851D01*
X195246998Y-81339055D01*
X195238830Y-81305778D01*
X195225556Y-81283759D01*
X195205974Y-81270739D01*
X195178883Y-81264457D01*
X195143082Y-81262653D01*
X195097371Y-81263066D01*
X195097371Y-81263066D01*
G37*
X195097371Y-81263066D02*
X195057889Y-81263467D01*
X194942200Y-81266259D01*
X194845311Y-81274550D01*
X194763919Y-81289232D01*
X194694723Y-81311193D01*
X194634420Y-81341322D01*
X194579708Y-81380510D01*
X194560167Y-81397532D01*
X194527750Y-81437363D01*
X194498520Y-81491413D01*
X194475991Y-81551323D01*
X194463679Y-81608739D01*
X194462400Y-81629956D01*
X194470417Y-81688769D01*
X194491899Y-81753013D01*
X194522999Y-81813821D01*
X194559866Y-81862330D01*
X194565854Y-81868182D01*
X194616579Y-81909321D01*
X194672125Y-81941435D01*
X194735696Y-81965365D01*
X194810494Y-81981953D01*
X194899722Y-81992041D01*
X195006582Y-81996469D01*
X195055528Y-81996845D01*
X195117762Y-81996545D01*
X195161528Y-81995292D01*
X195190931Y-81992554D01*
X195210079Y-81987801D01*
X195223077Y-81980501D01*
X195230045Y-81974267D01*
X195236626Y-81966694D01*
X195241788Y-81956924D01*
X195245703Y-81942340D01*
X195248543Y-81920326D01*
X195250480Y-81888264D01*
X195251684Y-81843536D01*
X195252328Y-81783526D01*
X195252583Y-81705617D01*
X195252622Y-81629956D01*
X195252870Y-81529041D01*
X195252817Y-81448427D01*
X195251857Y-81409822D01*
X195105867Y-81409822D01*
X195105867Y-81850089D01*
X195012734Y-81850004D01*
X194956693Y-81848396D01*
X194897999Y-81844256D01*
X194849028Y-81838464D01*
X194847538Y-81838226D01*
X194768392Y-81819090D01*
X194707002Y-81789287D01*
X194660305Y-81746878D01*
X194630635Y-81700961D01*
X194612353Y-81650026D01*
X194613771Y-81602200D01*
X194634988Y-81550933D01*
X194676489Y-81497899D01*
X194733998Y-81458600D01*
X194808750Y-81432331D01*
X194858708Y-81423035D01*
X194915416Y-81416507D01*
X194975519Y-81411782D01*
X195026639Y-81409817D01*
X195029667Y-81409808D01*
X195105867Y-81409822D01*
X195251857Y-81409822D01*
X195251260Y-81385851D01*
X195246998Y-81339055D01*
X195238830Y-81305778D01*
X195225556Y-81283759D01*
X195205974Y-81270739D01*
X195178883Y-81264457D01*
X195143082Y-81262653D01*
X195097371Y-81263066D01*
G36*
X193688794Y-81263146D02*
X193619386Y-81263518D01*
X193566997Y-81264385D01*
X193528847Y-81265946D01*
X193502159Y-81268403D01*
X193484153Y-81271957D01*
X193472049Y-81276810D01*
X193463069Y-81283161D01*
X193459818Y-81286084D01*
X193440043Y-81317142D01*
X193436482Y-81352828D01*
X193449491Y-81384510D01*
X193455506Y-81390913D01*
X193465235Y-81397121D01*
X193480901Y-81401910D01*
X193505408Y-81405514D01*
X193541661Y-81408164D01*
X193592565Y-81410095D01*
X193661026Y-81411539D01*
X193723617Y-81412418D01*
X193971334Y-81415467D01*
X193974719Y-81480378D01*
X193978105Y-81545289D01*
X193809958Y-81545289D01*
X193736959Y-81545919D01*
X193683517Y-81548553D01*
X193646628Y-81554309D01*
X193623288Y-81564304D01*
X193610494Y-81579656D01*
X193605242Y-81601482D01*
X193604445Y-81621738D01*
X193606923Y-81646592D01*
X193616277Y-81664906D01*
X193635383Y-81677637D01*
X193667118Y-81685741D01*
X193714359Y-81690176D01*
X193779983Y-81691899D01*
X193815801Y-81692045D01*
X193976978Y-81692045D01*
X193976978Y-81850089D01*
X193728622Y-81850089D01*
X193647213Y-81850202D01*
X193585342Y-81850712D01*
X193539968Y-81851870D01*
X193508054Y-81853930D01*
X193486559Y-81857146D01*
X193472443Y-81861772D01*
X193462668Y-81868059D01*
X193457689Y-81872667D01*
X193440610Y-81899560D01*
X193435111Y-81923467D01*
X193442963Y-81952667D01*
X193457689Y-81974267D01*
X193465546Y-81981066D01*
X193475688Y-81986346D01*
X193490844Y-81990298D01*
X193513741Y-81993113D01*
X193547109Y-81994982D01*
X193593675Y-81996098D01*
X193656167Y-81996651D01*
X193737314Y-81996833D01*
X193779422Y-81996845D01*
X193869598Y-81996765D01*
X193939924Y-81996398D01*
X193993129Y-81995552D01*
X194031940Y-81994036D01*
X194059087Y-81991659D01*
X194077298Y-81988229D01*
X194089300Y-81983554D01*
X194097822Y-81977444D01*
X194101156Y-81974267D01*
X194107755Y-81966670D01*
X194112927Y-81956870D01*
X194116846Y-81942239D01*
X194119684Y-81920152D01*
X194121615Y-81887982D01*
X194122812Y-81843103D01*
X194123448Y-81782889D01*
X194123697Y-81704713D01*
X194123734Y-81631923D01*
X194123700Y-81538707D01*
X194123465Y-81465431D01*
X194122830Y-81409458D01*
X194121594Y-81368151D01*
X194119556Y-81338872D01*
X194116517Y-81318984D01*
X194112277Y-81305850D01*
X194106635Y-81296832D01*
X194099391Y-81289293D01*
X194097606Y-81287612D01*
X194088945Y-81280172D01*
X194078882Y-81274409D01*
X194064625Y-81270112D01*
X194043383Y-81267064D01*
X194012364Y-81265051D01*
X193968777Y-81263860D01*
X193909831Y-81263275D01*
X193832734Y-81263083D01*
X193778001Y-81263067D01*
X193688794Y-81263146D01*
X193688794Y-81263146D01*
G37*
X193688794Y-81263146D02*
X193619386Y-81263518D01*
X193566997Y-81264385D01*
X193528847Y-81265946D01*
X193502159Y-81268403D01*
X193484153Y-81271957D01*
X193472049Y-81276810D01*
X193463069Y-81283161D01*
X193459818Y-81286084D01*
X193440043Y-81317142D01*
X193436482Y-81352828D01*
X193449491Y-81384510D01*
X193455506Y-81390913D01*
X193465235Y-81397121D01*
X193480901Y-81401910D01*
X193505408Y-81405514D01*
X193541661Y-81408164D01*
X193592565Y-81410095D01*
X193661026Y-81411539D01*
X193723617Y-81412418D01*
X193971334Y-81415467D01*
X193974719Y-81480378D01*
X193978105Y-81545289D01*
X193809958Y-81545289D01*
X193736959Y-81545919D01*
X193683517Y-81548553D01*
X193646628Y-81554309D01*
X193623288Y-81564304D01*
X193610494Y-81579656D01*
X193605242Y-81601482D01*
X193604445Y-81621738D01*
X193606923Y-81646592D01*
X193616277Y-81664906D01*
X193635383Y-81677637D01*
X193667118Y-81685741D01*
X193714359Y-81690176D01*
X193779983Y-81691899D01*
X193815801Y-81692045D01*
X193976978Y-81692045D01*
X193976978Y-81850089D01*
X193728622Y-81850089D01*
X193647213Y-81850202D01*
X193585342Y-81850712D01*
X193539968Y-81851870D01*
X193508054Y-81853930D01*
X193486559Y-81857146D01*
X193472443Y-81861772D01*
X193462668Y-81868059D01*
X193457689Y-81872667D01*
X193440610Y-81899560D01*
X193435111Y-81923467D01*
X193442963Y-81952667D01*
X193457689Y-81974267D01*
X193465546Y-81981066D01*
X193475688Y-81986346D01*
X193490844Y-81990298D01*
X193513741Y-81993113D01*
X193547109Y-81994982D01*
X193593675Y-81996098D01*
X193656167Y-81996651D01*
X193737314Y-81996833D01*
X193779422Y-81996845D01*
X193869598Y-81996765D01*
X193939924Y-81996398D01*
X193993129Y-81995552D01*
X194031940Y-81994036D01*
X194059087Y-81991659D01*
X194077298Y-81988229D01*
X194089300Y-81983554D01*
X194097822Y-81977444D01*
X194101156Y-81974267D01*
X194107755Y-81966670D01*
X194112927Y-81956870D01*
X194116846Y-81942239D01*
X194119684Y-81920152D01*
X194121615Y-81887982D01*
X194122812Y-81843103D01*
X194123448Y-81782889D01*
X194123697Y-81704713D01*
X194123734Y-81631923D01*
X194123700Y-81538707D01*
X194123465Y-81465431D01*
X194122830Y-81409458D01*
X194121594Y-81368151D01*
X194119556Y-81338872D01*
X194116517Y-81318984D01*
X194112277Y-81305850D01*
X194106635Y-81296832D01*
X194099391Y-81289293D01*
X194097606Y-81287612D01*
X194088945Y-81280172D01*
X194078882Y-81274409D01*
X194064625Y-81270112D01*
X194043383Y-81267064D01*
X194012364Y-81265051D01*
X193968777Y-81263860D01*
X193909831Y-81263275D01*
X193832734Y-81263083D01*
X193778001Y-81263067D01*
X193688794Y-81263146D01*
G36*
X192667703Y-81264351D02*
X192592888Y-81269581D01*
X192523306Y-81277750D01*
X192463002Y-81288550D01*
X192416020Y-81301673D01*
X192386406Y-81316813D01*
X192381860Y-81321269D01*
X192366054Y-81355850D01*
X192370847Y-81391351D01*
X192395364Y-81421725D01*
X192396534Y-81422596D01*
X192410954Y-81431954D01*
X192426008Y-81436876D01*
X192447005Y-81437473D01*
X192479257Y-81433861D01*
X192528073Y-81426154D01*
X192532000Y-81425505D01*
X192604739Y-81416569D01*
X192683217Y-81412161D01*
X192761927Y-81412119D01*
X192835361Y-81416279D01*
X192898011Y-81424479D01*
X192944370Y-81436557D01*
X192947416Y-81437771D01*
X192981048Y-81456615D01*
X192992864Y-81475685D01*
X192983614Y-81494439D01*
X192954047Y-81512337D01*
X192904911Y-81528837D01*
X192836957Y-81543396D01*
X192791645Y-81550406D01*
X192697456Y-81563889D01*
X192622544Y-81576214D01*
X192563717Y-81588449D01*
X192517785Y-81601661D01*
X192481555Y-81616917D01*
X192451838Y-81635285D01*
X192425442Y-81657831D01*
X192404230Y-81679971D01*
X192379065Y-81710819D01*
X192366681Y-81737345D01*
X192362808Y-81770026D01*
X192362667Y-81781995D01*
X192365576Y-81821712D01*
X192377202Y-81851259D01*
X192397323Y-81877486D01*
X192438216Y-81917576D01*
X192483817Y-81948149D01*
X192537513Y-81970203D01*
X192602692Y-81984735D01*
X192682744Y-81992741D01*
X192781057Y-81995218D01*
X192797289Y-81995177D01*
X192862849Y-81993818D01*
X192927866Y-81990730D01*
X192985252Y-81986356D01*
X193027922Y-81981140D01*
X193031372Y-81980541D01*
X193073796Y-81970491D01*
X193109780Y-81957796D01*
X193130150Y-81946190D01*
X193149107Y-81915572D01*
X193150427Y-81879918D01*
X193134085Y-81848144D01*
X193130429Y-81844551D01*
X193115315Y-81833876D01*
X193096415Y-81829276D01*
X193067162Y-81830059D01*
X193031651Y-81834127D01*
X192991970Y-81837762D01*
X192936345Y-81840828D01*
X192871406Y-81843053D01*
X192803785Y-81844164D01*
X192786000Y-81844237D01*
X192718128Y-81843964D01*
X192668454Y-81842646D01*
X192632610Y-81839827D01*
X192606224Y-81835050D01*
X192584926Y-81827857D01*
X192572126Y-81821867D01*
X192544000Y-81805233D01*
X192526068Y-81790168D01*
X192523447Y-81785897D01*
X192528976Y-81768263D01*
X192555260Y-81751192D01*
X192600478Y-81735458D01*
X192662808Y-81721838D01*
X192681171Y-81718804D01*
X192777090Y-81703738D01*
X192853641Y-81691146D01*
X192913780Y-81680111D01*
X192960460Y-81669720D01*
X192996637Y-81659056D01*
X193025265Y-81647205D01*
X193049298Y-81633251D01*
X193071692Y-81616281D01*
X193095402Y-81595378D01*
X193103380Y-81588049D01*
X193131353Y-81560699D01*
X193146160Y-81539029D01*
X193151952Y-81514232D01*
X193152889Y-81482983D01*
X193142575Y-81421705D01*
X193111752Y-81369640D01*
X193060595Y-81326958D01*
X192989283Y-81293825D01*
X192938400Y-81278964D01*
X192883100Y-81269366D01*
X192816853Y-81263936D01*
X192743706Y-81262367D01*
X192667703Y-81264351D01*
X192667703Y-81264351D01*
G37*
X192667703Y-81264351D02*
X192592888Y-81269581D01*
X192523306Y-81277750D01*
X192463002Y-81288550D01*
X192416020Y-81301673D01*
X192386406Y-81316813D01*
X192381860Y-81321269D01*
X192366054Y-81355850D01*
X192370847Y-81391351D01*
X192395364Y-81421725D01*
X192396534Y-81422596D01*
X192410954Y-81431954D01*
X192426008Y-81436876D01*
X192447005Y-81437473D01*
X192479257Y-81433861D01*
X192528073Y-81426154D01*
X192532000Y-81425505D01*
X192604739Y-81416569D01*
X192683217Y-81412161D01*
X192761927Y-81412119D01*
X192835361Y-81416279D01*
X192898011Y-81424479D01*
X192944370Y-81436557D01*
X192947416Y-81437771D01*
X192981048Y-81456615D01*
X192992864Y-81475685D01*
X192983614Y-81494439D01*
X192954047Y-81512337D01*
X192904911Y-81528837D01*
X192836957Y-81543396D01*
X192791645Y-81550406D01*
X192697456Y-81563889D01*
X192622544Y-81576214D01*
X192563717Y-81588449D01*
X192517785Y-81601661D01*
X192481555Y-81616917D01*
X192451838Y-81635285D01*
X192425442Y-81657831D01*
X192404230Y-81679971D01*
X192379065Y-81710819D01*
X192366681Y-81737345D01*
X192362808Y-81770026D01*
X192362667Y-81781995D01*
X192365576Y-81821712D01*
X192377202Y-81851259D01*
X192397323Y-81877486D01*
X192438216Y-81917576D01*
X192483817Y-81948149D01*
X192537513Y-81970203D01*
X192602692Y-81984735D01*
X192682744Y-81992741D01*
X192781057Y-81995218D01*
X192797289Y-81995177D01*
X192862849Y-81993818D01*
X192927866Y-81990730D01*
X192985252Y-81986356D01*
X193027922Y-81981140D01*
X193031372Y-81980541D01*
X193073796Y-81970491D01*
X193109780Y-81957796D01*
X193130150Y-81946190D01*
X193149107Y-81915572D01*
X193150427Y-81879918D01*
X193134085Y-81848144D01*
X193130429Y-81844551D01*
X193115315Y-81833876D01*
X193096415Y-81829276D01*
X193067162Y-81830059D01*
X193031651Y-81834127D01*
X192991970Y-81837762D01*
X192936345Y-81840828D01*
X192871406Y-81843053D01*
X192803785Y-81844164D01*
X192786000Y-81844237D01*
X192718128Y-81843964D01*
X192668454Y-81842646D01*
X192632610Y-81839827D01*
X192606224Y-81835050D01*
X192584926Y-81827857D01*
X192572126Y-81821867D01*
X192544000Y-81805233D01*
X192526068Y-81790168D01*
X192523447Y-81785897D01*
X192528976Y-81768263D01*
X192555260Y-81751192D01*
X192600478Y-81735458D01*
X192662808Y-81721838D01*
X192681171Y-81718804D01*
X192777090Y-81703738D01*
X192853641Y-81691146D01*
X192913780Y-81680111D01*
X192960460Y-81669720D01*
X192996637Y-81659056D01*
X193025265Y-81647205D01*
X193049298Y-81633251D01*
X193071692Y-81616281D01*
X193095402Y-81595378D01*
X193103380Y-81588049D01*
X193131353Y-81560699D01*
X193146160Y-81539029D01*
X193151952Y-81514232D01*
X193152889Y-81482983D01*
X193142575Y-81421705D01*
X193111752Y-81369640D01*
X193060595Y-81326958D01*
X192989283Y-81293825D01*
X192938400Y-81278964D01*
X192883100Y-81269366D01*
X192816853Y-81263936D01*
X192743706Y-81262367D01*
X192667703Y-81264351D01*
G36*
X191899822Y-81285645D02*
X191893242Y-81293218D01*
X191888079Y-81302987D01*
X191884164Y-81317571D01*
X191881324Y-81339585D01*
X191879387Y-81371648D01*
X191878183Y-81416375D01*
X191877539Y-81476385D01*
X191877284Y-81554294D01*
X191877245Y-81629956D01*
X191877314Y-81723802D01*
X191877638Y-81797689D01*
X191878386Y-81854232D01*
X191879732Y-81896049D01*
X191881846Y-81925757D01*
X191884900Y-81945973D01*
X191889066Y-81959314D01*
X191894516Y-81968398D01*
X191899822Y-81974267D01*
X191932826Y-81993947D01*
X191967991Y-81992181D01*
X191999455Y-81970717D01*
X192006684Y-81962337D01*
X192012334Y-81952614D01*
X192016599Y-81938861D01*
X192019673Y-81918389D01*
X192021752Y-81888512D01*
X192023030Y-81846541D01*
X192023701Y-81789789D01*
X192023959Y-81715567D01*
X192024000Y-81631537D01*
X192024000Y-81318485D01*
X191996291Y-81290776D01*
X191962137Y-81267463D01*
X191929006Y-81266623D01*
X191899822Y-81285645D01*
X191899822Y-81285645D01*
G37*
X191899822Y-81285645D02*
X191893242Y-81293218D01*
X191888079Y-81302987D01*
X191884164Y-81317571D01*
X191881324Y-81339585D01*
X191879387Y-81371648D01*
X191878183Y-81416375D01*
X191877539Y-81476385D01*
X191877284Y-81554294D01*
X191877245Y-81629956D01*
X191877314Y-81723802D01*
X191877638Y-81797689D01*
X191878386Y-81854232D01*
X191879732Y-81896049D01*
X191881846Y-81925757D01*
X191884900Y-81945973D01*
X191889066Y-81959314D01*
X191894516Y-81968398D01*
X191899822Y-81974267D01*
X191932826Y-81993947D01*
X191967991Y-81992181D01*
X191999455Y-81970717D01*
X192006684Y-81962337D01*
X192012334Y-81952614D01*
X192016599Y-81938861D01*
X192019673Y-81918389D01*
X192021752Y-81888512D01*
X192023030Y-81846541D01*
X192023701Y-81789789D01*
X192023959Y-81715567D01*
X192024000Y-81631537D01*
X192024000Y-81318485D01*
X191996291Y-81290776D01*
X191962137Y-81267463D01*
X191929006Y-81266623D01*
X191899822Y-81285645D01*
G36*
X190926081Y-81268599D02*
X190857565Y-81280095D01*
X190804943Y-81297967D01*
X190770708Y-81321499D01*
X190761379Y-81334924D01*
X190751893Y-81366148D01*
X190758277Y-81394395D01*
X190778430Y-81421182D01*
X190809745Y-81433713D01*
X190855183Y-81432696D01*
X190890326Y-81425906D01*
X190968419Y-81412971D01*
X191048226Y-81411742D01*
X191137555Y-81422241D01*
X191162229Y-81426690D01*
X191245291Y-81450108D01*
X191310273Y-81484945D01*
X191356461Y-81530604D01*
X191383145Y-81586494D01*
X191388663Y-81615388D01*
X191385051Y-81674012D01*
X191361729Y-81725879D01*
X191320824Y-81769978D01*
X191264459Y-81805299D01*
X191194760Y-81830829D01*
X191113852Y-81845559D01*
X191023860Y-81848478D01*
X190926910Y-81838575D01*
X190921436Y-81837641D01*
X190882875Y-81830459D01*
X190861494Y-81823521D01*
X190852227Y-81813227D01*
X190850006Y-81795976D01*
X190849956Y-81786841D01*
X190849956Y-81748489D01*
X190918431Y-81748489D01*
X190978900Y-81744347D01*
X191020165Y-81731147D01*
X191044175Y-81707730D01*
X191052877Y-81672936D01*
X191052983Y-81668394D01*
X191047892Y-81638654D01*
X191030433Y-81617419D01*
X190997939Y-81603366D01*
X190947743Y-81595173D01*
X190899123Y-81592161D01*
X190828456Y-81590433D01*
X190777198Y-81593070D01*
X190742239Y-81602800D01*
X190720470Y-81622353D01*
X190708780Y-81654456D01*
X190704060Y-81701838D01*
X190703200Y-81764071D01*
X190704609Y-81833535D01*
X190708848Y-81880786D01*
X190715936Y-81906012D01*
X190717311Y-81907988D01*
X190756228Y-81939508D01*
X190813286Y-81964470D01*
X190884869Y-81982340D01*
X190967358Y-81992586D01*
X191057139Y-81994673D01*
X191150592Y-81988068D01*
X191205556Y-81979956D01*
X191291766Y-81955554D01*
X191371892Y-81915662D01*
X191438977Y-81863887D01*
X191449173Y-81853539D01*
X191482302Y-81810035D01*
X191512194Y-81756118D01*
X191535357Y-81699592D01*
X191548298Y-81648259D01*
X191549858Y-81628544D01*
X191543218Y-81587419D01*
X191525568Y-81536252D01*
X191500297Y-81482394D01*
X191470789Y-81433195D01*
X191444719Y-81400334D01*
X191383765Y-81351452D01*
X191304969Y-81312545D01*
X191211157Y-81284494D01*
X191105150Y-81268179D01*
X191008000Y-81264192D01*
X190926081Y-81268599D01*
X190926081Y-81268599D01*
G37*
X190926081Y-81268599D02*
X190857565Y-81280095D01*
X190804943Y-81297967D01*
X190770708Y-81321499D01*
X190761379Y-81334924D01*
X190751893Y-81366148D01*
X190758277Y-81394395D01*
X190778430Y-81421182D01*
X190809745Y-81433713D01*
X190855183Y-81432696D01*
X190890326Y-81425906D01*
X190968419Y-81412971D01*
X191048226Y-81411742D01*
X191137555Y-81422241D01*
X191162229Y-81426690D01*
X191245291Y-81450108D01*
X191310273Y-81484945D01*
X191356461Y-81530604D01*
X191383145Y-81586494D01*
X191388663Y-81615388D01*
X191385051Y-81674012D01*
X191361729Y-81725879D01*
X191320824Y-81769978D01*
X191264459Y-81805299D01*
X191194760Y-81830829D01*
X191113852Y-81845559D01*
X191023860Y-81848478D01*
X190926910Y-81838575D01*
X190921436Y-81837641D01*
X190882875Y-81830459D01*
X190861494Y-81823521D01*
X190852227Y-81813227D01*
X190850006Y-81795976D01*
X190849956Y-81786841D01*
X190849956Y-81748489D01*
X190918431Y-81748489D01*
X190978900Y-81744347D01*
X191020165Y-81731147D01*
X191044175Y-81707730D01*
X191052877Y-81672936D01*
X191052983Y-81668394D01*
X191047892Y-81638654D01*
X191030433Y-81617419D01*
X190997939Y-81603366D01*
X190947743Y-81595173D01*
X190899123Y-81592161D01*
X190828456Y-81590433D01*
X190777198Y-81593070D01*
X190742239Y-81602800D01*
X190720470Y-81622353D01*
X190708780Y-81654456D01*
X190704060Y-81701838D01*
X190703200Y-81764071D01*
X190704609Y-81833535D01*
X190708848Y-81880786D01*
X190715936Y-81906012D01*
X190717311Y-81907988D01*
X190756228Y-81939508D01*
X190813286Y-81964470D01*
X190884869Y-81982340D01*
X190967358Y-81992586D01*
X191057139Y-81994673D01*
X191150592Y-81988068D01*
X191205556Y-81979956D01*
X191291766Y-81955554D01*
X191371892Y-81915662D01*
X191438977Y-81863887D01*
X191449173Y-81853539D01*
X191482302Y-81810035D01*
X191512194Y-81756118D01*
X191535357Y-81699592D01*
X191548298Y-81648259D01*
X191549858Y-81628544D01*
X191543218Y-81587419D01*
X191525568Y-81536252D01*
X191500297Y-81482394D01*
X191470789Y-81433195D01*
X191444719Y-81400334D01*
X191383765Y-81351452D01*
X191304969Y-81312545D01*
X191211157Y-81284494D01*
X191105150Y-81268179D01*
X191008000Y-81264192D01*
X190926081Y-81268599D01*
G36*
X190276114Y-81267448D02*
X190252548Y-81281273D01*
X190221735Y-81303881D01*
X190182078Y-81336338D01*
X190131980Y-81379708D01*
X190069843Y-81435058D01*
X189994072Y-81503451D01*
X189907334Y-81582084D01*
X189726711Y-81745878D01*
X189721067Y-81526029D01*
X189719029Y-81450351D01*
X189717063Y-81393994D01*
X189714734Y-81353706D01*
X189711606Y-81326235D01*
X189707245Y-81308329D01*
X189701216Y-81296737D01*
X189693084Y-81288208D01*
X189688772Y-81284623D01*
X189654241Y-81265670D01*
X189621383Y-81268441D01*
X189595318Y-81284633D01*
X189568667Y-81306199D01*
X189565352Y-81621151D01*
X189564435Y-81713779D01*
X189563968Y-81786544D01*
X189564113Y-81842161D01*
X189565032Y-81883342D01*
X189566887Y-81912803D01*
X189569839Y-81933255D01*
X189574050Y-81947413D01*
X189579682Y-81957991D01*
X189585927Y-81966474D01*
X189599439Y-81982207D01*
X189612883Y-81992636D01*
X189628124Y-81996639D01*
X189647026Y-81993094D01*
X189671455Y-81980879D01*
X189703273Y-81958871D01*
X189744348Y-81925949D01*
X189796542Y-81880991D01*
X189861722Y-81822875D01*
X189935556Y-81756099D01*
X190200845Y-81515458D01*
X190206489Y-81734589D01*
X190208531Y-81810128D01*
X190210502Y-81866354D01*
X190212839Y-81906524D01*
X190215981Y-81933896D01*
X190220364Y-81951728D01*
X190226424Y-81963279D01*
X190234600Y-81971807D01*
X190238784Y-81975282D01*
X190275765Y-81994372D01*
X190310708Y-81991493D01*
X190341136Y-81967100D01*
X190348097Y-81957286D01*
X190353523Y-81945826D01*
X190357603Y-81929968D01*
X190360529Y-81906963D01*
X190362492Y-81874062D01*
X190363683Y-81828516D01*
X190364292Y-81767573D01*
X190364511Y-81688486D01*
X190364534Y-81629956D01*
X190364460Y-81538407D01*
X190364113Y-81466687D01*
X190363301Y-81412045D01*
X190361833Y-81371732D01*
X190359519Y-81342998D01*
X190356167Y-81323093D01*
X190351588Y-81309268D01*
X190345589Y-81298772D01*
X190341136Y-81292811D01*
X190329850Y-81278691D01*
X190319301Y-81268029D01*
X190307893Y-81261892D01*
X190294030Y-81261343D01*
X190276114Y-81267448D01*
X190276114Y-81267448D01*
G37*
X190276114Y-81267448D02*
X190252548Y-81281273D01*
X190221735Y-81303881D01*
X190182078Y-81336338D01*
X190131980Y-81379708D01*
X190069843Y-81435058D01*
X189994072Y-81503451D01*
X189907334Y-81582084D01*
X189726711Y-81745878D01*
X189721067Y-81526029D01*
X189719029Y-81450351D01*
X189717063Y-81393994D01*
X189714734Y-81353706D01*
X189711606Y-81326235D01*
X189707245Y-81308329D01*
X189701216Y-81296737D01*
X189693084Y-81288208D01*
X189688772Y-81284623D01*
X189654241Y-81265670D01*
X189621383Y-81268441D01*
X189595318Y-81284633D01*
X189568667Y-81306199D01*
X189565352Y-81621151D01*
X189564435Y-81713779D01*
X189563968Y-81786544D01*
X189564113Y-81842161D01*
X189565032Y-81883342D01*
X189566887Y-81912803D01*
X189569839Y-81933255D01*
X189574050Y-81947413D01*
X189579682Y-81957991D01*
X189585927Y-81966474D01*
X189599439Y-81982207D01*
X189612883Y-81992636D01*
X189628124Y-81996639D01*
X189647026Y-81993094D01*
X189671455Y-81980879D01*
X189703273Y-81958871D01*
X189744348Y-81925949D01*
X189796542Y-81880991D01*
X189861722Y-81822875D01*
X189935556Y-81756099D01*
X190200845Y-81515458D01*
X190206489Y-81734589D01*
X190208531Y-81810128D01*
X190210502Y-81866354D01*
X190212839Y-81906524D01*
X190215981Y-81933896D01*
X190220364Y-81951728D01*
X190226424Y-81963279D01*
X190234600Y-81971807D01*
X190238784Y-81975282D01*
X190275765Y-81994372D01*
X190310708Y-81991493D01*
X190341136Y-81967100D01*
X190348097Y-81957286D01*
X190353523Y-81945826D01*
X190357603Y-81929968D01*
X190360529Y-81906963D01*
X190362492Y-81874062D01*
X190363683Y-81828516D01*
X190364292Y-81767573D01*
X190364511Y-81688486D01*
X190364534Y-81629956D01*
X190364460Y-81538407D01*
X190364113Y-81466687D01*
X190363301Y-81412045D01*
X190361833Y-81371732D01*
X190359519Y-81342998D01*
X190356167Y-81323093D01*
X190351588Y-81309268D01*
X190345589Y-81298772D01*
X190341136Y-81292811D01*
X190329850Y-81278691D01*
X190319301Y-81268029D01*
X190307893Y-81261892D01*
X190294030Y-81261343D01*
X190276114Y-81267448D01*
G36*
X188745657Y-81263260D02*
X188669299Y-81264174D01*
X188610783Y-81266311D01*
X188567745Y-81270175D01*
X188537817Y-81276267D01*
X188518632Y-81285090D01*
X188507824Y-81297146D01*
X188503027Y-81312939D01*
X188501873Y-81332970D01*
X188501867Y-81335335D01*
X188502869Y-81357992D01*
X188507604Y-81375503D01*
X188518667Y-81388574D01*
X188538652Y-81397913D01*
X188570154Y-81404227D01*
X188615768Y-81408222D01*
X188678087Y-81410606D01*
X188759707Y-81412086D01*
X188784723Y-81412414D01*
X189026800Y-81415467D01*
X189030186Y-81480378D01*
X189033571Y-81545289D01*
X188865424Y-81545289D01*
X188799734Y-81545531D01*
X188752828Y-81546556D01*
X188720917Y-81548811D01*
X188700209Y-81552742D01*
X188686916Y-81558798D01*
X188677245Y-81567424D01*
X188677183Y-81567493D01*
X188659644Y-81601112D01*
X188660278Y-81637448D01*
X188678686Y-81668423D01*
X188682329Y-81671607D01*
X188695259Y-81679812D01*
X188712976Y-81685521D01*
X188739430Y-81689162D01*
X188778568Y-81691167D01*
X188834338Y-81691964D01*
X188870006Y-81692045D01*
X189032445Y-81692045D01*
X189032445Y-81850089D01*
X188785839Y-81850089D01*
X188704420Y-81850231D01*
X188642590Y-81850814D01*
X188597363Y-81852068D01*
X188565752Y-81854227D01*
X188544769Y-81857523D01*
X188531427Y-81862189D01*
X188522739Y-81868457D01*
X188520550Y-81870733D01*
X188504386Y-81902280D01*
X188503203Y-81938168D01*
X188516464Y-81969285D01*
X188526957Y-81979271D01*
X188537871Y-81984769D01*
X188554783Y-81989022D01*
X188580367Y-81992180D01*
X188617299Y-81994392D01*
X188668254Y-81995806D01*
X188735906Y-81996572D01*
X188822931Y-81996838D01*
X188842606Y-81996845D01*
X188931089Y-81996787D01*
X188999773Y-81996467D01*
X189051436Y-81995667D01*
X189088855Y-81994167D01*
X189114810Y-81991749D01*
X189132078Y-81988194D01*
X189143438Y-81983282D01*
X189151668Y-81976795D01*
X189156183Y-81972138D01*
X189162979Y-81963889D01*
X189168288Y-81953669D01*
X189172294Y-81938800D01*
X189175179Y-81916602D01*
X189177126Y-81884393D01*
X189178319Y-81839496D01*
X189178939Y-81779228D01*
X189179171Y-81700911D01*
X189179200Y-81634994D01*
X189179129Y-81542628D01*
X189178792Y-81470117D01*
X189178002Y-81414737D01*
X189176574Y-81373765D01*
X189174321Y-81344478D01*
X189171057Y-81324153D01*
X189166596Y-81310066D01*
X189160752Y-81299495D01*
X189155803Y-81292811D01*
X189132406Y-81263067D01*
X188842226Y-81263067D01*
X188745657Y-81263260D01*
X188745657Y-81263260D01*
G37*
X188745657Y-81263260D02*
X188669299Y-81264174D01*
X188610783Y-81266311D01*
X188567745Y-81270175D01*
X188537817Y-81276267D01*
X188518632Y-81285090D01*
X188507824Y-81297146D01*
X188503027Y-81312939D01*
X188501873Y-81332970D01*
X188501867Y-81335335D01*
X188502869Y-81357992D01*
X188507604Y-81375503D01*
X188518667Y-81388574D01*
X188538652Y-81397913D01*
X188570154Y-81404227D01*
X188615768Y-81408222D01*
X188678087Y-81410606D01*
X188759707Y-81412086D01*
X188784723Y-81412414D01*
X189026800Y-81415467D01*
X189030186Y-81480378D01*
X189033571Y-81545289D01*
X188865424Y-81545289D01*
X188799734Y-81545531D01*
X188752828Y-81546556D01*
X188720917Y-81548811D01*
X188700209Y-81552742D01*
X188686916Y-81558798D01*
X188677245Y-81567424D01*
X188677183Y-81567493D01*
X188659644Y-81601112D01*
X188660278Y-81637448D01*
X188678686Y-81668423D01*
X188682329Y-81671607D01*
X188695259Y-81679812D01*
X188712976Y-81685521D01*
X188739430Y-81689162D01*
X188778568Y-81691167D01*
X188834338Y-81691964D01*
X188870006Y-81692045D01*
X189032445Y-81692045D01*
X189032445Y-81850089D01*
X188785839Y-81850089D01*
X188704420Y-81850231D01*
X188642590Y-81850814D01*
X188597363Y-81852068D01*
X188565752Y-81854227D01*
X188544769Y-81857523D01*
X188531427Y-81862189D01*
X188522739Y-81868457D01*
X188520550Y-81870733D01*
X188504386Y-81902280D01*
X188503203Y-81938168D01*
X188516464Y-81969285D01*
X188526957Y-81979271D01*
X188537871Y-81984769D01*
X188554783Y-81989022D01*
X188580367Y-81992180D01*
X188617299Y-81994392D01*
X188668254Y-81995806D01*
X188735906Y-81996572D01*
X188822931Y-81996838D01*
X188842606Y-81996845D01*
X188931089Y-81996787D01*
X188999773Y-81996467D01*
X189051436Y-81995667D01*
X189088855Y-81994167D01*
X189114810Y-81991749D01*
X189132078Y-81988194D01*
X189143438Y-81983282D01*
X189151668Y-81976795D01*
X189156183Y-81972138D01*
X189162979Y-81963889D01*
X189168288Y-81953669D01*
X189172294Y-81938800D01*
X189175179Y-81916602D01*
X189177126Y-81884393D01*
X189178319Y-81839496D01*
X189178939Y-81779228D01*
X189179171Y-81700911D01*
X189179200Y-81634994D01*
X189179129Y-81542628D01*
X189178792Y-81470117D01*
X189178002Y-81414737D01*
X189176574Y-81373765D01*
X189174321Y-81344478D01*
X189171057Y-81324153D01*
X189166596Y-81310066D01*
X189160752Y-81299495D01*
X189155803Y-81292811D01*
X189132406Y-81263067D01*
X188842226Y-81263067D01*
X188745657Y-81263260D01*
G36*
X187957691Y-81263275D02*
X187828712Y-81267636D01*
X187719009Y-81280861D01*
X187626774Y-81303741D01*
X187550198Y-81337070D01*
X187487473Y-81381638D01*
X187436788Y-81438236D01*
X187396337Y-81507658D01*
X187395541Y-81509351D01*
X187371399Y-81571483D01*
X187362797Y-81626509D01*
X187369769Y-81681887D01*
X187392346Y-81745073D01*
X187396628Y-81754689D01*
X187425828Y-81810966D01*
X187458644Y-81854451D01*
X187500998Y-81891417D01*
X187558810Y-81928135D01*
X187562169Y-81930052D01*
X187612496Y-81954227D01*
X187669379Y-81972282D01*
X187736473Y-81984839D01*
X187817435Y-81992522D01*
X187915918Y-81995953D01*
X187950714Y-81996251D01*
X188116406Y-81996845D01*
X188139803Y-81967100D01*
X188146743Y-81957319D01*
X188152158Y-81945897D01*
X188156235Y-81930095D01*
X188159163Y-81907175D01*
X188161133Y-81874396D01*
X188161775Y-81850089D01*
X188005156Y-81850089D01*
X187911274Y-81850089D01*
X187856336Y-81848483D01*
X187799940Y-81844255D01*
X187753655Y-81838292D01*
X187750861Y-81837790D01*
X187668652Y-81815736D01*
X187604886Y-81782600D01*
X187557548Y-81736847D01*
X187524618Y-81676939D01*
X187518892Y-81661061D01*
X187513279Y-81636333D01*
X187515709Y-81611902D01*
X187527533Y-81579400D01*
X187534660Y-81563434D01*
X187558000Y-81521006D01*
X187586120Y-81491240D01*
X187617060Y-81470511D01*
X187679034Y-81443537D01*
X187758349Y-81423998D01*
X187850747Y-81412746D01*
X187917667Y-81410270D01*
X188005156Y-81409822D01*
X188005156Y-81850089D01*
X188161775Y-81850089D01*
X188162332Y-81829021D01*
X188162950Y-81768311D01*
X188163175Y-81689526D01*
X188163200Y-81627920D01*
X188163200Y-81318485D01*
X188135491Y-81290776D01*
X188123194Y-81279544D01*
X188109897Y-81271853D01*
X188091328Y-81267040D01*
X188063214Y-81264446D01*
X188021283Y-81263410D01*
X187961263Y-81263270D01*
X187957691Y-81263275D01*
X187957691Y-81263275D01*
G37*
X187957691Y-81263275D02*
X187828712Y-81267636D01*
X187719009Y-81280861D01*
X187626774Y-81303741D01*
X187550198Y-81337070D01*
X187487473Y-81381638D01*
X187436788Y-81438236D01*
X187396337Y-81507658D01*
X187395541Y-81509351D01*
X187371399Y-81571483D01*
X187362797Y-81626509D01*
X187369769Y-81681887D01*
X187392346Y-81745073D01*
X187396628Y-81754689D01*
X187425828Y-81810966D01*
X187458644Y-81854451D01*
X187500998Y-81891417D01*
X187558810Y-81928135D01*
X187562169Y-81930052D01*
X187612496Y-81954227D01*
X187669379Y-81972282D01*
X187736473Y-81984839D01*
X187817435Y-81992522D01*
X187915918Y-81995953D01*
X187950714Y-81996251D01*
X188116406Y-81996845D01*
X188139803Y-81967100D01*
X188146743Y-81957319D01*
X188152158Y-81945897D01*
X188156235Y-81930095D01*
X188159163Y-81907175D01*
X188161133Y-81874396D01*
X188161775Y-81850089D01*
X188005156Y-81850089D01*
X187911274Y-81850089D01*
X187856336Y-81848483D01*
X187799940Y-81844255D01*
X187753655Y-81838292D01*
X187750861Y-81837790D01*
X187668652Y-81815736D01*
X187604886Y-81782600D01*
X187557548Y-81736847D01*
X187524618Y-81676939D01*
X187518892Y-81661061D01*
X187513279Y-81636333D01*
X187515709Y-81611902D01*
X187527533Y-81579400D01*
X187534660Y-81563434D01*
X187558000Y-81521006D01*
X187586120Y-81491240D01*
X187617060Y-81470511D01*
X187679034Y-81443537D01*
X187758349Y-81423998D01*
X187850747Y-81412746D01*
X187917667Y-81410270D01*
X188005156Y-81409822D01*
X188005156Y-81850089D01*
X188161775Y-81850089D01*
X188162332Y-81829021D01*
X188162950Y-81768311D01*
X188163175Y-81689526D01*
X188163200Y-81627920D01*
X188163200Y-81318485D01*
X188135491Y-81290776D01*
X188123194Y-81279544D01*
X188109897Y-81271853D01*
X188091328Y-81267040D01*
X188063214Y-81264446D01*
X188021283Y-81263410D01*
X187961263Y-81263270D01*
X187957691Y-81263275D01*
G36*
X185231335Y-81265034D02*
X185211745Y-81272035D01*
X185210990Y-81272377D01*
X185184387Y-81292678D01*
X185169730Y-81313561D01*
X185166862Y-81323352D01*
X185167004Y-81336361D01*
X185171039Y-81354895D01*
X185179854Y-81381257D01*
X185194331Y-81417752D01*
X185215355Y-81466687D01*
X185243812Y-81530365D01*
X185280585Y-81611093D01*
X185300825Y-81655216D01*
X185337375Y-81733985D01*
X185371685Y-81806423D01*
X185402448Y-81869880D01*
X185428352Y-81921708D01*
X185448090Y-81959259D01*
X185460350Y-81979884D01*
X185462776Y-81982733D01*
X185493817Y-81995302D01*
X185528879Y-81993619D01*
X185557000Y-81978332D01*
X185558146Y-81977089D01*
X185569332Y-81960154D01*
X185588096Y-81927170D01*
X185612125Y-81882380D01*
X185639103Y-81830032D01*
X185648799Y-81810742D01*
X185721986Y-81664150D01*
X185801760Y-81823393D01*
X185830233Y-81878415D01*
X185856650Y-81926132D01*
X185878852Y-81962893D01*
X185894681Y-81985044D01*
X185900046Y-81989741D01*
X185941743Y-81996102D01*
X185976151Y-81982733D01*
X185986272Y-81968446D01*
X186003786Y-81936692D01*
X186027265Y-81890597D01*
X186055280Y-81833285D01*
X186086401Y-81767880D01*
X186119201Y-81697507D01*
X186152250Y-81625291D01*
X186184119Y-81554355D01*
X186213381Y-81487825D01*
X186238605Y-81428826D01*
X186258364Y-81380481D01*
X186271228Y-81345915D01*
X186275769Y-81328253D01*
X186275723Y-81327613D01*
X186264674Y-81305388D01*
X186242590Y-81282753D01*
X186241290Y-81281768D01*
X186214147Y-81266425D01*
X186189042Y-81266574D01*
X186179632Y-81269466D01*
X186168166Y-81275718D01*
X186155990Y-81288014D01*
X186141643Y-81308908D01*
X186123664Y-81340949D01*
X186100593Y-81386688D01*
X186070970Y-81448677D01*
X186044255Y-81505898D01*
X186013520Y-81572226D01*
X185985979Y-81631874D01*
X185963062Y-81681725D01*
X185946202Y-81718664D01*
X185936827Y-81739573D01*
X185935460Y-81742845D01*
X185929311Y-81737497D01*
X185915178Y-81715109D01*
X185894943Y-81678946D01*
X185870485Y-81632277D01*
X185860752Y-81613022D01*
X185827783Y-81548004D01*
X185802357Y-81500654D01*
X185782388Y-81468219D01*
X185765790Y-81447946D01*
X185750476Y-81437082D01*
X185734360Y-81432875D01*
X185723857Y-81432400D01*
X185705330Y-81434042D01*
X185689096Y-81440831D01*
X185672965Y-81455566D01*
X185654749Y-81481044D01*
X185632261Y-81520061D01*
X185603311Y-81575414D01*
X185587338Y-81606903D01*
X185561430Y-81657087D01*
X185538833Y-81698704D01*
X185521542Y-81728242D01*
X185511550Y-81742189D01*
X185510191Y-81742770D01*
X185503739Y-81731793D01*
X185489292Y-81703290D01*
X185468297Y-81660244D01*
X185442203Y-81605638D01*
X185412454Y-81542454D01*
X185397820Y-81511071D01*
X185359750Y-81430078D01*
X185329095Y-81367756D01*
X185304263Y-81322071D01*
X185283663Y-81290989D01*
X185265702Y-81272478D01*
X185248790Y-81264504D01*
X185231335Y-81265034D01*
X185231335Y-81265034D01*
G37*
X185231335Y-81265034D02*
X185211745Y-81272035D01*
X185210990Y-81272377D01*
X185184387Y-81292678D01*
X185169730Y-81313561D01*
X185166862Y-81323352D01*
X185167004Y-81336361D01*
X185171039Y-81354895D01*
X185179854Y-81381257D01*
X185194331Y-81417752D01*
X185215355Y-81466687D01*
X185243812Y-81530365D01*
X185280585Y-81611093D01*
X185300825Y-81655216D01*
X185337375Y-81733985D01*
X185371685Y-81806423D01*
X185402448Y-81869880D01*
X185428352Y-81921708D01*
X185448090Y-81959259D01*
X185460350Y-81979884D01*
X185462776Y-81982733D01*
X185493817Y-81995302D01*
X185528879Y-81993619D01*
X185557000Y-81978332D01*
X185558146Y-81977089D01*
X185569332Y-81960154D01*
X185588096Y-81927170D01*
X185612125Y-81882380D01*
X185639103Y-81830032D01*
X185648799Y-81810742D01*
X185721986Y-81664150D01*
X185801760Y-81823393D01*
X185830233Y-81878415D01*
X185856650Y-81926132D01*
X185878852Y-81962893D01*
X185894681Y-81985044D01*
X185900046Y-81989741D01*
X185941743Y-81996102D01*
X185976151Y-81982733D01*
X185986272Y-81968446D01*
X186003786Y-81936692D01*
X186027265Y-81890597D01*
X186055280Y-81833285D01*
X186086401Y-81767880D01*
X186119201Y-81697507D01*
X186152250Y-81625291D01*
X186184119Y-81554355D01*
X186213381Y-81487825D01*
X186238605Y-81428826D01*
X186258364Y-81380481D01*
X186271228Y-81345915D01*
X186275769Y-81328253D01*
X186275723Y-81327613D01*
X186264674Y-81305388D01*
X186242590Y-81282753D01*
X186241290Y-81281768D01*
X186214147Y-81266425D01*
X186189042Y-81266574D01*
X186179632Y-81269466D01*
X186168166Y-81275718D01*
X186155990Y-81288014D01*
X186141643Y-81308908D01*
X186123664Y-81340949D01*
X186100593Y-81386688D01*
X186070970Y-81448677D01*
X186044255Y-81505898D01*
X186013520Y-81572226D01*
X185985979Y-81631874D01*
X185963062Y-81681725D01*
X185946202Y-81718664D01*
X185936827Y-81739573D01*
X185935460Y-81742845D01*
X185929311Y-81737497D01*
X185915178Y-81715109D01*
X185894943Y-81678946D01*
X185870485Y-81632277D01*
X185860752Y-81613022D01*
X185827783Y-81548004D01*
X185802357Y-81500654D01*
X185782388Y-81468219D01*
X185765790Y-81447946D01*
X185750476Y-81437082D01*
X185734360Y-81432875D01*
X185723857Y-81432400D01*
X185705330Y-81434042D01*
X185689096Y-81440831D01*
X185672965Y-81455566D01*
X185654749Y-81481044D01*
X185632261Y-81520061D01*
X185603311Y-81575414D01*
X185587338Y-81606903D01*
X185561430Y-81657087D01*
X185538833Y-81698704D01*
X185521542Y-81728242D01*
X185511550Y-81742189D01*
X185510191Y-81742770D01*
X185503739Y-81731793D01*
X185489292Y-81703290D01*
X185468297Y-81660244D01*
X185442203Y-81605638D01*
X185412454Y-81542454D01*
X185397820Y-81511071D01*
X185359750Y-81430078D01*
X185329095Y-81367756D01*
X185304263Y-81322071D01*
X185283663Y-81290989D01*
X185265702Y-81272478D01*
X185248790Y-81264504D01*
X185231335Y-81265034D01*
G36*
X184787386Y-81269877D02*
X184763673Y-81284647D01*
X184737022Y-81306227D01*
X184737022Y-81627773D01*
X184737107Y-81721830D01*
X184737471Y-81795932D01*
X184738276Y-81852704D01*
X184739687Y-81894768D01*
X184741867Y-81924748D01*
X184744979Y-81945267D01*
X184749186Y-81958949D01*
X184754652Y-81968416D01*
X184758528Y-81973082D01*
X184789966Y-81993575D01*
X184825767Y-81992739D01*
X184857127Y-81975264D01*
X184883778Y-81953684D01*
X184883778Y-81306227D01*
X184857127Y-81284647D01*
X184831406Y-81268949D01*
X184810400Y-81263067D01*
X184787386Y-81269877D01*
X184787386Y-81269877D01*
G37*
X184787386Y-81269877D02*
X184763673Y-81284647D01*
X184737022Y-81306227D01*
X184737022Y-81627773D01*
X184737107Y-81721830D01*
X184737471Y-81795932D01*
X184738276Y-81852704D01*
X184739687Y-81894768D01*
X184741867Y-81924748D01*
X184744979Y-81945267D01*
X184749186Y-81958949D01*
X184754652Y-81968416D01*
X184758528Y-81973082D01*
X184789966Y-81993575D01*
X184825767Y-81992739D01*
X184857127Y-81975264D01*
X184883778Y-81953684D01*
X184883778Y-81306227D01*
X184857127Y-81284647D01*
X184831406Y-81268949D01*
X184810400Y-81263067D01*
X184787386Y-81269877D01*
G36*
X184012935Y-81263163D02*
X183934228Y-81263542D01*
X183873137Y-81264333D01*
X183827183Y-81265670D01*
X183793886Y-81267683D01*
X183770764Y-81270506D01*
X183755338Y-81274269D01*
X183745129Y-81279105D01*
X183740187Y-81282822D01*
X183714543Y-81315358D01*
X183711441Y-81349138D01*
X183727289Y-81379826D01*
X183737652Y-81392089D01*
X183748804Y-81400450D01*
X183764965Y-81405657D01*
X183790358Y-81408457D01*
X183829202Y-81409596D01*
X183885720Y-81409821D01*
X183896820Y-81409822D01*
X184042756Y-81409822D01*
X184042756Y-81680756D01*
X184042852Y-81766154D01*
X184043289Y-81831864D01*
X184044288Y-81880774D01*
X184046072Y-81915773D01*
X184048863Y-81939749D01*
X184052883Y-81955593D01*
X184058355Y-81966191D01*
X184065334Y-81974267D01*
X184098266Y-81994112D01*
X184132646Y-81992548D01*
X184163824Y-81969906D01*
X184166114Y-81967100D01*
X184173571Y-81956492D01*
X184179253Y-81944081D01*
X184183399Y-81926850D01*
X184186250Y-81901784D01*
X184188046Y-81865867D01*
X184189028Y-81816083D01*
X184189436Y-81749417D01*
X184189511Y-81673589D01*
X184189511Y-81409822D01*
X184328873Y-81409822D01*
X184388678Y-81409418D01*
X184430082Y-81407840D01*
X184457252Y-81404547D01*
X184474354Y-81398992D01*
X184485557Y-81390631D01*
X184486917Y-81389178D01*
X184503275Y-81355939D01*
X184501828Y-81318362D01*
X184483022Y-81285645D01*
X184475750Y-81279298D01*
X184466373Y-81274266D01*
X184452391Y-81270396D01*
X184431304Y-81267537D01*
X184400611Y-81265535D01*
X184357811Y-81264239D01*
X184300405Y-81263498D01*
X184225890Y-81263158D01*
X184131767Y-81263068D01*
X184111740Y-81263067D01*
X184012935Y-81263163D01*
X184012935Y-81263163D01*
G37*
X184012935Y-81263163D02*
X183934228Y-81263542D01*
X183873137Y-81264333D01*
X183827183Y-81265670D01*
X183793886Y-81267683D01*
X183770764Y-81270506D01*
X183755338Y-81274269D01*
X183745129Y-81279105D01*
X183740187Y-81282822D01*
X183714543Y-81315358D01*
X183711441Y-81349138D01*
X183727289Y-81379826D01*
X183737652Y-81392089D01*
X183748804Y-81400450D01*
X183764965Y-81405657D01*
X183790358Y-81408457D01*
X183829202Y-81409596D01*
X183885720Y-81409821D01*
X183896820Y-81409822D01*
X184042756Y-81409822D01*
X184042756Y-81680756D01*
X184042852Y-81766154D01*
X184043289Y-81831864D01*
X184044288Y-81880774D01*
X184046072Y-81915773D01*
X184048863Y-81939749D01*
X184052883Y-81955593D01*
X184058355Y-81966191D01*
X184065334Y-81974267D01*
X184098266Y-81994112D01*
X184132646Y-81992548D01*
X184163824Y-81969906D01*
X184166114Y-81967100D01*
X184173571Y-81956492D01*
X184179253Y-81944081D01*
X184183399Y-81926850D01*
X184186250Y-81901784D01*
X184188046Y-81865867D01*
X184189028Y-81816083D01*
X184189436Y-81749417D01*
X184189511Y-81673589D01*
X184189511Y-81409822D01*
X184328873Y-81409822D01*
X184388678Y-81409418D01*
X184430082Y-81407840D01*
X184457252Y-81404547D01*
X184474354Y-81398992D01*
X184485557Y-81390631D01*
X184486917Y-81389178D01*
X184503275Y-81355939D01*
X184501828Y-81318362D01*
X184483022Y-81285645D01*
X184475750Y-81279298D01*
X184466373Y-81274266D01*
X184452391Y-81270396D01*
X184431304Y-81267537D01*
X184400611Y-81265535D01*
X184357811Y-81264239D01*
X184300405Y-81263498D01*
X184225890Y-81263158D01*
X184131767Y-81263068D01*
X184111740Y-81263067D01*
X184012935Y-81263163D01*
G36*
X182747177Y-81268533D02*
X182715798Y-81290776D01*
X182688089Y-81318485D01*
X182688089Y-81627920D01*
X182688162Y-81719799D01*
X182688505Y-81791840D01*
X182689308Y-81846780D01*
X182690759Y-81887360D01*
X182693048Y-81916317D01*
X182696364Y-81936391D01*
X182700895Y-81950321D01*
X182706831Y-81960845D01*
X182711486Y-81967100D01*
X182742217Y-81991673D01*
X182777504Y-81994341D01*
X182809755Y-81979271D01*
X182820412Y-81970374D01*
X182827536Y-81958557D01*
X182831833Y-81939526D01*
X182834009Y-81908992D01*
X182834772Y-81862662D01*
X182834845Y-81826871D01*
X182834845Y-81692045D01*
X183331556Y-81692045D01*
X183331556Y-81814700D01*
X183332069Y-81870787D01*
X183334124Y-81909333D01*
X183338492Y-81935361D01*
X183345944Y-81953897D01*
X183354953Y-81967100D01*
X183385856Y-81991604D01*
X183420804Y-81994506D01*
X183454262Y-81977089D01*
X183463396Y-81967959D01*
X183469848Y-81955855D01*
X183474103Y-81937001D01*
X183476648Y-81907620D01*
X183477971Y-81863937D01*
X183478557Y-81802175D01*
X183478625Y-81788000D01*
X183479109Y-81671631D01*
X183479359Y-81575727D01*
X183479277Y-81498177D01*
X183478769Y-81436869D01*
X183477738Y-81389690D01*
X183476087Y-81354530D01*
X183473721Y-81329276D01*
X183470543Y-81311817D01*
X183466456Y-81300041D01*
X183461366Y-81291835D01*
X183455734Y-81285645D01*
X183423872Y-81265844D01*
X183390643Y-81268533D01*
X183359265Y-81290776D01*
X183346567Y-81305126D01*
X183338474Y-81320978D01*
X183333958Y-81343554D01*
X183331994Y-81378078D01*
X183331556Y-81429776D01*
X183331556Y-81545289D01*
X182834845Y-81545289D01*
X182834845Y-81426756D01*
X182834338Y-81372148D01*
X182832302Y-81335275D01*
X182827965Y-81311307D01*
X182820553Y-81295415D01*
X182812267Y-81285645D01*
X182780406Y-81265844D01*
X182747177Y-81268533D01*
X182747177Y-81268533D01*
G37*
X182747177Y-81268533D02*
X182715798Y-81290776D01*
X182688089Y-81318485D01*
X182688089Y-81627920D01*
X182688162Y-81719799D01*
X182688505Y-81791840D01*
X182689308Y-81846780D01*
X182690759Y-81887360D01*
X182693048Y-81916317D01*
X182696364Y-81936391D01*
X182700895Y-81950321D01*
X182706831Y-81960845D01*
X182711486Y-81967100D01*
X182742217Y-81991673D01*
X182777504Y-81994341D01*
X182809755Y-81979271D01*
X182820412Y-81970374D01*
X182827536Y-81958557D01*
X182831833Y-81939526D01*
X182834009Y-81908992D01*
X182834772Y-81862662D01*
X182834845Y-81826871D01*
X182834845Y-81692045D01*
X183331556Y-81692045D01*
X183331556Y-81814700D01*
X183332069Y-81870787D01*
X183334124Y-81909333D01*
X183338492Y-81935361D01*
X183345944Y-81953897D01*
X183354953Y-81967100D01*
X183385856Y-81991604D01*
X183420804Y-81994506D01*
X183454262Y-81977089D01*
X183463396Y-81967959D01*
X183469848Y-81955855D01*
X183474103Y-81937001D01*
X183476648Y-81907620D01*
X183477971Y-81863937D01*
X183478557Y-81802175D01*
X183478625Y-81788000D01*
X183479109Y-81671631D01*
X183479359Y-81575727D01*
X183479277Y-81498177D01*
X183478769Y-81436869D01*
X183477738Y-81389690D01*
X183476087Y-81354530D01*
X183473721Y-81329276D01*
X183470543Y-81311817D01*
X183466456Y-81300041D01*
X183461366Y-81291835D01*
X183455734Y-81285645D01*
X183423872Y-81265844D01*
X183390643Y-81268533D01*
X183359265Y-81290776D01*
X183346567Y-81305126D01*
X183338474Y-81320978D01*
X183333958Y-81343554D01*
X183331994Y-81378078D01*
X183331556Y-81429776D01*
X183331556Y-81545289D01*
X182834845Y-81545289D01*
X182834845Y-81426756D01*
X182834338Y-81372148D01*
X182832302Y-81335275D01*
X182827965Y-81311307D01*
X182820553Y-81295415D01*
X182812267Y-81285645D01*
X182780406Y-81265844D01*
X182747177Y-81268533D01*
G36*
X191922400Y-76483054D02*
X191911535Y-76596993D01*
X191879918Y-76704616D01*
X191829015Y-76803615D01*
X191760293Y-76891684D01*
X191675219Y-76966516D01*
X191578232Y-77024384D01*
X191471964Y-77064005D01*
X191364950Y-77082573D01*
X191259300Y-77081434D01*
X191157125Y-77061930D01*
X191060534Y-77025406D01*
X190971638Y-76973205D01*
X190892546Y-76906673D01*
X190825369Y-76827152D01*
X190772217Y-76735987D01*
X190735199Y-76634523D01*
X190716427Y-76524102D01*
X190714489Y-76474206D01*
X190714489Y-76386267D01*
X190662560Y-76386267D01*
X190626253Y-76389111D01*
X190599355Y-76400911D01*
X190572249Y-76424649D01*
X190533867Y-76463031D01*
X190533867Y-78654602D01*
X190533876Y-78916739D01*
X190533908Y-79157241D01*
X190533972Y-79377048D01*
X190534076Y-79577101D01*
X190534227Y-79758344D01*
X190534434Y-79921716D01*
X190534706Y-80068160D01*
X190535050Y-80198617D01*
X190535474Y-80314029D01*
X190535987Y-80415338D01*
X190536597Y-80503484D01*
X190537312Y-80579410D01*
X190538140Y-80644057D01*
X190539089Y-80698367D01*
X190540167Y-80743280D01*
X190541383Y-80779740D01*
X190542745Y-80808687D01*
X190544261Y-80831063D01*
X190545938Y-80847809D01*
X190547786Y-80859868D01*
X190549813Y-80868180D01*
X190552025Y-80873687D01*
X190553108Y-80875537D01*
X190557271Y-80882549D01*
X190560805Y-80888996D01*
X190564635Y-80894900D01*
X190569682Y-80900286D01*
X190576871Y-80905178D01*
X190587123Y-80909598D01*
X190601364Y-80913572D01*
X190620514Y-80917121D01*
X190645499Y-80920270D01*
X190677240Y-80923042D01*
X190716662Y-80925461D01*
X190764686Y-80927551D01*
X190822237Y-80929335D01*
X190890237Y-80930837D01*
X190969610Y-80932080D01*
X191061279Y-80933089D01*
X191166166Y-80933885D01*
X191285196Y-80934494D01*
X191419290Y-80934939D01*
X191569373Y-80935243D01*
X191736367Y-80935430D01*
X191921196Y-80935524D01*
X192124783Y-80935548D01*
X192348050Y-80935525D01*
X192591922Y-80935480D01*
X192857321Y-80935437D01*
X192895704Y-80935432D01*
X193162682Y-80935389D01*
X193408002Y-80935318D01*
X193632583Y-80935213D01*
X193837345Y-80935066D01*
X194023206Y-80934869D01*
X194191088Y-80934616D01*
X194341908Y-80934300D01*
X194476587Y-80933913D01*
X194596044Y-80933447D01*
X194701199Y-80932897D01*
X194792971Y-80932253D01*
X194872279Y-80931511D01*
X194940043Y-80930661D01*
X194997182Y-80929697D01*
X195044617Y-80928611D01*
X195083266Y-80927397D01*
X195114049Y-80926047D01*
X195137885Y-80924555D01*
X195155694Y-80922911D01*
X195168395Y-80921111D01*
X195176908Y-80919145D01*
X195181266Y-80917477D01*
X195189728Y-80913906D01*
X195197497Y-80911270D01*
X195204602Y-80908634D01*
X195211073Y-80905062D01*
X195216939Y-80899621D01*
X195222229Y-80891375D01*
X195226974Y-80879390D01*
X195231202Y-80862731D01*
X195234943Y-80840463D01*
X195238227Y-80811652D01*
X195241083Y-80775363D01*
X195243540Y-80730661D01*
X195245629Y-80676611D01*
X195247378Y-80612279D01*
X195248817Y-80536730D01*
X195249976Y-80449030D01*
X195250883Y-80348243D01*
X195251569Y-80233434D01*
X195252063Y-80103670D01*
X195252395Y-79958015D01*
X195252593Y-79795535D01*
X195252687Y-79615295D01*
X195252708Y-79416360D01*
X195252685Y-79197796D01*
X195252646Y-78958668D01*
X195252622Y-78698040D01*
X195252622Y-78655889D01*
X195252636Y-78392992D01*
X195252661Y-78151732D01*
X195252671Y-77931165D01*
X195252642Y-77730352D01*
X195252548Y-77548349D01*
X195252362Y-77384216D01*
X195252059Y-77237011D01*
X195251614Y-77105792D01*
X195251034Y-76995867D01*
X194948197Y-76995867D01*
X194908407Y-77053711D01*
X194897236Y-77069479D01*
X194887166Y-77083441D01*
X194878138Y-77096784D01*
X194870097Y-77110693D01*
X194862986Y-77126356D01*
X194856747Y-77144958D01*
X194851325Y-77167686D01*
X194846662Y-77195727D01*
X194842701Y-77230267D01*
X194839385Y-77272492D01*
X194836659Y-77323589D01*
X194834464Y-77384744D01*
X194832745Y-77457144D01*
X194831444Y-77541975D01*
X194830505Y-77640422D01*
X194829870Y-77753674D01*
X194829484Y-77882916D01*
X194829288Y-78029334D01*
X194829227Y-78194116D01*
X194829243Y-78378447D01*
X194829280Y-78583513D01*
X194829289Y-78706133D01*
X194829265Y-78923082D01*
X194829231Y-79118642D01*
X194829243Y-79293999D01*
X194829358Y-79450341D01*
X194829630Y-79588857D01*
X194830118Y-79710734D01*
X194830876Y-79817160D01*
X194831962Y-79909322D01*
X194833431Y-79988409D01*
X194835340Y-80055608D01*
X194837744Y-80112107D01*
X194840701Y-80159093D01*
X194844266Y-80197755D01*
X194848495Y-80229280D01*
X194853446Y-80254855D01*
X194859173Y-80275670D01*
X194865733Y-80292911D01*
X194873183Y-80307765D01*
X194881579Y-80321422D01*
X194890976Y-80335069D01*
X194901432Y-80349893D01*
X194907523Y-80358783D01*
X194946296Y-80416400D01*
X194414732Y-80416400D01*
X194291483Y-80416365D01*
X194188987Y-80416215D01*
X194105420Y-80415878D01*
X194038956Y-80415286D01*
X193987771Y-80414367D01*
X193950041Y-80413051D01*
X193923940Y-80411269D01*
X193907644Y-80408951D01*
X193899328Y-80406026D01*
X193897168Y-80402424D01*
X193899339Y-80398075D01*
X193900535Y-80396645D01*
X193925685Y-80359573D01*
X193951583Y-80306772D01*
X193975192Y-80244770D01*
X193983461Y-80218357D01*
X193988078Y-80200416D01*
X193991979Y-80179355D01*
X193995248Y-80153089D01*
X193997966Y-80119532D01*
X194000215Y-80076599D01*
X194002077Y-80022204D01*
X194003636Y-79954262D01*
X194004972Y-79870688D01*
X194006169Y-79769395D01*
X194007308Y-79648300D01*
X194007685Y-79603600D01*
X194008702Y-79478449D01*
X194009460Y-79374082D01*
X194009903Y-79288707D01*
X194009970Y-79220533D01*
X194009605Y-79167765D01*
X194008748Y-79128614D01*
X194007341Y-79101285D01*
X194005325Y-79083986D01*
X194002643Y-79074926D01*
X193999236Y-79072312D01*
X193995044Y-79074351D01*
X193990571Y-79078667D01*
X193980216Y-79091602D01*
X193958158Y-79120676D01*
X193925957Y-79163759D01*
X193885174Y-79218718D01*
X193837370Y-79283423D01*
X193784105Y-79355742D01*
X193726940Y-79433544D01*
X193667437Y-79514698D01*
X193607155Y-79597072D01*
X193547655Y-79678536D01*
X193490498Y-79756957D01*
X193437245Y-79830204D01*
X193389457Y-79896147D01*
X193348693Y-79952654D01*
X193316516Y-79997593D01*
X193294485Y-80028834D01*
X193289917Y-80035466D01*
X193266996Y-80072369D01*
X193240188Y-80120359D01*
X193214789Y-80169897D01*
X193211568Y-80176577D01*
X193189890Y-80224772D01*
X193177304Y-80262334D01*
X193171574Y-80298160D01*
X193170456Y-80340200D01*
X193171090Y-80416400D01*
X192016651Y-80416400D01*
X192107815Y-80322669D01*
X192154612Y-80272775D01*
X192204899Y-80216295D01*
X192250944Y-80162026D01*
X192271369Y-80136673D01*
X192301807Y-80097128D01*
X192341862Y-80043916D01*
X192390361Y-79978667D01*
X192446135Y-79903011D01*
X192508011Y-79818577D01*
X192574819Y-79726994D01*
X192645387Y-79629892D01*
X192718545Y-79528901D01*
X192793121Y-79425650D01*
X192867944Y-79321768D01*
X192941843Y-79218885D01*
X193013646Y-79118631D01*
X193082184Y-79022636D01*
X193146284Y-78932527D01*
X193204775Y-78849936D01*
X193256486Y-78776492D01*
X193300247Y-78713824D01*
X193334885Y-78663561D01*
X193359230Y-78627334D01*
X193372111Y-78606771D01*
X193373869Y-78602668D01*
X193365910Y-78591342D01*
X193345115Y-78564162D01*
X193312847Y-78522829D01*
X193270470Y-78469044D01*
X193219347Y-78404506D01*
X193160841Y-78330918D01*
X193096314Y-78249978D01*
X193027131Y-78163388D01*
X192954653Y-78072848D01*
X192880246Y-77980060D01*
X192820517Y-77905702D01*
X191809511Y-77905702D01*
X191803602Y-77918659D01*
X191789272Y-77940908D01*
X191788225Y-77942391D01*
X191769438Y-77972544D01*
X191749791Y-78009375D01*
X191745892Y-78017511D01*
X191742356Y-78025940D01*
X191739230Y-78036059D01*
X191736486Y-78049260D01*
X191734092Y-78066938D01*
X191732019Y-78090484D01*
X191730235Y-78121293D01*
X191728712Y-78160757D01*
X191727419Y-78210269D01*
X191726326Y-78271223D01*
X191725403Y-78345011D01*
X191724619Y-78433028D01*
X191723945Y-78536665D01*
X191723350Y-78657316D01*
X191722805Y-78796374D01*
X191722279Y-78955232D01*
X191721745Y-79134089D01*
X191721206Y-79319207D01*
X191720772Y-79483145D01*
X191720509Y-79627303D01*
X191720484Y-79753079D01*
X191720765Y-79861871D01*
X191721419Y-79955077D01*
X191722514Y-80034097D01*
X191724118Y-80100328D01*
X191726297Y-80155170D01*
X191729119Y-80200021D01*
X191732651Y-80236278D01*
X191736961Y-80265341D01*
X191742117Y-80288609D01*
X191748185Y-80307479D01*
X191755233Y-80323351D01*
X191763329Y-80337622D01*
X191772540Y-80351691D01*
X191781040Y-80364158D01*
X191798176Y-80390452D01*
X191808322Y-80408037D01*
X191809511Y-80411257D01*
X191798604Y-80412334D01*
X191767411Y-80413335D01*
X191718223Y-80414235D01*
X191653333Y-80415010D01*
X191575030Y-80415637D01*
X191485607Y-80416091D01*
X191387356Y-80416349D01*
X191318445Y-80416400D01*
X191213452Y-80416180D01*
X191116610Y-80415548D01*
X191030107Y-80414549D01*
X190956132Y-80413227D01*
X190896874Y-80411626D01*
X190854520Y-80409791D01*
X190831260Y-80407765D01*
X190827378Y-80406493D01*
X190835076Y-80391591D01*
X190843074Y-80383560D01*
X190856246Y-80366434D01*
X190873485Y-80336183D01*
X190885407Y-80311622D01*
X190912045Y-80252711D01*
X190915120Y-79075845D01*
X190918195Y-77898978D01*
X191363853Y-77898978D01*
X191461670Y-77899142D01*
X191552064Y-77899611D01*
X191632630Y-77900347D01*
X191700962Y-77901316D01*
X191754656Y-77902480D01*
X191791305Y-77903803D01*
X191808504Y-77905249D01*
X191809511Y-77905702D01*
X192820517Y-77905702D01*
X192805270Y-77886722D01*
X192731090Y-77794537D01*
X192659069Y-77705204D01*
X192590569Y-77620424D01*
X192526955Y-77541898D01*
X192469588Y-77471326D01*
X192419833Y-77410409D01*
X192379052Y-77360847D01*
X192361888Y-77340178D01*
X192275596Y-77239516D01*
X192198997Y-77156259D01*
X192130183Y-77088438D01*
X192067248Y-77034089D01*
X192057867Y-77026722D01*
X192018356Y-76996117D01*
X193150116Y-76995867D01*
X193144827Y-77043844D01*
X193148130Y-77101188D01*
X193169661Y-77169463D01*
X193209635Y-77249212D01*
X193254943Y-77321495D01*
X193271161Y-77344140D01*
X193299214Y-77381696D01*
X193337430Y-77432021D01*
X193384137Y-77492973D01*
X193437661Y-77562411D01*
X193496331Y-77638194D01*
X193558475Y-77718180D01*
X193622421Y-77800228D01*
X193686495Y-77882196D01*
X193749027Y-77961943D01*
X193808343Y-78037327D01*
X193862771Y-78106207D01*
X193910639Y-78166442D01*
X193950275Y-78215889D01*
X193980006Y-78252408D01*
X193998161Y-78273858D01*
X194001220Y-78277156D01*
X194004079Y-78269149D01*
X194006293Y-78238855D01*
X194007857Y-78186556D01*
X194008767Y-78112531D01*
X194009020Y-78017063D01*
X194008613Y-77900434D01*
X194007704Y-77780445D01*
X194006382Y-77648333D01*
X194004857Y-77536594D01*
X194002881Y-77443025D01*
X194000206Y-77365419D01*
X193996582Y-77301574D01*
X193991761Y-77249283D01*
X193985494Y-77206344D01*
X193977532Y-77170551D01*
X193967627Y-77139700D01*
X193955531Y-77111586D01*
X193940993Y-77084005D01*
X193926311Y-77058966D01*
X193888314Y-76995867D01*
X194948197Y-76995867D01*
X195251034Y-76995867D01*
X195251001Y-76989617D01*
X195250195Y-76887544D01*
X195249170Y-76798633D01*
X195247900Y-76721941D01*
X195246360Y-76656527D01*
X195244524Y-76601449D01*
X195242367Y-76555765D01*
X195239863Y-76518534D01*
X195236987Y-76488813D01*
X195233713Y-76465662D01*
X195230015Y-76448139D01*
X195225869Y-76435301D01*
X195221247Y-76426208D01*
X195216126Y-76419918D01*
X195210478Y-76415488D01*
X195204279Y-76411978D01*
X195197504Y-76408445D01*
X195191508Y-76404876D01*
X195186275Y-76402300D01*
X195178099Y-76399972D01*
X195165886Y-76397878D01*
X195148541Y-76396007D01*
X195124969Y-76394347D01*
X195094077Y-76392884D01*
X195054768Y-76391608D01*
X195005950Y-76390504D01*
X194946527Y-76389561D01*
X194875404Y-76388767D01*
X194791488Y-76388109D01*
X194693683Y-76387575D01*
X194580894Y-76387153D01*
X194452029Y-76386829D01*
X194305991Y-76386592D01*
X194141686Y-76386430D01*
X193958020Y-76386330D01*
X193753897Y-76386280D01*
X193542753Y-76386267D01*
X191922400Y-76386267D01*
X191922400Y-76483054D01*
X191922400Y-76483054D01*
G37*
X191922400Y-76483054D02*
X191911535Y-76596993D01*
X191879918Y-76704616D01*
X191829015Y-76803615D01*
X191760293Y-76891684D01*
X191675219Y-76966516D01*
X191578232Y-77024384D01*
X191471964Y-77064005D01*
X191364950Y-77082573D01*
X191259300Y-77081434D01*
X191157125Y-77061930D01*
X191060534Y-77025406D01*
X190971638Y-76973205D01*
X190892546Y-76906673D01*
X190825369Y-76827152D01*
X190772217Y-76735987D01*
X190735199Y-76634523D01*
X190716427Y-76524102D01*
X190714489Y-76474206D01*
X190714489Y-76386267D01*
X190662560Y-76386267D01*
X190626253Y-76389111D01*
X190599355Y-76400911D01*
X190572249Y-76424649D01*
X190533867Y-76463031D01*
X190533867Y-78654602D01*
X190533876Y-78916739D01*
X190533908Y-79157241D01*
X190533972Y-79377048D01*
X190534076Y-79577101D01*
X190534227Y-79758344D01*
X190534434Y-79921716D01*
X190534706Y-80068160D01*
X190535050Y-80198617D01*
X190535474Y-80314029D01*
X190535987Y-80415338D01*
X190536597Y-80503484D01*
X190537312Y-80579410D01*
X190538140Y-80644057D01*
X190539089Y-80698367D01*
X190540167Y-80743280D01*
X190541383Y-80779740D01*
X190542745Y-80808687D01*
X190544261Y-80831063D01*
X190545938Y-80847809D01*
X190547786Y-80859868D01*
X190549813Y-80868180D01*
X190552025Y-80873687D01*
X190553108Y-80875537D01*
X190557271Y-80882549D01*
X190560805Y-80888996D01*
X190564635Y-80894900D01*
X190569682Y-80900286D01*
X190576871Y-80905178D01*
X190587123Y-80909598D01*
X190601364Y-80913572D01*
X190620514Y-80917121D01*
X190645499Y-80920270D01*
X190677240Y-80923042D01*
X190716662Y-80925461D01*
X190764686Y-80927551D01*
X190822237Y-80929335D01*
X190890237Y-80930837D01*
X190969610Y-80932080D01*
X191061279Y-80933089D01*
X191166166Y-80933885D01*
X191285196Y-80934494D01*
X191419290Y-80934939D01*
X191569373Y-80935243D01*
X191736367Y-80935430D01*
X191921196Y-80935524D01*
X192124783Y-80935548D01*
X192348050Y-80935525D01*
X192591922Y-80935480D01*
X192857321Y-80935437D01*
X192895704Y-80935432D01*
X193162682Y-80935389D01*
X193408002Y-80935318D01*
X193632583Y-80935213D01*
X193837345Y-80935066D01*
X194023206Y-80934869D01*
X194191088Y-80934616D01*
X194341908Y-80934300D01*
X194476587Y-80933913D01*
X194596044Y-80933447D01*
X194701199Y-80932897D01*
X194792971Y-80932253D01*
X194872279Y-80931511D01*
X194940043Y-80930661D01*
X194997182Y-80929697D01*
X195044617Y-80928611D01*
X195083266Y-80927397D01*
X195114049Y-80926047D01*
X195137885Y-80924555D01*
X195155694Y-80922911D01*
X195168395Y-80921111D01*
X195176908Y-80919145D01*
X195181266Y-80917477D01*
X195189728Y-80913906D01*
X195197497Y-80911270D01*
X195204602Y-80908634D01*
X195211073Y-80905062D01*
X195216939Y-80899621D01*
X195222229Y-80891375D01*
X195226974Y-80879390D01*
X195231202Y-80862731D01*
X195234943Y-80840463D01*
X195238227Y-80811652D01*
X195241083Y-80775363D01*
X195243540Y-80730661D01*
X195245629Y-80676611D01*
X195247378Y-80612279D01*
X195248817Y-80536730D01*
X195249976Y-80449030D01*
X195250883Y-80348243D01*
X195251569Y-80233434D01*
X195252063Y-80103670D01*
X195252395Y-79958015D01*
X195252593Y-79795535D01*
X195252687Y-79615295D01*
X195252708Y-79416360D01*
X195252685Y-79197796D01*
X195252646Y-78958668D01*
X195252622Y-78698040D01*
X195252622Y-78655889D01*
X195252636Y-78392992D01*
X195252661Y-78151732D01*
X195252671Y-77931165D01*
X195252642Y-77730352D01*
X195252548Y-77548349D01*
X195252362Y-77384216D01*
X195252059Y-77237011D01*
X195251614Y-77105792D01*
X195251034Y-76995867D01*
X194948197Y-76995867D01*
X194908407Y-77053711D01*
X194897236Y-77069479D01*
X194887166Y-77083441D01*
X194878138Y-77096784D01*
X194870097Y-77110693D01*
X194862986Y-77126356D01*
X194856747Y-77144958D01*
X194851325Y-77167686D01*
X194846662Y-77195727D01*
X194842701Y-77230267D01*
X194839385Y-77272492D01*
X194836659Y-77323589D01*
X194834464Y-77384744D01*
X194832745Y-77457144D01*
X194831444Y-77541975D01*
X194830505Y-77640422D01*
X194829870Y-77753674D01*
X194829484Y-77882916D01*
X194829288Y-78029334D01*
X194829227Y-78194116D01*
X194829243Y-78378447D01*
X194829280Y-78583513D01*
X194829289Y-78706133D01*
X194829265Y-78923082D01*
X194829231Y-79118642D01*
X194829243Y-79293999D01*
X194829358Y-79450341D01*
X194829630Y-79588857D01*
X194830118Y-79710734D01*
X194830876Y-79817160D01*
X194831962Y-79909322D01*
X194833431Y-79988409D01*
X194835340Y-80055608D01*
X194837744Y-80112107D01*
X194840701Y-80159093D01*
X194844266Y-80197755D01*
X194848495Y-80229280D01*
X194853446Y-80254855D01*
X194859173Y-80275670D01*
X194865733Y-80292911D01*
X194873183Y-80307765D01*
X194881579Y-80321422D01*
X194890976Y-80335069D01*
X194901432Y-80349893D01*
X194907523Y-80358783D01*
X194946296Y-80416400D01*
X194414732Y-80416400D01*
X194291483Y-80416365D01*
X194188987Y-80416215D01*
X194105420Y-80415878D01*
X194038956Y-80415286D01*
X193987771Y-80414367D01*
X193950041Y-80413051D01*
X193923940Y-80411269D01*
X193907644Y-80408951D01*
X193899328Y-80406026D01*
X193897168Y-80402424D01*
X193899339Y-80398075D01*
X193900535Y-80396645D01*
X193925685Y-80359573D01*
X193951583Y-80306772D01*
X193975192Y-80244770D01*
X193983461Y-80218357D01*
X193988078Y-80200416D01*
X193991979Y-80179355D01*
X193995248Y-80153089D01*
X193997966Y-80119532D01*
X194000215Y-80076599D01*
X194002077Y-80022204D01*
X194003636Y-79954262D01*
X194004972Y-79870688D01*
X194006169Y-79769395D01*
X194007308Y-79648300D01*
X194007685Y-79603600D01*
X194008702Y-79478449D01*
X194009460Y-79374082D01*
X194009903Y-79288707D01*
X194009970Y-79220533D01*
X194009605Y-79167765D01*
X194008748Y-79128614D01*
X194007341Y-79101285D01*
X194005325Y-79083986D01*
X194002643Y-79074926D01*
X193999236Y-79072312D01*
X193995044Y-79074351D01*
X193990571Y-79078667D01*
X193980216Y-79091602D01*
X193958158Y-79120676D01*
X193925957Y-79163759D01*
X193885174Y-79218718D01*
X193837370Y-79283423D01*
X193784105Y-79355742D01*
X193726940Y-79433544D01*
X193667437Y-79514698D01*
X193607155Y-79597072D01*
X193547655Y-79678536D01*
X193490498Y-79756957D01*
X193437245Y-79830204D01*
X193389457Y-79896147D01*
X193348693Y-79952654D01*
X193316516Y-79997593D01*
X193294485Y-80028834D01*
X193289917Y-80035466D01*
X193266996Y-80072369D01*
X193240188Y-80120359D01*
X193214789Y-80169897D01*
X193211568Y-80176577D01*
X193189890Y-80224772D01*
X193177304Y-80262334D01*
X193171574Y-80298160D01*
X193170456Y-80340200D01*
X193171090Y-80416400D01*
X192016651Y-80416400D01*
X192107815Y-80322669D01*
X192154612Y-80272775D01*
X192204899Y-80216295D01*
X192250944Y-80162026D01*
X192271369Y-80136673D01*
X192301807Y-80097128D01*
X192341862Y-80043916D01*
X192390361Y-79978667D01*
X192446135Y-79903011D01*
X192508011Y-79818577D01*
X192574819Y-79726994D01*
X192645387Y-79629892D01*
X192718545Y-79528901D01*
X192793121Y-79425650D01*
X192867944Y-79321768D01*
X192941843Y-79218885D01*
X193013646Y-79118631D01*
X193082184Y-79022636D01*
X193146284Y-78932527D01*
X193204775Y-78849936D01*
X193256486Y-78776492D01*
X193300247Y-78713824D01*
X193334885Y-78663561D01*
X193359230Y-78627334D01*
X193372111Y-78606771D01*
X193373869Y-78602668D01*
X193365910Y-78591342D01*
X193345115Y-78564162D01*
X193312847Y-78522829D01*
X193270470Y-78469044D01*
X193219347Y-78404506D01*
X193160841Y-78330918D01*
X193096314Y-78249978D01*
X193027131Y-78163388D01*
X192954653Y-78072848D01*
X192880246Y-77980060D01*
X192820517Y-77905702D01*
X191809511Y-77905702D01*
X191803602Y-77918659D01*
X191789272Y-77940908D01*
X191788225Y-77942391D01*
X191769438Y-77972544D01*
X191749791Y-78009375D01*
X191745892Y-78017511D01*
X191742356Y-78025940D01*
X191739230Y-78036059D01*
X191736486Y-78049260D01*
X191734092Y-78066938D01*
X191732019Y-78090484D01*
X191730235Y-78121293D01*
X191728712Y-78160757D01*
X191727419Y-78210269D01*
X191726326Y-78271223D01*
X191725403Y-78345011D01*
X191724619Y-78433028D01*
X191723945Y-78536665D01*
X191723350Y-78657316D01*
X191722805Y-78796374D01*
X191722279Y-78955232D01*
X191721745Y-79134089D01*
X191721206Y-79319207D01*
X191720772Y-79483145D01*
X191720509Y-79627303D01*
X191720484Y-79753079D01*
X191720765Y-79861871D01*
X191721419Y-79955077D01*
X191722514Y-80034097D01*
X191724118Y-80100328D01*
X191726297Y-80155170D01*
X191729119Y-80200021D01*
X191732651Y-80236278D01*
X191736961Y-80265341D01*
X191742117Y-80288609D01*
X191748185Y-80307479D01*
X191755233Y-80323351D01*
X191763329Y-80337622D01*
X191772540Y-80351691D01*
X191781040Y-80364158D01*
X191798176Y-80390452D01*
X191808322Y-80408037D01*
X191809511Y-80411257D01*
X191798604Y-80412334D01*
X191767411Y-80413335D01*
X191718223Y-80414235D01*
X191653333Y-80415010D01*
X191575030Y-80415637D01*
X191485607Y-80416091D01*
X191387356Y-80416349D01*
X191318445Y-80416400D01*
X191213452Y-80416180D01*
X191116610Y-80415548D01*
X191030107Y-80414549D01*
X190956132Y-80413227D01*
X190896874Y-80411626D01*
X190854520Y-80409791D01*
X190831260Y-80407765D01*
X190827378Y-80406493D01*
X190835076Y-80391591D01*
X190843074Y-80383560D01*
X190856246Y-80366434D01*
X190873485Y-80336183D01*
X190885407Y-80311622D01*
X190912045Y-80252711D01*
X190915120Y-79075845D01*
X190918195Y-77898978D01*
X191363853Y-77898978D01*
X191461670Y-77899142D01*
X191552064Y-77899611D01*
X191632630Y-77900347D01*
X191700962Y-77901316D01*
X191754656Y-77902480D01*
X191791305Y-77903803D01*
X191808504Y-77905249D01*
X191809511Y-77905702D01*
X192820517Y-77905702D01*
X192805270Y-77886722D01*
X192731090Y-77794537D01*
X192659069Y-77705204D01*
X192590569Y-77620424D01*
X192526955Y-77541898D01*
X192469588Y-77471326D01*
X192419833Y-77410409D01*
X192379052Y-77360847D01*
X192361888Y-77340178D01*
X192275596Y-77239516D01*
X192198997Y-77156259D01*
X192130183Y-77088438D01*
X192067248Y-77034089D01*
X192057867Y-77026722D01*
X192018356Y-76996117D01*
X193150116Y-76995867D01*
X193144827Y-77043844D01*
X193148130Y-77101188D01*
X193169661Y-77169463D01*
X193209635Y-77249212D01*
X193254943Y-77321495D01*
X193271161Y-77344140D01*
X193299214Y-77381696D01*
X193337430Y-77432021D01*
X193384137Y-77492973D01*
X193437661Y-77562411D01*
X193496331Y-77638194D01*
X193558475Y-77718180D01*
X193622421Y-77800228D01*
X193686495Y-77882196D01*
X193749027Y-77961943D01*
X193808343Y-78037327D01*
X193862771Y-78106207D01*
X193910639Y-78166442D01*
X193950275Y-78215889D01*
X193980006Y-78252408D01*
X193998161Y-78273858D01*
X194001220Y-78277156D01*
X194004079Y-78269149D01*
X194006293Y-78238855D01*
X194007857Y-78186556D01*
X194008767Y-78112531D01*
X194009020Y-78017063D01*
X194008613Y-77900434D01*
X194007704Y-77780445D01*
X194006382Y-77648333D01*
X194004857Y-77536594D01*
X194002881Y-77443025D01*
X194000206Y-77365419D01*
X193996582Y-77301574D01*
X193991761Y-77249283D01*
X193985494Y-77206344D01*
X193977532Y-77170551D01*
X193967627Y-77139700D01*
X193955531Y-77111586D01*
X193940993Y-77084005D01*
X193926311Y-77058966D01*
X193888314Y-76995867D01*
X194948197Y-76995867D01*
X195251034Y-76995867D01*
X195251001Y-76989617D01*
X195250195Y-76887544D01*
X195249170Y-76798633D01*
X195247900Y-76721941D01*
X195246360Y-76656527D01*
X195244524Y-76601449D01*
X195242367Y-76555765D01*
X195239863Y-76518534D01*
X195236987Y-76488813D01*
X195233713Y-76465662D01*
X195230015Y-76448139D01*
X195225869Y-76435301D01*
X195221247Y-76426208D01*
X195216126Y-76419918D01*
X195210478Y-76415488D01*
X195204279Y-76411978D01*
X195197504Y-76408445D01*
X195191508Y-76404876D01*
X195186275Y-76402300D01*
X195178099Y-76399972D01*
X195165886Y-76397878D01*
X195148541Y-76396007D01*
X195124969Y-76394347D01*
X195094077Y-76392884D01*
X195054768Y-76391608D01*
X195005950Y-76390504D01*
X194946527Y-76389561D01*
X194875404Y-76388767D01*
X194791488Y-76388109D01*
X194693683Y-76387575D01*
X194580894Y-76387153D01*
X194452029Y-76386829D01*
X194305991Y-76386592D01*
X194141686Y-76386430D01*
X193958020Y-76386330D01*
X193753897Y-76386280D01*
X193542753Y-76386267D01*
X191922400Y-76386267D01*
X191922400Y-76483054D01*
G36*
X188647571Y-76943071D02*
X188487430Y-76964245D01*
X188323490Y-77004385D01*
X188153687Y-77063889D01*
X187975957Y-77143154D01*
X187964690Y-77148699D01*
X187906995Y-77176725D01*
X187855448Y-77200802D01*
X187813809Y-77219249D01*
X187785838Y-77230386D01*
X187776267Y-77232933D01*
X187757050Y-77237941D01*
X187752439Y-77242147D01*
X187757542Y-77252580D01*
X187773582Y-77278868D01*
X187798712Y-77318257D01*
X187831086Y-77367991D01*
X187868857Y-77425315D01*
X187910178Y-77487476D01*
X187953202Y-77551718D01*
X187996083Y-77615285D01*
X188036974Y-77675425D01*
X188074029Y-77729380D01*
X188105400Y-77774397D01*
X188129241Y-77807721D01*
X188143706Y-77826597D01*
X188145691Y-77828787D01*
X188155809Y-77824138D01*
X188178150Y-77806962D01*
X188208720Y-77780440D01*
X188224464Y-77765964D01*
X188320953Y-77690682D01*
X188427664Y-77635241D01*
X188543168Y-77600141D01*
X188666038Y-77585880D01*
X188735439Y-77587051D01*
X188856577Y-77604212D01*
X188965795Y-77640094D01*
X189063418Y-77694959D01*
X189149772Y-77769070D01*
X189225185Y-77862688D01*
X189289982Y-77976076D01*
X189327399Y-78062667D01*
X189371252Y-78198366D01*
X189403572Y-78345850D01*
X189424443Y-78501314D01*
X189433949Y-78660956D01*
X189432173Y-78820973D01*
X189419197Y-78977561D01*
X189395106Y-79126918D01*
X189359982Y-79265240D01*
X189313908Y-79388724D01*
X189297627Y-79422978D01*
X189229380Y-79537064D01*
X189148921Y-79633557D01*
X189057430Y-79711670D01*
X188956089Y-79770617D01*
X188846080Y-79809612D01*
X188728585Y-79827868D01*
X188687117Y-79829211D01*
X188565559Y-79818290D01*
X188445122Y-79785474D01*
X188327334Y-79731439D01*
X188213723Y-79656865D01*
X188122315Y-79578539D01*
X188075785Y-79534008D01*
X187894517Y-79831271D01*
X187849420Y-79905433D01*
X187808181Y-79973646D01*
X187772265Y-80033459D01*
X187743134Y-80082420D01*
X187722250Y-80118079D01*
X187711076Y-80137984D01*
X187709625Y-80141079D01*
X187717854Y-80150718D01*
X187743433Y-80167999D01*
X187783127Y-80191283D01*
X187833703Y-80218934D01*
X187891926Y-80249315D01*
X187954563Y-80280790D01*
X188018379Y-80311722D01*
X188080140Y-80340473D01*
X188136612Y-80365408D01*
X188184562Y-80384889D01*
X188208014Y-80393318D01*
X188341779Y-80431133D01*
X188479673Y-80456136D01*
X188627378Y-80469140D01*
X188754167Y-80471468D01*
X188822122Y-80470373D01*
X188887723Y-80468275D01*
X188945153Y-80465434D01*
X188988597Y-80462106D01*
X189002702Y-80460422D01*
X189141716Y-80431587D01*
X189283243Y-80386468D01*
X189420725Y-80327750D01*
X189547606Y-80258120D01*
X189625111Y-80205441D01*
X189752519Y-80097239D01*
X189870822Y-79970671D01*
X189977828Y-79828866D01*
X190071348Y-79674951D01*
X190149190Y-79512053D01*
X190193044Y-79394756D01*
X190243292Y-79211128D01*
X190276791Y-79016581D01*
X190293551Y-78815325D01*
X190293584Y-78611568D01*
X190276899Y-78409521D01*
X190243507Y-78213392D01*
X190193420Y-78027391D01*
X190189603Y-78015803D01*
X190126719Y-77853750D01*
X190049972Y-77705832D01*
X189956758Y-77567865D01*
X189844473Y-77435661D01*
X189800608Y-77390399D01*
X189664466Y-77266457D01*
X189524509Y-77163915D01*
X189378589Y-77081656D01*
X189224558Y-77018564D01*
X189060268Y-76973523D01*
X188964711Y-76956033D01*
X188805977Y-76940466D01*
X188647571Y-76943071D01*
X188647571Y-76943071D01*
G37*
X188647571Y-76943071D02*
X188487430Y-76964245D01*
X188323490Y-77004385D01*
X188153687Y-77063889D01*
X187975957Y-77143154D01*
X187964690Y-77148699D01*
X187906995Y-77176725D01*
X187855448Y-77200802D01*
X187813809Y-77219249D01*
X187785838Y-77230386D01*
X187776267Y-77232933D01*
X187757050Y-77237941D01*
X187752439Y-77242147D01*
X187757542Y-77252580D01*
X187773582Y-77278868D01*
X187798712Y-77318257D01*
X187831086Y-77367991D01*
X187868857Y-77425315D01*
X187910178Y-77487476D01*
X187953202Y-77551718D01*
X187996083Y-77615285D01*
X188036974Y-77675425D01*
X188074029Y-77729380D01*
X188105400Y-77774397D01*
X188129241Y-77807721D01*
X188143706Y-77826597D01*
X188145691Y-77828787D01*
X188155809Y-77824138D01*
X188178150Y-77806962D01*
X188208720Y-77780440D01*
X188224464Y-77765964D01*
X188320953Y-77690682D01*
X188427664Y-77635241D01*
X188543168Y-77600141D01*
X188666038Y-77585880D01*
X188735439Y-77587051D01*
X188856577Y-77604212D01*
X188965795Y-77640094D01*
X189063418Y-77694959D01*
X189149772Y-77769070D01*
X189225185Y-77862688D01*
X189289982Y-77976076D01*
X189327399Y-78062667D01*
X189371252Y-78198366D01*
X189403572Y-78345850D01*
X189424443Y-78501314D01*
X189433949Y-78660956D01*
X189432173Y-78820973D01*
X189419197Y-78977561D01*
X189395106Y-79126918D01*
X189359982Y-79265240D01*
X189313908Y-79388724D01*
X189297627Y-79422978D01*
X189229380Y-79537064D01*
X189148921Y-79633557D01*
X189057430Y-79711670D01*
X188956089Y-79770617D01*
X188846080Y-79809612D01*
X188728585Y-79827868D01*
X188687117Y-79829211D01*
X188565559Y-79818290D01*
X188445122Y-79785474D01*
X188327334Y-79731439D01*
X188213723Y-79656865D01*
X188122315Y-79578539D01*
X188075785Y-79534008D01*
X187894517Y-79831271D01*
X187849420Y-79905433D01*
X187808181Y-79973646D01*
X187772265Y-80033459D01*
X187743134Y-80082420D01*
X187722250Y-80118079D01*
X187711076Y-80137984D01*
X187709625Y-80141079D01*
X187717854Y-80150718D01*
X187743433Y-80167999D01*
X187783127Y-80191283D01*
X187833703Y-80218934D01*
X187891926Y-80249315D01*
X187954563Y-80280790D01*
X188018379Y-80311722D01*
X188080140Y-80340473D01*
X188136612Y-80365408D01*
X188184562Y-80384889D01*
X188208014Y-80393318D01*
X188341779Y-80431133D01*
X188479673Y-80456136D01*
X188627378Y-80469140D01*
X188754167Y-80471468D01*
X188822122Y-80470373D01*
X188887723Y-80468275D01*
X188945153Y-80465434D01*
X188988597Y-80462106D01*
X189002702Y-80460422D01*
X189141716Y-80431587D01*
X189283243Y-80386468D01*
X189420725Y-80327750D01*
X189547606Y-80258120D01*
X189625111Y-80205441D01*
X189752519Y-80097239D01*
X189870822Y-79970671D01*
X189977828Y-79828866D01*
X190071348Y-79674951D01*
X190149190Y-79512053D01*
X190193044Y-79394756D01*
X190243292Y-79211128D01*
X190276791Y-79016581D01*
X190293551Y-78815325D01*
X190293584Y-78611568D01*
X190276899Y-78409521D01*
X190243507Y-78213392D01*
X190193420Y-78027391D01*
X190189603Y-78015803D01*
X190126719Y-77853750D01*
X190049972Y-77705832D01*
X189956758Y-77567865D01*
X189844473Y-77435661D01*
X189800608Y-77390399D01*
X189664466Y-77266457D01*
X189524509Y-77163915D01*
X189378589Y-77081656D01*
X189224558Y-77018564D01*
X189060268Y-76973523D01*
X188964711Y-76956033D01*
X188805977Y-76940466D01*
X188647571Y-76943071D01*
G36*
X186302426Y-77860552D02*
X186150508Y-77880567D01*
X186015244Y-77914202D01*
X185895761Y-77961725D01*
X185791185Y-78023405D01*
X185713576Y-78086965D01*
X185644735Y-78161099D01*
X185590994Y-78240871D01*
X185548090Y-78333091D01*
X185532616Y-78376161D01*
X185519756Y-78415142D01*
X185508554Y-78451289D01*
X185498880Y-78486434D01*
X185490604Y-78522410D01*
X185483597Y-78561050D01*
X185477728Y-78604185D01*
X185472869Y-78653649D01*
X185468890Y-78711273D01*
X185465660Y-78778891D01*
X185463051Y-78858334D01*
X185460933Y-78951436D01*
X185459176Y-79060027D01*
X185457651Y-79185942D01*
X185456228Y-79331012D01*
X185454975Y-79473778D01*
X185453649Y-79629968D01*
X185452444Y-79765239D01*
X185451234Y-79881246D01*
X185449894Y-79979645D01*
X185448300Y-80062093D01*
X185446325Y-80130246D01*
X185443844Y-80185760D01*
X185440731Y-80230292D01*
X185436862Y-80265498D01*
X185432111Y-80293034D01*
X185426352Y-80314556D01*
X185419461Y-80331722D01*
X185411311Y-80346186D01*
X185401777Y-80359606D01*
X185390734Y-80373638D01*
X185386434Y-80379071D01*
X185370614Y-80401910D01*
X185363578Y-80417463D01*
X185363556Y-80417922D01*
X185374433Y-80420121D01*
X185405418Y-80422147D01*
X185454043Y-80423942D01*
X185517837Y-80425451D01*
X185594331Y-80426616D01*
X185681056Y-80427380D01*
X185775543Y-80427686D01*
X185786450Y-80427689D01*
X186209343Y-80427689D01*
X186212605Y-80331622D01*
X186215867Y-80235556D01*
X186277956Y-80286543D01*
X186375286Y-80354057D01*
X186485187Y-80408749D01*
X186571651Y-80438978D01*
X186640722Y-80453666D01*
X186724075Y-80463659D01*
X186813841Y-80468646D01*
X186902155Y-80468313D01*
X186981149Y-80462351D01*
X187017378Y-80456638D01*
X187157397Y-80418776D01*
X187283822Y-80363932D01*
X187395740Y-80292924D01*
X187492238Y-80206568D01*
X187572400Y-80105679D01*
X187635313Y-79991076D01*
X187679688Y-79864984D01*
X187692022Y-79808401D01*
X187699632Y-79746202D01*
X187703261Y-79671363D01*
X187703755Y-79637467D01*
X187703690Y-79634282D01*
X186943752Y-79634282D01*
X186934459Y-79709333D01*
X186906272Y-79773160D01*
X186857803Y-79828798D01*
X186852746Y-79833211D01*
X186804452Y-79868037D01*
X186752743Y-79890620D01*
X186692011Y-79902540D01*
X186616648Y-79905383D01*
X186598541Y-79904978D01*
X186544722Y-79902325D01*
X186504692Y-79896909D01*
X186469676Y-79886745D01*
X186430897Y-79869850D01*
X186420255Y-79864672D01*
X186359604Y-79828844D01*
X186312785Y-79786212D01*
X186300048Y-79770973D01*
X186255378Y-79714462D01*
X186255378Y-79518586D01*
X186255914Y-79439939D01*
X186257604Y-79381988D01*
X186260572Y-79342875D01*
X186264943Y-79320741D01*
X186269028Y-79314274D01*
X186284953Y-79311111D01*
X186318736Y-79308488D01*
X186365660Y-79306655D01*
X186421007Y-79305857D01*
X186429894Y-79305842D01*
X186550670Y-79311096D01*
X186653340Y-79327263D01*
X186739894Y-79354961D01*
X186812319Y-79394808D01*
X186867249Y-79441758D01*
X186911796Y-79499645D01*
X186936520Y-79562693D01*
X186943752Y-79634282D01*
X187703690Y-79634282D01*
X187701822Y-79543712D01*
X187693478Y-79464812D01*
X187677232Y-79393590D01*
X187651595Y-79322864D01*
X187627599Y-79270493D01*
X187568980Y-79175196D01*
X187490883Y-79087170D01*
X187395685Y-79008017D01*
X187285762Y-78939340D01*
X187163490Y-78882741D01*
X187031245Y-78839821D01*
X186966578Y-78824882D01*
X186830396Y-78802777D01*
X186681951Y-78788194D01*
X186530495Y-78781813D01*
X186403936Y-78783445D01*
X186242050Y-78790224D01*
X186249470Y-78731245D01*
X186268762Y-78632092D01*
X186299896Y-78551372D01*
X186343731Y-78488466D01*
X186401129Y-78442756D01*
X186472952Y-78413622D01*
X186560059Y-78400447D01*
X186663314Y-78402611D01*
X186701289Y-78406612D01*
X186842480Y-78431780D01*
X186979293Y-78472814D01*
X187073822Y-78510815D01*
X187118982Y-78530190D01*
X187157415Y-78545760D01*
X187183766Y-78555405D01*
X187191454Y-78557452D01*
X187201198Y-78548374D01*
X187217917Y-78519405D01*
X187241768Y-78470217D01*
X187272907Y-78400484D01*
X187311493Y-78309879D01*
X187318090Y-78294089D01*
X187348147Y-78221772D01*
X187375126Y-78156425D01*
X187397864Y-78100906D01*
X187415194Y-78058072D01*
X187425952Y-78030781D01*
X187429059Y-78021942D01*
X187419060Y-78017187D01*
X187392783Y-78011910D01*
X187364511Y-78008231D01*
X187334354Y-78003474D01*
X187286567Y-77994028D01*
X187225388Y-77980820D01*
X187155054Y-77964776D01*
X187079806Y-77946820D01*
X187051245Y-77939797D01*
X186946184Y-77914209D01*
X186858520Y-77894147D01*
X186783932Y-77878969D01*
X186718097Y-77868035D01*
X186656693Y-77860704D01*
X186595398Y-77856335D01*
X186529890Y-77854287D01*
X186471872Y-77853889D01*
X186302426Y-77860552D01*
X186302426Y-77860552D01*
G37*
X186302426Y-77860552D02*
X186150508Y-77880567D01*
X186015244Y-77914202D01*
X185895761Y-77961725D01*
X185791185Y-78023405D01*
X185713576Y-78086965D01*
X185644735Y-78161099D01*
X185590994Y-78240871D01*
X185548090Y-78333091D01*
X185532616Y-78376161D01*
X185519756Y-78415142D01*
X185508554Y-78451289D01*
X185498880Y-78486434D01*
X185490604Y-78522410D01*
X185483597Y-78561050D01*
X185477728Y-78604185D01*
X185472869Y-78653649D01*
X185468890Y-78711273D01*
X185465660Y-78778891D01*
X185463051Y-78858334D01*
X185460933Y-78951436D01*
X185459176Y-79060027D01*
X185457651Y-79185942D01*
X185456228Y-79331012D01*
X185454975Y-79473778D01*
X185453649Y-79629968D01*
X185452444Y-79765239D01*
X185451234Y-79881246D01*
X185449894Y-79979645D01*
X185448300Y-80062093D01*
X185446325Y-80130246D01*
X185443844Y-80185760D01*
X185440731Y-80230292D01*
X185436862Y-80265498D01*
X185432111Y-80293034D01*
X185426352Y-80314556D01*
X185419461Y-80331722D01*
X185411311Y-80346186D01*
X185401777Y-80359606D01*
X185390734Y-80373638D01*
X185386434Y-80379071D01*
X185370614Y-80401910D01*
X185363578Y-80417463D01*
X185363556Y-80417922D01*
X185374433Y-80420121D01*
X185405418Y-80422147D01*
X185454043Y-80423942D01*
X185517837Y-80425451D01*
X185594331Y-80426616D01*
X185681056Y-80427380D01*
X185775543Y-80427686D01*
X185786450Y-80427689D01*
X186209343Y-80427689D01*
X186212605Y-80331622D01*
X186215867Y-80235556D01*
X186277956Y-80286543D01*
X186375286Y-80354057D01*
X186485187Y-80408749D01*
X186571651Y-80438978D01*
X186640722Y-80453666D01*
X186724075Y-80463659D01*
X186813841Y-80468646D01*
X186902155Y-80468313D01*
X186981149Y-80462351D01*
X187017378Y-80456638D01*
X187157397Y-80418776D01*
X187283822Y-80363932D01*
X187395740Y-80292924D01*
X187492238Y-80206568D01*
X187572400Y-80105679D01*
X187635313Y-79991076D01*
X187679688Y-79864984D01*
X187692022Y-79808401D01*
X187699632Y-79746202D01*
X187703261Y-79671363D01*
X187703755Y-79637467D01*
X187703690Y-79634282D01*
X186943752Y-79634282D01*
X186934459Y-79709333D01*
X186906272Y-79773160D01*
X186857803Y-79828798D01*
X186852746Y-79833211D01*
X186804452Y-79868037D01*
X186752743Y-79890620D01*
X186692011Y-79902540D01*
X186616648Y-79905383D01*
X186598541Y-79904978D01*
X186544722Y-79902325D01*
X186504692Y-79896909D01*
X186469676Y-79886745D01*
X186430897Y-79869850D01*
X186420255Y-79864672D01*
X186359604Y-79828844D01*
X186312785Y-79786212D01*
X186300048Y-79770973D01*
X186255378Y-79714462D01*
X186255378Y-79518586D01*
X186255914Y-79439939D01*
X186257604Y-79381988D01*
X186260572Y-79342875D01*
X186264943Y-79320741D01*
X186269028Y-79314274D01*
X186284953Y-79311111D01*
X186318736Y-79308488D01*
X186365660Y-79306655D01*
X186421007Y-79305857D01*
X186429894Y-79305842D01*
X186550670Y-79311096D01*
X186653340Y-79327263D01*
X186739894Y-79354961D01*
X186812319Y-79394808D01*
X186867249Y-79441758D01*
X186911796Y-79499645D01*
X186936520Y-79562693D01*
X186943752Y-79634282D01*
X187703690Y-79634282D01*
X187701822Y-79543712D01*
X187693478Y-79464812D01*
X187677232Y-79393590D01*
X187651595Y-79322864D01*
X187627599Y-79270493D01*
X187568980Y-79175196D01*
X187490883Y-79087170D01*
X187395685Y-79008017D01*
X187285762Y-78939340D01*
X187163490Y-78882741D01*
X187031245Y-78839821D01*
X186966578Y-78824882D01*
X186830396Y-78802777D01*
X186681951Y-78788194D01*
X186530495Y-78781813D01*
X186403936Y-78783445D01*
X186242050Y-78790224D01*
X186249470Y-78731245D01*
X186268762Y-78632092D01*
X186299896Y-78551372D01*
X186343731Y-78488466D01*
X186401129Y-78442756D01*
X186472952Y-78413622D01*
X186560059Y-78400447D01*
X186663314Y-78402611D01*
X186701289Y-78406612D01*
X186842480Y-78431780D01*
X186979293Y-78472814D01*
X187073822Y-78510815D01*
X187118982Y-78530190D01*
X187157415Y-78545760D01*
X187183766Y-78555405D01*
X187191454Y-78557452D01*
X187201198Y-78548374D01*
X187217917Y-78519405D01*
X187241768Y-78470217D01*
X187272907Y-78400484D01*
X187311493Y-78309879D01*
X187318090Y-78294089D01*
X187348147Y-78221772D01*
X187375126Y-78156425D01*
X187397864Y-78100906D01*
X187415194Y-78058072D01*
X187425952Y-78030781D01*
X187429059Y-78021942D01*
X187419060Y-78017187D01*
X187392783Y-78011910D01*
X187364511Y-78008231D01*
X187334354Y-78003474D01*
X187286567Y-77994028D01*
X187225388Y-77980820D01*
X187155054Y-77964776D01*
X187079806Y-77946820D01*
X187051245Y-77939797D01*
X186946184Y-77914209D01*
X186858520Y-77894147D01*
X186783932Y-77878969D01*
X186718097Y-77868035D01*
X186656693Y-77860704D01*
X186595398Y-77856335D01*
X186529890Y-77854287D01*
X186471872Y-77853889D01*
X186302426Y-77860552D01*
G36*
X182789493Y-78466245D02*
X182789474Y-78700662D01*
X182789448Y-78913603D01*
X182789375Y-79106168D01*
X182789218Y-79279459D01*
X182788936Y-79434576D01*
X182788491Y-79572620D01*
X182787844Y-79694692D01*
X182786955Y-79801894D01*
X182785787Y-79895326D01*
X182784299Y-79976090D01*
X182782454Y-80045286D01*
X182780211Y-80104015D01*
X182777531Y-80153379D01*
X182774377Y-80194478D01*
X182770708Y-80228413D01*
X182766487Y-80256286D01*
X182761673Y-80279198D01*
X182756227Y-80298249D01*
X182750112Y-80314540D01*
X182743288Y-80329173D01*
X182735715Y-80343249D01*
X182727355Y-80357868D01*
X182722161Y-80366974D01*
X182687896Y-80427689D01*
X183546045Y-80427689D01*
X183546045Y-80331733D01*
X183546776Y-80288370D01*
X183548728Y-80255205D01*
X183551537Y-80237424D01*
X183552779Y-80235778D01*
X183564201Y-80242662D01*
X183586916Y-80260505D01*
X183609615Y-80279879D01*
X183664200Y-80320614D01*
X183733679Y-80361617D01*
X183810730Y-80399123D01*
X183888035Y-80429364D01*
X183918887Y-80439012D01*
X183987384Y-80453578D01*
X184070236Y-80463539D01*
X184159629Y-80468583D01*
X184247752Y-80468396D01*
X184326793Y-80462666D01*
X184364489Y-80456858D01*
X184502586Y-80418797D01*
X184629887Y-80361073D01*
X184745708Y-80284211D01*
X184849363Y-80188739D01*
X184940167Y-80075179D01*
X185006969Y-79964381D01*
X185061836Y-79847625D01*
X185103837Y-79728276D01*
X185133833Y-79602283D01*
X185152689Y-79465594D01*
X185161268Y-79314158D01*
X185161994Y-79236711D01*
X185159900Y-79179934D01*
X184330783Y-79179934D01*
X184330576Y-79273002D01*
X184327663Y-79360692D01*
X184322000Y-79437772D01*
X184313545Y-79499009D01*
X184310962Y-79511350D01*
X184279160Y-79618633D01*
X184237502Y-79705658D01*
X184185637Y-79772642D01*
X184123219Y-79819805D01*
X184049900Y-79847365D01*
X183965331Y-79855541D01*
X183869165Y-79844551D01*
X183805689Y-79828829D01*
X183756546Y-79810639D01*
X183702417Y-79784791D01*
X183661756Y-79761089D01*
X183591200Y-79714721D01*
X183591200Y-78564530D01*
X183658608Y-78520962D01*
X183737133Y-78480040D01*
X183821319Y-78453389D01*
X183906443Y-78441465D01*
X183987784Y-78444722D01*
X184060620Y-78463615D01*
X184092574Y-78479184D01*
X184150499Y-78522181D01*
X184199456Y-78578953D01*
X184240610Y-78651575D01*
X184275126Y-78742121D01*
X184304167Y-78852666D01*
X184305448Y-78858533D01*
X184315619Y-78920788D01*
X184323261Y-78998594D01*
X184328330Y-79086720D01*
X184330783Y-79179934D01*
X185159900Y-79179934D01*
X185154143Y-79023895D01*
X185132198Y-78828059D01*
X185096214Y-78649332D01*
X185046241Y-78487845D01*
X184982332Y-78343726D01*
X184904538Y-78217106D01*
X184812911Y-78108115D01*
X184707503Y-78016883D01*
X184662338Y-77985932D01*
X184561389Y-77929785D01*
X184458099Y-77890174D01*
X184348011Y-77866014D01*
X184226670Y-77856219D01*
X184134164Y-77857265D01*
X184004510Y-77868231D01*
X183891916Y-77890046D01*
X183793125Y-77923714D01*
X183704879Y-77970236D01*
X183656014Y-78004448D01*
X183626647Y-78026362D01*
X183604957Y-78041333D01*
X183596747Y-78045733D01*
X183595132Y-78034904D01*
X183593841Y-78004251D01*
X183592862Y-77956526D01*
X183592183Y-77894479D01*
X183591790Y-77820862D01*
X183591670Y-77738427D01*
X183591812Y-77649925D01*
X183592203Y-77558107D01*
X183592829Y-77465724D01*
X183593680Y-77375528D01*
X183594740Y-77290271D01*
X183595999Y-77212703D01*
X183597444Y-77145576D01*
X183599062Y-77091641D01*
X183600839Y-77053650D01*
X183601331Y-77046667D01*
X183608908Y-76976251D01*
X183620469Y-76921102D01*
X183638208Y-76873981D01*
X183664318Y-76827647D01*
X183670585Y-76818067D01*
X183695017Y-76781378D01*
X182789689Y-76781378D01*
X182789493Y-78466245D01*
X182789493Y-78466245D01*
G37*
X182789493Y-78466245D02*
X182789474Y-78700662D01*
X182789448Y-78913603D01*
X182789375Y-79106168D01*
X182789218Y-79279459D01*
X182788936Y-79434576D01*
X182788491Y-79572620D01*
X182787844Y-79694692D01*
X182786955Y-79801894D01*
X182785787Y-79895326D01*
X182784299Y-79976090D01*
X182782454Y-80045286D01*
X182780211Y-80104015D01*
X182777531Y-80153379D01*
X182774377Y-80194478D01*
X182770708Y-80228413D01*
X182766487Y-80256286D01*
X182761673Y-80279198D01*
X182756227Y-80298249D01*
X182750112Y-80314540D01*
X182743288Y-80329173D01*
X182735715Y-80343249D01*
X182727355Y-80357868D01*
X182722161Y-80366974D01*
X182687896Y-80427689D01*
X183546045Y-80427689D01*
X183546045Y-80331733D01*
X183546776Y-80288370D01*
X183548728Y-80255205D01*
X183551537Y-80237424D01*
X183552779Y-80235778D01*
X183564201Y-80242662D01*
X183586916Y-80260505D01*
X183609615Y-80279879D01*
X183664200Y-80320614D01*
X183733679Y-80361617D01*
X183810730Y-80399123D01*
X183888035Y-80429364D01*
X183918887Y-80439012D01*
X183987384Y-80453578D01*
X184070236Y-80463539D01*
X184159629Y-80468583D01*
X184247752Y-80468396D01*
X184326793Y-80462666D01*
X184364489Y-80456858D01*
X184502586Y-80418797D01*
X184629887Y-80361073D01*
X184745708Y-80284211D01*
X184849363Y-80188739D01*
X184940167Y-80075179D01*
X185006969Y-79964381D01*
X185061836Y-79847625D01*
X185103837Y-79728276D01*
X185133833Y-79602283D01*
X185152689Y-79465594D01*
X185161268Y-79314158D01*
X185161994Y-79236711D01*
X185159900Y-79179934D01*
X184330783Y-79179934D01*
X184330576Y-79273002D01*
X184327663Y-79360692D01*
X184322000Y-79437772D01*
X184313545Y-79499009D01*
X184310962Y-79511350D01*
X184279160Y-79618633D01*
X184237502Y-79705658D01*
X184185637Y-79772642D01*
X184123219Y-79819805D01*
X184049900Y-79847365D01*
X183965331Y-79855541D01*
X183869165Y-79844551D01*
X183805689Y-79828829D01*
X183756546Y-79810639D01*
X183702417Y-79784791D01*
X183661756Y-79761089D01*
X183591200Y-79714721D01*
X183591200Y-78564530D01*
X183658608Y-78520962D01*
X183737133Y-78480040D01*
X183821319Y-78453389D01*
X183906443Y-78441465D01*
X183987784Y-78444722D01*
X184060620Y-78463615D01*
X184092574Y-78479184D01*
X184150499Y-78522181D01*
X184199456Y-78578953D01*
X184240610Y-78651575D01*
X184275126Y-78742121D01*
X184304167Y-78852666D01*
X184305448Y-78858533D01*
X184315619Y-78920788D01*
X184323261Y-78998594D01*
X184328330Y-79086720D01*
X184330783Y-79179934D01*
X185159900Y-79179934D01*
X185154143Y-79023895D01*
X185132198Y-78828059D01*
X185096214Y-78649332D01*
X185046241Y-78487845D01*
X184982332Y-78343726D01*
X184904538Y-78217106D01*
X184812911Y-78108115D01*
X184707503Y-78016883D01*
X184662338Y-77985932D01*
X184561389Y-77929785D01*
X184458099Y-77890174D01*
X184348011Y-77866014D01*
X184226670Y-77856219D01*
X184134164Y-77857265D01*
X184004510Y-77868231D01*
X183891916Y-77890046D01*
X183793125Y-77923714D01*
X183704879Y-77970236D01*
X183656014Y-78004448D01*
X183626647Y-78026362D01*
X183604957Y-78041333D01*
X183596747Y-78045733D01*
X183595132Y-78034904D01*
X183593841Y-78004251D01*
X183592862Y-77956526D01*
X183592183Y-77894479D01*
X183591790Y-77820862D01*
X183591670Y-77738427D01*
X183591812Y-77649925D01*
X183592203Y-77558107D01*
X183592829Y-77465724D01*
X183593680Y-77375528D01*
X183594740Y-77290271D01*
X183595999Y-77212703D01*
X183597444Y-77145576D01*
X183599062Y-77091641D01*
X183600839Y-77053650D01*
X183601331Y-77046667D01*
X183608908Y-76976251D01*
X183620469Y-76921102D01*
X183638208Y-76873981D01*
X183664318Y-76827647D01*
X183670585Y-76818067D01*
X183695017Y-76781378D01*
X182789689Y-76781378D01*
X182789493Y-78466245D01*
G36*
X191249043Y-76020571D02*
X191152768Y-76044809D01*
X191066184Y-76087641D01*
X190991373Y-76147419D01*
X190930418Y-76222494D01*
X190885399Y-76311220D01*
X190859136Y-76407530D01*
X190853286Y-76504795D01*
X190868140Y-76598654D01*
X190901840Y-76686511D01*
X190952528Y-76765770D01*
X191018345Y-76833836D01*
X191097434Y-76888112D01*
X191187934Y-76926002D01*
X191239200Y-76938426D01*
X191283698Y-76945947D01*
X191317999Y-76948919D01*
X191350960Y-76947094D01*
X191391434Y-76940225D01*
X191424531Y-76933250D01*
X191517947Y-76901741D01*
X191601619Y-76850617D01*
X191673665Y-76781429D01*
X191732200Y-76695728D01*
X191746148Y-76668489D01*
X191762586Y-76632122D01*
X191772894Y-76601582D01*
X191778460Y-76569450D01*
X191780669Y-76528307D01*
X191780948Y-76482222D01*
X191776861Y-76397865D01*
X191763446Y-76328586D01*
X191738256Y-76267961D01*
X191698846Y-76209567D01*
X191660298Y-76165302D01*
X191588406Y-76099484D01*
X191513313Y-76054053D01*
X191430562Y-76026850D01*
X191352928Y-76016576D01*
X191249043Y-76020571D01*
X191249043Y-76020571D01*
G37*
X191249043Y-76020571D02*
X191152768Y-76044809D01*
X191066184Y-76087641D01*
X190991373Y-76147419D01*
X190930418Y-76222494D01*
X190885399Y-76311220D01*
X190859136Y-76407530D01*
X190853286Y-76504795D01*
X190868140Y-76598654D01*
X190901840Y-76686511D01*
X190952528Y-76765770D01*
X191018345Y-76833836D01*
X191097434Y-76888112D01*
X191187934Y-76926002D01*
X191239200Y-76938426D01*
X191283698Y-76945947D01*
X191317999Y-76948919D01*
X191350960Y-76947094D01*
X191391434Y-76940225D01*
X191424531Y-76933250D01*
X191517947Y-76901741D01*
X191601619Y-76850617D01*
X191673665Y-76781429D01*
X191732200Y-76695728D01*
X191746148Y-76668489D01*
X191762586Y-76632122D01*
X191772894Y-76601582D01*
X191778460Y-76569450D01*
X191780669Y-76528307D01*
X191780948Y-76482222D01*
X191776861Y-76397865D01*
X191763446Y-76328586D01*
X191738256Y-76267961D01*
X191698846Y-76209567D01*
X191660298Y-76165302D01*
X191588406Y-76099484D01*
X191513313Y-76054053D01*
X191430562Y-76026850D01*
X191352928Y-76016576D01*
X191249043Y-76020571D01*
D11*
X193434304Y-57726943D02*
X193163371Y-57726943D01*
X193047257Y-58152695D02*
X193434304Y-58152695D01*
X193434304Y-57339895D01*
X193047257Y-57339895D01*
X192698914Y-58152695D02*
X192698914Y-57339895D01*
X192234457Y-58152695D01*
X192234457Y-57339895D01*
X191382952Y-58075286D02*
X191421657Y-58113990D01*
X191537771Y-58152695D01*
X191615181Y-58152695D01*
X191731295Y-58113990D01*
X191808704Y-58036581D01*
X191847409Y-57959171D01*
X191886114Y-57804352D01*
X191886114Y-57688238D01*
X191847409Y-57533419D01*
X191808704Y-57456010D01*
X191731295Y-57378600D01*
X191615181Y-57339895D01*
X191537771Y-57339895D01*
X191421657Y-57378600D01*
X191382952Y-57417305D01*
X191228133Y-58230105D02*
X190608857Y-58230105D01*
X190454038Y-57920467D02*
X190066990Y-57920467D01*
X190531447Y-58152695D02*
X190260514Y-57339895D01*
X189989581Y-58152695D01*
X193492361Y-55186943D02*
X193221428Y-55186943D01*
X193105314Y-55612695D02*
X193492361Y-55612695D01*
X193492361Y-54799895D01*
X193105314Y-54799895D01*
X192756971Y-55612695D02*
X192756971Y-54799895D01*
X192292514Y-55612695D01*
X192292514Y-54799895D01*
X191441009Y-55535286D02*
X191479714Y-55573990D01*
X191595828Y-55612695D01*
X191673238Y-55612695D01*
X191789352Y-55573990D01*
X191866761Y-55496581D01*
X191905466Y-55419171D01*
X191944171Y-55264352D01*
X191944171Y-55148238D01*
X191905466Y-54993419D01*
X191866761Y-54916010D01*
X191789352Y-54838600D01*
X191673238Y-54799895D01*
X191595828Y-54799895D01*
X191479714Y-54838600D01*
X191441009Y-54877305D01*
X191286190Y-55690105D02*
X190666914Y-55690105D01*
X190202457Y-55186943D02*
X190086343Y-55225648D01*
X190047638Y-55264352D01*
X190008933Y-55341762D01*
X190008933Y-55457876D01*
X190047638Y-55535286D01*
X190086343Y-55573990D01*
X190163752Y-55612695D01*
X190473390Y-55612695D01*
X190473390Y-54799895D01*
X190202457Y-54799895D01*
X190125047Y-54838600D01*
X190086343Y-54877305D01*
X190047638Y-54954714D01*
X190047638Y-55032124D01*
X190086343Y-55109533D01*
X190125047Y-55148238D01*
X190202457Y-55186943D01*
X190473390Y-55186943D01*
X156659943Y-53731886D02*
X156659943Y-54002819D01*
X157085695Y-54118933D02*
X157085695Y-53731886D01*
X156272895Y-53731886D01*
X156272895Y-54118933D01*
X157085695Y-54467276D02*
X156272895Y-54467276D01*
X157085695Y-54931733D01*
X156272895Y-54931733D01*
X157008286Y-55783238D02*
X157046990Y-55744533D01*
X157085695Y-55628419D01*
X157085695Y-55551009D01*
X157046990Y-55434895D01*
X156969581Y-55357486D01*
X156892171Y-55318781D01*
X156737352Y-55280076D01*
X156621238Y-55280076D01*
X156466419Y-55318781D01*
X156389010Y-55357486D01*
X156311600Y-55434895D01*
X156272895Y-55551009D01*
X156272895Y-55628419D01*
X156311600Y-55744533D01*
X156350305Y-55783238D01*
X156659943Y-56402514D02*
X156698648Y-56518628D01*
X156737352Y-56557333D01*
X156814762Y-56596038D01*
X156930876Y-56596038D01*
X157008286Y-56557333D01*
X157046990Y-56518628D01*
X157085695Y-56441219D01*
X157085695Y-56131581D01*
X156272895Y-56131581D01*
X156272895Y-56402514D01*
X156311600Y-56479924D01*
X156350305Y-56518628D01*
X156427714Y-56557333D01*
X156505124Y-56557333D01*
X156582533Y-56518628D01*
X156621238Y-56479924D01*
X156659943Y-56402514D01*
X156659943Y-56131581D01*
X156272895Y-56828267D02*
X156272895Y-57292724D01*
X157085695Y-57060495D02*
X156272895Y-57060495D01*
X157085695Y-57563657D02*
X156272895Y-57563657D01*
X157085695Y-58028114D01*
X156272895Y-58028114D01*
X182825571Y-62365467D02*
X182438523Y-62365467D01*
X182902980Y-62597695D02*
X182632047Y-61784895D01*
X182361114Y-62597695D01*
X181935361Y-61784895D02*
X181857952Y-61784895D01*
X181780542Y-61823600D01*
X181741837Y-61862305D01*
X181703133Y-61939714D01*
X181664428Y-62094533D01*
X181664428Y-62288057D01*
X181703133Y-62442876D01*
X181741837Y-62520286D01*
X181780542Y-62558990D01*
X181857952Y-62597695D01*
X181935361Y-62597695D01*
X182012771Y-62558990D01*
X182051475Y-62520286D01*
X182090180Y-62442876D01*
X182128885Y-62288057D01*
X182128885Y-62094533D01*
X182090180Y-61939714D01*
X182051475Y-61862305D01*
X182012771Y-61823600D01*
X181935361Y-61784895D01*
X153617990Y-57948286D02*
X153656695Y-58064400D01*
X153656695Y-58257924D01*
X153617990Y-58335334D01*
X153579286Y-58374038D01*
X153501876Y-58412743D01*
X153424467Y-58412743D01*
X153347057Y-58374038D01*
X153308352Y-58335334D01*
X153269648Y-58257924D01*
X153230943Y-58103105D01*
X153192238Y-58025696D01*
X153153533Y-57986991D01*
X153076124Y-57948286D01*
X152998714Y-57948286D01*
X152921305Y-57986991D01*
X152882600Y-58025696D01*
X152843895Y-58103105D01*
X152843895Y-58296629D01*
X152882600Y-58412743D01*
X153656695Y-58761086D02*
X152843895Y-58761086D01*
X152843895Y-58954610D01*
X152882600Y-59070724D01*
X152960010Y-59148133D01*
X153037419Y-59186838D01*
X153192238Y-59225543D01*
X153308352Y-59225543D01*
X153463171Y-59186838D01*
X153540581Y-59148133D01*
X153617990Y-59070724D01*
X153656695Y-58954610D01*
X153656695Y-58761086D01*
X153734105Y-59380362D02*
X153734105Y-59999638D01*
X153579286Y-60657619D02*
X153617990Y-60618914D01*
X153656695Y-60502800D01*
X153656695Y-60425390D01*
X153617990Y-60309276D01*
X153540581Y-60231867D01*
X153463171Y-60193162D01*
X153308352Y-60154457D01*
X153192238Y-60154457D01*
X153037419Y-60193162D01*
X152960010Y-60231867D01*
X152882600Y-60309276D01*
X152843895Y-60425390D01*
X152843895Y-60502800D01*
X152882600Y-60618914D01*
X152921305Y-60657619D01*
X153617990Y-60967257D02*
X153656695Y-61083371D01*
X153656695Y-61276895D01*
X153617990Y-61354305D01*
X153579286Y-61393009D01*
X153501876Y-61431714D01*
X153424467Y-61431714D01*
X153347057Y-61393009D01*
X153308352Y-61354305D01*
X153269648Y-61276895D01*
X153230943Y-61122076D01*
X153192238Y-61044667D01*
X153153533Y-61005962D01*
X153076124Y-60967257D01*
X152998714Y-60967257D01*
X152921305Y-61005962D01*
X152882600Y-61044667D01*
X152843895Y-61122076D01*
X152843895Y-61315600D01*
X152882600Y-61431714D01*
X182825571Y-59825467D02*
X182438523Y-59825467D01*
X182902980Y-60057695D02*
X182632047Y-59244895D01*
X182361114Y-60057695D01*
X181664428Y-60057695D02*
X182128885Y-60057695D01*
X181896656Y-60057695D02*
X181896656Y-59244895D01*
X181974066Y-59361010D01*
X182051475Y-59438419D01*
X182128885Y-59477124D01*
X182825571Y-57285467D02*
X182438523Y-57285467D01*
X182902980Y-57517695D02*
X182632047Y-56704895D01*
X182361114Y-57517695D01*
X182128885Y-56782305D02*
X182090180Y-56743600D01*
X182012771Y-56704895D01*
X181819247Y-56704895D01*
X181741837Y-56743600D01*
X181703133Y-56782305D01*
X181664428Y-56859714D01*
X181664428Y-56937124D01*
X181703133Y-57053238D01*
X182167590Y-57517695D01*
X181664428Y-57517695D01*
M02*
