M48
INCH,TZ
T1C0.016
T2C0.018
T3C0.031
T4C0.032
T5C0.040
T6C0.126
%
G90
G05
T1
X38888Y-35252
X46712Y-37892
X48344Y-21343
X49284Y-33239
X49751Y-33287
X50208Y-42757
X54869Y-35345
X58369Y-34779
X58547Y-37188
X59313Y-28218
X61144Y-38010
T2
X40100Y-34500
X43500Y-22300
X47000Y-25100
X47600Y-22300
X48200Y-32700
X49200Y-25600
X49500Y-22200
X49500Y-36700
X50500Y-25600
X51300Y-22400
X52800Y-21500
X54100Y-32400
X54300Y-27600
X55900Y-27800
X56700Y-26800
X59500Y-43500
T3
X48400Y-31000
X48400Y-34000
X49400Y-31000
X49400Y-34000
X50000Y-40500
X50000Y-43500
X50400Y-31000
X50400Y-34000
X51000Y-40500
X51000Y-43500
X51400Y-31000
X51400Y-34000
X52000Y-40500
X52000Y-43500
X52400Y-31000
X52400Y-34000
X53000Y-40500
X53000Y-43500
X53400Y-31000
X53400Y-34000
X54000Y-40500
X54000Y-43500
X54400Y-31000
X54400Y-34000
X55000Y-40500
X55000Y-43500
X55400Y-31000
X55400Y-34000
X56000Y-40500
X56000Y-43500
X56400Y-31000
X56400Y-34000
X57000Y-40500
X57000Y-43500
X58000Y-40500
X58000Y-43500
T4
X48400Y-29600
X49400Y-29600
X50400Y-29600
X51400Y-29600
X52400Y-29600
X53400Y-29600
X54400Y-29600
X55400Y-29600
X56400Y-29600
T5
X37500Y-26500
X37500Y-27500
X37500Y-28500
X37500Y-29500
X37500Y-30500
X37500Y-31500
X37500Y-32500
X37500Y-33500
X37500Y-39000
X37500Y-40000
X37500Y-41000
X37500Y-42000
X37500Y-43000
X37500Y-44000
X37500Y-45000
X37500Y-46000
X38500Y-26500
X38500Y-27500
X38500Y-28500
X38500Y-29500
X38500Y-30500
X38500Y-31500
X38500Y-32500
X38500Y-33500
X38500Y-39000
X38500Y-40000
X38500Y-41000
X38500Y-42000
X38500Y-43000
X38500Y-44000
X38500Y-45000
X38500Y-46000
X41000Y-28000
X41000Y-29000
X41000Y-30000
X41000Y-31000
X41000Y-32000
X41000Y-33000
X41000Y-34000
X41000Y-35000
X41000Y-36600
X41000Y-37600
X41000Y-38600
X41000Y-39600
X41000Y-40600
X41000Y-41600
X41000Y-42600
X41000Y-43600
X41000Y-44600
X41000Y-45600
X44500Y-19500
X44500Y-20500
X44600Y-28200
X44600Y-29200
X44600Y-30200
X44600Y-31200
X44600Y-32200
X44600Y-33200
X44600Y-34200
X44600Y-35200
X44600Y-36400
X44600Y-37400
X44600Y-38400
X44600Y-39400
X44600Y-40400
X44600Y-41400
X44600Y-42400
X44600Y-43400
X45500Y-19500
X45500Y-20500
X45600Y-28200
X45600Y-29200
X45600Y-30200
X45600Y-31200
X45600Y-32200
X45600Y-33200
X45600Y-34200
X45600Y-35200
X45600Y-36400
X45600Y-37400
X45600Y-38400
X45600Y-39400
X45600Y-40400
X45600Y-41400
X45600Y-42400
X45600Y-43400
X46500Y-19500
X46500Y-20500
X47500Y-19500
X47500Y-20500
X48500Y-19500
X48500Y-20500
X49020Y-26945
X49020Y-27945
X49500Y-19500
X49500Y-20500
X49500Y-23500
X49500Y-24500
X50020Y-26945
X50020Y-27945
X50500Y-19500
X50500Y-20500
X50500Y-23500
X50500Y-24500
X51019Y-26945
X51019Y-27945
X51500Y-19500
X51500Y-20500
X51500Y-23500
X51500Y-24500
X52500Y-23500
X52500Y-24500
X53500Y-23500
X53500Y-24500
X54500Y-23500
X54500Y-24500
X55500Y-23500
X55500Y-24500
X56500Y-23500
X56500Y-24500
X60000Y-28000
X60000Y-29000
X60000Y-30000
X60000Y-31000
X60000Y-32000
X60000Y-33000
X60000Y-35000
X60000Y-36000
X60000Y-37000
X60000Y-38000
X60000Y-39000
X60000Y-40000
X60000Y-41000
X60000Y-42000
X62500Y-22500
X62500Y-23500
X62500Y-24500
X62500Y-25500
X62500Y-26500
X62500Y-27500
X62500Y-28500
X62500Y-29500
X62500Y-35000
X62500Y-36000
X62500Y-37000
X62500Y-38000
X62500Y-39000
X62500Y-40000
X62500Y-41000
X62500Y-42000
X63500Y-22500
X63500Y-23500
X63500Y-24500
X63500Y-25500
X63500Y-26500
X63500Y-27500
X63500Y-28500
X63500Y-29500
X63500Y-35000
X63500Y-36000
X63500Y-37000
X63500Y-38000
X63500Y-39000
X63500Y-40000
X63500Y-41000
X63500Y-42000
X66500Y-22500
X66500Y-23500
X66500Y-24500
X66500Y-25500
X66500Y-26500
X66500Y-27500
X66500Y-28500
X66500Y-29500
X66500Y-35000
X66500Y-36000
X66500Y-37000
X66500Y-38000
X66500Y-39000
X66500Y-40000
X66500Y-41000
X66500Y-42000
X67500Y-22500
X67500Y-23500
X67500Y-24500
X67500Y-25500
X67500Y-26500
X67500Y-27500
X67500Y-28500
X67500Y-29500
X67500Y-35000
X67500Y-36000
X67500Y-37000
X67500Y-38000
X67500Y-39000
X67500Y-40000
X67500Y-41000
X67500Y-42000
T6
X41000Y-47050
X47000Y-27050
X58000Y-27050
T0
M30
