G04 #@! TF.FileFunction,Copper,L1,Top,Signal*
%FSLAX46Y46*%
G04 Gerber Fmt 4.6, Leading zero omitted, Abs format (unit mm)*
G04 Created by KiCad (PCBNEW 4.0.7) date 04/09/18 16:02:50*
%MOMM*%
%LPD*%
G01*
G04 APERTURE LIST*
%ADD10C,0.100000*%
%ADD11R,0.950000X0.900000*%
%ADD12R,1.600000X1.600000*%
%ADD13O,1.600000X1.600000*%
%ADD14C,1.879600*%
%ADD15R,1.250000X1.500000*%
%ADD16R,1.500000X1.300000*%
%ADD17R,1.810000X1.810000*%
%ADD18C,1.810000*%
%ADD19C,0.950000*%
%ADD20C,0.762000*%
%ADD21C,0.250000*%
%ADD22C,0.152400*%
%ADD23C,0.254000*%
G04 APERTURE END LIST*
D10*
D11*
X147320000Y-95315000D03*
X147320000Y-100265000D03*
X144780000Y-95315000D03*
X144780000Y-100265000D03*
X142240000Y-95315000D03*
X142240000Y-100265000D03*
X139700000Y-95315000D03*
X139700000Y-100265000D03*
X137160000Y-95315000D03*
X137160000Y-100265000D03*
X134620000Y-95315000D03*
X134620000Y-100265000D03*
X132080000Y-95315000D03*
X132080000Y-100265000D03*
X129540000Y-95315000D03*
X129540000Y-100265000D03*
D12*
X127000000Y-110490000D03*
D13*
X147320000Y-102870000D03*
X129540000Y-110490000D03*
X144780000Y-102870000D03*
X132080000Y-110490000D03*
X142240000Y-102870000D03*
X134620000Y-110490000D03*
X139700000Y-102870000D03*
X137160000Y-110490000D03*
X137160000Y-102870000D03*
X139700000Y-110490000D03*
X134620000Y-102870000D03*
X142240000Y-110490000D03*
X132080000Y-102870000D03*
X144780000Y-110490000D03*
X129540000Y-102870000D03*
X147320000Y-110490000D03*
X127000000Y-102870000D03*
D12*
X122936000Y-86360000D03*
D13*
X143256000Y-78740000D03*
X125476000Y-86360000D03*
X140716000Y-78740000D03*
X128016000Y-86360000D03*
X138176000Y-78740000D03*
X130556000Y-86360000D03*
X135636000Y-78740000D03*
X133096000Y-86360000D03*
X133096000Y-78740000D03*
X135636000Y-86360000D03*
X130556000Y-78740000D03*
X138176000Y-86360000D03*
X128016000Y-78740000D03*
X140716000Y-86360000D03*
X125476000Y-78740000D03*
X143256000Y-86360000D03*
X122936000Y-78740000D03*
D14*
X152400000Y-99060000D03*
X152400000Y-96520000D03*
X124510800Y-68440300D03*
X152400000Y-83820000D03*
X152400000Y-81280000D03*
X152400000Y-78740000D03*
X152400000Y-76200000D03*
X152400000Y-73660000D03*
X152400000Y-71120000D03*
X104140000Y-110744000D03*
X104140000Y-76200000D03*
X104140000Y-78740000D03*
X104140000Y-81280000D03*
X104140000Y-83820000D03*
X104140000Y-86360000D03*
X104140000Y-88900000D03*
X104140000Y-92964000D03*
X104140000Y-95504000D03*
X104140000Y-98044000D03*
X104140000Y-100584000D03*
X104140000Y-103124000D03*
X104140000Y-105664000D03*
X152400000Y-93980000D03*
X152400000Y-91440000D03*
X104140000Y-108204000D03*
X129588260Y-68440300D03*
X152400000Y-104140000D03*
X124510800Y-70980300D03*
X127050800Y-68440300D03*
X152400000Y-106680000D03*
X152400000Y-101600000D03*
X129588260Y-70980300D03*
X104140000Y-71120000D03*
X127050800Y-70980300D03*
X104140000Y-115824000D03*
X104140000Y-113284000D03*
X104140000Y-73660000D03*
X152400000Y-88900000D03*
D15*
X124206000Y-107676000D03*
X124206000Y-105176000D03*
X119888000Y-83546000D03*
X119888000Y-81046000D03*
D16*
X110062000Y-102616000D03*
X107362000Y-102616000D03*
X110062000Y-97536000D03*
X107362000Y-97536000D03*
X110570000Y-81788000D03*
X107870000Y-81788000D03*
X110570000Y-76708000D03*
X107870000Y-76708000D03*
X132762000Y-88900000D03*
X135462000Y-88900000D03*
X132762000Y-90932000D03*
X135462000Y-90932000D03*
X110062000Y-89408000D03*
X107362000Y-89408000D03*
X119046000Y-109220000D03*
X121746000Y-109220000D03*
X119046000Y-111252000D03*
X121746000Y-111252000D03*
X110062000Y-110236000D03*
X107362000Y-110236000D03*
D14*
X158750000Y-88900000D03*
X161290000Y-88900000D03*
X158750000Y-91440000D03*
X161290000Y-91440000D03*
X158750000Y-93980000D03*
X161290000Y-93980000D03*
X158750000Y-96520000D03*
X161290000Y-96520000D03*
X158750000Y-99060000D03*
X161290000Y-99060000D03*
X158750000Y-101600000D03*
X161290000Y-101600000D03*
X158750000Y-104140000D03*
X161290000Y-104140000D03*
X158750000Y-106680000D03*
X161290000Y-106680000D03*
X158750000Y-57150000D03*
X161290000Y-57150000D03*
X158750000Y-59690000D03*
X161290000Y-59690000D03*
X158750000Y-62230000D03*
X161290000Y-62230000D03*
X158750000Y-64770000D03*
X161290000Y-64770000D03*
X158750000Y-67310000D03*
X161290000Y-67310000D03*
X158750000Y-69850000D03*
X161290000Y-69850000D03*
X158750000Y-72390000D03*
X161290000Y-72390000D03*
X158750000Y-74930000D03*
X161290000Y-74930000D03*
X168910000Y-88900000D03*
X171450000Y-88900000D03*
X168910000Y-91440000D03*
X171450000Y-91440000D03*
X168910000Y-93980000D03*
X171450000Y-93980000D03*
X168910000Y-96520000D03*
X171450000Y-96520000D03*
X168910000Y-99060000D03*
X171450000Y-99060000D03*
X168910000Y-101600000D03*
X171450000Y-101600000D03*
X168910000Y-104140000D03*
X171450000Y-104140000D03*
X168910000Y-106680000D03*
X171450000Y-106680000D03*
X168910000Y-57150000D03*
X171450000Y-57150000D03*
X168910000Y-59690000D03*
X171450000Y-59690000D03*
X168910000Y-62230000D03*
X171450000Y-62230000D03*
X168910000Y-64770000D03*
X171450000Y-64770000D03*
X168910000Y-67310000D03*
X171450000Y-67310000D03*
X168910000Y-69850000D03*
X171450000Y-69850000D03*
X168910000Y-72390000D03*
X171450000Y-72390000D03*
X168910000Y-74930000D03*
X171450000Y-74930000D03*
X97790000Y-116840000D03*
X95250000Y-116840000D03*
X97790000Y-114300000D03*
X95250000Y-114300000D03*
X97790000Y-111760000D03*
X95250000Y-111760000D03*
X97790000Y-109220000D03*
X95250000Y-109220000D03*
X97790000Y-106680000D03*
X95250000Y-106680000D03*
X97790000Y-104140000D03*
X95250000Y-104140000D03*
X97790000Y-101600000D03*
X95250000Y-101600000D03*
X97790000Y-99060000D03*
X95250000Y-99060000D03*
X97790000Y-85090000D03*
X95250000Y-85090000D03*
X97790000Y-82550000D03*
X95250000Y-82550000D03*
X97790000Y-80010000D03*
X95250000Y-80010000D03*
X97790000Y-77470000D03*
X95250000Y-77470000D03*
X97790000Y-74930000D03*
X95250000Y-74930000D03*
X97790000Y-72390000D03*
X95250000Y-72390000D03*
X97790000Y-69850000D03*
X95250000Y-69850000D03*
X97790000Y-67310000D03*
X95250000Y-67310000D03*
X125730000Y-62230000D03*
X125730000Y-59690000D03*
X128270000Y-62230000D03*
X128270000Y-59690000D03*
X130810000Y-62230000D03*
X130810000Y-59690000D03*
X133350000Y-62230000D03*
X133350000Y-59690000D03*
X135890000Y-62230000D03*
X135890000Y-59690000D03*
X138430000Y-62230000D03*
X138430000Y-59690000D03*
X140970000Y-62230000D03*
X140970000Y-59690000D03*
X143510000Y-62230000D03*
X143510000Y-59690000D03*
X113030000Y-52070000D03*
X113030000Y-49530000D03*
X115570000Y-52070000D03*
X115570000Y-49530000D03*
X118110000Y-52070000D03*
X118110000Y-49530000D03*
X120650000Y-52070000D03*
X120650000Y-49530000D03*
X123190000Y-52070000D03*
X123190000Y-49530000D03*
X125730000Y-52070000D03*
X125730000Y-49530000D03*
X128270000Y-52070000D03*
X128270000Y-49530000D03*
X130810000Y-52070000D03*
X130810000Y-49530000D03*
X113284000Y-71628000D03*
X115824000Y-71628000D03*
X113284000Y-74168000D03*
X115824000Y-74168000D03*
X113284000Y-76708000D03*
X115824000Y-76708000D03*
X113284000Y-79248000D03*
X115824000Y-79248000D03*
X113284000Y-81788000D03*
X115824000Y-81788000D03*
X113284000Y-84328000D03*
X115824000Y-84328000D03*
X113284000Y-86868000D03*
X115824000Y-86868000D03*
X113284000Y-89408000D03*
X115824000Y-89408000D03*
X113284000Y-92456000D03*
X115824000Y-92456000D03*
X113284000Y-94996000D03*
X115824000Y-94996000D03*
X113284000Y-97536000D03*
X115824000Y-97536000D03*
X113284000Y-100076000D03*
X115824000Y-100076000D03*
X113284000Y-102616000D03*
X115824000Y-102616000D03*
X113284000Y-105156000D03*
X115824000Y-105156000D03*
X113284000Y-107696000D03*
X115824000Y-107696000D03*
X113284000Y-110236000D03*
X115824000Y-110236000D03*
D17*
X122936000Y-75184000D03*
D18*
X125476000Y-75184000D03*
X128016000Y-75184000D03*
X130556000Y-75184000D03*
X133096000Y-75184000D03*
X135636000Y-75184000D03*
X138176000Y-75184000D03*
X140716000Y-75184000D03*
X143256000Y-75184000D03*
D19*
X134112000Y-54610000D03*
X125730000Y-56388000D03*
X130302000Y-56896000D03*
X120904000Y-56642000D03*
X110490000Y-56642000D03*
X119380000Y-63754000D03*
X124968000Y-65024000D03*
X128270000Y-65024000D03*
X144018000Y-68072000D03*
X141986000Y-70612000D03*
X137922000Y-70104000D03*
X101854000Y-87630000D03*
X151130000Y-110490000D03*
X125730000Y-93218000D03*
X137414000Y-82296000D03*
X122428000Y-83058000D03*
D20*
X148709898Y-94456973D03*
X148256900Y-88337700D03*
X122794340Y-54210452D03*
X155306800Y-96544700D03*
X98776500Y-89539000D03*
X139367300Y-89776800D03*
X150655000Y-71673100D03*
X126368145Y-84548353D03*
X125181360Y-84427694D03*
X127527427Y-108603288D03*
X118648000Y-96246500D03*
D21*
X107870000Y-81788000D02*
X107870000Y-82688000D01*
X107870000Y-82688000D02*
X106006019Y-84551981D01*
X106006019Y-84551981D02*
X106006019Y-90125526D01*
X106006019Y-90125526D02*
X105779484Y-90352061D01*
X105779484Y-90352061D02*
X105779484Y-94928184D01*
X105779484Y-94928184D02*
X107362000Y-96510700D01*
X107362000Y-96510700D02*
X107362000Y-96636000D01*
X107362000Y-96636000D02*
X107362000Y-97536000D01*
X107870000Y-76708000D02*
X106471402Y-76708000D01*
X106471402Y-76708000D02*
X106103618Y-76340216D01*
X106103618Y-76340216D02*
X106103618Y-71535117D01*
X106103618Y-71535117D02*
X110406311Y-67232424D01*
X110406311Y-67232424D02*
X114187460Y-67232424D01*
X114187460Y-67232424D02*
X117958736Y-71003700D01*
X117958736Y-71003700D02*
X121947400Y-71003700D01*
X121947400Y-71003700D02*
X124510800Y-68440300D01*
X107870000Y-76708000D02*
X107025173Y-76708000D01*
X107025173Y-76708000D02*
X106009811Y-77723362D01*
X106009811Y-77723362D02*
X106009811Y-80752890D01*
X106009811Y-80752890D02*
X107044921Y-81788000D01*
X107044921Y-81788000D02*
X107870000Y-81788000D01*
X120650000Y-78740000D02*
X122936000Y-78740000D01*
X119888000Y-79502000D02*
X120650000Y-78740000D01*
X119888000Y-81046000D02*
X119888000Y-79502000D01*
X107362000Y-97536000D02*
X107362000Y-102616000D01*
X125222000Y-102870000D02*
X127000000Y-102870000D01*
X124206000Y-103886000D02*
X125222000Y-102870000D01*
X124206000Y-105176000D02*
X124206000Y-103886000D01*
X107362000Y-89408000D02*
X107369292Y-89415292D01*
X107369292Y-89415292D02*
X107369292Y-91321743D01*
X107369292Y-91321743D02*
X108609771Y-92562222D01*
X108609771Y-92562222D02*
X108609771Y-103734229D01*
X108609771Y-103734229D02*
X105247700Y-107096300D01*
X138176000Y-83546000D02*
X141711353Y-83546000D01*
X141711353Y-83546000D02*
X143253310Y-85087957D01*
X143253310Y-85087957D02*
X143253310Y-86357310D01*
X143253310Y-86357310D02*
X143256000Y-86360000D01*
X143256000Y-86360000D02*
X143256000Y-87616740D01*
X143256000Y-87616740D02*
X141972740Y-88900000D01*
X141972740Y-88900000D02*
X135462000Y-88900000D01*
X143256000Y-86360000D02*
X144431300Y-86360000D01*
X144431300Y-86360000D02*
X148436880Y-90365580D01*
X148436880Y-90365580D02*
X151325580Y-90365580D01*
X151325580Y-90365580D02*
X152400000Y-91440000D01*
X125730000Y-56642000D02*
X130048000Y-56642000D01*
X120904000Y-56642000D02*
X125730000Y-56642000D01*
X125730000Y-56642000D02*
X125730000Y-56388000D01*
X130048000Y-56642000D02*
X130302000Y-56896000D01*
X117602000Y-63754000D02*
X110490000Y-56642000D01*
X119380000Y-63754000D02*
X117602000Y-63754000D01*
X128270000Y-65024000D02*
X124968000Y-65024000D01*
X132080000Y-65278000D02*
X128524000Y-65278000D01*
X128524000Y-65278000D02*
X128270000Y-65024000D01*
X132842000Y-66040000D02*
X132080000Y-65278000D01*
X133858000Y-66040000D02*
X132842000Y-66040000D01*
X137922000Y-70104000D02*
X133858000Y-66040000D01*
X141986000Y-70612000D02*
X144018000Y-68580000D01*
X144018000Y-68580000D02*
X144018000Y-68072000D01*
X137922000Y-70104000D02*
X141478000Y-70104000D01*
X141478000Y-70104000D02*
X141986000Y-70612000D01*
X124206000Y-107676000D02*
X124211123Y-107681123D01*
X124211123Y-107681123D02*
X124211123Y-109251939D01*
X124211123Y-109251939D02*
X124752046Y-109792862D01*
X124752046Y-109792862D02*
X126787343Y-107757565D01*
X126787343Y-107757565D02*
X145991870Y-107757565D01*
X145991870Y-107757565D02*
X147320000Y-109085695D01*
X147320000Y-109085695D02*
X147320000Y-110490000D01*
X137668000Y-91440000D02*
X135890000Y-93218000D01*
X135890000Y-93218000D02*
X125730000Y-93218000D01*
X137668000Y-90932000D02*
X138560712Y-90932000D01*
X137668000Y-90932000D02*
X137668000Y-91440000D01*
X135462000Y-90932000D02*
X137668000Y-90932000D01*
X121746000Y-108194700D02*
X121225745Y-107674445D01*
X117138801Y-109101890D02*
X117138801Y-110811399D01*
X117138801Y-110811399D02*
X115168306Y-112781894D01*
X121225745Y-107674445D02*
X118566246Y-107674445D01*
X118566246Y-107674445D02*
X117138801Y-109101890D01*
X106551126Y-110236000D02*
X107362000Y-110236000D01*
X115168306Y-112781894D02*
X107616379Y-112781894D01*
X107616379Y-112781894D02*
X105810805Y-110976321D01*
X105810805Y-110976321D02*
X106551126Y-110236000D01*
X107362000Y-110236000D02*
X106148632Y-110236000D01*
X106148632Y-110236000D02*
X105862764Y-109950132D01*
X105862764Y-109950132D02*
X105862764Y-107711364D01*
X105862764Y-107711364D02*
X105247700Y-107096300D01*
X121746000Y-111252000D02*
X123213880Y-111252000D01*
X123213880Y-111252000D02*
X124343046Y-110122834D01*
X124343046Y-110122834D02*
X123440213Y-109220000D01*
X123440213Y-109220000D02*
X121746000Y-109220000D01*
X138560712Y-90932000D02*
X136528712Y-88900000D01*
X136528712Y-88900000D02*
X135462000Y-88900000D01*
X126412958Y-83546000D02*
X138176000Y-83546000D01*
X138176000Y-83546000D02*
X138176000Y-83058000D01*
X138176000Y-83058000D02*
X137414000Y-82296000D01*
X122682000Y-84162900D02*
X123589100Y-84162900D01*
X122316240Y-84162900D02*
X122682000Y-84162900D01*
X122682000Y-84162900D02*
X122682000Y-83312000D01*
X122682000Y-83312000D02*
X122428000Y-83058000D01*
X124206000Y-83546000D02*
X124610180Y-83141820D01*
X124610180Y-83141820D02*
X126008778Y-83141820D01*
X126008778Y-83141820D02*
X126412958Y-83546000D01*
X119888000Y-83546000D02*
X119888000Y-85102700D01*
X123589100Y-84162900D02*
X124206000Y-83546000D01*
X119888000Y-85102700D02*
X120335040Y-85549740D01*
X120335040Y-85549740D02*
X120929400Y-85549740D01*
X120929400Y-85549740D02*
X122316240Y-84162900D01*
X105247700Y-107096300D02*
X104140000Y-108204000D01*
X122687000Y-108194700D02*
X121746000Y-108194700D01*
X123205700Y-107676000D02*
X122687000Y-108194700D01*
X124206000Y-107676000D02*
X123205700Y-107676000D01*
X124206000Y-77734300D02*
X122936000Y-76464300D01*
X124206000Y-83546000D02*
X124206000Y-77734300D01*
X122936000Y-75184000D02*
X122936000Y-76464300D01*
X121746000Y-109220000D02*
X121746000Y-108319800D01*
X121746000Y-108319800D02*
X121746000Y-108194700D01*
X124424800Y-73695200D02*
X122936000Y-75184000D01*
X128760000Y-73695200D02*
X124424800Y-73695200D01*
X130919400Y-71535800D02*
X128760000Y-73695200D01*
X130919400Y-69771400D02*
X130919400Y-71535800D01*
X129588300Y-68440300D02*
X130919400Y-69771400D01*
D22*
X110062000Y-97536000D02*
X110062000Y-96634500D01*
X108577895Y-86232605D02*
X109236871Y-85573629D01*
X110062000Y-96634500D02*
X109083600Y-95656100D01*
X109083600Y-95656100D02*
X109083600Y-91769329D01*
X108577895Y-91263624D02*
X108577895Y-86232605D01*
X109083600Y-91769329D02*
X108577895Y-91263624D01*
X109236871Y-85573629D02*
X109236871Y-78843529D01*
X109236871Y-78843529D02*
X110570000Y-77510400D01*
X110570000Y-77510400D02*
X110570000Y-76708000D01*
X113284000Y-76708000D02*
X110570000Y-76708000D01*
X113284000Y-97536000D02*
X110062000Y-97536000D01*
X112799400Y-96266000D02*
X109411400Y-92878000D01*
X109411400Y-92878000D02*
X109411400Y-91634100D01*
X114491300Y-97036700D02*
X113720600Y-96266000D01*
X108905306Y-91128006D02*
X108905306Y-88204494D01*
X108905306Y-88204494D02*
X110570000Y-86539800D01*
X113284000Y-102616000D02*
X114491300Y-101408700D01*
X114491300Y-101408700D02*
X114491300Y-97036700D01*
X113720600Y-96266000D02*
X112799400Y-96266000D01*
X109411400Y-91634100D02*
X108905306Y-91128006D01*
X110570000Y-86539800D02*
X110570000Y-81788000D01*
X113284000Y-81788000D02*
X110570000Y-81788000D01*
X113284000Y-102616000D02*
X110062000Y-102616000D01*
X147320000Y-95315000D02*
X147320000Y-94583835D01*
X147320000Y-94583835D02*
X147446862Y-94456973D01*
X147446862Y-94456973D02*
X148709898Y-94456973D01*
X148939700Y-87654900D02*
X148256900Y-88337700D01*
X157504900Y-87654900D02*
X148939700Y-87654900D01*
X158750000Y-88900000D02*
X157504900Y-87654900D01*
X123190000Y-62230000D02*
X113030000Y-52070000D01*
X125730000Y-62230000D02*
X123190000Y-62230000D01*
X159941400Y-87708600D02*
X158750000Y-88900000D01*
X167718600Y-87708600D02*
X159941400Y-87708600D01*
X168910000Y-88900000D02*
X167718600Y-87708600D01*
X167668300Y-55908300D02*
X168910000Y-57150000D01*
X159991700Y-55908300D02*
X167668300Y-55908300D01*
X158750000Y-57150000D02*
X159991700Y-55908300D01*
X147320000Y-102870000D02*
X147320000Y-100265000D01*
X167704600Y-58484600D02*
X168910000Y-59690000D01*
X159955400Y-58484600D02*
X167704600Y-58484600D01*
X158750000Y-59690000D02*
X159955400Y-58484600D01*
X170180000Y-60960000D02*
X168910000Y-59690000D01*
X170180000Y-72863400D02*
X170180000Y-60960000D01*
X170898000Y-73581400D02*
X170180000Y-72863400D01*
X171821300Y-73581400D02*
X170898000Y-73581400D01*
X172685400Y-74445500D02*
X171821300Y-73581400D01*
X172685400Y-89380200D02*
X172685400Y-74445500D01*
X171895600Y-90170000D02*
X172685400Y-89380200D01*
X170180000Y-90170000D02*
X171895600Y-90170000D01*
X168910000Y-91440000D02*
X170180000Y-90170000D01*
X159944000Y-90246000D02*
X158750000Y-91440000D01*
X167716000Y-90246000D02*
X159944000Y-90246000D01*
X168910000Y-91440000D02*
X167716000Y-90246000D01*
X146683700Y-92709800D02*
X144780000Y-94613500D01*
X157480200Y-92709800D02*
X146683700Y-92709800D01*
X158750000Y-91440000D02*
X157480200Y-92709800D01*
X144780000Y-95315000D02*
X144780000Y-94613500D01*
X144780000Y-102870000D02*
X144780000Y-100265000D01*
X149476233Y-95246300D02*
X147291893Y-97430640D01*
X147291893Y-97430640D02*
X143585219Y-97430640D01*
X157483700Y-95246300D02*
X149476233Y-95246300D01*
X158750000Y-93980000D02*
X157483700Y-95246300D01*
X143585219Y-97430640D02*
X142240000Y-96085421D01*
X142240000Y-96085421D02*
X142240000Y-95315000D01*
X118110000Y-52070000D02*
X118110000Y-56351110D01*
X118110000Y-56351110D02*
X122718890Y-60960000D01*
X122718890Y-60960000D02*
X126170400Y-60960000D01*
X126170400Y-60960000D02*
X126948200Y-61737800D01*
X126948200Y-61737800D02*
X126948200Y-63472100D01*
X96850201Y-79070201D02*
X97790000Y-80010000D01*
X96520000Y-78740000D02*
X96850201Y-79070201D01*
X96520000Y-77044500D02*
X96520000Y-78740000D01*
X94726200Y-76121400D02*
X95596900Y-76121400D01*
X94813600Y-71120200D02*
X94029400Y-71904400D01*
X94029400Y-71904400D02*
X94029400Y-75424600D01*
X126948200Y-63472100D02*
X124871091Y-63472100D01*
X96520000Y-70277600D02*
X95677400Y-71120200D01*
X122886075Y-65457116D02*
X108957984Y-65457116D01*
X96520000Y-69414300D02*
X96520000Y-70277600D01*
X97275700Y-68658600D02*
X96520000Y-69414300D01*
X105756500Y-68658600D02*
X97275700Y-68658600D01*
X124871091Y-63472100D02*
X122886075Y-65457116D01*
X108957984Y-65457116D02*
X105756500Y-68658600D01*
X95596900Y-76121400D02*
X96520000Y-77044500D01*
X94029400Y-75424600D02*
X94726200Y-76121400D01*
X95677400Y-71120200D02*
X94813600Y-71120200D01*
X159952100Y-61027900D02*
X158750000Y-62230000D01*
X167707900Y-61027900D02*
X159952100Y-61027900D01*
X168910000Y-62230000D02*
X167707900Y-61027900D01*
X129567900Y-63472100D02*
X126948200Y-63472100D01*
X130810000Y-62230000D02*
X129567900Y-63472100D01*
X96520000Y-110490000D02*
X97790000Y-111760000D01*
X96520000Y-106216100D02*
X96520000Y-110490000D01*
X95713900Y-105410000D02*
X96520000Y-106216100D01*
X94781600Y-105410000D02*
X95713900Y-105410000D01*
X94045200Y-104673600D02*
X94781600Y-105410000D01*
X94045200Y-95310000D02*
X94045200Y-104673600D01*
X96520000Y-92835200D02*
X94045200Y-95310000D01*
X96520000Y-81280000D02*
X96520000Y-92835200D01*
X97790000Y-80010000D02*
X96520000Y-81280000D01*
X159957600Y-92772400D02*
X158750000Y-93980000D01*
X167702400Y-92772400D02*
X159957600Y-92772400D01*
X168910000Y-93980000D02*
X167702400Y-92772400D01*
X142240000Y-102870000D02*
X142240000Y-100265000D01*
X130028958Y-60976826D02*
X129532036Y-60479904D01*
X130256932Y-58457134D02*
X132357156Y-58457134D01*
X129532036Y-59182030D02*
X130256932Y-58457134D01*
X132642701Y-58171588D02*
X132649598Y-58171588D01*
X133350000Y-62230000D02*
X132096826Y-60976826D01*
X132096826Y-60976826D02*
X130028958Y-60976826D01*
X129532036Y-60479904D02*
X129532036Y-59182030D01*
X132357156Y-58457134D02*
X132642701Y-58171588D01*
X132649598Y-58171588D02*
X132649598Y-57588816D01*
X132649598Y-57588816D02*
X129271234Y-54210452D01*
X129271234Y-54210452D02*
X123333155Y-54210452D01*
X123333155Y-54210452D02*
X122794340Y-54210452D01*
X120650000Y-52070000D02*
X122790452Y-54210452D01*
X122790452Y-54210452D02*
X122794340Y-54210452D01*
X167691000Y-63551000D02*
X168910000Y-64770000D01*
X159969000Y-63551000D02*
X167691000Y-63551000D01*
X158750000Y-64770000D02*
X159969000Y-63551000D01*
X167700600Y-95310600D02*
X168910000Y-96520000D01*
X159959400Y-95310600D02*
X167700600Y-95310600D01*
X158750000Y-96520000D02*
X159959400Y-95310600D01*
X99015800Y-89299700D02*
X98776500Y-89539000D01*
X99015800Y-78695800D02*
X99015800Y-89299700D01*
X97790000Y-77470000D02*
X99015800Y-78695800D01*
X158725300Y-96544700D02*
X155306800Y-96544700D01*
X158750000Y-96520000D02*
X158725300Y-96544700D01*
X139700000Y-90109500D02*
X139700000Y-95315000D01*
X139367300Y-89776800D02*
X139700000Y-90109500D01*
X139700000Y-102870000D02*
X139700000Y-100265000D01*
X158750000Y-99060000D02*
X157533200Y-97843200D01*
X157533200Y-97843200D02*
X148449700Y-97843200D01*
X148449700Y-97843200D02*
X148364551Y-97758051D01*
X148364551Y-97758051D02*
X143449601Y-97758051D01*
X143449601Y-97758051D02*
X142507883Y-96816333D01*
X142507883Y-96816333D02*
X137541124Y-96816333D01*
X137541124Y-96816333D02*
X137160000Y-96435209D01*
X137160000Y-96435209D02*
X137160000Y-95315000D01*
X134656928Y-60996928D02*
X134950201Y-61290201D01*
X132111528Y-59224283D02*
X132111528Y-60377808D01*
X132111528Y-60377808D02*
X132730648Y-60996928D01*
X132730648Y-60996928D02*
X134656928Y-60996928D01*
X132977009Y-58358802D02*
X132111528Y-59224283D01*
X132977009Y-57341206D02*
X132977009Y-58358802D01*
X124885565Y-53765565D02*
X129401368Y-53765565D01*
X123190000Y-52070000D02*
X124885565Y-53765565D01*
X129401368Y-53765565D02*
X132977009Y-57341206D01*
X134950201Y-61290201D02*
X135890000Y-62230000D01*
X167713900Y-97863900D02*
X168910000Y-99060000D01*
X159946100Y-97863900D02*
X167713900Y-97863900D01*
X158750000Y-99060000D02*
X159946100Y-97863900D01*
X96593800Y-105483800D02*
X97790000Y-106680000D01*
X96593800Y-93225000D02*
X96593800Y-105483800D01*
X99409100Y-90409700D02*
X96593800Y-93225000D01*
X99409100Y-76549100D02*
X99409100Y-90409700D01*
X97790000Y-74930000D02*
X99409100Y-76549100D01*
X167640000Y-66040000D02*
X168910000Y-67310000D01*
X160020000Y-66040000D02*
X167640000Y-66040000D01*
X158750000Y-67310000D02*
X160020000Y-66040000D01*
X137160000Y-102870000D02*
X137160000Y-100265000D01*
X134620000Y-95917400D02*
X134620000Y-95315000D01*
X143313983Y-98085462D02*
X142372265Y-97143744D01*
X134620000Y-96453092D02*
X134620000Y-95917400D01*
X148228462Y-98085462D02*
X143313983Y-98085462D01*
X135310652Y-97143744D02*
X134620000Y-96453092D01*
X157480000Y-100330000D02*
X150473000Y-100330000D01*
X142372265Y-97143744D02*
X135310652Y-97143744D01*
X150473000Y-100330000D02*
X148228462Y-98085462D01*
X158750000Y-101600000D02*
X157480000Y-100330000D01*
X125730000Y-52070000D02*
X126921400Y-50878600D01*
X126921400Y-50878600D02*
X128778900Y-50878600D01*
X128778900Y-50878600D02*
X129540000Y-51639700D01*
X135261959Y-58265259D02*
X136453999Y-58265259D01*
X136453999Y-58265259D02*
X137160000Y-58971260D01*
X137160000Y-58971260D02*
X137160000Y-60960000D01*
X137160000Y-60960000D02*
X138430000Y-62230000D01*
X129540000Y-51639700D02*
X129540000Y-52543300D01*
X129540000Y-52543300D02*
X135261959Y-58265259D01*
X99758100Y-102171900D02*
X97790000Y-104140000D01*
X99758100Y-74358100D02*
X99758100Y-102171900D01*
X97790000Y-72390000D02*
X99758100Y-74358100D01*
X159941400Y-100408600D02*
X158750000Y-101600000D01*
X167718600Y-100408600D02*
X159941400Y-100408600D01*
X168910000Y-101600000D02*
X167718600Y-100408600D01*
X159253100Y-68632600D02*
X158750000Y-69135700D01*
X167692600Y-68632600D02*
X159253100Y-68632600D01*
X168910000Y-69850000D02*
X167692600Y-68632600D01*
X153061200Y-63446900D02*
X158750000Y-69135700D01*
X142980600Y-63446900D02*
X153061200Y-63446900D01*
X142240000Y-62706300D02*
X142980600Y-63446900D01*
X142240000Y-61811400D02*
X142240000Y-62706300D01*
X141449200Y-61020600D02*
X142240000Y-61811400D01*
X139639400Y-61020600D02*
X141449200Y-61020600D01*
X138430000Y-62230000D02*
X139639400Y-61020600D01*
X158750000Y-69135700D02*
X158750000Y-69850000D01*
X134620000Y-102870000D02*
X134620000Y-100265000D01*
X158750000Y-104140000D02*
X157480000Y-102870000D01*
X157480000Y-102870000D02*
X151894100Y-102870000D01*
X151894100Y-102870000D02*
X147436973Y-98412873D01*
X147436973Y-98412873D02*
X143178365Y-98412873D01*
X132080000Y-96904005D02*
X132080000Y-95315000D01*
X143178365Y-98412873D02*
X142262742Y-97497250D01*
X142262742Y-97497250D02*
X132673245Y-97497250D01*
X132673245Y-97497250D02*
X132080000Y-96904005D01*
X128270000Y-52070000D02*
X134569462Y-58369462D01*
X134569462Y-58369462D02*
X134569462Y-60074362D01*
X134569462Y-60074362D02*
X135455100Y-60960000D01*
X135455100Y-60960000D02*
X136330400Y-60960000D01*
X136330400Y-60960000D02*
X137108200Y-61737800D01*
X137108200Y-61737800D02*
X137108200Y-63435400D01*
X99119077Y-69850000D02*
X97790000Y-69850000D01*
X99582577Y-69386500D02*
X99119077Y-69850000D01*
X109094073Y-65784527D02*
X105492100Y-69386500D01*
X123021693Y-65784527D02*
X109094073Y-65784527D01*
X136731100Y-63812500D02*
X124993720Y-63812500D01*
X105492100Y-69386500D02*
X99582577Y-69386500D01*
X137108200Y-63435400D02*
X136731100Y-63812500D01*
X124993720Y-63812500D02*
X123021693Y-65784527D01*
X158485000Y-71270500D02*
X158750000Y-71270500D01*
X156637500Y-69423000D02*
X158485000Y-71270500D01*
X156637500Y-67493100D02*
X156637500Y-69423000D01*
X153757700Y-64613300D02*
X156637500Y-67493100D01*
X143353300Y-64613300D02*
X153757700Y-64613300D01*
X140970000Y-62230000D02*
X143353300Y-64613300D01*
X158825300Y-71195200D02*
X158750000Y-71270500D01*
X167715200Y-71195200D02*
X158825300Y-71195200D01*
X168910000Y-72390000D02*
X167715200Y-71195200D01*
X158750000Y-71270500D02*
X158750000Y-72390000D01*
X139764600Y-63435400D02*
X140970000Y-62230000D01*
X137108200Y-63435400D02*
X139764600Y-63435400D01*
X159964900Y-102925100D02*
X158750000Y-104140000D01*
X167695100Y-102925100D02*
X159964900Y-102925100D01*
X168910000Y-104140000D02*
X167695100Y-102925100D01*
X132080000Y-102870000D02*
X132080000Y-100265000D01*
X158750000Y-106680000D02*
X157480000Y-105410000D01*
X157480000Y-105410000D02*
X151353363Y-105410000D01*
X151353363Y-105410000D02*
X149249082Y-103305719D01*
X149249082Y-103305719D02*
X149249082Y-100727859D01*
X149249082Y-100727859D02*
X147261507Y-98740284D01*
X147261507Y-98740284D02*
X143042747Y-98740284D01*
X143042747Y-98740284D02*
X142127124Y-97824661D01*
X142127124Y-97824661D02*
X130592241Y-97824661D01*
X130592241Y-97824661D02*
X129540000Y-96772420D01*
X129540000Y-96772420D02*
X129540000Y-95315000D01*
X167658900Y-73678900D02*
X168910000Y-74930000D01*
X160001100Y-73678900D02*
X167658900Y-73678900D01*
X158750000Y-74930000D02*
X160001100Y-73678900D01*
X151371900Y-72390000D02*
X150655000Y-71673100D01*
X156210000Y-72390000D02*
X151371900Y-72390000D01*
X158750000Y-74930000D02*
X156210000Y-72390000D01*
X98197800Y-67717800D02*
X97790000Y-67310000D01*
X105495600Y-67717800D02*
X98197800Y-67717800D01*
X106841600Y-66371800D02*
X105495600Y-67717800D01*
X106841600Y-56504600D02*
X106841600Y-66371800D01*
X112546200Y-50800000D02*
X106841600Y-56504600D01*
X126199300Y-50800000D02*
X112546200Y-50800000D01*
X127000000Y-49999300D02*
X126199300Y-50800000D01*
X127000000Y-49083000D02*
X127000000Y-49999300D01*
X127761000Y-48322000D02*
X127000000Y-49083000D01*
X131314300Y-48322000D02*
X127761000Y-48322000D01*
X132039600Y-49047300D02*
X131314300Y-48322000D01*
X132039600Y-52070000D02*
X132039600Y-49047300D01*
X135042300Y-52070000D02*
X132039600Y-52070000D01*
X142240000Y-59267700D02*
X135042300Y-52070000D01*
X142240000Y-60960000D02*
X142240000Y-59267700D01*
X143510000Y-62230000D02*
X142240000Y-60960000D01*
X132039600Y-52070000D02*
X130810000Y-52070000D01*
X167700600Y-105470600D02*
X168910000Y-106680000D01*
X159959400Y-105470600D02*
X167700600Y-105470600D01*
X158750000Y-106680000D02*
X159959400Y-105470600D01*
X129540000Y-102870000D02*
X129540000Y-100265000D01*
X141904700Y-73995300D02*
X140716000Y-75184000D01*
X144365500Y-73995300D02*
X141904700Y-73995300D01*
X145300200Y-74930000D02*
X144365500Y-73995300D01*
X155761500Y-74930000D02*
X145300200Y-74930000D01*
X156968500Y-76137000D02*
X155761500Y-74930000D01*
X160083000Y-76137000D02*
X156968500Y-76137000D01*
X161290000Y-74930000D02*
X160083000Y-76137000D01*
X143105600Y-82618100D02*
X139227500Y-78740000D01*
X165168100Y-82618100D02*
X143105600Y-82618100D01*
X171450000Y-88900000D02*
X165168100Y-82618100D01*
X138176000Y-78740000D02*
X139227500Y-78740000D01*
X171450000Y-74930000D02*
X169400226Y-76979774D01*
X152971681Y-77391001D02*
X151828319Y-77391001D01*
X169400226Y-76979774D02*
X153382908Y-76979774D01*
X153382908Y-76979774D02*
X152971681Y-77391001D01*
X151828319Y-77391001D02*
X151417092Y-76979774D01*
X151417092Y-76979774D02*
X137431874Y-76979774D01*
X137431874Y-76979774D02*
X137431427Y-76979327D01*
X137431427Y-76979327D02*
X137280154Y-76979327D01*
X137280154Y-76979327D02*
X135636000Y-78623481D01*
X135636000Y-78623481D02*
X135636000Y-78740000D01*
X137431427Y-76979327D02*
X136716720Y-76979327D01*
X136716720Y-76979327D02*
X135636000Y-75898607D01*
X135636000Y-75898607D02*
X135636000Y-75184000D01*
X131600191Y-76679809D02*
X131902000Y-76378000D01*
X129293420Y-74141680D02*
X129293420Y-76037986D01*
X129293420Y-76037986D02*
X129935243Y-76679809D01*
X131371200Y-68368600D02*
X131371200Y-72063900D01*
X131371200Y-72063900D02*
X129293420Y-74141680D01*
X105619000Y-84300892D02*
X105619000Y-81000187D01*
X105619000Y-81000187D02*
X105558600Y-80939787D01*
X105558600Y-80939787D02*
X105558600Y-70808599D01*
X105558600Y-70808599D02*
X109830699Y-66536500D01*
X109830699Y-66536500D02*
X129539100Y-66536500D01*
X129539100Y-66536500D02*
X131371200Y-68368600D01*
X105554808Y-84365084D02*
X105619000Y-84300892D01*
X101799106Y-90893333D02*
X104600104Y-90893333D01*
X104600104Y-90893333D02*
X105554808Y-89938629D01*
X105554808Y-89938629D02*
X105554808Y-84365084D01*
X100137700Y-92554739D02*
X101799106Y-90893333D01*
X98252300Y-113030000D02*
X100137700Y-111144600D01*
X96520000Y-113030000D02*
X98252300Y-113030000D01*
X129935243Y-76679809D02*
X131600191Y-76679809D01*
X100137700Y-111144600D02*
X100137700Y-92554739D01*
X133096000Y-78740000D02*
X133096000Y-77688500D01*
X133096000Y-75184000D02*
X131902000Y-76378000D01*
X131902000Y-76494500D02*
X133096000Y-77688500D01*
X131902000Y-76378000D02*
X131902000Y-76494500D01*
X95250000Y-111760000D02*
X96520000Y-113030000D01*
X95250000Y-114300000D02*
X96520000Y-113030000D01*
X95250000Y-72390000D02*
X96520000Y-71120000D01*
X96520000Y-71120000D02*
X100836100Y-71120000D01*
X100836100Y-71120000D02*
X102241800Y-69714300D01*
X102241800Y-69714300D02*
X106084055Y-69714300D01*
X106084055Y-69714300D02*
X109589655Y-66208700D01*
X109589655Y-66208700D02*
X129674900Y-66208700D01*
X129674900Y-66208700D02*
X131766500Y-68300300D01*
X131766500Y-68300300D02*
X131766500Y-73973500D01*
X131766500Y-73973500D02*
X131460999Y-74279001D01*
X131460999Y-74279001D02*
X130556000Y-75184000D01*
X140970000Y-59690000D02*
X138430000Y-59690000D01*
X128270000Y-59690000D02*
X125730000Y-59690000D01*
X130810000Y-49530000D02*
X128270000Y-49530000D01*
X120650000Y-49530000D02*
X118110000Y-49530000D01*
X118110000Y-49530000D02*
X115570000Y-49530000D01*
X115570000Y-49530000D02*
X113030000Y-49530000D01*
X125730000Y-49530000D02*
X123190000Y-49530000D01*
X123190000Y-49530000D02*
X120650000Y-49530000D01*
X138904353Y-84548353D02*
X126906960Y-84548353D01*
X126906960Y-84548353D02*
X126368145Y-84548353D01*
X140716000Y-86360000D02*
X138904353Y-84548353D01*
X125562359Y-84808693D02*
X125181360Y-84427694D01*
X126005266Y-85251600D02*
X125562359Y-84808693D01*
X137067600Y-85251600D02*
X126005266Y-85251600D01*
X138176000Y-86360000D02*
X137067600Y-85251600D01*
X115824000Y-84328000D02*
X117496950Y-86000950D01*
X117496950Y-86000950D02*
X121172220Y-86000950D01*
X121172220Y-86000950D02*
X122403664Y-84769506D01*
X122403664Y-84769506D02*
X123885506Y-84769506D01*
X123885506Y-84769506D02*
X124676001Y-85560001D01*
X124676001Y-85560001D02*
X125476000Y-86360000D01*
X116378000Y-87422000D02*
X116655856Y-87699856D01*
X116655856Y-87699856D02*
X127754914Y-87699856D01*
X127754914Y-87699856D02*
X128016000Y-87438770D01*
X128016000Y-87438770D02*
X128016000Y-86360000D01*
X116378000Y-88854000D02*
X116378000Y-87422000D01*
X115824000Y-89408000D02*
X116378000Y-88854000D01*
X115824000Y-86868000D02*
X116378000Y-87422000D01*
X113284000Y-89408000D02*
X110062000Y-89408000D01*
X115824000Y-92456000D02*
X118190500Y-92456000D01*
X118190500Y-92456000D02*
X128323100Y-102588600D01*
X128323100Y-102588600D02*
X128323100Y-104058108D01*
X128323100Y-104058108D02*
X130571692Y-106306700D01*
X130571692Y-106306700D02*
X145305900Y-106306700D01*
X145305900Y-106306700D02*
X148754740Y-109755540D01*
X148754740Y-109755540D02*
X148754740Y-111098923D01*
X148754740Y-111098923D02*
X148023224Y-111830439D01*
X148023224Y-111830439D02*
X145550499Y-111830439D01*
X145550499Y-111830439D02*
X144780000Y-111059940D01*
X144780000Y-111059940D02*
X144780000Y-110490000D01*
X128066242Y-108603288D02*
X127527427Y-108603288D01*
X142240000Y-110490000D02*
X140353288Y-108603288D01*
X140353288Y-108603288D02*
X128066242Y-108603288D01*
X115824000Y-107696000D02*
X115824000Y-110236000D01*
X113284000Y-110236000D02*
X110062000Y-110236000D01*
X132762000Y-88900000D02*
X131350032Y-88900000D01*
X131350032Y-88900000D02*
X130775157Y-88325125D01*
X130775157Y-88325125D02*
X132740282Y-86360000D01*
X132740282Y-86360000D02*
X133096000Y-86360000D01*
X132762000Y-90932000D02*
X131567957Y-90932000D01*
X131567957Y-90932000D02*
X130213604Y-89577647D01*
X130213604Y-89577647D02*
X130213604Y-86702396D01*
X130213604Y-86702396D02*
X130556000Y-86360000D01*
X119046000Y-109220000D02*
X118143600Y-109220000D01*
X118143600Y-109220000D02*
X117590012Y-109773588D01*
X117590012Y-109773588D02*
X117590012Y-109922745D01*
X125519318Y-110514924D02*
X125519318Y-109812866D01*
X125519318Y-109812866D02*
X125984198Y-109347986D01*
X117590012Y-109922745D02*
X117870532Y-110203265D01*
X117870532Y-110203265D02*
X120036767Y-110203265D01*
X120036767Y-110203265D02*
X120358500Y-110524998D01*
X120358500Y-110524998D02*
X120358500Y-111804600D01*
X120358500Y-111804600D02*
X120950859Y-112396959D01*
X120950859Y-112396959D02*
X123637283Y-112396959D01*
X123637283Y-112396959D02*
X125519318Y-110514924D01*
X125984198Y-109347986D02*
X136017986Y-109347986D01*
X136017986Y-109347986D02*
X136360001Y-109690001D01*
X136360001Y-109690001D02*
X137160000Y-110490000D01*
X119046000Y-111252000D02*
X117620054Y-111252000D01*
X117620054Y-111252000D02*
X116806194Y-112065860D01*
X116806194Y-112065860D02*
X117464704Y-112724370D01*
X117464704Y-112724370D02*
X123772901Y-112724370D01*
X123772901Y-112724370D02*
X123908871Y-112588400D01*
X123908871Y-112588400D02*
X132521600Y-112588400D01*
X132521600Y-112588400D02*
X133820001Y-111289999D01*
X133820001Y-111289999D02*
X134620000Y-110490000D01*
X118647900Y-96246500D02*
X118648000Y-96246500D01*
X118647900Y-101500700D02*
X118647900Y-96246500D01*
X116262600Y-103886000D02*
X118647900Y-101500700D01*
X115403000Y-103886000D02*
X116262600Y-103886000D01*
X114554000Y-104735000D02*
X115403000Y-103886000D01*
X114554000Y-106426000D02*
X114554000Y-104735000D01*
X113284000Y-107696000D02*
X114554000Y-106426000D01*
X124333100Y-70980300D02*
X124510800Y-70980300D01*
X117015400Y-78298000D02*
X124333100Y-70980300D01*
X117015400Y-79747300D02*
X117015400Y-78298000D01*
X116244700Y-80518000D02*
X117015400Y-79747300D01*
X115313500Y-80518000D02*
X116244700Y-80518000D01*
X114632700Y-81198800D02*
X115313500Y-80518000D01*
X114632700Y-82218500D02*
X114632700Y-81198800D01*
X113795500Y-83055700D02*
X114632700Y-82218500D01*
X112860800Y-83055700D02*
X113795500Y-83055700D01*
X112092300Y-83824200D02*
X112860800Y-83055700D01*
X112092300Y-85676300D02*
X112092300Y-83824200D01*
X113284000Y-86868000D02*
X112092300Y-85676300D01*
X114554000Y-85598000D02*
X113698500Y-84742400D01*
X114554000Y-95456700D02*
X114554000Y-85598000D01*
X115284700Y-96187400D02*
X114554000Y-95456700D01*
X116224200Y-96187400D02*
X115284700Y-96187400D01*
X117041500Y-97004700D02*
X116224200Y-96187400D01*
X117041500Y-100612600D02*
X117041500Y-97004700D01*
X116308100Y-101346000D02*
X117041500Y-100612600D01*
X115398500Y-101346000D02*
X116308100Y-101346000D01*
X114624000Y-102120500D02*
X115398500Y-101346000D01*
X114624000Y-103816000D02*
X114624000Y-102120500D01*
X113284000Y-105156000D02*
X114624000Y-103816000D01*
X113698500Y-84742400D02*
X113284000Y-84328000D01*
X128251200Y-69640700D02*
X127050800Y-68440300D01*
X128251200Y-71540600D02*
X128251200Y-69640700D01*
X127462400Y-72329400D02*
X128251200Y-71540600D01*
X123484800Y-72329400D02*
X127462400Y-72329400D01*
X119066200Y-76748000D02*
X123484800Y-72329400D01*
X119066200Y-78065200D02*
X119066200Y-76748000D01*
X118766400Y-78365000D02*
X119066200Y-78065200D01*
X118766400Y-78890800D02*
X118766400Y-78365000D01*
X118166800Y-79490400D02*
X118766400Y-78890800D01*
X118166800Y-81130100D02*
X118166800Y-79490400D01*
X116160300Y-83136600D02*
X118166800Y-81130100D01*
X115304300Y-83136600D02*
X116160300Y-83136600D01*
X113698500Y-84742400D02*
X115304300Y-83136600D01*
X125833800Y-69763300D02*
X127050800Y-70980300D01*
X123983200Y-69763300D02*
X125833800Y-69763300D01*
X120051400Y-73695100D02*
X123983200Y-69763300D01*
X120051400Y-74165500D02*
X120051400Y-73695100D01*
X116160300Y-78056600D02*
X120051400Y-74165500D01*
X114475400Y-78056600D02*
X116160300Y-78056600D01*
X113284000Y-79248000D02*
X114475400Y-78056600D01*
D23*
G36*
X102743000Y-67006600D02*
X99365066Y-67006600D01*
X99365073Y-66998127D01*
X99125829Y-66419113D01*
X98683217Y-65975728D01*
X98104621Y-65735474D01*
X97478127Y-65734927D01*
X96899113Y-65974171D01*
X96519727Y-66352896D01*
X96143217Y-65975728D01*
X95564621Y-65735474D01*
X94938127Y-65734927D01*
X94359113Y-65974171D01*
X93915728Y-66416783D01*
X93675474Y-66995379D01*
X93674927Y-67621873D01*
X93914171Y-68200887D01*
X94292896Y-68580273D01*
X93915728Y-68956783D01*
X93675474Y-69535379D01*
X93674927Y-70161873D01*
X93914171Y-70740887D01*
X94050529Y-70877483D01*
X93526506Y-71401506D01*
X93372337Y-71632235D01*
X93324343Y-71873517D01*
X93318200Y-71904400D01*
X93318200Y-75424600D01*
X93372337Y-75696765D01*
X93526506Y-75927494D01*
X94045875Y-76446863D01*
X93915728Y-76576783D01*
X93675474Y-77155379D01*
X93674927Y-77781873D01*
X93914171Y-78360887D01*
X94292896Y-78740273D01*
X93915728Y-79116783D01*
X93675474Y-79695379D01*
X93674927Y-80321873D01*
X93914171Y-80900887D01*
X94292896Y-81280273D01*
X93915728Y-81656783D01*
X93675474Y-82235379D01*
X93674927Y-82861873D01*
X93914171Y-83440887D01*
X94292896Y-83820273D01*
X93915728Y-84196783D01*
X93675474Y-84775379D01*
X93674927Y-85401873D01*
X93914171Y-85980887D01*
X94356783Y-86424272D01*
X94935379Y-86664526D01*
X95561873Y-86665073D01*
X95808800Y-86563045D01*
X95808800Y-92540611D01*
X93542306Y-94807106D01*
X93388137Y-95037835D01*
X93349849Y-95230324D01*
X93334000Y-95310000D01*
X93334000Y-104673600D01*
X93388137Y-104945765D01*
X93542306Y-105176494D01*
X94034265Y-105668453D01*
X93915728Y-105786783D01*
X93675474Y-106365379D01*
X93674927Y-106991873D01*
X93914171Y-107570887D01*
X94292896Y-107950273D01*
X93915728Y-108326783D01*
X93675474Y-108905379D01*
X93674927Y-109531873D01*
X93914171Y-110110887D01*
X94292896Y-110490273D01*
X93915728Y-110866783D01*
X93675474Y-111445379D01*
X93674927Y-112071873D01*
X93914171Y-112650887D01*
X94292896Y-113030273D01*
X93915728Y-113406783D01*
X93675474Y-113985379D01*
X93674927Y-114611873D01*
X93914171Y-115190887D01*
X94292896Y-115570273D01*
X93915728Y-115946783D01*
X93675474Y-116525379D01*
X93674927Y-117151873D01*
X93914171Y-117730887D01*
X94356783Y-118174272D01*
X94935379Y-118414526D01*
X95561873Y-118415073D01*
X96140887Y-118175829D01*
X96520273Y-117797104D01*
X96896783Y-118174272D01*
X97475379Y-118414526D01*
X98101873Y-118415073D01*
X98680887Y-118175829D01*
X99124272Y-117733217D01*
X99364526Y-117154621D01*
X99365073Y-116528127D01*
X99125829Y-115949113D01*
X98747104Y-115569727D01*
X99124272Y-115193217D01*
X99364526Y-114614621D01*
X99365073Y-113988127D01*
X99125829Y-113409113D01*
X99002510Y-113285578D01*
X100640594Y-111647495D01*
X100794763Y-111416765D01*
X100812510Y-111327545D01*
X100848900Y-111144600D01*
X100848900Y-107953833D01*
X102553955Y-107953833D01*
X102578951Y-108579828D01*
X102770420Y-109042077D01*
X103031032Y-109133363D01*
X103960395Y-108204000D01*
X104319605Y-108204000D01*
X105248968Y-109133363D01*
X105509580Y-109042077D01*
X105726045Y-108454167D01*
X105701049Y-107828172D01*
X105509580Y-107365923D01*
X105248968Y-107274637D01*
X104319605Y-108204000D01*
X103960395Y-108204000D01*
X103031032Y-107274637D01*
X102770420Y-107365923D01*
X102553955Y-107953833D01*
X100848900Y-107953833D01*
X100848900Y-92849327D01*
X102093694Y-91604533D01*
X103306321Y-91604533D01*
X103249113Y-91628171D01*
X102805728Y-92070783D01*
X102565474Y-92649379D01*
X102564927Y-93275873D01*
X102804171Y-93854887D01*
X103182896Y-94234273D01*
X102805728Y-94610783D01*
X102565474Y-95189379D01*
X102564927Y-95815873D01*
X102804171Y-96394887D01*
X103182896Y-96774273D01*
X102805728Y-97150783D01*
X102565474Y-97729379D01*
X102564927Y-98355873D01*
X102804171Y-98934887D01*
X103182896Y-99314273D01*
X102805728Y-99690783D01*
X102565474Y-100269379D01*
X102564927Y-100895873D01*
X102804171Y-101474887D01*
X103182896Y-101854273D01*
X102805728Y-102230783D01*
X102565474Y-102809379D01*
X102564927Y-103435873D01*
X102804171Y-104014887D01*
X103182896Y-104394273D01*
X102805728Y-104770783D01*
X102565474Y-105349379D01*
X102564927Y-105975873D01*
X102804171Y-106554887D01*
X103245115Y-106996601D01*
X103210637Y-107095032D01*
X104140000Y-108024395D01*
X105069363Y-107095032D01*
X105034687Y-106996036D01*
X105474272Y-106557217D01*
X105714526Y-105978621D01*
X105715073Y-105352127D01*
X105475829Y-104773113D01*
X105097104Y-104393727D01*
X105474272Y-104017217D01*
X105714526Y-103438621D01*
X105715073Y-102812127D01*
X105475829Y-102233113D01*
X105097104Y-101853727D01*
X105474272Y-101477217D01*
X105714526Y-100898621D01*
X105715073Y-100272127D01*
X105475829Y-99693113D01*
X105097104Y-99313727D01*
X105474272Y-98937217D01*
X105714526Y-98358621D01*
X105715073Y-97732127D01*
X105475829Y-97153113D01*
X105097104Y-96773727D01*
X105474272Y-96397217D01*
X105679491Y-95902993D01*
X106183589Y-96407091D01*
X106160559Y-96421910D01*
X106015569Y-96634110D01*
X105964560Y-96886000D01*
X105964560Y-98186000D01*
X106008838Y-98421317D01*
X106147910Y-98637441D01*
X106360110Y-98782431D01*
X106602000Y-98831415D01*
X106602000Y-101320442D01*
X106376683Y-101362838D01*
X106160559Y-101501910D01*
X106015569Y-101714110D01*
X105964560Y-101966000D01*
X105964560Y-103266000D01*
X106008838Y-103501317D01*
X106147910Y-103717441D01*
X106360110Y-103862431D01*
X106612000Y-103913440D01*
X108112000Y-103913440D01*
X108347317Y-103869162D01*
X108563441Y-103730090D01*
X108708431Y-103517890D01*
X108711081Y-103504803D01*
X108847910Y-103717441D01*
X109060110Y-103862431D01*
X109312000Y-103913440D01*
X110812000Y-103913440D01*
X111047317Y-103869162D01*
X111263441Y-103730090D01*
X111408431Y-103517890D01*
X111447047Y-103327200D01*
X111873926Y-103327200D01*
X111948171Y-103506887D01*
X112326896Y-103886273D01*
X111949728Y-104262783D01*
X111709474Y-104841379D01*
X111708927Y-105467873D01*
X111948171Y-106046887D01*
X112326896Y-106426273D01*
X111949728Y-106802783D01*
X111709474Y-107381379D01*
X111708927Y-108007873D01*
X111948171Y-108586887D01*
X112326896Y-108966273D01*
X111949728Y-109342783D01*
X111874148Y-109524800D01*
X111447924Y-109524800D01*
X111415162Y-109350683D01*
X111276090Y-109134559D01*
X111063890Y-108989569D01*
X110812000Y-108938560D01*
X109312000Y-108938560D01*
X109076683Y-108982838D01*
X108860559Y-109121910D01*
X108715569Y-109334110D01*
X108708809Y-109367490D01*
X108650327Y-109226301D01*
X108471698Y-109047673D01*
X108238309Y-108951000D01*
X107647750Y-108951000D01*
X107489000Y-109109750D01*
X107489000Y-110109000D01*
X107509000Y-110109000D01*
X107509000Y-110363000D01*
X107489000Y-110363000D01*
X107489000Y-111362250D01*
X107647750Y-111521000D01*
X108238309Y-111521000D01*
X108471698Y-111424327D01*
X108650327Y-111245699D01*
X108706654Y-111109713D01*
X108708838Y-111121317D01*
X108847910Y-111337441D01*
X109060110Y-111482431D01*
X109312000Y-111533440D01*
X110812000Y-111533440D01*
X111047317Y-111489162D01*
X111263441Y-111350090D01*
X111408431Y-111137890D01*
X111447047Y-110947200D01*
X111873926Y-110947200D01*
X111948171Y-111126887D01*
X112390783Y-111570272D01*
X112969379Y-111810526D01*
X113595873Y-111811073D01*
X114174887Y-111571829D01*
X114554273Y-111193104D01*
X114930783Y-111570272D01*
X115509379Y-111810526D01*
X116135873Y-111811073D01*
X116146552Y-111806661D01*
X116094994Y-112065860D01*
X116149131Y-112338025D01*
X116303300Y-112568754D01*
X116808258Y-113073713D01*
X116364470Y-113161988D01*
X116206879Y-113227265D01*
X116108529Y-113268003D01*
X115284494Y-113818606D01*
X115088606Y-114014494D01*
X114538003Y-114838529D01*
X114431988Y-115094470D01*
X114238642Y-116066486D01*
X114238642Y-116136416D01*
X114225000Y-116205000D01*
X114225000Y-122387908D01*
X113497908Y-123115000D01*
X92525931Y-123115000D01*
X92295622Y-123069189D01*
X92159658Y-122978341D01*
X92068811Y-122842377D01*
X92023000Y-122612073D01*
X92023000Y-119949619D01*
X101904613Y-119949619D01*
X102244155Y-120771372D01*
X102872321Y-121400636D01*
X103693481Y-121741611D01*
X104582619Y-121742387D01*
X105074852Y-121539000D01*
X105156000Y-121539000D01*
X105203789Y-121529666D01*
X105245803Y-121501803D01*
X105302787Y-121444819D01*
X105404372Y-121402845D01*
X106033636Y-120774679D01*
X106076745Y-120670861D01*
X106134803Y-120612803D01*
X106161994Y-120572410D01*
X106172000Y-120523000D01*
X106172000Y-120441461D01*
X106374611Y-119953519D01*
X106375387Y-119064381D01*
X106035845Y-118242628D01*
X105407679Y-117613364D01*
X104672283Y-117308001D01*
X105030887Y-117159829D01*
X105474272Y-116717217D01*
X105714526Y-116138621D01*
X105715073Y-115512127D01*
X105475829Y-114933113D01*
X105097104Y-114553727D01*
X105474272Y-114177217D01*
X105714526Y-113598621D01*
X105715073Y-112972127D01*
X105475829Y-112393113D01*
X105097104Y-112013727D01*
X105474272Y-111637217D01*
X105714526Y-111058621D01*
X105714994Y-110521750D01*
X105977000Y-110521750D01*
X105977000Y-111012310D01*
X106073673Y-111245699D01*
X106252302Y-111424327D01*
X106485691Y-111521000D01*
X107076250Y-111521000D01*
X107235000Y-111362250D01*
X107235000Y-110363000D01*
X106135750Y-110363000D01*
X105977000Y-110521750D01*
X105714994Y-110521750D01*
X105715073Y-110432127D01*
X105475829Y-109853113D01*
X105083092Y-109459690D01*
X105977000Y-109459690D01*
X105977000Y-109950250D01*
X106135750Y-110109000D01*
X107235000Y-110109000D01*
X107235000Y-109109750D01*
X107076250Y-108951000D01*
X106485691Y-108951000D01*
X106252302Y-109047673D01*
X106073673Y-109226301D01*
X105977000Y-109459690D01*
X105083092Y-109459690D01*
X105034885Y-109411399D01*
X105069363Y-109312968D01*
X104140000Y-108383605D01*
X103210637Y-109312968D01*
X103245313Y-109411964D01*
X102805728Y-109850783D01*
X102565474Y-110429379D01*
X102564927Y-111055873D01*
X102804171Y-111634887D01*
X103182896Y-112014273D01*
X102805728Y-112390783D01*
X102565474Y-112969379D01*
X102564927Y-113595873D01*
X102804171Y-114174887D01*
X103182896Y-114554273D01*
X102805728Y-114930783D01*
X102565474Y-115509379D01*
X102564927Y-116135873D01*
X102804171Y-116714887D01*
X103246783Y-117158272D01*
X103608341Y-117308404D01*
X102875628Y-117611155D01*
X102246364Y-118239321D01*
X101905389Y-119060481D01*
X101904613Y-119949619D01*
X92023000Y-119949619D01*
X92023000Y-61283931D01*
X92049477Y-61150821D01*
X92085263Y-61097263D01*
X92138821Y-61061477D01*
X92271931Y-61035000D01*
X102743000Y-61035000D01*
X102743000Y-67006600D01*
X102743000Y-67006600D01*
G37*
X102743000Y-67006600D02*
X99365066Y-67006600D01*
X99365073Y-66998127D01*
X99125829Y-66419113D01*
X98683217Y-65975728D01*
X98104621Y-65735474D01*
X97478127Y-65734927D01*
X96899113Y-65974171D01*
X96519727Y-66352896D01*
X96143217Y-65975728D01*
X95564621Y-65735474D01*
X94938127Y-65734927D01*
X94359113Y-65974171D01*
X93915728Y-66416783D01*
X93675474Y-66995379D01*
X93674927Y-67621873D01*
X93914171Y-68200887D01*
X94292896Y-68580273D01*
X93915728Y-68956783D01*
X93675474Y-69535379D01*
X93674927Y-70161873D01*
X93914171Y-70740887D01*
X94050529Y-70877483D01*
X93526506Y-71401506D01*
X93372337Y-71632235D01*
X93324343Y-71873517D01*
X93318200Y-71904400D01*
X93318200Y-75424600D01*
X93372337Y-75696765D01*
X93526506Y-75927494D01*
X94045875Y-76446863D01*
X93915728Y-76576783D01*
X93675474Y-77155379D01*
X93674927Y-77781873D01*
X93914171Y-78360887D01*
X94292896Y-78740273D01*
X93915728Y-79116783D01*
X93675474Y-79695379D01*
X93674927Y-80321873D01*
X93914171Y-80900887D01*
X94292896Y-81280273D01*
X93915728Y-81656783D01*
X93675474Y-82235379D01*
X93674927Y-82861873D01*
X93914171Y-83440887D01*
X94292896Y-83820273D01*
X93915728Y-84196783D01*
X93675474Y-84775379D01*
X93674927Y-85401873D01*
X93914171Y-85980887D01*
X94356783Y-86424272D01*
X94935379Y-86664526D01*
X95561873Y-86665073D01*
X95808800Y-86563045D01*
X95808800Y-92540611D01*
X93542306Y-94807106D01*
X93388137Y-95037835D01*
X93349849Y-95230324D01*
X93334000Y-95310000D01*
X93334000Y-104673600D01*
X93388137Y-104945765D01*
X93542306Y-105176494D01*
X94034265Y-105668453D01*
X93915728Y-105786783D01*
X93675474Y-106365379D01*
X93674927Y-106991873D01*
X93914171Y-107570887D01*
X94292896Y-107950273D01*
X93915728Y-108326783D01*
X93675474Y-108905379D01*
X93674927Y-109531873D01*
X93914171Y-110110887D01*
X94292896Y-110490273D01*
X93915728Y-110866783D01*
X93675474Y-111445379D01*
X93674927Y-112071873D01*
X93914171Y-112650887D01*
X94292896Y-113030273D01*
X93915728Y-113406783D01*
X93675474Y-113985379D01*
X93674927Y-114611873D01*
X93914171Y-115190887D01*
X94292896Y-115570273D01*
X93915728Y-115946783D01*
X93675474Y-116525379D01*
X93674927Y-117151873D01*
X93914171Y-117730887D01*
X94356783Y-118174272D01*
X94935379Y-118414526D01*
X95561873Y-118415073D01*
X96140887Y-118175829D01*
X96520273Y-117797104D01*
X96896783Y-118174272D01*
X97475379Y-118414526D01*
X98101873Y-118415073D01*
X98680887Y-118175829D01*
X99124272Y-117733217D01*
X99364526Y-117154621D01*
X99365073Y-116528127D01*
X99125829Y-115949113D01*
X98747104Y-115569727D01*
X99124272Y-115193217D01*
X99364526Y-114614621D01*
X99365073Y-113988127D01*
X99125829Y-113409113D01*
X99002510Y-113285578D01*
X100640594Y-111647495D01*
X100794763Y-111416765D01*
X100812510Y-111327545D01*
X100848900Y-111144600D01*
X100848900Y-107953833D01*
X102553955Y-107953833D01*
X102578951Y-108579828D01*
X102770420Y-109042077D01*
X103031032Y-109133363D01*
X103960395Y-108204000D01*
X104319605Y-108204000D01*
X105248968Y-109133363D01*
X105509580Y-109042077D01*
X105726045Y-108454167D01*
X105701049Y-107828172D01*
X105509580Y-107365923D01*
X105248968Y-107274637D01*
X104319605Y-108204000D01*
X103960395Y-108204000D01*
X103031032Y-107274637D01*
X102770420Y-107365923D01*
X102553955Y-107953833D01*
X100848900Y-107953833D01*
X100848900Y-92849327D01*
X102093694Y-91604533D01*
X103306321Y-91604533D01*
X103249113Y-91628171D01*
X102805728Y-92070783D01*
X102565474Y-92649379D01*
X102564927Y-93275873D01*
X102804171Y-93854887D01*
X103182896Y-94234273D01*
X102805728Y-94610783D01*
X102565474Y-95189379D01*
X102564927Y-95815873D01*
X102804171Y-96394887D01*
X103182896Y-96774273D01*
X102805728Y-97150783D01*
X102565474Y-97729379D01*
X102564927Y-98355873D01*
X102804171Y-98934887D01*
X103182896Y-99314273D01*
X102805728Y-99690783D01*
X102565474Y-100269379D01*
X102564927Y-100895873D01*
X102804171Y-101474887D01*
X103182896Y-101854273D01*
X102805728Y-102230783D01*
X102565474Y-102809379D01*
X102564927Y-103435873D01*
X102804171Y-104014887D01*
X103182896Y-104394273D01*
X102805728Y-104770783D01*
X102565474Y-105349379D01*
X102564927Y-105975873D01*
X102804171Y-106554887D01*
X103245115Y-106996601D01*
X103210637Y-107095032D01*
X104140000Y-108024395D01*
X105069363Y-107095032D01*
X105034687Y-106996036D01*
X105474272Y-106557217D01*
X105714526Y-105978621D01*
X105715073Y-105352127D01*
X105475829Y-104773113D01*
X105097104Y-104393727D01*
X105474272Y-104017217D01*
X105714526Y-103438621D01*
X105715073Y-102812127D01*
X105475829Y-102233113D01*
X105097104Y-101853727D01*
X105474272Y-101477217D01*
X105714526Y-100898621D01*
X105715073Y-100272127D01*
X105475829Y-99693113D01*
X105097104Y-99313727D01*
X105474272Y-98937217D01*
X105714526Y-98358621D01*
X105715073Y-97732127D01*
X105475829Y-97153113D01*
X105097104Y-96773727D01*
X105474272Y-96397217D01*
X105679491Y-95902993D01*
X106183589Y-96407091D01*
X106160559Y-96421910D01*
X106015569Y-96634110D01*
X105964560Y-96886000D01*
X105964560Y-98186000D01*
X106008838Y-98421317D01*
X106147910Y-98637441D01*
X106360110Y-98782431D01*
X106602000Y-98831415D01*
X106602000Y-101320442D01*
X106376683Y-101362838D01*
X106160559Y-101501910D01*
X106015569Y-101714110D01*
X105964560Y-101966000D01*
X105964560Y-103266000D01*
X106008838Y-103501317D01*
X106147910Y-103717441D01*
X106360110Y-103862431D01*
X106612000Y-103913440D01*
X108112000Y-103913440D01*
X108347317Y-103869162D01*
X108563441Y-103730090D01*
X108708431Y-103517890D01*
X108711081Y-103504803D01*
X108847910Y-103717441D01*
X109060110Y-103862431D01*
X109312000Y-103913440D01*
X110812000Y-103913440D01*
X111047317Y-103869162D01*
X111263441Y-103730090D01*
X111408431Y-103517890D01*
X111447047Y-103327200D01*
X111873926Y-103327200D01*
X111948171Y-103506887D01*
X112326896Y-103886273D01*
X111949728Y-104262783D01*
X111709474Y-104841379D01*
X111708927Y-105467873D01*
X111948171Y-106046887D01*
X112326896Y-106426273D01*
X111949728Y-106802783D01*
X111709474Y-107381379D01*
X111708927Y-108007873D01*
X111948171Y-108586887D01*
X112326896Y-108966273D01*
X111949728Y-109342783D01*
X111874148Y-109524800D01*
X111447924Y-109524800D01*
X111415162Y-109350683D01*
X111276090Y-109134559D01*
X111063890Y-108989569D01*
X110812000Y-108938560D01*
X109312000Y-108938560D01*
X109076683Y-108982838D01*
X108860559Y-109121910D01*
X108715569Y-109334110D01*
X108708809Y-109367490D01*
X108650327Y-109226301D01*
X108471698Y-109047673D01*
X108238309Y-108951000D01*
X107647750Y-108951000D01*
X107489000Y-109109750D01*
X107489000Y-110109000D01*
X107509000Y-110109000D01*
X107509000Y-110363000D01*
X107489000Y-110363000D01*
X107489000Y-111362250D01*
X107647750Y-111521000D01*
X108238309Y-111521000D01*
X108471698Y-111424327D01*
X108650327Y-111245699D01*
X108706654Y-111109713D01*
X108708838Y-111121317D01*
X108847910Y-111337441D01*
X109060110Y-111482431D01*
X109312000Y-111533440D01*
X110812000Y-111533440D01*
X111047317Y-111489162D01*
X111263441Y-111350090D01*
X111408431Y-111137890D01*
X111447047Y-110947200D01*
X111873926Y-110947200D01*
X111948171Y-111126887D01*
X112390783Y-111570272D01*
X112969379Y-111810526D01*
X113595873Y-111811073D01*
X114174887Y-111571829D01*
X114554273Y-111193104D01*
X114930783Y-111570272D01*
X115509379Y-111810526D01*
X116135873Y-111811073D01*
X116146552Y-111806661D01*
X116094994Y-112065860D01*
X116149131Y-112338025D01*
X116303300Y-112568754D01*
X116808258Y-113073713D01*
X116364470Y-113161988D01*
X116206879Y-113227265D01*
X116108529Y-113268003D01*
X115284494Y-113818606D01*
X115088606Y-114014494D01*
X114538003Y-114838529D01*
X114431988Y-115094470D01*
X114238642Y-116066486D01*
X114238642Y-116136416D01*
X114225000Y-116205000D01*
X114225000Y-122387908D01*
X113497908Y-123115000D01*
X92525931Y-123115000D01*
X92295622Y-123069189D01*
X92159658Y-122978341D01*
X92068811Y-122842377D01*
X92023000Y-122612073D01*
X92023000Y-119949619D01*
X101904613Y-119949619D01*
X102244155Y-120771372D01*
X102872321Y-121400636D01*
X103693481Y-121741611D01*
X104582619Y-121742387D01*
X105074852Y-121539000D01*
X105156000Y-121539000D01*
X105203789Y-121529666D01*
X105245803Y-121501803D01*
X105302787Y-121444819D01*
X105404372Y-121402845D01*
X106033636Y-120774679D01*
X106076745Y-120670861D01*
X106134803Y-120612803D01*
X106161994Y-120572410D01*
X106172000Y-120523000D01*
X106172000Y-120441461D01*
X106374611Y-119953519D01*
X106375387Y-119064381D01*
X106035845Y-118242628D01*
X105407679Y-117613364D01*
X104672283Y-117308001D01*
X105030887Y-117159829D01*
X105474272Y-116717217D01*
X105714526Y-116138621D01*
X105715073Y-115512127D01*
X105475829Y-114933113D01*
X105097104Y-114553727D01*
X105474272Y-114177217D01*
X105714526Y-113598621D01*
X105715073Y-112972127D01*
X105475829Y-112393113D01*
X105097104Y-112013727D01*
X105474272Y-111637217D01*
X105714526Y-111058621D01*
X105714994Y-110521750D01*
X105977000Y-110521750D01*
X105977000Y-111012310D01*
X106073673Y-111245699D01*
X106252302Y-111424327D01*
X106485691Y-111521000D01*
X107076250Y-111521000D01*
X107235000Y-111362250D01*
X107235000Y-110363000D01*
X106135750Y-110363000D01*
X105977000Y-110521750D01*
X105714994Y-110521750D01*
X105715073Y-110432127D01*
X105475829Y-109853113D01*
X105083092Y-109459690D01*
X105977000Y-109459690D01*
X105977000Y-109950250D01*
X106135750Y-110109000D01*
X107235000Y-110109000D01*
X107235000Y-109109750D01*
X107076250Y-108951000D01*
X106485691Y-108951000D01*
X106252302Y-109047673D01*
X106073673Y-109226301D01*
X105977000Y-109459690D01*
X105083092Y-109459690D01*
X105034885Y-109411399D01*
X105069363Y-109312968D01*
X104140000Y-108383605D01*
X103210637Y-109312968D01*
X103245313Y-109411964D01*
X102805728Y-109850783D01*
X102565474Y-110429379D01*
X102564927Y-111055873D01*
X102804171Y-111634887D01*
X103182896Y-112014273D01*
X102805728Y-112390783D01*
X102565474Y-112969379D01*
X102564927Y-113595873D01*
X102804171Y-114174887D01*
X103182896Y-114554273D01*
X102805728Y-114930783D01*
X102565474Y-115509379D01*
X102564927Y-116135873D01*
X102804171Y-116714887D01*
X103246783Y-117158272D01*
X103608341Y-117308404D01*
X102875628Y-117611155D01*
X102246364Y-118239321D01*
X101905389Y-119060481D01*
X101904613Y-119949619D01*
X92023000Y-119949619D01*
X92023000Y-61283931D01*
X92049477Y-61150821D01*
X92085263Y-61097263D01*
X92138821Y-61061477D01*
X92271931Y-61035000D01*
X102743000Y-61035000D01*
X102743000Y-67006600D01*
G36*
X137339000Y-48260000D02*
X137352642Y-48328584D01*
X137352642Y-48398514D01*
X137507319Y-49176127D01*
X137559618Y-49302386D01*
X137613334Y-49432068D01*
X138053816Y-50091296D01*
X138249704Y-50287184D01*
X138908932Y-50727667D01*
X139036902Y-50780673D01*
X139164873Y-50833681D01*
X139942485Y-50988357D01*
X140012413Y-50988357D01*
X140081000Y-51002000D01*
X151003000Y-51002000D01*
X151003000Y-62357000D01*
X151011685Y-62403159D01*
X151038965Y-62445553D01*
X151080590Y-62473994D01*
X151130000Y-62484000D01*
X153670000Y-62484000D01*
X153716159Y-62475315D01*
X153758553Y-62448035D01*
X153786994Y-62406410D01*
X153797000Y-62357000D01*
X153797000Y-51002000D01*
X174330908Y-51002000D01*
X174550000Y-51221092D01*
X174550000Y-112481908D01*
X174076908Y-112955000D01*
X133160788Y-112955000D01*
X134238551Y-111877238D01*
X134620000Y-111953113D01*
X135169151Y-111843880D01*
X135634698Y-111532811D01*
X135890000Y-111150725D01*
X136145302Y-111532811D01*
X136610849Y-111843880D01*
X137160000Y-111953113D01*
X137709151Y-111843880D01*
X138174698Y-111532811D01*
X138430000Y-111150725D01*
X138685302Y-111532811D01*
X139150849Y-111843880D01*
X139700000Y-111953113D01*
X140249151Y-111843880D01*
X140714698Y-111532811D01*
X140970000Y-111150725D01*
X141225302Y-111532811D01*
X141690849Y-111843880D01*
X142240000Y-111953113D01*
X142789151Y-111843880D01*
X143254698Y-111532811D01*
X143510000Y-111150725D01*
X143765302Y-111532811D01*
X144230849Y-111843880D01*
X144639422Y-111925150D01*
X145047605Y-112333333D01*
X145278334Y-112487502D01*
X145323489Y-112496484D01*
X145550499Y-112541639D01*
X148023224Y-112541639D01*
X148295389Y-112487502D01*
X148526118Y-112333333D01*
X149257634Y-111601817D01*
X149411803Y-111371088D01*
X149465940Y-111098923D01*
X149465940Y-109755540D01*
X149411803Y-109483376D01*
X149360646Y-109406814D01*
X149257634Y-109252645D01*
X145808794Y-105803806D01*
X145578065Y-105649637D01*
X145305900Y-105595500D01*
X130866281Y-105595500D01*
X129593293Y-104322512D01*
X130089151Y-104223880D01*
X130554698Y-103912811D01*
X130810000Y-103530725D01*
X131065302Y-103912811D01*
X131530849Y-104223880D01*
X132080000Y-104333113D01*
X132629151Y-104223880D01*
X133094698Y-103912811D01*
X133350000Y-103530725D01*
X133605302Y-103912811D01*
X134070849Y-104223880D01*
X134620000Y-104333113D01*
X135169151Y-104223880D01*
X135634698Y-103912811D01*
X135890000Y-103530725D01*
X136145302Y-103912811D01*
X136610849Y-104223880D01*
X137160000Y-104333113D01*
X137709151Y-104223880D01*
X138174698Y-103912811D01*
X138430000Y-103530725D01*
X138685302Y-103912811D01*
X139150849Y-104223880D01*
X139700000Y-104333113D01*
X140249151Y-104223880D01*
X140714698Y-103912811D01*
X140970000Y-103530725D01*
X141225302Y-103912811D01*
X141690849Y-104223880D01*
X142240000Y-104333113D01*
X142789151Y-104223880D01*
X143254698Y-103912811D01*
X143510000Y-103530725D01*
X143765302Y-103912811D01*
X144230849Y-104223880D01*
X144780000Y-104333113D01*
X145329151Y-104223880D01*
X145794698Y-103912811D01*
X146050000Y-103530725D01*
X146305302Y-103912811D01*
X146770849Y-104223880D01*
X147320000Y-104333113D01*
X147869151Y-104223880D01*
X148334698Y-103912811D01*
X148584327Y-103539215D01*
X148592019Y-103577884D01*
X148746188Y-103808613D01*
X150850469Y-105912895D01*
X150977983Y-105998097D01*
X150825474Y-106365379D01*
X150824927Y-106991873D01*
X151064171Y-107570887D01*
X151506783Y-108014272D01*
X152085379Y-108254526D01*
X152711873Y-108255073D01*
X153290887Y-108015829D01*
X153734272Y-107573217D01*
X153974526Y-106994621D01*
X153975073Y-106368127D01*
X153873045Y-106121200D01*
X157185412Y-106121200D01*
X157250033Y-106185821D01*
X157175474Y-106365379D01*
X157174927Y-106991873D01*
X157414171Y-107570887D01*
X157856783Y-108014272D01*
X158435379Y-108254526D01*
X159061873Y-108255073D01*
X159640887Y-108015829D01*
X160020273Y-107637104D01*
X160396783Y-108014272D01*
X160975379Y-108254526D01*
X161601873Y-108255073D01*
X162180887Y-108015829D01*
X162624272Y-107573217D01*
X162864526Y-106994621D01*
X162865073Y-106368127D01*
X162788084Y-106181800D01*
X167406012Y-106181800D01*
X167410033Y-106185821D01*
X167335474Y-106365379D01*
X167334927Y-106991873D01*
X167574171Y-107570887D01*
X168016783Y-108014272D01*
X168595379Y-108254526D01*
X169221873Y-108255073D01*
X169800887Y-108015829D01*
X170180273Y-107637104D01*
X170556783Y-108014272D01*
X171135379Y-108254526D01*
X171761873Y-108255073D01*
X172340887Y-108015829D01*
X172784272Y-107573217D01*
X173024526Y-106994621D01*
X173025073Y-106368127D01*
X172785829Y-105789113D01*
X172407104Y-105409727D01*
X172784272Y-105033217D01*
X173024526Y-104454621D01*
X173025073Y-103828127D01*
X172785829Y-103249113D01*
X172407104Y-102869727D01*
X172784272Y-102493217D01*
X173024526Y-101914621D01*
X173025073Y-101288127D01*
X172785829Y-100709113D01*
X172407104Y-100329727D01*
X172784272Y-99953217D01*
X173024526Y-99374621D01*
X173025073Y-98748127D01*
X172785829Y-98169113D01*
X172407104Y-97789727D01*
X172784272Y-97413217D01*
X173024526Y-96834621D01*
X173025073Y-96208127D01*
X172785829Y-95629113D01*
X172407104Y-95249727D01*
X172784272Y-94873217D01*
X173024526Y-94294621D01*
X173025073Y-93668127D01*
X172785829Y-93089113D01*
X172407104Y-92709727D01*
X172784272Y-92333217D01*
X173024526Y-91754621D01*
X173025073Y-91128127D01*
X172785829Y-90549113D01*
X172654167Y-90417221D01*
X173188294Y-89883094D01*
X173342463Y-89652365D01*
X173396600Y-89380200D01*
X173396600Y-74445500D01*
X173362275Y-74272937D01*
X173342463Y-74173335D01*
X173188294Y-73942606D01*
X172656477Y-73410789D01*
X172784272Y-73283217D01*
X173024526Y-72704621D01*
X173025073Y-72078127D01*
X172785829Y-71499113D01*
X172407104Y-71119727D01*
X172784272Y-70743217D01*
X173024526Y-70164621D01*
X173025073Y-69538127D01*
X172785829Y-68959113D01*
X172407104Y-68579727D01*
X172784272Y-68203217D01*
X173024526Y-67624621D01*
X173025073Y-66998127D01*
X172785829Y-66419113D01*
X172407104Y-66039727D01*
X172784272Y-65663217D01*
X173024526Y-65084621D01*
X173025073Y-64458127D01*
X172785829Y-63879113D01*
X172407104Y-63499727D01*
X172784272Y-63123217D01*
X173024526Y-62544621D01*
X173025073Y-61918127D01*
X172785829Y-61339113D01*
X172407104Y-60959727D01*
X172784272Y-60583217D01*
X173024526Y-60004621D01*
X173025073Y-59378127D01*
X172785829Y-58799113D01*
X172407104Y-58419727D01*
X172784272Y-58043217D01*
X173024526Y-57464621D01*
X173025073Y-56838127D01*
X172785829Y-56259113D01*
X172343217Y-55815728D01*
X171764621Y-55575474D01*
X171138127Y-55574927D01*
X170559113Y-55814171D01*
X170179727Y-56192896D01*
X169803217Y-55815728D01*
X169224621Y-55575474D01*
X168598127Y-55574927D01*
X168415978Y-55650190D01*
X168171194Y-55405406D01*
X167940465Y-55251237D01*
X167668300Y-55197100D01*
X159991700Y-55197100D01*
X159719535Y-55251237D01*
X159488806Y-55405406D01*
X159244179Y-55650033D01*
X159064621Y-55575474D01*
X158438127Y-55574927D01*
X157859113Y-55814171D01*
X157415728Y-56256783D01*
X157175474Y-56835379D01*
X157174927Y-57461873D01*
X157414171Y-58040887D01*
X157792896Y-58420273D01*
X157415728Y-58796783D01*
X157175474Y-59375379D01*
X157174927Y-60001873D01*
X157414171Y-60580887D01*
X157792896Y-60960273D01*
X157415728Y-61336783D01*
X157175474Y-61915379D01*
X157174927Y-62541873D01*
X157414171Y-63120887D01*
X157792896Y-63500273D01*
X157415728Y-63876783D01*
X157175474Y-64455379D01*
X157174927Y-65081873D01*
X157414171Y-65660887D01*
X157792896Y-66040273D01*
X157415728Y-66416783D01*
X157304570Y-66684482D01*
X153564094Y-62944006D01*
X153333365Y-62789837D01*
X153061200Y-62735700D01*
X145005183Y-62735700D01*
X145084526Y-62544621D01*
X145085073Y-61918127D01*
X144845829Y-61339113D01*
X144467104Y-60959727D01*
X144844272Y-60583217D01*
X145084526Y-60004621D01*
X145085073Y-59378127D01*
X144845829Y-58799113D01*
X144403217Y-58355728D01*
X143824621Y-58115474D01*
X143198127Y-58114927D01*
X142619113Y-58354171D01*
X142475561Y-58497473D01*
X135545194Y-51567106D01*
X135314465Y-51412937D01*
X135042300Y-51358800D01*
X132750800Y-51358800D01*
X132750800Y-49047300D01*
X132696663Y-48775136D01*
X132696663Y-48775135D01*
X132542494Y-48544406D01*
X131817194Y-47819106D01*
X131586465Y-47664937D01*
X131314300Y-47610800D01*
X127761000Y-47610800D01*
X127488836Y-47664937D01*
X127258106Y-47819105D01*
X126752238Y-48324974D01*
X126623217Y-48195728D01*
X126044621Y-47955474D01*
X125418127Y-47954927D01*
X124839113Y-48194171D01*
X124459727Y-48572896D01*
X124083217Y-48195728D01*
X123504621Y-47955474D01*
X122878127Y-47954927D01*
X122299113Y-48194171D01*
X121919727Y-48572896D01*
X121543217Y-48195728D01*
X120964621Y-47955474D01*
X120338127Y-47954927D01*
X119759113Y-48194171D01*
X119379727Y-48572896D01*
X119003217Y-48195728D01*
X118424621Y-47955474D01*
X117798127Y-47954927D01*
X117219113Y-48194171D01*
X116839727Y-48572896D01*
X116463217Y-48195728D01*
X115884621Y-47955474D01*
X115258127Y-47954927D01*
X114679113Y-48194171D01*
X114299727Y-48572896D01*
X113923217Y-48195728D01*
X113344621Y-47955474D01*
X112718127Y-47954927D01*
X112139113Y-48194171D01*
X111695728Y-48636783D01*
X111455474Y-49215379D01*
X111454927Y-49841873D01*
X111694171Y-50420887D01*
X111806749Y-50533662D01*
X107136000Y-55204412D01*
X107136000Y-46811000D01*
X137339000Y-46811000D01*
X137339000Y-48260000D01*
X137339000Y-48260000D01*
G37*
X137339000Y-48260000D02*
X137352642Y-48328584D01*
X137352642Y-48398514D01*
X137507319Y-49176127D01*
X137559618Y-49302386D01*
X137613334Y-49432068D01*
X138053816Y-50091296D01*
X138249704Y-50287184D01*
X138908932Y-50727667D01*
X139036902Y-50780673D01*
X139164873Y-50833681D01*
X139942485Y-50988357D01*
X140012413Y-50988357D01*
X140081000Y-51002000D01*
X151003000Y-51002000D01*
X151003000Y-62357000D01*
X151011685Y-62403159D01*
X151038965Y-62445553D01*
X151080590Y-62473994D01*
X151130000Y-62484000D01*
X153670000Y-62484000D01*
X153716159Y-62475315D01*
X153758553Y-62448035D01*
X153786994Y-62406410D01*
X153797000Y-62357000D01*
X153797000Y-51002000D01*
X174330908Y-51002000D01*
X174550000Y-51221092D01*
X174550000Y-112481908D01*
X174076908Y-112955000D01*
X133160788Y-112955000D01*
X134238551Y-111877238D01*
X134620000Y-111953113D01*
X135169151Y-111843880D01*
X135634698Y-111532811D01*
X135890000Y-111150725D01*
X136145302Y-111532811D01*
X136610849Y-111843880D01*
X137160000Y-111953113D01*
X137709151Y-111843880D01*
X138174698Y-111532811D01*
X138430000Y-111150725D01*
X138685302Y-111532811D01*
X139150849Y-111843880D01*
X139700000Y-111953113D01*
X140249151Y-111843880D01*
X140714698Y-111532811D01*
X140970000Y-111150725D01*
X141225302Y-111532811D01*
X141690849Y-111843880D01*
X142240000Y-111953113D01*
X142789151Y-111843880D01*
X143254698Y-111532811D01*
X143510000Y-111150725D01*
X143765302Y-111532811D01*
X144230849Y-111843880D01*
X144639422Y-111925150D01*
X145047605Y-112333333D01*
X145278334Y-112487502D01*
X145323489Y-112496484D01*
X145550499Y-112541639D01*
X148023224Y-112541639D01*
X148295389Y-112487502D01*
X148526118Y-112333333D01*
X149257634Y-111601817D01*
X149411803Y-111371088D01*
X149465940Y-111098923D01*
X149465940Y-109755540D01*
X149411803Y-109483376D01*
X149360646Y-109406814D01*
X149257634Y-109252645D01*
X145808794Y-105803806D01*
X145578065Y-105649637D01*
X145305900Y-105595500D01*
X130866281Y-105595500D01*
X129593293Y-104322512D01*
X130089151Y-104223880D01*
X130554698Y-103912811D01*
X130810000Y-103530725D01*
X131065302Y-103912811D01*
X131530849Y-104223880D01*
X132080000Y-104333113D01*
X132629151Y-104223880D01*
X133094698Y-103912811D01*
X133350000Y-103530725D01*
X133605302Y-103912811D01*
X134070849Y-104223880D01*
X134620000Y-104333113D01*
X135169151Y-104223880D01*
X135634698Y-103912811D01*
X135890000Y-103530725D01*
X136145302Y-103912811D01*
X136610849Y-104223880D01*
X137160000Y-104333113D01*
X137709151Y-104223880D01*
X138174698Y-103912811D01*
X138430000Y-103530725D01*
X138685302Y-103912811D01*
X139150849Y-104223880D01*
X139700000Y-104333113D01*
X140249151Y-104223880D01*
X140714698Y-103912811D01*
X140970000Y-103530725D01*
X141225302Y-103912811D01*
X141690849Y-104223880D01*
X142240000Y-104333113D01*
X142789151Y-104223880D01*
X143254698Y-103912811D01*
X143510000Y-103530725D01*
X143765302Y-103912811D01*
X144230849Y-104223880D01*
X144780000Y-104333113D01*
X145329151Y-104223880D01*
X145794698Y-103912811D01*
X146050000Y-103530725D01*
X146305302Y-103912811D01*
X146770849Y-104223880D01*
X147320000Y-104333113D01*
X147869151Y-104223880D01*
X148334698Y-103912811D01*
X148584327Y-103539215D01*
X148592019Y-103577884D01*
X148746188Y-103808613D01*
X150850469Y-105912895D01*
X150977983Y-105998097D01*
X150825474Y-106365379D01*
X150824927Y-106991873D01*
X151064171Y-107570887D01*
X151506783Y-108014272D01*
X152085379Y-108254526D01*
X152711873Y-108255073D01*
X153290887Y-108015829D01*
X153734272Y-107573217D01*
X153974526Y-106994621D01*
X153975073Y-106368127D01*
X153873045Y-106121200D01*
X157185412Y-106121200D01*
X157250033Y-106185821D01*
X157175474Y-106365379D01*
X157174927Y-106991873D01*
X157414171Y-107570887D01*
X157856783Y-108014272D01*
X158435379Y-108254526D01*
X159061873Y-108255073D01*
X159640887Y-108015829D01*
X160020273Y-107637104D01*
X160396783Y-108014272D01*
X160975379Y-108254526D01*
X161601873Y-108255073D01*
X162180887Y-108015829D01*
X162624272Y-107573217D01*
X162864526Y-106994621D01*
X162865073Y-106368127D01*
X162788084Y-106181800D01*
X167406012Y-106181800D01*
X167410033Y-106185821D01*
X167335474Y-106365379D01*
X167334927Y-106991873D01*
X167574171Y-107570887D01*
X168016783Y-108014272D01*
X168595379Y-108254526D01*
X169221873Y-108255073D01*
X169800887Y-108015829D01*
X170180273Y-107637104D01*
X170556783Y-108014272D01*
X171135379Y-108254526D01*
X171761873Y-108255073D01*
X172340887Y-108015829D01*
X172784272Y-107573217D01*
X173024526Y-106994621D01*
X173025073Y-106368127D01*
X172785829Y-105789113D01*
X172407104Y-105409727D01*
X172784272Y-105033217D01*
X173024526Y-104454621D01*
X173025073Y-103828127D01*
X172785829Y-103249113D01*
X172407104Y-102869727D01*
X172784272Y-102493217D01*
X173024526Y-101914621D01*
X173025073Y-101288127D01*
X172785829Y-100709113D01*
X172407104Y-100329727D01*
X172784272Y-99953217D01*
X173024526Y-99374621D01*
X173025073Y-98748127D01*
X172785829Y-98169113D01*
X172407104Y-97789727D01*
X172784272Y-97413217D01*
X173024526Y-96834621D01*
X173025073Y-96208127D01*
X172785829Y-95629113D01*
X172407104Y-95249727D01*
X172784272Y-94873217D01*
X173024526Y-94294621D01*
X173025073Y-93668127D01*
X172785829Y-93089113D01*
X172407104Y-92709727D01*
X172784272Y-92333217D01*
X173024526Y-91754621D01*
X173025073Y-91128127D01*
X172785829Y-90549113D01*
X172654167Y-90417221D01*
X173188294Y-89883094D01*
X173342463Y-89652365D01*
X173396600Y-89380200D01*
X173396600Y-74445500D01*
X173362275Y-74272937D01*
X173342463Y-74173335D01*
X173188294Y-73942606D01*
X172656477Y-73410789D01*
X172784272Y-73283217D01*
X173024526Y-72704621D01*
X173025073Y-72078127D01*
X172785829Y-71499113D01*
X172407104Y-71119727D01*
X172784272Y-70743217D01*
X173024526Y-70164621D01*
X173025073Y-69538127D01*
X172785829Y-68959113D01*
X172407104Y-68579727D01*
X172784272Y-68203217D01*
X173024526Y-67624621D01*
X173025073Y-66998127D01*
X172785829Y-66419113D01*
X172407104Y-66039727D01*
X172784272Y-65663217D01*
X173024526Y-65084621D01*
X173025073Y-64458127D01*
X172785829Y-63879113D01*
X172407104Y-63499727D01*
X172784272Y-63123217D01*
X173024526Y-62544621D01*
X173025073Y-61918127D01*
X172785829Y-61339113D01*
X172407104Y-60959727D01*
X172784272Y-60583217D01*
X173024526Y-60004621D01*
X173025073Y-59378127D01*
X172785829Y-58799113D01*
X172407104Y-58419727D01*
X172784272Y-58043217D01*
X173024526Y-57464621D01*
X173025073Y-56838127D01*
X172785829Y-56259113D01*
X172343217Y-55815728D01*
X171764621Y-55575474D01*
X171138127Y-55574927D01*
X170559113Y-55814171D01*
X170179727Y-56192896D01*
X169803217Y-55815728D01*
X169224621Y-55575474D01*
X168598127Y-55574927D01*
X168415978Y-55650190D01*
X168171194Y-55405406D01*
X167940465Y-55251237D01*
X167668300Y-55197100D01*
X159991700Y-55197100D01*
X159719535Y-55251237D01*
X159488806Y-55405406D01*
X159244179Y-55650033D01*
X159064621Y-55575474D01*
X158438127Y-55574927D01*
X157859113Y-55814171D01*
X157415728Y-56256783D01*
X157175474Y-56835379D01*
X157174927Y-57461873D01*
X157414171Y-58040887D01*
X157792896Y-58420273D01*
X157415728Y-58796783D01*
X157175474Y-59375379D01*
X157174927Y-60001873D01*
X157414171Y-60580887D01*
X157792896Y-60960273D01*
X157415728Y-61336783D01*
X157175474Y-61915379D01*
X157174927Y-62541873D01*
X157414171Y-63120887D01*
X157792896Y-63500273D01*
X157415728Y-63876783D01*
X157175474Y-64455379D01*
X157174927Y-65081873D01*
X157414171Y-65660887D01*
X157792896Y-66040273D01*
X157415728Y-66416783D01*
X157304570Y-66684482D01*
X153564094Y-62944006D01*
X153333365Y-62789837D01*
X153061200Y-62735700D01*
X145005183Y-62735700D01*
X145084526Y-62544621D01*
X145085073Y-61918127D01*
X144845829Y-61339113D01*
X144467104Y-60959727D01*
X144844272Y-60583217D01*
X145084526Y-60004621D01*
X145085073Y-59378127D01*
X144845829Y-58799113D01*
X144403217Y-58355728D01*
X143824621Y-58115474D01*
X143198127Y-58114927D01*
X142619113Y-58354171D01*
X142475561Y-58497473D01*
X135545194Y-51567106D01*
X135314465Y-51412937D01*
X135042300Y-51358800D01*
X132750800Y-51358800D01*
X132750800Y-49047300D01*
X132696663Y-48775136D01*
X132696663Y-48775135D01*
X132542494Y-48544406D01*
X131817194Y-47819106D01*
X131586465Y-47664937D01*
X131314300Y-47610800D01*
X127761000Y-47610800D01*
X127488836Y-47664937D01*
X127258106Y-47819105D01*
X126752238Y-48324974D01*
X126623217Y-48195728D01*
X126044621Y-47955474D01*
X125418127Y-47954927D01*
X124839113Y-48194171D01*
X124459727Y-48572896D01*
X124083217Y-48195728D01*
X123504621Y-47955474D01*
X122878127Y-47954927D01*
X122299113Y-48194171D01*
X121919727Y-48572896D01*
X121543217Y-48195728D01*
X120964621Y-47955474D01*
X120338127Y-47954927D01*
X119759113Y-48194171D01*
X119379727Y-48572896D01*
X119003217Y-48195728D01*
X118424621Y-47955474D01*
X117798127Y-47954927D01*
X117219113Y-48194171D01*
X116839727Y-48572896D01*
X116463217Y-48195728D01*
X115884621Y-47955474D01*
X115258127Y-47954927D01*
X114679113Y-48194171D01*
X114299727Y-48572896D01*
X113923217Y-48195728D01*
X113344621Y-47955474D01*
X112718127Y-47954927D01*
X112139113Y-48194171D01*
X111695728Y-48636783D01*
X111455474Y-49215379D01*
X111454927Y-49841873D01*
X111694171Y-50420887D01*
X111806749Y-50533662D01*
X107136000Y-55204412D01*
X107136000Y-46811000D01*
X137339000Y-46811000D01*
X137339000Y-48260000D01*
G36*
X126327350Y-101598639D02*
X125985302Y-101827189D01*
X125796333Y-102110000D01*
X125222000Y-102110000D01*
X124931161Y-102167852D01*
X124684599Y-102332599D01*
X123668599Y-103348599D01*
X123503852Y-103595161D01*
X123462953Y-103800772D01*
X123345683Y-103822838D01*
X123129559Y-103961910D01*
X122984569Y-104174110D01*
X122933560Y-104426000D01*
X122933560Y-105926000D01*
X122977838Y-106161317D01*
X123116910Y-106377441D01*
X123185006Y-106423969D01*
X123042673Y-106566302D01*
X122946000Y-106799691D01*
X122946000Y-107390250D01*
X123104750Y-107549000D01*
X124079000Y-107549000D01*
X124079000Y-107529000D01*
X124333000Y-107529000D01*
X124333000Y-107549000D01*
X125307250Y-107549000D01*
X125466000Y-107390250D01*
X125466000Y-106799691D01*
X125369327Y-106566302D01*
X125228090Y-106425064D01*
X125282441Y-106390090D01*
X125427431Y-106177890D01*
X125478440Y-105926000D01*
X125478440Y-104426000D01*
X125434162Y-104190683D01*
X125295090Y-103974559D01*
X125233990Y-103932812D01*
X125536802Y-103630000D01*
X125796333Y-103630000D01*
X125985302Y-103912811D01*
X126450849Y-104223880D01*
X127000000Y-104333113D01*
X127549151Y-104223880D01*
X127633644Y-104167423D01*
X127666037Y-104330273D01*
X127820206Y-104561002D01*
X130068797Y-106809594D01*
X130222966Y-106912606D01*
X130299528Y-106963763D01*
X130571692Y-107017900D01*
X145011312Y-107017900D01*
X147192998Y-109199587D01*
X147192998Y-109220084D01*
X146970961Y-109098096D01*
X146582577Y-109258959D01*
X146167611Y-109634866D01*
X146064986Y-109851703D01*
X145794698Y-109447189D01*
X145329151Y-109136120D01*
X144780000Y-109026887D01*
X144230849Y-109136120D01*
X143765302Y-109447189D01*
X143510000Y-109829275D01*
X143254698Y-109447189D01*
X142789151Y-109136120D01*
X142240000Y-109026887D01*
X141858551Y-109102762D01*
X140856182Y-108100394D01*
X140625453Y-107946225D01*
X140353288Y-107892088D01*
X128253056Y-107892088D01*
X128103696Y-107742467D01*
X127730409Y-107587464D01*
X127326219Y-107587112D01*
X126952661Y-107741463D01*
X126666606Y-108027019D01*
X126511603Y-108400306D01*
X126511397Y-108636786D01*
X125984198Y-108636786D01*
X125712034Y-108690923D01*
X125481304Y-108845091D01*
X125016424Y-109309972D01*
X124862255Y-109540701D01*
X124840399Y-109650580D01*
X124808118Y-109812866D01*
X124808118Y-110220335D01*
X123342695Y-111685759D01*
X123131000Y-111685759D01*
X123131000Y-111537750D01*
X122972250Y-111379000D01*
X121873000Y-111379000D01*
X121873000Y-111399000D01*
X121619000Y-111399000D01*
X121619000Y-111379000D01*
X121599000Y-111379000D01*
X121599000Y-111125000D01*
X121619000Y-111125000D01*
X121619000Y-109347000D01*
X121873000Y-109347000D01*
X121873000Y-111125000D01*
X122972250Y-111125000D01*
X123131000Y-110966250D01*
X123131000Y-110475690D01*
X123034327Y-110242301D01*
X123028026Y-110236000D01*
X123034327Y-110229699D01*
X123131000Y-109996310D01*
X123131000Y-109505750D01*
X122972250Y-109347000D01*
X121873000Y-109347000D01*
X121619000Y-109347000D01*
X121599000Y-109347000D01*
X121599000Y-109093000D01*
X121619000Y-109093000D01*
X121619000Y-108093750D01*
X121873000Y-108093750D01*
X121873000Y-109093000D01*
X122972250Y-109093000D01*
X123131000Y-108934250D01*
X123131000Y-108874025D01*
X123221301Y-108964327D01*
X123454690Y-109061000D01*
X123920250Y-109061000D01*
X124079000Y-108902250D01*
X124079000Y-107803000D01*
X124333000Y-107803000D01*
X124333000Y-108902250D01*
X124491750Y-109061000D01*
X124957310Y-109061000D01*
X125190699Y-108964327D01*
X125369327Y-108785698D01*
X125466000Y-108552309D01*
X125466000Y-107961750D01*
X125307250Y-107803000D01*
X124333000Y-107803000D01*
X124079000Y-107803000D01*
X123104750Y-107803000D01*
X122946000Y-107961750D01*
X122946000Y-108121974D01*
X122855698Y-108031673D01*
X122622309Y-107935000D01*
X122031750Y-107935000D01*
X121873000Y-108093750D01*
X121619000Y-108093750D01*
X121460250Y-107935000D01*
X120869691Y-107935000D01*
X120636302Y-108031673D01*
X120457673Y-108210301D01*
X120401346Y-108346287D01*
X120399162Y-108334683D01*
X120260090Y-108118559D01*
X120047890Y-107973569D01*
X119796000Y-107922560D01*
X118296000Y-107922560D01*
X118060683Y-107966838D01*
X117844559Y-108105910D01*
X117699569Y-108318110D01*
X117648560Y-108570000D01*
X117648560Y-108711857D01*
X117640706Y-108717105D01*
X117087118Y-109270694D01*
X117086485Y-109271641D01*
X116781104Y-108965727D01*
X117158272Y-108589217D01*
X117398526Y-108010621D01*
X117399073Y-107384127D01*
X117159829Y-106805113D01*
X116781104Y-106425727D01*
X117158272Y-106049217D01*
X117398526Y-105470621D01*
X117399073Y-104844127D01*
X117159829Y-104265113D01*
X117024670Y-104129718D01*
X119150795Y-102003594D01*
X119304963Y-101772864D01*
X119359100Y-101500700D01*
X119359100Y-96972229D01*
X119508821Y-96822769D01*
X119663824Y-96449482D01*
X119664176Y-96045292D01*
X119509825Y-95671734D01*
X119224269Y-95385679D01*
X118850982Y-95230676D01*
X118446792Y-95230324D01*
X118073234Y-95384675D01*
X117787179Y-95670231D01*
X117632176Y-96043518D01*
X117631824Y-96447708D01*
X117786175Y-96821266D01*
X117936700Y-96972054D01*
X117936700Y-101206111D01*
X117235225Y-101907586D01*
X117159829Y-101725113D01*
X117047400Y-101612488D01*
X117544394Y-101115495D01*
X117698563Y-100884765D01*
X117717512Y-100789500D01*
X117752700Y-100612600D01*
X117752700Y-97004700D01*
X117733200Y-96906665D01*
X117698563Y-96732535D01*
X117544395Y-96501806D01*
X117044940Y-96002352D01*
X117158272Y-95889217D01*
X117398526Y-95310621D01*
X117399073Y-94684127D01*
X117159829Y-94105113D01*
X116781104Y-93725727D01*
X117158272Y-93349217D01*
X117233852Y-93167200D01*
X117895912Y-93167200D01*
X126327350Y-101598639D01*
X126327350Y-101598639D01*
G37*
X126327350Y-101598639D02*
X125985302Y-101827189D01*
X125796333Y-102110000D01*
X125222000Y-102110000D01*
X124931161Y-102167852D01*
X124684599Y-102332599D01*
X123668599Y-103348599D01*
X123503852Y-103595161D01*
X123462953Y-103800772D01*
X123345683Y-103822838D01*
X123129559Y-103961910D01*
X122984569Y-104174110D01*
X122933560Y-104426000D01*
X122933560Y-105926000D01*
X122977838Y-106161317D01*
X123116910Y-106377441D01*
X123185006Y-106423969D01*
X123042673Y-106566302D01*
X122946000Y-106799691D01*
X122946000Y-107390250D01*
X123104750Y-107549000D01*
X124079000Y-107549000D01*
X124079000Y-107529000D01*
X124333000Y-107529000D01*
X124333000Y-107549000D01*
X125307250Y-107549000D01*
X125466000Y-107390250D01*
X125466000Y-106799691D01*
X125369327Y-106566302D01*
X125228090Y-106425064D01*
X125282441Y-106390090D01*
X125427431Y-106177890D01*
X125478440Y-105926000D01*
X125478440Y-104426000D01*
X125434162Y-104190683D01*
X125295090Y-103974559D01*
X125233990Y-103932812D01*
X125536802Y-103630000D01*
X125796333Y-103630000D01*
X125985302Y-103912811D01*
X126450849Y-104223880D01*
X127000000Y-104333113D01*
X127549151Y-104223880D01*
X127633644Y-104167423D01*
X127666037Y-104330273D01*
X127820206Y-104561002D01*
X130068797Y-106809594D01*
X130222966Y-106912606D01*
X130299528Y-106963763D01*
X130571692Y-107017900D01*
X145011312Y-107017900D01*
X147192998Y-109199587D01*
X147192998Y-109220084D01*
X146970961Y-109098096D01*
X146582577Y-109258959D01*
X146167611Y-109634866D01*
X146064986Y-109851703D01*
X145794698Y-109447189D01*
X145329151Y-109136120D01*
X144780000Y-109026887D01*
X144230849Y-109136120D01*
X143765302Y-109447189D01*
X143510000Y-109829275D01*
X143254698Y-109447189D01*
X142789151Y-109136120D01*
X142240000Y-109026887D01*
X141858551Y-109102762D01*
X140856182Y-108100394D01*
X140625453Y-107946225D01*
X140353288Y-107892088D01*
X128253056Y-107892088D01*
X128103696Y-107742467D01*
X127730409Y-107587464D01*
X127326219Y-107587112D01*
X126952661Y-107741463D01*
X126666606Y-108027019D01*
X126511603Y-108400306D01*
X126511397Y-108636786D01*
X125984198Y-108636786D01*
X125712034Y-108690923D01*
X125481304Y-108845091D01*
X125016424Y-109309972D01*
X124862255Y-109540701D01*
X124840399Y-109650580D01*
X124808118Y-109812866D01*
X124808118Y-110220335D01*
X123342695Y-111685759D01*
X123131000Y-111685759D01*
X123131000Y-111537750D01*
X122972250Y-111379000D01*
X121873000Y-111379000D01*
X121873000Y-111399000D01*
X121619000Y-111399000D01*
X121619000Y-111379000D01*
X121599000Y-111379000D01*
X121599000Y-111125000D01*
X121619000Y-111125000D01*
X121619000Y-109347000D01*
X121873000Y-109347000D01*
X121873000Y-111125000D01*
X122972250Y-111125000D01*
X123131000Y-110966250D01*
X123131000Y-110475690D01*
X123034327Y-110242301D01*
X123028026Y-110236000D01*
X123034327Y-110229699D01*
X123131000Y-109996310D01*
X123131000Y-109505750D01*
X122972250Y-109347000D01*
X121873000Y-109347000D01*
X121619000Y-109347000D01*
X121599000Y-109347000D01*
X121599000Y-109093000D01*
X121619000Y-109093000D01*
X121619000Y-108093750D01*
X121873000Y-108093750D01*
X121873000Y-109093000D01*
X122972250Y-109093000D01*
X123131000Y-108934250D01*
X123131000Y-108874025D01*
X123221301Y-108964327D01*
X123454690Y-109061000D01*
X123920250Y-109061000D01*
X124079000Y-108902250D01*
X124079000Y-107803000D01*
X124333000Y-107803000D01*
X124333000Y-108902250D01*
X124491750Y-109061000D01*
X124957310Y-109061000D01*
X125190699Y-108964327D01*
X125369327Y-108785698D01*
X125466000Y-108552309D01*
X125466000Y-107961750D01*
X125307250Y-107803000D01*
X124333000Y-107803000D01*
X124079000Y-107803000D01*
X123104750Y-107803000D01*
X122946000Y-107961750D01*
X122946000Y-108121974D01*
X122855698Y-108031673D01*
X122622309Y-107935000D01*
X122031750Y-107935000D01*
X121873000Y-108093750D01*
X121619000Y-108093750D01*
X121460250Y-107935000D01*
X120869691Y-107935000D01*
X120636302Y-108031673D01*
X120457673Y-108210301D01*
X120401346Y-108346287D01*
X120399162Y-108334683D01*
X120260090Y-108118559D01*
X120047890Y-107973569D01*
X119796000Y-107922560D01*
X118296000Y-107922560D01*
X118060683Y-107966838D01*
X117844559Y-108105910D01*
X117699569Y-108318110D01*
X117648560Y-108570000D01*
X117648560Y-108711857D01*
X117640706Y-108717105D01*
X117087118Y-109270694D01*
X117086485Y-109271641D01*
X116781104Y-108965727D01*
X117158272Y-108589217D01*
X117398526Y-108010621D01*
X117399073Y-107384127D01*
X117159829Y-106805113D01*
X116781104Y-106425727D01*
X117158272Y-106049217D01*
X117398526Y-105470621D01*
X117399073Y-104844127D01*
X117159829Y-104265113D01*
X117024670Y-104129718D01*
X119150795Y-102003594D01*
X119304963Y-101772864D01*
X119359100Y-101500700D01*
X119359100Y-96972229D01*
X119508821Y-96822769D01*
X119663824Y-96449482D01*
X119664176Y-96045292D01*
X119509825Y-95671734D01*
X119224269Y-95385679D01*
X118850982Y-95230676D01*
X118446792Y-95230324D01*
X118073234Y-95384675D01*
X117787179Y-95670231D01*
X117632176Y-96043518D01*
X117631824Y-96447708D01*
X117786175Y-96821266D01*
X117936700Y-96972054D01*
X117936700Y-101206111D01*
X117235225Y-101907586D01*
X117159829Y-101725113D01*
X117047400Y-101612488D01*
X117544394Y-101115495D01*
X117698563Y-100884765D01*
X117717512Y-100789500D01*
X117752700Y-100612600D01*
X117752700Y-97004700D01*
X117733200Y-96906665D01*
X117698563Y-96732535D01*
X117544395Y-96501806D01*
X117044940Y-96002352D01*
X117158272Y-95889217D01*
X117398526Y-95310621D01*
X117399073Y-94684127D01*
X117159829Y-94105113D01*
X116781104Y-93725727D01*
X117158272Y-93349217D01*
X117233852Y-93167200D01*
X117895912Y-93167200D01*
X126327350Y-101598639D01*
G36*
X147447000Y-110363000D02*
X147467000Y-110363000D01*
X147467000Y-110617000D01*
X147447000Y-110617000D01*
X147447000Y-110637000D01*
X147193000Y-110637000D01*
X147193000Y-110617000D01*
X147173000Y-110617000D01*
X147173000Y-110363000D01*
X147193000Y-110363000D01*
X147193000Y-110343000D01*
X147447000Y-110343000D01*
X147447000Y-110363000D01*
X147447000Y-110363000D01*
G37*
X147447000Y-110363000D02*
X147467000Y-110363000D01*
X147467000Y-110617000D01*
X147447000Y-110617000D01*
X147447000Y-110637000D01*
X147193000Y-110637000D01*
X147193000Y-110617000D01*
X147173000Y-110617000D01*
X147173000Y-110363000D01*
X147193000Y-110363000D01*
X147193000Y-110343000D01*
X147447000Y-110343000D01*
X147447000Y-110363000D01*
G36*
X137161302Y-79782811D02*
X137626849Y-80093880D01*
X138176000Y-80203113D01*
X138725151Y-80093880D01*
X139190698Y-79782811D01*
X139220268Y-79738556D01*
X142602706Y-83120995D01*
X142833436Y-83275163D01*
X143105600Y-83329300D01*
X150898588Y-83329300D01*
X150825474Y-83505379D01*
X150824927Y-84131873D01*
X151064171Y-84710887D01*
X151506783Y-85154272D01*
X152085379Y-85394526D01*
X152711873Y-85395073D01*
X153290887Y-85155829D01*
X153734272Y-84713217D01*
X153974526Y-84134621D01*
X153975073Y-83508127D01*
X153901183Y-83329300D01*
X164873512Y-83329300D01*
X168869376Y-87325164D01*
X168598127Y-87324927D01*
X168415978Y-87400190D01*
X168221494Y-87205706D01*
X167990765Y-87051537D01*
X167718600Y-86997400D01*
X159941400Y-86997400D01*
X159714390Y-87042555D01*
X159669235Y-87051537D01*
X159438506Y-87205706D01*
X159244179Y-87400033D01*
X159064621Y-87325474D01*
X158438127Y-87324927D01*
X158255978Y-87400190D01*
X158007794Y-87152006D01*
X157777065Y-86997837D01*
X157504900Y-86943700D01*
X148939700Y-86943700D01*
X148667535Y-86997837D01*
X148436806Y-87152006D01*
X148267104Y-87321708D01*
X148055692Y-87321524D01*
X147682134Y-87475875D01*
X147396079Y-87761431D01*
X147241076Y-88134718D01*
X147240724Y-88538908D01*
X147395075Y-88912466D01*
X147680631Y-89198521D01*
X148053918Y-89353524D01*
X148458108Y-89353876D01*
X148831666Y-89199525D01*
X149117721Y-88913969D01*
X149272724Y-88540682D01*
X149272876Y-88366100D01*
X150916527Y-88366100D01*
X150825474Y-88585379D01*
X150824927Y-89211873D01*
X151064171Y-89790887D01*
X151505115Y-90232601D01*
X151470637Y-90331032D01*
X152400000Y-91260395D01*
X153329363Y-90331032D01*
X153294687Y-90232036D01*
X153734272Y-89793217D01*
X153974526Y-89214621D01*
X153975073Y-88588127D01*
X153883333Y-88366100D01*
X157210312Y-88366100D01*
X157250033Y-88405821D01*
X157175474Y-88585379D01*
X157174927Y-89211873D01*
X157414171Y-89790887D01*
X157792896Y-90170273D01*
X157415728Y-90546783D01*
X157175474Y-91125379D01*
X157174927Y-91751873D01*
X157250190Y-91934022D01*
X157185612Y-91998600D01*
X153872482Y-91998600D01*
X153986045Y-91690167D01*
X153961049Y-91064172D01*
X153769580Y-90601923D01*
X153508968Y-90510637D01*
X152579605Y-91440000D01*
X152593748Y-91454143D01*
X152414143Y-91633748D01*
X152400000Y-91619605D01*
X152385858Y-91633748D01*
X152206253Y-91454143D01*
X152220395Y-91440000D01*
X151291032Y-90510637D01*
X151030420Y-90601923D01*
X150813955Y-91189833D01*
X150838951Y-91815828D01*
X150914657Y-91998600D01*
X146683700Y-91998600D01*
X146411536Y-92052737D01*
X146381041Y-92073113D01*
X146180805Y-92206906D01*
X144277106Y-94110606D01*
X144191353Y-94238944D01*
X144069683Y-94261838D01*
X143853559Y-94400910D01*
X143708569Y-94613110D01*
X143657560Y-94865000D01*
X143657560Y-95765000D01*
X143701838Y-96000317D01*
X143840910Y-96216441D01*
X144053110Y-96361431D01*
X144305000Y-96412440D01*
X145255000Y-96412440D01*
X145490317Y-96368162D01*
X145706441Y-96229090D01*
X145851431Y-96016890D01*
X145902440Y-95765000D01*
X145902440Y-94865000D01*
X145858162Y-94629683D01*
X145823489Y-94575799D01*
X146978289Y-93421000D01*
X150927665Y-93421000D01*
X150813955Y-93729833D01*
X150838951Y-94355828D01*
X150913208Y-94535100D01*
X149725831Y-94535100D01*
X149726074Y-94255765D01*
X149571723Y-93882207D01*
X149286167Y-93596152D01*
X148912880Y-93441149D01*
X148508690Y-93440797D01*
X148135132Y-93595148D01*
X147984244Y-93745773D01*
X147446862Y-93745773D01*
X147174697Y-93799910D01*
X146943968Y-93954079D01*
X146817106Y-94080941D01*
X146708681Y-94243210D01*
X146609683Y-94261838D01*
X146393559Y-94400910D01*
X146248569Y-94613110D01*
X146197560Y-94865000D01*
X146197560Y-95765000D01*
X146241838Y-96000317D01*
X146380910Y-96216441D01*
X146593110Y-96361431D01*
X146845000Y-96412440D01*
X147304305Y-96412440D01*
X146997305Y-96719440D01*
X143879807Y-96719440D01*
X143256967Y-96096600D01*
X143311431Y-96016890D01*
X143362440Y-95765000D01*
X143362440Y-94865000D01*
X143318162Y-94629683D01*
X143179090Y-94413559D01*
X142966890Y-94268569D01*
X142715000Y-94217560D01*
X141765000Y-94217560D01*
X141529683Y-94261838D01*
X141313559Y-94400910D01*
X141168569Y-94613110D01*
X141117560Y-94865000D01*
X141117560Y-95765000D01*
X141161838Y-96000317D01*
X141229285Y-96105133D01*
X140711137Y-96105133D01*
X140771431Y-96016890D01*
X140822440Y-95765000D01*
X140822440Y-94865000D01*
X140778162Y-94629683D01*
X140639090Y-94413559D01*
X140426890Y-94268569D01*
X140411200Y-94265392D01*
X140411200Y-90109500D01*
X140405440Y-90080541D01*
X140383134Y-89968402D01*
X140383476Y-89575592D01*
X140229125Y-89202034D01*
X139943569Y-88915979D01*
X139570282Y-88760976D01*
X139166092Y-88760624D01*
X138792534Y-88914975D01*
X138506479Y-89200531D01*
X138351476Y-89573818D01*
X138351124Y-89978008D01*
X138505475Y-90351566D01*
X138791031Y-90637621D01*
X138988800Y-90719742D01*
X138988800Y-94262406D01*
X138773559Y-94400910D01*
X138628569Y-94613110D01*
X138577560Y-94865000D01*
X138577560Y-95765000D01*
X138621838Y-96000317D01*
X138689285Y-96105133D01*
X138171137Y-96105133D01*
X138231431Y-96016890D01*
X138282440Y-95765000D01*
X138282440Y-94865000D01*
X138238162Y-94629683D01*
X138099090Y-94413559D01*
X137886890Y-94268569D01*
X137635000Y-94217560D01*
X136685000Y-94217560D01*
X136449683Y-94261838D01*
X136233559Y-94400910D01*
X136088569Y-94613110D01*
X136037560Y-94865000D01*
X136037560Y-95765000D01*
X136081838Y-96000317D01*
X136220910Y-96216441D01*
X136433110Y-96361431D01*
X136448800Y-96364608D01*
X136448800Y-96432544D01*
X135605241Y-96432544D01*
X135458424Y-96285727D01*
X135546441Y-96229090D01*
X135691431Y-96016890D01*
X135742440Y-95765000D01*
X135742440Y-94865000D01*
X135698162Y-94629683D01*
X135559090Y-94413559D01*
X135346890Y-94268569D01*
X135095000Y-94217560D01*
X134145000Y-94217560D01*
X133909683Y-94261838D01*
X133693559Y-94400910D01*
X133548569Y-94613110D01*
X133497560Y-94865000D01*
X133497560Y-95765000D01*
X133541838Y-96000317D01*
X133680910Y-96216441D01*
X133893110Y-96361431D01*
X133908800Y-96364608D01*
X133908800Y-96453092D01*
X133962937Y-96725257D01*
X134003558Y-96786050D01*
X132967833Y-96786050D01*
X132791200Y-96609417D01*
X132791200Y-96367594D01*
X133006441Y-96229090D01*
X133151431Y-96016890D01*
X133202440Y-95765000D01*
X133202440Y-94865000D01*
X133158162Y-94629683D01*
X133019090Y-94413559D01*
X132806890Y-94268569D01*
X132555000Y-94217560D01*
X131605000Y-94217560D01*
X131369683Y-94261838D01*
X131153559Y-94400910D01*
X131008569Y-94613110D01*
X130957560Y-94865000D01*
X130957560Y-95765000D01*
X131001838Y-96000317D01*
X131140910Y-96216441D01*
X131353110Y-96361431D01*
X131368800Y-96364608D01*
X131368800Y-96904005D01*
X131410463Y-97113461D01*
X130886830Y-97113461D01*
X130251200Y-96477832D01*
X130251200Y-96367594D01*
X130466441Y-96229090D01*
X130611431Y-96016890D01*
X130662440Y-95765000D01*
X130662440Y-94865000D01*
X130618162Y-94629683D01*
X130479090Y-94413559D01*
X130266890Y-94268569D01*
X130015000Y-94217560D01*
X129065000Y-94217560D01*
X128829683Y-94261838D01*
X128613559Y-94400910D01*
X128468569Y-94613110D01*
X128417560Y-94865000D01*
X128417560Y-95765000D01*
X128461838Y-96000317D01*
X128600910Y-96216441D01*
X128813110Y-96361431D01*
X128828800Y-96364608D01*
X128828800Y-96772420D01*
X128882937Y-97044585D01*
X129037106Y-97275314D01*
X130089346Y-98327555D01*
X130148072Y-98366794D01*
X130320077Y-98481724D01*
X130592241Y-98535861D01*
X141832536Y-98535861D01*
X142464234Y-99167560D01*
X141765000Y-99167560D01*
X141529683Y-99211838D01*
X141313559Y-99350910D01*
X141168569Y-99563110D01*
X141117560Y-99815000D01*
X141117560Y-100715000D01*
X141161838Y-100950317D01*
X141300910Y-101166441D01*
X141513110Y-101311431D01*
X141528800Y-101314608D01*
X141528800Y-101624398D01*
X141225302Y-101827189D01*
X140970000Y-102209275D01*
X140714698Y-101827189D01*
X140411200Y-101624398D01*
X140411200Y-101317594D01*
X140626441Y-101179090D01*
X140771431Y-100966890D01*
X140822440Y-100715000D01*
X140822440Y-99815000D01*
X140778162Y-99579683D01*
X140639090Y-99363559D01*
X140426890Y-99218569D01*
X140175000Y-99167560D01*
X139225000Y-99167560D01*
X138989683Y-99211838D01*
X138773559Y-99350910D01*
X138628569Y-99563110D01*
X138577560Y-99815000D01*
X138577560Y-100715000D01*
X138621838Y-100950317D01*
X138760910Y-101166441D01*
X138973110Y-101311431D01*
X138988800Y-101314608D01*
X138988800Y-101624398D01*
X138685302Y-101827189D01*
X138430000Y-102209275D01*
X138174698Y-101827189D01*
X137871200Y-101624398D01*
X137871200Y-101317594D01*
X138086441Y-101179090D01*
X138231431Y-100966890D01*
X138282440Y-100715000D01*
X138282440Y-99815000D01*
X138238162Y-99579683D01*
X138099090Y-99363559D01*
X137886890Y-99218569D01*
X137635000Y-99167560D01*
X136685000Y-99167560D01*
X136449683Y-99211838D01*
X136233559Y-99350910D01*
X136088569Y-99563110D01*
X136037560Y-99815000D01*
X136037560Y-100715000D01*
X136081838Y-100950317D01*
X136220910Y-101166441D01*
X136433110Y-101311431D01*
X136448800Y-101314608D01*
X136448800Y-101624398D01*
X136145302Y-101827189D01*
X135890000Y-102209275D01*
X135634698Y-101827189D01*
X135331200Y-101624398D01*
X135331200Y-101317594D01*
X135546441Y-101179090D01*
X135691431Y-100966890D01*
X135742440Y-100715000D01*
X135742440Y-99815000D01*
X135698162Y-99579683D01*
X135559090Y-99363559D01*
X135346890Y-99218569D01*
X135095000Y-99167560D01*
X134145000Y-99167560D01*
X133909683Y-99211838D01*
X133693559Y-99350910D01*
X133548569Y-99563110D01*
X133497560Y-99815000D01*
X133497560Y-100715000D01*
X133541838Y-100950317D01*
X133680910Y-101166441D01*
X133893110Y-101311431D01*
X133908800Y-101314608D01*
X133908800Y-101624398D01*
X133605302Y-101827189D01*
X133350000Y-102209275D01*
X133094698Y-101827189D01*
X132791200Y-101624398D01*
X132791200Y-101317594D01*
X133006441Y-101179090D01*
X133151431Y-100966890D01*
X133202440Y-100715000D01*
X133202440Y-99815000D01*
X133158162Y-99579683D01*
X133019090Y-99363559D01*
X132806890Y-99218569D01*
X132555000Y-99167560D01*
X131605000Y-99167560D01*
X131369683Y-99211838D01*
X131153559Y-99350910D01*
X131008569Y-99563110D01*
X130957560Y-99815000D01*
X130957560Y-100715000D01*
X131001838Y-100950317D01*
X131140910Y-101166441D01*
X131353110Y-101311431D01*
X131368800Y-101314608D01*
X131368800Y-101624398D01*
X131065302Y-101827189D01*
X130810000Y-102209275D01*
X130554698Y-101827189D01*
X130251200Y-101624398D01*
X130251200Y-101317594D01*
X130466441Y-101179090D01*
X130611431Y-100966890D01*
X130662440Y-100715000D01*
X130662440Y-99815000D01*
X130618162Y-99579683D01*
X130479090Y-99363559D01*
X130266890Y-99218569D01*
X130015000Y-99167560D01*
X129065000Y-99167560D01*
X128829683Y-99211838D01*
X128613559Y-99350910D01*
X128468569Y-99563110D01*
X128417560Y-99815000D01*
X128417560Y-100715000D01*
X128461838Y-100950317D01*
X128600910Y-101166441D01*
X128813110Y-101311431D01*
X128828800Y-101314608D01*
X128828800Y-101624398D01*
X128550585Y-101810296D01*
X118693394Y-91953106D01*
X118462665Y-91798937D01*
X118190500Y-91744800D01*
X117234074Y-91744800D01*
X117159829Y-91565113D01*
X116717217Y-91121728D01*
X116259891Y-90931830D01*
X116714887Y-90743829D01*
X117158272Y-90301217D01*
X117398526Y-89722621D01*
X117399073Y-89096127D01*
X117159829Y-88517113D01*
X117089200Y-88446361D01*
X117089200Y-88411056D01*
X127754914Y-88411056D01*
X128027079Y-88356919D01*
X128257808Y-88202750D01*
X128518894Y-87941665D01*
X128645688Y-87751904D01*
X128673063Y-87710934D01*
X128688928Y-87631175D01*
X129030698Y-87402811D01*
X129286000Y-87020725D01*
X129502404Y-87344596D01*
X129502404Y-89577647D01*
X129556541Y-89849812D01*
X129710710Y-90080541D01*
X131065062Y-91434894D01*
X131158258Y-91497165D01*
X131295793Y-91589063D01*
X131368615Y-91603548D01*
X131408838Y-91817317D01*
X131547910Y-92033441D01*
X131760110Y-92178431D01*
X132012000Y-92229440D01*
X133512000Y-92229440D01*
X133747317Y-92185162D01*
X133963441Y-92046090D01*
X134108431Y-91833890D01*
X134115191Y-91800510D01*
X134173673Y-91941699D01*
X134352302Y-92120327D01*
X134585691Y-92217000D01*
X135176250Y-92217000D01*
X135335000Y-92058250D01*
X135335000Y-91059000D01*
X135589000Y-91059000D01*
X135589000Y-92058250D01*
X135747750Y-92217000D01*
X136338309Y-92217000D01*
X136571698Y-92120327D01*
X136750327Y-91941699D01*
X136847000Y-91708310D01*
X136847000Y-91217750D01*
X136688250Y-91059000D01*
X135589000Y-91059000D01*
X135335000Y-91059000D01*
X135315000Y-91059000D01*
X135315000Y-90805000D01*
X135335000Y-90805000D01*
X135335000Y-89027000D01*
X135589000Y-89027000D01*
X135589000Y-90805000D01*
X136688250Y-90805000D01*
X136847000Y-90646250D01*
X136847000Y-90155690D01*
X136750327Y-89922301D01*
X136744026Y-89916000D01*
X136750327Y-89909699D01*
X136847000Y-89676310D01*
X136847000Y-89185750D01*
X136688250Y-89027000D01*
X135589000Y-89027000D01*
X135335000Y-89027000D01*
X135315000Y-89027000D01*
X135315000Y-88773000D01*
X135335000Y-88773000D01*
X135335000Y-88753000D01*
X135589000Y-88753000D01*
X135589000Y-88773000D01*
X136688250Y-88773000D01*
X136847000Y-88614250D01*
X136847000Y-88123690D01*
X136750327Y-87890301D01*
X136571698Y-87711673D01*
X136338309Y-87615000D01*
X136333135Y-87615000D01*
X136650698Y-87402811D01*
X136906000Y-87020725D01*
X137161302Y-87402811D01*
X137626849Y-87713880D01*
X138176000Y-87823113D01*
X138725151Y-87713880D01*
X139190698Y-87402811D01*
X139446000Y-87020725D01*
X139701302Y-87402811D01*
X140166849Y-87713880D01*
X140716000Y-87823113D01*
X141265151Y-87713880D01*
X141730698Y-87402811D01*
X142000986Y-86998297D01*
X142103611Y-87215134D01*
X142518577Y-87591041D01*
X142906961Y-87751904D01*
X143129000Y-87629915D01*
X143129000Y-86487000D01*
X143383000Y-86487000D01*
X143383000Y-87629915D01*
X143605039Y-87751904D01*
X143993423Y-87591041D01*
X144408389Y-87215134D01*
X144647914Y-86709041D01*
X144526629Y-86487000D01*
X143383000Y-86487000D01*
X143129000Y-86487000D01*
X143109000Y-86487000D01*
X143109000Y-86233000D01*
X143129000Y-86233000D01*
X143129000Y-85090085D01*
X143383000Y-85090085D01*
X143383000Y-86233000D01*
X144526629Y-86233000D01*
X144647914Y-86010959D01*
X144408389Y-85504866D01*
X143993423Y-85128959D01*
X143605039Y-84968096D01*
X143383000Y-85090085D01*
X143129000Y-85090085D01*
X142906961Y-84968096D01*
X142518577Y-85128959D01*
X142103611Y-85504866D01*
X142000986Y-85721703D01*
X141730698Y-85317189D01*
X141265151Y-85006120D01*
X140716000Y-84896887D01*
X140334551Y-84972762D01*
X139407247Y-84045459D01*
X139176518Y-83891290D01*
X138904353Y-83837153D01*
X127093774Y-83837153D01*
X126944414Y-83687532D01*
X126571127Y-83532529D01*
X126166937Y-83532177D01*
X125852634Y-83662044D01*
X125757629Y-83566873D01*
X125384342Y-83411870D01*
X124980152Y-83411518D01*
X124606594Y-83565869D01*
X124320539Y-83851425D01*
X124200321Y-84140941D01*
X124157671Y-84112443D01*
X123885506Y-84058306D01*
X122403664Y-84058306D01*
X122131499Y-84112443D01*
X121900770Y-84266612D01*
X120877632Y-85289750D01*
X117791539Y-85289750D01*
X117323967Y-84822179D01*
X117398526Y-84642621D01*
X117399073Y-84016127D01*
X117322890Y-83831750D01*
X118628000Y-83831750D01*
X118628000Y-84422309D01*
X118724673Y-84655698D01*
X118903301Y-84834327D01*
X119136690Y-84931000D01*
X119602250Y-84931000D01*
X119761000Y-84772250D01*
X119761000Y-83673000D01*
X120015000Y-83673000D01*
X120015000Y-84772250D01*
X120173750Y-84931000D01*
X120639310Y-84931000D01*
X120872699Y-84834327D01*
X121051327Y-84655698D01*
X121148000Y-84422309D01*
X121148000Y-83831750D01*
X120989250Y-83673000D01*
X120015000Y-83673000D01*
X119761000Y-83673000D01*
X118786750Y-83673000D01*
X118628000Y-83831750D01*
X117322890Y-83831750D01*
X117159829Y-83437113D01*
X117012830Y-83289858D01*
X118615560Y-81687129D01*
X118615560Y-81796000D01*
X118659838Y-82031317D01*
X118798910Y-82247441D01*
X118867006Y-82293969D01*
X118724673Y-82436302D01*
X118628000Y-82669691D01*
X118628000Y-83260250D01*
X118786750Y-83419000D01*
X119761000Y-83419000D01*
X119761000Y-83399000D01*
X120015000Y-83399000D01*
X120015000Y-83419000D01*
X120989250Y-83419000D01*
X121148000Y-83260250D01*
X121148000Y-82669691D01*
X121051327Y-82436302D01*
X120910090Y-82295064D01*
X120964441Y-82260090D01*
X121109431Y-82047890D01*
X121160440Y-81796000D01*
X121160440Y-80296000D01*
X121116162Y-80060683D01*
X120977090Y-79844559D01*
X120765094Y-79699708D01*
X120964802Y-79500000D01*
X121732333Y-79500000D01*
X121921302Y-79782811D01*
X122386849Y-80093880D01*
X122936000Y-80203113D01*
X123485151Y-80093880D01*
X123950698Y-79782811D01*
X124206000Y-79400725D01*
X124461302Y-79782811D01*
X124926849Y-80093880D01*
X125476000Y-80203113D01*
X126025151Y-80093880D01*
X126490698Y-79782811D01*
X126746000Y-79400725D01*
X127001302Y-79782811D01*
X127466849Y-80093880D01*
X128016000Y-80203113D01*
X128565151Y-80093880D01*
X129030698Y-79782811D01*
X129286000Y-79400725D01*
X129541302Y-79782811D01*
X130006849Y-80093880D01*
X130556000Y-80203113D01*
X131105151Y-80093880D01*
X131570698Y-79782811D01*
X131826000Y-79400725D01*
X132081302Y-79782811D01*
X132546849Y-80093880D01*
X133096000Y-80203113D01*
X133645151Y-80093880D01*
X134110698Y-79782811D01*
X134366000Y-79400725D01*
X134621302Y-79782811D01*
X135086849Y-80093880D01*
X135636000Y-80203113D01*
X136185151Y-80093880D01*
X136650698Y-79782811D01*
X136906000Y-79400725D01*
X137161302Y-79782811D01*
X137161302Y-79782811D01*
G37*
X137161302Y-79782811D02*
X137626849Y-80093880D01*
X138176000Y-80203113D01*
X138725151Y-80093880D01*
X139190698Y-79782811D01*
X139220268Y-79738556D01*
X142602706Y-83120995D01*
X142833436Y-83275163D01*
X143105600Y-83329300D01*
X150898588Y-83329300D01*
X150825474Y-83505379D01*
X150824927Y-84131873D01*
X151064171Y-84710887D01*
X151506783Y-85154272D01*
X152085379Y-85394526D01*
X152711873Y-85395073D01*
X153290887Y-85155829D01*
X153734272Y-84713217D01*
X153974526Y-84134621D01*
X153975073Y-83508127D01*
X153901183Y-83329300D01*
X164873512Y-83329300D01*
X168869376Y-87325164D01*
X168598127Y-87324927D01*
X168415978Y-87400190D01*
X168221494Y-87205706D01*
X167990765Y-87051537D01*
X167718600Y-86997400D01*
X159941400Y-86997400D01*
X159714390Y-87042555D01*
X159669235Y-87051537D01*
X159438506Y-87205706D01*
X159244179Y-87400033D01*
X159064621Y-87325474D01*
X158438127Y-87324927D01*
X158255978Y-87400190D01*
X158007794Y-87152006D01*
X157777065Y-86997837D01*
X157504900Y-86943700D01*
X148939700Y-86943700D01*
X148667535Y-86997837D01*
X148436806Y-87152006D01*
X148267104Y-87321708D01*
X148055692Y-87321524D01*
X147682134Y-87475875D01*
X147396079Y-87761431D01*
X147241076Y-88134718D01*
X147240724Y-88538908D01*
X147395075Y-88912466D01*
X147680631Y-89198521D01*
X148053918Y-89353524D01*
X148458108Y-89353876D01*
X148831666Y-89199525D01*
X149117721Y-88913969D01*
X149272724Y-88540682D01*
X149272876Y-88366100D01*
X150916527Y-88366100D01*
X150825474Y-88585379D01*
X150824927Y-89211873D01*
X151064171Y-89790887D01*
X151505115Y-90232601D01*
X151470637Y-90331032D01*
X152400000Y-91260395D01*
X153329363Y-90331032D01*
X153294687Y-90232036D01*
X153734272Y-89793217D01*
X153974526Y-89214621D01*
X153975073Y-88588127D01*
X153883333Y-88366100D01*
X157210312Y-88366100D01*
X157250033Y-88405821D01*
X157175474Y-88585379D01*
X157174927Y-89211873D01*
X157414171Y-89790887D01*
X157792896Y-90170273D01*
X157415728Y-90546783D01*
X157175474Y-91125379D01*
X157174927Y-91751873D01*
X157250190Y-91934022D01*
X157185612Y-91998600D01*
X153872482Y-91998600D01*
X153986045Y-91690167D01*
X153961049Y-91064172D01*
X153769580Y-90601923D01*
X153508968Y-90510637D01*
X152579605Y-91440000D01*
X152593748Y-91454143D01*
X152414143Y-91633748D01*
X152400000Y-91619605D01*
X152385858Y-91633748D01*
X152206253Y-91454143D01*
X152220395Y-91440000D01*
X151291032Y-90510637D01*
X151030420Y-90601923D01*
X150813955Y-91189833D01*
X150838951Y-91815828D01*
X150914657Y-91998600D01*
X146683700Y-91998600D01*
X146411536Y-92052737D01*
X146381041Y-92073113D01*
X146180805Y-92206906D01*
X144277106Y-94110606D01*
X144191353Y-94238944D01*
X144069683Y-94261838D01*
X143853559Y-94400910D01*
X143708569Y-94613110D01*
X143657560Y-94865000D01*
X143657560Y-95765000D01*
X143701838Y-96000317D01*
X143840910Y-96216441D01*
X144053110Y-96361431D01*
X144305000Y-96412440D01*
X145255000Y-96412440D01*
X145490317Y-96368162D01*
X145706441Y-96229090D01*
X145851431Y-96016890D01*
X145902440Y-95765000D01*
X145902440Y-94865000D01*
X145858162Y-94629683D01*
X145823489Y-94575799D01*
X146978289Y-93421000D01*
X150927665Y-93421000D01*
X150813955Y-93729833D01*
X150838951Y-94355828D01*
X150913208Y-94535100D01*
X149725831Y-94535100D01*
X149726074Y-94255765D01*
X149571723Y-93882207D01*
X149286167Y-93596152D01*
X148912880Y-93441149D01*
X148508690Y-93440797D01*
X148135132Y-93595148D01*
X147984244Y-93745773D01*
X147446862Y-93745773D01*
X147174697Y-93799910D01*
X146943968Y-93954079D01*
X146817106Y-94080941D01*
X146708681Y-94243210D01*
X146609683Y-94261838D01*
X146393559Y-94400910D01*
X146248569Y-94613110D01*
X146197560Y-94865000D01*
X146197560Y-95765000D01*
X146241838Y-96000317D01*
X146380910Y-96216441D01*
X146593110Y-96361431D01*
X146845000Y-96412440D01*
X147304305Y-96412440D01*
X146997305Y-96719440D01*
X143879807Y-96719440D01*
X143256967Y-96096600D01*
X143311431Y-96016890D01*
X143362440Y-95765000D01*
X143362440Y-94865000D01*
X143318162Y-94629683D01*
X143179090Y-94413559D01*
X142966890Y-94268569D01*
X142715000Y-94217560D01*
X141765000Y-94217560D01*
X141529683Y-94261838D01*
X141313559Y-94400910D01*
X141168569Y-94613110D01*
X141117560Y-94865000D01*
X141117560Y-95765000D01*
X141161838Y-96000317D01*
X141229285Y-96105133D01*
X140711137Y-96105133D01*
X140771431Y-96016890D01*
X140822440Y-95765000D01*
X140822440Y-94865000D01*
X140778162Y-94629683D01*
X140639090Y-94413559D01*
X140426890Y-94268569D01*
X140411200Y-94265392D01*
X140411200Y-90109500D01*
X140405440Y-90080541D01*
X140383134Y-89968402D01*
X140383476Y-89575592D01*
X140229125Y-89202034D01*
X139943569Y-88915979D01*
X139570282Y-88760976D01*
X139166092Y-88760624D01*
X138792534Y-88914975D01*
X138506479Y-89200531D01*
X138351476Y-89573818D01*
X138351124Y-89978008D01*
X138505475Y-90351566D01*
X138791031Y-90637621D01*
X138988800Y-90719742D01*
X138988800Y-94262406D01*
X138773559Y-94400910D01*
X138628569Y-94613110D01*
X138577560Y-94865000D01*
X138577560Y-95765000D01*
X138621838Y-96000317D01*
X138689285Y-96105133D01*
X138171137Y-96105133D01*
X138231431Y-96016890D01*
X138282440Y-95765000D01*
X138282440Y-94865000D01*
X138238162Y-94629683D01*
X138099090Y-94413559D01*
X137886890Y-94268569D01*
X137635000Y-94217560D01*
X136685000Y-94217560D01*
X136449683Y-94261838D01*
X136233559Y-94400910D01*
X136088569Y-94613110D01*
X136037560Y-94865000D01*
X136037560Y-95765000D01*
X136081838Y-96000317D01*
X136220910Y-96216441D01*
X136433110Y-96361431D01*
X136448800Y-96364608D01*
X136448800Y-96432544D01*
X135605241Y-96432544D01*
X135458424Y-96285727D01*
X135546441Y-96229090D01*
X135691431Y-96016890D01*
X135742440Y-95765000D01*
X135742440Y-94865000D01*
X135698162Y-94629683D01*
X135559090Y-94413559D01*
X135346890Y-94268569D01*
X135095000Y-94217560D01*
X134145000Y-94217560D01*
X133909683Y-94261838D01*
X133693559Y-94400910D01*
X133548569Y-94613110D01*
X133497560Y-94865000D01*
X133497560Y-95765000D01*
X133541838Y-96000317D01*
X133680910Y-96216441D01*
X133893110Y-96361431D01*
X133908800Y-96364608D01*
X133908800Y-96453092D01*
X133962937Y-96725257D01*
X134003558Y-96786050D01*
X132967833Y-96786050D01*
X132791200Y-96609417D01*
X132791200Y-96367594D01*
X133006441Y-96229090D01*
X133151431Y-96016890D01*
X133202440Y-95765000D01*
X133202440Y-94865000D01*
X133158162Y-94629683D01*
X133019090Y-94413559D01*
X132806890Y-94268569D01*
X132555000Y-94217560D01*
X131605000Y-94217560D01*
X131369683Y-94261838D01*
X131153559Y-94400910D01*
X131008569Y-94613110D01*
X130957560Y-94865000D01*
X130957560Y-95765000D01*
X131001838Y-96000317D01*
X131140910Y-96216441D01*
X131353110Y-96361431D01*
X131368800Y-96364608D01*
X131368800Y-96904005D01*
X131410463Y-97113461D01*
X130886830Y-97113461D01*
X130251200Y-96477832D01*
X130251200Y-96367594D01*
X130466441Y-96229090D01*
X130611431Y-96016890D01*
X130662440Y-95765000D01*
X130662440Y-94865000D01*
X130618162Y-94629683D01*
X130479090Y-94413559D01*
X130266890Y-94268569D01*
X130015000Y-94217560D01*
X129065000Y-94217560D01*
X128829683Y-94261838D01*
X128613559Y-94400910D01*
X128468569Y-94613110D01*
X128417560Y-94865000D01*
X128417560Y-95765000D01*
X128461838Y-96000317D01*
X128600910Y-96216441D01*
X128813110Y-96361431D01*
X128828800Y-96364608D01*
X128828800Y-96772420D01*
X128882937Y-97044585D01*
X129037106Y-97275314D01*
X130089346Y-98327555D01*
X130148072Y-98366794D01*
X130320077Y-98481724D01*
X130592241Y-98535861D01*
X141832536Y-98535861D01*
X142464234Y-99167560D01*
X141765000Y-99167560D01*
X141529683Y-99211838D01*
X141313559Y-99350910D01*
X141168569Y-99563110D01*
X141117560Y-99815000D01*
X141117560Y-100715000D01*
X141161838Y-100950317D01*
X141300910Y-101166441D01*
X141513110Y-101311431D01*
X141528800Y-101314608D01*
X141528800Y-101624398D01*
X141225302Y-101827189D01*
X140970000Y-102209275D01*
X140714698Y-101827189D01*
X140411200Y-101624398D01*
X140411200Y-101317594D01*
X140626441Y-101179090D01*
X140771431Y-100966890D01*
X140822440Y-100715000D01*
X140822440Y-99815000D01*
X140778162Y-99579683D01*
X140639090Y-99363559D01*
X140426890Y-99218569D01*
X140175000Y-99167560D01*
X139225000Y-99167560D01*
X138989683Y-99211838D01*
X138773559Y-99350910D01*
X138628569Y-99563110D01*
X138577560Y-99815000D01*
X138577560Y-100715000D01*
X138621838Y-100950317D01*
X138760910Y-101166441D01*
X138973110Y-101311431D01*
X138988800Y-101314608D01*
X138988800Y-101624398D01*
X138685302Y-101827189D01*
X138430000Y-102209275D01*
X138174698Y-101827189D01*
X137871200Y-101624398D01*
X137871200Y-101317594D01*
X138086441Y-101179090D01*
X138231431Y-100966890D01*
X138282440Y-100715000D01*
X138282440Y-99815000D01*
X138238162Y-99579683D01*
X138099090Y-99363559D01*
X137886890Y-99218569D01*
X137635000Y-99167560D01*
X136685000Y-99167560D01*
X136449683Y-99211838D01*
X136233559Y-99350910D01*
X136088569Y-99563110D01*
X136037560Y-99815000D01*
X136037560Y-100715000D01*
X136081838Y-100950317D01*
X136220910Y-101166441D01*
X136433110Y-101311431D01*
X136448800Y-101314608D01*
X136448800Y-101624398D01*
X136145302Y-101827189D01*
X135890000Y-102209275D01*
X135634698Y-101827189D01*
X135331200Y-101624398D01*
X135331200Y-101317594D01*
X135546441Y-101179090D01*
X135691431Y-100966890D01*
X135742440Y-100715000D01*
X135742440Y-99815000D01*
X135698162Y-99579683D01*
X135559090Y-99363559D01*
X135346890Y-99218569D01*
X135095000Y-99167560D01*
X134145000Y-99167560D01*
X133909683Y-99211838D01*
X133693559Y-99350910D01*
X133548569Y-99563110D01*
X133497560Y-99815000D01*
X133497560Y-100715000D01*
X133541838Y-100950317D01*
X133680910Y-101166441D01*
X133893110Y-101311431D01*
X133908800Y-101314608D01*
X133908800Y-101624398D01*
X133605302Y-101827189D01*
X133350000Y-102209275D01*
X133094698Y-101827189D01*
X132791200Y-101624398D01*
X132791200Y-101317594D01*
X133006441Y-101179090D01*
X133151431Y-100966890D01*
X133202440Y-100715000D01*
X133202440Y-99815000D01*
X133158162Y-99579683D01*
X133019090Y-99363559D01*
X132806890Y-99218569D01*
X132555000Y-99167560D01*
X131605000Y-99167560D01*
X131369683Y-99211838D01*
X131153559Y-99350910D01*
X131008569Y-99563110D01*
X130957560Y-99815000D01*
X130957560Y-100715000D01*
X131001838Y-100950317D01*
X131140910Y-101166441D01*
X131353110Y-101311431D01*
X131368800Y-101314608D01*
X131368800Y-101624398D01*
X131065302Y-101827189D01*
X130810000Y-102209275D01*
X130554698Y-101827189D01*
X130251200Y-101624398D01*
X130251200Y-101317594D01*
X130466441Y-101179090D01*
X130611431Y-100966890D01*
X130662440Y-100715000D01*
X130662440Y-99815000D01*
X130618162Y-99579683D01*
X130479090Y-99363559D01*
X130266890Y-99218569D01*
X130015000Y-99167560D01*
X129065000Y-99167560D01*
X128829683Y-99211838D01*
X128613559Y-99350910D01*
X128468569Y-99563110D01*
X128417560Y-99815000D01*
X128417560Y-100715000D01*
X128461838Y-100950317D01*
X128600910Y-101166441D01*
X128813110Y-101311431D01*
X128828800Y-101314608D01*
X128828800Y-101624398D01*
X128550585Y-101810296D01*
X118693394Y-91953106D01*
X118462665Y-91798937D01*
X118190500Y-91744800D01*
X117234074Y-91744800D01*
X117159829Y-91565113D01*
X116717217Y-91121728D01*
X116259891Y-90931830D01*
X116714887Y-90743829D01*
X117158272Y-90301217D01*
X117398526Y-89722621D01*
X117399073Y-89096127D01*
X117159829Y-88517113D01*
X117089200Y-88446361D01*
X117089200Y-88411056D01*
X127754914Y-88411056D01*
X128027079Y-88356919D01*
X128257808Y-88202750D01*
X128518894Y-87941665D01*
X128645688Y-87751904D01*
X128673063Y-87710934D01*
X128688928Y-87631175D01*
X129030698Y-87402811D01*
X129286000Y-87020725D01*
X129502404Y-87344596D01*
X129502404Y-89577647D01*
X129556541Y-89849812D01*
X129710710Y-90080541D01*
X131065062Y-91434894D01*
X131158258Y-91497165D01*
X131295793Y-91589063D01*
X131368615Y-91603548D01*
X131408838Y-91817317D01*
X131547910Y-92033441D01*
X131760110Y-92178431D01*
X132012000Y-92229440D01*
X133512000Y-92229440D01*
X133747317Y-92185162D01*
X133963441Y-92046090D01*
X134108431Y-91833890D01*
X134115191Y-91800510D01*
X134173673Y-91941699D01*
X134352302Y-92120327D01*
X134585691Y-92217000D01*
X135176250Y-92217000D01*
X135335000Y-92058250D01*
X135335000Y-91059000D01*
X135589000Y-91059000D01*
X135589000Y-92058250D01*
X135747750Y-92217000D01*
X136338309Y-92217000D01*
X136571698Y-92120327D01*
X136750327Y-91941699D01*
X136847000Y-91708310D01*
X136847000Y-91217750D01*
X136688250Y-91059000D01*
X135589000Y-91059000D01*
X135335000Y-91059000D01*
X135315000Y-91059000D01*
X135315000Y-90805000D01*
X135335000Y-90805000D01*
X135335000Y-89027000D01*
X135589000Y-89027000D01*
X135589000Y-90805000D01*
X136688250Y-90805000D01*
X136847000Y-90646250D01*
X136847000Y-90155690D01*
X136750327Y-89922301D01*
X136744026Y-89916000D01*
X136750327Y-89909699D01*
X136847000Y-89676310D01*
X136847000Y-89185750D01*
X136688250Y-89027000D01*
X135589000Y-89027000D01*
X135335000Y-89027000D01*
X135315000Y-89027000D01*
X135315000Y-88773000D01*
X135335000Y-88773000D01*
X135335000Y-88753000D01*
X135589000Y-88753000D01*
X135589000Y-88773000D01*
X136688250Y-88773000D01*
X136847000Y-88614250D01*
X136847000Y-88123690D01*
X136750327Y-87890301D01*
X136571698Y-87711673D01*
X136338309Y-87615000D01*
X136333135Y-87615000D01*
X136650698Y-87402811D01*
X136906000Y-87020725D01*
X137161302Y-87402811D01*
X137626849Y-87713880D01*
X138176000Y-87823113D01*
X138725151Y-87713880D01*
X139190698Y-87402811D01*
X139446000Y-87020725D01*
X139701302Y-87402811D01*
X140166849Y-87713880D01*
X140716000Y-87823113D01*
X141265151Y-87713880D01*
X141730698Y-87402811D01*
X142000986Y-86998297D01*
X142103611Y-87215134D01*
X142518577Y-87591041D01*
X142906961Y-87751904D01*
X143129000Y-87629915D01*
X143129000Y-86487000D01*
X143383000Y-86487000D01*
X143383000Y-87629915D01*
X143605039Y-87751904D01*
X143993423Y-87591041D01*
X144408389Y-87215134D01*
X144647914Y-86709041D01*
X144526629Y-86487000D01*
X143383000Y-86487000D01*
X143129000Y-86487000D01*
X143109000Y-86487000D01*
X143109000Y-86233000D01*
X143129000Y-86233000D01*
X143129000Y-85090085D01*
X143383000Y-85090085D01*
X143383000Y-86233000D01*
X144526629Y-86233000D01*
X144647914Y-86010959D01*
X144408389Y-85504866D01*
X143993423Y-85128959D01*
X143605039Y-84968096D01*
X143383000Y-85090085D01*
X143129000Y-85090085D01*
X142906961Y-84968096D01*
X142518577Y-85128959D01*
X142103611Y-85504866D01*
X142000986Y-85721703D01*
X141730698Y-85317189D01*
X141265151Y-85006120D01*
X140716000Y-84896887D01*
X140334551Y-84972762D01*
X139407247Y-84045459D01*
X139176518Y-83891290D01*
X138904353Y-83837153D01*
X127093774Y-83837153D01*
X126944414Y-83687532D01*
X126571127Y-83532529D01*
X126166937Y-83532177D01*
X125852634Y-83662044D01*
X125757629Y-83566873D01*
X125384342Y-83411870D01*
X124980152Y-83411518D01*
X124606594Y-83565869D01*
X124320539Y-83851425D01*
X124200321Y-84140941D01*
X124157671Y-84112443D01*
X123885506Y-84058306D01*
X122403664Y-84058306D01*
X122131499Y-84112443D01*
X121900770Y-84266612D01*
X120877632Y-85289750D01*
X117791539Y-85289750D01*
X117323967Y-84822179D01*
X117398526Y-84642621D01*
X117399073Y-84016127D01*
X117322890Y-83831750D01*
X118628000Y-83831750D01*
X118628000Y-84422309D01*
X118724673Y-84655698D01*
X118903301Y-84834327D01*
X119136690Y-84931000D01*
X119602250Y-84931000D01*
X119761000Y-84772250D01*
X119761000Y-83673000D01*
X120015000Y-83673000D01*
X120015000Y-84772250D01*
X120173750Y-84931000D01*
X120639310Y-84931000D01*
X120872699Y-84834327D01*
X121051327Y-84655698D01*
X121148000Y-84422309D01*
X121148000Y-83831750D01*
X120989250Y-83673000D01*
X120015000Y-83673000D01*
X119761000Y-83673000D01*
X118786750Y-83673000D01*
X118628000Y-83831750D01*
X117322890Y-83831750D01*
X117159829Y-83437113D01*
X117012830Y-83289858D01*
X118615560Y-81687129D01*
X118615560Y-81796000D01*
X118659838Y-82031317D01*
X118798910Y-82247441D01*
X118867006Y-82293969D01*
X118724673Y-82436302D01*
X118628000Y-82669691D01*
X118628000Y-83260250D01*
X118786750Y-83419000D01*
X119761000Y-83419000D01*
X119761000Y-83399000D01*
X120015000Y-83399000D01*
X120015000Y-83419000D01*
X120989250Y-83419000D01*
X121148000Y-83260250D01*
X121148000Y-82669691D01*
X121051327Y-82436302D01*
X120910090Y-82295064D01*
X120964441Y-82260090D01*
X121109431Y-82047890D01*
X121160440Y-81796000D01*
X121160440Y-80296000D01*
X121116162Y-80060683D01*
X120977090Y-79844559D01*
X120765094Y-79699708D01*
X120964802Y-79500000D01*
X121732333Y-79500000D01*
X121921302Y-79782811D01*
X122386849Y-80093880D01*
X122936000Y-80203113D01*
X123485151Y-80093880D01*
X123950698Y-79782811D01*
X124206000Y-79400725D01*
X124461302Y-79782811D01*
X124926849Y-80093880D01*
X125476000Y-80203113D01*
X126025151Y-80093880D01*
X126490698Y-79782811D01*
X126746000Y-79400725D01*
X127001302Y-79782811D01*
X127466849Y-80093880D01*
X128016000Y-80203113D01*
X128565151Y-80093880D01*
X129030698Y-79782811D01*
X129286000Y-79400725D01*
X129541302Y-79782811D01*
X130006849Y-80093880D01*
X130556000Y-80203113D01*
X131105151Y-80093880D01*
X131570698Y-79782811D01*
X131826000Y-79400725D01*
X132081302Y-79782811D01*
X132546849Y-80093880D01*
X133096000Y-80203113D01*
X133645151Y-80093880D01*
X134110698Y-79782811D01*
X134366000Y-79400725D01*
X134621302Y-79782811D01*
X135086849Y-80093880D01*
X135636000Y-80203113D01*
X136185151Y-80093880D01*
X136650698Y-79782811D01*
X136906000Y-79400725D01*
X137161302Y-79782811D01*
G36*
X108525671Y-85279041D02*
X108075001Y-85729711D01*
X107920832Y-85960440D01*
X107900452Y-86062896D01*
X107866695Y-86232605D01*
X107866695Y-88123000D01*
X107647750Y-88123000D01*
X107489000Y-88281750D01*
X107489000Y-89281000D01*
X107509000Y-89281000D01*
X107509000Y-89535000D01*
X107489000Y-89535000D01*
X107489000Y-90534250D01*
X107647750Y-90693000D01*
X107866695Y-90693000D01*
X107866695Y-91263624D01*
X107920832Y-91535789D01*
X108075001Y-91766518D01*
X108372400Y-92063917D01*
X108372400Y-95656100D01*
X108426537Y-95928265D01*
X108580706Y-96158994D01*
X108853684Y-96431972D01*
X108715569Y-96634110D01*
X108712919Y-96647197D01*
X108576090Y-96434559D01*
X108363890Y-96289569D01*
X108112000Y-96238560D01*
X108067867Y-96238560D01*
X108064148Y-96219861D01*
X107899401Y-95973299D01*
X106539484Y-94613382D01*
X106539484Y-90693000D01*
X107076250Y-90693000D01*
X107235000Y-90534250D01*
X107235000Y-89535000D01*
X107215000Y-89535000D01*
X107215000Y-89281000D01*
X107235000Y-89281000D01*
X107235000Y-88281750D01*
X107076250Y-88123000D01*
X106766019Y-88123000D01*
X106766019Y-84866783D01*
X108407401Y-83225401D01*
X108500920Y-83085440D01*
X108525671Y-83085440D01*
X108525671Y-85279041D01*
X108525671Y-85279041D01*
G37*
X108525671Y-85279041D02*
X108075001Y-85729711D01*
X107920832Y-85960440D01*
X107900452Y-86062896D01*
X107866695Y-86232605D01*
X107866695Y-88123000D01*
X107647750Y-88123000D01*
X107489000Y-88281750D01*
X107489000Y-89281000D01*
X107509000Y-89281000D01*
X107509000Y-89535000D01*
X107489000Y-89535000D01*
X107489000Y-90534250D01*
X107647750Y-90693000D01*
X107866695Y-90693000D01*
X107866695Y-91263624D01*
X107920832Y-91535789D01*
X108075001Y-91766518D01*
X108372400Y-92063917D01*
X108372400Y-95656100D01*
X108426537Y-95928265D01*
X108580706Y-96158994D01*
X108853684Y-96431972D01*
X108715569Y-96634110D01*
X108712919Y-96647197D01*
X108576090Y-96434559D01*
X108363890Y-96289569D01*
X108112000Y-96238560D01*
X108067867Y-96238560D01*
X108064148Y-96219861D01*
X107899401Y-95973299D01*
X106539484Y-94613382D01*
X106539484Y-90693000D01*
X107076250Y-90693000D01*
X107235000Y-90534250D01*
X107235000Y-89535000D01*
X107215000Y-89535000D01*
X107215000Y-89281000D01*
X107235000Y-89281000D01*
X107235000Y-88281750D01*
X107076250Y-88123000D01*
X106766019Y-88123000D01*
X106766019Y-84866783D01*
X108407401Y-83225401D01*
X108500920Y-83085440D01*
X108525671Y-83085440D01*
X108525671Y-85279041D01*
G36*
X152593748Y-93965858D02*
X152579605Y-93980000D01*
X152593748Y-93994143D01*
X152414143Y-94173748D01*
X152400000Y-94159605D01*
X152385858Y-94173748D01*
X152206253Y-93994143D01*
X152220395Y-93980000D01*
X152206253Y-93965858D01*
X152385858Y-93786253D01*
X152400000Y-93800395D01*
X152414143Y-93786253D01*
X152593748Y-93965858D01*
X152593748Y-93965858D01*
G37*
X152593748Y-93965858D02*
X152579605Y-93980000D01*
X152593748Y-93994143D01*
X152414143Y-94173748D01*
X152400000Y-94159605D01*
X152385858Y-94173748D01*
X152206253Y-93994143D01*
X152220395Y-93980000D01*
X152206253Y-93965858D01*
X152385858Y-93786253D01*
X152400000Y-93800395D01*
X152414143Y-93786253D01*
X152593748Y-93965858D01*
G36*
X102565474Y-70805379D02*
X102564927Y-71431873D01*
X102804171Y-72010887D01*
X103182896Y-72390273D01*
X102805728Y-72766783D01*
X102565474Y-73345379D01*
X102564927Y-73971873D01*
X102804171Y-74550887D01*
X103182896Y-74930273D01*
X102805728Y-75306783D01*
X102565474Y-75885379D01*
X102564927Y-76511873D01*
X102804171Y-77090887D01*
X103182896Y-77470273D01*
X102805728Y-77846783D01*
X102565474Y-78425379D01*
X102564927Y-79051873D01*
X102804171Y-79630887D01*
X103182896Y-80010273D01*
X102805728Y-80386783D01*
X102565474Y-80965379D01*
X102564927Y-81591873D01*
X102804171Y-82170887D01*
X103182896Y-82550273D01*
X102805728Y-82926783D01*
X102565474Y-83505379D01*
X102564927Y-84131873D01*
X102804171Y-84710887D01*
X103182896Y-85090273D01*
X102805728Y-85466783D01*
X102565474Y-86045379D01*
X102564927Y-86671873D01*
X102804171Y-87250887D01*
X103182896Y-87630273D01*
X102805728Y-88006783D01*
X102565474Y-88585379D01*
X102564927Y-89211873D01*
X102804171Y-89790887D01*
X103194735Y-90182133D01*
X101799106Y-90182133D01*
X101526941Y-90236270D01*
X101296212Y-90390439D01*
X100469300Y-91217351D01*
X100469300Y-74358100D01*
X100415163Y-74085936D01*
X100340036Y-73973500D01*
X100260995Y-73855206D01*
X99289967Y-72884179D01*
X99364526Y-72704621D01*
X99365073Y-72078127D01*
X99263045Y-71831200D01*
X100836100Y-71831200D01*
X101108265Y-71777063D01*
X101338994Y-71622894D01*
X102536388Y-70425500D01*
X102723214Y-70425500D01*
X102565474Y-70805379D01*
X102565474Y-70805379D01*
G37*
X102565474Y-70805379D02*
X102564927Y-71431873D01*
X102804171Y-72010887D01*
X103182896Y-72390273D01*
X102805728Y-72766783D01*
X102565474Y-73345379D01*
X102564927Y-73971873D01*
X102804171Y-74550887D01*
X103182896Y-74930273D01*
X102805728Y-75306783D01*
X102565474Y-75885379D01*
X102564927Y-76511873D01*
X102804171Y-77090887D01*
X103182896Y-77470273D01*
X102805728Y-77846783D01*
X102565474Y-78425379D01*
X102564927Y-79051873D01*
X102804171Y-79630887D01*
X103182896Y-80010273D01*
X102805728Y-80386783D01*
X102565474Y-80965379D01*
X102564927Y-81591873D01*
X102804171Y-82170887D01*
X103182896Y-82550273D01*
X102805728Y-82926783D01*
X102565474Y-83505379D01*
X102564927Y-84131873D01*
X102804171Y-84710887D01*
X103182896Y-85090273D01*
X102805728Y-85466783D01*
X102565474Y-86045379D01*
X102564927Y-86671873D01*
X102804171Y-87250887D01*
X103182896Y-87630273D01*
X102805728Y-88006783D01*
X102565474Y-88585379D01*
X102564927Y-89211873D01*
X102804171Y-89790887D01*
X103194735Y-90182133D01*
X101799106Y-90182133D01*
X101526941Y-90236270D01*
X101296212Y-90390439D01*
X100469300Y-91217351D01*
X100469300Y-74358100D01*
X100415163Y-74085936D01*
X100340036Y-73973500D01*
X100260995Y-73855206D01*
X99289967Y-72884179D01*
X99364526Y-72704621D01*
X99365073Y-72078127D01*
X99263045Y-71831200D01*
X100836100Y-71831200D01*
X101108265Y-71777063D01*
X101338994Y-71622894D01*
X102536388Y-70425500D01*
X102723214Y-70425500D01*
X102565474Y-70805379D01*
G36*
X123063000Y-75057000D02*
X123083000Y-75057000D01*
X123083000Y-75311000D01*
X123063000Y-75311000D01*
X123063000Y-76565250D01*
X123221750Y-76724000D01*
X123967309Y-76724000D01*
X124200698Y-76627327D01*
X124379327Y-76448699D01*
X124433044Y-76319014D01*
X124602521Y-76488787D01*
X125168331Y-76723732D01*
X125780981Y-76724266D01*
X126347200Y-76490309D01*
X126746316Y-76091889D01*
X127142521Y-76488787D01*
X127708331Y-76723732D01*
X128320981Y-76724266D01*
X128784962Y-76532553D01*
X128790526Y-76540880D01*
X129432349Y-77182703D01*
X129663078Y-77336872D01*
X129935243Y-77391009D01*
X129999532Y-77391009D01*
X129541302Y-77697189D01*
X129286000Y-78079275D01*
X129030698Y-77697189D01*
X128565151Y-77386120D01*
X128016000Y-77276887D01*
X127466849Y-77386120D01*
X127001302Y-77697189D01*
X126746000Y-78079275D01*
X126490698Y-77697189D01*
X126025151Y-77386120D01*
X125476000Y-77276887D01*
X124926849Y-77386120D01*
X124461302Y-77697189D01*
X124206000Y-78079275D01*
X123950698Y-77697189D01*
X123485151Y-77386120D01*
X122936000Y-77276887D01*
X122386849Y-77386120D01*
X121921302Y-77697189D01*
X121732333Y-77980000D01*
X120650000Y-77980000D01*
X120359161Y-78037852D01*
X120112599Y-78202599D01*
X119477600Y-78837598D01*
X119477600Y-78659589D01*
X119569094Y-78568095D01*
X119723263Y-78337365D01*
X119738500Y-78260763D01*
X119777400Y-78065200D01*
X119777400Y-77042588D01*
X121508986Y-75311002D01*
X121554748Y-75311002D01*
X121396000Y-75469750D01*
X121396000Y-76215310D01*
X121492673Y-76448699D01*
X121671302Y-76627327D01*
X121904691Y-76724000D01*
X122650250Y-76724000D01*
X122809000Y-76565250D01*
X122809000Y-75311000D01*
X122789000Y-75311000D01*
X122789000Y-75057000D01*
X122809000Y-75057000D01*
X122809000Y-75037000D01*
X123063000Y-75037000D01*
X123063000Y-75057000D01*
X123063000Y-75057000D01*
G37*
X123063000Y-75057000D02*
X123083000Y-75057000D01*
X123083000Y-75311000D01*
X123063000Y-75311000D01*
X123063000Y-76565250D01*
X123221750Y-76724000D01*
X123967309Y-76724000D01*
X124200698Y-76627327D01*
X124379327Y-76448699D01*
X124433044Y-76319014D01*
X124602521Y-76488787D01*
X125168331Y-76723732D01*
X125780981Y-76724266D01*
X126347200Y-76490309D01*
X126746316Y-76091889D01*
X127142521Y-76488787D01*
X127708331Y-76723732D01*
X128320981Y-76724266D01*
X128784962Y-76532553D01*
X128790526Y-76540880D01*
X129432349Y-77182703D01*
X129663078Y-77336872D01*
X129935243Y-77391009D01*
X129999532Y-77391009D01*
X129541302Y-77697189D01*
X129286000Y-78079275D01*
X129030698Y-77697189D01*
X128565151Y-77386120D01*
X128016000Y-77276887D01*
X127466849Y-77386120D01*
X127001302Y-77697189D01*
X126746000Y-78079275D01*
X126490698Y-77697189D01*
X126025151Y-77386120D01*
X125476000Y-77276887D01*
X124926849Y-77386120D01*
X124461302Y-77697189D01*
X124206000Y-78079275D01*
X123950698Y-77697189D01*
X123485151Y-77386120D01*
X122936000Y-77276887D01*
X122386849Y-77386120D01*
X121921302Y-77697189D01*
X121732333Y-77980000D01*
X120650000Y-77980000D01*
X120359161Y-78037852D01*
X120112599Y-78202599D01*
X119477600Y-78837598D01*
X119477600Y-78659589D01*
X119569094Y-78568095D01*
X119723263Y-78337365D01*
X119738500Y-78260763D01*
X119777400Y-78065200D01*
X119777400Y-77042588D01*
X121508986Y-75311002D01*
X121554748Y-75311002D01*
X121396000Y-75469750D01*
X121396000Y-76215310D01*
X121492673Y-76448699D01*
X121671302Y-76627327D01*
X121904691Y-76724000D01*
X122650250Y-76724000D01*
X122809000Y-76565250D01*
X122809000Y-75311000D01*
X122789000Y-75311000D01*
X122789000Y-75057000D01*
X122809000Y-75057000D01*
X122809000Y-75037000D01*
X123063000Y-75037000D01*
X123063000Y-75057000D01*
G36*
X142850406Y-65116194D02*
X143081135Y-65270363D01*
X143126290Y-65279345D01*
X143353300Y-65324500D01*
X151003000Y-65324500D01*
X151003000Y-69850000D01*
X151011685Y-69896159D01*
X151038965Y-69938553D01*
X151080590Y-69966994D01*
X151130000Y-69977000D01*
X151315947Y-69977000D01*
X151065728Y-70226783D01*
X150882708Y-70667543D01*
X150857982Y-70657276D01*
X150453792Y-70656924D01*
X150080234Y-70811275D01*
X149794179Y-71096831D01*
X149639176Y-71470118D01*
X149638824Y-71874308D01*
X149793175Y-72247866D01*
X150078731Y-72533921D01*
X150452018Y-72688924D01*
X150665221Y-72689110D01*
X150869006Y-72892895D01*
X150982009Y-72968401D01*
X150825474Y-73345379D01*
X150824927Y-73971873D01*
X150926955Y-74218800D01*
X145594789Y-74218800D01*
X144868394Y-73492406D01*
X144637665Y-73338237D01*
X144365500Y-73284100D01*
X141904700Y-73284100D01*
X141632536Y-73338237D01*
X141401806Y-73492405D01*
X141183553Y-73710658D01*
X141023669Y-73644268D01*
X140411019Y-73643734D01*
X139844800Y-73877691D01*
X139445684Y-74276111D01*
X139049479Y-73879213D01*
X138483669Y-73644268D01*
X137871019Y-73643734D01*
X137304800Y-73877691D01*
X136905684Y-74276111D01*
X136509479Y-73879213D01*
X135943669Y-73644268D01*
X135331019Y-73643734D01*
X134764800Y-73877691D01*
X134365684Y-74276111D01*
X133969479Y-73879213D01*
X133403669Y-73644268D01*
X132791019Y-73643734D01*
X132477700Y-73773195D01*
X132477700Y-69149619D01*
X145084613Y-69149619D01*
X145424155Y-69971372D01*
X146052321Y-70600636D01*
X146873481Y-70941611D01*
X147762619Y-70942387D01*
X148584372Y-70602845D01*
X149213636Y-69974679D01*
X149554611Y-69153519D01*
X149555387Y-68264381D01*
X149215845Y-67442628D01*
X148587679Y-66813364D01*
X148266680Y-66680074D01*
X148171803Y-66585197D01*
X148131410Y-66558006D01*
X148082000Y-66548000D01*
X147948611Y-66548000D01*
X147766519Y-66472389D01*
X146877381Y-66471613D01*
X146692511Y-66548000D01*
X146558000Y-66548000D01*
X146510211Y-66557334D01*
X146468197Y-66585197D01*
X146373638Y-66679756D01*
X146055628Y-66811155D01*
X145426364Y-67439321D01*
X145085389Y-68260481D01*
X145084613Y-69149619D01*
X132477700Y-69149619D01*
X132477700Y-68300300D01*
X132423563Y-68028136D01*
X132423563Y-68028135D01*
X132269394Y-67797406D01*
X130177794Y-65705806D01*
X129947065Y-65551637D01*
X129674900Y-65497500D01*
X124314508Y-65497500D01*
X125288309Y-64523700D01*
X136731100Y-64523700D01*
X137003265Y-64469563D01*
X137233994Y-64315394D01*
X137402788Y-64146600D01*
X139764600Y-64146600D01*
X140036765Y-64092463D01*
X140267494Y-63938294D01*
X140475821Y-63729967D01*
X140655379Y-63804526D01*
X141281873Y-63805073D01*
X141464022Y-63729810D01*
X142850406Y-65116194D01*
X142850406Y-65116194D01*
G37*
X142850406Y-65116194D02*
X143081135Y-65270363D01*
X143126290Y-65279345D01*
X143353300Y-65324500D01*
X151003000Y-65324500D01*
X151003000Y-69850000D01*
X151011685Y-69896159D01*
X151038965Y-69938553D01*
X151080590Y-69966994D01*
X151130000Y-69977000D01*
X151315947Y-69977000D01*
X151065728Y-70226783D01*
X150882708Y-70667543D01*
X150857982Y-70657276D01*
X150453792Y-70656924D01*
X150080234Y-70811275D01*
X149794179Y-71096831D01*
X149639176Y-71470118D01*
X149638824Y-71874308D01*
X149793175Y-72247866D01*
X150078731Y-72533921D01*
X150452018Y-72688924D01*
X150665221Y-72689110D01*
X150869006Y-72892895D01*
X150982009Y-72968401D01*
X150825474Y-73345379D01*
X150824927Y-73971873D01*
X150926955Y-74218800D01*
X145594789Y-74218800D01*
X144868394Y-73492406D01*
X144637665Y-73338237D01*
X144365500Y-73284100D01*
X141904700Y-73284100D01*
X141632536Y-73338237D01*
X141401806Y-73492405D01*
X141183553Y-73710658D01*
X141023669Y-73644268D01*
X140411019Y-73643734D01*
X139844800Y-73877691D01*
X139445684Y-74276111D01*
X139049479Y-73879213D01*
X138483669Y-73644268D01*
X137871019Y-73643734D01*
X137304800Y-73877691D01*
X136905684Y-74276111D01*
X136509479Y-73879213D01*
X135943669Y-73644268D01*
X135331019Y-73643734D01*
X134764800Y-73877691D01*
X134365684Y-74276111D01*
X133969479Y-73879213D01*
X133403669Y-73644268D01*
X132791019Y-73643734D01*
X132477700Y-73773195D01*
X132477700Y-69149619D01*
X145084613Y-69149619D01*
X145424155Y-69971372D01*
X146052321Y-70600636D01*
X146873481Y-70941611D01*
X147762619Y-70942387D01*
X148584372Y-70602845D01*
X149213636Y-69974679D01*
X149554611Y-69153519D01*
X149555387Y-68264381D01*
X149215845Y-67442628D01*
X148587679Y-66813364D01*
X148266680Y-66680074D01*
X148171803Y-66585197D01*
X148131410Y-66558006D01*
X148082000Y-66548000D01*
X147948611Y-66548000D01*
X147766519Y-66472389D01*
X146877381Y-66471613D01*
X146692511Y-66548000D01*
X146558000Y-66548000D01*
X146510211Y-66557334D01*
X146468197Y-66585197D01*
X146373638Y-66679756D01*
X146055628Y-66811155D01*
X145426364Y-67439321D01*
X145085389Y-68260481D01*
X145084613Y-69149619D01*
X132477700Y-69149619D01*
X132477700Y-68300300D01*
X132423563Y-68028136D01*
X132423563Y-68028135D01*
X132269394Y-67797406D01*
X130177794Y-65705806D01*
X129947065Y-65551637D01*
X129674900Y-65497500D01*
X124314508Y-65497500D01*
X125288309Y-64523700D01*
X136731100Y-64523700D01*
X137003265Y-64469563D01*
X137233994Y-64315394D01*
X137402788Y-64146600D01*
X139764600Y-64146600D01*
X140036765Y-64092463D01*
X140267494Y-63938294D01*
X140475821Y-63729967D01*
X140655379Y-63804526D01*
X141281873Y-63805073D01*
X141464022Y-63729810D01*
X142850406Y-65116194D01*
G36*
X128695043Y-72314572D02*
X129273639Y-72554826D01*
X129873961Y-72555350D01*
X128790526Y-73638786D01*
X128686261Y-73794829D01*
X128323669Y-73644268D01*
X127711019Y-73643734D01*
X127144800Y-73877691D01*
X126745684Y-74276111D01*
X126349479Y-73879213D01*
X125783669Y-73644268D01*
X125171019Y-73643734D01*
X124604800Y-73877691D01*
X124433091Y-74049100D01*
X124379327Y-73919301D01*
X124200698Y-73740673D01*
X123967309Y-73644000D01*
X123221750Y-73644000D01*
X123063002Y-73802748D01*
X123063002Y-73756986D01*
X123779388Y-73040600D01*
X127462400Y-73040600D01*
X127734565Y-72986463D01*
X127965294Y-72832294D01*
X128589122Y-72208466D01*
X128695043Y-72314572D01*
X128695043Y-72314572D01*
G37*
X128695043Y-72314572D02*
X129273639Y-72554826D01*
X129873961Y-72555350D01*
X128790526Y-73638786D01*
X128686261Y-73794829D01*
X128323669Y-73644268D01*
X127711019Y-73643734D01*
X127144800Y-73877691D01*
X126745684Y-74276111D01*
X126349479Y-73879213D01*
X125783669Y-73644268D01*
X125171019Y-73643734D01*
X124604800Y-73877691D01*
X124433091Y-74049100D01*
X124379327Y-73919301D01*
X124200698Y-73740673D01*
X123967309Y-73644000D01*
X123221750Y-73644000D01*
X123063002Y-73802748D01*
X123063002Y-73756986D01*
X123779388Y-73040600D01*
X127462400Y-73040600D01*
X127734565Y-72986463D01*
X127965294Y-72832294D01*
X128589122Y-72208466D01*
X128695043Y-72314572D01*
G36*
X128658897Y-67331332D02*
X129588260Y-68260695D01*
X129602403Y-68246553D01*
X129782008Y-68426158D01*
X129767865Y-68440300D01*
X129782008Y-68454443D01*
X129602403Y-68634048D01*
X129588260Y-68619905D01*
X129574118Y-68634048D01*
X129394513Y-68454443D01*
X129408655Y-68440300D01*
X128479292Y-67510937D01*
X128382178Y-67544954D01*
X128085442Y-67247700D01*
X128688191Y-67247700D01*
X128658897Y-67331332D01*
X128658897Y-67331332D01*
G37*
X128658897Y-67331332D02*
X129588260Y-68260695D01*
X129602403Y-68246553D01*
X129782008Y-68426158D01*
X129767865Y-68440300D01*
X129782008Y-68454443D01*
X129602403Y-68634048D01*
X129588260Y-68619905D01*
X129574118Y-68634048D01*
X129394513Y-68454443D01*
X129408655Y-68440300D01*
X128479292Y-67510937D01*
X128382178Y-67544954D01*
X128085442Y-67247700D01*
X128688191Y-67247700D01*
X128658897Y-67331332D01*
G36*
X111694171Y-52960887D02*
X112136783Y-53404272D01*
X112715379Y-53644526D01*
X113341873Y-53645073D01*
X113524022Y-53569810D01*
X122687106Y-62732894D01*
X122917835Y-62887063D01*
X123190000Y-62941200D01*
X124319926Y-62941200D01*
X124342228Y-62995174D01*
X122591487Y-64745916D01*
X108957984Y-64745916D01*
X108730974Y-64791071D01*
X108685819Y-64800053D01*
X108455090Y-64954222D01*
X107552800Y-65856512D01*
X107552800Y-56799188D01*
X111605559Y-52746430D01*
X111694171Y-52960887D01*
X111694171Y-52960887D01*
G37*
X111694171Y-52960887D02*
X112136783Y-53404272D01*
X112715379Y-53644526D01*
X113341873Y-53645073D01*
X113524022Y-53569810D01*
X122687106Y-62732894D01*
X122917835Y-62887063D01*
X123190000Y-62941200D01*
X124319926Y-62941200D01*
X124342228Y-62995174D01*
X122591487Y-64745916D01*
X108957984Y-64745916D01*
X108730974Y-64791071D01*
X108685819Y-64800053D01*
X108455090Y-64954222D01*
X107552800Y-65856512D01*
X107552800Y-56799188D01*
X111605559Y-52746430D01*
X111694171Y-52960887D01*
G36*
X119756783Y-53404272D02*
X120335379Y-53644526D01*
X120961873Y-53645073D01*
X121144022Y-53569810D01*
X121778345Y-54204133D01*
X121778164Y-54411660D01*
X121932515Y-54785218D01*
X122218071Y-55071273D01*
X122591358Y-55226276D01*
X122995548Y-55226628D01*
X123369106Y-55072277D01*
X123519994Y-54921652D01*
X128976646Y-54921652D01*
X131800928Y-57745934D01*
X130256932Y-57745934D01*
X129984767Y-57800071D01*
X129754038Y-57954239D01*
X129257801Y-58450477D01*
X129163217Y-58355728D01*
X128584621Y-58115474D01*
X127958127Y-58114927D01*
X127379113Y-58354171D01*
X126999727Y-58732896D01*
X126623217Y-58355728D01*
X126044621Y-58115474D01*
X125418127Y-58114927D01*
X124839113Y-58354171D01*
X124395728Y-58796783D01*
X124155474Y-59375379D01*
X124154927Y-60001873D01*
X124256955Y-60248800D01*
X123013479Y-60248800D01*
X118821200Y-56056522D01*
X118821200Y-53480074D01*
X119000887Y-53405829D01*
X119380273Y-53027104D01*
X119756783Y-53404272D01*
X119756783Y-53404272D01*
G37*
X119756783Y-53404272D02*
X120335379Y-53644526D01*
X120961873Y-53645073D01*
X121144022Y-53569810D01*
X121778345Y-54204133D01*
X121778164Y-54411660D01*
X121932515Y-54785218D01*
X122218071Y-55071273D01*
X122591358Y-55226276D01*
X122995548Y-55226628D01*
X123369106Y-55072277D01*
X123519994Y-54921652D01*
X128976646Y-54921652D01*
X131800928Y-57745934D01*
X130256932Y-57745934D01*
X129984767Y-57800071D01*
X129754038Y-57954239D01*
X129257801Y-58450477D01*
X129163217Y-58355728D01*
X128584621Y-58115474D01*
X127958127Y-58114927D01*
X127379113Y-58354171D01*
X126999727Y-58732896D01*
X126623217Y-58355728D01*
X126044621Y-58115474D01*
X125418127Y-58114927D01*
X124839113Y-58354171D01*
X124395728Y-58796783D01*
X124155474Y-59375379D01*
X124154927Y-60001873D01*
X124256955Y-60248800D01*
X123013479Y-60248800D01*
X118821200Y-56056522D01*
X118821200Y-53480074D01*
X119000887Y-53405829D01*
X119380273Y-53027104D01*
X119756783Y-53404272D01*
G36*
X140250052Y-58283540D02*
X140079113Y-58354171D01*
X139699727Y-58732896D01*
X139323217Y-58355728D01*
X138744621Y-58115474D01*
X138118127Y-58114927D01*
X137545896Y-58351368D01*
X136956893Y-57762365D01*
X136726164Y-57608196D01*
X136453999Y-57554059D01*
X135556547Y-57554059D01*
X131493859Y-53491371D01*
X131700887Y-53405829D01*
X132144272Y-52963217D01*
X132219852Y-52781200D01*
X134747712Y-52781200D01*
X140250052Y-58283540D01*
X140250052Y-58283540D01*
G37*
X140250052Y-58283540D02*
X140079113Y-58354171D01*
X139699727Y-58732896D01*
X139323217Y-58355728D01*
X138744621Y-58115474D01*
X138118127Y-58114927D01*
X137545896Y-58351368D01*
X136956893Y-57762365D01*
X136726164Y-57608196D01*
X136453999Y-57554059D01*
X135556547Y-57554059D01*
X131493859Y-53491371D01*
X131700887Y-53405829D01*
X132144272Y-52963217D01*
X132219852Y-52781200D01*
X134747712Y-52781200D01*
X140250052Y-58283540D01*
M02*
