G04 #@! TF.FileFunction,Legend,Top*
%FSLAX46Y46*%
G04 Gerber Fmt 4.6, Leading zero omitted, Abs format (unit mm)*
G04 Created by KiCad (PCBNEW 4.0.7) date 04/09/18 16:02:50*
%MOMM*%
%LPD*%
G01*
G04 APERTURE LIST*
%ADD10C,0.100000*%
%ADD11C,0.200000*%
%ADD12C,0.152400*%
%ADD13C,0.120000*%
%ADD14C,0.203200*%
%ADD15C,0.254000*%
%ADD16C,0.150000*%
%ADD17C,0.010000*%
G04 APERTURE END LIST*
D10*
D11*
X124714000Y-88392000D02*
X119126000Y-88392000D01*
X124714000Y-99568000D02*
X124714000Y-88392000D01*
X119126000Y-99568000D02*
X124714000Y-99568000D01*
X119126000Y-88392000D02*
X119126000Y-99568000D01*
X118872000Y-88646000D02*
X118872000Y-89725500D01*
D12*
X119655772Y-89547095D02*
X119655772Y-88734295D01*
X120042820Y-89547095D02*
X120042820Y-88734295D01*
X120507277Y-89547095D01*
X120507277Y-88734295D01*
X120778211Y-88734295D02*
X121242668Y-88734295D01*
X121010439Y-89547095D02*
X121010439Y-88734295D01*
X121978058Y-89547095D02*
X121707125Y-89160048D01*
X121513601Y-89547095D02*
X121513601Y-88734295D01*
X121823239Y-88734295D01*
X121900648Y-88773000D01*
X121939353Y-88811705D01*
X121978058Y-88889114D01*
X121978058Y-89005229D01*
X121939353Y-89082638D01*
X121900648Y-89121343D01*
X121823239Y-89160048D01*
X121513601Y-89160048D01*
X122790858Y-89547095D02*
X122519925Y-89160048D01*
X122326401Y-89547095D02*
X122326401Y-88734295D01*
X122636039Y-88734295D01*
X122713448Y-88773000D01*
X122752153Y-88811705D01*
X122790858Y-88889114D01*
X122790858Y-89005229D01*
X122752153Y-89082638D01*
X122713448Y-89121343D01*
X122636039Y-89160048D01*
X122326401Y-89160048D01*
X123139201Y-89547095D02*
X123139201Y-88734295D01*
X123448839Y-88734295D01*
X123526248Y-88773000D01*
X123564953Y-88811705D01*
X123603658Y-88889114D01*
X123603658Y-89005229D01*
X123564953Y-89082638D01*
X123526248Y-89121343D01*
X123448839Y-89160048D01*
X123139201Y-89160048D01*
X123835887Y-88734295D02*
X124300344Y-88734295D01*
X124068115Y-89547095D02*
X124068115Y-88734295D01*
X119984762Y-90879990D02*
X120100876Y-90918695D01*
X120294400Y-90918695D01*
X120371810Y-90879990D01*
X120410514Y-90841286D01*
X120449219Y-90763876D01*
X120449219Y-90686467D01*
X120410514Y-90609057D01*
X120371810Y-90570352D01*
X120294400Y-90531648D01*
X120139581Y-90492943D01*
X120062172Y-90454238D01*
X120023467Y-90415533D01*
X119984762Y-90338124D01*
X119984762Y-90260714D01*
X120023467Y-90183305D01*
X120062172Y-90144600D01*
X120139581Y-90105895D01*
X120333105Y-90105895D01*
X120449219Y-90144600D01*
X120797562Y-90918695D02*
X120797562Y-90105895D01*
X121107200Y-90105895D01*
X121184609Y-90144600D01*
X121223314Y-90183305D01*
X121262019Y-90260714D01*
X121262019Y-90376829D01*
X121223314Y-90454238D01*
X121184609Y-90492943D01*
X121107200Y-90531648D01*
X120797562Y-90531648D01*
X121610362Y-90918695D02*
X121610362Y-90105895D01*
X121803886Y-90996105D02*
X122423162Y-90996105D01*
X123081143Y-90841286D02*
X123042438Y-90879990D01*
X122926324Y-90918695D01*
X122848914Y-90918695D01*
X122732800Y-90879990D01*
X122655391Y-90802581D01*
X122616686Y-90725171D01*
X122577981Y-90570352D01*
X122577981Y-90454238D01*
X122616686Y-90299419D01*
X122655391Y-90222010D01*
X122732800Y-90144600D01*
X122848914Y-90105895D01*
X122926324Y-90105895D01*
X123042438Y-90144600D01*
X123081143Y-90183305D01*
X123390781Y-90879990D02*
X123506895Y-90918695D01*
X123700419Y-90918695D01*
X123777829Y-90879990D01*
X123816533Y-90841286D01*
X123855238Y-90763876D01*
X123855238Y-90686467D01*
X123816533Y-90609057D01*
X123777829Y-90570352D01*
X123700419Y-90531648D01*
X123545600Y-90492943D01*
X123468191Y-90454238D01*
X123429486Y-90415533D01*
X123390781Y-90338124D01*
X123390781Y-90260714D01*
X123429486Y-90183305D01*
X123468191Y-90144600D01*
X123545600Y-90105895D01*
X123739124Y-90105895D01*
X123855238Y-90144600D01*
X122423162Y-89965784D02*
X124010057Y-89965784D01*
X119694477Y-92290295D02*
X119694477Y-91477495D01*
X120042820Y-91554905D02*
X120081525Y-91516200D01*
X120158934Y-91477495D01*
X120352458Y-91477495D01*
X120429868Y-91516200D01*
X120468572Y-91554905D01*
X120507277Y-91632314D01*
X120507277Y-91709724D01*
X120468572Y-91825838D01*
X120004115Y-92290295D01*
X120507277Y-92290295D01*
X121320077Y-92212886D02*
X121281372Y-92251590D01*
X121165258Y-92290295D01*
X121087848Y-92290295D01*
X120971734Y-92251590D01*
X120894325Y-92174181D01*
X120855620Y-92096771D01*
X120816915Y-91941952D01*
X120816915Y-91825838D01*
X120855620Y-91671019D01*
X120894325Y-91593610D01*
X120971734Y-91516200D01*
X121087848Y-91477495D01*
X121165258Y-91477495D01*
X121281372Y-91516200D01*
X121320077Y-91554905D01*
X121474896Y-92367705D02*
X122094172Y-92367705D01*
X122248991Y-92251590D02*
X122365105Y-92290295D01*
X122558629Y-92290295D01*
X122636039Y-92251590D01*
X122674743Y-92212886D01*
X122713448Y-92135476D01*
X122713448Y-92058067D01*
X122674743Y-91980657D01*
X122636039Y-91941952D01*
X122558629Y-91903248D01*
X122403810Y-91864543D01*
X122326401Y-91825838D01*
X122287696Y-91787133D01*
X122248991Y-91709724D01*
X122248991Y-91632314D01*
X122287696Y-91554905D01*
X122326401Y-91516200D01*
X122403810Y-91477495D01*
X122597334Y-91477495D01*
X122713448Y-91516200D01*
X123526248Y-92212886D02*
X123487543Y-92251590D01*
X123371429Y-92290295D01*
X123294019Y-92290295D01*
X123177905Y-92251590D01*
X123100496Y-92174181D01*
X123061791Y-92096771D01*
X123023086Y-91941952D01*
X123023086Y-91825838D01*
X123061791Y-91671019D01*
X123100496Y-91593610D01*
X123177905Y-91516200D01*
X123294019Y-91477495D01*
X123371429Y-91477495D01*
X123487543Y-91516200D01*
X123526248Y-91554905D01*
X124261638Y-92290295D02*
X123874591Y-92290295D01*
X123874591Y-91477495D01*
X119578362Y-93623190D02*
X119694476Y-93661895D01*
X119888000Y-93661895D01*
X119965410Y-93623190D01*
X120004114Y-93584486D01*
X120042819Y-93507076D01*
X120042819Y-93429667D01*
X120004114Y-93352257D01*
X119965410Y-93313552D01*
X119888000Y-93274848D01*
X119733181Y-93236143D01*
X119655772Y-93197438D01*
X119617067Y-93158733D01*
X119578362Y-93081324D01*
X119578362Y-93003914D01*
X119617067Y-92926505D01*
X119655772Y-92887800D01*
X119733181Y-92849095D01*
X119926705Y-92849095D01*
X120042819Y-92887800D01*
X120391162Y-93661895D02*
X120391162Y-92849095D01*
X120700800Y-92849095D01*
X120778209Y-92887800D01*
X120816914Y-92926505D01*
X120855619Y-93003914D01*
X120855619Y-93120029D01*
X120816914Y-93197438D01*
X120778209Y-93236143D01*
X120700800Y-93274848D01*
X120391162Y-93274848D01*
X121203962Y-93661895D02*
X121203962Y-92849095D01*
X121397486Y-93739305D02*
X122016762Y-93739305D01*
X122171581Y-93623190D02*
X122287695Y-93661895D01*
X122481219Y-93661895D01*
X122558629Y-93623190D01*
X122597333Y-93584486D01*
X122636038Y-93507076D01*
X122636038Y-93429667D01*
X122597333Y-93352257D01*
X122558629Y-93313552D01*
X122481219Y-93274848D01*
X122326400Y-93236143D01*
X122248991Y-93197438D01*
X122210286Y-93158733D01*
X122171581Y-93081324D01*
X122171581Y-93003914D01*
X122210286Y-92926505D01*
X122248991Y-92887800D01*
X122326400Y-92849095D01*
X122519924Y-92849095D01*
X122636038Y-92887800D01*
X123448838Y-93584486D02*
X123410133Y-93623190D01*
X123294019Y-93661895D01*
X123216609Y-93661895D01*
X123100495Y-93623190D01*
X123023086Y-93545781D01*
X122984381Y-93468371D01*
X122945676Y-93313552D01*
X122945676Y-93197438D01*
X122984381Y-93042619D01*
X123023086Y-92965210D01*
X123100495Y-92887800D01*
X123216609Y-92849095D01*
X123294019Y-92849095D01*
X123410133Y-92887800D01*
X123448838Y-92926505D01*
X123797181Y-93661895D02*
X123797181Y-92849095D01*
X124261638Y-93661895D02*
X123913295Y-93197438D01*
X124261638Y-92849095D02*
X123797181Y-93313552D01*
X119675124Y-95033495D02*
X119675124Y-94220695D01*
X120023467Y-94298105D02*
X120062172Y-94259400D01*
X120139581Y-94220695D01*
X120333105Y-94220695D01*
X120410515Y-94259400D01*
X120449219Y-94298105D01*
X120487924Y-94375514D01*
X120487924Y-94452924D01*
X120449219Y-94569038D01*
X119984762Y-95033495D01*
X120487924Y-95033495D01*
X121300724Y-94956086D02*
X121262019Y-94994790D01*
X121145905Y-95033495D01*
X121068495Y-95033495D01*
X120952381Y-94994790D01*
X120874972Y-94917381D01*
X120836267Y-94839971D01*
X120797562Y-94685152D01*
X120797562Y-94569038D01*
X120836267Y-94414219D01*
X120874972Y-94336810D01*
X120952381Y-94259400D01*
X121068495Y-94220695D01*
X121145905Y-94220695D01*
X121262019Y-94259400D01*
X121300724Y-94298105D01*
X121455543Y-95110905D02*
X122074819Y-95110905D01*
X122229638Y-94994790D02*
X122345752Y-95033495D01*
X122539276Y-95033495D01*
X122616686Y-94994790D01*
X122655390Y-94956086D01*
X122694095Y-94878676D01*
X122694095Y-94801267D01*
X122655390Y-94723857D01*
X122616686Y-94685152D01*
X122539276Y-94646448D01*
X122384457Y-94607743D01*
X122307048Y-94569038D01*
X122268343Y-94530333D01*
X122229638Y-94452924D01*
X122229638Y-94375514D01*
X122268343Y-94298105D01*
X122307048Y-94259400D01*
X122384457Y-94220695D01*
X122577981Y-94220695D01*
X122694095Y-94259400D01*
X123042438Y-95033495D02*
X123042438Y-94220695D01*
X123235962Y-94220695D01*
X123352076Y-94259400D01*
X123429485Y-94336810D01*
X123468190Y-94414219D01*
X123506895Y-94569038D01*
X123506895Y-94685152D01*
X123468190Y-94839971D01*
X123429485Y-94917381D01*
X123352076Y-94994790D01*
X123235962Y-95033495D01*
X123042438Y-95033495D01*
X123816533Y-94801267D02*
X124203581Y-94801267D01*
X123739124Y-95033495D02*
X124010057Y-94220695D01*
X124280990Y-95033495D01*
X120197638Y-96366390D02*
X120313752Y-96405095D01*
X120507276Y-96405095D01*
X120584686Y-96366390D01*
X120623390Y-96327686D01*
X120662095Y-96250276D01*
X120662095Y-96172867D01*
X120623390Y-96095457D01*
X120584686Y-96056752D01*
X120507276Y-96018048D01*
X120352457Y-95979343D01*
X120275048Y-95940638D01*
X120236343Y-95901933D01*
X120197638Y-95824524D01*
X120197638Y-95747114D01*
X120236343Y-95669705D01*
X120275048Y-95631000D01*
X120352457Y-95592295D01*
X120545981Y-95592295D01*
X120662095Y-95631000D01*
X121010438Y-96405095D02*
X121010438Y-95592295D01*
X121320076Y-95592295D01*
X121397485Y-95631000D01*
X121436190Y-95669705D01*
X121474895Y-95747114D01*
X121474895Y-95863229D01*
X121436190Y-95940638D01*
X121397485Y-95979343D01*
X121320076Y-96018048D01*
X121010438Y-96018048D01*
X121823238Y-96405095D02*
X121823238Y-95592295D01*
X122016762Y-96482505D02*
X122636038Y-96482505D01*
X122790857Y-96366390D02*
X122906971Y-96405095D01*
X123100495Y-96405095D01*
X123177905Y-96366390D01*
X123216609Y-96327686D01*
X123255314Y-96250276D01*
X123255314Y-96172867D01*
X123216609Y-96095457D01*
X123177905Y-96056752D01*
X123100495Y-96018048D01*
X122945676Y-95979343D01*
X122868267Y-95940638D01*
X122829562Y-95901933D01*
X122790857Y-95824524D01*
X122790857Y-95747114D01*
X122829562Y-95669705D01*
X122868267Y-95631000D01*
X122945676Y-95592295D01*
X123139200Y-95592295D01*
X123255314Y-95631000D01*
X123603657Y-96405095D02*
X123603657Y-95592295D01*
X119965410Y-97737990D02*
X120081524Y-97776695D01*
X120275048Y-97776695D01*
X120352458Y-97737990D01*
X120391162Y-97699286D01*
X120429867Y-97621876D01*
X120429867Y-97544467D01*
X120391162Y-97467057D01*
X120352458Y-97428352D01*
X120275048Y-97389648D01*
X120120229Y-97350943D01*
X120042820Y-97312238D01*
X120004115Y-97273533D01*
X119965410Y-97196124D01*
X119965410Y-97118714D01*
X120004115Y-97041305D01*
X120042820Y-97002600D01*
X120120229Y-96963895D01*
X120313753Y-96963895D01*
X120429867Y-97002600D01*
X120778210Y-97776695D02*
X120778210Y-96963895D01*
X121087848Y-96963895D01*
X121165257Y-97002600D01*
X121203962Y-97041305D01*
X121242667Y-97118714D01*
X121242667Y-97234829D01*
X121203962Y-97312238D01*
X121165257Y-97350943D01*
X121087848Y-97389648D01*
X120778210Y-97389648D01*
X121591010Y-97776695D02*
X121591010Y-96963895D01*
X121784534Y-97854105D02*
X122403810Y-97854105D01*
X122558629Y-97737990D02*
X122674743Y-97776695D01*
X122868267Y-97776695D01*
X122945677Y-97737990D01*
X122984381Y-97699286D01*
X123023086Y-97621876D01*
X123023086Y-97544467D01*
X122984381Y-97467057D01*
X122945677Y-97428352D01*
X122868267Y-97389648D01*
X122713448Y-97350943D01*
X122636039Y-97312238D01*
X122597334Y-97273533D01*
X122558629Y-97196124D01*
X122558629Y-97118714D01*
X122597334Y-97041305D01*
X122636039Y-97002600D01*
X122713448Y-96963895D01*
X122906972Y-96963895D01*
X123023086Y-97002600D01*
X123526248Y-96963895D02*
X123681067Y-96963895D01*
X123758476Y-97002600D01*
X123835886Y-97080010D01*
X123874591Y-97234829D01*
X123874591Y-97505762D01*
X123835886Y-97660581D01*
X123758476Y-97737990D01*
X123681067Y-97776695D01*
X123526248Y-97776695D01*
X123448838Y-97737990D01*
X123371429Y-97660581D01*
X123332724Y-97505762D01*
X123332724Y-97234829D01*
X123371429Y-97080010D01*
X123448838Y-97002600D01*
X123526248Y-96963895D01*
X120081524Y-99148295D02*
X120081524Y-98335495D01*
X120429867Y-98412905D02*
X120468572Y-98374200D01*
X120545981Y-98335495D01*
X120739505Y-98335495D01*
X120816915Y-98374200D01*
X120855619Y-98412905D01*
X120894324Y-98490314D01*
X120894324Y-98567724D01*
X120855619Y-98683838D01*
X120391162Y-99148295D01*
X120894324Y-99148295D01*
X121707124Y-99070886D02*
X121668419Y-99109590D01*
X121552305Y-99148295D01*
X121474895Y-99148295D01*
X121358781Y-99109590D01*
X121281372Y-99032181D01*
X121242667Y-98954771D01*
X121203962Y-98799952D01*
X121203962Y-98683838D01*
X121242667Y-98529019D01*
X121281372Y-98451610D01*
X121358781Y-98374200D01*
X121474895Y-98335495D01*
X121552305Y-98335495D01*
X121668419Y-98374200D01*
X121707124Y-98412905D01*
X121861943Y-99225705D02*
X122481219Y-99225705D01*
X122636038Y-98916067D02*
X123023086Y-98916067D01*
X122558629Y-99148295D02*
X122829562Y-98335495D01*
X123100495Y-99148295D01*
X123332724Y-98412905D02*
X123371429Y-98374200D01*
X123448838Y-98335495D01*
X123642362Y-98335495D01*
X123719772Y-98374200D01*
X123758476Y-98412905D01*
X123797181Y-98490314D01*
X123797181Y-98567724D01*
X123758476Y-98683838D01*
X123294019Y-99148295D01*
X123797181Y-99148295D01*
D10*
X146620000Y-96265000D02*
X146645000Y-96240000D01*
X146645000Y-96240000D02*
X146770000Y-96240000D01*
X146370000Y-96540000D02*
X146620000Y-96265000D01*
X146770000Y-96240000D02*
X146770000Y-95015000D01*
X148295000Y-96590000D02*
X148295000Y-96240000D01*
X148295000Y-96240000D02*
X147970000Y-96240000D01*
X146595000Y-99340000D02*
X146345000Y-99340000D01*
X146345000Y-99340000D02*
X146345000Y-99090000D01*
X148295000Y-99040000D02*
X148295000Y-99340000D01*
X148295000Y-99340000D02*
X148070000Y-99340000D01*
X144080000Y-96265000D02*
X144105000Y-96240000D01*
X144105000Y-96240000D02*
X144230000Y-96240000D01*
X143830000Y-96540000D02*
X144080000Y-96265000D01*
X144230000Y-96240000D02*
X144230000Y-95015000D01*
X145755000Y-96590000D02*
X145755000Y-96240000D01*
X145755000Y-96240000D02*
X145430000Y-96240000D01*
X144055000Y-99340000D02*
X143805000Y-99340000D01*
X143805000Y-99340000D02*
X143805000Y-99090000D01*
X145755000Y-99040000D02*
X145755000Y-99340000D01*
X145755000Y-99340000D02*
X145530000Y-99340000D01*
X141540000Y-96265000D02*
X141565000Y-96240000D01*
X141565000Y-96240000D02*
X141690000Y-96240000D01*
X141290000Y-96540000D02*
X141540000Y-96265000D01*
X141690000Y-96240000D02*
X141690000Y-95015000D01*
X143215000Y-96590000D02*
X143215000Y-96240000D01*
X143215000Y-96240000D02*
X142890000Y-96240000D01*
X141515000Y-99340000D02*
X141265000Y-99340000D01*
X141265000Y-99340000D02*
X141265000Y-99090000D01*
X143215000Y-99040000D02*
X143215000Y-99340000D01*
X143215000Y-99340000D02*
X142990000Y-99340000D01*
X139000000Y-96265000D02*
X139025000Y-96240000D01*
X139025000Y-96240000D02*
X139150000Y-96240000D01*
X138750000Y-96540000D02*
X139000000Y-96265000D01*
X139150000Y-96240000D02*
X139150000Y-95015000D01*
X140675000Y-96590000D02*
X140675000Y-96240000D01*
X140675000Y-96240000D02*
X140350000Y-96240000D01*
X138975000Y-99340000D02*
X138725000Y-99340000D01*
X138725000Y-99340000D02*
X138725000Y-99090000D01*
X140675000Y-99040000D02*
X140675000Y-99340000D01*
X140675000Y-99340000D02*
X140450000Y-99340000D01*
X136460000Y-96265000D02*
X136485000Y-96240000D01*
X136485000Y-96240000D02*
X136610000Y-96240000D01*
X136210000Y-96540000D02*
X136460000Y-96265000D01*
X136610000Y-96240000D02*
X136610000Y-95015000D01*
X138135000Y-96590000D02*
X138135000Y-96240000D01*
X138135000Y-96240000D02*
X137810000Y-96240000D01*
X136435000Y-99340000D02*
X136185000Y-99340000D01*
X136185000Y-99340000D02*
X136185000Y-99090000D01*
X138135000Y-99040000D02*
X138135000Y-99340000D01*
X138135000Y-99340000D02*
X137910000Y-99340000D01*
X133920000Y-96265000D02*
X133945000Y-96240000D01*
X133945000Y-96240000D02*
X134070000Y-96240000D01*
X133670000Y-96540000D02*
X133920000Y-96265000D01*
X134070000Y-96240000D02*
X134070000Y-95015000D01*
X135595000Y-96590000D02*
X135595000Y-96240000D01*
X135595000Y-96240000D02*
X135270000Y-96240000D01*
X133895000Y-99340000D02*
X133645000Y-99340000D01*
X133645000Y-99340000D02*
X133645000Y-99090000D01*
X135595000Y-99040000D02*
X135595000Y-99340000D01*
X135595000Y-99340000D02*
X135370000Y-99340000D01*
X131380000Y-96265000D02*
X131405000Y-96240000D01*
X131405000Y-96240000D02*
X131530000Y-96240000D01*
X131130000Y-96540000D02*
X131380000Y-96265000D01*
X131530000Y-96240000D02*
X131530000Y-95015000D01*
X133055000Y-96590000D02*
X133055000Y-96240000D01*
X133055000Y-96240000D02*
X132730000Y-96240000D01*
X131355000Y-99340000D02*
X131105000Y-99340000D01*
X131105000Y-99340000D02*
X131105000Y-99090000D01*
X133055000Y-99040000D02*
X133055000Y-99340000D01*
X133055000Y-99340000D02*
X132830000Y-99340000D01*
X128840000Y-96265000D02*
X128865000Y-96240000D01*
X128865000Y-96240000D02*
X128990000Y-96240000D01*
X128590000Y-96540000D02*
X128840000Y-96265000D01*
X128990000Y-96240000D02*
X128990000Y-95015000D01*
X130515000Y-96590000D02*
X130515000Y-96240000D01*
X130515000Y-96240000D02*
X130190000Y-96240000D01*
X128815000Y-99340000D02*
X128565000Y-99340000D01*
X128565000Y-99340000D02*
X128565000Y-99090000D01*
X130515000Y-99040000D02*
X130515000Y-99340000D01*
X130515000Y-99340000D02*
X130290000Y-99340000D01*
D13*
X125670000Y-105680000D02*
G75*
G02X125670000Y-107680000I0J-1000000D01*
G01*
X125670000Y-107680000D02*
X125670000Y-109330000D01*
X125670000Y-109330000D02*
X148650000Y-109330000D01*
X148650000Y-109330000D02*
X148650000Y-104030000D01*
X148650000Y-104030000D02*
X125670000Y-104030000D01*
X125670000Y-104030000D02*
X125670000Y-105680000D01*
X125610000Y-111820000D02*
X148710000Y-111820000D01*
X148710000Y-111820000D02*
X148710000Y-101540000D01*
X148710000Y-101540000D02*
X125610000Y-101540000D01*
X125610000Y-101540000D02*
X125610000Y-111820000D01*
X121606000Y-81550000D02*
G75*
G02X121606000Y-83550000I0J-1000000D01*
G01*
X121606000Y-83550000D02*
X121606000Y-85200000D01*
X121606000Y-85200000D02*
X144586000Y-85200000D01*
X144586000Y-85200000D02*
X144586000Y-79900000D01*
X144586000Y-79900000D02*
X121606000Y-79900000D01*
X121606000Y-79900000D02*
X121606000Y-81550000D01*
X121546000Y-87690000D02*
X144646000Y-87690000D01*
X144646000Y-87690000D02*
X144646000Y-77410000D01*
X144646000Y-77410000D02*
X121546000Y-77410000D01*
X121546000Y-77410000D02*
X121546000Y-87690000D01*
D14*
X125095000Y-72771000D02*
X123825000Y-72771000D01*
D15*
X123190000Y-71628000D02*
X123190000Y-67818000D01*
X130302000Y-72263000D02*
X123825000Y-72263000D01*
X123825000Y-72263000D02*
X123190000Y-71628000D01*
X123190000Y-67818000D02*
X123825000Y-67183000D01*
X123825000Y-67183000D02*
X130302000Y-67183000D01*
X130302000Y-67183000D02*
X130937000Y-67818000D01*
X130937000Y-67818000D02*
X130937000Y-71628000D01*
X130937000Y-71628000D02*
X130302000Y-72263000D01*
D13*
X123356000Y-105926000D02*
X123356000Y-106926000D01*
X125056000Y-106926000D02*
X125056000Y-105926000D01*
X119038000Y-81796000D02*
X119038000Y-82796000D01*
X120738000Y-82796000D02*
X120738000Y-81796000D01*
X108112000Y-101736000D02*
X109312000Y-101736000D01*
X109312000Y-103496000D02*
X108112000Y-103496000D01*
X108112000Y-96656000D02*
X109312000Y-96656000D01*
X109312000Y-98416000D02*
X108112000Y-98416000D01*
X108620000Y-80908000D02*
X109820000Y-80908000D01*
X109820000Y-82668000D02*
X108620000Y-82668000D01*
X108620000Y-75828000D02*
X109820000Y-75828000D01*
X109820000Y-77588000D02*
X108620000Y-77588000D01*
X134712000Y-89780000D02*
X133512000Y-89780000D01*
X133512000Y-88020000D02*
X134712000Y-88020000D01*
X134712000Y-91812000D02*
X133512000Y-91812000D01*
X133512000Y-90052000D02*
X134712000Y-90052000D01*
X108112000Y-88528000D02*
X109312000Y-88528000D01*
X109312000Y-90288000D02*
X108112000Y-90288000D01*
X120996000Y-110100000D02*
X119796000Y-110100000D01*
X119796000Y-108340000D02*
X120996000Y-108340000D01*
X120996000Y-112132000D02*
X119796000Y-112132000D01*
X119796000Y-110372000D02*
X120996000Y-110372000D01*
X108112000Y-109356000D02*
X109312000Y-109356000D01*
X109312000Y-111116000D02*
X108112000Y-111116000D01*
D16*
X155470000Y-95540000D02*
X157520000Y-95540000D01*
X157520000Y-95540000D02*
X157520000Y-100040000D01*
X157520000Y-100040000D02*
X155470000Y-100040000D01*
X164570000Y-113030000D02*
X155470000Y-113030000D01*
X155470000Y-82550000D02*
X155470000Y-113030000D01*
X164570000Y-82550000D02*
X164570000Y-113030000D01*
X155470000Y-82550000D02*
X164570000Y-82550000D01*
X155470000Y-63790000D02*
X157520000Y-63790000D01*
X157520000Y-63790000D02*
X157520000Y-68290000D01*
X157520000Y-68290000D02*
X155470000Y-68290000D01*
X164570000Y-81280000D02*
X155470000Y-81280000D01*
X155470000Y-50800000D02*
X155470000Y-81280000D01*
X164570000Y-50800000D02*
X164570000Y-81280000D01*
X155470000Y-50800000D02*
X164570000Y-50800000D01*
X165630000Y-95540000D02*
X167680000Y-95540000D01*
X167680000Y-95540000D02*
X167680000Y-100040000D01*
X167680000Y-100040000D02*
X165630000Y-100040000D01*
X174730000Y-113030000D02*
X165630000Y-113030000D01*
X165630000Y-82550000D02*
X165630000Y-113030000D01*
X174730000Y-82550000D02*
X174730000Y-113030000D01*
X165630000Y-82550000D02*
X174730000Y-82550000D01*
X165630000Y-63790000D02*
X167680000Y-63790000D01*
X167680000Y-63790000D02*
X167680000Y-68290000D01*
X167680000Y-68290000D02*
X165630000Y-68290000D01*
X174730000Y-81280000D02*
X165630000Y-81280000D01*
X165630000Y-50800000D02*
X165630000Y-81280000D01*
X174730000Y-50800000D02*
X174730000Y-81280000D01*
X165630000Y-50800000D02*
X174730000Y-50800000D01*
X101070000Y-110200000D02*
X99020000Y-110200000D01*
X99020000Y-110200000D02*
X99020000Y-105700000D01*
X99020000Y-105700000D02*
X101070000Y-105700000D01*
X91970000Y-92710000D02*
X101070000Y-92710000D01*
X101070000Y-123190000D02*
X101070000Y-92710000D01*
X91970000Y-123190000D02*
X91970000Y-92710000D01*
X101070000Y-123190000D02*
X91970000Y-123190000D01*
X101070000Y-78450000D02*
X99020000Y-78450000D01*
X99020000Y-78450000D02*
X99020000Y-73950000D01*
X99020000Y-73950000D02*
X101070000Y-73950000D01*
X91970000Y-60960000D02*
X101070000Y-60960000D01*
X101070000Y-91440000D02*
X101070000Y-60960000D01*
X91970000Y-91440000D02*
X91970000Y-60960000D01*
X101070000Y-91440000D02*
X91970000Y-91440000D01*
X132370000Y-65510000D02*
X132370000Y-63460000D01*
X132370000Y-63460000D02*
X136870000Y-63460000D01*
X136870000Y-63460000D02*
X136870000Y-65510000D01*
X149860000Y-56410000D02*
X149860000Y-65510000D01*
X119380000Y-65510000D02*
X149860000Y-65510000D01*
X119380000Y-56410000D02*
X149860000Y-56410000D01*
X119380000Y-65510000D02*
X119380000Y-56410000D01*
X119670000Y-55350000D02*
X119670000Y-53300000D01*
X119670000Y-53300000D02*
X124170000Y-53300000D01*
X124170000Y-53300000D02*
X124170000Y-55350000D01*
X137160000Y-46250000D02*
X137160000Y-55350000D01*
X106680000Y-55350000D02*
X137160000Y-55350000D01*
X106680000Y-46250000D02*
X137160000Y-46250000D01*
X106680000Y-55350000D02*
X106680000Y-46250000D01*
D14*
X112014000Y-72263000D02*
X112649000Y-72898000D01*
X112649000Y-72898000D02*
X112014000Y-73533000D01*
X112014000Y-74803000D02*
X112649000Y-75438000D01*
X112649000Y-75438000D02*
X112014000Y-76073000D01*
X112014000Y-77343000D02*
X112649000Y-77978000D01*
X112649000Y-77978000D02*
X112014000Y-78613000D01*
X112014000Y-79883000D02*
X112649000Y-80518000D01*
X112649000Y-80518000D02*
X112014000Y-81153000D01*
X112014000Y-82423000D02*
X112649000Y-83058000D01*
X112649000Y-83058000D02*
X112014000Y-83693000D01*
X112014000Y-84963000D02*
X112649000Y-85598000D01*
X117094000Y-70993000D02*
X117094000Y-72263000D01*
X117094000Y-72263000D02*
X116459000Y-72898000D01*
X116459000Y-72898000D02*
X117094000Y-73533000D01*
X117094000Y-73533000D02*
X117094000Y-74803000D01*
X117094000Y-74803000D02*
X116459000Y-75438000D01*
X116459000Y-75438000D02*
X117094000Y-76073000D01*
X117094000Y-76073000D02*
X117094000Y-77343000D01*
X117094000Y-77343000D02*
X116459000Y-77978000D01*
X116459000Y-77978000D02*
X117094000Y-78613000D01*
X117094000Y-78613000D02*
X117094000Y-79883000D01*
X117094000Y-79883000D02*
X116459000Y-80518000D01*
X116459000Y-80518000D02*
X117094000Y-81153000D01*
X117094000Y-81153000D02*
X117094000Y-82423000D01*
X117094000Y-82423000D02*
X116459000Y-83058000D01*
X116459000Y-83058000D02*
X117094000Y-83693000D01*
X117094000Y-83693000D02*
X117094000Y-84963000D01*
X117094000Y-84963000D02*
X116459000Y-85598000D01*
X116459000Y-85598000D02*
X117094000Y-86233000D01*
X117094000Y-86233000D02*
X117094000Y-87503000D01*
X117094000Y-87503000D02*
X116459000Y-88138000D01*
X116459000Y-88138000D02*
X117094000Y-88773000D01*
X117094000Y-88773000D02*
X117094000Y-90043000D01*
X117094000Y-90043000D02*
X116459000Y-90678000D01*
X112649000Y-90678000D02*
X112014000Y-90043000D01*
X112649000Y-88138000D02*
X112014000Y-88773000D01*
X112649000Y-88138000D02*
X112014000Y-87503000D01*
X112649000Y-85598000D02*
X112014000Y-86233000D01*
X116459000Y-72898000D02*
X112649000Y-72898000D01*
X116459000Y-75438000D02*
X112649000Y-75438000D01*
X116459000Y-77978000D02*
X112649000Y-77978000D01*
X116459000Y-80518000D02*
X112649000Y-80518000D01*
X116459000Y-83058000D02*
X112649000Y-83058000D01*
X116459000Y-85598000D02*
X112649000Y-85598000D01*
X116459000Y-88138000D02*
X112649000Y-88138000D01*
X116459000Y-90678000D02*
X112649000Y-90678000D01*
X112014000Y-88773000D02*
X112014000Y-90043000D01*
X112014000Y-86233000D02*
X112014000Y-87503000D01*
X112014000Y-83693000D02*
X112014000Y-84963000D01*
X112014000Y-81153000D02*
X112014000Y-82423000D01*
X112014000Y-78613000D02*
X112014000Y-79883000D01*
X112014000Y-76073000D02*
X112014000Y-77343000D01*
X112014000Y-73533000D02*
X112014000Y-74803000D01*
X112014000Y-70993000D02*
X112014000Y-72263000D01*
X112649000Y-70358000D02*
X112014000Y-70993000D01*
X112649000Y-70358000D02*
X116459000Y-70358000D01*
X116459000Y-70358000D02*
X117094000Y-70993000D01*
X111633000Y-70866000D02*
X111633000Y-72263000D01*
X111633000Y-72263000D02*
X111633000Y-70866000D01*
X112014000Y-93091000D02*
X112649000Y-93726000D01*
X112649000Y-93726000D02*
X112014000Y-94361000D01*
X112014000Y-95631000D02*
X112649000Y-96266000D01*
X112649000Y-96266000D02*
X112014000Y-96901000D01*
X112014000Y-98171000D02*
X112649000Y-98806000D01*
X112649000Y-98806000D02*
X112014000Y-99441000D01*
X112014000Y-100711000D02*
X112649000Y-101346000D01*
X112649000Y-101346000D02*
X112014000Y-101981000D01*
X112014000Y-103251000D02*
X112649000Y-103886000D01*
X112649000Y-103886000D02*
X112014000Y-104521000D01*
X112014000Y-105791000D02*
X112649000Y-106426000D01*
X117094000Y-91821000D02*
X117094000Y-93091000D01*
X117094000Y-93091000D02*
X116459000Y-93726000D01*
X116459000Y-93726000D02*
X117094000Y-94361000D01*
X117094000Y-94361000D02*
X117094000Y-95631000D01*
X117094000Y-95631000D02*
X116459000Y-96266000D01*
X116459000Y-96266000D02*
X117094000Y-96901000D01*
X117094000Y-96901000D02*
X117094000Y-98171000D01*
X117094000Y-98171000D02*
X116459000Y-98806000D01*
X116459000Y-98806000D02*
X117094000Y-99441000D01*
X117094000Y-99441000D02*
X117094000Y-100711000D01*
X117094000Y-100711000D02*
X116459000Y-101346000D01*
X116459000Y-101346000D02*
X117094000Y-101981000D01*
X117094000Y-101981000D02*
X117094000Y-103251000D01*
X117094000Y-103251000D02*
X116459000Y-103886000D01*
X116459000Y-103886000D02*
X117094000Y-104521000D01*
X117094000Y-104521000D02*
X117094000Y-105791000D01*
X117094000Y-105791000D02*
X116459000Y-106426000D01*
X116459000Y-106426000D02*
X117094000Y-107061000D01*
X117094000Y-107061000D02*
X117094000Y-108331000D01*
X117094000Y-108331000D02*
X116459000Y-108966000D01*
X116459000Y-108966000D02*
X117094000Y-109601000D01*
X117094000Y-109601000D02*
X117094000Y-110871000D01*
X117094000Y-110871000D02*
X116459000Y-111506000D01*
X112649000Y-111506000D02*
X112014000Y-110871000D01*
X112649000Y-108966000D02*
X112014000Y-109601000D01*
X112649000Y-108966000D02*
X112014000Y-108331000D01*
X112649000Y-106426000D02*
X112014000Y-107061000D01*
X116459000Y-93726000D02*
X112649000Y-93726000D01*
X116459000Y-96266000D02*
X112649000Y-96266000D01*
X116459000Y-98806000D02*
X112649000Y-98806000D01*
X116459000Y-101346000D02*
X112649000Y-101346000D01*
X116459000Y-103886000D02*
X112649000Y-103886000D01*
X116459000Y-106426000D02*
X112649000Y-106426000D01*
X116459000Y-108966000D02*
X112649000Y-108966000D01*
X116459000Y-111506000D02*
X112649000Y-111506000D01*
X112014000Y-109601000D02*
X112014000Y-110871000D01*
X112014000Y-107061000D02*
X112014000Y-108331000D01*
X112014000Y-104521000D02*
X112014000Y-105791000D01*
X112014000Y-101981000D02*
X112014000Y-103251000D01*
X112014000Y-99441000D02*
X112014000Y-100711000D01*
X112014000Y-96901000D02*
X112014000Y-98171000D01*
X112014000Y-94361000D02*
X112014000Y-95631000D01*
X112014000Y-91821000D02*
X112014000Y-93091000D01*
X112649000Y-91186000D02*
X112014000Y-91821000D01*
X112649000Y-91186000D02*
X116459000Y-91186000D01*
X116459000Y-91186000D02*
X117094000Y-91821000D01*
X111633000Y-91694000D02*
X111633000Y-93091000D01*
X111633000Y-93091000D02*
X111633000Y-91694000D01*
D17*
G36*
X110613241Y-64461184D02*
X110639753Y-64474282D01*
X110672447Y-64497106D01*
X110696275Y-64521996D01*
X110712594Y-64553249D01*
X110722760Y-64595166D01*
X110728128Y-64652044D01*
X110730056Y-64728184D01*
X110730169Y-64760917D01*
X110729839Y-64832656D01*
X110728473Y-64883927D01*
X110725500Y-64919404D01*
X110720351Y-64943763D01*
X110712457Y-64961680D01*
X110704243Y-64973902D01*
X110651813Y-65025905D01*
X110590070Y-65057184D01*
X110523464Y-65066592D01*
X110456442Y-65052980D01*
X110435208Y-65043354D01*
X110384376Y-65016859D01*
X110384376Y-65432052D01*
X110421475Y-65412868D01*
X110470357Y-65398025D01*
X110530439Y-65394222D01*
X110590436Y-65401243D01*
X110635744Y-65417013D01*
X110673325Y-65447047D01*
X110705436Y-65490024D01*
X110707850Y-65494436D01*
X110718033Y-65515221D01*
X110725470Y-65536170D01*
X110730589Y-65561548D01*
X110733819Y-65595618D01*
X110735587Y-65642641D01*
X110736323Y-65706882D01*
X110736456Y-65779176D01*
X110736456Y-66009822D01*
X110598139Y-66009822D01*
X110598139Y-65584533D01*
X110559451Y-65551979D01*
X110519262Y-65525940D01*
X110481203Y-65521205D01*
X110442934Y-65533389D01*
X110422538Y-65545320D01*
X110407358Y-65562313D01*
X110396562Y-65587995D01*
X110389317Y-65625991D01*
X110384792Y-65679926D01*
X110382156Y-65753425D01*
X110381228Y-65802347D01*
X110378089Y-66003535D01*
X110312074Y-66007336D01*
X110246060Y-66011136D01*
X110246060Y-64762650D01*
X110384376Y-64762650D01*
X110387903Y-64832254D01*
X110399785Y-64880569D01*
X110421980Y-64910631D01*
X110456441Y-64925471D01*
X110491258Y-64928436D01*
X110530671Y-64925028D01*
X110556829Y-64911617D01*
X110573186Y-64893896D01*
X110586063Y-64874835D01*
X110593728Y-64853601D01*
X110597139Y-64823849D01*
X110597251Y-64779236D01*
X110596103Y-64741880D01*
X110593468Y-64685604D01*
X110589544Y-64648658D01*
X110582937Y-64625223D01*
X110572251Y-64609480D01*
X110562167Y-64600380D01*
X110520030Y-64580537D01*
X110470160Y-64577332D01*
X110441524Y-64584168D01*
X110413172Y-64608464D01*
X110394391Y-64655728D01*
X110385288Y-64725624D01*
X110384376Y-64762650D01*
X110246060Y-64762650D01*
X110246060Y-64450614D01*
X110315218Y-64450614D01*
X110356740Y-64452256D01*
X110378162Y-64458087D01*
X110384374Y-64469461D01*
X110384376Y-64469798D01*
X110387258Y-64480938D01*
X110399970Y-64479673D01*
X110425243Y-64467433D01*
X110484131Y-64448707D01*
X110550385Y-64446739D01*
X110613241Y-64461184D01*
X110613241Y-64461184D01*
G37*
X110613241Y-64461184D02*
X110639753Y-64474282D01*
X110672447Y-64497106D01*
X110696275Y-64521996D01*
X110712594Y-64553249D01*
X110722760Y-64595166D01*
X110728128Y-64652044D01*
X110730056Y-64728184D01*
X110730169Y-64760917D01*
X110729839Y-64832656D01*
X110728473Y-64883927D01*
X110725500Y-64919404D01*
X110720351Y-64943763D01*
X110712457Y-64961680D01*
X110704243Y-64973902D01*
X110651813Y-65025905D01*
X110590070Y-65057184D01*
X110523464Y-65066592D01*
X110456442Y-65052980D01*
X110435208Y-65043354D01*
X110384376Y-65016859D01*
X110384376Y-65432052D01*
X110421475Y-65412868D01*
X110470357Y-65398025D01*
X110530439Y-65394222D01*
X110590436Y-65401243D01*
X110635744Y-65417013D01*
X110673325Y-65447047D01*
X110705436Y-65490024D01*
X110707850Y-65494436D01*
X110718033Y-65515221D01*
X110725470Y-65536170D01*
X110730589Y-65561548D01*
X110733819Y-65595618D01*
X110735587Y-65642641D01*
X110736323Y-65706882D01*
X110736456Y-65779176D01*
X110736456Y-66009822D01*
X110598139Y-66009822D01*
X110598139Y-65584533D01*
X110559451Y-65551979D01*
X110519262Y-65525940D01*
X110481203Y-65521205D01*
X110442934Y-65533389D01*
X110422538Y-65545320D01*
X110407358Y-65562313D01*
X110396562Y-65587995D01*
X110389317Y-65625991D01*
X110384792Y-65679926D01*
X110382156Y-65753425D01*
X110381228Y-65802347D01*
X110378089Y-66003535D01*
X110312074Y-66007336D01*
X110246060Y-66011136D01*
X110246060Y-64762650D01*
X110384376Y-64762650D01*
X110387903Y-64832254D01*
X110399785Y-64880569D01*
X110421980Y-64910631D01*
X110456441Y-64925471D01*
X110491258Y-64928436D01*
X110530671Y-64925028D01*
X110556829Y-64911617D01*
X110573186Y-64893896D01*
X110586063Y-64874835D01*
X110593728Y-64853601D01*
X110597139Y-64823849D01*
X110597251Y-64779236D01*
X110596103Y-64741880D01*
X110593468Y-64685604D01*
X110589544Y-64648658D01*
X110582937Y-64625223D01*
X110572251Y-64609480D01*
X110562167Y-64600380D01*
X110520030Y-64580537D01*
X110470160Y-64577332D01*
X110441524Y-64584168D01*
X110413172Y-64608464D01*
X110394391Y-64655728D01*
X110385288Y-64725624D01*
X110384376Y-64762650D01*
X110246060Y-64762650D01*
X110246060Y-64450614D01*
X110315218Y-64450614D01*
X110356740Y-64452256D01*
X110378162Y-64458087D01*
X110384374Y-64469461D01*
X110384376Y-64469798D01*
X110387258Y-64480938D01*
X110399970Y-64479673D01*
X110425243Y-64467433D01*
X110484131Y-64448707D01*
X110550385Y-64446739D01*
X110613241Y-64461184D01*
G36*
X111137790Y-65398555D02*
X111196945Y-65414339D01*
X111241977Y-65442948D01*
X111273754Y-65480419D01*
X111283634Y-65496411D01*
X111290927Y-65513163D01*
X111296026Y-65534592D01*
X111299321Y-65564616D01*
X111301203Y-65607154D01*
X111302063Y-65666122D01*
X111302293Y-65745440D01*
X111302297Y-65766484D01*
X111302297Y-66009822D01*
X111241941Y-66009822D01*
X111203443Y-66007126D01*
X111174977Y-66000295D01*
X111167845Y-65996083D01*
X111148348Y-65988813D01*
X111128434Y-65996083D01*
X111095647Y-66005160D01*
X111048022Y-66008813D01*
X110995236Y-66007228D01*
X110946964Y-66000589D01*
X110918782Y-65992072D01*
X110864247Y-65957063D01*
X110830165Y-65908479D01*
X110814843Y-65843882D01*
X110814701Y-65842223D01*
X110816045Y-65813566D01*
X110937644Y-65813566D01*
X110948274Y-65846161D01*
X110965590Y-65864505D01*
X111000348Y-65878379D01*
X111046227Y-65883917D01*
X111093012Y-65881191D01*
X111130486Y-65870274D01*
X111140985Y-65863269D01*
X111159332Y-65830904D01*
X111163980Y-65794111D01*
X111163980Y-65745763D01*
X111094418Y-65745763D01*
X111028333Y-65750850D01*
X110978236Y-65765263D01*
X110947071Y-65787729D01*
X110937644Y-65813566D01*
X110816045Y-65813566D01*
X110818013Y-65771647D01*
X110841290Y-65715845D01*
X110885052Y-65673647D01*
X110891101Y-65669808D01*
X110917093Y-65657309D01*
X110949265Y-65649740D01*
X110994240Y-65646061D01*
X111047669Y-65645216D01*
X111163980Y-65645169D01*
X111163980Y-65596411D01*
X111159047Y-65558581D01*
X111146457Y-65533236D01*
X111144983Y-65531887D01*
X111116966Y-65520800D01*
X111074674Y-65516503D01*
X111027936Y-65518615D01*
X110986582Y-65526756D01*
X110962043Y-65538965D01*
X110948747Y-65548746D01*
X110934706Y-65550613D01*
X110915329Y-65542600D01*
X110886024Y-65522739D01*
X110842197Y-65489063D01*
X110838175Y-65485909D01*
X110840236Y-65474236D01*
X110857432Y-65454822D01*
X110883567Y-65433248D01*
X110912448Y-65415096D01*
X110921522Y-65410809D01*
X110954620Y-65402256D01*
X111003120Y-65396155D01*
X111057305Y-65393708D01*
X111059839Y-65393703D01*
X111137790Y-65398555D01*
X111137790Y-65398555D01*
G37*
X111137790Y-65398555D02*
X111196945Y-65414339D01*
X111241977Y-65442948D01*
X111273754Y-65480419D01*
X111283634Y-65496411D01*
X111290927Y-65513163D01*
X111296026Y-65534592D01*
X111299321Y-65564616D01*
X111301203Y-65607154D01*
X111302063Y-65666122D01*
X111302293Y-65745440D01*
X111302297Y-65766484D01*
X111302297Y-66009822D01*
X111241941Y-66009822D01*
X111203443Y-66007126D01*
X111174977Y-66000295D01*
X111167845Y-65996083D01*
X111148348Y-65988813D01*
X111128434Y-65996083D01*
X111095647Y-66005160D01*
X111048022Y-66008813D01*
X110995236Y-66007228D01*
X110946964Y-66000589D01*
X110918782Y-65992072D01*
X110864247Y-65957063D01*
X110830165Y-65908479D01*
X110814843Y-65843882D01*
X110814701Y-65842223D01*
X110816045Y-65813566D01*
X110937644Y-65813566D01*
X110948274Y-65846161D01*
X110965590Y-65864505D01*
X111000348Y-65878379D01*
X111046227Y-65883917D01*
X111093012Y-65881191D01*
X111130486Y-65870274D01*
X111140985Y-65863269D01*
X111159332Y-65830904D01*
X111163980Y-65794111D01*
X111163980Y-65745763D01*
X111094418Y-65745763D01*
X111028333Y-65750850D01*
X110978236Y-65765263D01*
X110947071Y-65787729D01*
X110937644Y-65813566D01*
X110816045Y-65813566D01*
X110818013Y-65771647D01*
X110841290Y-65715845D01*
X110885052Y-65673647D01*
X110891101Y-65669808D01*
X110917093Y-65657309D01*
X110949265Y-65649740D01*
X110994240Y-65646061D01*
X111047669Y-65645216D01*
X111163980Y-65645169D01*
X111163980Y-65596411D01*
X111159047Y-65558581D01*
X111146457Y-65533236D01*
X111144983Y-65531887D01*
X111116966Y-65520800D01*
X111074674Y-65516503D01*
X111027936Y-65518615D01*
X110986582Y-65526756D01*
X110962043Y-65538965D01*
X110948747Y-65548746D01*
X110934706Y-65550613D01*
X110915329Y-65542600D01*
X110886024Y-65522739D01*
X110842197Y-65489063D01*
X110838175Y-65485909D01*
X110840236Y-65474236D01*
X110857432Y-65454822D01*
X110883567Y-65433248D01*
X110912448Y-65415096D01*
X110921522Y-65410809D01*
X110954620Y-65402256D01*
X111003120Y-65396155D01*
X111057305Y-65393708D01*
X111059839Y-65393703D01*
X111137790Y-65398555D01*
G36*
X111528644Y-65395020D02*
X111547461Y-65400660D01*
X111553527Y-65413053D01*
X111553782Y-65418647D01*
X111554871Y-65434230D01*
X111562368Y-65436676D01*
X111582619Y-65425993D01*
X111594649Y-65418694D01*
X111632600Y-65403063D01*
X111677928Y-65395334D01*
X111725456Y-65394740D01*
X111770005Y-65400513D01*
X111806398Y-65411884D01*
X111829457Y-65428088D01*
X111834004Y-65448355D01*
X111831709Y-65453843D01*
X111814980Y-65476626D01*
X111789037Y-65504647D01*
X111784345Y-65509177D01*
X111759617Y-65530005D01*
X111738282Y-65536735D01*
X111708445Y-65532038D01*
X111696492Y-65528917D01*
X111659295Y-65521421D01*
X111633141Y-65524792D01*
X111611054Y-65536681D01*
X111590822Y-65552635D01*
X111575921Y-65572700D01*
X111565566Y-65600702D01*
X111558971Y-65640467D01*
X111555351Y-65695823D01*
X111553922Y-65770594D01*
X111553782Y-65815740D01*
X111553782Y-66009822D01*
X111428040Y-66009822D01*
X111428040Y-65393683D01*
X111490911Y-65393683D01*
X111528644Y-65395020D01*
X111528644Y-65395020D01*
G37*
X111528644Y-65395020D02*
X111547461Y-65400660D01*
X111553527Y-65413053D01*
X111553782Y-65418647D01*
X111554871Y-65434230D01*
X111562368Y-65436676D01*
X111582619Y-65425993D01*
X111594649Y-65418694D01*
X111632600Y-65403063D01*
X111677928Y-65395334D01*
X111725456Y-65394740D01*
X111770005Y-65400513D01*
X111806398Y-65411884D01*
X111829457Y-65428088D01*
X111834004Y-65448355D01*
X111831709Y-65453843D01*
X111814980Y-65476626D01*
X111789037Y-65504647D01*
X111784345Y-65509177D01*
X111759617Y-65530005D01*
X111738282Y-65536735D01*
X111708445Y-65532038D01*
X111696492Y-65528917D01*
X111659295Y-65521421D01*
X111633141Y-65524792D01*
X111611054Y-65536681D01*
X111590822Y-65552635D01*
X111575921Y-65572700D01*
X111565566Y-65600702D01*
X111558971Y-65640467D01*
X111555351Y-65695823D01*
X111553922Y-65770594D01*
X111553782Y-65815740D01*
X111553782Y-66009822D01*
X111428040Y-66009822D01*
X111428040Y-65393683D01*
X111490911Y-65393683D01*
X111528644Y-65395020D01*
G36*
X112320812Y-66009822D02*
X112251654Y-66009822D01*
X112211512Y-66008645D01*
X112190606Y-66003772D01*
X112183078Y-65993186D01*
X112182495Y-65986029D01*
X112181226Y-65971676D01*
X112173221Y-65968923D01*
X112152185Y-65977771D01*
X112135827Y-65986029D01*
X112073023Y-66005597D01*
X112004752Y-66006729D01*
X111949248Y-65992135D01*
X111897562Y-65956877D01*
X111858162Y-65904835D01*
X111836587Y-65843450D01*
X111836038Y-65840018D01*
X111832833Y-65802571D01*
X111831239Y-65748813D01*
X111831367Y-65708155D01*
X111968721Y-65708155D01*
X111971903Y-65762194D01*
X111979141Y-65806735D01*
X111988940Y-65831888D01*
X112026011Y-65866260D01*
X112070026Y-65878582D01*
X112115416Y-65868618D01*
X112154203Y-65838895D01*
X112168892Y-65818905D01*
X112177481Y-65795050D01*
X112181504Y-65760230D01*
X112182495Y-65707930D01*
X112180722Y-65656139D01*
X112176037Y-65610634D01*
X112169397Y-65580181D01*
X112168290Y-65577452D01*
X112141509Y-65545000D01*
X112102421Y-65527183D01*
X112058685Y-65524306D01*
X112017962Y-65536674D01*
X111987913Y-65564593D01*
X111984796Y-65570148D01*
X111975039Y-65604022D01*
X111969723Y-65652728D01*
X111968721Y-65708155D01*
X111831367Y-65708155D01*
X111831432Y-65687540D01*
X111832336Y-65654563D01*
X111838486Y-65572981D01*
X111851267Y-65511730D01*
X111872529Y-65466449D01*
X111904122Y-65432779D01*
X111934793Y-65413014D01*
X111977646Y-65399120D01*
X112030944Y-65394354D01*
X112085520Y-65398236D01*
X112132208Y-65410282D01*
X112156876Y-65424693D01*
X112182495Y-65447878D01*
X112182495Y-65154773D01*
X112320812Y-65154773D01*
X112320812Y-66009822D01*
X112320812Y-66009822D01*
G37*
X112320812Y-66009822D02*
X112251654Y-66009822D01*
X112211512Y-66008645D01*
X112190606Y-66003772D01*
X112183078Y-65993186D01*
X112182495Y-65986029D01*
X112181226Y-65971676D01*
X112173221Y-65968923D01*
X112152185Y-65977771D01*
X112135827Y-65986029D01*
X112073023Y-66005597D01*
X112004752Y-66006729D01*
X111949248Y-65992135D01*
X111897562Y-65956877D01*
X111858162Y-65904835D01*
X111836587Y-65843450D01*
X111836038Y-65840018D01*
X111832833Y-65802571D01*
X111831239Y-65748813D01*
X111831367Y-65708155D01*
X111968721Y-65708155D01*
X111971903Y-65762194D01*
X111979141Y-65806735D01*
X111988940Y-65831888D01*
X112026011Y-65866260D01*
X112070026Y-65878582D01*
X112115416Y-65868618D01*
X112154203Y-65838895D01*
X112168892Y-65818905D01*
X112177481Y-65795050D01*
X112181504Y-65760230D01*
X112182495Y-65707930D01*
X112180722Y-65656139D01*
X112176037Y-65610634D01*
X112169397Y-65580181D01*
X112168290Y-65577452D01*
X112141509Y-65545000D01*
X112102421Y-65527183D01*
X112058685Y-65524306D01*
X112017962Y-65536674D01*
X111987913Y-65564593D01*
X111984796Y-65570148D01*
X111975039Y-65604022D01*
X111969723Y-65652728D01*
X111968721Y-65708155D01*
X111831367Y-65708155D01*
X111831432Y-65687540D01*
X111832336Y-65654563D01*
X111838486Y-65572981D01*
X111851267Y-65511730D01*
X111872529Y-65466449D01*
X111904122Y-65432779D01*
X111934793Y-65413014D01*
X111977646Y-65399120D01*
X112030944Y-65394354D01*
X112085520Y-65398236D01*
X112132208Y-65410282D01*
X112156876Y-65424693D01*
X112182495Y-65447878D01*
X112182495Y-65154773D01*
X112320812Y-65154773D01*
X112320812Y-66009822D01*
G36*
X112803524Y-65396237D02*
X112853255Y-65399971D01*
X112983291Y-65789773D01*
X113003678Y-65720614D01*
X113015946Y-65677874D01*
X113032085Y-65620115D01*
X113049512Y-65556625D01*
X113058726Y-65522570D01*
X113093388Y-65393683D01*
X113236391Y-65393683D01*
X113193646Y-65528857D01*
X113172596Y-65595342D01*
X113147167Y-65675539D01*
X113120610Y-65759193D01*
X113096902Y-65833782D01*
X113042902Y-66003535D01*
X112984598Y-66007328D01*
X112926295Y-66011122D01*
X112894679Y-65906734D01*
X112875182Y-65841889D01*
X112853904Y-65770400D01*
X112835308Y-65707263D01*
X112834574Y-65704750D01*
X112820684Y-65661969D01*
X112808429Y-65632779D01*
X112799846Y-65621741D01*
X112798082Y-65623018D01*
X112791891Y-65640130D01*
X112780128Y-65676787D01*
X112764225Y-65728378D01*
X112745614Y-65790294D01*
X112735543Y-65824352D01*
X112681007Y-66009822D01*
X112565264Y-66009822D01*
X112472737Y-65717471D01*
X112446744Y-65635462D01*
X112423066Y-65560987D01*
X112402820Y-65497544D01*
X112387126Y-65448632D01*
X112377102Y-65417749D01*
X112374055Y-65408726D01*
X112376467Y-65399487D01*
X112395408Y-65395441D01*
X112434823Y-65395846D01*
X112440993Y-65396152D01*
X112514086Y-65399971D01*
X112561957Y-65576010D01*
X112579553Y-65640211D01*
X112595277Y-65696649D01*
X112607746Y-65740422D01*
X112615574Y-65766630D01*
X112617020Y-65770903D01*
X112623014Y-65765990D01*
X112635101Y-65740532D01*
X112651893Y-65697997D01*
X112672003Y-65641850D01*
X112689003Y-65591130D01*
X112753794Y-65392504D01*
X112803524Y-65396237D01*
X112803524Y-65396237D01*
G37*
X112803524Y-65396237D02*
X112853255Y-65399971D01*
X112983291Y-65789773D01*
X113003678Y-65720614D01*
X113015946Y-65677874D01*
X113032085Y-65620115D01*
X113049512Y-65556625D01*
X113058726Y-65522570D01*
X113093388Y-65393683D01*
X113236391Y-65393683D01*
X113193646Y-65528857D01*
X113172596Y-65595342D01*
X113147167Y-65675539D01*
X113120610Y-65759193D01*
X113096902Y-65833782D01*
X113042902Y-66003535D01*
X112984598Y-66007328D01*
X112926295Y-66011122D01*
X112894679Y-65906734D01*
X112875182Y-65841889D01*
X112853904Y-65770400D01*
X112835308Y-65707263D01*
X112834574Y-65704750D01*
X112820684Y-65661969D01*
X112808429Y-65632779D01*
X112799846Y-65621741D01*
X112798082Y-65623018D01*
X112791891Y-65640130D01*
X112780128Y-65676787D01*
X112764225Y-65728378D01*
X112745614Y-65790294D01*
X112735543Y-65824352D01*
X112681007Y-66009822D01*
X112565264Y-66009822D01*
X112472737Y-65717471D01*
X112446744Y-65635462D01*
X112423066Y-65560987D01*
X112402820Y-65497544D01*
X112387126Y-65448632D01*
X112377102Y-65417749D01*
X112374055Y-65408726D01*
X112376467Y-65399487D01*
X112395408Y-65395441D01*
X112434823Y-65395846D01*
X112440993Y-65396152D01*
X112514086Y-65399971D01*
X112561957Y-65576010D01*
X112579553Y-65640211D01*
X112595277Y-65696649D01*
X112607746Y-65740422D01*
X112615574Y-65766630D01*
X112617020Y-65770903D01*
X112623014Y-65765990D01*
X112635101Y-65740532D01*
X112651893Y-65697997D01*
X112672003Y-65641850D01*
X112689003Y-65591130D01*
X112753794Y-65392504D01*
X112803524Y-65396237D01*
G36*
X113560411Y-65397417D02*
X113613411Y-65410290D01*
X113628731Y-65417110D01*
X113658428Y-65434974D01*
X113681220Y-65455093D01*
X113698083Y-65480962D01*
X113709998Y-65516073D01*
X113717942Y-65563920D01*
X113722894Y-65627996D01*
X113725831Y-65711794D01*
X113726947Y-65767768D01*
X113731052Y-66009822D01*
X113660932Y-66009822D01*
X113618393Y-66008038D01*
X113596476Y-66001942D01*
X113590812Y-65991706D01*
X113587821Y-65980637D01*
X113574451Y-65982754D01*
X113556233Y-65991629D01*
X113510624Y-66005233D01*
X113452007Y-66008899D01*
X113390354Y-66002903D01*
X113335638Y-65987521D01*
X113330730Y-65985386D01*
X113280723Y-65950255D01*
X113247756Y-65901419D01*
X113232587Y-65844333D01*
X113233746Y-65823824D01*
X113357508Y-65823824D01*
X113368413Y-65851425D01*
X113400745Y-65871204D01*
X113452910Y-65881819D01*
X113480787Y-65883228D01*
X113527247Y-65879620D01*
X113558129Y-65865597D01*
X113565664Y-65858931D01*
X113586076Y-65822666D01*
X113590812Y-65789773D01*
X113590812Y-65745763D01*
X113529513Y-65745763D01*
X113458256Y-65749395D01*
X113408276Y-65760818D01*
X113376696Y-65780824D01*
X113369626Y-65789743D01*
X113357508Y-65823824D01*
X113233746Y-65823824D01*
X113235971Y-65784456D01*
X113258663Y-65727244D01*
X113289624Y-65688580D01*
X113308376Y-65671864D01*
X113326733Y-65660878D01*
X113350619Y-65654180D01*
X113385957Y-65650326D01*
X113438669Y-65647873D01*
X113459577Y-65647168D01*
X113590812Y-65642879D01*
X113590620Y-65603158D01*
X113585537Y-65561405D01*
X113567162Y-65536158D01*
X113530039Y-65520030D01*
X113529043Y-65519742D01*
X113476410Y-65513400D01*
X113424906Y-65521684D01*
X113386630Y-65541827D01*
X113371272Y-65551773D01*
X113354730Y-65550397D01*
X113329275Y-65535987D01*
X113314328Y-65525817D01*
X113285091Y-65504088D01*
X113266980Y-65487800D01*
X113264074Y-65483137D01*
X113276040Y-65459005D01*
X113311396Y-65430185D01*
X113326753Y-65420461D01*
X113370901Y-65403714D01*
X113430398Y-65394227D01*
X113496487Y-65392095D01*
X113560411Y-65397417D01*
X113560411Y-65397417D01*
G37*
X113560411Y-65397417D02*
X113613411Y-65410290D01*
X113628731Y-65417110D01*
X113658428Y-65434974D01*
X113681220Y-65455093D01*
X113698083Y-65480962D01*
X113709998Y-65516073D01*
X113717942Y-65563920D01*
X113722894Y-65627996D01*
X113725831Y-65711794D01*
X113726947Y-65767768D01*
X113731052Y-66009822D01*
X113660932Y-66009822D01*
X113618393Y-66008038D01*
X113596476Y-66001942D01*
X113590812Y-65991706D01*
X113587821Y-65980637D01*
X113574451Y-65982754D01*
X113556233Y-65991629D01*
X113510624Y-66005233D01*
X113452007Y-66008899D01*
X113390354Y-66002903D01*
X113335638Y-65987521D01*
X113330730Y-65985386D01*
X113280723Y-65950255D01*
X113247756Y-65901419D01*
X113232587Y-65844333D01*
X113233746Y-65823824D01*
X113357508Y-65823824D01*
X113368413Y-65851425D01*
X113400745Y-65871204D01*
X113452910Y-65881819D01*
X113480787Y-65883228D01*
X113527247Y-65879620D01*
X113558129Y-65865597D01*
X113565664Y-65858931D01*
X113586076Y-65822666D01*
X113590812Y-65789773D01*
X113590812Y-65745763D01*
X113529513Y-65745763D01*
X113458256Y-65749395D01*
X113408276Y-65760818D01*
X113376696Y-65780824D01*
X113369626Y-65789743D01*
X113357508Y-65823824D01*
X113233746Y-65823824D01*
X113235971Y-65784456D01*
X113258663Y-65727244D01*
X113289624Y-65688580D01*
X113308376Y-65671864D01*
X113326733Y-65660878D01*
X113350619Y-65654180D01*
X113385957Y-65650326D01*
X113438669Y-65647873D01*
X113459577Y-65647168D01*
X113590812Y-65642879D01*
X113590620Y-65603158D01*
X113585537Y-65561405D01*
X113567162Y-65536158D01*
X113530039Y-65520030D01*
X113529043Y-65519742D01*
X113476410Y-65513400D01*
X113424906Y-65521684D01*
X113386630Y-65541827D01*
X113371272Y-65551773D01*
X113354730Y-65550397D01*
X113329275Y-65535987D01*
X113314328Y-65525817D01*
X113285091Y-65504088D01*
X113266980Y-65487800D01*
X113264074Y-65483137D01*
X113276040Y-65459005D01*
X113311396Y-65430185D01*
X113326753Y-65420461D01*
X113370901Y-65403714D01*
X113430398Y-65394227D01*
X113496487Y-65392095D01*
X113560411Y-65397417D01*
G36*
X114157255Y-65393486D02*
X114205595Y-65403015D01*
X114233114Y-65417125D01*
X114262064Y-65440568D01*
X114220876Y-65492571D01*
X114195482Y-65524064D01*
X114178238Y-65539428D01*
X114161102Y-65541776D01*
X114136027Y-65534217D01*
X114124257Y-65529941D01*
X114076270Y-65523631D01*
X114032324Y-65537156D01*
X114000060Y-65567710D01*
X113994819Y-65577452D01*
X113989112Y-65603258D01*
X113984706Y-65650817D01*
X113981811Y-65716758D01*
X113980631Y-65797710D01*
X113980614Y-65809226D01*
X113980614Y-66009822D01*
X113842297Y-66009822D01*
X113842297Y-65393683D01*
X113911456Y-65393683D01*
X113951333Y-65394725D01*
X113972107Y-65399358D01*
X113979789Y-65409849D01*
X113980614Y-65419745D01*
X113980614Y-65445806D01*
X114013745Y-65419745D01*
X114051735Y-65401965D01*
X114102770Y-65393174D01*
X114157255Y-65393486D01*
X114157255Y-65393486D01*
G37*
X114157255Y-65393486D02*
X114205595Y-65403015D01*
X114233114Y-65417125D01*
X114262064Y-65440568D01*
X114220876Y-65492571D01*
X114195482Y-65524064D01*
X114178238Y-65539428D01*
X114161102Y-65541776D01*
X114136027Y-65534217D01*
X114124257Y-65529941D01*
X114076270Y-65523631D01*
X114032324Y-65537156D01*
X114000060Y-65567710D01*
X113994819Y-65577452D01*
X113989112Y-65603258D01*
X113984706Y-65650817D01*
X113981811Y-65716758D01*
X113980631Y-65797710D01*
X113980614Y-65809226D01*
X113980614Y-66009822D01*
X113842297Y-66009822D01*
X113842297Y-65393683D01*
X113911456Y-65393683D01*
X113951333Y-65394725D01*
X113972107Y-65399358D01*
X113979789Y-65409849D01*
X113980614Y-65419745D01*
X113980614Y-65445806D01*
X114013745Y-65419745D01*
X114051735Y-65401965D01*
X114102770Y-65393174D01*
X114157255Y-65393486D01*
G36*
X114554581Y-65396970D02*
X114614685Y-65412597D01*
X114665021Y-65444848D01*
X114689393Y-65468940D01*
X114729345Y-65525895D01*
X114752242Y-65591965D01*
X114760108Y-65673182D01*
X114760148Y-65679748D01*
X114760218Y-65745763D01*
X114380264Y-65745763D01*
X114388363Y-65780342D01*
X114402987Y-65811659D01*
X114428581Y-65844291D01*
X114433935Y-65849500D01*
X114479943Y-65877694D01*
X114532410Y-65882475D01*
X114592803Y-65863926D01*
X114603040Y-65858931D01*
X114634439Y-65843745D01*
X114655470Y-65835094D01*
X114659139Y-65834293D01*
X114671948Y-65842063D01*
X114696378Y-65861072D01*
X114708779Y-65871460D01*
X114734476Y-65895321D01*
X114742915Y-65911077D01*
X114737058Y-65925571D01*
X114733928Y-65929534D01*
X114712725Y-65946879D01*
X114677738Y-65967959D01*
X114653337Y-65980265D01*
X114584072Y-66001946D01*
X114507388Y-66008971D01*
X114434765Y-66000647D01*
X114414426Y-65994686D01*
X114351476Y-65960952D01*
X114304815Y-65909045D01*
X114274173Y-65838459D01*
X114259282Y-65748692D01*
X114257647Y-65701753D01*
X114262421Y-65633413D01*
X114382990Y-65633413D01*
X114394652Y-65638465D01*
X114425998Y-65642429D01*
X114471571Y-65644768D01*
X114502446Y-65645169D01*
X114557981Y-65644783D01*
X114593033Y-65642975D01*
X114612262Y-65638773D01*
X114620330Y-65631203D01*
X114621901Y-65620218D01*
X114611121Y-65586381D01*
X114583980Y-65552940D01*
X114548277Y-65527272D01*
X114512560Y-65516772D01*
X114464048Y-65526086D01*
X114422053Y-65553013D01*
X114392936Y-65591827D01*
X114382990Y-65633413D01*
X114262421Y-65633413D01*
X114264599Y-65602236D01*
X114286055Y-65522949D01*
X114322470Y-65463263D01*
X114374297Y-65422549D01*
X114441990Y-65400179D01*
X114478662Y-65395871D01*
X114554581Y-65396970D01*
X114554581Y-65396970D01*
G37*
X114554581Y-65396970D02*
X114614685Y-65412597D01*
X114665021Y-65444848D01*
X114689393Y-65468940D01*
X114729345Y-65525895D01*
X114752242Y-65591965D01*
X114760108Y-65673182D01*
X114760148Y-65679748D01*
X114760218Y-65745763D01*
X114380264Y-65745763D01*
X114388363Y-65780342D01*
X114402987Y-65811659D01*
X114428581Y-65844291D01*
X114433935Y-65849500D01*
X114479943Y-65877694D01*
X114532410Y-65882475D01*
X114592803Y-65863926D01*
X114603040Y-65858931D01*
X114634439Y-65843745D01*
X114655470Y-65835094D01*
X114659139Y-65834293D01*
X114671948Y-65842063D01*
X114696378Y-65861072D01*
X114708779Y-65871460D01*
X114734476Y-65895321D01*
X114742915Y-65911077D01*
X114737058Y-65925571D01*
X114733928Y-65929534D01*
X114712725Y-65946879D01*
X114677738Y-65967959D01*
X114653337Y-65980265D01*
X114584072Y-66001946D01*
X114507388Y-66008971D01*
X114434765Y-66000647D01*
X114414426Y-65994686D01*
X114351476Y-65960952D01*
X114304815Y-65909045D01*
X114274173Y-65838459D01*
X114259282Y-65748692D01*
X114257647Y-65701753D01*
X114262421Y-65633413D01*
X114382990Y-65633413D01*
X114394652Y-65638465D01*
X114425998Y-65642429D01*
X114471571Y-65644768D01*
X114502446Y-65645169D01*
X114557981Y-65644783D01*
X114593033Y-65642975D01*
X114612262Y-65638773D01*
X114620330Y-65631203D01*
X114621901Y-65620218D01*
X114611121Y-65586381D01*
X114583980Y-65552940D01*
X114548277Y-65527272D01*
X114512560Y-65516772D01*
X114464048Y-65526086D01*
X114422053Y-65553013D01*
X114392936Y-65591827D01*
X114382990Y-65633413D01*
X114262421Y-65633413D01*
X114264599Y-65602236D01*
X114286055Y-65522949D01*
X114322470Y-65463263D01*
X114374297Y-65422549D01*
X114441990Y-65400179D01*
X114478662Y-65395871D01*
X114554581Y-65396970D01*
G36*
X109983739Y-64457148D02*
X110049521Y-64486231D01*
X110099460Y-64534793D01*
X110133626Y-64602908D01*
X110152093Y-64690651D01*
X110153417Y-64704351D01*
X110154454Y-64800939D01*
X110141007Y-64885602D01*
X110113892Y-64954221D01*
X110099373Y-64976294D01*
X110048799Y-65023011D01*
X109984391Y-65053268D01*
X109912334Y-65065824D01*
X109838815Y-65059439D01*
X109782928Y-65039772D01*
X109734868Y-65006629D01*
X109695588Y-64963175D01*
X109694908Y-64962158D01*
X109678956Y-64935338D01*
X109668590Y-64908368D01*
X109662312Y-64874332D01*
X109658627Y-64826310D01*
X109657003Y-64786931D01*
X109656328Y-64751219D01*
X109782045Y-64751219D01*
X109783274Y-64786770D01*
X109787734Y-64834094D01*
X109795603Y-64864465D01*
X109809793Y-64886072D01*
X109823083Y-64898694D01*
X109870198Y-64925122D01*
X109919495Y-64928653D01*
X109965407Y-64909639D01*
X109988362Y-64888331D01*
X110004904Y-64866859D01*
X110014579Y-64846313D01*
X110018826Y-64819574D01*
X110019080Y-64779523D01*
X110017772Y-64742638D01*
X110014957Y-64689947D01*
X110010495Y-64655772D01*
X110002452Y-64633480D01*
X109988897Y-64616442D01*
X109978155Y-64606703D01*
X109933223Y-64581123D01*
X109884751Y-64579847D01*
X109844106Y-64594999D01*
X109809433Y-64626642D01*
X109788776Y-64678620D01*
X109782045Y-64751219D01*
X109656328Y-64751219D01*
X109655521Y-64708621D01*
X109658052Y-64650056D01*
X109665638Y-64606007D01*
X109679319Y-64571248D01*
X109700135Y-64540551D01*
X109707853Y-64531436D01*
X109756111Y-64486021D01*
X109807872Y-64459493D01*
X109871172Y-64448379D01*
X109902039Y-64447471D01*
X109983739Y-64457148D01*
X109983739Y-64457148D01*
G37*
X109983739Y-64457148D02*
X110049521Y-64486231D01*
X110099460Y-64534793D01*
X110133626Y-64602908D01*
X110152093Y-64690651D01*
X110153417Y-64704351D01*
X110154454Y-64800939D01*
X110141007Y-64885602D01*
X110113892Y-64954221D01*
X110099373Y-64976294D01*
X110048799Y-65023011D01*
X109984391Y-65053268D01*
X109912334Y-65065824D01*
X109838815Y-65059439D01*
X109782928Y-65039772D01*
X109734868Y-65006629D01*
X109695588Y-64963175D01*
X109694908Y-64962158D01*
X109678956Y-64935338D01*
X109668590Y-64908368D01*
X109662312Y-64874332D01*
X109658627Y-64826310D01*
X109657003Y-64786931D01*
X109656328Y-64751219D01*
X109782045Y-64751219D01*
X109783274Y-64786770D01*
X109787734Y-64834094D01*
X109795603Y-64864465D01*
X109809793Y-64886072D01*
X109823083Y-64898694D01*
X109870198Y-64925122D01*
X109919495Y-64928653D01*
X109965407Y-64909639D01*
X109988362Y-64888331D01*
X110004904Y-64866859D01*
X110014579Y-64846313D01*
X110018826Y-64819574D01*
X110019080Y-64779523D01*
X110017772Y-64742638D01*
X110014957Y-64689947D01*
X110010495Y-64655772D01*
X110002452Y-64633480D01*
X109988897Y-64616442D01*
X109978155Y-64606703D01*
X109933223Y-64581123D01*
X109884751Y-64579847D01*
X109844106Y-64594999D01*
X109809433Y-64626642D01*
X109788776Y-64678620D01*
X109782045Y-64751219D01*
X109656328Y-64751219D01*
X109655521Y-64708621D01*
X109658052Y-64650056D01*
X109665638Y-64606007D01*
X109679319Y-64571248D01*
X109700135Y-64540551D01*
X109707853Y-64531436D01*
X109756111Y-64486021D01*
X109807872Y-64459493D01*
X109871172Y-64448379D01*
X109902039Y-64447471D01*
X109983739Y-64457148D01*
G36*
X111165301Y-64464614D02*
X111177832Y-64470514D01*
X111221201Y-64502283D01*
X111262210Y-64548646D01*
X111292832Y-64599696D01*
X111301541Y-64623166D01*
X111309488Y-64665091D01*
X111314226Y-64715757D01*
X111314801Y-64736679D01*
X111314871Y-64802693D01*
X110934917Y-64802693D01*
X110943017Y-64837273D01*
X110962896Y-64878170D01*
X110997653Y-64913514D01*
X111039002Y-64936282D01*
X111065351Y-64941010D01*
X111101084Y-64935273D01*
X111143718Y-64920882D01*
X111158201Y-64914262D01*
X111211760Y-64887513D01*
X111257467Y-64922376D01*
X111283842Y-64945955D01*
X111297876Y-64965417D01*
X111298586Y-64971129D01*
X111286049Y-64984973D01*
X111258572Y-65006012D01*
X111233634Y-65022425D01*
X111166336Y-65051930D01*
X111090890Y-65065284D01*
X111016112Y-65061812D01*
X110956505Y-65043663D01*
X110895059Y-65004784D01*
X110851392Y-64953595D01*
X110824074Y-64887367D01*
X110811678Y-64803371D01*
X110810579Y-64764936D01*
X110814978Y-64676861D01*
X110815518Y-64674299D01*
X110941418Y-64674299D01*
X110944885Y-64682558D01*
X110959137Y-64687113D01*
X110988530Y-64689065D01*
X111037425Y-64689517D01*
X111056252Y-64689525D01*
X111113533Y-64688843D01*
X111149859Y-64686364D01*
X111169396Y-64681443D01*
X111176310Y-64673434D01*
X111176555Y-64670862D01*
X111168664Y-64650423D01*
X111148915Y-64621789D01*
X111140425Y-64611763D01*
X111108906Y-64583408D01*
X111076051Y-64572259D01*
X111058349Y-64571327D01*
X111010461Y-64582981D01*
X110970301Y-64614285D01*
X110944827Y-64659752D01*
X110944375Y-64661233D01*
X110941418Y-64674299D01*
X110815518Y-64674299D01*
X110829608Y-64607510D01*
X110855962Y-64552025D01*
X110888193Y-64512639D01*
X110947783Y-64469931D01*
X111017832Y-64447109D01*
X111092339Y-64445046D01*
X111165301Y-64464614D01*
X111165301Y-64464614D01*
G37*
X111165301Y-64464614D02*
X111177832Y-64470514D01*
X111221201Y-64502283D01*
X111262210Y-64548646D01*
X111292832Y-64599696D01*
X111301541Y-64623166D01*
X111309488Y-64665091D01*
X111314226Y-64715757D01*
X111314801Y-64736679D01*
X111314871Y-64802693D01*
X110934917Y-64802693D01*
X110943017Y-64837273D01*
X110962896Y-64878170D01*
X110997653Y-64913514D01*
X111039002Y-64936282D01*
X111065351Y-64941010D01*
X111101084Y-64935273D01*
X111143718Y-64920882D01*
X111158201Y-64914262D01*
X111211760Y-64887513D01*
X111257467Y-64922376D01*
X111283842Y-64945955D01*
X111297876Y-64965417D01*
X111298586Y-64971129D01*
X111286049Y-64984973D01*
X111258572Y-65006012D01*
X111233634Y-65022425D01*
X111166336Y-65051930D01*
X111090890Y-65065284D01*
X111016112Y-65061812D01*
X110956505Y-65043663D01*
X110895059Y-65004784D01*
X110851392Y-64953595D01*
X110824074Y-64887367D01*
X110811678Y-64803371D01*
X110810579Y-64764936D01*
X110814978Y-64676861D01*
X110815518Y-64674299D01*
X110941418Y-64674299D01*
X110944885Y-64682558D01*
X110959137Y-64687113D01*
X110988530Y-64689065D01*
X111037425Y-64689517D01*
X111056252Y-64689525D01*
X111113533Y-64688843D01*
X111149859Y-64686364D01*
X111169396Y-64681443D01*
X111176310Y-64673434D01*
X111176555Y-64670862D01*
X111168664Y-64650423D01*
X111148915Y-64621789D01*
X111140425Y-64611763D01*
X111108906Y-64583408D01*
X111076051Y-64572259D01*
X111058349Y-64571327D01*
X111010461Y-64582981D01*
X110970301Y-64614285D01*
X110944827Y-64659752D01*
X110944375Y-64661233D01*
X110941418Y-64674299D01*
X110815518Y-64674299D01*
X110829608Y-64607510D01*
X110855962Y-64552025D01*
X110888193Y-64512639D01*
X110947783Y-64469931D01*
X111017832Y-64447109D01*
X111092339Y-64445046D01*
X111165301Y-64464614D01*
G36*
X112536017Y-64448452D02*
X112583634Y-64457482D01*
X112633034Y-64476370D01*
X112638312Y-64478777D01*
X112675774Y-64498476D01*
X112701717Y-64516781D01*
X112710103Y-64528508D01*
X112702117Y-64547632D01*
X112682720Y-64575850D01*
X112674110Y-64586384D01*
X112638628Y-64627847D01*
X112592885Y-64600858D01*
X112549350Y-64582878D01*
X112499050Y-64573267D01*
X112450812Y-64572660D01*
X112413467Y-64581691D01*
X112404505Y-64587327D01*
X112387437Y-64613171D01*
X112385363Y-64642941D01*
X112398134Y-64666197D01*
X112405688Y-64670708D01*
X112428325Y-64676309D01*
X112468115Y-64682892D01*
X112517166Y-64689183D01*
X112526215Y-64690170D01*
X112604996Y-64703798D01*
X112662136Y-64726946D01*
X112700030Y-64761752D01*
X112721079Y-64810354D01*
X112727635Y-64869718D01*
X112718577Y-64937198D01*
X112689164Y-64990188D01*
X112639278Y-65028783D01*
X112568800Y-65053081D01*
X112490565Y-65062667D01*
X112426766Y-65062552D01*
X112375016Y-65053845D01*
X112339673Y-65041825D01*
X112295017Y-65020880D01*
X112253747Y-64996574D01*
X112239079Y-64985876D01*
X112201357Y-64955084D01*
X112246852Y-64909049D01*
X112292347Y-64863013D01*
X112344072Y-64897243D01*
X112395952Y-64922952D01*
X112451351Y-64936399D01*
X112504605Y-64937818D01*
X112550049Y-64927443D01*
X112582016Y-64905507D01*
X112592338Y-64886998D01*
X112590789Y-64857314D01*
X112565140Y-64834615D01*
X112515460Y-64818940D01*
X112461031Y-64811695D01*
X112377264Y-64797873D01*
X112315033Y-64771796D01*
X112273507Y-64732699D01*
X112251853Y-64679820D01*
X112248853Y-64617126D01*
X112263671Y-64551642D01*
X112297454Y-64502144D01*
X112350505Y-64468408D01*
X112423126Y-64450207D01*
X112476928Y-64446639D01*
X112536017Y-64448452D01*
X112536017Y-64448452D01*
G37*
X112536017Y-64448452D02*
X112583634Y-64457482D01*
X112633034Y-64476370D01*
X112638312Y-64478777D01*
X112675774Y-64498476D01*
X112701717Y-64516781D01*
X112710103Y-64528508D01*
X112702117Y-64547632D01*
X112682720Y-64575850D01*
X112674110Y-64586384D01*
X112638628Y-64627847D01*
X112592885Y-64600858D01*
X112549350Y-64582878D01*
X112499050Y-64573267D01*
X112450812Y-64572660D01*
X112413467Y-64581691D01*
X112404505Y-64587327D01*
X112387437Y-64613171D01*
X112385363Y-64642941D01*
X112398134Y-64666197D01*
X112405688Y-64670708D01*
X112428325Y-64676309D01*
X112468115Y-64682892D01*
X112517166Y-64689183D01*
X112526215Y-64690170D01*
X112604996Y-64703798D01*
X112662136Y-64726946D01*
X112700030Y-64761752D01*
X112721079Y-64810354D01*
X112727635Y-64869718D01*
X112718577Y-64937198D01*
X112689164Y-64990188D01*
X112639278Y-65028783D01*
X112568800Y-65053081D01*
X112490565Y-65062667D01*
X112426766Y-65062552D01*
X112375016Y-65053845D01*
X112339673Y-65041825D01*
X112295017Y-65020880D01*
X112253747Y-64996574D01*
X112239079Y-64985876D01*
X112201357Y-64955084D01*
X112246852Y-64909049D01*
X112292347Y-64863013D01*
X112344072Y-64897243D01*
X112395952Y-64922952D01*
X112451351Y-64936399D01*
X112504605Y-64937818D01*
X112550049Y-64927443D01*
X112582016Y-64905507D01*
X112592338Y-64886998D01*
X112590789Y-64857314D01*
X112565140Y-64834615D01*
X112515460Y-64818940D01*
X112461031Y-64811695D01*
X112377264Y-64797873D01*
X112315033Y-64771796D01*
X112273507Y-64732699D01*
X112251853Y-64679820D01*
X112248853Y-64617126D01*
X112263671Y-64551642D01*
X112297454Y-64502144D01*
X112350505Y-64468408D01*
X112423126Y-64450207D01*
X112476928Y-64446639D01*
X112536017Y-64448452D01*
G36*
X113132762Y-64458055D02*
X113196363Y-64492692D01*
X113246123Y-64547372D01*
X113269568Y-64591842D01*
X113279634Y-64631121D01*
X113286156Y-64687116D01*
X113288951Y-64751621D01*
X113287836Y-64816429D01*
X113282626Y-64873334D01*
X113276541Y-64903727D01*
X113256014Y-64945306D01*
X113220463Y-64989468D01*
X113177619Y-65028087D01*
X113135211Y-65053034D01*
X113134177Y-65053430D01*
X113081553Y-65064331D01*
X113019188Y-65064601D01*
X112959924Y-65054676D01*
X112937040Y-65046722D01*
X112878102Y-65013300D01*
X112835890Y-64969511D01*
X112808156Y-64911538D01*
X112792651Y-64835565D01*
X112789143Y-64795771D01*
X112789590Y-64745766D01*
X112924376Y-64745766D01*
X112928917Y-64818732D01*
X112941986Y-64874334D01*
X112962756Y-64909861D01*
X112977552Y-64920020D01*
X113015464Y-64927104D01*
X113060527Y-64925007D01*
X113099487Y-64914812D01*
X113109704Y-64909204D01*
X113136659Y-64876538D01*
X113154451Y-64826545D01*
X113162024Y-64765705D01*
X113158325Y-64700497D01*
X113150057Y-64661253D01*
X113126320Y-64615805D01*
X113088849Y-64587396D01*
X113043720Y-64577573D01*
X112997011Y-64587887D01*
X112961132Y-64613112D01*
X112942277Y-64633925D01*
X112931272Y-64654439D01*
X112926026Y-64682203D01*
X112924449Y-64724762D01*
X112924376Y-64745766D01*
X112789590Y-64745766D01*
X112790094Y-64689580D01*
X112807388Y-64602501D01*
X112841029Y-64534530D01*
X112891018Y-64485664D01*
X112957356Y-64455899D01*
X112971601Y-64452448D01*
X113057210Y-64444345D01*
X113132762Y-64458055D01*
X113132762Y-64458055D01*
G37*
X113132762Y-64458055D02*
X113196363Y-64492692D01*
X113246123Y-64547372D01*
X113269568Y-64591842D01*
X113279634Y-64631121D01*
X113286156Y-64687116D01*
X113288951Y-64751621D01*
X113287836Y-64816429D01*
X113282626Y-64873334D01*
X113276541Y-64903727D01*
X113256014Y-64945306D01*
X113220463Y-64989468D01*
X113177619Y-65028087D01*
X113135211Y-65053034D01*
X113134177Y-65053430D01*
X113081553Y-65064331D01*
X113019188Y-65064601D01*
X112959924Y-65054676D01*
X112937040Y-65046722D01*
X112878102Y-65013300D01*
X112835890Y-64969511D01*
X112808156Y-64911538D01*
X112792651Y-64835565D01*
X112789143Y-64795771D01*
X112789590Y-64745766D01*
X112924376Y-64745766D01*
X112928917Y-64818732D01*
X112941986Y-64874334D01*
X112962756Y-64909861D01*
X112977552Y-64920020D01*
X113015464Y-64927104D01*
X113060527Y-64925007D01*
X113099487Y-64914812D01*
X113109704Y-64909204D01*
X113136659Y-64876538D01*
X113154451Y-64826545D01*
X113162024Y-64765705D01*
X113158325Y-64700497D01*
X113150057Y-64661253D01*
X113126320Y-64615805D01*
X113088849Y-64587396D01*
X113043720Y-64577573D01*
X112997011Y-64587887D01*
X112961132Y-64613112D01*
X112942277Y-64633925D01*
X112931272Y-64654439D01*
X112926026Y-64682203D01*
X112924449Y-64724762D01*
X112924376Y-64745766D01*
X112789590Y-64745766D01*
X112790094Y-64689580D01*
X112807388Y-64602501D01*
X112841029Y-64534530D01*
X112891018Y-64485664D01*
X112957356Y-64455899D01*
X112971601Y-64452448D01*
X113057210Y-64444345D01*
X113132762Y-64458055D01*
G36*
X113515367Y-64646342D02*
X113516555Y-64738563D01*
X113520897Y-64808610D01*
X113529558Y-64859381D01*
X113543704Y-64893772D01*
X113564500Y-64914679D01*
X113593110Y-64925000D01*
X113628535Y-64927636D01*
X113665636Y-64924682D01*
X113693818Y-64913889D01*
X113714243Y-64892360D01*
X113728079Y-64857199D01*
X113736491Y-64805510D01*
X113740643Y-64734394D01*
X113741703Y-64646342D01*
X113741703Y-64450614D01*
X113880020Y-64450614D01*
X113880020Y-65054179D01*
X113810862Y-65054179D01*
X113769170Y-65052489D01*
X113747701Y-65046556D01*
X113741703Y-65035293D01*
X113738091Y-65025261D01*
X113723714Y-65027383D01*
X113694736Y-65041580D01*
X113628319Y-65063480D01*
X113557875Y-65061928D01*
X113490377Y-65038147D01*
X113458233Y-65019362D01*
X113433715Y-64999022D01*
X113415804Y-64973573D01*
X113403479Y-64939458D01*
X113395723Y-64893121D01*
X113391516Y-64831007D01*
X113389840Y-64749561D01*
X113389624Y-64686578D01*
X113389624Y-64450614D01*
X113515367Y-64450614D01*
X113515367Y-64646342D01*
X113515367Y-64646342D01*
G37*
X113515367Y-64646342D02*
X113516555Y-64738563D01*
X113520897Y-64808610D01*
X113529558Y-64859381D01*
X113543704Y-64893772D01*
X113564500Y-64914679D01*
X113593110Y-64925000D01*
X113628535Y-64927636D01*
X113665636Y-64924682D01*
X113693818Y-64913889D01*
X113714243Y-64892360D01*
X113728079Y-64857199D01*
X113736491Y-64805510D01*
X113740643Y-64734394D01*
X113741703Y-64646342D01*
X113741703Y-64450614D01*
X113880020Y-64450614D01*
X113880020Y-65054179D01*
X113810862Y-65054179D01*
X113769170Y-65052489D01*
X113747701Y-65046556D01*
X113741703Y-65035293D01*
X113738091Y-65025261D01*
X113723714Y-65027383D01*
X113694736Y-65041580D01*
X113628319Y-65063480D01*
X113557875Y-65061928D01*
X113490377Y-65038147D01*
X113458233Y-65019362D01*
X113433715Y-64999022D01*
X113415804Y-64973573D01*
X113403479Y-64939458D01*
X113395723Y-64893121D01*
X113391516Y-64831007D01*
X113389840Y-64749561D01*
X113389624Y-64686578D01*
X113389624Y-64450614D01*
X113515367Y-64450614D01*
X113515367Y-64646342D01*
G36*
X114739226Y-64455880D02*
X114812080Y-64486830D01*
X114835027Y-64501895D01*
X114864354Y-64525048D01*
X114882764Y-64543253D01*
X114885961Y-64549183D01*
X114876935Y-64562340D01*
X114853837Y-64584667D01*
X114835344Y-64600250D01*
X114784728Y-64640926D01*
X114744760Y-64607295D01*
X114713874Y-64585584D01*
X114683759Y-64578090D01*
X114649292Y-64579920D01*
X114594561Y-64593528D01*
X114556886Y-64621772D01*
X114533991Y-64667433D01*
X114523597Y-64733289D01*
X114523595Y-64733331D01*
X114524494Y-64806939D01*
X114538463Y-64860946D01*
X114566328Y-64897716D01*
X114585325Y-64910168D01*
X114635776Y-64925673D01*
X114689663Y-64925683D01*
X114736546Y-64910638D01*
X114747644Y-64903287D01*
X114775476Y-64884511D01*
X114797236Y-64881434D01*
X114820704Y-64895409D01*
X114846649Y-64920510D01*
X114887716Y-64962880D01*
X114842121Y-65000464D01*
X114771674Y-65042882D01*
X114692233Y-65063785D01*
X114609215Y-65062272D01*
X114554694Y-65048411D01*
X114490970Y-65014135D01*
X114440005Y-64960212D01*
X114416851Y-64922149D01*
X114398099Y-64867536D01*
X114388715Y-64798369D01*
X114388643Y-64723407D01*
X114397824Y-64651409D01*
X114416199Y-64591137D01*
X114419093Y-64584958D01*
X114461952Y-64524351D01*
X114519979Y-64480224D01*
X114588591Y-64453493D01*
X114663201Y-64445073D01*
X114739226Y-64455880D01*
X114739226Y-64455880D01*
G37*
X114739226Y-64455880D02*
X114812080Y-64486830D01*
X114835027Y-64501895D01*
X114864354Y-64525048D01*
X114882764Y-64543253D01*
X114885961Y-64549183D01*
X114876935Y-64562340D01*
X114853837Y-64584667D01*
X114835344Y-64600250D01*
X114784728Y-64640926D01*
X114744760Y-64607295D01*
X114713874Y-64585584D01*
X114683759Y-64578090D01*
X114649292Y-64579920D01*
X114594561Y-64593528D01*
X114556886Y-64621772D01*
X114533991Y-64667433D01*
X114523597Y-64733289D01*
X114523595Y-64733331D01*
X114524494Y-64806939D01*
X114538463Y-64860946D01*
X114566328Y-64897716D01*
X114585325Y-64910168D01*
X114635776Y-64925673D01*
X114689663Y-64925683D01*
X114736546Y-64910638D01*
X114747644Y-64903287D01*
X114775476Y-64884511D01*
X114797236Y-64881434D01*
X114820704Y-64895409D01*
X114846649Y-64920510D01*
X114887716Y-64962880D01*
X114842121Y-65000464D01*
X114771674Y-65042882D01*
X114692233Y-65063785D01*
X114609215Y-65062272D01*
X114554694Y-65048411D01*
X114490970Y-65014135D01*
X114440005Y-64960212D01*
X114416851Y-64922149D01*
X114398099Y-64867536D01*
X114388715Y-64798369D01*
X114388643Y-64723407D01*
X114397824Y-64651409D01*
X114416199Y-64591137D01*
X114419093Y-64584958D01*
X114461952Y-64524351D01*
X114519979Y-64480224D01*
X114588591Y-64453493D01*
X114663201Y-64445073D01*
X114739226Y-64455880D01*
G36*
X115199898Y-64448457D02*
X115232096Y-64456279D01*
X115293825Y-64484921D01*
X115346610Y-64528667D01*
X115383141Y-64581117D01*
X115388160Y-64592893D01*
X115395045Y-64623740D01*
X115399864Y-64669371D01*
X115401505Y-64715492D01*
X115401505Y-64802693D01*
X115219178Y-64802693D01*
X115143979Y-64802978D01*
X115091003Y-64804704D01*
X115057325Y-64809181D01*
X115040020Y-64817720D01*
X115036163Y-64831630D01*
X115042829Y-64852222D01*
X115054770Y-64876315D01*
X115088080Y-64916525D01*
X115134368Y-64936558D01*
X115190944Y-64935905D01*
X115255031Y-64914101D01*
X115310417Y-64887193D01*
X115356375Y-64923532D01*
X115402333Y-64959872D01*
X115359096Y-64999819D01*
X115301374Y-65037563D01*
X115230386Y-65060320D01*
X115154029Y-65066688D01*
X115080199Y-65055268D01*
X115068287Y-65051393D01*
X115003399Y-65017506D01*
X114955130Y-64966986D01*
X114922465Y-64898325D01*
X114904385Y-64810014D01*
X114904175Y-64808121D01*
X114902556Y-64711878D01*
X114909100Y-64677542D01*
X115036852Y-64677542D01*
X115048584Y-64682822D01*
X115080438Y-64686867D01*
X115127397Y-64689176D01*
X115157154Y-64689525D01*
X115212648Y-64689306D01*
X115247346Y-64687916D01*
X115265601Y-64684251D01*
X115271766Y-64677210D01*
X115270195Y-64665690D01*
X115268878Y-64661233D01*
X115246382Y-64619355D01*
X115211003Y-64585604D01*
X115179780Y-64570773D01*
X115138301Y-64571668D01*
X115096269Y-64590164D01*
X115061012Y-64620786D01*
X115039854Y-64658062D01*
X115036852Y-64677542D01*
X114909100Y-64677542D01*
X114918690Y-64627229D01*
X114950698Y-64556191D01*
X114996701Y-64500779D01*
X115054821Y-64463009D01*
X115123180Y-64444896D01*
X115199898Y-64448457D01*
X115199898Y-64448457D01*
G37*
X115199898Y-64448457D02*
X115232096Y-64456279D01*
X115293825Y-64484921D01*
X115346610Y-64528667D01*
X115383141Y-64581117D01*
X115388160Y-64592893D01*
X115395045Y-64623740D01*
X115399864Y-64669371D01*
X115401505Y-64715492D01*
X115401505Y-64802693D01*
X115219178Y-64802693D01*
X115143979Y-64802978D01*
X115091003Y-64804704D01*
X115057325Y-64809181D01*
X115040020Y-64817720D01*
X115036163Y-64831630D01*
X115042829Y-64852222D01*
X115054770Y-64876315D01*
X115088080Y-64916525D01*
X115134368Y-64936558D01*
X115190944Y-64935905D01*
X115255031Y-64914101D01*
X115310417Y-64887193D01*
X115356375Y-64923532D01*
X115402333Y-64959872D01*
X115359096Y-64999819D01*
X115301374Y-65037563D01*
X115230386Y-65060320D01*
X115154029Y-65066688D01*
X115080199Y-65055268D01*
X115068287Y-65051393D01*
X115003399Y-65017506D01*
X114955130Y-64966986D01*
X114922465Y-64898325D01*
X114904385Y-64810014D01*
X114904175Y-64808121D01*
X114902556Y-64711878D01*
X114909100Y-64677542D01*
X115036852Y-64677542D01*
X115048584Y-64682822D01*
X115080438Y-64686867D01*
X115127397Y-64689176D01*
X115157154Y-64689525D01*
X115212648Y-64689306D01*
X115247346Y-64687916D01*
X115265601Y-64684251D01*
X115271766Y-64677210D01*
X115270195Y-64665690D01*
X115268878Y-64661233D01*
X115246382Y-64619355D01*
X115211003Y-64585604D01*
X115179780Y-64570773D01*
X115138301Y-64571668D01*
X115096269Y-64590164D01*
X115061012Y-64620786D01*
X115039854Y-64658062D01*
X115036852Y-64677542D01*
X114909100Y-64677542D01*
X114918690Y-64627229D01*
X114950698Y-64556191D01*
X114996701Y-64500779D01*
X115054821Y-64463009D01*
X115123180Y-64444896D01*
X115199898Y-64448457D01*
G36*
X111767988Y-64461002D02*
X111799283Y-64475950D01*
X111829591Y-64497541D01*
X111852682Y-64522391D01*
X111869500Y-64554087D01*
X111880994Y-64596214D01*
X111888109Y-64652358D01*
X111891793Y-64726106D01*
X111892992Y-64821044D01*
X111893011Y-64830985D01*
X111893287Y-65054179D01*
X111754970Y-65054179D01*
X111754970Y-64848418D01*
X111754872Y-64772189D01*
X111754191Y-64716939D01*
X111752349Y-64678501D01*
X111748767Y-64652706D01*
X111742868Y-64635384D01*
X111734073Y-64622368D01*
X111721820Y-64609507D01*
X111678953Y-64581873D01*
X111632157Y-64576745D01*
X111587576Y-64594217D01*
X111572072Y-64607221D01*
X111560690Y-64619447D01*
X111552519Y-64632540D01*
X111547026Y-64650615D01*
X111543680Y-64677787D01*
X111541949Y-64718170D01*
X111541303Y-64775879D01*
X111541208Y-64846132D01*
X111541208Y-65054179D01*
X111402891Y-65054179D01*
X111402891Y-64450614D01*
X111472050Y-64450614D01*
X111513572Y-64452256D01*
X111534994Y-64458087D01*
X111541205Y-64469461D01*
X111541208Y-64469798D01*
X111544090Y-64480938D01*
X111556801Y-64479674D01*
X111582074Y-64467434D01*
X111639395Y-64449424D01*
X111704963Y-64447421D01*
X111767988Y-64461002D01*
X111767988Y-64461002D01*
G37*
X111767988Y-64461002D02*
X111799283Y-64475950D01*
X111829591Y-64497541D01*
X111852682Y-64522391D01*
X111869500Y-64554087D01*
X111880994Y-64596214D01*
X111888109Y-64652358D01*
X111891793Y-64726106D01*
X111892992Y-64821044D01*
X111893011Y-64830985D01*
X111893287Y-65054179D01*
X111754970Y-65054179D01*
X111754970Y-64848418D01*
X111754872Y-64772189D01*
X111754191Y-64716939D01*
X111752349Y-64678501D01*
X111748767Y-64652706D01*
X111742868Y-64635384D01*
X111734073Y-64622368D01*
X111721820Y-64609507D01*
X111678953Y-64581873D01*
X111632157Y-64576745D01*
X111587576Y-64594217D01*
X111572072Y-64607221D01*
X111560690Y-64619447D01*
X111552519Y-64632540D01*
X111547026Y-64650615D01*
X111543680Y-64677787D01*
X111541949Y-64718170D01*
X111541303Y-64775879D01*
X111541208Y-64846132D01*
X111541208Y-65054179D01*
X111402891Y-65054179D01*
X111402891Y-64450614D01*
X111472050Y-64450614D01*
X111513572Y-64452256D01*
X111534994Y-64458087D01*
X111541205Y-64469461D01*
X111541208Y-64469798D01*
X111544090Y-64480938D01*
X111556801Y-64479674D01*
X111582074Y-64467434D01*
X111639395Y-64449424D01*
X111704963Y-64447421D01*
X111767988Y-64461002D01*
G36*
X114321460Y-64450030D02*
X114364711Y-64463245D01*
X114392558Y-64479941D01*
X114401629Y-64493145D01*
X114399132Y-64508797D01*
X114382931Y-64533385D01*
X114369232Y-64550800D01*
X114340992Y-64582283D01*
X114319775Y-64595529D01*
X114301688Y-64594664D01*
X114248035Y-64581010D01*
X114208630Y-64581630D01*
X114176632Y-64597104D01*
X114165890Y-64606161D01*
X114131505Y-64638027D01*
X114131505Y-65054179D01*
X113993188Y-65054179D01*
X113993188Y-64450614D01*
X114062347Y-64450614D01*
X114103869Y-64452256D01*
X114125291Y-64458087D01*
X114131502Y-64469461D01*
X114131505Y-64469798D01*
X114134439Y-64481713D01*
X114147704Y-64480159D01*
X114166084Y-64471563D01*
X114204046Y-64455568D01*
X114234872Y-64445945D01*
X114274536Y-64443478D01*
X114321460Y-64450030D01*
X114321460Y-64450030D01*
G37*
X114321460Y-64450030D02*
X114364711Y-64463245D01*
X114392558Y-64479941D01*
X114401629Y-64493145D01*
X114399132Y-64508797D01*
X114382931Y-64533385D01*
X114369232Y-64550800D01*
X114340992Y-64582283D01*
X114319775Y-64595529D01*
X114301688Y-64594664D01*
X114248035Y-64581010D01*
X114208630Y-64581630D01*
X114176632Y-64597104D01*
X114165890Y-64606161D01*
X114131505Y-64638027D01*
X114131505Y-65054179D01*
X113993188Y-65054179D01*
X113993188Y-64450614D01*
X114062347Y-64450614D01*
X114103869Y-64452256D01*
X114125291Y-64458087D01*
X114131502Y-64469461D01*
X114131505Y-64469798D01*
X114134439Y-64481713D01*
X114147704Y-64480159D01*
X114166084Y-64471563D01*
X114204046Y-64455568D01*
X114234872Y-64445945D01*
X114274536Y-64443478D01*
X114321460Y-64450030D01*
G36*
X112898964Y-60282018D02*
X112955812Y-60583570D01*
X113375338Y-60756512D01*
X113626984Y-60585395D01*
X113697458Y-60537750D01*
X113761163Y-60495210D01*
X113815126Y-60459715D01*
X113856373Y-60433210D01*
X113881934Y-60417636D01*
X113888895Y-60414278D01*
X113901435Y-60422914D01*
X113928231Y-60446792D01*
X113966280Y-60482859D01*
X114012579Y-60528067D01*
X114064123Y-60579364D01*
X114117909Y-60633701D01*
X114170935Y-60688028D01*
X114220195Y-60739295D01*
X114262687Y-60784451D01*
X114295407Y-60820446D01*
X114315351Y-60844230D01*
X114320119Y-60852190D01*
X114313257Y-60866865D01*
X114294020Y-60899014D01*
X114264430Y-60945492D01*
X114226510Y-61003156D01*
X114182282Y-61068860D01*
X114156654Y-61106336D01*
X114109941Y-61174768D01*
X114068432Y-61236520D01*
X114034140Y-61288519D01*
X114009080Y-61327692D01*
X113995264Y-61350965D01*
X113993188Y-61355855D01*
X113997895Y-61369755D01*
X114010723Y-61402150D01*
X114029738Y-61448485D01*
X114053003Y-61504206D01*
X114078584Y-61564758D01*
X114104545Y-61625586D01*
X114128950Y-61682136D01*
X114149863Y-61729852D01*
X114165349Y-61764181D01*
X114173472Y-61780568D01*
X114173952Y-61781212D01*
X114186707Y-61784341D01*
X114220677Y-61791321D01*
X114272340Y-61801467D01*
X114338176Y-61814092D01*
X114414664Y-61828509D01*
X114459290Y-61836823D01*
X114541021Y-61852384D01*
X114614843Y-61867192D01*
X114677021Y-61880436D01*
X114723822Y-61891305D01*
X114751509Y-61898989D01*
X114757074Y-61901427D01*
X114762526Y-61917930D01*
X114766924Y-61955200D01*
X114770272Y-62008880D01*
X114772574Y-62074612D01*
X114773832Y-62148037D01*
X114774048Y-62224796D01*
X114773227Y-62300532D01*
X114771371Y-62370886D01*
X114768482Y-62431500D01*
X114764565Y-62478016D01*
X114759622Y-62506075D01*
X114756657Y-62511916D01*
X114738934Y-62518917D01*
X114701381Y-62528927D01*
X114648964Y-62540769D01*
X114586652Y-62553267D01*
X114564900Y-62557310D01*
X114460024Y-62576520D01*
X114377180Y-62591991D01*
X114313630Y-62604337D01*
X114266637Y-62614173D01*
X114233463Y-62622114D01*
X114211371Y-62628776D01*
X114197624Y-62634773D01*
X114189484Y-62640719D01*
X114188345Y-62641894D01*
X114176977Y-62660826D01*
X114159635Y-62697669D01*
X114138050Y-62747913D01*
X114113954Y-62807046D01*
X114089079Y-62870556D01*
X114065157Y-62933932D01*
X114043919Y-62992662D01*
X114027097Y-63042235D01*
X114016422Y-63078139D01*
X114013627Y-63095862D01*
X114013860Y-63096483D01*
X114023331Y-63110970D01*
X114044818Y-63142844D01*
X114076063Y-63188789D01*
X114114807Y-63245485D01*
X114158793Y-63309617D01*
X114171319Y-63327842D01*
X114215984Y-63393914D01*
X114255288Y-63454200D01*
X114287088Y-63505235D01*
X114309245Y-63543560D01*
X114319617Y-63565711D01*
X114320119Y-63568432D01*
X114311405Y-63582736D01*
X114287325Y-63611072D01*
X114250976Y-63650396D01*
X114205453Y-63697661D01*
X114153852Y-63749823D01*
X114099267Y-63803835D01*
X114044794Y-63856653D01*
X113993529Y-63905231D01*
X113948567Y-63946523D01*
X113913004Y-63977485D01*
X113889935Y-63995070D01*
X113883554Y-63997941D01*
X113868699Y-63991178D01*
X113838286Y-63972939D01*
X113797268Y-63946297D01*
X113765709Y-63924852D01*
X113708525Y-63885503D01*
X113640806Y-63839171D01*
X113572880Y-63792913D01*
X113536361Y-63768155D01*
X113412752Y-63684547D01*
X113308991Y-63740650D01*
X113261720Y-63765228D01*
X113221523Y-63784331D01*
X113194326Y-63795227D01*
X113187402Y-63796743D01*
X113179077Y-63785549D01*
X113162654Y-63753917D01*
X113139357Y-63704765D01*
X113110414Y-63641010D01*
X113077050Y-63565571D01*
X113040491Y-63481364D01*
X113001964Y-63391308D01*
X112962694Y-63298321D01*
X112923908Y-63205320D01*
X112886830Y-63115223D01*
X112852689Y-63030948D01*
X112822708Y-62955413D01*
X112798116Y-62891534D01*
X112780136Y-62842231D01*
X112769997Y-62810421D01*
X112768366Y-62799496D01*
X112781291Y-62785561D01*
X112809589Y-62762940D01*
X112847346Y-62736333D01*
X112850515Y-62734228D01*
X112948100Y-62656114D01*
X113026786Y-62564982D01*
X113085891Y-62463745D01*
X113124732Y-62355318D01*
X113142628Y-62242614D01*
X113138897Y-62128548D01*
X113112857Y-62016034D01*
X113063825Y-61907985D01*
X113049400Y-61884345D01*
X112974369Y-61788887D01*
X112885730Y-61712232D01*
X112786549Y-61654780D01*
X112679895Y-61616929D01*
X112568836Y-61599078D01*
X112456439Y-61601625D01*
X112345773Y-61624970D01*
X112239906Y-61669510D01*
X112141905Y-61735645D01*
X112111590Y-61762487D01*
X112034438Y-61846512D01*
X111978218Y-61934966D01*
X111939653Y-62034115D01*
X111918174Y-62132303D01*
X111912872Y-62242697D01*
X111930552Y-62353640D01*
X111969419Y-62461381D01*
X112027677Y-62562169D01*
X112103531Y-62652256D01*
X112195183Y-62727892D01*
X112207228Y-62735864D01*
X112245389Y-62761974D01*
X112274399Y-62784595D01*
X112288268Y-62799039D01*
X112288469Y-62799496D01*
X112285492Y-62815121D01*
X112273689Y-62850582D01*
X112254286Y-62902962D01*
X112228512Y-62969345D01*
X112197591Y-63046814D01*
X112162751Y-63132450D01*
X112125217Y-63223337D01*
X112086217Y-63316559D01*
X112046977Y-63409197D01*
X112008724Y-63498335D01*
X111972683Y-63581055D01*
X111940083Y-63654441D01*
X111912148Y-63715575D01*
X111890105Y-63761541D01*
X111875182Y-63789421D01*
X111869172Y-63796743D01*
X111850809Y-63791041D01*
X111816448Y-63775749D01*
X111772016Y-63753599D01*
X111747583Y-63740650D01*
X111643822Y-63684547D01*
X111520213Y-63768155D01*
X111457114Y-63810987D01*
X111388030Y-63858122D01*
X111323293Y-63902503D01*
X111290866Y-63924852D01*
X111245259Y-63955477D01*
X111206640Y-63979747D01*
X111180048Y-63994587D01*
X111171410Y-63997724D01*
X111158839Y-63989261D01*
X111131016Y-63965636D01*
X111090639Y-63929302D01*
X111040405Y-63882711D01*
X110983012Y-63828317D01*
X110946714Y-63793392D01*
X110883210Y-63730996D01*
X110828327Y-63675188D01*
X110784286Y-63628354D01*
X110753305Y-63592882D01*
X110737602Y-63571161D01*
X110736095Y-63566752D01*
X110743086Y-63549985D01*
X110762406Y-63516082D01*
X110791909Y-63468476D01*
X110829455Y-63410599D01*
X110872900Y-63345884D01*
X110885255Y-63327842D01*
X110930273Y-63262267D01*
X110970660Y-63203228D01*
X111004160Y-63154042D01*
X111028514Y-63118028D01*
X111041464Y-63098502D01*
X111042715Y-63096483D01*
X111040844Y-63080922D01*
X111030913Y-63046709D01*
X111014653Y-62998355D01*
X110993795Y-62940371D01*
X110970073Y-62877270D01*
X110945216Y-62813563D01*
X110920958Y-62753761D01*
X110899029Y-62702376D01*
X110881162Y-62663919D01*
X110869087Y-62642902D01*
X110868229Y-62641894D01*
X110860846Y-62635888D01*
X110848375Y-62629948D01*
X110828080Y-62623460D01*
X110797222Y-62615809D01*
X110753066Y-62606380D01*
X110692874Y-62594559D01*
X110613907Y-62579729D01*
X110513430Y-62561277D01*
X110491675Y-62557310D01*
X110427198Y-62544853D01*
X110370989Y-62532666D01*
X110328013Y-62521926D01*
X110303240Y-62513809D01*
X110299918Y-62511916D01*
X110294444Y-62495138D01*
X110289994Y-62457645D01*
X110286572Y-62403794D01*
X110284181Y-62337944D01*
X110282823Y-62264453D01*
X110282501Y-62187680D01*
X110283219Y-62111983D01*
X110284979Y-62041720D01*
X110287784Y-61981250D01*
X110291638Y-61934930D01*
X110296543Y-61907119D01*
X110299500Y-61901427D01*
X110315963Y-61895686D01*
X110353449Y-61886345D01*
X110408225Y-61874215D01*
X110476555Y-61860107D01*
X110554706Y-61844830D01*
X110597284Y-61836823D01*
X110678071Y-61821721D01*
X110750113Y-61808040D01*
X110809889Y-61796467D01*
X110853879Y-61787687D01*
X110878561Y-61782387D01*
X110882623Y-61781212D01*
X110889489Y-61767965D01*
X110904002Y-61736057D01*
X110924229Y-61690047D01*
X110948234Y-61634492D01*
X110974082Y-61573953D01*
X110999840Y-61512986D01*
X111023573Y-61456151D01*
X111043346Y-61408006D01*
X111057224Y-61373110D01*
X111063274Y-61356021D01*
X111063386Y-61355274D01*
X111056528Y-61341793D01*
X111037302Y-61310770D01*
X111007728Y-61265289D01*
X110969827Y-61208432D01*
X110925620Y-61143283D01*
X110899921Y-61105862D01*
X110853093Y-61037247D01*
X110811501Y-60974952D01*
X110777175Y-60922129D01*
X110752143Y-60881927D01*
X110738435Y-60857500D01*
X110736456Y-60852024D01*
X110744966Y-60839278D01*
X110768493Y-60812063D01*
X110804032Y-60773428D01*
X110848577Y-60726423D01*
X110899123Y-60674095D01*
X110952664Y-60619495D01*
X111006195Y-60565670D01*
X111056711Y-60515670D01*
X111101206Y-60472543D01*
X111136675Y-60439339D01*
X111160113Y-60419106D01*
X111167954Y-60414278D01*
X111180720Y-60421067D01*
X111211256Y-60440142D01*
X111256590Y-60469561D01*
X111313756Y-60507381D01*
X111379784Y-60551661D01*
X111429590Y-60585395D01*
X111681236Y-60756512D01*
X111890999Y-60670041D01*
X112100763Y-60583570D01*
X112157611Y-60282018D01*
X112214460Y-59980466D01*
X112842115Y-59980466D01*
X112898964Y-60282018D01*
X112898964Y-60282018D01*
G37*
X112898964Y-60282018D02*
X112955812Y-60583570D01*
X113375338Y-60756512D01*
X113626984Y-60585395D01*
X113697458Y-60537750D01*
X113761163Y-60495210D01*
X113815126Y-60459715D01*
X113856373Y-60433210D01*
X113881934Y-60417636D01*
X113888895Y-60414278D01*
X113901435Y-60422914D01*
X113928231Y-60446792D01*
X113966280Y-60482859D01*
X114012579Y-60528067D01*
X114064123Y-60579364D01*
X114117909Y-60633701D01*
X114170935Y-60688028D01*
X114220195Y-60739295D01*
X114262687Y-60784451D01*
X114295407Y-60820446D01*
X114315351Y-60844230D01*
X114320119Y-60852190D01*
X114313257Y-60866865D01*
X114294020Y-60899014D01*
X114264430Y-60945492D01*
X114226510Y-61003156D01*
X114182282Y-61068860D01*
X114156654Y-61106336D01*
X114109941Y-61174768D01*
X114068432Y-61236520D01*
X114034140Y-61288519D01*
X114009080Y-61327692D01*
X113995264Y-61350965D01*
X113993188Y-61355855D01*
X113997895Y-61369755D01*
X114010723Y-61402150D01*
X114029738Y-61448485D01*
X114053003Y-61504206D01*
X114078584Y-61564758D01*
X114104545Y-61625586D01*
X114128950Y-61682136D01*
X114149863Y-61729852D01*
X114165349Y-61764181D01*
X114173472Y-61780568D01*
X114173952Y-61781212D01*
X114186707Y-61784341D01*
X114220677Y-61791321D01*
X114272340Y-61801467D01*
X114338176Y-61814092D01*
X114414664Y-61828509D01*
X114459290Y-61836823D01*
X114541021Y-61852384D01*
X114614843Y-61867192D01*
X114677021Y-61880436D01*
X114723822Y-61891305D01*
X114751509Y-61898989D01*
X114757074Y-61901427D01*
X114762526Y-61917930D01*
X114766924Y-61955200D01*
X114770272Y-62008880D01*
X114772574Y-62074612D01*
X114773832Y-62148037D01*
X114774048Y-62224796D01*
X114773227Y-62300532D01*
X114771371Y-62370886D01*
X114768482Y-62431500D01*
X114764565Y-62478016D01*
X114759622Y-62506075D01*
X114756657Y-62511916D01*
X114738934Y-62518917D01*
X114701381Y-62528927D01*
X114648964Y-62540769D01*
X114586652Y-62553267D01*
X114564900Y-62557310D01*
X114460024Y-62576520D01*
X114377180Y-62591991D01*
X114313630Y-62604337D01*
X114266637Y-62614173D01*
X114233463Y-62622114D01*
X114211371Y-62628776D01*
X114197624Y-62634773D01*
X114189484Y-62640719D01*
X114188345Y-62641894D01*
X114176977Y-62660826D01*
X114159635Y-62697669D01*
X114138050Y-62747913D01*
X114113954Y-62807046D01*
X114089079Y-62870556D01*
X114065157Y-62933932D01*
X114043919Y-62992662D01*
X114027097Y-63042235D01*
X114016422Y-63078139D01*
X114013627Y-63095862D01*
X114013860Y-63096483D01*
X114023331Y-63110970D01*
X114044818Y-63142844D01*
X114076063Y-63188789D01*
X114114807Y-63245485D01*
X114158793Y-63309617D01*
X114171319Y-63327842D01*
X114215984Y-63393914D01*
X114255288Y-63454200D01*
X114287088Y-63505235D01*
X114309245Y-63543560D01*
X114319617Y-63565711D01*
X114320119Y-63568432D01*
X114311405Y-63582736D01*
X114287325Y-63611072D01*
X114250976Y-63650396D01*
X114205453Y-63697661D01*
X114153852Y-63749823D01*
X114099267Y-63803835D01*
X114044794Y-63856653D01*
X113993529Y-63905231D01*
X113948567Y-63946523D01*
X113913004Y-63977485D01*
X113889935Y-63995070D01*
X113883554Y-63997941D01*
X113868699Y-63991178D01*
X113838286Y-63972939D01*
X113797268Y-63946297D01*
X113765709Y-63924852D01*
X113708525Y-63885503D01*
X113640806Y-63839171D01*
X113572880Y-63792913D01*
X113536361Y-63768155D01*
X113412752Y-63684547D01*
X113308991Y-63740650D01*
X113261720Y-63765228D01*
X113221523Y-63784331D01*
X113194326Y-63795227D01*
X113187402Y-63796743D01*
X113179077Y-63785549D01*
X113162654Y-63753917D01*
X113139357Y-63704765D01*
X113110414Y-63641010D01*
X113077050Y-63565571D01*
X113040491Y-63481364D01*
X113001964Y-63391308D01*
X112962694Y-63298321D01*
X112923908Y-63205320D01*
X112886830Y-63115223D01*
X112852689Y-63030948D01*
X112822708Y-62955413D01*
X112798116Y-62891534D01*
X112780136Y-62842231D01*
X112769997Y-62810421D01*
X112768366Y-62799496D01*
X112781291Y-62785561D01*
X112809589Y-62762940D01*
X112847346Y-62736333D01*
X112850515Y-62734228D01*
X112948100Y-62656114D01*
X113026786Y-62564982D01*
X113085891Y-62463745D01*
X113124732Y-62355318D01*
X113142628Y-62242614D01*
X113138897Y-62128548D01*
X113112857Y-62016034D01*
X113063825Y-61907985D01*
X113049400Y-61884345D01*
X112974369Y-61788887D01*
X112885730Y-61712232D01*
X112786549Y-61654780D01*
X112679895Y-61616929D01*
X112568836Y-61599078D01*
X112456439Y-61601625D01*
X112345773Y-61624970D01*
X112239906Y-61669510D01*
X112141905Y-61735645D01*
X112111590Y-61762487D01*
X112034438Y-61846512D01*
X111978218Y-61934966D01*
X111939653Y-62034115D01*
X111918174Y-62132303D01*
X111912872Y-62242697D01*
X111930552Y-62353640D01*
X111969419Y-62461381D01*
X112027677Y-62562169D01*
X112103531Y-62652256D01*
X112195183Y-62727892D01*
X112207228Y-62735864D01*
X112245389Y-62761974D01*
X112274399Y-62784595D01*
X112288268Y-62799039D01*
X112288469Y-62799496D01*
X112285492Y-62815121D01*
X112273689Y-62850582D01*
X112254286Y-62902962D01*
X112228512Y-62969345D01*
X112197591Y-63046814D01*
X112162751Y-63132450D01*
X112125217Y-63223337D01*
X112086217Y-63316559D01*
X112046977Y-63409197D01*
X112008724Y-63498335D01*
X111972683Y-63581055D01*
X111940083Y-63654441D01*
X111912148Y-63715575D01*
X111890105Y-63761541D01*
X111875182Y-63789421D01*
X111869172Y-63796743D01*
X111850809Y-63791041D01*
X111816448Y-63775749D01*
X111772016Y-63753599D01*
X111747583Y-63740650D01*
X111643822Y-63684547D01*
X111520213Y-63768155D01*
X111457114Y-63810987D01*
X111388030Y-63858122D01*
X111323293Y-63902503D01*
X111290866Y-63924852D01*
X111245259Y-63955477D01*
X111206640Y-63979747D01*
X111180048Y-63994587D01*
X111171410Y-63997724D01*
X111158839Y-63989261D01*
X111131016Y-63965636D01*
X111090639Y-63929302D01*
X111040405Y-63882711D01*
X110983012Y-63828317D01*
X110946714Y-63793392D01*
X110883210Y-63730996D01*
X110828327Y-63675188D01*
X110784286Y-63628354D01*
X110753305Y-63592882D01*
X110737602Y-63571161D01*
X110736095Y-63566752D01*
X110743086Y-63549985D01*
X110762406Y-63516082D01*
X110791909Y-63468476D01*
X110829455Y-63410599D01*
X110872900Y-63345884D01*
X110885255Y-63327842D01*
X110930273Y-63262267D01*
X110970660Y-63203228D01*
X111004160Y-63154042D01*
X111028514Y-63118028D01*
X111041464Y-63098502D01*
X111042715Y-63096483D01*
X111040844Y-63080922D01*
X111030913Y-63046709D01*
X111014653Y-62998355D01*
X110993795Y-62940371D01*
X110970073Y-62877270D01*
X110945216Y-62813563D01*
X110920958Y-62753761D01*
X110899029Y-62702376D01*
X110881162Y-62663919D01*
X110869087Y-62642902D01*
X110868229Y-62641894D01*
X110860846Y-62635888D01*
X110848375Y-62629948D01*
X110828080Y-62623460D01*
X110797222Y-62615809D01*
X110753066Y-62606380D01*
X110692874Y-62594559D01*
X110613907Y-62579729D01*
X110513430Y-62561277D01*
X110491675Y-62557310D01*
X110427198Y-62544853D01*
X110370989Y-62532666D01*
X110328013Y-62521926D01*
X110303240Y-62513809D01*
X110299918Y-62511916D01*
X110294444Y-62495138D01*
X110289994Y-62457645D01*
X110286572Y-62403794D01*
X110284181Y-62337944D01*
X110282823Y-62264453D01*
X110282501Y-62187680D01*
X110283219Y-62111983D01*
X110284979Y-62041720D01*
X110287784Y-61981250D01*
X110291638Y-61934930D01*
X110296543Y-61907119D01*
X110299500Y-61901427D01*
X110315963Y-61895686D01*
X110353449Y-61886345D01*
X110408225Y-61874215D01*
X110476555Y-61860107D01*
X110554706Y-61844830D01*
X110597284Y-61836823D01*
X110678071Y-61821721D01*
X110750113Y-61808040D01*
X110809889Y-61796467D01*
X110853879Y-61787687D01*
X110878561Y-61782387D01*
X110882623Y-61781212D01*
X110889489Y-61767965D01*
X110904002Y-61736057D01*
X110924229Y-61690047D01*
X110948234Y-61634492D01*
X110974082Y-61573953D01*
X110999840Y-61512986D01*
X111023573Y-61456151D01*
X111043346Y-61408006D01*
X111057224Y-61373110D01*
X111063274Y-61356021D01*
X111063386Y-61355274D01*
X111056528Y-61341793D01*
X111037302Y-61310770D01*
X111007728Y-61265289D01*
X110969827Y-61208432D01*
X110925620Y-61143283D01*
X110899921Y-61105862D01*
X110853093Y-61037247D01*
X110811501Y-60974952D01*
X110777175Y-60922129D01*
X110752143Y-60881927D01*
X110738435Y-60857500D01*
X110736456Y-60852024D01*
X110744966Y-60839278D01*
X110768493Y-60812063D01*
X110804032Y-60773428D01*
X110848577Y-60726423D01*
X110899123Y-60674095D01*
X110952664Y-60619495D01*
X111006195Y-60565670D01*
X111056711Y-60515670D01*
X111101206Y-60472543D01*
X111136675Y-60439339D01*
X111160113Y-60419106D01*
X111167954Y-60414278D01*
X111180720Y-60421067D01*
X111211256Y-60440142D01*
X111256590Y-60469561D01*
X111313756Y-60507381D01*
X111379784Y-60551661D01*
X111429590Y-60585395D01*
X111681236Y-60756512D01*
X111890999Y-60670041D01*
X112100763Y-60583570D01*
X112157611Y-60282018D01*
X112214460Y-59980466D01*
X112842115Y-59980466D01*
X112898964Y-60282018D01*
D10*
X144636000Y-76584000D02*
X144136000Y-76584000D01*
X144636000Y-76584000D02*
X144636000Y-76084000D01*
X144636000Y-73784000D02*
X144636000Y-74284000D01*
X144636000Y-73784000D02*
X144136000Y-73784000D01*
X122036000Y-73784000D02*
X121536000Y-73784000D01*
X121536000Y-73784000D02*
X121536000Y-76584000D01*
X121536000Y-76584000D02*
X122036000Y-76584000D01*
D12*
X147687695Y-93944923D02*
X146874895Y-93944923D01*
X146874895Y-93751399D01*
X146913600Y-93635285D01*
X146991010Y-93557876D01*
X147068419Y-93519171D01*
X147223238Y-93480466D01*
X147339352Y-93480466D01*
X147494171Y-93519171D01*
X147571581Y-93557876D01*
X147648990Y-93635285D01*
X147687695Y-93751399D01*
X147687695Y-93944923D01*
X147687695Y-92706371D02*
X147687695Y-93170828D01*
X147687695Y-92938599D02*
X146874895Y-92938599D01*
X146991010Y-93016009D01*
X147068419Y-93093418D01*
X147107124Y-93170828D01*
X145147695Y-93944923D02*
X144334895Y-93944923D01*
X144334895Y-93751399D01*
X144373600Y-93635285D01*
X144451010Y-93557876D01*
X144528419Y-93519171D01*
X144683238Y-93480466D01*
X144799352Y-93480466D01*
X144954171Y-93519171D01*
X145031581Y-93557876D01*
X145108990Y-93635285D01*
X145147695Y-93751399D01*
X145147695Y-93944923D01*
X144412305Y-93170828D02*
X144373600Y-93132123D01*
X144334895Y-93054714D01*
X144334895Y-92861190D01*
X144373600Y-92783780D01*
X144412305Y-92745076D01*
X144489714Y-92706371D01*
X144567124Y-92706371D01*
X144683238Y-92745076D01*
X145147695Y-93209533D01*
X145147695Y-92706371D01*
X142607695Y-93944923D02*
X141794895Y-93944923D01*
X141794895Y-93751399D01*
X141833600Y-93635285D01*
X141911010Y-93557876D01*
X141988419Y-93519171D01*
X142143238Y-93480466D01*
X142259352Y-93480466D01*
X142414171Y-93519171D01*
X142491581Y-93557876D01*
X142568990Y-93635285D01*
X142607695Y-93751399D01*
X142607695Y-93944923D01*
X141794895Y-93209533D02*
X141794895Y-92706371D01*
X142104533Y-92977304D01*
X142104533Y-92861190D01*
X142143238Y-92783780D01*
X142181943Y-92745076D01*
X142259352Y-92706371D01*
X142452876Y-92706371D01*
X142530286Y-92745076D01*
X142568990Y-92783780D01*
X142607695Y-92861190D01*
X142607695Y-93093418D01*
X142568990Y-93170828D01*
X142530286Y-93209533D01*
X140067695Y-93944923D02*
X139254895Y-93944923D01*
X139254895Y-93751399D01*
X139293600Y-93635285D01*
X139371010Y-93557876D01*
X139448419Y-93519171D01*
X139603238Y-93480466D01*
X139719352Y-93480466D01*
X139874171Y-93519171D01*
X139951581Y-93557876D01*
X140028990Y-93635285D01*
X140067695Y-93751399D01*
X140067695Y-93944923D01*
X139525829Y-92783780D02*
X140067695Y-92783780D01*
X139216190Y-92977304D02*
X139796762Y-93170828D01*
X139796762Y-92667666D01*
X137527695Y-93944923D02*
X136714895Y-93944923D01*
X136714895Y-93751399D01*
X136753600Y-93635285D01*
X136831010Y-93557876D01*
X136908419Y-93519171D01*
X137063238Y-93480466D01*
X137179352Y-93480466D01*
X137334171Y-93519171D01*
X137411581Y-93557876D01*
X137488990Y-93635285D01*
X137527695Y-93751399D01*
X137527695Y-93944923D01*
X136714895Y-92745076D02*
X136714895Y-93132123D01*
X137101943Y-93170828D01*
X137063238Y-93132123D01*
X137024533Y-93054714D01*
X137024533Y-92861190D01*
X137063238Y-92783780D01*
X137101943Y-92745076D01*
X137179352Y-92706371D01*
X137372876Y-92706371D01*
X137450286Y-92745076D01*
X137488990Y-92783780D01*
X137527695Y-92861190D01*
X137527695Y-93054714D01*
X137488990Y-93132123D01*
X137450286Y-93170828D01*
X134987695Y-93944923D02*
X134174895Y-93944923D01*
X134174895Y-93751399D01*
X134213600Y-93635285D01*
X134291010Y-93557876D01*
X134368419Y-93519171D01*
X134523238Y-93480466D01*
X134639352Y-93480466D01*
X134794171Y-93519171D01*
X134871581Y-93557876D01*
X134948990Y-93635285D01*
X134987695Y-93751399D01*
X134987695Y-93944923D01*
X134174895Y-92783780D02*
X134174895Y-92938599D01*
X134213600Y-93016009D01*
X134252305Y-93054714D01*
X134368419Y-93132123D01*
X134523238Y-93170828D01*
X134832876Y-93170828D01*
X134910286Y-93132123D01*
X134948990Y-93093418D01*
X134987695Y-93016009D01*
X134987695Y-92861190D01*
X134948990Y-92783780D01*
X134910286Y-92745076D01*
X134832876Y-92706371D01*
X134639352Y-92706371D01*
X134561943Y-92745076D01*
X134523238Y-92783780D01*
X134484533Y-92861190D01*
X134484533Y-93016009D01*
X134523238Y-93093418D01*
X134561943Y-93132123D01*
X134639352Y-93170828D01*
X132447695Y-93944923D02*
X131634895Y-93944923D01*
X131634895Y-93751399D01*
X131673600Y-93635285D01*
X131751010Y-93557876D01*
X131828419Y-93519171D01*
X131983238Y-93480466D01*
X132099352Y-93480466D01*
X132254171Y-93519171D01*
X132331581Y-93557876D01*
X132408990Y-93635285D01*
X132447695Y-93751399D01*
X132447695Y-93944923D01*
X131634895Y-93209533D02*
X131634895Y-92667666D01*
X132447695Y-93016009D01*
X129907695Y-93944923D02*
X129094895Y-93944923D01*
X129094895Y-93751399D01*
X129133600Y-93635285D01*
X129211010Y-93557876D01*
X129288419Y-93519171D01*
X129443238Y-93480466D01*
X129559352Y-93480466D01*
X129714171Y-93519171D01*
X129791581Y-93557876D01*
X129868990Y-93635285D01*
X129907695Y-93751399D01*
X129907695Y-93944923D01*
X129443238Y-93016009D02*
X129404533Y-93093418D01*
X129365829Y-93132123D01*
X129288419Y-93170828D01*
X129249714Y-93170828D01*
X129172305Y-93132123D01*
X129133600Y-93093418D01*
X129094895Y-93016009D01*
X129094895Y-92861190D01*
X129133600Y-92783780D01*
X129172305Y-92745076D01*
X129249714Y-92706371D01*
X129288419Y-92706371D01*
X129365829Y-92745076D01*
X129404533Y-92783780D01*
X129443238Y-92861190D01*
X129443238Y-93016009D01*
X129481943Y-93093418D01*
X129520648Y-93132123D01*
X129598057Y-93170828D01*
X129752876Y-93170828D01*
X129830286Y-93132123D01*
X129868990Y-93093418D01*
X129907695Y-93016009D01*
X129907695Y-92861190D01*
X129868990Y-92783780D01*
X129830286Y-92745076D01*
X129752876Y-92706371D01*
X129598057Y-92706371D01*
X129520648Y-92745076D01*
X129481943Y-92783780D01*
X129443238Y-92861190D01*
X124014895Y-111109276D02*
X124672876Y-111109276D01*
X124750286Y-111070571D01*
X124788990Y-111031867D01*
X124827695Y-110954457D01*
X124827695Y-110799638D01*
X124788990Y-110722229D01*
X124750286Y-110683524D01*
X124672876Y-110644819D01*
X124014895Y-110644819D01*
X124827695Y-109832019D02*
X124827695Y-110296476D01*
X124827695Y-110064247D02*
X124014895Y-110064247D01*
X124131010Y-110141657D01*
X124208419Y-110219066D01*
X124247124Y-110296476D01*
X119950895Y-86979276D02*
X120608876Y-86979276D01*
X120686286Y-86940571D01*
X120724990Y-86901867D01*
X120763695Y-86824457D01*
X120763695Y-86669638D01*
X120724990Y-86592229D01*
X120686286Y-86553524D01*
X120608876Y-86514819D01*
X119950895Y-86514819D01*
X120028305Y-86166476D02*
X119989600Y-86127771D01*
X119950895Y-86050362D01*
X119950895Y-85856838D01*
X119989600Y-85779428D01*
X120028305Y-85740724D01*
X120105714Y-85702019D01*
X120183124Y-85702019D01*
X120299238Y-85740724D01*
X120763695Y-86205181D01*
X120763695Y-85702019D01*
X154025600Y-93075276D02*
X153986895Y-93152685D01*
X153986895Y-93268800D01*
X154025600Y-93384914D01*
X154103010Y-93462323D01*
X154180419Y-93501028D01*
X154335238Y-93539733D01*
X154451352Y-93539733D01*
X154606171Y-93501028D01*
X154683581Y-93462323D01*
X154760990Y-93384914D01*
X154799695Y-93268800D01*
X154799695Y-93191390D01*
X154760990Y-93075276D01*
X154722286Y-93036571D01*
X154451352Y-93036571D01*
X154451352Y-93191390D01*
X154799695Y-92688228D02*
X153986895Y-92688228D01*
X154799695Y-92223771D01*
X153986895Y-92223771D01*
X154799695Y-91836723D02*
X153986895Y-91836723D01*
X153986895Y-91643199D01*
X154025600Y-91527085D01*
X154103010Y-91449676D01*
X154180419Y-91410971D01*
X154335238Y-91372266D01*
X154451352Y-91372266D01*
X154606171Y-91410971D01*
X154683581Y-91449676D01*
X154760990Y-91527085D01*
X154799695Y-91643199D01*
X154799695Y-91836723D01*
X154417056Y-97746027D02*
X154417056Y-97126751D01*
X154726694Y-97436389D02*
X154107418Y-97436389D01*
X153913894Y-96352656D02*
X153913894Y-96739703D01*
X154300942Y-96778408D01*
X154262237Y-96739703D01*
X154223532Y-96662294D01*
X154223532Y-96468770D01*
X154262237Y-96391360D01*
X154300942Y-96352656D01*
X154378351Y-96313951D01*
X154571875Y-96313951D01*
X154649285Y-96352656D01*
X154687989Y-96391360D01*
X154726694Y-96468770D01*
X154726694Y-96662294D01*
X154687989Y-96739703D01*
X154649285Y-96778408D01*
X153913894Y-96081722D02*
X154726694Y-95810789D01*
X153913894Y-95539856D01*
X154726694Y-101972103D02*
X154339647Y-102243036D01*
X154726694Y-102436560D02*
X153913894Y-102436560D01*
X153913894Y-102126922D01*
X153952599Y-102049513D01*
X153991304Y-102010808D01*
X154068713Y-101972103D01*
X154184828Y-101972103D01*
X154262237Y-102010808D01*
X154300942Y-102049513D01*
X154339647Y-102126922D01*
X154339647Y-102436560D01*
X154687989Y-101662465D02*
X154726694Y-101546351D01*
X154726694Y-101352827D01*
X154687989Y-101275417D01*
X154649285Y-101236713D01*
X154571875Y-101198008D01*
X154494466Y-101198008D01*
X154417056Y-101236713D01*
X154378351Y-101275417D01*
X154339647Y-101352827D01*
X154300942Y-101507646D01*
X154262237Y-101585055D01*
X154223532Y-101623760D01*
X154146123Y-101662465D01*
X154068713Y-101662465D01*
X153991304Y-101623760D01*
X153952599Y-101585055D01*
X153913894Y-101507646D01*
X153913894Y-101314122D01*
X153952599Y-101198008D01*
X153913894Y-100965779D02*
X153913894Y-100501322D01*
X154726694Y-100733551D02*
X153913894Y-100733551D01*
X153913894Y-89717208D02*
X154726694Y-89446275D01*
X153913894Y-89175342D01*
X154726694Y-88904408D02*
X153913894Y-88904408D01*
X154726694Y-88517360D02*
X153913894Y-88517360D01*
X154726694Y-88052903D01*
X153913894Y-88052903D01*
X150680057Y-100685600D02*
X150680057Y-100066324D01*
X150989695Y-100375962D02*
X150370419Y-100375962D01*
X150176895Y-99756686D02*
X150176895Y-99253524D01*
X150486533Y-99524457D01*
X150486533Y-99408343D01*
X150525238Y-99330933D01*
X150563943Y-99292229D01*
X150641352Y-99253524D01*
X150834876Y-99253524D01*
X150912286Y-99292229D01*
X150950990Y-99330933D01*
X150989695Y-99408343D01*
X150989695Y-99640571D01*
X150950990Y-99717981D01*
X150912286Y-99756686D01*
X150912286Y-98905181D02*
X150950990Y-98866476D01*
X150989695Y-98905181D01*
X150950990Y-98943886D01*
X150912286Y-98905181D01*
X150989695Y-98905181D01*
X150176895Y-98595543D02*
X150176895Y-98092381D01*
X150486533Y-98363314D01*
X150486533Y-98247200D01*
X150525238Y-98169790D01*
X150563943Y-98131086D01*
X150641352Y-98092381D01*
X150834876Y-98092381D01*
X150912286Y-98131086D01*
X150950990Y-98169790D01*
X150989695Y-98247200D01*
X150989695Y-98479428D01*
X150950990Y-98556838D01*
X150912286Y-98595543D01*
X150176895Y-97860152D02*
X150989695Y-97589219D01*
X150176895Y-97318286D01*
X154440467Y-84400571D02*
X154440467Y-84013523D01*
X154672695Y-84477980D02*
X153859895Y-84207047D01*
X154672695Y-83936114D01*
X153859895Y-83510361D02*
X153859895Y-83432952D01*
X153898600Y-83355542D01*
X153937305Y-83316837D01*
X154014714Y-83278133D01*
X154169533Y-83239428D01*
X154363057Y-83239428D01*
X154517876Y-83278133D01*
X154595286Y-83316837D01*
X154633990Y-83355542D01*
X154672695Y-83432952D01*
X154672695Y-83510361D01*
X154633990Y-83587771D01*
X154595286Y-83626475D01*
X154517876Y-83665180D01*
X154363057Y-83703885D01*
X154169533Y-83703885D01*
X154014714Y-83665180D01*
X153937305Y-83626475D01*
X153898600Y-83587771D01*
X153859895Y-83510361D01*
X154440467Y-81733571D02*
X154440467Y-81346523D01*
X154672695Y-81810980D02*
X153859895Y-81540047D01*
X154672695Y-81269114D01*
X154672695Y-80572428D02*
X154672695Y-81036885D01*
X154672695Y-80804656D02*
X153859895Y-80804656D01*
X153976010Y-80882066D01*
X154053419Y-80959475D01*
X154092124Y-81036885D01*
X154440467Y-79066571D02*
X154440467Y-78679523D01*
X154672695Y-79143980D02*
X153859895Y-78873047D01*
X154672695Y-78602114D01*
X153937305Y-78369885D02*
X153898600Y-78331180D01*
X153859895Y-78253771D01*
X153859895Y-78060247D01*
X153898600Y-77982837D01*
X153937305Y-77944133D01*
X154014714Y-77905428D01*
X154092124Y-77905428D01*
X154208238Y-77944133D01*
X154672695Y-78408590D01*
X154672695Y-77905428D01*
X154440467Y-76653571D02*
X154440467Y-76266523D01*
X154672695Y-76730980D02*
X153859895Y-76460047D01*
X154672695Y-76189114D01*
X153859895Y-75995590D02*
X153859895Y-75492428D01*
X154169533Y-75763361D01*
X154169533Y-75647247D01*
X154208238Y-75569837D01*
X154246943Y-75531133D01*
X154324352Y-75492428D01*
X154517876Y-75492428D01*
X154595286Y-75531133D01*
X154633990Y-75569837D01*
X154672695Y-75647247D01*
X154672695Y-75879475D01*
X154633990Y-75956885D01*
X154595286Y-75995590D01*
X154440467Y-74240571D02*
X154440467Y-73853523D01*
X154672695Y-74317980D02*
X153859895Y-74047047D01*
X154672695Y-73776114D01*
X154130829Y-73156837D02*
X154672695Y-73156837D01*
X153821190Y-73350361D02*
X154401762Y-73543885D01*
X154401762Y-73040723D01*
X154440467Y-71573571D02*
X154440467Y-71186523D01*
X154672695Y-71650980D02*
X153859895Y-71380047D01*
X154672695Y-71109114D01*
X153859895Y-70451133D02*
X153859895Y-70838180D01*
X154246943Y-70876885D01*
X154208238Y-70838180D01*
X154169533Y-70760771D01*
X154169533Y-70567247D01*
X154208238Y-70489837D01*
X154246943Y-70451133D01*
X154324352Y-70412428D01*
X154517876Y-70412428D01*
X154595286Y-70451133D01*
X154633990Y-70489837D01*
X154672695Y-70567247D01*
X154672695Y-70760771D01*
X154633990Y-70838180D01*
X154595286Y-70876885D01*
X101882599Y-108750275D02*
X101843894Y-108827684D01*
X101843894Y-108943799D01*
X101882599Y-109059913D01*
X101960009Y-109137322D01*
X102037418Y-109176027D01*
X102192237Y-109214732D01*
X102308351Y-109214732D01*
X102463170Y-109176027D01*
X102540580Y-109137322D01*
X102617989Y-109059913D01*
X102656694Y-108943799D01*
X102656694Y-108866389D01*
X102617989Y-108750275D01*
X102579285Y-108711570D01*
X102308351Y-108711570D01*
X102308351Y-108866389D01*
X102656694Y-108363227D02*
X101843894Y-108363227D01*
X102656694Y-107898770D01*
X101843894Y-107898770D01*
X102656694Y-107511722D02*
X101843894Y-107511722D01*
X101843894Y-107318198D01*
X101882599Y-107202084D01*
X101960009Y-107124675D01*
X102037418Y-107085970D01*
X102192237Y-107047265D01*
X102308351Y-107047265D01*
X102463170Y-107085970D01*
X102540580Y-107124675D01*
X102617989Y-107202084D01*
X102656694Y-107318198D01*
X102656694Y-107511722D01*
X102656694Y-105745818D02*
X102656694Y-106210275D01*
X102656694Y-105978046D02*
X101843894Y-105978046D01*
X101960009Y-106055456D01*
X102037418Y-106132865D01*
X102076123Y-106210275D01*
X101843894Y-105474885D02*
X101843894Y-104971723D01*
X102153532Y-105242656D01*
X102153532Y-105126542D01*
X102192237Y-105049132D01*
X102230942Y-105010428D01*
X102308351Y-104971723D01*
X102501875Y-104971723D01*
X102579285Y-105010428D01*
X102617989Y-105049132D01*
X102656694Y-105126542D01*
X102656694Y-105358770D01*
X102617989Y-105436180D01*
X102579285Y-105474885D01*
X102656694Y-103205818D02*
X102656694Y-103670275D01*
X102656694Y-103438046D02*
X101843894Y-103438046D01*
X101960009Y-103515456D01*
X102037418Y-103592865D01*
X102076123Y-103670275D01*
X101921304Y-102896180D02*
X101882599Y-102857475D01*
X101843894Y-102780066D01*
X101843894Y-102586542D01*
X101882599Y-102509132D01*
X101921304Y-102470428D01*
X101998713Y-102431723D01*
X102076123Y-102431723D01*
X102192237Y-102470428D01*
X102656694Y-102934885D01*
X102656694Y-102431723D01*
X102656694Y-100665818D02*
X102656694Y-101130275D01*
X102656694Y-100898046D02*
X101843894Y-100898046D01*
X101960009Y-100975456D01*
X102037418Y-101052865D01*
X102076123Y-101130275D01*
X102656694Y-99891723D02*
X102656694Y-100356180D01*
X102656694Y-100123951D02*
X101843894Y-100123951D01*
X101960009Y-100201361D01*
X102037418Y-100278770D01*
X102076123Y-100356180D01*
X102424466Y-111619266D02*
X102424466Y-111232218D01*
X102656694Y-111696675D02*
X101843894Y-111425742D01*
X102656694Y-111154809D01*
X102656694Y-110419418D02*
X102269647Y-110690351D01*
X102656694Y-110883875D02*
X101843894Y-110883875D01*
X101843894Y-110574237D01*
X101882599Y-110496828D01*
X101921304Y-110458123D01*
X101998713Y-110419418D01*
X102114828Y-110419418D01*
X102192237Y-110458123D01*
X102230942Y-110496828D01*
X102269647Y-110574237D01*
X102269647Y-110883875D01*
X102230942Y-109800142D02*
X102230942Y-110071075D01*
X102656694Y-110071075D02*
X101843894Y-110071075D01*
X101843894Y-109684028D01*
X102656694Y-98125818D02*
X102656694Y-98590275D01*
X102656694Y-98358046D02*
X101843894Y-98358046D01*
X101960009Y-98435456D01*
X102037418Y-98512865D01*
X102076123Y-98590275D01*
X101843894Y-97622656D02*
X101843894Y-97545247D01*
X101882599Y-97467837D01*
X101921304Y-97429132D01*
X101998713Y-97390428D01*
X102153532Y-97351723D01*
X102347056Y-97351723D01*
X102501875Y-97390428D01*
X102579285Y-97429132D01*
X102617989Y-97467837D01*
X102656694Y-97545247D01*
X102656694Y-97622656D01*
X102617989Y-97700066D01*
X102579285Y-97738770D01*
X102501875Y-97777475D01*
X102347056Y-97816180D01*
X102153532Y-97816180D01*
X101998713Y-97777475D01*
X101921304Y-97738770D01*
X101882599Y-97700066D01*
X101843894Y-97622656D01*
X102656694Y-95585817D02*
X102656694Y-95430998D01*
X102617989Y-95353589D01*
X102579285Y-95314884D01*
X102463170Y-95237475D01*
X102308351Y-95198770D01*
X101998713Y-95198770D01*
X101921304Y-95237475D01*
X101882599Y-95276179D01*
X101843894Y-95353589D01*
X101843894Y-95508408D01*
X101882599Y-95585817D01*
X101921304Y-95624522D01*
X101998713Y-95663227D01*
X102192237Y-95663227D01*
X102269647Y-95624522D01*
X102308351Y-95585817D01*
X102347056Y-95508408D01*
X102347056Y-95353589D01*
X102308351Y-95276179D01*
X102269647Y-95237475D01*
X102192237Y-95198770D01*
X102192237Y-92968408D02*
X102153532Y-93045817D01*
X102114828Y-93084522D01*
X102037418Y-93123227D01*
X101998713Y-93123227D01*
X101921304Y-93084522D01*
X101882599Y-93045817D01*
X101843894Y-92968408D01*
X101843894Y-92813589D01*
X101882599Y-92736179D01*
X101921304Y-92697475D01*
X101998713Y-92658770D01*
X102037418Y-92658770D01*
X102114828Y-92697475D01*
X102153532Y-92736179D01*
X102192237Y-92813589D01*
X102192237Y-92968408D01*
X102230942Y-93045817D01*
X102269647Y-93084522D01*
X102347056Y-93123227D01*
X102501875Y-93123227D01*
X102579285Y-93084522D01*
X102617989Y-93045817D01*
X102656694Y-92968408D01*
X102656694Y-92813589D01*
X102617989Y-92736179D01*
X102579285Y-92697475D01*
X102501875Y-92658770D01*
X102347056Y-92658770D01*
X102269647Y-92697475D01*
X102230942Y-92736179D01*
X102192237Y-92813589D01*
X101843894Y-89097932D02*
X101843894Y-88556065D01*
X102656694Y-88904408D01*
X101843894Y-86132179D02*
X101843894Y-86286998D01*
X101882599Y-86364408D01*
X101921304Y-86403113D01*
X102037418Y-86480522D01*
X102192237Y-86519227D01*
X102501875Y-86519227D01*
X102579285Y-86480522D01*
X102617989Y-86441817D01*
X102656694Y-86364408D01*
X102656694Y-86209589D01*
X102617989Y-86132179D01*
X102579285Y-86093475D01*
X102501875Y-86054770D01*
X102308351Y-86054770D01*
X102230942Y-86093475D01*
X102192237Y-86132179D01*
X102153532Y-86209589D01*
X102153532Y-86364408D01*
X102192237Y-86441817D01*
X102230942Y-86480522D01*
X102308351Y-86519227D01*
X101843894Y-83553475D02*
X101843894Y-83940522D01*
X102230942Y-83979227D01*
X102192237Y-83940522D01*
X102153532Y-83863113D01*
X102153532Y-83669589D01*
X102192237Y-83592179D01*
X102230942Y-83553475D01*
X102308351Y-83514770D01*
X102501875Y-83514770D01*
X102579285Y-83553475D01*
X102617989Y-83592179D01*
X102656694Y-83669589D01*
X102656694Y-83863113D01*
X102617989Y-83940522D01*
X102579285Y-83979227D01*
X102114828Y-81052179D02*
X102656694Y-81052179D01*
X101805189Y-81245703D02*
X102385761Y-81439227D01*
X102385761Y-80936065D01*
X101843894Y-78937932D02*
X101843894Y-78434770D01*
X102153532Y-78705703D01*
X102153532Y-78589589D01*
X102192237Y-78512179D01*
X102230942Y-78473475D01*
X102308351Y-78434770D01*
X102501875Y-78434770D01*
X102579285Y-78473475D01*
X102617989Y-78512179D01*
X102656694Y-78589589D01*
X102656694Y-78821817D01*
X102617989Y-78899227D01*
X102579285Y-78937932D01*
X101921304Y-76359227D02*
X101882599Y-76320522D01*
X101843894Y-76243113D01*
X101843894Y-76049589D01*
X101882599Y-75972179D01*
X101921304Y-75933475D01*
X101998713Y-75894770D01*
X102076123Y-75894770D01*
X102192237Y-75933475D01*
X102656694Y-76397932D01*
X102656694Y-75894770D01*
X101843894Y-74206274D02*
X101843894Y-73741817D01*
X102656694Y-73974046D02*
X101843894Y-73974046D01*
X101843894Y-73548294D02*
X102656694Y-73006427D01*
X101843894Y-73006427D02*
X102656694Y-73548294D01*
X102656694Y-71182465D02*
X102269647Y-71453398D01*
X102656694Y-71646922D02*
X101843894Y-71646922D01*
X101843894Y-71337284D01*
X101882599Y-71259875D01*
X101921304Y-71221170D01*
X101998713Y-71182465D01*
X102114828Y-71182465D01*
X102192237Y-71221170D01*
X102230942Y-71259875D01*
X102269647Y-71337284D01*
X102269647Y-71646922D01*
X101843894Y-70911532D02*
X102656694Y-70369665D01*
X101843894Y-70369665D02*
X102656694Y-70911532D01*
X102617989Y-114197970D02*
X102656694Y-114081856D01*
X102656694Y-113888332D01*
X102617989Y-113810922D01*
X102579285Y-113772218D01*
X102501875Y-113733513D01*
X102424466Y-113733513D01*
X102347056Y-113772218D01*
X102308351Y-113810922D01*
X102269647Y-113888332D01*
X102230942Y-114043151D01*
X102192237Y-114120560D01*
X102153532Y-114159265D01*
X102076123Y-114197970D01*
X101998713Y-114197970D01*
X101921304Y-114159265D01*
X101882599Y-114120560D01*
X101843894Y-114043151D01*
X101843894Y-113849627D01*
X101882599Y-113733513D01*
X102656694Y-113385170D02*
X101843894Y-113385170D01*
X101843894Y-113191646D01*
X101882599Y-113075532D01*
X101960009Y-112998123D01*
X102037418Y-112959418D01*
X102192237Y-112920713D01*
X102308351Y-112920713D01*
X102463170Y-112959418D01*
X102540580Y-112998123D01*
X102617989Y-113075532D01*
X102656694Y-113191646D01*
X102656694Y-113385170D01*
X102424466Y-112611075D02*
X102424466Y-112224027D01*
X102656694Y-112688484D02*
X101843894Y-112417551D01*
X102656694Y-112146618D01*
X102617989Y-116718618D02*
X102656694Y-116602504D01*
X102656694Y-116408980D01*
X102617989Y-116331570D01*
X102579285Y-116292866D01*
X102501875Y-116254161D01*
X102424466Y-116254161D01*
X102347056Y-116292866D01*
X102308351Y-116331570D01*
X102269647Y-116408980D01*
X102230942Y-116563799D01*
X102192237Y-116641208D01*
X102153532Y-116679913D01*
X102076123Y-116718618D01*
X101998713Y-116718618D01*
X101921304Y-116679913D01*
X101882599Y-116641208D01*
X101843894Y-116563799D01*
X101843894Y-116370275D01*
X101882599Y-116254161D01*
X102579285Y-115441361D02*
X102617989Y-115480066D01*
X102656694Y-115596180D01*
X102656694Y-115673590D01*
X102617989Y-115789704D01*
X102540580Y-115867113D01*
X102463170Y-115905818D01*
X102308351Y-115944523D01*
X102192237Y-115944523D01*
X102037418Y-115905818D01*
X101960009Y-115867113D01*
X101882599Y-115789704D01*
X101843894Y-115673590D01*
X101843894Y-115596180D01*
X101882599Y-115480066D01*
X101921304Y-115441361D01*
X102656694Y-114705971D02*
X102656694Y-115093018D01*
X101843894Y-115093018D01*
X154799695Y-105574495D02*
X153986895Y-105574495D01*
X153986895Y-105032628D02*
X153986895Y-104877809D01*
X154025600Y-104800400D01*
X154103010Y-104722990D01*
X154257829Y-104684285D01*
X154528762Y-104684285D01*
X154683581Y-104722990D01*
X154760990Y-104800400D01*
X154799695Y-104877809D01*
X154799695Y-105032628D01*
X154760990Y-105110038D01*
X154683581Y-105187447D01*
X154528762Y-105226152D01*
X154257829Y-105226152D01*
X154103010Y-105187447D01*
X154025600Y-105110038D01*
X153986895Y-105032628D01*
X154799695Y-103871485D02*
X154412648Y-104142418D01*
X154799695Y-104335942D02*
X153986895Y-104335942D01*
X153986895Y-104026304D01*
X154025600Y-103948895D01*
X154064305Y-103910190D01*
X154141714Y-103871485D01*
X154257829Y-103871485D01*
X154335238Y-103910190D01*
X154373943Y-103948895D01*
X154412648Y-104026304D01*
X154412648Y-104335942D01*
X154373943Y-103252209D02*
X154373943Y-103523142D01*
X154799695Y-103523142D02*
X153986895Y-103523142D01*
X153986895Y-103136095D01*
X122746286Y-106561466D02*
X122784990Y-106600171D01*
X122823695Y-106716285D01*
X122823695Y-106793695D01*
X122784990Y-106909809D01*
X122707581Y-106987218D01*
X122630171Y-107025923D01*
X122475352Y-107064628D01*
X122359238Y-107064628D01*
X122204419Y-107025923D01*
X122127010Y-106987218D01*
X122049600Y-106909809D01*
X122010895Y-106793695D01*
X122010895Y-106716285D01*
X122049600Y-106600171D01*
X122088305Y-106561466D01*
X122823695Y-105787371D02*
X122823695Y-106251828D01*
X122823695Y-106019599D02*
X122010895Y-106019599D01*
X122127010Y-106097009D01*
X122204419Y-106174418D01*
X122243124Y-106251828D01*
X118428286Y-82431466D02*
X118466990Y-82470171D01*
X118505695Y-82586285D01*
X118505695Y-82663695D01*
X118466990Y-82779809D01*
X118389581Y-82857218D01*
X118312171Y-82895923D01*
X118157352Y-82934628D01*
X118041238Y-82934628D01*
X117886419Y-82895923D01*
X117809010Y-82857218D01*
X117731600Y-82779809D01*
X117692895Y-82663695D01*
X117692895Y-82586285D01*
X117731600Y-82470171D01*
X117770305Y-82431466D01*
X117770305Y-82121828D02*
X117731600Y-82083123D01*
X117692895Y-82005714D01*
X117692895Y-81812190D01*
X117731600Y-81734780D01*
X117770305Y-81696076D01*
X117847714Y-81657371D01*
X117925124Y-81657371D01*
X118041238Y-81696076D01*
X118505695Y-82160533D01*
X118505695Y-81657371D01*
X108576534Y-101459695D02*
X108305601Y-101072648D01*
X108112077Y-101459695D02*
X108112077Y-100646895D01*
X108421715Y-100646895D01*
X108499124Y-100685600D01*
X108537829Y-100724305D01*
X108576534Y-100801714D01*
X108576534Y-100917829D01*
X108537829Y-100995238D01*
X108499124Y-101033943D01*
X108421715Y-101072648D01*
X108112077Y-101072648D01*
X109350629Y-101459695D02*
X108886172Y-101459695D01*
X109118401Y-101459695D02*
X109118401Y-100646895D01*
X109040991Y-100763010D01*
X108963582Y-100840419D01*
X108886172Y-100879124D01*
X108576534Y-96379695D02*
X108305601Y-95992648D01*
X108112077Y-96379695D02*
X108112077Y-95566895D01*
X108421715Y-95566895D01*
X108499124Y-95605600D01*
X108537829Y-95644305D01*
X108576534Y-95721714D01*
X108576534Y-95837829D01*
X108537829Y-95915238D01*
X108499124Y-95953943D01*
X108421715Y-95992648D01*
X108112077Y-95992648D01*
X108886172Y-95644305D02*
X108924877Y-95605600D01*
X109002286Y-95566895D01*
X109195810Y-95566895D01*
X109273220Y-95605600D01*
X109311924Y-95644305D01*
X109350629Y-95721714D01*
X109350629Y-95799124D01*
X109311924Y-95915238D01*
X108847467Y-96379695D01*
X109350629Y-96379695D01*
X109084534Y-80377695D02*
X108813601Y-79990648D01*
X108620077Y-80377695D02*
X108620077Y-79564895D01*
X108929715Y-79564895D01*
X109007124Y-79603600D01*
X109045829Y-79642305D01*
X109084534Y-79719714D01*
X109084534Y-79835829D01*
X109045829Y-79913238D01*
X109007124Y-79951943D01*
X108929715Y-79990648D01*
X108620077Y-79990648D01*
X109355467Y-79564895D02*
X109858629Y-79564895D01*
X109587696Y-79874533D01*
X109703810Y-79874533D01*
X109781220Y-79913238D01*
X109819924Y-79951943D01*
X109858629Y-80029352D01*
X109858629Y-80222876D01*
X109819924Y-80300286D01*
X109781220Y-80338990D01*
X109703810Y-80377695D01*
X109471582Y-80377695D01*
X109394172Y-80338990D01*
X109355467Y-80300286D01*
X109084534Y-75297695D02*
X108813601Y-74910648D01*
X108620077Y-75297695D02*
X108620077Y-74484895D01*
X108929715Y-74484895D01*
X109007124Y-74523600D01*
X109045829Y-74562305D01*
X109084534Y-74639714D01*
X109084534Y-74755829D01*
X109045829Y-74833238D01*
X109007124Y-74871943D01*
X108929715Y-74910648D01*
X108620077Y-74910648D01*
X109781220Y-74755829D02*
X109781220Y-75297695D01*
X109587696Y-74446190D02*
X109394172Y-75026762D01*
X109897334Y-75026762D01*
X130420534Y-89267695D02*
X130149601Y-88880648D01*
X129956077Y-89267695D02*
X129956077Y-88454895D01*
X130265715Y-88454895D01*
X130343124Y-88493600D01*
X130381829Y-88532305D01*
X130420534Y-88609714D01*
X130420534Y-88725829D01*
X130381829Y-88803238D01*
X130343124Y-88841943D01*
X130265715Y-88880648D01*
X129956077Y-88880648D01*
X131155924Y-88454895D02*
X130768877Y-88454895D01*
X130730172Y-88841943D01*
X130768877Y-88803238D01*
X130846286Y-88764533D01*
X131039810Y-88764533D01*
X131117220Y-88803238D01*
X131155924Y-88841943D01*
X131194629Y-88919352D01*
X131194629Y-89112876D01*
X131155924Y-89190286D01*
X131117220Y-89228990D01*
X131039810Y-89267695D01*
X130846286Y-89267695D01*
X130768877Y-89228990D01*
X130730172Y-89190286D01*
X130420534Y-91299695D02*
X130149601Y-90912648D01*
X129956077Y-91299695D02*
X129956077Y-90486895D01*
X130265715Y-90486895D01*
X130343124Y-90525600D01*
X130381829Y-90564305D01*
X130420534Y-90641714D01*
X130420534Y-90757829D01*
X130381829Y-90835238D01*
X130343124Y-90873943D01*
X130265715Y-90912648D01*
X129956077Y-90912648D01*
X131117220Y-90486895D02*
X130962401Y-90486895D01*
X130884991Y-90525600D01*
X130846286Y-90564305D01*
X130768877Y-90680419D01*
X130730172Y-90835238D01*
X130730172Y-91144876D01*
X130768877Y-91222286D01*
X130807582Y-91260990D01*
X130884991Y-91299695D01*
X131039810Y-91299695D01*
X131117220Y-91260990D01*
X131155924Y-91222286D01*
X131194629Y-91144876D01*
X131194629Y-90951352D01*
X131155924Y-90873943D01*
X131117220Y-90835238D01*
X131039810Y-90796533D01*
X130884991Y-90796533D01*
X130807582Y-90835238D01*
X130768877Y-90873943D01*
X130730172Y-90951352D01*
X108576534Y-88251695D02*
X108305601Y-87864648D01*
X108112077Y-88251695D02*
X108112077Y-87438895D01*
X108421715Y-87438895D01*
X108499124Y-87477600D01*
X108537829Y-87516305D01*
X108576534Y-87593714D01*
X108576534Y-87709829D01*
X108537829Y-87787238D01*
X108499124Y-87825943D01*
X108421715Y-87864648D01*
X108112077Y-87864648D01*
X108847467Y-87438895D02*
X109389334Y-87438895D01*
X109040991Y-88251695D01*
X120260534Y-106539695D02*
X119989601Y-106152648D01*
X119796077Y-106539695D02*
X119796077Y-105726895D01*
X120105715Y-105726895D01*
X120183124Y-105765600D01*
X120221829Y-105804305D01*
X120260534Y-105881714D01*
X120260534Y-105997829D01*
X120221829Y-106075238D01*
X120183124Y-106113943D01*
X120105715Y-106152648D01*
X119796077Y-106152648D01*
X120724991Y-106075238D02*
X120647582Y-106036533D01*
X120608877Y-105997829D01*
X120570172Y-105920419D01*
X120570172Y-105881714D01*
X120608877Y-105804305D01*
X120647582Y-105765600D01*
X120724991Y-105726895D01*
X120879810Y-105726895D01*
X120957220Y-105765600D01*
X120995924Y-105804305D01*
X121034629Y-105881714D01*
X121034629Y-105920419D01*
X120995924Y-105997829D01*
X120957220Y-106036533D01*
X120879810Y-106075238D01*
X120724991Y-106075238D01*
X120647582Y-106113943D01*
X120608877Y-106152648D01*
X120570172Y-106230057D01*
X120570172Y-106384876D01*
X120608877Y-106462286D01*
X120647582Y-106500990D01*
X120724991Y-106539695D01*
X120879810Y-106539695D01*
X120957220Y-106500990D01*
X120995924Y-106462286D01*
X121034629Y-106384876D01*
X121034629Y-106230057D01*
X120995924Y-106152648D01*
X120957220Y-106113943D01*
X120879810Y-106075238D01*
X120260534Y-107809695D02*
X119989601Y-107422648D01*
X119796077Y-107809695D02*
X119796077Y-106996895D01*
X120105715Y-106996895D01*
X120183124Y-107035600D01*
X120221829Y-107074305D01*
X120260534Y-107151714D01*
X120260534Y-107267829D01*
X120221829Y-107345238D01*
X120183124Y-107383943D01*
X120105715Y-107422648D01*
X119796077Y-107422648D01*
X120647582Y-107809695D02*
X120802401Y-107809695D01*
X120879810Y-107770990D01*
X120918515Y-107732286D01*
X120995924Y-107616171D01*
X121034629Y-107461352D01*
X121034629Y-107151714D01*
X120995924Y-107074305D01*
X120957220Y-107035600D01*
X120879810Y-106996895D01*
X120724991Y-106996895D01*
X120647582Y-107035600D01*
X120608877Y-107074305D01*
X120570172Y-107151714D01*
X120570172Y-107345238D01*
X120608877Y-107422648D01*
X120647582Y-107461352D01*
X120724991Y-107500057D01*
X120879810Y-107500057D01*
X120957220Y-107461352D01*
X120995924Y-107422648D01*
X121034629Y-107345238D01*
X108189486Y-109079695D02*
X107918553Y-108692648D01*
X107725029Y-109079695D02*
X107725029Y-108266895D01*
X108034667Y-108266895D01*
X108112076Y-108305600D01*
X108150781Y-108344305D01*
X108189486Y-108421714D01*
X108189486Y-108537829D01*
X108150781Y-108615238D01*
X108112076Y-108653943D01*
X108034667Y-108692648D01*
X107725029Y-108692648D01*
X108963581Y-109079695D02*
X108499124Y-109079695D01*
X108731353Y-109079695D02*
X108731353Y-108266895D01*
X108653943Y-108383010D01*
X108576534Y-108460419D01*
X108499124Y-108499124D01*
X109466743Y-108266895D02*
X109544152Y-108266895D01*
X109621562Y-108305600D01*
X109660267Y-108344305D01*
X109698971Y-108421714D01*
X109737676Y-108576533D01*
X109737676Y-108770057D01*
X109698971Y-108924876D01*
X109660267Y-109002286D01*
X109621562Y-109040990D01*
X109544152Y-109079695D01*
X109466743Y-109079695D01*
X109389333Y-109040990D01*
X109350629Y-109002286D01*
X109311924Y-108924876D01*
X109273219Y-108770057D01*
X109273219Y-108576533D01*
X109311924Y-108421714D01*
X109350629Y-108344305D01*
X109389333Y-108305600D01*
X109466743Y-108266895D01*
X151954895Y-111268933D02*
X152535467Y-111268933D01*
X152651581Y-111307637D01*
X152728990Y-111385047D01*
X152767695Y-111501161D01*
X152767695Y-111578571D01*
X152767695Y-110456133D02*
X152767695Y-110920590D01*
X152767695Y-110688361D02*
X151954895Y-110688361D01*
X152071010Y-110765771D01*
X152148419Y-110843180D01*
X152187124Y-110920590D01*
X142136496Y-96780286D02*
X142097791Y-96818990D01*
X141981677Y-96857695D01*
X141904267Y-96857695D01*
X141788153Y-96818990D01*
X141710744Y-96741581D01*
X141672039Y-96664171D01*
X141633334Y-96509352D01*
X141633334Y-96393238D01*
X141672039Y-96238419D01*
X141710744Y-96161010D01*
X141788153Y-96083600D01*
X141904267Y-96044895D01*
X141981677Y-96044895D01*
X142097791Y-96083600D01*
X142136496Y-96122305D01*
X142639658Y-96044895D02*
X142794477Y-96044895D01*
X142871886Y-96083600D01*
X142949296Y-96161010D01*
X142988001Y-96315829D01*
X142988001Y-96586762D01*
X142949296Y-96741581D01*
X142871886Y-96818990D01*
X142794477Y-96857695D01*
X142639658Y-96857695D01*
X142562248Y-96818990D01*
X142484839Y-96741581D01*
X142446134Y-96586762D01*
X142446134Y-96315829D01*
X142484839Y-96161010D01*
X142562248Y-96083600D01*
X142639658Y-96044895D01*
X143336344Y-96857695D02*
X143336344Y-96044895D01*
X143800801Y-96857695D01*
X143800801Y-96044895D01*
X144187849Y-96857695D02*
X144187849Y-96044895D01*
X144652306Y-96857695D01*
X144652306Y-96044895D01*
X144845830Y-96935105D02*
X145465106Y-96935105D01*
X145813449Y-96044895D02*
X145890858Y-96044895D01*
X145968268Y-96083600D01*
X146006973Y-96122305D01*
X146045677Y-96199714D01*
X146084382Y-96354533D01*
X146084382Y-96548057D01*
X146045677Y-96702876D01*
X146006973Y-96780286D01*
X145968268Y-96818990D01*
X145890858Y-96857695D01*
X145813449Y-96857695D01*
X145736039Y-96818990D01*
X145697335Y-96780286D01*
X145658630Y-96702876D01*
X145619925Y-96548057D01*
X145619925Y-96354533D01*
X145658630Y-96199714D01*
X145697335Y-96122305D01*
X145736039Y-96083600D01*
X145813449Y-96044895D01*
X146548839Y-96393238D02*
X146471430Y-96354533D01*
X146432725Y-96315829D01*
X146394020Y-96238419D01*
X146394020Y-96199714D01*
X146432725Y-96122305D01*
X146471430Y-96083600D01*
X146548839Y-96044895D01*
X146703658Y-96044895D01*
X146781068Y-96083600D01*
X146819772Y-96122305D01*
X146858477Y-96199714D01*
X146858477Y-96238419D01*
X146819772Y-96315829D01*
X146781068Y-96354533D01*
X146703658Y-96393238D01*
X146548839Y-96393238D01*
X146471430Y-96431943D01*
X146432725Y-96470648D01*
X146394020Y-96548057D01*
X146394020Y-96702876D01*
X146432725Y-96780286D01*
X146471430Y-96818990D01*
X146548839Y-96857695D01*
X146703658Y-96857695D01*
X146781068Y-96818990D01*
X146819772Y-96780286D01*
X146858477Y-96702876D01*
X146858477Y-96548057D01*
X146819772Y-96470648D01*
X146781068Y-96431943D01*
X146703658Y-96393238D01*
X147129410Y-96044895D02*
X147671277Y-96857695D01*
X147671277Y-96044895D02*
X147129410Y-96857695D01*
X147942210Y-96122305D02*
X147980915Y-96083600D01*
X148058324Y-96044895D01*
X148251848Y-96044895D01*
X148329258Y-96083600D01*
X148367962Y-96122305D01*
X148406667Y-96199714D01*
X148406667Y-96277124D01*
X148367962Y-96393238D01*
X147903505Y-96857695D01*
X148406667Y-96857695D01*
X147382895Y-53102933D02*
X147963467Y-53102933D01*
X148079581Y-53141637D01*
X148156990Y-53219047D01*
X148195695Y-53335161D01*
X148195695Y-53412571D01*
X147460305Y-52754590D02*
X147421600Y-52715885D01*
X147382895Y-52638476D01*
X147382895Y-52444952D01*
X147421600Y-52367542D01*
X147460305Y-52328838D01*
X147537714Y-52290133D01*
X147615124Y-52290133D01*
X147731238Y-52328838D01*
X148195695Y-52793295D01*
X148195695Y-52290133D01*
X142136496Y-65030286D02*
X142097791Y-65068990D01*
X141981677Y-65107695D01*
X141904267Y-65107695D01*
X141788153Y-65068990D01*
X141710744Y-64991581D01*
X141672039Y-64914171D01*
X141633334Y-64759352D01*
X141633334Y-64643238D01*
X141672039Y-64488419D01*
X141710744Y-64411010D01*
X141788153Y-64333600D01*
X141904267Y-64294895D01*
X141981677Y-64294895D01*
X142097791Y-64333600D01*
X142136496Y-64372305D01*
X142639658Y-64294895D02*
X142794477Y-64294895D01*
X142871886Y-64333600D01*
X142949296Y-64411010D01*
X142988001Y-64565829D01*
X142988001Y-64836762D01*
X142949296Y-64991581D01*
X142871886Y-65068990D01*
X142794477Y-65107695D01*
X142639658Y-65107695D01*
X142562248Y-65068990D01*
X142484839Y-64991581D01*
X142446134Y-64836762D01*
X142446134Y-64565829D01*
X142484839Y-64411010D01*
X142562248Y-64333600D01*
X142639658Y-64294895D01*
X143336344Y-65107695D02*
X143336344Y-64294895D01*
X143800801Y-65107695D01*
X143800801Y-64294895D01*
X144187849Y-65107695D02*
X144187849Y-64294895D01*
X144652306Y-65107695D01*
X144652306Y-64294895D01*
X144845830Y-65185105D02*
X145465106Y-65185105D01*
X145813449Y-64294895D02*
X145890858Y-64294895D01*
X145968268Y-64333600D01*
X146006973Y-64372305D01*
X146045677Y-64449714D01*
X146084382Y-64604533D01*
X146084382Y-64798057D01*
X146045677Y-64952876D01*
X146006973Y-65030286D01*
X145968268Y-65068990D01*
X145890858Y-65107695D01*
X145813449Y-65107695D01*
X145736039Y-65068990D01*
X145697335Y-65030286D01*
X145658630Y-64952876D01*
X145619925Y-64798057D01*
X145619925Y-64604533D01*
X145658630Y-64449714D01*
X145697335Y-64372305D01*
X145736039Y-64333600D01*
X145813449Y-64294895D01*
X146548839Y-64643238D02*
X146471430Y-64604533D01*
X146432725Y-64565829D01*
X146394020Y-64488419D01*
X146394020Y-64449714D01*
X146432725Y-64372305D01*
X146471430Y-64333600D01*
X146548839Y-64294895D01*
X146703658Y-64294895D01*
X146781068Y-64333600D01*
X146819772Y-64372305D01*
X146858477Y-64449714D01*
X146858477Y-64488419D01*
X146819772Y-64565829D01*
X146781068Y-64604533D01*
X146703658Y-64643238D01*
X146548839Y-64643238D01*
X146471430Y-64681943D01*
X146432725Y-64720648D01*
X146394020Y-64798057D01*
X146394020Y-64952876D01*
X146432725Y-65030286D01*
X146471430Y-65068990D01*
X146548839Y-65107695D01*
X146703658Y-65107695D01*
X146781068Y-65068990D01*
X146819772Y-65030286D01*
X146858477Y-64952876D01*
X146858477Y-64798057D01*
X146819772Y-64720648D01*
X146781068Y-64681943D01*
X146703658Y-64643238D01*
X147129410Y-64294895D02*
X147671277Y-65107695D01*
X147671277Y-64294895D02*
X147129410Y-65107695D01*
X147942210Y-64372305D02*
X147980915Y-64333600D01*
X148058324Y-64294895D01*
X148251848Y-64294895D01*
X148329258Y-64333600D01*
X148367962Y-64372305D01*
X148406667Y-64449714D01*
X148406667Y-64527124D01*
X148367962Y-64643238D01*
X147903505Y-65107695D01*
X148406667Y-65107695D01*
X153478895Y-111268933D02*
X154059467Y-111268933D01*
X154175581Y-111307637D01*
X154252990Y-111385047D01*
X154291695Y-111501161D01*
X154291695Y-111578571D01*
X153478895Y-110959295D02*
X153478895Y-110456133D01*
X153788533Y-110727066D01*
X153788533Y-110610952D01*
X153827238Y-110533542D01*
X153865943Y-110494838D01*
X153943352Y-110456133D01*
X154136876Y-110456133D01*
X154214286Y-110494838D01*
X154252990Y-110533542D01*
X154291695Y-110610952D01*
X154291695Y-110843180D01*
X154252990Y-110920590D01*
X154214286Y-110959295D01*
X152296496Y-96780286D02*
X152257791Y-96818990D01*
X152141677Y-96857695D01*
X152064267Y-96857695D01*
X151948153Y-96818990D01*
X151870744Y-96741581D01*
X151832039Y-96664171D01*
X151793334Y-96509352D01*
X151793334Y-96393238D01*
X151832039Y-96238419D01*
X151870744Y-96161010D01*
X151948153Y-96083600D01*
X152064267Y-96044895D01*
X152141677Y-96044895D01*
X152257791Y-96083600D01*
X152296496Y-96122305D01*
X152799658Y-96044895D02*
X152954477Y-96044895D01*
X153031886Y-96083600D01*
X153109296Y-96161010D01*
X153148001Y-96315829D01*
X153148001Y-96586762D01*
X153109296Y-96741581D01*
X153031886Y-96818990D01*
X152954477Y-96857695D01*
X152799658Y-96857695D01*
X152722248Y-96818990D01*
X152644839Y-96741581D01*
X152606134Y-96586762D01*
X152606134Y-96315829D01*
X152644839Y-96161010D01*
X152722248Y-96083600D01*
X152799658Y-96044895D01*
X153496344Y-96857695D02*
X153496344Y-96044895D01*
X153960801Y-96857695D01*
X153960801Y-96044895D01*
X154347849Y-96857695D02*
X154347849Y-96044895D01*
X154812306Y-96857695D01*
X154812306Y-96044895D01*
X155005830Y-96935105D02*
X155625106Y-96935105D01*
X155973449Y-96044895D02*
X156050858Y-96044895D01*
X156128268Y-96083600D01*
X156166973Y-96122305D01*
X156205677Y-96199714D01*
X156244382Y-96354533D01*
X156244382Y-96548057D01*
X156205677Y-96702876D01*
X156166973Y-96780286D01*
X156128268Y-96818990D01*
X156050858Y-96857695D01*
X155973449Y-96857695D01*
X155896039Y-96818990D01*
X155857335Y-96780286D01*
X155818630Y-96702876D01*
X155779925Y-96548057D01*
X155779925Y-96354533D01*
X155818630Y-96199714D01*
X155857335Y-96122305D01*
X155896039Y-96083600D01*
X155973449Y-96044895D01*
X156708839Y-96393238D02*
X156631430Y-96354533D01*
X156592725Y-96315829D01*
X156554020Y-96238419D01*
X156554020Y-96199714D01*
X156592725Y-96122305D01*
X156631430Y-96083600D01*
X156708839Y-96044895D01*
X156863658Y-96044895D01*
X156941068Y-96083600D01*
X156979772Y-96122305D01*
X157018477Y-96199714D01*
X157018477Y-96238419D01*
X156979772Y-96315829D01*
X156941068Y-96354533D01*
X156863658Y-96393238D01*
X156708839Y-96393238D01*
X156631430Y-96431943D01*
X156592725Y-96470648D01*
X156554020Y-96548057D01*
X156554020Y-96702876D01*
X156592725Y-96780286D01*
X156631430Y-96818990D01*
X156708839Y-96857695D01*
X156863658Y-96857695D01*
X156941068Y-96818990D01*
X156979772Y-96780286D01*
X157018477Y-96702876D01*
X157018477Y-96548057D01*
X156979772Y-96470648D01*
X156941068Y-96431943D01*
X156863658Y-96393238D01*
X157289410Y-96044895D02*
X157831277Y-96857695D01*
X157831277Y-96044895D02*
X157289410Y-96857695D01*
X158102210Y-96122305D02*
X158140915Y-96083600D01*
X158218324Y-96044895D01*
X158411848Y-96044895D01*
X158489258Y-96083600D01*
X158527962Y-96122305D01*
X158566667Y-96199714D01*
X158566667Y-96277124D01*
X158527962Y-96393238D01*
X158063505Y-96857695D01*
X158566667Y-96857695D01*
X148906895Y-53102933D02*
X149487467Y-53102933D01*
X149603581Y-53141637D01*
X149680990Y-53219047D01*
X149719695Y-53335161D01*
X149719695Y-53412571D01*
X149177829Y-52367542D02*
X149719695Y-52367542D01*
X148868190Y-52561066D02*
X149448762Y-52754590D01*
X149448762Y-52251428D01*
X152296496Y-65030286D02*
X152257791Y-65068990D01*
X152141677Y-65107695D01*
X152064267Y-65107695D01*
X151948153Y-65068990D01*
X151870744Y-64991581D01*
X151832039Y-64914171D01*
X151793334Y-64759352D01*
X151793334Y-64643238D01*
X151832039Y-64488419D01*
X151870744Y-64411010D01*
X151948153Y-64333600D01*
X152064267Y-64294895D01*
X152141677Y-64294895D01*
X152257791Y-64333600D01*
X152296496Y-64372305D01*
X152799658Y-64294895D02*
X152954477Y-64294895D01*
X153031886Y-64333600D01*
X153109296Y-64411010D01*
X153148001Y-64565829D01*
X153148001Y-64836762D01*
X153109296Y-64991581D01*
X153031886Y-65068990D01*
X152954477Y-65107695D01*
X152799658Y-65107695D01*
X152722248Y-65068990D01*
X152644839Y-64991581D01*
X152606134Y-64836762D01*
X152606134Y-64565829D01*
X152644839Y-64411010D01*
X152722248Y-64333600D01*
X152799658Y-64294895D01*
X153496344Y-65107695D02*
X153496344Y-64294895D01*
X153960801Y-65107695D01*
X153960801Y-64294895D01*
X154347849Y-65107695D02*
X154347849Y-64294895D01*
X154812306Y-65107695D01*
X154812306Y-64294895D01*
X155005830Y-65185105D02*
X155625106Y-65185105D01*
X155973449Y-64294895D02*
X156050858Y-64294895D01*
X156128268Y-64333600D01*
X156166973Y-64372305D01*
X156205677Y-64449714D01*
X156244382Y-64604533D01*
X156244382Y-64798057D01*
X156205677Y-64952876D01*
X156166973Y-65030286D01*
X156128268Y-65068990D01*
X156050858Y-65107695D01*
X155973449Y-65107695D01*
X155896039Y-65068990D01*
X155857335Y-65030286D01*
X155818630Y-64952876D01*
X155779925Y-64798057D01*
X155779925Y-64604533D01*
X155818630Y-64449714D01*
X155857335Y-64372305D01*
X155896039Y-64333600D01*
X155973449Y-64294895D01*
X156708839Y-64643238D02*
X156631430Y-64604533D01*
X156592725Y-64565829D01*
X156554020Y-64488419D01*
X156554020Y-64449714D01*
X156592725Y-64372305D01*
X156631430Y-64333600D01*
X156708839Y-64294895D01*
X156863658Y-64294895D01*
X156941068Y-64333600D01*
X156979772Y-64372305D01*
X157018477Y-64449714D01*
X157018477Y-64488419D01*
X156979772Y-64565829D01*
X156941068Y-64604533D01*
X156863658Y-64643238D01*
X156708839Y-64643238D01*
X156631430Y-64681943D01*
X156592725Y-64720648D01*
X156554020Y-64798057D01*
X156554020Y-64952876D01*
X156592725Y-65030286D01*
X156631430Y-65068990D01*
X156708839Y-65107695D01*
X156863658Y-65107695D01*
X156941068Y-65068990D01*
X156979772Y-65030286D01*
X157018477Y-64952876D01*
X157018477Y-64798057D01*
X156979772Y-64720648D01*
X156941068Y-64681943D01*
X156863658Y-64643238D01*
X157289410Y-64294895D02*
X157831277Y-65107695D01*
X157831277Y-64294895D02*
X157289410Y-65107695D01*
X158102210Y-64372305D02*
X158140915Y-64333600D01*
X158218324Y-64294895D01*
X158411848Y-64294895D01*
X158489258Y-64333600D01*
X158527962Y-64372305D01*
X158566667Y-64449714D01*
X158566667Y-64527124D01*
X158527962Y-64643238D01*
X158063505Y-65107695D01*
X158566667Y-65107695D01*
X102170895Y-122444933D02*
X102751467Y-122444933D01*
X102867581Y-122483637D01*
X102944990Y-122561047D01*
X102983695Y-122677161D01*
X102983695Y-122754571D01*
X102170895Y-121670838D02*
X102170895Y-122057885D01*
X102557943Y-122096590D01*
X102519238Y-122057885D01*
X102480533Y-121980476D01*
X102480533Y-121786952D01*
X102519238Y-121709542D01*
X102557943Y-121670838D01*
X102635352Y-121632133D01*
X102828876Y-121632133D01*
X102906286Y-121670838D01*
X102944990Y-121709542D01*
X102983695Y-121786952D01*
X102983695Y-121980476D01*
X102944990Y-122057885D01*
X102906286Y-122096590D01*
X108636496Y-109540286D02*
X108597791Y-109578990D01*
X108481677Y-109617695D01*
X108404267Y-109617695D01*
X108288153Y-109578990D01*
X108210744Y-109501581D01*
X108172039Y-109424171D01*
X108133334Y-109269352D01*
X108133334Y-109153238D01*
X108172039Y-108998419D01*
X108210744Y-108921010D01*
X108288153Y-108843600D01*
X108404267Y-108804895D01*
X108481677Y-108804895D01*
X108597791Y-108843600D01*
X108636496Y-108882305D01*
X109139658Y-108804895D02*
X109294477Y-108804895D01*
X109371886Y-108843600D01*
X109449296Y-108921010D01*
X109488001Y-109075829D01*
X109488001Y-109346762D01*
X109449296Y-109501581D01*
X109371886Y-109578990D01*
X109294477Y-109617695D01*
X109139658Y-109617695D01*
X109062248Y-109578990D01*
X108984839Y-109501581D01*
X108946134Y-109346762D01*
X108946134Y-109075829D01*
X108984839Y-108921010D01*
X109062248Y-108843600D01*
X109139658Y-108804895D01*
X109836344Y-109617695D02*
X109836344Y-108804895D01*
X110300801Y-109617695D01*
X110300801Y-108804895D01*
X110687849Y-109617695D02*
X110687849Y-108804895D01*
X111152306Y-109617695D01*
X111152306Y-108804895D01*
X111345830Y-109695105D02*
X111965106Y-109695105D01*
X112313449Y-108804895D02*
X112390858Y-108804895D01*
X112468268Y-108843600D01*
X112506973Y-108882305D01*
X112545677Y-108959714D01*
X112584382Y-109114533D01*
X112584382Y-109308057D01*
X112545677Y-109462876D01*
X112506973Y-109540286D01*
X112468268Y-109578990D01*
X112390858Y-109617695D01*
X112313449Y-109617695D01*
X112236039Y-109578990D01*
X112197335Y-109540286D01*
X112158630Y-109462876D01*
X112119925Y-109308057D01*
X112119925Y-109114533D01*
X112158630Y-108959714D01*
X112197335Y-108882305D01*
X112236039Y-108843600D01*
X112313449Y-108804895D01*
X113048839Y-109153238D02*
X112971430Y-109114533D01*
X112932725Y-109075829D01*
X112894020Y-108998419D01*
X112894020Y-108959714D01*
X112932725Y-108882305D01*
X112971430Y-108843600D01*
X113048839Y-108804895D01*
X113203658Y-108804895D01*
X113281068Y-108843600D01*
X113319772Y-108882305D01*
X113358477Y-108959714D01*
X113358477Y-108998419D01*
X113319772Y-109075829D01*
X113281068Y-109114533D01*
X113203658Y-109153238D01*
X113048839Y-109153238D01*
X112971430Y-109191943D01*
X112932725Y-109230648D01*
X112894020Y-109308057D01*
X112894020Y-109462876D01*
X112932725Y-109540286D01*
X112971430Y-109578990D01*
X113048839Y-109617695D01*
X113203658Y-109617695D01*
X113281068Y-109578990D01*
X113319772Y-109540286D01*
X113358477Y-109462876D01*
X113358477Y-109308057D01*
X113319772Y-109230648D01*
X113281068Y-109191943D01*
X113203658Y-109153238D01*
X113629410Y-108804895D02*
X114171277Y-109617695D01*
X114171277Y-108804895D02*
X113629410Y-109617695D01*
X114442210Y-108882305D02*
X114480915Y-108843600D01*
X114558324Y-108804895D01*
X114751848Y-108804895D01*
X114829258Y-108843600D01*
X114867962Y-108882305D01*
X114906667Y-108959714D01*
X114906667Y-109037124D01*
X114867962Y-109153238D01*
X114403505Y-109617695D01*
X114906667Y-109617695D01*
X101662895Y-66056933D02*
X102243467Y-66056933D01*
X102359581Y-66095637D01*
X102436990Y-66173047D01*
X102475695Y-66289161D01*
X102475695Y-66366571D01*
X101662895Y-65321542D02*
X101662895Y-65476361D01*
X101701600Y-65553771D01*
X101740305Y-65592476D01*
X101856419Y-65669885D01*
X102011238Y-65708590D01*
X102320876Y-65708590D01*
X102398286Y-65669885D01*
X102436990Y-65631180D01*
X102475695Y-65553771D01*
X102475695Y-65398952D01*
X102436990Y-65321542D01*
X102398286Y-65282838D01*
X102320876Y-65244133D01*
X102127352Y-65244133D01*
X102049943Y-65282838D01*
X102011238Y-65321542D01*
X101972533Y-65398952D01*
X101972533Y-65553771D01*
X102011238Y-65631180D01*
X102049943Y-65669885D01*
X102127352Y-65708590D01*
X108636496Y-77790286D02*
X108597791Y-77828990D01*
X108481677Y-77867695D01*
X108404267Y-77867695D01*
X108288153Y-77828990D01*
X108210744Y-77751581D01*
X108172039Y-77674171D01*
X108133334Y-77519352D01*
X108133334Y-77403238D01*
X108172039Y-77248419D01*
X108210744Y-77171010D01*
X108288153Y-77093600D01*
X108404267Y-77054895D01*
X108481677Y-77054895D01*
X108597791Y-77093600D01*
X108636496Y-77132305D01*
X109139658Y-77054895D02*
X109294477Y-77054895D01*
X109371886Y-77093600D01*
X109449296Y-77171010D01*
X109488001Y-77325829D01*
X109488001Y-77596762D01*
X109449296Y-77751581D01*
X109371886Y-77828990D01*
X109294477Y-77867695D01*
X109139658Y-77867695D01*
X109062248Y-77828990D01*
X108984839Y-77751581D01*
X108946134Y-77596762D01*
X108946134Y-77325829D01*
X108984839Y-77171010D01*
X109062248Y-77093600D01*
X109139658Y-77054895D01*
X109836344Y-77867695D02*
X109836344Y-77054895D01*
X110300801Y-77867695D01*
X110300801Y-77054895D01*
X110687849Y-77867695D02*
X110687849Y-77054895D01*
X111152306Y-77867695D01*
X111152306Y-77054895D01*
X111345830Y-77945105D02*
X111965106Y-77945105D01*
X112313449Y-77054895D02*
X112390858Y-77054895D01*
X112468268Y-77093600D01*
X112506973Y-77132305D01*
X112545677Y-77209714D01*
X112584382Y-77364533D01*
X112584382Y-77558057D01*
X112545677Y-77712876D01*
X112506973Y-77790286D01*
X112468268Y-77828990D01*
X112390858Y-77867695D01*
X112313449Y-77867695D01*
X112236039Y-77828990D01*
X112197335Y-77790286D01*
X112158630Y-77712876D01*
X112119925Y-77558057D01*
X112119925Y-77364533D01*
X112158630Y-77209714D01*
X112197335Y-77132305D01*
X112236039Y-77093600D01*
X112313449Y-77054895D01*
X113048839Y-77403238D02*
X112971430Y-77364533D01*
X112932725Y-77325829D01*
X112894020Y-77248419D01*
X112894020Y-77209714D01*
X112932725Y-77132305D01*
X112971430Y-77093600D01*
X113048839Y-77054895D01*
X113203658Y-77054895D01*
X113281068Y-77093600D01*
X113319772Y-77132305D01*
X113358477Y-77209714D01*
X113358477Y-77248419D01*
X113319772Y-77325829D01*
X113281068Y-77364533D01*
X113203658Y-77403238D01*
X113048839Y-77403238D01*
X112971430Y-77441943D01*
X112932725Y-77480648D01*
X112894020Y-77558057D01*
X112894020Y-77712876D01*
X112932725Y-77790286D01*
X112971430Y-77828990D01*
X113048839Y-77867695D01*
X113203658Y-77867695D01*
X113281068Y-77828990D01*
X113319772Y-77790286D01*
X113358477Y-77712876D01*
X113358477Y-77558057D01*
X113319772Y-77480648D01*
X113281068Y-77441943D01*
X113203658Y-77403238D01*
X113629410Y-77054895D02*
X114171277Y-77867695D01*
X114171277Y-77054895D02*
X113629410Y-77867695D01*
X114442210Y-77132305D02*
X114480915Y-77093600D01*
X114558324Y-77054895D01*
X114751848Y-77054895D01*
X114829258Y-77093600D01*
X114867962Y-77132305D01*
X114906667Y-77209714D01*
X114906667Y-77287124D01*
X114867962Y-77403238D01*
X114403505Y-77867695D01*
X114906667Y-77867695D01*
X121903067Y-66102895D02*
X121903067Y-66683467D01*
X121864363Y-66799581D01*
X121786953Y-66876990D01*
X121670839Y-66915695D01*
X121593429Y-66915695D01*
X122212705Y-66102895D02*
X122754572Y-66102895D01*
X122406229Y-66915695D01*
X133610286Y-78843504D02*
X133648990Y-78882209D01*
X133687695Y-78998323D01*
X133687695Y-79075733D01*
X133648990Y-79191847D01*
X133571581Y-79269256D01*
X133494171Y-79307961D01*
X133339352Y-79346666D01*
X133223238Y-79346666D01*
X133068419Y-79307961D01*
X132991010Y-79269256D01*
X132913600Y-79191847D01*
X132874895Y-79075733D01*
X132874895Y-78998323D01*
X132913600Y-78882209D01*
X132952305Y-78843504D01*
X132874895Y-78340342D02*
X132874895Y-78185523D01*
X132913600Y-78108114D01*
X132991010Y-78030704D01*
X133145829Y-77991999D01*
X133416762Y-77991999D01*
X133571581Y-78030704D01*
X133648990Y-78108114D01*
X133687695Y-78185523D01*
X133687695Y-78340342D01*
X133648990Y-78417752D01*
X133571581Y-78495161D01*
X133416762Y-78533866D01*
X133145829Y-78533866D01*
X132991010Y-78495161D01*
X132913600Y-78417752D01*
X132874895Y-78340342D01*
X133687695Y-77643656D02*
X132874895Y-77643656D01*
X133687695Y-77179199D01*
X132874895Y-77179199D01*
X133687695Y-76792151D02*
X132874895Y-76792151D01*
X133687695Y-76327694D01*
X132874895Y-76327694D01*
X133765105Y-76134170D02*
X133765105Y-75514894D01*
X132874895Y-75166551D02*
X132874895Y-75089142D01*
X132913600Y-75011732D01*
X132952305Y-74973027D01*
X133029714Y-74934323D01*
X133184533Y-74895618D01*
X133378057Y-74895618D01*
X133532876Y-74934323D01*
X133610286Y-74973027D01*
X133648990Y-75011732D01*
X133687695Y-75089142D01*
X133687695Y-75166551D01*
X133648990Y-75243961D01*
X133610286Y-75282665D01*
X133532876Y-75321370D01*
X133378057Y-75360075D01*
X133184533Y-75360075D01*
X133029714Y-75321370D01*
X132952305Y-75282665D01*
X132913600Y-75243961D01*
X132874895Y-75166551D01*
X133223238Y-74431161D02*
X133184533Y-74508570D01*
X133145829Y-74547275D01*
X133068419Y-74585980D01*
X133029714Y-74585980D01*
X132952305Y-74547275D01*
X132913600Y-74508570D01*
X132874895Y-74431161D01*
X132874895Y-74276342D01*
X132913600Y-74198932D01*
X132952305Y-74160228D01*
X133029714Y-74121523D01*
X133068419Y-74121523D01*
X133145829Y-74160228D01*
X133184533Y-74198932D01*
X133223238Y-74276342D01*
X133223238Y-74431161D01*
X133261943Y-74508570D01*
X133300648Y-74547275D01*
X133378057Y-74585980D01*
X133532876Y-74585980D01*
X133610286Y-74547275D01*
X133648990Y-74508570D01*
X133687695Y-74431161D01*
X133687695Y-74276342D01*
X133648990Y-74198932D01*
X133610286Y-74160228D01*
X133532876Y-74121523D01*
X133378057Y-74121523D01*
X133300648Y-74160228D01*
X133261943Y-74198932D01*
X133223238Y-74276342D01*
X132874895Y-73850590D02*
X133687695Y-73308723D01*
X132874895Y-73308723D02*
X133687695Y-73850590D01*
X132952305Y-73037790D02*
X132913600Y-72999085D01*
X132874895Y-72921676D01*
X132874895Y-72728152D01*
X132913600Y-72650742D01*
X132952305Y-72612038D01*
X133029714Y-72573333D01*
X133107124Y-72573333D01*
X133223238Y-72612038D01*
X133687695Y-73076495D01*
X133687695Y-72573333D01*
X108695067Y-55942895D02*
X108695067Y-56523467D01*
X108656363Y-56639581D01*
X108578953Y-56716990D01*
X108462839Y-56755695D01*
X108385429Y-56755695D01*
X109198229Y-56291238D02*
X109120820Y-56252533D01*
X109082115Y-56213829D01*
X109043410Y-56136419D01*
X109043410Y-56097714D01*
X109082115Y-56020305D01*
X109120820Y-55981600D01*
X109198229Y-55942895D01*
X109353048Y-55942895D01*
X109430458Y-55981600D01*
X109469162Y-56020305D01*
X109507867Y-56097714D01*
X109507867Y-56136419D01*
X109469162Y-56213829D01*
X109430458Y-56252533D01*
X109353048Y-56291238D01*
X109198229Y-56291238D01*
X109120820Y-56329943D01*
X109082115Y-56368648D01*
X109043410Y-56446057D01*
X109043410Y-56600876D01*
X109082115Y-56678286D01*
X109120820Y-56716990D01*
X109198229Y-56755695D01*
X109353048Y-56755695D01*
X109430458Y-56716990D01*
X109469162Y-56678286D01*
X109507867Y-56600876D01*
X109507867Y-56446057D01*
X109469162Y-56368648D01*
X109430458Y-56329943D01*
X109353048Y-56291238D01*
X120910286Y-68683504D02*
X120948990Y-68722209D01*
X120987695Y-68838323D01*
X120987695Y-68915733D01*
X120948990Y-69031847D01*
X120871581Y-69109256D01*
X120794171Y-69147961D01*
X120639352Y-69186666D01*
X120523238Y-69186666D01*
X120368419Y-69147961D01*
X120291010Y-69109256D01*
X120213600Y-69031847D01*
X120174895Y-68915733D01*
X120174895Y-68838323D01*
X120213600Y-68722209D01*
X120252305Y-68683504D01*
X120174895Y-68180342D02*
X120174895Y-68025523D01*
X120213600Y-67948114D01*
X120291010Y-67870704D01*
X120445829Y-67831999D01*
X120716762Y-67831999D01*
X120871581Y-67870704D01*
X120948990Y-67948114D01*
X120987695Y-68025523D01*
X120987695Y-68180342D01*
X120948990Y-68257752D01*
X120871581Y-68335161D01*
X120716762Y-68373866D01*
X120445829Y-68373866D01*
X120291010Y-68335161D01*
X120213600Y-68257752D01*
X120174895Y-68180342D01*
X120987695Y-67483656D02*
X120174895Y-67483656D01*
X120987695Y-67019199D01*
X120174895Y-67019199D01*
X120987695Y-66632151D02*
X120174895Y-66632151D01*
X120987695Y-66167694D01*
X120174895Y-66167694D01*
X121065105Y-65974170D02*
X121065105Y-65354894D01*
X120174895Y-65006551D02*
X120174895Y-64929142D01*
X120213600Y-64851732D01*
X120252305Y-64813027D01*
X120329714Y-64774323D01*
X120484533Y-64735618D01*
X120678057Y-64735618D01*
X120832876Y-64774323D01*
X120910286Y-64813027D01*
X120948990Y-64851732D01*
X120987695Y-64929142D01*
X120987695Y-65006551D01*
X120948990Y-65083961D01*
X120910286Y-65122665D01*
X120832876Y-65161370D01*
X120678057Y-65200075D01*
X120484533Y-65200075D01*
X120329714Y-65161370D01*
X120252305Y-65122665D01*
X120213600Y-65083961D01*
X120174895Y-65006551D01*
X120523238Y-64271161D02*
X120484533Y-64348570D01*
X120445829Y-64387275D01*
X120368419Y-64425980D01*
X120329714Y-64425980D01*
X120252305Y-64387275D01*
X120213600Y-64348570D01*
X120174895Y-64271161D01*
X120174895Y-64116342D01*
X120213600Y-64038932D01*
X120252305Y-64000228D01*
X120329714Y-63961523D01*
X120368419Y-63961523D01*
X120445829Y-64000228D01*
X120484533Y-64038932D01*
X120523238Y-64116342D01*
X120523238Y-64271161D01*
X120561943Y-64348570D01*
X120600648Y-64387275D01*
X120678057Y-64425980D01*
X120832876Y-64425980D01*
X120910286Y-64387275D01*
X120948990Y-64348570D01*
X120987695Y-64271161D01*
X120987695Y-64116342D01*
X120948990Y-64038932D01*
X120910286Y-64000228D01*
X120832876Y-63961523D01*
X120678057Y-63961523D01*
X120600648Y-64000228D01*
X120561943Y-64038932D01*
X120523238Y-64116342D01*
X120174895Y-63690590D02*
X120987695Y-63148723D01*
X120174895Y-63148723D02*
X120987695Y-63690590D01*
X120252305Y-62877790D02*
X120213600Y-62839085D01*
X120174895Y-62761676D01*
X120174895Y-62568152D01*
X120213600Y-62490742D01*
X120252305Y-62452038D01*
X120329714Y-62413333D01*
X120407124Y-62413333D01*
X120523238Y-62452038D01*
X120987695Y-62916495D01*
X120987695Y-62413333D01*
X117156895Y-71898933D02*
X117737467Y-71898933D01*
X117853581Y-71937637D01*
X117930990Y-72015047D01*
X117969695Y-72131161D01*
X117969695Y-72208571D01*
X117969695Y-71473180D02*
X117969695Y-71318361D01*
X117930990Y-71240952D01*
X117892286Y-71202247D01*
X117776171Y-71124838D01*
X117621352Y-71086133D01*
X117311714Y-71086133D01*
X117234305Y-71124838D01*
X117195600Y-71163542D01*
X117156895Y-71240952D01*
X117156895Y-71395771D01*
X117195600Y-71473180D01*
X117234305Y-71511885D01*
X117311714Y-71550590D01*
X117505238Y-71550590D01*
X117582648Y-71511885D01*
X117621352Y-71473180D01*
X117660057Y-71395771D01*
X117660057Y-71240952D01*
X117621352Y-71163542D01*
X117582648Y-71124838D01*
X117505238Y-71086133D01*
X111288286Y-74511504D02*
X111326990Y-74550209D01*
X111365695Y-74666323D01*
X111365695Y-74743733D01*
X111326990Y-74859847D01*
X111249581Y-74937256D01*
X111172171Y-74975961D01*
X111017352Y-75014666D01*
X110901238Y-75014666D01*
X110746419Y-74975961D01*
X110669010Y-74937256D01*
X110591600Y-74859847D01*
X110552895Y-74743733D01*
X110552895Y-74666323D01*
X110591600Y-74550209D01*
X110630305Y-74511504D01*
X110552895Y-74008342D02*
X110552895Y-73853523D01*
X110591600Y-73776114D01*
X110669010Y-73698704D01*
X110823829Y-73659999D01*
X111094762Y-73659999D01*
X111249581Y-73698704D01*
X111326990Y-73776114D01*
X111365695Y-73853523D01*
X111365695Y-74008342D01*
X111326990Y-74085752D01*
X111249581Y-74163161D01*
X111094762Y-74201866D01*
X110823829Y-74201866D01*
X110669010Y-74163161D01*
X110591600Y-74085752D01*
X110552895Y-74008342D01*
X111365695Y-73311656D02*
X110552895Y-73311656D01*
X111365695Y-72847199D01*
X110552895Y-72847199D01*
X111365695Y-72460151D02*
X110552895Y-72460151D01*
X111365695Y-71995694D01*
X110552895Y-71995694D01*
X111443105Y-71802170D02*
X111443105Y-71182894D01*
X110552895Y-70834551D02*
X110552895Y-70757142D01*
X110591600Y-70679732D01*
X110630305Y-70641027D01*
X110707714Y-70602323D01*
X110862533Y-70563618D01*
X111056057Y-70563618D01*
X111210876Y-70602323D01*
X111288286Y-70641027D01*
X111326990Y-70679732D01*
X111365695Y-70757142D01*
X111365695Y-70834551D01*
X111326990Y-70911961D01*
X111288286Y-70950665D01*
X111210876Y-70989370D01*
X111056057Y-71028075D01*
X110862533Y-71028075D01*
X110707714Y-70989370D01*
X110630305Y-70950665D01*
X110591600Y-70911961D01*
X110552895Y-70834551D01*
X110901238Y-70099161D02*
X110862533Y-70176570D01*
X110823829Y-70215275D01*
X110746419Y-70253980D01*
X110707714Y-70253980D01*
X110630305Y-70215275D01*
X110591600Y-70176570D01*
X110552895Y-70099161D01*
X110552895Y-69944342D01*
X110591600Y-69866932D01*
X110630305Y-69828228D01*
X110707714Y-69789523D01*
X110746419Y-69789523D01*
X110823829Y-69828228D01*
X110862533Y-69866932D01*
X110901238Y-69944342D01*
X110901238Y-70099161D01*
X110939943Y-70176570D01*
X110978648Y-70215275D01*
X111056057Y-70253980D01*
X111210876Y-70253980D01*
X111288286Y-70215275D01*
X111326990Y-70176570D01*
X111365695Y-70099161D01*
X111365695Y-69944342D01*
X111326990Y-69866932D01*
X111288286Y-69828228D01*
X111210876Y-69789523D01*
X111056057Y-69789523D01*
X110978648Y-69828228D01*
X110939943Y-69866932D01*
X110901238Y-69944342D01*
X110552895Y-69518590D02*
X111365695Y-68976723D01*
X110552895Y-68976723D02*
X111365695Y-69518590D01*
X110630305Y-68705790D02*
X110591600Y-68667085D01*
X110552895Y-68589676D01*
X110552895Y-68396152D01*
X110591600Y-68318742D01*
X110630305Y-68280038D01*
X110707714Y-68241333D01*
X110785124Y-68241333D01*
X110901238Y-68280038D01*
X111365695Y-68744495D01*
X111365695Y-68241333D01*
X117156895Y-93113981D02*
X117737467Y-93113981D01*
X117853581Y-93152685D01*
X117930990Y-93230095D01*
X117969695Y-93346209D01*
X117969695Y-93423619D01*
X117969695Y-92301181D02*
X117969695Y-92765638D01*
X117969695Y-92533409D02*
X117156895Y-92533409D01*
X117273010Y-92610819D01*
X117350419Y-92688228D01*
X117389124Y-92765638D01*
X117156895Y-91798019D02*
X117156895Y-91720610D01*
X117195600Y-91643200D01*
X117234305Y-91604495D01*
X117311714Y-91565791D01*
X117466533Y-91527086D01*
X117660057Y-91527086D01*
X117814876Y-91565791D01*
X117892286Y-91604495D01*
X117930990Y-91643200D01*
X117969695Y-91720610D01*
X117969695Y-91798019D01*
X117930990Y-91875429D01*
X117892286Y-91914133D01*
X117814876Y-91952838D01*
X117660057Y-91991543D01*
X117466533Y-91991543D01*
X117311714Y-91952838D01*
X117234305Y-91914133D01*
X117195600Y-91875429D01*
X117156895Y-91798019D01*
X111288286Y-95339504D02*
X111326990Y-95378209D01*
X111365695Y-95494323D01*
X111365695Y-95571733D01*
X111326990Y-95687847D01*
X111249581Y-95765256D01*
X111172171Y-95803961D01*
X111017352Y-95842666D01*
X110901238Y-95842666D01*
X110746419Y-95803961D01*
X110669010Y-95765256D01*
X110591600Y-95687847D01*
X110552895Y-95571733D01*
X110552895Y-95494323D01*
X110591600Y-95378209D01*
X110630305Y-95339504D01*
X110552895Y-94836342D02*
X110552895Y-94681523D01*
X110591600Y-94604114D01*
X110669010Y-94526704D01*
X110823829Y-94487999D01*
X111094762Y-94487999D01*
X111249581Y-94526704D01*
X111326990Y-94604114D01*
X111365695Y-94681523D01*
X111365695Y-94836342D01*
X111326990Y-94913752D01*
X111249581Y-94991161D01*
X111094762Y-95029866D01*
X110823829Y-95029866D01*
X110669010Y-94991161D01*
X110591600Y-94913752D01*
X110552895Y-94836342D01*
X111365695Y-94139656D02*
X110552895Y-94139656D01*
X111365695Y-93675199D01*
X110552895Y-93675199D01*
X111365695Y-93288151D02*
X110552895Y-93288151D01*
X111365695Y-92823694D01*
X110552895Y-92823694D01*
X111443105Y-92630170D02*
X111443105Y-92010894D01*
X110552895Y-91662551D02*
X110552895Y-91585142D01*
X110591600Y-91507732D01*
X110630305Y-91469027D01*
X110707714Y-91430323D01*
X110862533Y-91391618D01*
X111056057Y-91391618D01*
X111210876Y-91430323D01*
X111288286Y-91469027D01*
X111326990Y-91507732D01*
X111365695Y-91585142D01*
X111365695Y-91662551D01*
X111326990Y-91739961D01*
X111288286Y-91778665D01*
X111210876Y-91817370D01*
X111056057Y-91856075D01*
X110862533Y-91856075D01*
X110707714Y-91817370D01*
X110630305Y-91778665D01*
X110591600Y-91739961D01*
X110552895Y-91662551D01*
X110901238Y-90927161D02*
X110862533Y-91004570D01*
X110823829Y-91043275D01*
X110746419Y-91081980D01*
X110707714Y-91081980D01*
X110630305Y-91043275D01*
X110591600Y-91004570D01*
X110552895Y-90927161D01*
X110552895Y-90772342D01*
X110591600Y-90694932D01*
X110630305Y-90656228D01*
X110707714Y-90617523D01*
X110746419Y-90617523D01*
X110823829Y-90656228D01*
X110862533Y-90694932D01*
X110901238Y-90772342D01*
X110901238Y-90927161D01*
X110939943Y-91004570D01*
X110978648Y-91043275D01*
X111056057Y-91081980D01*
X111210876Y-91081980D01*
X111288286Y-91043275D01*
X111326990Y-91004570D01*
X111365695Y-90927161D01*
X111365695Y-90772342D01*
X111326990Y-90694932D01*
X111288286Y-90656228D01*
X111210876Y-90617523D01*
X111056057Y-90617523D01*
X110978648Y-90656228D01*
X110939943Y-90694932D01*
X110901238Y-90772342D01*
X110552895Y-90346590D02*
X111365695Y-89804723D01*
X110552895Y-89804723D02*
X111365695Y-90346590D01*
X110630305Y-89533790D02*
X110591600Y-89495085D01*
X110552895Y-89417676D01*
X110552895Y-89224152D01*
X110591600Y-89146742D01*
X110630305Y-89108038D01*
X110707714Y-89069333D01*
X110785124Y-89069333D01*
X110901238Y-89108038D01*
X111365695Y-89572495D01*
X111365695Y-89069333D01*
X132674781Y-73351695D02*
X132403848Y-72964648D01*
X132210324Y-73351695D02*
X132210324Y-72538895D01*
X132519962Y-72538895D01*
X132597371Y-72577600D01*
X132636076Y-72616305D01*
X132674781Y-72693714D01*
X132674781Y-72809829D01*
X132636076Y-72887238D01*
X132597371Y-72925943D01*
X132519962Y-72964648D01*
X132210324Y-72964648D01*
X133023124Y-73351695D02*
X133023124Y-72538895D01*
X133487581Y-73351695D01*
X133487581Y-72538895D01*
X134300381Y-73351695D02*
X133835924Y-73351695D01*
X134068153Y-73351695D02*
X134068153Y-72538895D01*
X133990743Y-72655010D01*
X133913334Y-72732419D01*
X133835924Y-72771124D01*
M02*
