G04 #@! TF.FileFunction,Copper,L2,Bot,Signal*
%FSLAX46Y46*%
G04 Gerber Fmt 4.6, Leading zero omitted, Abs format (unit mm)*
G04 Created by KiCad (PCBNEW 4.0.7) date 04/09/18 16:02:50*
%MOMM*%
%LPD*%
G01*
G04 APERTURE LIST*
%ADD10C,0.100000*%
%ADD11C,0.254000*%
%ADD12R,1.270000X0.635000*%
%ADD13R,1.600000X1.600000*%
%ADD14O,1.600000X1.600000*%
%ADD15C,1.879600*%
%ADD16R,1.810000X1.810000*%
%ADD17C,1.810000*%
%ADD18C,0.950000*%
%ADD19C,0.762000*%
%ADD20C,0.250000*%
%ADD21C,0.152400*%
G04 APERTURE END LIST*
D10*
D11*
X107188000Y-82296000D02*
X107188000Y-81280000D01*
X107188000Y-77216000D02*
X107188000Y-76200000D01*
X137160000Y-107188000D02*
X137160000Y-108204000D01*
X130556000Y-82804000D02*
X130556000Y-83820000D01*
D12*
X107188000Y-83312000D03*
X107188000Y-82296000D03*
X107188000Y-81280000D03*
X107188000Y-78232000D03*
X107188000Y-77216000D03*
X107188000Y-76200000D03*
D13*
X127000000Y-110490000D03*
D14*
X147320000Y-102870000D03*
X129540000Y-110490000D03*
X144780000Y-102870000D03*
X132080000Y-110490000D03*
X142240000Y-102870000D03*
X134620000Y-110490000D03*
X139700000Y-102870000D03*
X137160000Y-110490000D03*
X137160000Y-102870000D03*
X139700000Y-110490000D03*
X134620000Y-102870000D03*
X142240000Y-110490000D03*
X132080000Y-102870000D03*
X144780000Y-110490000D03*
X129540000Y-102870000D03*
X147320000Y-110490000D03*
X127000000Y-102870000D03*
D12*
X137160000Y-107188000D03*
X137160000Y-108204000D03*
X134620000Y-107289600D03*
X134620000Y-108102400D03*
X132080000Y-107289600D03*
X132080000Y-108102400D03*
D13*
X122936000Y-86360000D03*
D14*
X143256000Y-78740000D03*
X125476000Y-86360000D03*
X140716000Y-78740000D03*
X128016000Y-86360000D03*
X138176000Y-78740000D03*
X130556000Y-86360000D03*
X135636000Y-78740000D03*
X133096000Y-86360000D03*
X133096000Y-78740000D03*
X135636000Y-86360000D03*
X130556000Y-78740000D03*
X138176000Y-86360000D03*
X128016000Y-78740000D03*
X140716000Y-86360000D03*
X125476000Y-78740000D03*
X143256000Y-86360000D03*
X122936000Y-78740000D03*
D12*
X133096000Y-82905600D03*
X133096000Y-83718400D03*
X130556000Y-82804000D03*
X130556000Y-83820000D03*
X128016000Y-82905600D03*
X128016000Y-83718400D03*
D15*
X152400000Y-99060000D03*
X152400000Y-96520000D03*
X124510800Y-68440300D03*
X152400000Y-83820000D03*
X152400000Y-81280000D03*
X152400000Y-78740000D03*
X152400000Y-76200000D03*
X152400000Y-73660000D03*
X152400000Y-71120000D03*
X104140000Y-110744000D03*
X104140000Y-76200000D03*
X104140000Y-78740000D03*
X104140000Y-81280000D03*
X104140000Y-83820000D03*
X104140000Y-86360000D03*
X104140000Y-88900000D03*
X104140000Y-92964000D03*
X104140000Y-95504000D03*
X104140000Y-98044000D03*
X104140000Y-100584000D03*
X104140000Y-103124000D03*
X104140000Y-105664000D03*
X152400000Y-93980000D03*
X152400000Y-91440000D03*
X104140000Y-108204000D03*
X129588260Y-68440300D03*
X152400000Y-104140000D03*
X124510800Y-70980300D03*
X127050800Y-68440300D03*
X152400000Y-106680000D03*
X152400000Y-101600000D03*
X129588260Y-70980300D03*
X104140000Y-71120000D03*
X127050800Y-70980300D03*
X104140000Y-115824000D03*
X104140000Y-113284000D03*
X104140000Y-73660000D03*
X152400000Y-88900000D03*
X158750000Y-88900000D03*
X161290000Y-88900000D03*
X158750000Y-91440000D03*
X161290000Y-91440000D03*
X158750000Y-93980000D03*
X161290000Y-93980000D03*
X158750000Y-96520000D03*
X161290000Y-96520000D03*
X158750000Y-99060000D03*
X161290000Y-99060000D03*
X158750000Y-101600000D03*
X161290000Y-101600000D03*
X158750000Y-104140000D03*
X161290000Y-104140000D03*
X158750000Y-106680000D03*
X161290000Y-106680000D03*
X158750000Y-57150000D03*
X161290000Y-57150000D03*
X158750000Y-59690000D03*
X161290000Y-59690000D03*
X158750000Y-62230000D03*
X161290000Y-62230000D03*
X158750000Y-64770000D03*
X161290000Y-64770000D03*
X158750000Y-67310000D03*
X161290000Y-67310000D03*
X158750000Y-69850000D03*
X161290000Y-69850000D03*
X158750000Y-72390000D03*
X161290000Y-72390000D03*
X158750000Y-74930000D03*
X161290000Y-74930000D03*
X168910000Y-88900000D03*
X171450000Y-88900000D03*
X168910000Y-91440000D03*
X171450000Y-91440000D03*
X168910000Y-93980000D03*
X171450000Y-93980000D03*
X168910000Y-96520000D03*
X171450000Y-96520000D03*
X168910000Y-99060000D03*
X171450000Y-99060000D03*
X168910000Y-101600000D03*
X171450000Y-101600000D03*
X168910000Y-104140000D03*
X171450000Y-104140000D03*
X168910000Y-106680000D03*
X171450000Y-106680000D03*
X168910000Y-57150000D03*
X171450000Y-57150000D03*
X168910000Y-59690000D03*
X171450000Y-59690000D03*
X168910000Y-62230000D03*
X171450000Y-62230000D03*
X168910000Y-64770000D03*
X171450000Y-64770000D03*
X168910000Y-67310000D03*
X171450000Y-67310000D03*
X168910000Y-69850000D03*
X171450000Y-69850000D03*
X168910000Y-72390000D03*
X171450000Y-72390000D03*
X168910000Y-74930000D03*
X171450000Y-74930000D03*
X97790000Y-116840000D03*
X95250000Y-116840000D03*
X97790000Y-114300000D03*
X95250000Y-114300000D03*
X97790000Y-111760000D03*
X95250000Y-111760000D03*
X97790000Y-109220000D03*
X95250000Y-109220000D03*
X97790000Y-106680000D03*
X95250000Y-106680000D03*
X97790000Y-104140000D03*
X95250000Y-104140000D03*
X97790000Y-101600000D03*
X95250000Y-101600000D03*
X97790000Y-99060000D03*
X95250000Y-99060000D03*
X97790000Y-85090000D03*
X95250000Y-85090000D03*
X97790000Y-82550000D03*
X95250000Y-82550000D03*
X97790000Y-80010000D03*
X95250000Y-80010000D03*
X97790000Y-77470000D03*
X95250000Y-77470000D03*
X97790000Y-74930000D03*
X95250000Y-74930000D03*
X97790000Y-72390000D03*
X95250000Y-72390000D03*
X97790000Y-69850000D03*
X95250000Y-69850000D03*
X97790000Y-67310000D03*
X95250000Y-67310000D03*
X125730000Y-62230000D03*
X125730000Y-59690000D03*
X128270000Y-62230000D03*
X128270000Y-59690000D03*
X130810000Y-62230000D03*
X130810000Y-59690000D03*
X133350000Y-62230000D03*
X133350000Y-59690000D03*
X135890000Y-62230000D03*
X135890000Y-59690000D03*
X138430000Y-62230000D03*
X138430000Y-59690000D03*
X140970000Y-62230000D03*
X140970000Y-59690000D03*
X143510000Y-62230000D03*
X143510000Y-59690000D03*
X113030000Y-52070000D03*
X113030000Y-49530000D03*
X115570000Y-52070000D03*
X115570000Y-49530000D03*
X118110000Y-52070000D03*
X118110000Y-49530000D03*
X120650000Y-52070000D03*
X120650000Y-49530000D03*
X123190000Y-52070000D03*
X123190000Y-49530000D03*
X125730000Y-52070000D03*
X125730000Y-49530000D03*
X128270000Y-52070000D03*
X128270000Y-49530000D03*
X130810000Y-52070000D03*
X130810000Y-49530000D03*
X113284000Y-71628000D03*
X115824000Y-71628000D03*
X113284000Y-74168000D03*
X115824000Y-74168000D03*
X113284000Y-76708000D03*
X115824000Y-76708000D03*
X113284000Y-79248000D03*
X115824000Y-79248000D03*
X113284000Y-81788000D03*
X115824000Y-81788000D03*
X113284000Y-84328000D03*
X115824000Y-84328000D03*
X113284000Y-86868000D03*
X115824000Y-86868000D03*
X113284000Y-89408000D03*
X115824000Y-89408000D03*
X113284000Y-92456000D03*
X115824000Y-92456000D03*
X113284000Y-94996000D03*
X115824000Y-94996000D03*
X113284000Y-97536000D03*
X115824000Y-97536000D03*
X113284000Y-100076000D03*
X115824000Y-100076000D03*
X113284000Y-102616000D03*
X115824000Y-102616000D03*
X113284000Y-105156000D03*
X115824000Y-105156000D03*
X113284000Y-107696000D03*
X115824000Y-107696000D03*
X113284000Y-110236000D03*
X115824000Y-110236000D03*
D16*
X122936000Y-75184000D03*
D17*
X125476000Y-75184000D03*
X128016000Y-75184000D03*
X130556000Y-75184000D03*
X133096000Y-75184000D03*
X135636000Y-75184000D03*
X138176000Y-75184000D03*
X140716000Y-75184000D03*
X143256000Y-75184000D03*
D18*
X134112000Y-54610000D03*
X125730000Y-56388000D03*
X130302000Y-56896000D03*
X120904000Y-56642000D03*
X110490000Y-56642000D03*
X119380000Y-63754000D03*
X124968000Y-65024000D03*
X128270000Y-65024000D03*
X144018000Y-68072000D03*
X141986000Y-70612000D03*
X137922000Y-70104000D03*
X101854000Y-87630000D03*
X151130000Y-110490000D03*
X125730000Y-93218000D03*
X137414000Y-82296000D03*
X122428000Y-83058000D03*
D19*
X148709898Y-94456973D03*
X148256900Y-88337700D03*
X122794340Y-54210452D03*
X155306800Y-96544700D03*
X98776500Y-89539000D03*
X139367300Y-89776800D03*
X150655000Y-71673100D03*
X126368145Y-84548353D03*
X125181360Y-84427694D03*
X127527427Y-108603288D03*
X118648000Y-96246500D03*
D20*
X121655600Y-76284300D02*
X122936000Y-77564700D01*
X121655600Y-71295500D02*
X121655600Y-76284300D01*
X124510800Y-68440300D02*
X121655600Y-71295500D01*
X136048100Y-107289600D02*
X136149700Y-107188000D01*
X134620000Y-107289600D02*
X136048100Y-107289600D01*
X122936000Y-78740000D02*
X122936000Y-77564700D01*
X131984100Y-82804000D02*
X132085700Y-82905600D01*
X130556000Y-82804000D02*
X131984100Y-82804000D01*
X133096000Y-82905600D02*
X132085700Y-82905600D01*
X132080000Y-107289600D02*
X132080000Y-107116400D01*
X133436500Y-107116400D02*
X133609700Y-107289600D01*
X132080000Y-107116400D02*
X133436500Y-107116400D01*
X134620000Y-107289600D02*
X133609700Y-107289600D01*
X136654900Y-107188000D02*
X136149700Y-107188000D01*
X128175300Y-103211700D02*
X132080000Y-107116400D01*
X128175300Y-102870000D02*
X128175300Y-103211700D01*
X130556000Y-82804000D02*
X129545700Y-82804000D01*
X127000000Y-102870000D02*
X127587700Y-102870000D01*
X127587700Y-102870000D02*
X128175300Y-102870000D01*
X129206600Y-101251100D02*
X129206600Y-82905600D01*
X127587700Y-102870000D02*
X129206600Y-101251100D01*
X129444100Y-82905600D02*
X129545700Y-82804000D01*
X129206600Y-82905600D02*
X129444100Y-82905600D01*
X136654900Y-107188000D02*
X136907500Y-107188000D01*
X136907500Y-107188000D02*
X137160000Y-107188000D01*
X146830100Y-96520000D02*
X152400000Y-96520000D01*
X140970000Y-102380100D02*
X146830100Y-96520000D01*
X140970000Y-103281100D02*
X140970000Y-102380100D01*
X137063100Y-107188000D02*
X140970000Y-103281100D01*
X136907500Y-107188000D02*
X137063100Y-107188000D01*
X129206600Y-82905600D02*
X128016000Y-82905600D01*
X124015400Y-79915300D02*
X122936000Y-79915300D01*
X127005700Y-82905600D02*
X124015400Y-79915300D01*
X128016000Y-82905600D02*
X127005700Y-82905600D01*
X122936000Y-78740000D02*
X122936000Y-79915300D01*
D21*
X104140000Y-76200000D02*
X107188000Y-76200000D01*
X105793500Y-78740000D02*
X106301500Y-78232000D01*
X104140000Y-78740000D02*
X105793500Y-78740000D01*
X107188000Y-78232000D02*
X106301500Y-78232000D01*
X104140000Y-81280000D02*
X107188000Y-81280000D01*
X105793500Y-83820000D02*
X106301500Y-83312000D01*
X104140000Y-83820000D02*
X105793500Y-83820000D01*
X107188000Y-83312000D02*
X106301500Y-83312000D01*
D20*
X152400000Y-91440000D02*
X151307514Y-92532486D01*
X151307514Y-92532486D02*
X151307514Y-92887514D01*
X151307514Y-92887514D02*
X152400000Y-93980000D01*
X133096000Y-54102000D02*
X133604000Y-54102000D01*
X133604000Y-54102000D02*
X134112000Y-54610000D01*
X130302000Y-56896000D02*
X133096000Y-54102000D01*
X119380000Y-63754000D02*
X119380000Y-58166000D01*
X119380000Y-58166000D02*
X120904000Y-56642000D01*
X120937001Y-64549001D02*
X120175001Y-64549001D01*
X120175001Y-64549001D02*
X119380000Y-63754000D01*
X124968000Y-65024000D02*
X124493001Y-64549001D01*
X124493001Y-64549001D02*
X120937001Y-64549001D01*
X132080000Y-66040000D02*
X133858000Y-66040000D01*
X133858000Y-66040000D02*
X137922000Y-70104000D01*
X130619499Y-67500501D02*
X132080000Y-66040000D01*
X129588260Y-68440300D02*
X130528059Y-67500501D01*
X130528059Y-67500501D02*
X130619499Y-67500501D01*
X104140000Y-108204000D02*
X101854000Y-105918000D01*
X101854000Y-105918000D02*
X101854000Y-87630000D01*
X104140000Y-108204000D02*
X101346000Y-105410000D01*
X147320000Y-110490000D02*
X151130000Y-110490000D01*
X150460600Y-110490000D02*
X147320000Y-110490000D01*
X153724100Y-107226500D02*
X150460600Y-110490000D01*
X153724100Y-95304100D02*
X153724100Y-107226500D01*
X152400000Y-93980000D02*
X153724100Y-95304100D01*
D21*
X111039500Y-99780500D02*
X113284000Y-97536000D01*
X111039500Y-103105900D02*
X111039500Y-99780500D01*
X104618400Y-109527000D02*
X111039500Y-103105900D01*
X103574700Y-109527000D02*
X104618400Y-109527000D01*
X102889300Y-110212400D02*
X103574700Y-109527000D01*
X102889300Y-114573300D02*
X102889300Y-110212400D01*
X104140000Y-115824000D02*
X102889300Y-114573300D01*
X105488600Y-111935400D02*
X104140000Y-113284000D01*
X105488600Y-110411400D02*
X105488600Y-111935400D01*
X113284000Y-102616000D02*
X105488600Y-110411400D01*
X107188000Y-82296000D02*
X108074500Y-82296000D01*
X108074500Y-79377500D02*
X108074500Y-82296000D01*
X113284000Y-74168000D02*
X108074500Y-79377500D01*
X108074500Y-89786500D02*
X108074500Y-82296000D01*
X113284000Y-94996000D02*
X108074500Y-89786500D01*
X148328899Y-94075974D02*
X148709898Y-94456973D01*
X148256900Y-94003975D02*
X148328899Y-94075974D01*
X148256900Y-88337700D02*
X148256900Y-94003975D01*
X158750000Y-57150000D02*
X157310134Y-58589866D01*
X146951322Y-62608500D02*
X145195312Y-60852490D01*
X157310134Y-58589866D02*
X157310134Y-60500830D01*
X155202464Y-62608500D02*
X146951322Y-62608500D01*
X157310134Y-60500830D02*
X155202464Y-62608500D01*
X145195312Y-60852490D02*
X145195312Y-59149601D01*
X145195312Y-59149601D02*
X144046944Y-58001233D01*
X144046944Y-58001233D02*
X141827901Y-58001233D01*
X141827901Y-58001233D02*
X131757336Y-47930668D01*
X131757336Y-47930668D02*
X117992332Y-47930668D01*
X117992332Y-47930668D02*
X116840000Y-49083000D01*
X116840000Y-49083000D02*
X116840000Y-49948600D01*
X116840000Y-49948600D02*
X115988600Y-50800000D01*
X115988600Y-50800000D02*
X114300000Y-50800000D01*
X114300000Y-50800000D02*
X113969799Y-51130201D01*
X113969799Y-51130201D02*
X113030000Y-52070000D01*
X125730000Y-62230000D02*
X122348416Y-58848416D01*
X122348416Y-58848416D02*
X122348416Y-55253841D01*
X122348416Y-55253841D02*
X121902422Y-54807847D01*
X101943840Y-69803712D02*
X99975060Y-71772492D01*
X121902422Y-54807847D02*
X117191616Y-54807847D01*
X117191616Y-54807847D02*
X102195751Y-69803712D01*
X102195751Y-69803712D02*
X101943840Y-69803712D01*
X99975060Y-71772492D02*
X99975060Y-82904940D01*
X99975060Y-82904940D02*
X98729799Y-84150201D01*
X98729799Y-84150201D02*
X97790000Y-85090000D01*
X170127700Y-58367700D02*
X168910000Y-57150000D01*
X170127700Y-70338100D02*
X170127700Y-58367700D01*
X169345800Y-71120000D02*
X170127700Y-70338100D01*
X168488600Y-71120000D02*
X169345800Y-71120000D01*
X167713000Y-71895600D02*
X168488600Y-71120000D01*
X167713000Y-87703000D02*
X167713000Y-71895600D01*
X168910000Y-88900000D02*
X167713000Y-87703000D01*
X100026400Y-87326400D02*
X97790000Y-85090000D01*
X100026400Y-114603600D02*
X100026400Y-87326400D01*
X97790000Y-116840000D02*
X100026400Y-114603600D01*
X158750000Y-59690000D02*
X155474800Y-62965200D01*
X155474800Y-62965200D02*
X146714581Y-62965200D01*
X146714581Y-62965200D02*
X144867901Y-61118520D01*
X144867901Y-59285219D02*
X143911326Y-58328644D01*
X143911326Y-58328644D02*
X130175144Y-58328644D01*
X144867901Y-61118520D02*
X144867901Y-59285219D01*
X130175144Y-58328644D02*
X129540000Y-57693500D01*
X129500799Y-57654299D02*
X129500799Y-56511423D01*
X129540000Y-57693500D02*
X129500799Y-57654299D01*
X116509799Y-51130201D02*
X115570000Y-52070000D01*
X116918600Y-50721400D02*
X116509799Y-51130201D01*
X119380000Y-49965700D02*
X118624300Y-50721400D01*
X119380000Y-49105600D02*
X119380000Y-49965700D01*
X128787600Y-48338200D02*
X120147400Y-48338200D01*
X129540000Y-56472222D02*
X129540000Y-49090600D01*
X120147400Y-48338200D02*
X119380000Y-49105600D01*
X129500799Y-56511423D02*
X129540000Y-56472222D01*
X118624300Y-50721400D02*
X116918600Y-50721400D01*
X129540000Y-49090600D02*
X128787600Y-48338200D01*
X115570000Y-53399077D02*
X115570000Y-52070000D01*
X115570000Y-54114700D02*
X115570000Y-53399077D01*
X98564700Y-71120000D02*
X115570000Y-54114700D01*
X96549943Y-71783650D02*
X97213593Y-71120000D01*
X96549943Y-81309943D02*
X96549943Y-71783650D01*
X97790000Y-82550000D02*
X96549943Y-81309943D01*
X97213593Y-71120000D02*
X98564700Y-71120000D01*
X127060700Y-61020700D02*
X128270000Y-62230000D01*
X127060700Y-59175900D02*
X127060700Y-61020700D01*
X128543100Y-57693500D02*
X127060700Y-59175900D01*
X129540000Y-57693500D02*
X128543100Y-57693500D01*
X96575100Y-83764900D02*
X97790000Y-82550000D01*
X96575100Y-86443000D02*
X96575100Y-83764900D01*
X99698700Y-89566600D02*
X96575100Y-86443000D01*
X99698700Y-112391300D02*
X99698700Y-89566600D01*
X97790000Y-114300000D02*
X99698700Y-112391300D01*
X130810000Y-62230000D02*
X132013600Y-61026400D01*
X132013600Y-61026400D02*
X144187290Y-61026400D01*
X144187290Y-61026400D02*
X146453890Y-63293000D01*
X146453890Y-63293000D02*
X155668768Y-63293000D01*
X155668768Y-63293000D02*
X157073509Y-61888259D01*
X157073509Y-61888259D02*
X157575259Y-61888259D01*
X157575259Y-61888259D02*
X158619500Y-62932500D01*
X158619500Y-62932500D02*
X159189840Y-62932500D01*
X159180000Y-68580000D02*
X158276500Y-68580000D01*
X159189840Y-62932500D02*
X159967100Y-63709760D01*
X159967100Y-63709760D02*
X159967100Y-67792900D01*
X159967100Y-67792900D02*
X159180000Y-68580000D01*
X158276500Y-68580000D02*
X157496300Y-69360200D01*
X157496300Y-69360200D02*
X157496300Y-92726300D01*
X157496300Y-92726300D02*
X158750000Y-93980000D01*
X158619500Y-62360500D02*
X158750000Y-62230000D01*
X158619500Y-62932500D02*
X158619500Y-62360500D01*
X116804087Y-54480436D02*
X121985541Y-54480436D01*
X99384620Y-71899903D02*
X116804087Y-54480436D01*
X99384620Y-75875380D02*
X99384620Y-71899903D01*
X122255525Y-54210452D02*
X122794340Y-54210452D01*
X121985541Y-54480436D02*
X122255525Y-54210452D01*
X97790000Y-77470000D02*
X99384620Y-75875380D01*
X140445000Y-87700000D02*
X139810685Y-87700000D01*
X139810685Y-87700000D02*
X139367300Y-88143385D01*
X139367300Y-88143385D02*
X139367300Y-89776800D01*
X133350000Y-62230000D02*
X139446000Y-68326000D01*
X139446000Y-68326000D02*
X139446000Y-87070420D01*
X139446000Y-87070420D02*
X140075580Y-87700000D01*
X140075580Y-87700000D02*
X140445000Y-87700000D01*
X167384900Y-94994900D02*
X168910000Y-96520000D01*
X167384900Y-66295100D02*
X167384900Y-94994900D01*
X168910000Y-64770000D02*
X167384900Y-66295100D01*
X99371000Y-107639000D02*
X97790000Y-109220000D01*
X99371000Y-90133500D02*
X99371000Y-107639000D01*
X98776500Y-89539000D02*
X99371000Y-90133500D01*
X155306800Y-92526700D02*
X155306800Y-96544700D01*
X152897000Y-90116900D02*
X155306800Y-92526700D01*
X151487100Y-90116900D02*
X152897000Y-90116900D01*
X149070200Y-87700000D02*
X151487100Y-90116900D01*
X140445000Y-87700000D02*
X149070200Y-87700000D01*
X99057209Y-73662791D02*
X98729799Y-73990201D01*
X98729799Y-73990201D02*
X97790000Y-74930000D01*
X99057209Y-71764285D02*
X99057209Y-73662791D01*
X121106975Y-54153025D02*
X116668469Y-54153025D01*
X123190000Y-52070000D02*
X121106975Y-54153025D01*
X116668469Y-54153025D02*
X99057209Y-71764285D01*
X145978700Y-72318700D02*
X157168500Y-72318700D01*
X135890000Y-62230000D02*
X145978700Y-72318700D01*
X157168500Y-97478500D02*
X157168500Y-72318700D01*
X158750000Y-99060000D02*
X157168500Y-97478500D01*
X157168500Y-68891500D02*
X158750000Y-67310000D01*
X157168500Y-72318700D02*
X157168500Y-68891500D01*
X98729799Y-71450201D02*
X97790000Y-72390000D01*
X120871456Y-53825614D02*
X116354386Y-53825614D01*
X116354386Y-53825614D02*
X98729799Y-71450201D01*
X121920931Y-51623722D02*
X121920931Y-52776139D01*
X121920931Y-52776139D02*
X120871456Y-53825614D01*
X122720985Y-50823667D02*
X121920931Y-51623722D01*
X124483667Y-50823667D02*
X122720985Y-50823667D01*
X125730000Y-52070000D02*
X124483667Y-50823667D01*
X165100000Y-97790000D02*
X168910000Y-101600000D01*
X165100000Y-80456900D02*
X165100000Y-97790000D01*
X160019800Y-75376700D02*
X165100000Y-80456900D01*
X160019800Y-71119800D02*
X160019800Y-75376700D01*
X158750000Y-69850000D02*
X160019800Y-71119800D01*
X97790000Y-69850000D02*
X96598600Y-68658600D01*
X96598600Y-68658600D02*
X96598600Y-66941900D01*
X96598600Y-66941900D02*
X95767800Y-66111100D01*
X94037200Y-86091255D02*
X99005300Y-91059355D01*
X95767800Y-66111100D02*
X94751200Y-66111100D01*
X94751200Y-66111100D02*
X94037200Y-66825100D01*
X94037200Y-66825100D02*
X94037200Y-86091255D01*
X99005300Y-91059355D02*
X99005300Y-100384700D01*
X99005300Y-100384700D02*
X97790000Y-101600000D01*
X170180000Y-102870000D02*
X168910000Y-104140000D01*
X170180000Y-73660000D02*
X170180000Y-102870000D01*
X168910000Y-72390000D02*
X170180000Y-73660000D01*
X143510000Y-62230000D02*
X143963428Y-62230000D01*
X143963428Y-62230000D02*
X150655000Y-68921572D01*
X150655000Y-68921572D02*
X150655000Y-71673100D01*
X97790000Y-99060000D02*
X98434406Y-98415594D01*
X98434406Y-98415594D02*
X98434406Y-91221787D01*
X98434406Y-91221787D02*
X93709400Y-86496781D01*
X93709400Y-86496781D02*
X93709400Y-66689400D01*
X93709400Y-66689400D02*
X94615500Y-65783300D01*
X94615500Y-65783300D02*
X96263300Y-65783300D01*
X96263300Y-65783300D02*
X97790000Y-67310000D01*
X160020000Y-105410000D02*
X158750000Y-106680000D01*
X160020000Y-76200000D02*
X160020000Y-105410000D01*
X158750000Y-74930000D02*
X160020000Y-76200000D01*
X107188000Y-77216000D02*
X108074500Y-77216000D01*
X113051700Y-72238800D02*
X108074500Y-77216000D01*
X113051700Y-71860300D02*
X113051700Y-72238800D01*
X113284000Y-71628000D02*
X113051700Y-71860300D01*
X111744500Y-90916500D02*
X113284000Y-92456000D01*
X111744500Y-81584000D02*
X111744500Y-90916500D01*
X112810500Y-80518000D02*
X111744500Y-81584000D01*
X113714300Y-80518000D02*
X112810500Y-80518000D01*
X114475400Y-79756900D02*
X113714300Y-80518000D01*
X114475400Y-73662500D02*
X114475400Y-79756900D01*
X113051700Y-72238800D02*
X114475400Y-73662500D01*
X161290000Y-104140000D02*
X161290000Y-101600000D01*
X161290000Y-101600000D02*
X161290000Y-99060000D01*
X161290000Y-99060000D02*
X161290000Y-96520000D01*
X161290000Y-96520000D02*
X161290000Y-93980000D01*
X161290000Y-93980000D02*
X161290000Y-91440000D01*
X161290000Y-91440000D02*
X161290000Y-88900000D01*
X143256000Y-78740000D02*
X143256000Y-75184000D01*
X143256000Y-78740000D02*
X144307500Y-78740000D01*
X161290000Y-104140000D02*
X161290000Y-106680000D01*
X156840700Y-91273200D02*
X144307500Y-78740000D01*
X156840700Y-106484400D02*
X156840700Y-91273200D01*
X158247100Y-107890800D02*
X156840700Y-106484400D01*
X160079200Y-107890800D02*
X158247100Y-107890800D01*
X161290000Y-106680000D02*
X160079200Y-107890800D01*
X161290000Y-74930000D02*
X161290000Y-72390000D01*
X161290000Y-72390000D02*
X161290000Y-69850000D01*
X161290000Y-69850000D02*
X161290000Y-67310000D01*
X161290000Y-67310000D02*
X161290000Y-64770000D01*
X161290000Y-64770000D02*
X161290000Y-62230000D01*
X161290000Y-62230000D02*
X161290000Y-59690000D01*
X161290000Y-59690000D02*
X161290000Y-57150000D01*
X140716000Y-78740000D02*
X140716000Y-75184000D01*
X171450000Y-106680000D02*
X171450000Y-104140000D01*
X171450000Y-104140000D02*
X171450000Y-101600000D01*
X171450000Y-101600000D02*
X171450000Y-99060000D01*
X171450000Y-99060000D02*
X171450000Y-96520000D01*
X171450000Y-96520000D02*
X171450000Y-93980000D01*
X171450000Y-93980000D02*
X171450000Y-91440000D01*
X171450000Y-91440000D02*
X171450000Y-88900000D01*
X138176000Y-78740000D02*
X138176000Y-75184000D01*
X171450000Y-74930000D02*
X171450000Y-72390000D01*
X171450000Y-72390000D02*
X171450000Y-69850000D01*
X171450000Y-69850000D02*
X171450000Y-67310000D01*
X171450000Y-67310000D02*
X171450000Y-64770000D01*
X171450000Y-64770000D02*
X171450000Y-62230000D01*
X171450000Y-62230000D02*
X171450000Y-59690000D01*
X171450000Y-59690000D02*
X171450000Y-57150000D01*
X95250000Y-99060000D02*
X95250000Y-101600000D01*
X95250000Y-101600000D02*
X95250000Y-104140000D01*
X95250000Y-104140000D02*
X95250000Y-106680000D01*
X95250000Y-106680000D02*
X95250000Y-109220000D01*
X95250000Y-109220000D02*
X95250000Y-111760000D01*
X95250000Y-114300000D02*
X95250000Y-116840000D01*
X95250000Y-67310000D02*
X95250000Y-69850000D01*
X95250000Y-69850000D02*
X95250000Y-72390000D01*
X95250000Y-72390000D02*
X95250000Y-74930000D01*
X95250000Y-74930000D02*
X95250000Y-77470000D01*
X95250000Y-77470000D02*
X95250000Y-80010000D01*
X95250000Y-80010000D02*
X95250000Y-82550000D01*
X95250000Y-82550000D02*
X95250000Y-85090000D01*
X130556000Y-78740000D02*
X130556000Y-75184000D01*
X143510000Y-59690000D02*
X140970000Y-59690000D01*
X138430000Y-59690000D02*
X135890000Y-59690000D01*
X128319600Y-74880400D02*
X128016000Y-75184000D01*
X128319600Y-66355900D02*
X128319600Y-74880400D01*
X129463700Y-65211800D02*
X128319600Y-66355900D01*
X129463700Y-59690000D02*
X129463700Y-65211800D01*
X130810000Y-59690000D02*
X129463700Y-59690000D01*
X129463700Y-59690000D02*
X128270000Y-59690000D01*
X128016000Y-78740000D02*
X128016000Y-75184000D01*
X135890000Y-59690000D02*
X133350000Y-59690000D01*
X133350000Y-59690000D02*
X130810000Y-59690000D01*
X122675827Y-58398509D02*
X125158319Y-60881001D01*
X122675827Y-55382297D02*
X122675827Y-58398509D01*
X126977700Y-52920323D02*
X126412944Y-53485079D01*
X126946800Y-65286900D02*
X125780800Y-66452900D01*
X125158319Y-60881001D02*
X126069601Y-60881001D01*
X125780800Y-66452900D02*
X125780800Y-73599337D01*
X125780800Y-73599337D02*
X125476000Y-73904137D01*
X126412944Y-53485079D02*
X124573045Y-53485079D01*
X126977700Y-49530000D02*
X126977700Y-52920323D01*
X124573045Y-53485079D02*
X122675827Y-55382297D01*
X126069601Y-60881001D02*
X126946800Y-61758200D01*
X126946800Y-61758200D02*
X126946800Y-65286900D01*
X125476000Y-73904137D02*
X125476000Y-75184000D01*
X125476000Y-78740000D02*
X125476000Y-77688500D01*
X125476000Y-75184000D02*
X125476000Y-77688500D01*
X125730000Y-49530000D02*
X126977700Y-49530000D01*
X126977700Y-49530000D02*
X128270000Y-49530000D01*
X119700800Y-77333899D02*
X126368145Y-84001244D01*
X126368145Y-84001244D02*
X126368145Y-84009538D01*
X126368145Y-84009538D02*
X126368145Y-84548353D01*
X119700800Y-75504800D02*
X119700800Y-77333899D01*
X115824000Y-71628000D02*
X119700800Y-75504800D01*
X125181360Y-83888879D02*
X125181360Y-84427694D01*
X115824000Y-74168000D02*
X125181360Y-83525360D01*
X125181360Y-83525360D02*
X125181360Y-83888879D01*
X115824000Y-79248000D02*
X115824000Y-76708000D01*
X121884500Y-85308500D02*
X122936000Y-85308500D01*
X115824000Y-79248000D02*
X121884500Y-85308500D01*
X122936000Y-86360000D02*
X122936000Y-85308500D01*
X115824000Y-84328000D02*
X115824000Y-81788000D01*
X113284000Y-89408000D02*
X114499600Y-88192400D01*
X114499600Y-88192400D02*
X125684151Y-88192400D01*
X125684151Y-88192400D02*
X126720186Y-87156365D01*
X128016000Y-84684800D02*
X128016000Y-84287400D01*
X128016000Y-84287400D02*
X128016000Y-83718400D01*
X126720186Y-87156365D02*
X126720186Y-85980614D01*
X126720186Y-85980614D02*
X128016000Y-84684800D01*
X127146428Y-108984287D02*
X127527427Y-108603288D01*
X127075580Y-109055135D02*
X127146428Y-108984287D01*
X123944659Y-109055135D02*
X127075580Y-109055135D01*
X117567564Y-102678040D02*
X123944659Y-109055135D01*
X117567564Y-96739564D02*
X117567564Y-102678040D01*
X115824000Y-94996000D02*
X117567564Y-96739564D01*
X127000000Y-110490000D02*
X124916495Y-110490000D01*
X124916495Y-110490000D02*
X117240153Y-102813658D01*
X117240153Y-102813658D02*
X117240153Y-101492153D01*
X117240153Y-101492153D02*
X116763799Y-101015799D01*
X116763799Y-101015799D02*
X115824000Y-100076000D01*
X115824000Y-100076000D02*
X115824000Y-97536000D01*
X129540000Y-110490000D02*
X129571710Y-110521710D01*
X129571710Y-110521710D02*
X129571710Y-111616258D01*
X129571710Y-111616258D02*
X129170377Y-112017591D01*
X129170377Y-112017591D02*
X125963642Y-112017591D01*
X125963642Y-112017591D02*
X119102051Y-105156000D01*
X119102051Y-105156000D02*
X115824000Y-105156000D01*
X115824000Y-105156000D02*
X115824000Y-102616000D01*
X125781234Y-112779712D02*
X130921658Y-112779712D01*
X130921658Y-112779712D02*
X132080000Y-111621370D01*
X132080000Y-111621370D02*
X132080000Y-110490000D01*
X119221486Y-106219964D02*
X125781234Y-112779712D01*
X117870542Y-106219964D02*
X119221486Y-106219964D01*
X115824000Y-110236000D02*
X117423740Y-108636260D01*
X117423740Y-108636260D02*
X117423740Y-106666766D01*
X117423740Y-106666766D02*
X117870542Y-106219964D01*
X113284000Y-110236000D02*
X114530608Y-108989392D01*
X114530608Y-108989392D02*
X116474237Y-108989392D01*
X116474237Y-108989392D02*
X117096329Y-108367300D01*
X117096329Y-108367300D02*
X117096329Y-106423671D01*
X117096329Y-106423671D02*
X117627447Y-105892553D01*
X117627447Y-105892553D02*
X119357104Y-105892553D01*
X119357104Y-105892553D02*
X125809552Y-112345002D01*
X125809552Y-112345002D02*
X129984357Y-112345002D01*
X129984357Y-112345002D02*
X130833456Y-111495903D01*
X130833456Y-111495903D02*
X130833456Y-109917944D01*
X130833456Y-109917944D02*
X132080000Y-108671400D01*
X132080000Y-108671400D02*
X132080000Y-108572300D01*
X132080000Y-108572300D02*
X132080000Y-108102400D01*
X133096000Y-83718400D02*
X133096000Y-86360000D01*
X130556000Y-83820000D02*
X130556000Y-86360000D01*
X137160000Y-108204000D02*
X137160000Y-110490000D01*
X134620000Y-108102400D02*
X134620000Y-110490000D01*
X112089400Y-88062600D02*
X113284000Y-86868000D01*
X112089400Y-89941700D02*
X112089400Y-88062600D01*
X112963900Y-90816200D02*
X112089400Y-89941700D01*
X113361600Y-90816200D02*
X112963900Y-90816200D01*
X114554000Y-92008600D02*
X113361600Y-90816200D01*
X114554000Y-92965200D02*
X114554000Y-92008600D01*
X115312500Y-93723700D02*
X114554000Y-92965200D01*
X116327900Y-93723700D02*
X115312500Y-93723700D01*
X118648000Y-96043800D02*
X116327900Y-93723700D01*
X118648000Y-96246500D02*
X118648000Y-96043800D01*
X111375000Y-81157000D02*
X113284000Y-79248000D01*
X111375000Y-92251900D02*
X111375000Y-81157000D01*
X112849100Y-93726000D02*
X111375000Y-92251900D01*
X113725200Y-93726000D02*
X112849100Y-93726000D01*
X114497900Y-94498700D02*
X113725200Y-93726000D01*
X114497900Y-98862100D02*
X114497900Y-94498700D01*
X113284000Y-100076000D02*
X114497900Y-98862100D01*
D11*
G36*
X121637216Y-55548430D02*
X121637216Y-58848416D01*
X121691353Y-59120581D01*
X121845522Y-59351310D01*
X124230033Y-61735821D01*
X124155474Y-61915379D01*
X124154927Y-62541873D01*
X124394171Y-63120887D01*
X124836783Y-63564272D01*
X125415379Y-63804526D01*
X126041873Y-63805073D01*
X126235600Y-63725027D01*
X126235600Y-64992312D01*
X125277906Y-65950006D01*
X125123737Y-66180735D01*
X125083451Y-66383265D01*
X125069600Y-66452900D01*
X125069600Y-66967166D01*
X124825421Y-66865774D01*
X124198927Y-66865227D01*
X123619913Y-67104471D01*
X123176528Y-67547083D01*
X122936274Y-68125679D01*
X122935727Y-68752173D01*
X122990811Y-68885487D01*
X121118199Y-70758099D01*
X120953452Y-71004661D01*
X120895600Y-71295500D01*
X120895600Y-76284300D01*
X120953452Y-76575139D01*
X121118199Y-76821701D01*
X121964694Y-77668196D01*
X121921302Y-77697189D01*
X121610233Y-78162736D01*
X121597822Y-78225132D01*
X120412000Y-77039311D01*
X120412000Y-75504800D01*
X120360247Y-75244621D01*
X120357863Y-75232635D01*
X120203694Y-75001906D01*
X117323967Y-72122179D01*
X117398526Y-71942621D01*
X117399073Y-71316127D01*
X117159829Y-70737113D01*
X116717217Y-70293728D01*
X116138621Y-70053474D01*
X115512127Y-70052927D01*
X114933113Y-70292171D01*
X114553727Y-70670896D01*
X114177217Y-70293728D01*
X113598621Y-70053474D01*
X112972127Y-70052927D01*
X112393113Y-70292171D01*
X111949728Y-70734783D01*
X111709474Y-71313379D01*
X111708927Y-71939873D01*
X111894856Y-72389855D01*
X108459635Y-75825077D01*
X108426162Y-75647183D01*
X108287090Y-75431059D01*
X108074890Y-75286069D01*
X107823000Y-75235060D01*
X106553000Y-75235060D01*
X106317683Y-75279338D01*
X106101559Y-75418410D01*
X106053464Y-75488800D01*
X105550074Y-75488800D01*
X105475829Y-75309113D01*
X105097104Y-74929727D01*
X105474272Y-74553217D01*
X105714526Y-73974621D01*
X105715073Y-73348127D01*
X105475829Y-72769113D01*
X105097104Y-72389727D01*
X105474272Y-72013217D01*
X105714526Y-71434621D01*
X105715073Y-70808127D01*
X105475829Y-70229113D01*
X105033217Y-69785728D01*
X104454621Y-69545474D01*
X103828127Y-69544927D01*
X103249113Y-69784171D01*
X102805728Y-70226783D01*
X102565474Y-70805379D01*
X102564927Y-71431873D01*
X102804171Y-72010887D01*
X103182896Y-72390273D01*
X102805728Y-72766783D01*
X102565474Y-73345379D01*
X102564927Y-73971873D01*
X102804171Y-74550887D01*
X103182896Y-74930273D01*
X102805728Y-75306783D01*
X102565474Y-75885379D01*
X102564927Y-76511873D01*
X102804171Y-77090887D01*
X103182896Y-77470273D01*
X102805728Y-77846783D01*
X102565474Y-78425379D01*
X102564927Y-79051873D01*
X102804171Y-79630887D01*
X103182896Y-80010273D01*
X102805728Y-80386783D01*
X102565474Y-80965379D01*
X102564927Y-81591873D01*
X102804171Y-82170887D01*
X103182896Y-82550273D01*
X102805728Y-82926783D01*
X102565474Y-83505379D01*
X102564927Y-84131873D01*
X102804171Y-84710887D01*
X103182896Y-85090273D01*
X102805728Y-85466783D01*
X102565474Y-86045379D01*
X102564927Y-86671873D01*
X102804171Y-87250887D01*
X103182896Y-87630273D01*
X102805728Y-88006783D01*
X102565474Y-88585379D01*
X102564927Y-89211873D01*
X102804171Y-89790887D01*
X103246783Y-90234272D01*
X103825379Y-90474526D01*
X104451873Y-90475073D01*
X105030887Y-90235829D01*
X105474272Y-89793217D01*
X105714526Y-89214621D01*
X105715073Y-88588127D01*
X105475829Y-88009113D01*
X105097104Y-87629727D01*
X105474272Y-87253217D01*
X105714526Y-86674621D01*
X105715073Y-86048127D01*
X105475829Y-85469113D01*
X105097104Y-85089727D01*
X105474272Y-84713217D01*
X105549852Y-84531200D01*
X105793500Y-84531200D01*
X106065665Y-84477063D01*
X106296394Y-84322894D01*
X106377822Y-84241466D01*
X106553000Y-84276940D01*
X107363300Y-84276940D01*
X107363300Y-89786500D01*
X107417437Y-90058665D01*
X107571606Y-90289394D01*
X111784033Y-94501822D01*
X111709474Y-94681379D01*
X111708927Y-95307873D01*
X111948171Y-95886887D01*
X112326896Y-96266273D01*
X111949728Y-96642783D01*
X111709474Y-97221379D01*
X111708927Y-97847873D01*
X111784190Y-98030022D01*
X110536606Y-99277606D01*
X110382437Y-99508335D01*
X110382437Y-99508336D01*
X110328300Y-99780500D01*
X110328300Y-102811311D01*
X105586935Y-107552676D01*
X105509580Y-107365923D01*
X105248968Y-107274637D01*
X104319605Y-108204000D01*
X104333748Y-108218143D01*
X104154143Y-108397748D01*
X104140000Y-108383605D01*
X104125858Y-108397748D01*
X103946253Y-108218143D01*
X103960395Y-108204000D01*
X103031032Y-107274637D01*
X102770420Y-107365923D01*
X102553955Y-107953833D01*
X102578951Y-108579828D01*
X102770420Y-109042077D01*
X102980314Y-109115598D01*
X102386406Y-109709506D01*
X102232237Y-109940235D01*
X102232237Y-109940236D01*
X102178100Y-110212400D01*
X102178100Y-114573300D01*
X102232237Y-114845465D01*
X102386406Y-115076194D01*
X102640033Y-115329821D01*
X102565474Y-115509379D01*
X102564927Y-116135873D01*
X102804171Y-116714887D01*
X103246783Y-117158272D01*
X103608341Y-117308404D01*
X102875628Y-117611155D01*
X102246364Y-118239321D01*
X101905389Y-119060481D01*
X101904613Y-119949619D01*
X102244155Y-120771372D01*
X102872321Y-121400636D01*
X103693481Y-121741611D01*
X104582619Y-121742387D01*
X105074852Y-121539000D01*
X105156000Y-121539000D01*
X105203789Y-121529666D01*
X105245803Y-121501803D01*
X105302787Y-121444819D01*
X105404372Y-121402845D01*
X106033636Y-120774679D01*
X106076745Y-120670861D01*
X106134803Y-120612803D01*
X106161994Y-120572410D01*
X106172000Y-120523000D01*
X106172000Y-120441461D01*
X106374611Y-119953519D01*
X106375387Y-119064381D01*
X106035845Y-118242628D01*
X105407679Y-117613364D01*
X104672283Y-117308001D01*
X105030887Y-117159829D01*
X105474272Y-116717217D01*
X105714526Y-116138621D01*
X105715073Y-115512127D01*
X105475829Y-114933113D01*
X105097104Y-114553727D01*
X105474272Y-114177217D01*
X105714526Y-113598621D01*
X105715073Y-112972127D01*
X105639811Y-112789978D01*
X105991494Y-112438295D01*
X106101303Y-112273954D01*
X106145663Y-112207564D01*
X106199800Y-111935400D01*
X106199800Y-110705988D01*
X111709164Y-105196625D01*
X111708927Y-105467873D01*
X111948171Y-106046887D01*
X112326896Y-106426273D01*
X111949728Y-106802783D01*
X111709474Y-107381379D01*
X111708927Y-108007873D01*
X111948171Y-108586887D01*
X112326896Y-108966273D01*
X111949728Y-109342783D01*
X111709474Y-109921379D01*
X111708927Y-110547873D01*
X111948171Y-111126887D01*
X112390783Y-111570272D01*
X112969379Y-111810526D01*
X113595873Y-111811073D01*
X114174887Y-111571829D01*
X114554273Y-111193104D01*
X114930783Y-111570272D01*
X115509379Y-111810526D01*
X116135873Y-111811073D01*
X116714887Y-111571829D01*
X117158272Y-111129217D01*
X117398526Y-110550621D01*
X117399073Y-109924127D01*
X117323810Y-109741978D01*
X117926634Y-109139154D01*
X118080803Y-108908425D01*
X118134940Y-108636260D01*
X118134940Y-106961354D01*
X118165131Y-106931164D01*
X118926898Y-106931164D01*
X124950733Y-112955000D01*
X117475000Y-112955000D01*
X117406416Y-112968642D01*
X116364470Y-113161988D01*
X116108529Y-113268003D01*
X115284494Y-113818606D01*
X115088606Y-114014494D01*
X114538003Y-114838529D01*
X114431988Y-115094470D01*
X114238642Y-116066486D01*
X114238642Y-116136416D01*
X114225000Y-116205000D01*
X114225000Y-122387908D01*
X113497908Y-123115000D01*
X92525931Y-123115000D01*
X92295622Y-123069189D01*
X92159658Y-122978341D01*
X92068811Y-122842377D01*
X92023000Y-122612073D01*
X92023000Y-61283931D01*
X92049477Y-61150821D01*
X92085263Y-61097263D01*
X92138821Y-61061477D01*
X92271931Y-61035000D01*
X102743000Y-61035000D01*
X102743000Y-65935912D01*
X99299495Y-69379417D01*
X99125829Y-68959113D01*
X98747104Y-68579727D01*
X99124272Y-68203217D01*
X99364526Y-67624621D01*
X99365073Y-66998127D01*
X99125829Y-66419113D01*
X98683217Y-65975728D01*
X98104621Y-65735474D01*
X97478127Y-65734927D01*
X97295978Y-65810190D01*
X96766194Y-65280406D01*
X96535465Y-65126237D01*
X96263300Y-65072100D01*
X94615500Y-65072100D01*
X94343335Y-65126237D01*
X94112606Y-65280406D01*
X93206506Y-66186506D01*
X93052337Y-66417235D01*
X93013199Y-66613994D01*
X92998200Y-66689400D01*
X92998200Y-86496781D01*
X93052337Y-86768946D01*
X93206506Y-86999675D01*
X97723206Y-91516376D01*
X97723206Y-97485141D01*
X97478127Y-97484927D01*
X96899113Y-97724171D01*
X96519727Y-98102896D01*
X96143217Y-97725728D01*
X95564621Y-97485474D01*
X94938127Y-97484927D01*
X94359113Y-97724171D01*
X93915728Y-98166783D01*
X93675474Y-98745379D01*
X93674927Y-99371873D01*
X93914171Y-99950887D01*
X94292896Y-100330273D01*
X93915728Y-100706783D01*
X93675474Y-101285379D01*
X93674927Y-101911873D01*
X93914171Y-102490887D01*
X94292896Y-102870273D01*
X93915728Y-103246783D01*
X93675474Y-103825379D01*
X93674927Y-104451873D01*
X93914171Y-105030887D01*
X94292896Y-105410273D01*
X93915728Y-105786783D01*
X93675474Y-106365379D01*
X93674927Y-106991873D01*
X93914171Y-107570887D01*
X94292896Y-107950273D01*
X93915728Y-108326783D01*
X93675474Y-108905379D01*
X93674927Y-109531873D01*
X93914171Y-110110887D01*
X94292896Y-110490273D01*
X93915728Y-110866783D01*
X93675474Y-111445379D01*
X93674927Y-112071873D01*
X93914171Y-112650887D01*
X94292896Y-113030273D01*
X93915728Y-113406783D01*
X93675474Y-113985379D01*
X93674927Y-114611873D01*
X93914171Y-115190887D01*
X94292896Y-115570273D01*
X93915728Y-115946783D01*
X93675474Y-116525379D01*
X93674927Y-117151873D01*
X93914171Y-117730887D01*
X94356783Y-118174272D01*
X94935379Y-118414526D01*
X95561873Y-118415073D01*
X96140887Y-118175829D01*
X96520273Y-117797104D01*
X96896783Y-118174272D01*
X97475379Y-118414526D01*
X98101873Y-118415073D01*
X98680887Y-118175829D01*
X99124272Y-117733217D01*
X99364526Y-117154621D01*
X99365073Y-116528127D01*
X99289810Y-116345978D01*
X100529294Y-115106494D01*
X100683463Y-114875765D01*
X100697958Y-114802894D01*
X100737600Y-114603600D01*
X100737600Y-93275873D01*
X102564927Y-93275873D01*
X102804171Y-93854887D01*
X103182896Y-94234273D01*
X102805728Y-94610783D01*
X102565474Y-95189379D01*
X102564927Y-95815873D01*
X102804171Y-96394887D01*
X103182896Y-96774273D01*
X102805728Y-97150783D01*
X102565474Y-97729379D01*
X102564927Y-98355873D01*
X102804171Y-98934887D01*
X103182896Y-99314273D01*
X102805728Y-99690783D01*
X102565474Y-100269379D01*
X102564927Y-100895873D01*
X102804171Y-101474887D01*
X103182896Y-101854273D01*
X102805728Y-102230783D01*
X102565474Y-102809379D01*
X102564927Y-103435873D01*
X102804171Y-104014887D01*
X103182896Y-104394273D01*
X102805728Y-104770783D01*
X102565474Y-105349379D01*
X102564927Y-105975873D01*
X102804171Y-106554887D01*
X103245115Y-106996601D01*
X103210637Y-107095032D01*
X104140000Y-108024395D01*
X105069363Y-107095032D01*
X105034687Y-106996036D01*
X105474272Y-106557217D01*
X105714526Y-105978621D01*
X105715073Y-105352127D01*
X105475829Y-104773113D01*
X105097104Y-104393727D01*
X105474272Y-104017217D01*
X105714526Y-103438621D01*
X105715073Y-102812127D01*
X105475829Y-102233113D01*
X105097104Y-101853727D01*
X105474272Y-101477217D01*
X105714526Y-100898621D01*
X105715073Y-100272127D01*
X105475829Y-99693113D01*
X105097104Y-99313727D01*
X105474272Y-98937217D01*
X105714526Y-98358621D01*
X105715073Y-97732127D01*
X105475829Y-97153113D01*
X105097104Y-96773727D01*
X105474272Y-96397217D01*
X105714526Y-95818621D01*
X105715073Y-95192127D01*
X105475829Y-94613113D01*
X105097104Y-94233727D01*
X105474272Y-93857217D01*
X105714526Y-93278621D01*
X105715073Y-92652127D01*
X105475829Y-92073113D01*
X105033217Y-91629728D01*
X104454621Y-91389474D01*
X103828127Y-91388927D01*
X103249113Y-91628171D01*
X102805728Y-92070783D01*
X102565474Y-92649379D01*
X102564927Y-93275873D01*
X100737600Y-93275873D01*
X100737600Y-87326400D01*
X100683463Y-87054236D01*
X100683463Y-87054235D01*
X100529294Y-86823506D01*
X99289967Y-85584179D01*
X99364526Y-85404621D01*
X99365073Y-84778127D01*
X99289810Y-84595978D01*
X100477954Y-83407834D01*
X100632123Y-83177105D01*
X100686260Y-82904940D01*
X100686260Y-72067080D01*
X102249026Y-70504315D01*
X102467916Y-70460775D01*
X102698645Y-70306606D01*
X103855632Y-69149619D01*
X117144613Y-69149619D01*
X117484155Y-69971372D01*
X118112321Y-70600636D01*
X118933481Y-70941611D01*
X119822619Y-70942387D01*
X120644372Y-70602845D01*
X121273636Y-69974679D01*
X121614611Y-69153519D01*
X121615387Y-68264381D01*
X121275845Y-67442628D01*
X120647679Y-66813364D01*
X119826519Y-66472389D01*
X118937381Y-66471613D01*
X118115628Y-66811155D01*
X117486364Y-67439321D01*
X117145389Y-68260481D01*
X117144613Y-69149619D01*
X103855632Y-69149619D01*
X105448494Y-67556757D01*
X105456159Y-67555315D01*
X105498553Y-67528035D01*
X105526994Y-67486410D01*
X105529064Y-67476187D01*
X117486205Y-55519047D01*
X121607834Y-55519047D01*
X121637216Y-55548430D01*
X121637216Y-55548430D01*
G37*
X121637216Y-55548430D02*
X121637216Y-58848416D01*
X121691353Y-59120581D01*
X121845522Y-59351310D01*
X124230033Y-61735821D01*
X124155474Y-61915379D01*
X124154927Y-62541873D01*
X124394171Y-63120887D01*
X124836783Y-63564272D01*
X125415379Y-63804526D01*
X126041873Y-63805073D01*
X126235600Y-63725027D01*
X126235600Y-64992312D01*
X125277906Y-65950006D01*
X125123737Y-66180735D01*
X125083451Y-66383265D01*
X125069600Y-66452900D01*
X125069600Y-66967166D01*
X124825421Y-66865774D01*
X124198927Y-66865227D01*
X123619913Y-67104471D01*
X123176528Y-67547083D01*
X122936274Y-68125679D01*
X122935727Y-68752173D01*
X122990811Y-68885487D01*
X121118199Y-70758099D01*
X120953452Y-71004661D01*
X120895600Y-71295500D01*
X120895600Y-76284300D01*
X120953452Y-76575139D01*
X121118199Y-76821701D01*
X121964694Y-77668196D01*
X121921302Y-77697189D01*
X121610233Y-78162736D01*
X121597822Y-78225132D01*
X120412000Y-77039311D01*
X120412000Y-75504800D01*
X120360247Y-75244621D01*
X120357863Y-75232635D01*
X120203694Y-75001906D01*
X117323967Y-72122179D01*
X117398526Y-71942621D01*
X117399073Y-71316127D01*
X117159829Y-70737113D01*
X116717217Y-70293728D01*
X116138621Y-70053474D01*
X115512127Y-70052927D01*
X114933113Y-70292171D01*
X114553727Y-70670896D01*
X114177217Y-70293728D01*
X113598621Y-70053474D01*
X112972127Y-70052927D01*
X112393113Y-70292171D01*
X111949728Y-70734783D01*
X111709474Y-71313379D01*
X111708927Y-71939873D01*
X111894856Y-72389855D01*
X108459635Y-75825077D01*
X108426162Y-75647183D01*
X108287090Y-75431059D01*
X108074890Y-75286069D01*
X107823000Y-75235060D01*
X106553000Y-75235060D01*
X106317683Y-75279338D01*
X106101559Y-75418410D01*
X106053464Y-75488800D01*
X105550074Y-75488800D01*
X105475829Y-75309113D01*
X105097104Y-74929727D01*
X105474272Y-74553217D01*
X105714526Y-73974621D01*
X105715073Y-73348127D01*
X105475829Y-72769113D01*
X105097104Y-72389727D01*
X105474272Y-72013217D01*
X105714526Y-71434621D01*
X105715073Y-70808127D01*
X105475829Y-70229113D01*
X105033217Y-69785728D01*
X104454621Y-69545474D01*
X103828127Y-69544927D01*
X103249113Y-69784171D01*
X102805728Y-70226783D01*
X102565474Y-70805379D01*
X102564927Y-71431873D01*
X102804171Y-72010887D01*
X103182896Y-72390273D01*
X102805728Y-72766783D01*
X102565474Y-73345379D01*
X102564927Y-73971873D01*
X102804171Y-74550887D01*
X103182896Y-74930273D01*
X102805728Y-75306783D01*
X102565474Y-75885379D01*
X102564927Y-76511873D01*
X102804171Y-77090887D01*
X103182896Y-77470273D01*
X102805728Y-77846783D01*
X102565474Y-78425379D01*
X102564927Y-79051873D01*
X102804171Y-79630887D01*
X103182896Y-80010273D01*
X102805728Y-80386783D01*
X102565474Y-80965379D01*
X102564927Y-81591873D01*
X102804171Y-82170887D01*
X103182896Y-82550273D01*
X102805728Y-82926783D01*
X102565474Y-83505379D01*
X102564927Y-84131873D01*
X102804171Y-84710887D01*
X103182896Y-85090273D01*
X102805728Y-85466783D01*
X102565474Y-86045379D01*
X102564927Y-86671873D01*
X102804171Y-87250887D01*
X103182896Y-87630273D01*
X102805728Y-88006783D01*
X102565474Y-88585379D01*
X102564927Y-89211873D01*
X102804171Y-89790887D01*
X103246783Y-90234272D01*
X103825379Y-90474526D01*
X104451873Y-90475073D01*
X105030887Y-90235829D01*
X105474272Y-89793217D01*
X105714526Y-89214621D01*
X105715073Y-88588127D01*
X105475829Y-88009113D01*
X105097104Y-87629727D01*
X105474272Y-87253217D01*
X105714526Y-86674621D01*
X105715073Y-86048127D01*
X105475829Y-85469113D01*
X105097104Y-85089727D01*
X105474272Y-84713217D01*
X105549852Y-84531200D01*
X105793500Y-84531200D01*
X106065665Y-84477063D01*
X106296394Y-84322894D01*
X106377822Y-84241466D01*
X106553000Y-84276940D01*
X107363300Y-84276940D01*
X107363300Y-89786500D01*
X107417437Y-90058665D01*
X107571606Y-90289394D01*
X111784033Y-94501822D01*
X111709474Y-94681379D01*
X111708927Y-95307873D01*
X111948171Y-95886887D01*
X112326896Y-96266273D01*
X111949728Y-96642783D01*
X111709474Y-97221379D01*
X111708927Y-97847873D01*
X111784190Y-98030022D01*
X110536606Y-99277606D01*
X110382437Y-99508335D01*
X110382437Y-99508336D01*
X110328300Y-99780500D01*
X110328300Y-102811311D01*
X105586935Y-107552676D01*
X105509580Y-107365923D01*
X105248968Y-107274637D01*
X104319605Y-108204000D01*
X104333748Y-108218143D01*
X104154143Y-108397748D01*
X104140000Y-108383605D01*
X104125858Y-108397748D01*
X103946253Y-108218143D01*
X103960395Y-108204000D01*
X103031032Y-107274637D01*
X102770420Y-107365923D01*
X102553955Y-107953833D01*
X102578951Y-108579828D01*
X102770420Y-109042077D01*
X102980314Y-109115598D01*
X102386406Y-109709506D01*
X102232237Y-109940235D01*
X102232237Y-109940236D01*
X102178100Y-110212400D01*
X102178100Y-114573300D01*
X102232237Y-114845465D01*
X102386406Y-115076194D01*
X102640033Y-115329821D01*
X102565474Y-115509379D01*
X102564927Y-116135873D01*
X102804171Y-116714887D01*
X103246783Y-117158272D01*
X103608341Y-117308404D01*
X102875628Y-117611155D01*
X102246364Y-118239321D01*
X101905389Y-119060481D01*
X101904613Y-119949619D01*
X102244155Y-120771372D01*
X102872321Y-121400636D01*
X103693481Y-121741611D01*
X104582619Y-121742387D01*
X105074852Y-121539000D01*
X105156000Y-121539000D01*
X105203789Y-121529666D01*
X105245803Y-121501803D01*
X105302787Y-121444819D01*
X105404372Y-121402845D01*
X106033636Y-120774679D01*
X106076745Y-120670861D01*
X106134803Y-120612803D01*
X106161994Y-120572410D01*
X106172000Y-120523000D01*
X106172000Y-120441461D01*
X106374611Y-119953519D01*
X106375387Y-119064381D01*
X106035845Y-118242628D01*
X105407679Y-117613364D01*
X104672283Y-117308001D01*
X105030887Y-117159829D01*
X105474272Y-116717217D01*
X105714526Y-116138621D01*
X105715073Y-115512127D01*
X105475829Y-114933113D01*
X105097104Y-114553727D01*
X105474272Y-114177217D01*
X105714526Y-113598621D01*
X105715073Y-112972127D01*
X105639811Y-112789978D01*
X105991494Y-112438295D01*
X106101303Y-112273954D01*
X106145663Y-112207564D01*
X106199800Y-111935400D01*
X106199800Y-110705988D01*
X111709164Y-105196625D01*
X111708927Y-105467873D01*
X111948171Y-106046887D01*
X112326896Y-106426273D01*
X111949728Y-106802783D01*
X111709474Y-107381379D01*
X111708927Y-108007873D01*
X111948171Y-108586887D01*
X112326896Y-108966273D01*
X111949728Y-109342783D01*
X111709474Y-109921379D01*
X111708927Y-110547873D01*
X111948171Y-111126887D01*
X112390783Y-111570272D01*
X112969379Y-111810526D01*
X113595873Y-111811073D01*
X114174887Y-111571829D01*
X114554273Y-111193104D01*
X114930783Y-111570272D01*
X115509379Y-111810526D01*
X116135873Y-111811073D01*
X116714887Y-111571829D01*
X117158272Y-111129217D01*
X117398526Y-110550621D01*
X117399073Y-109924127D01*
X117323810Y-109741978D01*
X117926634Y-109139154D01*
X118080803Y-108908425D01*
X118134940Y-108636260D01*
X118134940Y-106961354D01*
X118165131Y-106931164D01*
X118926898Y-106931164D01*
X124950733Y-112955000D01*
X117475000Y-112955000D01*
X117406416Y-112968642D01*
X116364470Y-113161988D01*
X116108529Y-113268003D01*
X115284494Y-113818606D01*
X115088606Y-114014494D01*
X114538003Y-114838529D01*
X114431988Y-115094470D01*
X114238642Y-116066486D01*
X114238642Y-116136416D01*
X114225000Y-116205000D01*
X114225000Y-122387908D01*
X113497908Y-123115000D01*
X92525931Y-123115000D01*
X92295622Y-123069189D01*
X92159658Y-122978341D01*
X92068811Y-122842377D01*
X92023000Y-122612073D01*
X92023000Y-61283931D01*
X92049477Y-61150821D01*
X92085263Y-61097263D01*
X92138821Y-61061477D01*
X92271931Y-61035000D01*
X102743000Y-61035000D01*
X102743000Y-65935912D01*
X99299495Y-69379417D01*
X99125829Y-68959113D01*
X98747104Y-68579727D01*
X99124272Y-68203217D01*
X99364526Y-67624621D01*
X99365073Y-66998127D01*
X99125829Y-66419113D01*
X98683217Y-65975728D01*
X98104621Y-65735474D01*
X97478127Y-65734927D01*
X97295978Y-65810190D01*
X96766194Y-65280406D01*
X96535465Y-65126237D01*
X96263300Y-65072100D01*
X94615500Y-65072100D01*
X94343335Y-65126237D01*
X94112606Y-65280406D01*
X93206506Y-66186506D01*
X93052337Y-66417235D01*
X93013199Y-66613994D01*
X92998200Y-66689400D01*
X92998200Y-86496781D01*
X93052337Y-86768946D01*
X93206506Y-86999675D01*
X97723206Y-91516376D01*
X97723206Y-97485141D01*
X97478127Y-97484927D01*
X96899113Y-97724171D01*
X96519727Y-98102896D01*
X96143217Y-97725728D01*
X95564621Y-97485474D01*
X94938127Y-97484927D01*
X94359113Y-97724171D01*
X93915728Y-98166783D01*
X93675474Y-98745379D01*
X93674927Y-99371873D01*
X93914171Y-99950887D01*
X94292896Y-100330273D01*
X93915728Y-100706783D01*
X93675474Y-101285379D01*
X93674927Y-101911873D01*
X93914171Y-102490887D01*
X94292896Y-102870273D01*
X93915728Y-103246783D01*
X93675474Y-103825379D01*
X93674927Y-104451873D01*
X93914171Y-105030887D01*
X94292896Y-105410273D01*
X93915728Y-105786783D01*
X93675474Y-106365379D01*
X93674927Y-106991873D01*
X93914171Y-107570887D01*
X94292896Y-107950273D01*
X93915728Y-108326783D01*
X93675474Y-108905379D01*
X93674927Y-109531873D01*
X93914171Y-110110887D01*
X94292896Y-110490273D01*
X93915728Y-110866783D01*
X93675474Y-111445379D01*
X93674927Y-112071873D01*
X93914171Y-112650887D01*
X94292896Y-113030273D01*
X93915728Y-113406783D01*
X93675474Y-113985379D01*
X93674927Y-114611873D01*
X93914171Y-115190887D01*
X94292896Y-115570273D01*
X93915728Y-115946783D01*
X93675474Y-116525379D01*
X93674927Y-117151873D01*
X93914171Y-117730887D01*
X94356783Y-118174272D01*
X94935379Y-118414526D01*
X95561873Y-118415073D01*
X96140887Y-118175829D01*
X96520273Y-117797104D01*
X96896783Y-118174272D01*
X97475379Y-118414526D01*
X98101873Y-118415073D01*
X98680887Y-118175829D01*
X99124272Y-117733217D01*
X99364526Y-117154621D01*
X99365073Y-116528127D01*
X99289810Y-116345978D01*
X100529294Y-115106494D01*
X100683463Y-114875765D01*
X100697958Y-114802894D01*
X100737600Y-114603600D01*
X100737600Y-93275873D01*
X102564927Y-93275873D01*
X102804171Y-93854887D01*
X103182896Y-94234273D01*
X102805728Y-94610783D01*
X102565474Y-95189379D01*
X102564927Y-95815873D01*
X102804171Y-96394887D01*
X103182896Y-96774273D01*
X102805728Y-97150783D01*
X102565474Y-97729379D01*
X102564927Y-98355873D01*
X102804171Y-98934887D01*
X103182896Y-99314273D01*
X102805728Y-99690783D01*
X102565474Y-100269379D01*
X102564927Y-100895873D01*
X102804171Y-101474887D01*
X103182896Y-101854273D01*
X102805728Y-102230783D01*
X102565474Y-102809379D01*
X102564927Y-103435873D01*
X102804171Y-104014887D01*
X103182896Y-104394273D01*
X102805728Y-104770783D01*
X102565474Y-105349379D01*
X102564927Y-105975873D01*
X102804171Y-106554887D01*
X103245115Y-106996601D01*
X103210637Y-107095032D01*
X104140000Y-108024395D01*
X105069363Y-107095032D01*
X105034687Y-106996036D01*
X105474272Y-106557217D01*
X105714526Y-105978621D01*
X105715073Y-105352127D01*
X105475829Y-104773113D01*
X105097104Y-104393727D01*
X105474272Y-104017217D01*
X105714526Y-103438621D01*
X105715073Y-102812127D01*
X105475829Y-102233113D01*
X105097104Y-101853727D01*
X105474272Y-101477217D01*
X105714526Y-100898621D01*
X105715073Y-100272127D01*
X105475829Y-99693113D01*
X105097104Y-99313727D01*
X105474272Y-98937217D01*
X105714526Y-98358621D01*
X105715073Y-97732127D01*
X105475829Y-97153113D01*
X105097104Y-96773727D01*
X105474272Y-96397217D01*
X105714526Y-95818621D01*
X105715073Y-95192127D01*
X105475829Y-94613113D01*
X105097104Y-94233727D01*
X105474272Y-93857217D01*
X105714526Y-93278621D01*
X105715073Y-92652127D01*
X105475829Y-92073113D01*
X105033217Y-91629728D01*
X104454621Y-91389474D01*
X103828127Y-91388927D01*
X103249113Y-91628171D01*
X102805728Y-92070783D01*
X102565474Y-92649379D01*
X102564927Y-93275873D01*
X100737600Y-93275873D01*
X100737600Y-87326400D01*
X100683463Y-87054236D01*
X100683463Y-87054235D01*
X100529294Y-86823506D01*
X99289967Y-85584179D01*
X99364526Y-85404621D01*
X99365073Y-84778127D01*
X99289810Y-84595978D01*
X100477954Y-83407834D01*
X100632123Y-83177105D01*
X100686260Y-82904940D01*
X100686260Y-72067080D01*
X102249026Y-70504315D01*
X102467916Y-70460775D01*
X102698645Y-70306606D01*
X103855632Y-69149619D01*
X117144613Y-69149619D01*
X117484155Y-69971372D01*
X118112321Y-70600636D01*
X118933481Y-70941611D01*
X119822619Y-70942387D01*
X120644372Y-70602845D01*
X121273636Y-69974679D01*
X121614611Y-69153519D01*
X121615387Y-68264381D01*
X121275845Y-67442628D01*
X120647679Y-66813364D01*
X119826519Y-66472389D01*
X118937381Y-66471613D01*
X118115628Y-66811155D01*
X117486364Y-67439321D01*
X117145389Y-68260481D01*
X117144613Y-69149619D01*
X103855632Y-69149619D01*
X105448494Y-67556757D01*
X105456159Y-67555315D01*
X105498553Y-67528035D01*
X105526994Y-67486410D01*
X105529064Y-67476187D01*
X117486205Y-55519047D01*
X121607834Y-55519047D01*
X121637216Y-55548430D01*
G36*
X174550000Y-51221092D02*
X174550000Y-112481908D01*
X174076908Y-112955000D01*
X131752158Y-112955000D01*
X132582894Y-112124264D01*
X132737063Y-111893535D01*
X132764995Y-111753112D01*
X133094698Y-111532811D01*
X133350000Y-111150725D01*
X133605302Y-111532811D01*
X134070849Y-111843880D01*
X134620000Y-111953113D01*
X135169151Y-111843880D01*
X135634698Y-111532811D01*
X135890000Y-111150725D01*
X136145302Y-111532811D01*
X136610849Y-111843880D01*
X137160000Y-111953113D01*
X137709151Y-111843880D01*
X138174698Y-111532811D01*
X138430000Y-111150725D01*
X138685302Y-111532811D01*
X139150849Y-111843880D01*
X139700000Y-111953113D01*
X140249151Y-111843880D01*
X140714698Y-111532811D01*
X140970000Y-111150725D01*
X141225302Y-111532811D01*
X141690849Y-111843880D01*
X142240000Y-111953113D01*
X142789151Y-111843880D01*
X143254698Y-111532811D01*
X143510000Y-111150725D01*
X143765302Y-111532811D01*
X144230849Y-111843880D01*
X144780000Y-111953113D01*
X145329151Y-111843880D01*
X145794698Y-111532811D01*
X146064986Y-111128297D01*
X146167611Y-111345134D01*
X146582577Y-111721041D01*
X146970961Y-111881904D01*
X147193000Y-111759915D01*
X147193000Y-110617000D01*
X147447000Y-110617000D01*
X147447000Y-111759915D01*
X147669039Y-111881904D01*
X148057423Y-111721041D01*
X148472389Y-111345134D01*
X148711914Y-110839041D01*
X148590629Y-110617000D01*
X147447000Y-110617000D01*
X147193000Y-110617000D01*
X147173000Y-110617000D01*
X147173000Y-110363000D01*
X147193000Y-110363000D01*
X147193000Y-109220085D01*
X147447000Y-109220085D01*
X147447000Y-110363000D01*
X148590629Y-110363000D01*
X148711914Y-110140959D01*
X148472389Y-109634866D01*
X148057423Y-109258959D01*
X147669039Y-109098096D01*
X147447000Y-109220085D01*
X147193000Y-109220085D01*
X146970961Y-109098096D01*
X146582577Y-109258959D01*
X146167611Y-109634866D01*
X146064986Y-109851703D01*
X145794698Y-109447189D01*
X145329151Y-109136120D01*
X144780000Y-109026887D01*
X144230849Y-109136120D01*
X143765302Y-109447189D01*
X143510000Y-109829275D01*
X143254698Y-109447189D01*
X142789151Y-109136120D01*
X142240000Y-109026887D01*
X141690849Y-109136120D01*
X141225302Y-109447189D01*
X140970000Y-109829275D01*
X140714698Y-109447189D01*
X140249151Y-109136120D01*
X139700000Y-109026887D01*
X139150849Y-109136120D01*
X138685302Y-109447189D01*
X138430000Y-109829275D01*
X138174698Y-109447189D01*
X137871200Y-109244398D01*
X137871200Y-109154602D01*
X138030317Y-109124662D01*
X138246441Y-108985590D01*
X138391431Y-108773390D01*
X138442440Y-108521500D01*
X138442440Y-107886500D01*
X138405279Y-107689007D01*
X138442440Y-107505500D01*
X138442440Y-106883462D01*
X141337873Y-103988029D01*
X141690849Y-104223880D01*
X142240000Y-104333113D01*
X142789151Y-104223880D01*
X143254698Y-103912811D01*
X143510000Y-103530725D01*
X143765302Y-103912811D01*
X144230849Y-104223880D01*
X144780000Y-104333113D01*
X145329151Y-104223880D01*
X145794698Y-103912811D01*
X146050000Y-103530725D01*
X146305302Y-103912811D01*
X146770849Y-104223880D01*
X147320000Y-104333113D01*
X147869151Y-104223880D01*
X148334698Y-103912811D01*
X148645767Y-103447264D01*
X148755000Y-102898113D01*
X148755000Y-102841887D01*
X148645767Y-102292736D01*
X148334698Y-101827189D01*
X147869151Y-101516120D01*
X147320000Y-101406887D01*
X146770849Y-101516120D01*
X146305302Y-101827189D01*
X146050000Y-102209275D01*
X145794698Y-101827189D01*
X145329151Y-101516120D01*
X144780000Y-101406887D01*
X144230849Y-101516120D01*
X143765302Y-101827189D01*
X143510000Y-102209275D01*
X143254698Y-101827189D01*
X142860865Y-101564037D01*
X147144902Y-97280000D01*
X151010090Y-97280000D01*
X151064171Y-97410887D01*
X151442896Y-97790273D01*
X151065728Y-98166783D01*
X150825474Y-98745379D01*
X150824927Y-99371873D01*
X151064171Y-99950887D01*
X151442896Y-100330273D01*
X151065728Y-100706783D01*
X150825474Y-101285379D01*
X150824927Y-101911873D01*
X151064171Y-102490887D01*
X151442896Y-102870273D01*
X151065728Y-103246783D01*
X150825474Y-103825379D01*
X150824927Y-104451873D01*
X151064171Y-105030887D01*
X151442896Y-105410273D01*
X151065728Y-105786783D01*
X150825474Y-106365379D01*
X150824927Y-106991873D01*
X151064171Y-107570887D01*
X151506783Y-108014272D01*
X152085379Y-108254526D01*
X152711873Y-108255073D01*
X153290887Y-108015829D01*
X153734272Y-107573217D01*
X153974526Y-106994621D01*
X153975073Y-106368127D01*
X153735829Y-105789113D01*
X153357104Y-105409727D01*
X153734272Y-105033217D01*
X153974526Y-104454621D01*
X153975073Y-103828127D01*
X153735829Y-103249113D01*
X153357104Y-102869727D01*
X153734272Y-102493217D01*
X153974526Y-101914621D01*
X153975073Y-101288127D01*
X153735829Y-100709113D01*
X153357104Y-100329727D01*
X153734272Y-99953217D01*
X153974526Y-99374621D01*
X153975073Y-98748127D01*
X153735829Y-98169113D01*
X153357104Y-97789727D01*
X153734272Y-97413217D01*
X153974526Y-96834621D01*
X153975073Y-96208127D01*
X153735829Y-95629113D01*
X153294885Y-95187399D01*
X153329363Y-95088968D01*
X152400000Y-94159605D01*
X151470637Y-95088968D01*
X151505313Y-95187964D01*
X151065728Y-95626783D01*
X151010411Y-95760000D01*
X146830100Y-95760000D01*
X146539261Y-95817852D01*
X146292699Y-95982599D01*
X140554890Y-101720408D01*
X140249151Y-101516120D01*
X139700000Y-101406887D01*
X139150849Y-101516120D01*
X138685302Y-101827189D01*
X138430000Y-102209275D01*
X138174698Y-101827189D01*
X137709151Y-101516120D01*
X137160000Y-101406887D01*
X136610849Y-101516120D01*
X136145302Y-101827189D01*
X135890000Y-102209275D01*
X135634698Y-101827189D01*
X135169151Y-101516120D01*
X134620000Y-101406887D01*
X134070849Y-101516120D01*
X133605302Y-101827189D01*
X133350000Y-102209275D01*
X133094698Y-101827189D01*
X132629151Y-101516120D01*
X132080000Y-101406887D01*
X131530849Y-101516120D01*
X131065302Y-101827189D01*
X130810000Y-102209275D01*
X130554698Y-101827189D01*
X130089151Y-101516120D01*
X129920555Y-101482584D01*
X129966600Y-101251100D01*
X129966600Y-87686986D01*
X130006849Y-87713880D01*
X130556000Y-87823113D01*
X131105151Y-87713880D01*
X131570698Y-87402811D01*
X131826000Y-87020725D01*
X132081302Y-87402811D01*
X132546849Y-87713880D01*
X133096000Y-87823113D01*
X133645151Y-87713880D01*
X134110698Y-87402811D01*
X134366000Y-87020725D01*
X134621302Y-87402811D01*
X135086849Y-87713880D01*
X135636000Y-87823113D01*
X136185151Y-87713880D01*
X136650698Y-87402811D01*
X136906000Y-87020725D01*
X137161302Y-87402811D01*
X137626849Y-87713880D01*
X138176000Y-87823113D01*
X138725151Y-87713880D01*
X138923650Y-87581247D01*
X138864406Y-87640491D01*
X138710237Y-87871220D01*
X138683272Y-88006783D01*
X138656100Y-88143385D01*
X138656100Y-89051171D01*
X138506479Y-89200531D01*
X138351476Y-89573818D01*
X138351124Y-89978008D01*
X138505475Y-90351566D01*
X138791031Y-90637621D01*
X139164318Y-90792624D01*
X139568508Y-90792976D01*
X139942066Y-90638625D01*
X140228121Y-90353069D01*
X140383124Y-89979782D01*
X140383476Y-89575592D01*
X140229125Y-89202034D01*
X140078500Y-89051146D01*
X140078500Y-88437973D01*
X140105273Y-88411200D01*
X147240835Y-88411200D01*
X147240724Y-88538908D01*
X147395075Y-88912466D01*
X147545700Y-89063354D01*
X147545700Y-94003975D01*
X147599837Y-94276140D01*
X147693932Y-94416962D01*
X147693722Y-94658181D01*
X147848073Y-95031739D01*
X148133629Y-95317794D01*
X148506916Y-95472797D01*
X148911106Y-95473149D01*
X149284664Y-95318798D01*
X149570719Y-95033242D01*
X149725722Y-94659955D01*
X149726074Y-94255765D01*
X149571723Y-93882207D01*
X149419615Y-93729833D01*
X150813955Y-93729833D01*
X150838951Y-94355828D01*
X151030420Y-94818077D01*
X151291032Y-94909363D01*
X152220395Y-93980000D01*
X152579605Y-93980000D01*
X153508968Y-94909363D01*
X153769580Y-94818077D01*
X153986045Y-94230167D01*
X153961049Y-93604172D01*
X153769580Y-93141923D01*
X153508968Y-93050637D01*
X152579605Y-93980000D01*
X152220395Y-93980000D01*
X151291032Y-93050637D01*
X151030420Y-93141923D01*
X150813955Y-93729833D01*
X149419615Y-93729833D01*
X149286167Y-93596152D01*
X148968100Y-93464078D01*
X148968100Y-92548968D01*
X151470637Y-92548968D01*
X151527043Y-92710000D01*
X151470637Y-92871032D01*
X152400000Y-93800395D01*
X153329363Y-92871032D01*
X153272957Y-92710000D01*
X153329363Y-92548968D01*
X152400000Y-91619605D01*
X151470637Y-92548968D01*
X148968100Y-92548968D01*
X148968100Y-89063329D01*
X149117721Y-88913969D01*
X149164859Y-88800448D01*
X150984206Y-90619795D01*
X151016014Y-90641049D01*
X150813955Y-91189833D01*
X150838951Y-91815828D01*
X151030420Y-92278077D01*
X151291032Y-92369363D01*
X152220395Y-91440000D01*
X152206253Y-91425858D01*
X152385858Y-91246253D01*
X152400000Y-91260395D01*
X152414143Y-91246253D01*
X152593748Y-91425858D01*
X152579605Y-91440000D01*
X153508968Y-92369363D01*
X153769580Y-92278077D01*
X153845687Y-92071375D01*
X154595600Y-92821288D01*
X154595600Y-95819071D01*
X154445979Y-95968431D01*
X154290976Y-96341718D01*
X154290624Y-96745908D01*
X154444975Y-97119466D01*
X154730531Y-97405521D01*
X155103818Y-97560524D01*
X155508008Y-97560876D01*
X155881566Y-97406525D01*
X156129500Y-97159024D01*
X156129500Y-106484400D01*
X156183637Y-106756565D01*
X156337806Y-106987294D01*
X157744206Y-108393694D01*
X157974935Y-108547863D01*
X158247100Y-108602000D01*
X160079200Y-108602000D01*
X160351365Y-108547863D01*
X160582094Y-108393694D01*
X160795821Y-108179967D01*
X160975379Y-108254526D01*
X161601873Y-108255073D01*
X162180887Y-108015829D01*
X162624272Y-107573217D01*
X162864526Y-106994621D01*
X162865073Y-106368127D01*
X162625829Y-105789113D01*
X162247104Y-105409727D01*
X162624272Y-105033217D01*
X162864526Y-104454621D01*
X162865073Y-103828127D01*
X162625829Y-103249113D01*
X162247104Y-102869727D01*
X162624272Y-102493217D01*
X162864526Y-101914621D01*
X162865073Y-101288127D01*
X162625829Y-100709113D01*
X162247104Y-100329727D01*
X162624272Y-99953217D01*
X162864526Y-99374621D01*
X162865073Y-98748127D01*
X162625829Y-98169113D01*
X162247104Y-97789727D01*
X162624272Y-97413217D01*
X162864526Y-96834621D01*
X162865073Y-96208127D01*
X162625829Y-95629113D01*
X162247104Y-95249727D01*
X162624272Y-94873217D01*
X162864526Y-94294621D01*
X162865073Y-93668127D01*
X162625829Y-93089113D01*
X162247104Y-92709727D01*
X162624272Y-92333217D01*
X162864526Y-91754621D01*
X162865073Y-91128127D01*
X162625829Y-90549113D01*
X162247104Y-90169727D01*
X162624272Y-89793217D01*
X162864526Y-89214621D01*
X162865073Y-88588127D01*
X162625829Y-88009113D01*
X162183217Y-87565728D01*
X161604621Y-87325474D01*
X160978127Y-87324927D01*
X160731200Y-87426955D01*
X160731200Y-77093888D01*
X164388800Y-80751489D01*
X164388800Y-97790000D01*
X164442937Y-98062165D01*
X164597106Y-98292894D01*
X167410033Y-101105822D01*
X167335474Y-101285379D01*
X167334927Y-101911873D01*
X167574171Y-102490887D01*
X167952896Y-102870273D01*
X167575728Y-103246783D01*
X167335474Y-103825379D01*
X167334927Y-104451873D01*
X167574171Y-105030887D01*
X167952896Y-105410273D01*
X167575728Y-105786783D01*
X167335474Y-106365379D01*
X167334927Y-106991873D01*
X167574171Y-107570887D01*
X168016783Y-108014272D01*
X168595379Y-108254526D01*
X169221873Y-108255073D01*
X169800887Y-108015829D01*
X170180273Y-107637104D01*
X170556783Y-108014272D01*
X171135379Y-108254526D01*
X171761873Y-108255073D01*
X172340887Y-108015829D01*
X172784272Y-107573217D01*
X173024526Y-106994621D01*
X173025073Y-106368127D01*
X172785829Y-105789113D01*
X172407104Y-105409727D01*
X172784272Y-105033217D01*
X173024526Y-104454621D01*
X173025073Y-103828127D01*
X172785829Y-103249113D01*
X172407104Y-102869727D01*
X172784272Y-102493217D01*
X173024526Y-101914621D01*
X173025073Y-101288127D01*
X172785829Y-100709113D01*
X172407104Y-100329727D01*
X172784272Y-99953217D01*
X173024526Y-99374621D01*
X173025073Y-98748127D01*
X172785829Y-98169113D01*
X172407104Y-97789727D01*
X172784272Y-97413217D01*
X173024526Y-96834621D01*
X173025073Y-96208127D01*
X172785829Y-95629113D01*
X172407104Y-95249727D01*
X172784272Y-94873217D01*
X173024526Y-94294621D01*
X173025073Y-93668127D01*
X172785829Y-93089113D01*
X172407104Y-92709727D01*
X172784272Y-92333217D01*
X173024526Y-91754621D01*
X173025073Y-91128127D01*
X172785829Y-90549113D01*
X172407104Y-90169727D01*
X172784272Y-89793217D01*
X173024526Y-89214621D01*
X173025073Y-88588127D01*
X172785829Y-88009113D01*
X172343217Y-87565728D01*
X171764621Y-87325474D01*
X171138127Y-87324927D01*
X170891200Y-87426955D01*
X170891200Y-76403134D01*
X171135379Y-76504526D01*
X171761873Y-76505073D01*
X172340887Y-76265829D01*
X172784272Y-75823217D01*
X173024526Y-75244621D01*
X173025073Y-74618127D01*
X172785829Y-74039113D01*
X172407104Y-73659727D01*
X172784272Y-73283217D01*
X173024526Y-72704621D01*
X173025073Y-72078127D01*
X172785829Y-71499113D01*
X172407104Y-71119727D01*
X172784272Y-70743217D01*
X173024526Y-70164621D01*
X173025073Y-69538127D01*
X172785829Y-68959113D01*
X172407104Y-68579727D01*
X172784272Y-68203217D01*
X173024526Y-67624621D01*
X173025073Y-66998127D01*
X172785829Y-66419113D01*
X172407104Y-66039727D01*
X172784272Y-65663217D01*
X173024526Y-65084621D01*
X173025073Y-64458127D01*
X172785829Y-63879113D01*
X172407104Y-63499727D01*
X172784272Y-63123217D01*
X173024526Y-62544621D01*
X173025073Y-61918127D01*
X172785829Y-61339113D01*
X172407104Y-60959727D01*
X172784272Y-60583217D01*
X173024526Y-60004621D01*
X173025073Y-59378127D01*
X172785829Y-58799113D01*
X172407104Y-58419727D01*
X172784272Y-58043217D01*
X173024526Y-57464621D01*
X173025073Y-56838127D01*
X172785829Y-56259113D01*
X172343217Y-55815728D01*
X171764621Y-55575474D01*
X171138127Y-55574927D01*
X170559113Y-55814171D01*
X170179727Y-56192896D01*
X169803217Y-55815728D01*
X169224621Y-55575474D01*
X168598127Y-55574927D01*
X168019113Y-55814171D01*
X167575728Y-56256783D01*
X167335474Y-56835379D01*
X167334927Y-57461873D01*
X167574171Y-58040887D01*
X167952896Y-58420273D01*
X167575728Y-58796783D01*
X167335474Y-59375379D01*
X167334927Y-60001873D01*
X167574171Y-60580887D01*
X167952896Y-60960273D01*
X167575728Y-61336783D01*
X167335474Y-61915379D01*
X167334927Y-62541873D01*
X167574171Y-63120887D01*
X167952896Y-63500273D01*
X167575728Y-63876783D01*
X167335474Y-64455379D01*
X167334927Y-65081873D01*
X167410190Y-65264022D01*
X166882006Y-65792206D01*
X166727837Y-66022935D01*
X166695301Y-66186506D01*
X166673700Y-66295100D01*
X166673700Y-94994900D01*
X166727837Y-95267065D01*
X166882006Y-95497794D01*
X167410033Y-96025821D01*
X167335474Y-96205379D01*
X167334927Y-96831873D01*
X167574171Y-97410887D01*
X167952896Y-97790273D01*
X167575728Y-98166783D01*
X167335474Y-98745379D01*
X167335235Y-99019446D01*
X165811200Y-97495412D01*
X165811200Y-80456900D01*
X165769217Y-80245836D01*
X165757063Y-80184735D01*
X165602895Y-79954006D01*
X161992541Y-76343652D01*
X162180887Y-76265829D01*
X162624272Y-75823217D01*
X162864526Y-75244621D01*
X162865073Y-74618127D01*
X162625829Y-74039113D01*
X162247104Y-73659727D01*
X162624272Y-73283217D01*
X162864526Y-72704621D01*
X162865073Y-72078127D01*
X162625829Y-71499113D01*
X162247104Y-71119727D01*
X162624272Y-70743217D01*
X162864526Y-70164621D01*
X162865073Y-69538127D01*
X162625829Y-68959113D01*
X162247104Y-68579727D01*
X162624272Y-68203217D01*
X162864526Y-67624621D01*
X162865073Y-66998127D01*
X162625829Y-66419113D01*
X162247104Y-66039727D01*
X162624272Y-65663217D01*
X162864526Y-65084621D01*
X162865073Y-64458127D01*
X162625829Y-63879113D01*
X162247104Y-63499727D01*
X162624272Y-63123217D01*
X162864526Y-62544621D01*
X162865073Y-61918127D01*
X162625829Y-61339113D01*
X162247104Y-60959727D01*
X162624272Y-60583217D01*
X162864526Y-60004621D01*
X162865073Y-59378127D01*
X162625829Y-58799113D01*
X162247104Y-58419727D01*
X162624272Y-58043217D01*
X162864526Y-57464621D01*
X162865073Y-56838127D01*
X162625829Y-56259113D01*
X162183217Y-55815728D01*
X161604621Y-55575474D01*
X160978127Y-55574927D01*
X160399113Y-55814171D01*
X160019727Y-56192896D01*
X159643217Y-55815728D01*
X159064621Y-55575474D01*
X158438127Y-55574927D01*
X157859113Y-55814171D01*
X157415728Y-56256783D01*
X157175474Y-56835379D01*
X157174927Y-57461873D01*
X157250190Y-57644022D01*
X156807240Y-58086972D01*
X156653071Y-58317701D01*
X156602086Y-58574019D01*
X156598934Y-58589866D01*
X156598934Y-60206241D01*
X154907876Y-61897300D01*
X153797000Y-61897300D01*
X153797000Y-51002000D01*
X174330908Y-51002000D01*
X174550000Y-51221092D01*
X174550000Y-51221092D01*
G37*
X174550000Y-51221092D02*
X174550000Y-112481908D01*
X174076908Y-112955000D01*
X131752158Y-112955000D01*
X132582894Y-112124264D01*
X132737063Y-111893535D01*
X132764995Y-111753112D01*
X133094698Y-111532811D01*
X133350000Y-111150725D01*
X133605302Y-111532811D01*
X134070849Y-111843880D01*
X134620000Y-111953113D01*
X135169151Y-111843880D01*
X135634698Y-111532811D01*
X135890000Y-111150725D01*
X136145302Y-111532811D01*
X136610849Y-111843880D01*
X137160000Y-111953113D01*
X137709151Y-111843880D01*
X138174698Y-111532811D01*
X138430000Y-111150725D01*
X138685302Y-111532811D01*
X139150849Y-111843880D01*
X139700000Y-111953113D01*
X140249151Y-111843880D01*
X140714698Y-111532811D01*
X140970000Y-111150725D01*
X141225302Y-111532811D01*
X141690849Y-111843880D01*
X142240000Y-111953113D01*
X142789151Y-111843880D01*
X143254698Y-111532811D01*
X143510000Y-111150725D01*
X143765302Y-111532811D01*
X144230849Y-111843880D01*
X144780000Y-111953113D01*
X145329151Y-111843880D01*
X145794698Y-111532811D01*
X146064986Y-111128297D01*
X146167611Y-111345134D01*
X146582577Y-111721041D01*
X146970961Y-111881904D01*
X147193000Y-111759915D01*
X147193000Y-110617000D01*
X147447000Y-110617000D01*
X147447000Y-111759915D01*
X147669039Y-111881904D01*
X148057423Y-111721041D01*
X148472389Y-111345134D01*
X148711914Y-110839041D01*
X148590629Y-110617000D01*
X147447000Y-110617000D01*
X147193000Y-110617000D01*
X147173000Y-110617000D01*
X147173000Y-110363000D01*
X147193000Y-110363000D01*
X147193000Y-109220085D01*
X147447000Y-109220085D01*
X147447000Y-110363000D01*
X148590629Y-110363000D01*
X148711914Y-110140959D01*
X148472389Y-109634866D01*
X148057423Y-109258959D01*
X147669039Y-109098096D01*
X147447000Y-109220085D01*
X147193000Y-109220085D01*
X146970961Y-109098096D01*
X146582577Y-109258959D01*
X146167611Y-109634866D01*
X146064986Y-109851703D01*
X145794698Y-109447189D01*
X145329151Y-109136120D01*
X144780000Y-109026887D01*
X144230849Y-109136120D01*
X143765302Y-109447189D01*
X143510000Y-109829275D01*
X143254698Y-109447189D01*
X142789151Y-109136120D01*
X142240000Y-109026887D01*
X141690849Y-109136120D01*
X141225302Y-109447189D01*
X140970000Y-109829275D01*
X140714698Y-109447189D01*
X140249151Y-109136120D01*
X139700000Y-109026887D01*
X139150849Y-109136120D01*
X138685302Y-109447189D01*
X138430000Y-109829275D01*
X138174698Y-109447189D01*
X137871200Y-109244398D01*
X137871200Y-109154602D01*
X138030317Y-109124662D01*
X138246441Y-108985590D01*
X138391431Y-108773390D01*
X138442440Y-108521500D01*
X138442440Y-107886500D01*
X138405279Y-107689007D01*
X138442440Y-107505500D01*
X138442440Y-106883462D01*
X141337873Y-103988029D01*
X141690849Y-104223880D01*
X142240000Y-104333113D01*
X142789151Y-104223880D01*
X143254698Y-103912811D01*
X143510000Y-103530725D01*
X143765302Y-103912811D01*
X144230849Y-104223880D01*
X144780000Y-104333113D01*
X145329151Y-104223880D01*
X145794698Y-103912811D01*
X146050000Y-103530725D01*
X146305302Y-103912811D01*
X146770849Y-104223880D01*
X147320000Y-104333113D01*
X147869151Y-104223880D01*
X148334698Y-103912811D01*
X148645767Y-103447264D01*
X148755000Y-102898113D01*
X148755000Y-102841887D01*
X148645767Y-102292736D01*
X148334698Y-101827189D01*
X147869151Y-101516120D01*
X147320000Y-101406887D01*
X146770849Y-101516120D01*
X146305302Y-101827189D01*
X146050000Y-102209275D01*
X145794698Y-101827189D01*
X145329151Y-101516120D01*
X144780000Y-101406887D01*
X144230849Y-101516120D01*
X143765302Y-101827189D01*
X143510000Y-102209275D01*
X143254698Y-101827189D01*
X142860865Y-101564037D01*
X147144902Y-97280000D01*
X151010090Y-97280000D01*
X151064171Y-97410887D01*
X151442896Y-97790273D01*
X151065728Y-98166783D01*
X150825474Y-98745379D01*
X150824927Y-99371873D01*
X151064171Y-99950887D01*
X151442896Y-100330273D01*
X151065728Y-100706783D01*
X150825474Y-101285379D01*
X150824927Y-101911873D01*
X151064171Y-102490887D01*
X151442896Y-102870273D01*
X151065728Y-103246783D01*
X150825474Y-103825379D01*
X150824927Y-104451873D01*
X151064171Y-105030887D01*
X151442896Y-105410273D01*
X151065728Y-105786783D01*
X150825474Y-106365379D01*
X150824927Y-106991873D01*
X151064171Y-107570887D01*
X151506783Y-108014272D01*
X152085379Y-108254526D01*
X152711873Y-108255073D01*
X153290887Y-108015829D01*
X153734272Y-107573217D01*
X153974526Y-106994621D01*
X153975073Y-106368127D01*
X153735829Y-105789113D01*
X153357104Y-105409727D01*
X153734272Y-105033217D01*
X153974526Y-104454621D01*
X153975073Y-103828127D01*
X153735829Y-103249113D01*
X153357104Y-102869727D01*
X153734272Y-102493217D01*
X153974526Y-101914621D01*
X153975073Y-101288127D01*
X153735829Y-100709113D01*
X153357104Y-100329727D01*
X153734272Y-99953217D01*
X153974526Y-99374621D01*
X153975073Y-98748127D01*
X153735829Y-98169113D01*
X153357104Y-97789727D01*
X153734272Y-97413217D01*
X153974526Y-96834621D01*
X153975073Y-96208127D01*
X153735829Y-95629113D01*
X153294885Y-95187399D01*
X153329363Y-95088968D01*
X152400000Y-94159605D01*
X151470637Y-95088968D01*
X151505313Y-95187964D01*
X151065728Y-95626783D01*
X151010411Y-95760000D01*
X146830100Y-95760000D01*
X146539261Y-95817852D01*
X146292699Y-95982599D01*
X140554890Y-101720408D01*
X140249151Y-101516120D01*
X139700000Y-101406887D01*
X139150849Y-101516120D01*
X138685302Y-101827189D01*
X138430000Y-102209275D01*
X138174698Y-101827189D01*
X137709151Y-101516120D01*
X137160000Y-101406887D01*
X136610849Y-101516120D01*
X136145302Y-101827189D01*
X135890000Y-102209275D01*
X135634698Y-101827189D01*
X135169151Y-101516120D01*
X134620000Y-101406887D01*
X134070849Y-101516120D01*
X133605302Y-101827189D01*
X133350000Y-102209275D01*
X133094698Y-101827189D01*
X132629151Y-101516120D01*
X132080000Y-101406887D01*
X131530849Y-101516120D01*
X131065302Y-101827189D01*
X130810000Y-102209275D01*
X130554698Y-101827189D01*
X130089151Y-101516120D01*
X129920555Y-101482584D01*
X129966600Y-101251100D01*
X129966600Y-87686986D01*
X130006849Y-87713880D01*
X130556000Y-87823113D01*
X131105151Y-87713880D01*
X131570698Y-87402811D01*
X131826000Y-87020725D01*
X132081302Y-87402811D01*
X132546849Y-87713880D01*
X133096000Y-87823113D01*
X133645151Y-87713880D01*
X134110698Y-87402811D01*
X134366000Y-87020725D01*
X134621302Y-87402811D01*
X135086849Y-87713880D01*
X135636000Y-87823113D01*
X136185151Y-87713880D01*
X136650698Y-87402811D01*
X136906000Y-87020725D01*
X137161302Y-87402811D01*
X137626849Y-87713880D01*
X138176000Y-87823113D01*
X138725151Y-87713880D01*
X138923650Y-87581247D01*
X138864406Y-87640491D01*
X138710237Y-87871220D01*
X138683272Y-88006783D01*
X138656100Y-88143385D01*
X138656100Y-89051171D01*
X138506479Y-89200531D01*
X138351476Y-89573818D01*
X138351124Y-89978008D01*
X138505475Y-90351566D01*
X138791031Y-90637621D01*
X139164318Y-90792624D01*
X139568508Y-90792976D01*
X139942066Y-90638625D01*
X140228121Y-90353069D01*
X140383124Y-89979782D01*
X140383476Y-89575592D01*
X140229125Y-89202034D01*
X140078500Y-89051146D01*
X140078500Y-88437973D01*
X140105273Y-88411200D01*
X147240835Y-88411200D01*
X147240724Y-88538908D01*
X147395075Y-88912466D01*
X147545700Y-89063354D01*
X147545700Y-94003975D01*
X147599837Y-94276140D01*
X147693932Y-94416962D01*
X147693722Y-94658181D01*
X147848073Y-95031739D01*
X148133629Y-95317794D01*
X148506916Y-95472797D01*
X148911106Y-95473149D01*
X149284664Y-95318798D01*
X149570719Y-95033242D01*
X149725722Y-94659955D01*
X149726074Y-94255765D01*
X149571723Y-93882207D01*
X149419615Y-93729833D01*
X150813955Y-93729833D01*
X150838951Y-94355828D01*
X151030420Y-94818077D01*
X151291032Y-94909363D01*
X152220395Y-93980000D01*
X152579605Y-93980000D01*
X153508968Y-94909363D01*
X153769580Y-94818077D01*
X153986045Y-94230167D01*
X153961049Y-93604172D01*
X153769580Y-93141923D01*
X153508968Y-93050637D01*
X152579605Y-93980000D01*
X152220395Y-93980000D01*
X151291032Y-93050637D01*
X151030420Y-93141923D01*
X150813955Y-93729833D01*
X149419615Y-93729833D01*
X149286167Y-93596152D01*
X148968100Y-93464078D01*
X148968100Y-92548968D01*
X151470637Y-92548968D01*
X151527043Y-92710000D01*
X151470637Y-92871032D01*
X152400000Y-93800395D01*
X153329363Y-92871032D01*
X153272957Y-92710000D01*
X153329363Y-92548968D01*
X152400000Y-91619605D01*
X151470637Y-92548968D01*
X148968100Y-92548968D01*
X148968100Y-89063329D01*
X149117721Y-88913969D01*
X149164859Y-88800448D01*
X150984206Y-90619795D01*
X151016014Y-90641049D01*
X150813955Y-91189833D01*
X150838951Y-91815828D01*
X151030420Y-92278077D01*
X151291032Y-92369363D01*
X152220395Y-91440000D01*
X152206253Y-91425858D01*
X152385858Y-91246253D01*
X152400000Y-91260395D01*
X152414143Y-91246253D01*
X152593748Y-91425858D01*
X152579605Y-91440000D01*
X153508968Y-92369363D01*
X153769580Y-92278077D01*
X153845687Y-92071375D01*
X154595600Y-92821288D01*
X154595600Y-95819071D01*
X154445979Y-95968431D01*
X154290976Y-96341718D01*
X154290624Y-96745908D01*
X154444975Y-97119466D01*
X154730531Y-97405521D01*
X155103818Y-97560524D01*
X155508008Y-97560876D01*
X155881566Y-97406525D01*
X156129500Y-97159024D01*
X156129500Y-106484400D01*
X156183637Y-106756565D01*
X156337806Y-106987294D01*
X157744206Y-108393694D01*
X157974935Y-108547863D01*
X158247100Y-108602000D01*
X160079200Y-108602000D01*
X160351365Y-108547863D01*
X160582094Y-108393694D01*
X160795821Y-108179967D01*
X160975379Y-108254526D01*
X161601873Y-108255073D01*
X162180887Y-108015829D01*
X162624272Y-107573217D01*
X162864526Y-106994621D01*
X162865073Y-106368127D01*
X162625829Y-105789113D01*
X162247104Y-105409727D01*
X162624272Y-105033217D01*
X162864526Y-104454621D01*
X162865073Y-103828127D01*
X162625829Y-103249113D01*
X162247104Y-102869727D01*
X162624272Y-102493217D01*
X162864526Y-101914621D01*
X162865073Y-101288127D01*
X162625829Y-100709113D01*
X162247104Y-100329727D01*
X162624272Y-99953217D01*
X162864526Y-99374621D01*
X162865073Y-98748127D01*
X162625829Y-98169113D01*
X162247104Y-97789727D01*
X162624272Y-97413217D01*
X162864526Y-96834621D01*
X162865073Y-96208127D01*
X162625829Y-95629113D01*
X162247104Y-95249727D01*
X162624272Y-94873217D01*
X162864526Y-94294621D01*
X162865073Y-93668127D01*
X162625829Y-93089113D01*
X162247104Y-92709727D01*
X162624272Y-92333217D01*
X162864526Y-91754621D01*
X162865073Y-91128127D01*
X162625829Y-90549113D01*
X162247104Y-90169727D01*
X162624272Y-89793217D01*
X162864526Y-89214621D01*
X162865073Y-88588127D01*
X162625829Y-88009113D01*
X162183217Y-87565728D01*
X161604621Y-87325474D01*
X160978127Y-87324927D01*
X160731200Y-87426955D01*
X160731200Y-77093888D01*
X164388800Y-80751489D01*
X164388800Y-97790000D01*
X164442937Y-98062165D01*
X164597106Y-98292894D01*
X167410033Y-101105822D01*
X167335474Y-101285379D01*
X167334927Y-101911873D01*
X167574171Y-102490887D01*
X167952896Y-102870273D01*
X167575728Y-103246783D01*
X167335474Y-103825379D01*
X167334927Y-104451873D01*
X167574171Y-105030887D01*
X167952896Y-105410273D01*
X167575728Y-105786783D01*
X167335474Y-106365379D01*
X167334927Y-106991873D01*
X167574171Y-107570887D01*
X168016783Y-108014272D01*
X168595379Y-108254526D01*
X169221873Y-108255073D01*
X169800887Y-108015829D01*
X170180273Y-107637104D01*
X170556783Y-108014272D01*
X171135379Y-108254526D01*
X171761873Y-108255073D01*
X172340887Y-108015829D01*
X172784272Y-107573217D01*
X173024526Y-106994621D01*
X173025073Y-106368127D01*
X172785829Y-105789113D01*
X172407104Y-105409727D01*
X172784272Y-105033217D01*
X173024526Y-104454621D01*
X173025073Y-103828127D01*
X172785829Y-103249113D01*
X172407104Y-102869727D01*
X172784272Y-102493217D01*
X173024526Y-101914621D01*
X173025073Y-101288127D01*
X172785829Y-100709113D01*
X172407104Y-100329727D01*
X172784272Y-99953217D01*
X173024526Y-99374621D01*
X173025073Y-98748127D01*
X172785829Y-98169113D01*
X172407104Y-97789727D01*
X172784272Y-97413217D01*
X173024526Y-96834621D01*
X173025073Y-96208127D01*
X172785829Y-95629113D01*
X172407104Y-95249727D01*
X172784272Y-94873217D01*
X173024526Y-94294621D01*
X173025073Y-93668127D01*
X172785829Y-93089113D01*
X172407104Y-92709727D01*
X172784272Y-92333217D01*
X173024526Y-91754621D01*
X173025073Y-91128127D01*
X172785829Y-90549113D01*
X172407104Y-90169727D01*
X172784272Y-89793217D01*
X173024526Y-89214621D01*
X173025073Y-88588127D01*
X172785829Y-88009113D01*
X172343217Y-87565728D01*
X171764621Y-87325474D01*
X171138127Y-87324927D01*
X170891200Y-87426955D01*
X170891200Y-76403134D01*
X171135379Y-76504526D01*
X171761873Y-76505073D01*
X172340887Y-76265829D01*
X172784272Y-75823217D01*
X173024526Y-75244621D01*
X173025073Y-74618127D01*
X172785829Y-74039113D01*
X172407104Y-73659727D01*
X172784272Y-73283217D01*
X173024526Y-72704621D01*
X173025073Y-72078127D01*
X172785829Y-71499113D01*
X172407104Y-71119727D01*
X172784272Y-70743217D01*
X173024526Y-70164621D01*
X173025073Y-69538127D01*
X172785829Y-68959113D01*
X172407104Y-68579727D01*
X172784272Y-68203217D01*
X173024526Y-67624621D01*
X173025073Y-66998127D01*
X172785829Y-66419113D01*
X172407104Y-66039727D01*
X172784272Y-65663217D01*
X173024526Y-65084621D01*
X173025073Y-64458127D01*
X172785829Y-63879113D01*
X172407104Y-63499727D01*
X172784272Y-63123217D01*
X173024526Y-62544621D01*
X173025073Y-61918127D01*
X172785829Y-61339113D01*
X172407104Y-60959727D01*
X172784272Y-60583217D01*
X173024526Y-60004621D01*
X173025073Y-59378127D01*
X172785829Y-58799113D01*
X172407104Y-58419727D01*
X172784272Y-58043217D01*
X173024526Y-57464621D01*
X173025073Y-56838127D01*
X172785829Y-56259113D01*
X172343217Y-55815728D01*
X171764621Y-55575474D01*
X171138127Y-55574927D01*
X170559113Y-55814171D01*
X170179727Y-56192896D01*
X169803217Y-55815728D01*
X169224621Y-55575474D01*
X168598127Y-55574927D01*
X168019113Y-55814171D01*
X167575728Y-56256783D01*
X167335474Y-56835379D01*
X167334927Y-57461873D01*
X167574171Y-58040887D01*
X167952896Y-58420273D01*
X167575728Y-58796783D01*
X167335474Y-59375379D01*
X167334927Y-60001873D01*
X167574171Y-60580887D01*
X167952896Y-60960273D01*
X167575728Y-61336783D01*
X167335474Y-61915379D01*
X167334927Y-62541873D01*
X167574171Y-63120887D01*
X167952896Y-63500273D01*
X167575728Y-63876783D01*
X167335474Y-64455379D01*
X167334927Y-65081873D01*
X167410190Y-65264022D01*
X166882006Y-65792206D01*
X166727837Y-66022935D01*
X166695301Y-66186506D01*
X166673700Y-66295100D01*
X166673700Y-94994900D01*
X166727837Y-95267065D01*
X166882006Y-95497794D01*
X167410033Y-96025821D01*
X167335474Y-96205379D01*
X167334927Y-96831873D01*
X167574171Y-97410887D01*
X167952896Y-97790273D01*
X167575728Y-98166783D01*
X167335474Y-98745379D01*
X167335235Y-99019446D01*
X165811200Y-97495412D01*
X165811200Y-80456900D01*
X165769217Y-80245836D01*
X165757063Y-80184735D01*
X165602895Y-79954006D01*
X161992541Y-76343652D01*
X162180887Y-76265829D01*
X162624272Y-75823217D01*
X162864526Y-75244621D01*
X162865073Y-74618127D01*
X162625829Y-74039113D01*
X162247104Y-73659727D01*
X162624272Y-73283217D01*
X162864526Y-72704621D01*
X162865073Y-72078127D01*
X162625829Y-71499113D01*
X162247104Y-71119727D01*
X162624272Y-70743217D01*
X162864526Y-70164621D01*
X162865073Y-69538127D01*
X162625829Y-68959113D01*
X162247104Y-68579727D01*
X162624272Y-68203217D01*
X162864526Y-67624621D01*
X162865073Y-66998127D01*
X162625829Y-66419113D01*
X162247104Y-66039727D01*
X162624272Y-65663217D01*
X162864526Y-65084621D01*
X162865073Y-64458127D01*
X162625829Y-63879113D01*
X162247104Y-63499727D01*
X162624272Y-63123217D01*
X162864526Y-62544621D01*
X162865073Y-61918127D01*
X162625829Y-61339113D01*
X162247104Y-60959727D01*
X162624272Y-60583217D01*
X162864526Y-60004621D01*
X162865073Y-59378127D01*
X162625829Y-58799113D01*
X162247104Y-58419727D01*
X162624272Y-58043217D01*
X162864526Y-57464621D01*
X162865073Y-56838127D01*
X162625829Y-56259113D01*
X162183217Y-55815728D01*
X161604621Y-55575474D01*
X160978127Y-55574927D01*
X160399113Y-55814171D01*
X160019727Y-56192896D01*
X159643217Y-55815728D01*
X159064621Y-55575474D01*
X158438127Y-55574927D01*
X157859113Y-55814171D01*
X157415728Y-56256783D01*
X157175474Y-56835379D01*
X157174927Y-57461873D01*
X157250190Y-57644022D01*
X156807240Y-58086972D01*
X156653071Y-58317701D01*
X156602086Y-58574019D01*
X156598934Y-58589866D01*
X156598934Y-60206241D01*
X154907876Y-61897300D01*
X153797000Y-61897300D01*
X153797000Y-51002000D01*
X174330908Y-51002000D01*
X174550000Y-51221092D01*
G36*
X127466849Y-87713880D02*
X128016000Y-87823113D01*
X128446600Y-87737461D01*
X128446600Y-100936298D01*
X127739554Y-101643344D01*
X127549151Y-101516120D01*
X127000000Y-101406887D01*
X126450849Y-101516120D01*
X125985302Y-101827189D01*
X125674233Y-102292736D01*
X125565000Y-102841887D01*
X125565000Y-102898113D01*
X125674233Y-103447264D01*
X125985302Y-103912811D01*
X126450849Y-104223880D01*
X127000000Y-104333113D01*
X127549151Y-104223880D01*
X127886961Y-103998163D01*
X130808226Y-106919428D01*
X130797560Y-106972100D01*
X130797560Y-107607100D01*
X130814902Y-107699264D01*
X130797560Y-107784900D01*
X130797560Y-108419900D01*
X130841838Y-108655217D01*
X130939157Y-108806455D01*
X130401072Y-109344540D01*
X130089151Y-109136120D01*
X129540000Y-109026887D01*
X128990849Y-109136120D01*
X128525302Y-109447189D01*
X128428899Y-109591465D01*
X128403162Y-109454683D01*
X128289533Y-109278099D01*
X128388248Y-109179557D01*
X128543251Y-108806270D01*
X128543603Y-108402080D01*
X128389252Y-108028522D01*
X128103696Y-107742467D01*
X127730409Y-107587464D01*
X127326219Y-107587112D01*
X126952661Y-107741463D01*
X126666606Y-108027019D01*
X126535010Y-108343935D01*
X124239248Y-108343935D01*
X118278764Y-102383452D01*
X118278764Y-97193289D01*
X118445018Y-97262324D01*
X118849208Y-97262676D01*
X119222766Y-97108325D01*
X119508821Y-96822769D01*
X119663824Y-96449482D01*
X119664176Y-96045292D01*
X119509825Y-95671734D01*
X119224269Y-95385679D01*
X118850982Y-95230676D01*
X118840655Y-95230667D01*
X117058652Y-93448664D01*
X117158272Y-93349217D01*
X117398526Y-92770621D01*
X117399073Y-92144127D01*
X117159829Y-91565113D01*
X116717217Y-91121728D01*
X116259891Y-90931830D01*
X116714887Y-90743829D01*
X117158272Y-90301217D01*
X117398526Y-89722621D01*
X117399073Y-89096127D01*
X117319522Y-88903600D01*
X125684151Y-88903600D01*
X125956316Y-88849463D01*
X126187045Y-88695294D01*
X127223081Y-87659259D01*
X127273090Y-87584414D01*
X127466849Y-87713880D01*
X127466849Y-87713880D01*
G37*
X127466849Y-87713880D02*
X128016000Y-87823113D01*
X128446600Y-87737461D01*
X128446600Y-100936298D01*
X127739554Y-101643344D01*
X127549151Y-101516120D01*
X127000000Y-101406887D01*
X126450849Y-101516120D01*
X125985302Y-101827189D01*
X125674233Y-102292736D01*
X125565000Y-102841887D01*
X125565000Y-102898113D01*
X125674233Y-103447264D01*
X125985302Y-103912811D01*
X126450849Y-104223880D01*
X127000000Y-104333113D01*
X127549151Y-104223880D01*
X127886961Y-103998163D01*
X130808226Y-106919428D01*
X130797560Y-106972100D01*
X130797560Y-107607100D01*
X130814902Y-107699264D01*
X130797560Y-107784900D01*
X130797560Y-108419900D01*
X130841838Y-108655217D01*
X130939157Y-108806455D01*
X130401072Y-109344540D01*
X130089151Y-109136120D01*
X129540000Y-109026887D01*
X128990849Y-109136120D01*
X128525302Y-109447189D01*
X128428899Y-109591465D01*
X128403162Y-109454683D01*
X128289533Y-109278099D01*
X128388248Y-109179557D01*
X128543251Y-108806270D01*
X128543603Y-108402080D01*
X128389252Y-108028522D01*
X128103696Y-107742467D01*
X127730409Y-107587464D01*
X127326219Y-107587112D01*
X126952661Y-107741463D01*
X126666606Y-108027019D01*
X126535010Y-108343935D01*
X124239248Y-108343935D01*
X118278764Y-102383452D01*
X118278764Y-97193289D01*
X118445018Y-97262324D01*
X118849208Y-97262676D01*
X119222766Y-97108325D01*
X119508821Y-96822769D01*
X119663824Y-96449482D01*
X119664176Y-96045292D01*
X119509825Y-95671734D01*
X119224269Y-95385679D01*
X118850982Y-95230676D01*
X118840655Y-95230667D01*
X117058652Y-93448664D01*
X117158272Y-93349217D01*
X117398526Y-92770621D01*
X117399073Y-92144127D01*
X117159829Y-91565113D01*
X116717217Y-91121728D01*
X116259891Y-90931830D01*
X116714887Y-90743829D01*
X117158272Y-90301217D01*
X117398526Y-89722621D01*
X117399073Y-89096127D01*
X117319522Y-88903600D01*
X125684151Y-88903600D01*
X125956316Y-88849463D01*
X126187045Y-88695294D01*
X127223081Y-87659259D01*
X127273090Y-87584414D01*
X127466849Y-87713880D01*
G36*
X142241302Y-79782811D02*
X142706849Y-80093880D01*
X143256000Y-80203113D01*
X143805151Y-80093880D01*
X144270698Y-79782811D01*
X144300268Y-79738556D01*
X151945550Y-87383839D01*
X151509113Y-87564171D01*
X151065728Y-88006783D01*
X150865346Y-88489357D01*
X149573094Y-87197106D01*
X149342365Y-87042937D01*
X149070200Y-86988800D01*
X144515509Y-86988800D01*
X144647914Y-86709041D01*
X144526629Y-86487000D01*
X143383000Y-86487000D01*
X143383000Y-86507000D01*
X143129000Y-86507000D01*
X143129000Y-86487000D01*
X143109000Y-86487000D01*
X143109000Y-86233000D01*
X143129000Y-86233000D01*
X143129000Y-85090085D01*
X143383000Y-85090085D01*
X143383000Y-86233000D01*
X144526629Y-86233000D01*
X144647914Y-86010959D01*
X144408389Y-85504866D01*
X143993423Y-85128959D01*
X143605039Y-84968096D01*
X143383000Y-85090085D01*
X143129000Y-85090085D01*
X142906961Y-84968096D01*
X142518577Y-85128959D01*
X142103611Y-85504866D01*
X142000986Y-85721703D01*
X141730698Y-85317189D01*
X141265151Y-85006120D01*
X140716000Y-84896887D01*
X140166849Y-85006120D01*
X140157200Y-85012567D01*
X140157200Y-80087433D01*
X140166849Y-80093880D01*
X140716000Y-80203113D01*
X141265151Y-80093880D01*
X141730698Y-79782811D01*
X141986000Y-79400725D01*
X142241302Y-79782811D01*
X142241302Y-79782811D01*
G37*
X142241302Y-79782811D02*
X142706849Y-80093880D01*
X143256000Y-80203113D01*
X143805151Y-80093880D01*
X144270698Y-79782811D01*
X144300268Y-79738556D01*
X151945550Y-87383839D01*
X151509113Y-87564171D01*
X151065728Y-88006783D01*
X150865346Y-88489357D01*
X149573094Y-87197106D01*
X149342365Y-87042937D01*
X149070200Y-86988800D01*
X144515509Y-86988800D01*
X144647914Y-86709041D01*
X144526629Y-86487000D01*
X143383000Y-86487000D01*
X143383000Y-86507000D01*
X143129000Y-86507000D01*
X143129000Y-86487000D01*
X143109000Y-86487000D01*
X143109000Y-86233000D01*
X143129000Y-86233000D01*
X143129000Y-85090085D01*
X143383000Y-85090085D01*
X143383000Y-86233000D01*
X144526629Y-86233000D01*
X144647914Y-86010959D01*
X144408389Y-85504866D01*
X143993423Y-85128959D01*
X143605039Y-84968096D01*
X143383000Y-85090085D01*
X143129000Y-85090085D01*
X142906961Y-84968096D01*
X142518577Y-85128959D01*
X142103611Y-85504866D01*
X142000986Y-85721703D01*
X141730698Y-85317189D01*
X141265151Y-85006120D01*
X140716000Y-84896887D01*
X140166849Y-85006120D01*
X140157200Y-85012567D01*
X140157200Y-80087433D01*
X140166849Y-80093880D01*
X140716000Y-80203113D01*
X141265151Y-80093880D01*
X141730698Y-79782811D01*
X141986000Y-79400725D01*
X142241302Y-79782811D01*
G36*
X137161302Y-79782811D02*
X137626849Y-80093880D01*
X138176000Y-80203113D01*
X138725151Y-80093880D01*
X138734800Y-80087433D01*
X138734800Y-85012567D01*
X138725151Y-85006120D01*
X138176000Y-84896887D01*
X137626849Y-85006120D01*
X137161302Y-85317189D01*
X136906000Y-85699275D01*
X136650698Y-85317189D01*
X136185151Y-85006120D01*
X135636000Y-84896887D01*
X135086849Y-85006120D01*
X134621302Y-85317189D01*
X134366000Y-85699275D01*
X134110698Y-85317189D01*
X133807200Y-85114398D01*
X133807200Y-84669002D01*
X133966317Y-84639062D01*
X134182441Y-84499990D01*
X134327431Y-84287790D01*
X134378440Y-84035900D01*
X134378440Y-83400900D01*
X134361098Y-83308736D01*
X134378440Y-83223100D01*
X134378440Y-82588100D01*
X134334162Y-82352783D01*
X134195090Y-82136659D01*
X133982890Y-81991669D01*
X133731000Y-81940660D01*
X132461000Y-81940660D01*
X132225683Y-81984938D01*
X132098526Y-82066761D01*
X131984100Y-82044000D01*
X131660843Y-82044000D01*
X131655090Y-82035059D01*
X131442890Y-81890069D01*
X131191000Y-81839060D01*
X129921000Y-81839060D01*
X129685683Y-81883338D01*
X129469559Y-82022410D01*
X129440511Y-82064924D01*
X129254861Y-82101852D01*
X129189387Y-82145600D01*
X129120843Y-82145600D01*
X129115090Y-82136659D01*
X128902890Y-81991669D01*
X128651000Y-81940660D01*
X127381000Y-81940660D01*
X127157598Y-81982696D01*
X125353685Y-80178783D01*
X125476000Y-80203113D01*
X126025151Y-80093880D01*
X126490698Y-79782811D01*
X126746000Y-79400725D01*
X127001302Y-79782811D01*
X127466849Y-80093880D01*
X128016000Y-80203113D01*
X128565151Y-80093880D01*
X129030698Y-79782811D01*
X129286000Y-79400725D01*
X129541302Y-79782811D01*
X130006849Y-80093880D01*
X130556000Y-80203113D01*
X131105151Y-80093880D01*
X131570698Y-79782811D01*
X131826000Y-79400725D01*
X132081302Y-79782811D01*
X132546849Y-80093880D01*
X133096000Y-80203113D01*
X133645151Y-80093880D01*
X134110698Y-79782811D01*
X134366000Y-79400725D01*
X134621302Y-79782811D01*
X135086849Y-80093880D01*
X135636000Y-80203113D01*
X136185151Y-80093880D01*
X136650698Y-79782811D01*
X136906000Y-79400725D01*
X137161302Y-79782811D01*
X137161302Y-79782811D01*
G37*
X137161302Y-79782811D02*
X137626849Y-80093880D01*
X138176000Y-80203113D01*
X138725151Y-80093880D01*
X138734800Y-80087433D01*
X138734800Y-85012567D01*
X138725151Y-85006120D01*
X138176000Y-84896887D01*
X137626849Y-85006120D01*
X137161302Y-85317189D01*
X136906000Y-85699275D01*
X136650698Y-85317189D01*
X136185151Y-85006120D01*
X135636000Y-84896887D01*
X135086849Y-85006120D01*
X134621302Y-85317189D01*
X134366000Y-85699275D01*
X134110698Y-85317189D01*
X133807200Y-85114398D01*
X133807200Y-84669002D01*
X133966317Y-84639062D01*
X134182441Y-84499990D01*
X134327431Y-84287790D01*
X134378440Y-84035900D01*
X134378440Y-83400900D01*
X134361098Y-83308736D01*
X134378440Y-83223100D01*
X134378440Y-82588100D01*
X134334162Y-82352783D01*
X134195090Y-82136659D01*
X133982890Y-81991669D01*
X133731000Y-81940660D01*
X132461000Y-81940660D01*
X132225683Y-81984938D01*
X132098526Y-82066761D01*
X131984100Y-82044000D01*
X131660843Y-82044000D01*
X131655090Y-82035059D01*
X131442890Y-81890069D01*
X131191000Y-81839060D01*
X129921000Y-81839060D01*
X129685683Y-81883338D01*
X129469559Y-82022410D01*
X129440511Y-82064924D01*
X129254861Y-82101852D01*
X129189387Y-82145600D01*
X129120843Y-82145600D01*
X129115090Y-82136659D01*
X128902890Y-81991669D01*
X128651000Y-81940660D01*
X127381000Y-81940660D01*
X127157598Y-81982696D01*
X125353685Y-80178783D01*
X125476000Y-80203113D01*
X126025151Y-80093880D01*
X126490698Y-79782811D01*
X126746000Y-79400725D01*
X127001302Y-79782811D01*
X127466849Y-80093880D01*
X128016000Y-80203113D01*
X128565151Y-80093880D01*
X129030698Y-79782811D01*
X129286000Y-79400725D01*
X129541302Y-79782811D01*
X130006849Y-80093880D01*
X130556000Y-80203113D01*
X131105151Y-80093880D01*
X131570698Y-79782811D01*
X131826000Y-79400725D01*
X132081302Y-79782811D01*
X132546849Y-80093880D01*
X133096000Y-80203113D01*
X133645151Y-80093880D01*
X134110698Y-79782811D01*
X134366000Y-79400725D01*
X134621302Y-79782811D01*
X135086849Y-80093880D01*
X135636000Y-80203113D01*
X136185151Y-80093880D01*
X136650698Y-79782811D01*
X136906000Y-79400725D01*
X137161302Y-79782811D01*
G36*
X124411167Y-83760956D02*
X124320539Y-83851425D01*
X124165536Y-84224712D01*
X124165184Y-84628902D01*
X124319535Y-85002460D01*
X124564728Y-85248082D01*
X124461302Y-85317189D01*
X124364899Y-85461465D01*
X124339162Y-85324683D01*
X124200090Y-85108559D01*
X123987890Y-84963569D01*
X123736000Y-84912560D01*
X123510358Y-84912560D01*
X123438894Y-84805606D01*
X123208164Y-84651437D01*
X122936000Y-84597300D01*
X122179089Y-84597300D01*
X117323967Y-79742179D01*
X117398526Y-79562621D01*
X117399073Y-78936127D01*
X117159829Y-78357113D01*
X116781104Y-77977727D01*
X117158272Y-77601217D01*
X117398526Y-77022621D01*
X117398765Y-76748554D01*
X124411167Y-83760956D01*
X124411167Y-83760956D01*
G37*
X124411167Y-83760956D02*
X124320539Y-83851425D01*
X124165536Y-84224712D01*
X124165184Y-84628902D01*
X124319535Y-85002460D01*
X124564728Y-85248082D01*
X124461302Y-85317189D01*
X124364899Y-85461465D01*
X124339162Y-85324683D01*
X124200090Y-85108559D01*
X123987890Y-84963569D01*
X123736000Y-84912560D01*
X123510358Y-84912560D01*
X123438894Y-84805606D01*
X123208164Y-84651437D01*
X122936000Y-84597300D01*
X122179089Y-84597300D01*
X117323967Y-79742179D01*
X117398526Y-79562621D01*
X117399073Y-78936127D01*
X117159829Y-78357113D01*
X116781104Y-77977727D01*
X117158272Y-77601217D01*
X117398526Y-77022621D01*
X117398765Y-76748554D01*
X124411167Y-83760956D01*
G36*
X145475805Y-72821594D02*
X145575396Y-72888138D01*
X145706536Y-72975763D01*
X145978700Y-73029900D01*
X150956472Y-73029900D01*
X150825474Y-73345379D01*
X150824927Y-73971873D01*
X151064171Y-74550887D01*
X151442896Y-74930273D01*
X151065728Y-75306783D01*
X150825474Y-75885379D01*
X150824927Y-76511873D01*
X151064171Y-77090887D01*
X151442896Y-77470273D01*
X151065728Y-77846783D01*
X150825474Y-78425379D01*
X150824927Y-79051873D01*
X151064171Y-79630887D01*
X151442896Y-80010273D01*
X151065728Y-80386783D01*
X150825474Y-80965379D01*
X150824927Y-81591873D01*
X151064171Y-82170887D01*
X151442896Y-82550273D01*
X151065728Y-82926783D01*
X150825474Y-83505379D01*
X150824927Y-84131873D01*
X150909258Y-84335970D01*
X144810394Y-78237106D01*
X144579665Y-78082937D01*
X144520596Y-78071187D01*
X144270698Y-77697189D01*
X143967200Y-77494398D01*
X143967200Y-76556420D01*
X144127200Y-76490309D01*
X144560787Y-76057479D01*
X144795732Y-75491669D01*
X144796266Y-74879019D01*
X144562309Y-74312800D01*
X144129479Y-73879213D01*
X143563669Y-73644268D01*
X142951019Y-73643734D01*
X142384800Y-73877691D01*
X141985684Y-74276111D01*
X141589479Y-73879213D01*
X141023669Y-73644268D01*
X140411019Y-73643734D01*
X140157200Y-73748610D01*
X140157200Y-68326000D01*
X140105297Y-68065065D01*
X140103063Y-68053835D01*
X139948894Y-67823106D01*
X135930624Y-63804836D01*
X136201873Y-63805073D01*
X136384022Y-63729810D01*
X145475805Y-72821594D01*
X145475805Y-72821594D01*
G37*
X145475805Y-72821594D02*
X145575396Y-72888138D01*
X145706536Y-72975763D01*
X145978700Y-73029900D01*
X150956472Y-73029900D01*
X150825474Y-73345379D01*
X150824927Y-73971873D01*
X151064171Y-74550887D01*
X151442896Y-74930273D01*
X151065728Y-75306783D01*
X150825474Y-75885379D01*
X150824927Y-76511873D01*
X151064171Y-77090887D01*
X151442896Y-77470273D01*
X151065728Y-77846783D01*
X150825474Y-78425379D01*
X150824927Y-79051873D01*
X151064171Y-79630887D01*
X151442896Y-80010273D01*
X151065728Y-80386783D01*
X150825474Y-80965379D01*
X150824927Y-81591873D01*
X151064171Y-82170887D01*
X151442896Y-82550273D01*
X151065728Y-82926783D01*
X150825474Y-83505379D01*
X150824927Y-84131873D01*
X150909258Y-84335970D01*
X144810394Y-78237106D01*
X144579665Y-78082937D01*
X144520596Y-78071187D01*
X144270698Y-77697189D01*
X143967200Y-77494398D01*
X143967200Y-76556420D01*
X144127200Y-76490309D01*
X144560787Y-76057479D01*
X144795732Y-75491669D01*
X144796266Y-74879019D01*
X144562309Y-74312800D01*
X144129479Y-73879213D01*
X143563669Y-73644268D01*
X142951019Y-73643734D01*
X142384800Y-73877691D01*
X141985684Y-74276111D01*
X141589479Y-73879213D01*
X141023669Y-73644268D01*
X140411019Y-73643734D01*
X140157200Y-73748610D01*
X140157200Y-68326000D01*
X140105297Y-68065065D01*
X140103063Y-68053835D01*
X139948894Y-67823106D01*
X135930624Y-63804836D01*
X136201873Y-63805073D01*
X136384022Y-63729810D01*
X145475805Y-72821594D01*
G36*
X122935727Y-71292173D02*
X123174971Y-71871187D01*
X123617583Y-72314572D01*
X124196179Y-72554826D01*
X124822673Y-72555373D01*
X125069600Y-72453345D01*
X125069600Y-73304749D01*
X124973106Y-73401243D01*
X124818937Y-73631972D01*
X124800268Y-73725829D01*
X124784859Y-73803292D01*
X124604800Y-73877691D01*
X124433091Y-74049100D01*
X124379327Y-73919301D01*
X124200698Y-73740673D01*
X123967309Y-73644000D01*
X123221750Y-73644000D01*
X123063000Y-73802750D01*
X123063000Y-75057000D01*
X123083000Y-75057000D01*
X123083000Y-75311000D01*
X123063000Y-75311000D01*
X123063000Y-75331000D01*
X122809000Y-75331000D01*
X122809000Y-75311000D01*
X122789000Y-75311000D01*
X122789000Y-75057000D01*
X122809000Y-75057000D01*
X122809000Y-73802750D01*
X122650250Y-73644000D01*
X122415600Y-73644000D01*
X122415600Y-71610302D01*
X122935904Y-71089998D01*
X122935727Y-71292173D01*
X122935727Y-71292173D01*
G37*
X122935727Y-71292173D02*
X123174971Y-71871187D01*
X123617583Y-72314572D01*
X124196179Y-72554826D01*
X124822673Y-72555373D01*
X125069600Y-72453345D01*
X125069600Y-73304749D01*
X124973106Y-73401243D01*
X124818937Y-73631972D01*
X124800268Y-73725829D01*
X124784859Y-73803292D01*
X124604800Y-73877691D01*
X124433091Y-74049100D01*
X124379327Y-73919301D01*
X124200698Y-73740673D01*
X123967309Y-73644000D01*
X123221750Y-73644000D01*
X123063000Y-73802750D01*
X123063000Y-75057000D01*
X123083000Y-75057000D01*
X123083000Y-75311000D01*
X123063000Y-75311000D01*
X123063000Y-75331000D01*
X122809000Y-75331000D01*
X122809000Y-75311000D01*
X122789000Y-75311000D01*
X122789000Y-75057000D01*
X122809000Y-75057000D01*
X122809000Y-73802750D01*
X122650250Y-73644000D01*
X122415600Y-73644000D01*
X122415600Y-71610302D01*
X122935904Y-71089998D01*
X122935727Y-71292173D01*
G36*
X132456783Y-63564272D02*
X133035379Y-63804526D01*
X133661873Y-63805073D01*
X133844022Y-63729810D01*
X138734800Y-68620588D01*
X138734800Y-73748547D01*
X138483669Y-73644268D01*
X137871019Y-73643734D01*
X137304800Y-73877691D01*
X136905684Y-74276111D01*
X136509479Y-73879213D01*
X135943669Y-73644268D01*
X135331019Y-73643734D01*
X134764800Y-73877691D01*
X134365684Y-74276111D01*
X133969479Y-73879213D01*
X133403669Y-73644268D01*
X132791019Y-73643734D01*
X132224800Y-73877691D01*
X131825684Y-74276111D01*
X131429479Y-73879213D01*
X130863669Y-73644268D01*
X130251019Y-73643734D01*
X129684800Y-73877691D01*
X129285684Y-74276111D01*
X129030800Y-74020781D01*
X129030800Y-72453990D01*
X129273639Y-72554826D01*
X129900133Y-72555373D01*
X130479147Y-72316129D01*
X130922532Y-71873517D01*
X131162786Y-71294921D01*
X131163333Y-70668427D01*
X130924089Y-70089413D01*
X130483145Y-69647699D01*
X130517623Y-69549268D01*
X129588260Y-68619905D01*
X129574118Y-68634048D01*
X129394513Y-68454443D01*
X129408655Y-68440300D01*
X129767865Y-68440300D01*
X130697228Y-69369663D01*
X130957840Y-69278377D01*
X131174305Y-68690467D01*
X131149309Y-68064472D01*
X130957840Y-67602223D01*
X130697228Y-67510937D01*
X129767865Y-68440300D01*
X129408655Y-68440300D01*
X129394513Y-68426158D01*
X129574118Y-68246553D01*
X129588260Y-68260695D01*
X130517623Y-67331332D01*
X130426337Y-67070720D01*
X129838427Y-66854255D01*
X129212432Y-66879251D01*
X129030800Y-66954485D01*
X129030800Y-66650488D01*
X129966595Y-65714694D01*
X130120763Y-65483965D01*
X130174900Y-65211800D01*
X130174900Y-63671452D01*
X130495379Y-63804526D01*
X131121873Y-63805073D01*
X131700887Y-63565829D01*
X132080273Y-63187104D01*
X132456783Y-63564272D01*
X132456783Y-63564272D01*
G37*
X132456783Y-63564272D02*
X133035379Y-63804526D01*
X133661873Y-63805073D01*
X133844022Y-63729810D01*
X138734800Y-68620588D01*
X138734800Y-73748547D01*
X138483669Y-73644268D01*
X137871019Y-73643734D01*
X137304800Y-73877691D01*
X136905684Y-74276111D01*
X136509479Y-73879213D01*
X135943669Y-73644268D01*
X135331019Y-73643734D01*
X134764800Y-73877691D01*
X134365684Y-74276111D01*
X133969479Y-73879213D01*
X133403669Y-73644268D01*
X132791019Y-73643734D01*
X132224800Y-73877691D01*
X131825684Y-74276111D01*
X131429479Y-73879213D01*
X130863669Y-73644268D01*
X130251019Y-73643734D01*
X129684800Y-73877691D01*
X129285684Y-74276111D01*
X129030800Y-74020781D01*
X129030800Y-72453990D01*
X129273639Y-72554826D01*
X129900133Y-72555373D01*
X130479147Y-72316129D01*
X130922532Y-71873517D01*
X131162786Y-71294921D01*
X131163333Y-70668427D01*
X130924089Y-70089413D01*
X130483145Y-69647699D01*
X130517623Y-69549268D01*
X129588260Y-68619905D01*
X129574118Y-68634048D01*
X129394513Y-68454443D01*
X129408655Y-68440300D01*
X129767865Y-68440300D01*
X130697228Y-69369663D01*
X130957840Y-69278377D01*
X131174305Y-68690467D01*
X131149309Y-68064472D01*
X130957840Y-67602223D01*
X130697228Y-67510937D01*
X129767865Y-68440300D01*
X129408655Y-68440300D01*
X129394513Y-68426158D01*
X129574118Y-68246553D01*
X129588260Y-68260695D01*
X130517623Y-67331332D01*
X130426337Y-67070720D01*
X129838427Y-66854255D01*
X129212432Y-66879251D01*
X129030800Y-66954485D01*
X129030800Y-66650488D01*
X129966595Y-65714694D01*
X130120763Y-65483965D01*
X130174900Y-65211800D01*
X130174900Y-63671452D01*
X130495379Y-63804526D01*
X131121873Y-63805073D01*
X131700887Y-63565829D01*
X132080273Y-63187104D01*
X132456783Y-63564272D01*
G36*
X142616783Y-63564272D02*
X143195379Y-63804526D01*
X143821873Y-63805073D01*
X144324876Y-63597236D01*
X147199534Y-66471894D01*
X146877381Y-66471613D01*
X146692511Y-66548000D01*
X146558000Y-66548000D01*
X146510211Y-66557334D01*
X146468197Y-66585197D01*
X146373638Y-66679756D01*
X146055628Y-66811155D01*
X145426364Y-67439321D01*
X145085389Y-68260481D01*
X145084613Y-69149619D01*
X145424155Y-69971372D01*
X146052321Y-70600636D01*
X146873481Y-70941611D01*
X147762619Y-70942387D01*
X148584372Y-70602845D01*
X149213636Y-69974679D01*
X149554611Y-69153519D01*
X149554896Y-68827256D01*
X149943800Y-69216160D01*
X149943800Y-70947471D01*
X149794179Y-71096831D01*
X149639176Y-71470118D01*
X149639056Y-71607500D01*
X146273289Y-71607500D01*
X138470624Y-63804836D01*
X138741873Y-63805073D01*
X139320887Y-63565829D01*
X139700273Y-63187104D01*
X140076783Y-63564272D01*
X140655379Y-63804526D01*
X141281873Y-63805073D01*
X141860887Y-63565829D01*
X142240273Y-63187104D01*
X142616783Y-63564272D01*
X142616783Y-63564272D01*
G37*
X142616783Y-63564272D02*
X143195379Y-63804526D01*
X143821873Y-63805073D01*
X144324876Y-63597236D01*
X147199534Y-66471894D01*
X146877381Y-66471613D01*
X146692511Y-66548000D01*
X146558000Y-66548000D01*
X146510211Y-66557334D01*
X146468197Y-66585197D01*
X146373638Y-66679756D01*
X146055628Y-66811155D01*
X145426364Y-67439321D01*
X145085389Y-68260481D01*
X145084613Y-69149619D01*
X145424155Y-69971372D01*
X146052321Y-70600636D01*
X146873481Y-70941611D01*
X147762619Y-70942387D01*
X148584372Y-70602845D01*
X149213636Y-69974679D01*
X149554611Y-69153519D01*
X149554896Y-68827256D01*
X149943800Y-69216160D01*
X149943800Y-70947471D01*
X149794179Y-71096831D01*
X149639176Y-71470118D01*
X149639056Y-71607500D01*
X146273289Y-71607500D01*
X138470624Y-63804836D01*
X138741873Y-63805073D01*
X139320887Y-63565829D01*
X139700273Y-63187104D01*
X140076783Y-63564272D01*
X140655379Y-63804526D01*
X141281873Y-63805073D01*
X141860887Y-63565829D01*
X142240273Y-63187104D01*
X142616783Y-63564272D01*
G36*
X127955379Y-63804526D02*
X128581873Y-63805073D01*
X128752500Y-63734571D01*
X128752500Y-64917211D01*
X127816706Y-65853006D01*
X127662537Y-66083735D01*
X127643242Y-66180736D01*
X127608400Y-66355900D01*
X127608400Y-66966668D01*
X127365421Y-66865774D01*
X126738927Y-66865227D01*
X126492000Y-66967255D01*
X126492000Y-66747488D01*
X127449694Y-65789794D01*
X127603863Y-65559065D01*
X127658000Y-65286900D01*
X127658000Y-63681043D01*
X127955379Y-63804526D01*
X127955379Y-63804526D01*
G37*
X127955379Y-63804526D02*
X128581873Y-63805073D01*
X128752500Y-63734571D01*
X128752500Y-64917211D01*
X127816706Y-65853006D01*
X127662537Y-66083735D01*
X127643242Y-66180736D01*
X127608400Y-66355900D01*
X127608400Y-66966668D01*
X127365421Y-66865774D01*
X126738927Y-66865227D01*
X126492000Y-66967255D01*
X126492000Y-66747488D01*
X127449694Y-65789794D01*
X127603863Y-65559065D01*
X127658000Y-65286900D01*
X127658000Y-63681043D01*
X127955379Y-63804526D01*
G36*
X137339000Y-48260000D02*
X137352642Y-48328584D01*
X137352642Y-48398514D01*
X137507319Y-49176127D01*
X137559618Y-49302386D01*
X137613334Y-49432068D01*
X138053816Y-50091296D01*
X138249704Y-50287184D01*
X138908932Y-50727667D01*
X139036902Y-50780673D01*
X139164873Y-50833681D01*
X139942485Y-50988357D01*
X140012413Y-50988357D01*
X140081000Y-51002000D01*
X151003000Y-51002000D01*
X151003000Y-61897300D01*
X147245910Y-61897300D01*
X145906512Y-60557902D01*
X145906512Y-59149601D01*
X145852375Y-58877437D01*
X145826991Y-58839447D01*
X145698207Y-58646707D01*
X144549838Y-57498339D01*
X144319109Y-57344170D01*
X144046944Y-57290033D01*
X142122490Y-57290033D01*
X132260230Y-47427774D01*
X132029501Y-47273605D01*
X131757336Y-47219468D01*
X117992332Y-47219468D01*
X117720168Y-47273605D01*
X117489438Y-47427773D01*
X116592238Y-48324974D01*
X116463217Y-48195728D01*
X115884621Y-47955474D01*
X115258127Y-47954927D01*
X114679113Y-48194171D01*
X114299727Y-48572896D01*
X113923217Y-48195728D01*
X113344621Y-47955474D01*
X112718127Y-47954927D01*
X112139113Y-48194171D01*
X111695728Y-48636783D01*
X111455474Y-49215379D01*
X111454927Y-49841873D01*
X111694171Y-50420887D01*
X112072896Y-50800273D01*
X111695728Y-51176783D01*
X111455474Y-51755379D01*
X111454927Y-52381873D01*
X111694171Y-52960887D01*
X112136783Y-53404272D01*
X112715379Y-53644526D01*
X113341873Y-53645073D01*
X113920887Y-53405829D01*
X114300273Y-53027104D01*
X114676783Y-53404272D01*
X114858800Y-53479852D01*
X114858800Y-53820112D01*
X105537000Y-63141912D01*
X105537000Y-60035465D01*
X105778927Y-59873815D01*
X105974815Y-59677927D01*
X106745660Y-58524277D01*
X106811427Y-58365499D01*
X106851674Y-58268336D01*
X107122358Y-56907514D01*
X107122358Y-56837584D01*
X107136000Y-56769000D01*
X107136000Y-46811000D01*
X137339000Y-46811000D01*
X137339000Y-48260000D01*
X137339000Y-48260000D01*
G37*
X137339000Y-48260000D02*
X137352642Y-48328584D01*
X137352642Y-48398514D01*
X137507319Y-49176127D01*
X137559618Y-49302386D01*
X137613334Y-49432068D01*
X138053816Y-50091296D01*
X138249704Y-50287184D01*
X138908932Y-50727667D01*
X139036902Y-50780673D01*
X139164873Y-50833681D01*
X139942485Y-50988357D01*
X140012413Y-50988357D01*
X140081000Y-51002000D01*
X151003000Y-51002000D01*
X151003000Y-61897300D01*
X147245910Y-61897300D01*
X145906512Y-60557902D01*
X145906512Y-59149601D01*
X145852375Y-58877437D01*
X145826991Y-58839447D01*
X145698207Y-58646707D01*
X144549838Y-57498339D01*
X144319109Y-57344170D01*
X144046944Y-57290033D01*
X142122490Y-57290033D01*
X132260230Y-47427774D01*
X132029501Y-47273605D01*
X131757336Y-47219468D01*
X117992332Y-47219468D01*
X117720168Y-47273605D01*
X117489438Y-47427773D01*
X116592238Y-48324974D01*
X116463217Y-48195728D01*
X115884621Y-47955474D01*
X115258127Y-47954927D01*
X114679113Y-48194171D01*
X114299727Y-48572896D01*
X113923217Y-48195728D01*
X113344621Y-47955474D01*
X112718127Y-47954927D01*
X112139113Y-48194171D01*
X111695728Y-48636783D01*
X111455474Y-49215379D01*
X111454927Y-49841873D01*
X111694171Y-50420887D01*
X112072896Y-50800273D01*
X111695728Y-51176783D01*
X111455474Y-51755379D01*
X111454927Y-52381873D01*
X111694171Y-52960887D01*
X112136783Y-53404272D01*
X112715379Y-53644526D01*
X113341873Y-53645073D01*
X113920887Y-53405829D01*
X114300273Y-53027104D01*
X114676783Y-53404272D01*
X114858800Y-53479852D01*
X114858800Y-53820112D01*
X105537000Y-63141912D01*
X105537000Y-60035465D01*
X105778927Y-59873815D01*
X105974815Y-59677927D01*
X106745660Y-58524277D01*
X106811427Y-58365499D01*
X106851674Y-58268336D01*
X107122358Y-56907514D01*
X107122358Y-56837584D01*
X107136000Y-56769000D01*
X107136000Y-46811000D01*
X137339000Y-46811000D01*
X137339000Y-48260000D01*
G36*
X127955379Y-53644526D02*
X128581873Y-53645073D01*
X128828800Y-53543045D01*
X128828800Y-56314347D01*
X128789599Y-56511423D01*
X128789599Y-56982300D01*
X128543100Y-56982300D01*
X128316090Y-57027455D01*
X128270935Y-57036437D01*
X128040206Y-57190606D01*
X126749041Y-58481771D01*
X126623217Y-58355728D01*
X126044621Y-58115474D01*
X125418127Y-58114927D01*
X124839113Y-58354171D01*
X124395728Y-58796783D01*
X124303060Y-59019954D01*
X123387027Y-58103921D01*
X123387027Y-55676885D01*
X124867634Y-54196279D01*
X126412944Y-54196279D01*
X126685109Y-54142142D01*
X126915838Y-53987973D01*
X127463523Y-53440289D01*
X127955379Y-53644526D01*
X127955379Y-53644526D01*
G37*
X127955379Y-53644526D02*
X128581873Y-53645073D01*
X128828800Y-53543045D01*
X128828800Y-56314347D01*
X128789599Y-56511423D01*
X128789599Y-56982300D01*
X128543100Y-56982300D01*
X128316090Y-57027455D01*
X128270935Y-57036437D01*
X128040206Y-57190606D01*
X126749041Y-58481771D01*
X126623217Y-58355728D01*
X126044621Y-58115474D01*
X125418127Y-58114927D01*
X124839113Y-58354171D01*
X124395728Y-58796783D01*
X124303060Y-59019954D01*
X123387027Y-58103921D01*
X123387027Y-55676885D01*
X124867634Y-54196279D01*
X126412944Y-54196279D01*
X126685109Y-54142142D01*
X126915838Y-53987973D01*
X127463523Y-53440289D01*
X127955379Y-53644526D01*
G36*
X140438323Y-57617444D02*
X130469733Y-57617444D01*
X130211999Y-57359711D01*
X130211999Y-56669298D01*
X130251200Y-56472222D01*
X130251200Y-53543134D01*
X130495379Y-53644526D01*
X131121873Y-53645073D01*
X131700887Y-53405829D01*
X132144272Y-52963217D01*
X132384526Y-52384621D01*
X132385073Y-51758127D01*
X132145829Y-51179113D01*
X131767104Y-50799727D01*
X132144272Y-50423217D01*
X132384526Y-49844621D01*
X132384771Y-49563891D01*
X140438323Y-57617444D01*
X140438323Y-57617444D01*
G37*
X140438323Y-57617444D02*
X130469733Y-57617444D01*
X130211999Y-57359711D01*
X130211999Y-56669298D01*
X130251200Y-56472222D01*
X130251200Y-53543134D01*
X130495379Y-53644526D01*
X131121873Y-53645073D01*
X131700887Y-53405829D01*
X132144272Y-52963217D01*
X132384526Y-52384621D01*
X132385073Y-51758127D01*
X132145829Y-51179113D01*
X131767104Y-50799727D01*
X132144272Y-50423217D01*
X132384526Y-49844621D01*
X132384771Y-49563891D01*
X140438323Y-57617444D01*
M02*
